M48
; DRILL file {KiCad (5.99.0-12439-g94954386e6)} date Tue Oct 12 01:17:33 2021
; FORMAT={2:4/ absolute / inch / suppress leading zeros}
; #@! TF.CreationDate,2021-10-12T01:17:33+03:00
; #@! TF.GenerationSoftware,Kicad,Pcbnew,(5.99.0-12439-g94954386e6)
; #@! TF.FileFunction,MixedPlating,1,4
FMAT,2
INCH,TZ
; #@! TA.AperFunction,Plated,PTH,ComponentDrill
T1C0.0118
; #@! TA.AperFunction,Plated,PTH,ViaDrill
T2C0.0118
; #@! TA.AperFunction,Plated,PTH,ComponentDrill
T3C0.0118
; #@! TA.AperFunction,Plated,PTH,ViaDrill
T4C0.0157
; #@! TA.AperFunction,Plated,PTH,ComponentDrill
T5C0.0276
; #@! TA.AperFunction,Plated,PTH,ComponentDrill
T6C0.0320
; #@! TA.AperFunction,Plated,PTH,ViaDrill
T7C0.0394
; #@! TA.AperFunction,Plated,PTH,ComponentDrill
T8C0.0394
; #@! TA.AperFunction,Plated,PTH,ComponentDrill
T9C0.0433
; #@! TA.AperFunction,Plated,PTH,ComponentDrill
T10C0.0787
; #@! TA.AperFunction,Plated,PTH,ComponentDrill
T11C0.0866
; #@! TA.AperFunction,Plated,PTH,ComponentDrill
T12C0.1457
%
G90
G05
T1
X9341Y28494
X9370Y27096
X9459Y28996
X9803Y28789
X11188Y37840
X12714Y36590
X12792Y37722
X12798Y36246
X12798Y36974
X12828Y35911
X13005Y35271
X13521Y36807
X13521Y35783
X13521Y35015
X18253Y39038
X18597Y38831
X18686Y40731
X18716Y39333
X30804Y19582
X32949Y22278
X32956Y20218
X33697Y20024
X34931Y38799
X35477Y37303
X36187Y22800
X38114Y14188
X38114Y11235
X38114Y10920
X38114Y10605
X39759Y38799
X45014Y13833
X45014Y13440
X45349Y38799
X49641Y38799
T2
X2808Y36555
X2812Y37559
X2908Y32855
X2908Y31855
X4608Y29355
X5197Y18652
X5236Y15305
X6595Y10772
X7208Y29555
X7913Y8376
X7915Y31152
X9724Y6014
X9948Y33575
X10067Y26404
X10512Y9734
X10717Y10316
X10798Y32325
X10846Y9734
X11181Y9734
X11181Y2352
X11280Y32628
X11458Y29735
X11668Y32505
X11738Y31935
X11798Y38495
X11850Y463
X12008Y26285
X12343Y29764
X12365Y32355
X12717Y27598
X12785Y18325
X12828Y32405
X13478Y32195
X13778Y32415
X13898Y30354
X14045Y9675
X14080Y25070
X14108Y29155
X14291Y24754
X14724Y17078
X14724Y16211
X14908Y26655
X14980Y5758
X15008Y28655
X15039Y25187
X15060Y38142
X15384Y38047
X15413Y40030
X15878Y13585
X17205Y38061
X17539Y7982
X18002Y15817
X18435Y15413
X19134Y38061
X19498Y15365
X19778Y41555
X20394Y38179
X20581Y9734
X21280Y7953
X21968Y40905
X21998Y16535
X22087Y41850
X22371Y16535
X22508Y13495
X22904Y16417
X22913Y8002
X23248Y13575
X23278Y16752
X23278Y41635
X23288Y40105
X23444Y15876
X23593Y7933
X23808Y15365
X23958Y8035
X24428Y15835
X24658Y13185
X24698Y12685
X24868Y11765
X25000Y1345
X25238Y11385
X25258Y14409
X25315Y17057
X25551Y1345
X25945Y23140
X25958Y1285
X26014Y16722
X26073Y38100
X26535Y38079
X26575Y1703
X26929Y1703
X26938Y16875
X27354Y15695
X27400Y16073
X27546Y16755
X27795Y20197
X27828Y22919
X28016Y20738
X28022Y5049
X28178Y22875
X28248Y15305
X28338Y16865
X28468Y17570
X28728Y17305
X28978Y41735
X29043Y17570
X29238Y14223
X29538Y40385
X29608Y15261
X29628Y17285
X29921Y23140
X29971Y39016
X30013Y14223
X30079Y40039
X30482Y38898
X30528Y18455
X30548Y9295
X31043Y39331
X31880Y19134
X32402Y18100
X33661Y39006
X33948Y28125
X33976Y23652
X33998Y33105
X34016Y25187
X34055Y34321
X34114Y32244
X34114Y29724
X34272Y28150
X34331Y30197
X34358Y1552
X34370Y38770
X34547Y24006
X34567Y35079
X34758Y16235
X34758Y15895
X34838Y33061
X34838Y28955
X35039Y25384
X35187Y32569
X35187Y29362
X35394Y34045
X35423Y29952
X35473Y29231
X35512Y39281
X35709Y16644
X35709Y16407
X35984Y34754
X36128Y23795
X36158Y30315
X36166Y31252
X36208Y4915
X36238Y15015
X36402Y31527
X36515Y24272
X36535Y25187
X36638Y31803
X36798Y3625
X37118Y6095
X37188Y20005
X37195Y23740
X37228Y16125
X37244Y15187
X37248Y14365
X37520Y34124
X37638Y15085
X37728Y16095
X37772Y9138
X37781Y12711
X37898Y15095
X37913Y15541
X37998Y35415
X38178Y16115
X38178Y15815
X38318Y6795
X38390Y5306
X38758Y1375
X38908Y16495
X38908Y16215
X39792Y16621
X40426Y16597
X40958Y15045
X41318Y14825
X41850Y14754
X42224Y17028
X42228Y5355
X42421Y16831
X42588Y2245
X42618Y16634
X42678Y5355
X42913Y16900
X43128Y1475
X43218Y5355
X43219Y34474
X43908Y17146
X44724Y1565
X44728Y4615
X45438Y14315
X45459Y10556
X45512Y8888
X45708Y4915
X45769Y17137
X46718Y1585
X46969Y16959
X46969Y16644
X46969Y16289
X48138Y4765
X48740Y22627
X48772Y25910
X48976Y34370
X49016Y19400
X49252Y27707
X49291Y39400
X49646Y16841
X50088Y33565
X50414Y37352
X50738Y39325
X51181Y9281
X51868Y17115
X52348Y17115
X52643Y9911
X52662Y11132
X52662Y10640
X52761Y13258
X52780Y14480
X52804Y19721
X52918Y21271
X53154Y23771
X53174Y22964
X53194Y22137
X53740Y620
X53843Y11959
X53843Y11132
X53843Y10305
X54394Y23378
X54394Y22551
X54394Y21724
X54680Y12712
X55591Y33612
X55633Y21965
X55709Y23258
X56345Y21379
X56351Y13461
X56538Y20391
X56649Y13855
X56954Y21507
X56954Y20391
X57050Y13816
X57151Y13345
X58307Y1014
X60078Y17175
X60103Y19893
X60157Y21604
X60280Y14322
X60578Y17125
T3
X7360Y10789
X7754Y10789
X8148Y10789
X8541Y10789
X8974Y25848
X9368Y25848
X10766Y25848
X11159Y25848
X28479Y19298
X28479Y22605
X28814Y19298
X29030Y22605
X29148Y19298
X29244Y22162
X29454Y22605
X29483Y19298
X29724Y18728
X30005Y22605
T4
X55467Y21021
X55467Y20706
X55467Y13066
X55467Y12751
X57930Y20784
X57930Y20430
X57938Y13816
X57938Y13461
T5
X32067Y40276
X32382Y40965
X32697Y40276
X33012Y40965
X33327Y40276
T6
X3425Y12531
X3425Y11031
X4331Y12551
X4331Y11051
X5236Y12551
X5236Y11051
X6142Y12551
X6142Y11051
X16457Y11776
X16457Y10276
X18238Y11801
X18238Y10301
X19035Y11793
X19035Y10293
X20315Y11793
X20315Y10293
X21496Y11852
X21496Y10352
X48848Y12470
X48848Y10541
X49990Y12470
X49990Y10541
T7
X1024Y38031
X1024Y33750
X1024Y28406
X1024Y24094
X1024Y20197
X1024Y16053
X1024Y12106
X1024Y8406
X1083Y5719
X6280Y45266
X10561Y45266
X14744Y45266
X19242Y45266
X23888Y45266
X27933Y45266
X32215Y45276
X36398Y45276
X40896Y45276
X45039Y45256
X49587Y45276
X53730Y45256
X58278Y45276
X63346Y38612
X63346Y34331
X63346Y28986
X63346Y24675
X63346Y20778
X63346Y16634
X63346Y12687
X63346Y8986
X63346Y5846
T8
X5197Y26083
X5197Y25083
X5197Y24083
X5197Y23083
X5197Y22083
X5197Y21083
X14026Y12864
X15020Y12864
X16014Y12864
X17008Y12864
X17500Y16358
X18081Y12864
X18839Y16348
X19154Y12854
X19951Y16348
X20217Y12854
X21063Y16348
X21568Y12865
X21850Y39173
X22520Y11132
X22850Y39173
X23850Y39173
X24850Y39173
X25108Y10089
X25850Y39173
X26041Y11895
X26208Y15465
X26211Y10059
X26850Y39173
X27085Y11895
X27283Y10089
X27850Y39173
X28128Y11895
X28593Y10069
X28850Y39173
X29171Y11895
X29675Y10069
X30214Y11895
X30448Y16285
X31053Y10069
X31268Y11895
X31788Y16845
X32116Y10069
X32328Y11895
X33159Y10069
X33368Y11895
X34163Y10069
X34428Y11895
X35630Y15876
X46038Y13475
X55047Y41181
X55047Y40181
X55047Y39181
X55047Y38181
X55047Y37181
X56047Y41181
X56047Y40181
X56047Y39181
X56047Y38181
X56047Y37181
X57047Y41181
X57047Y40181
X57047Y39181
X57047Y38181
X57047Y37181
X59000Y38000
X59000Y37000
X59000Y36000
X59000Y35000
X59000Y34000
X59000Y32760
X59000Y31760
X59000Y30760
X59000Y29760
X59000Y28760
X59000Y27480
X59000Y26480
X59000Y25480
X59000Y24480
X59000Y23480
X60000Y38000
X60000Y37000
X60000Y36000
X60000Y35000
X60000Y34000
X60000Y32760
X60000Y31760
X60000Y30760
X60000Y29760
X60000Y28760
X60000Y27480
X60000Y26480
X60000Y25480
X60000Y24480
X60000Y23480
X61000Y38000
X61000Y37000
X61000Y36000
X61000Y35000
X61000Y34000
X61000Y32760
X61000Y31760
X61000Y30760
X61000Y29760
X61000Y28760
X61000Y27480
X61000Y26480
X61000Y25480
X61000Y24480
X61000Y23480
T9
X15531Y7331
X15531Y6331
X15531Y3950
X15531Y2950
X16531Y7331
X16531Y6331
X16531Y3950
X16531Y2950
X17531Y7331
X17531Y6331
X17531Y3950
X17531Y2950
X18531Y7331
X18531Y6331
X18531Y3950
X18531Y2950
X19531Y7331
X19531Y6331
X19531Y3950
X19531Y2950
X20531Y7331
X20531Y6331
X20531Y3950
X20531Y2950
X21531Y7331
X21531Y6331
X21531Y3950
X21531Y2950
X22531Y7331
X22531Y6331
X22531Y3950
X22531Y2950
X23531Y7331
X23531Y6331
X23531Y3950
X23531Y2950
X24531Y7331
X24531Y6331
X24531Y3950
X24531Y2950
X25531Y7331
X25531Y6331
X25531Y3950
X25531Y2950
X26531Y7331
X26531Y6331
X26531Y3950
X26531Y2950
X27531Y7331
X27531Y6331
X27531Y3950
X27531Y2950
X28531Y7331
X28531Y6331
X28531Y3950
X28531Y2950
X29531Y7331
X29531Y6331
X29531Y3950
X29531Y2950
X30531Y7331
X30531Y6331
X30531Y3950
X30531Y2950
X31531Y7331
X31531Y6331
X31531Y3950
X31531Y2950
X32531Y7331
X32531Y6331
X32531Y3950
X32531Y2950
X33531Y7331
X33531Y6331
X33531Y3950
X33531Y2950
X39818Y7331
X39818Y6331
X39818Y3950
X39818Y2950
X40818Y7331
X40818Y6331
X40818Y3950
X40818Y2950
X41818Y7331
X41818Y6331
X41818Y3950
X41818Y2950
X42818Y7331
X42818Y6331
X42818Y3950
X42818Y2950
X43818Y7331
X43818Y6331
X43818Y3950
X43818Y2950
X44818Y7331
X44818Y6331
X44818Y3950
X44818Y2950
X45818Y7331
X45818Y6331
X45818Y3950
X45818Y2950
X46818Y7331
X46818Y6331
X46818Y3950
X46818Y2950
T10
X35709Y41142
X37165Y40276
X37913Y41142
X39370Y40276
X40354Y41142
T11
X8306Y5233
X10137Y7331
X10137Y4131
X11279Y5048
X12420Y7331
X12420Y4131
X49901Y7331
X49901Y4131
X51043Y5048
X52184Y7331
X52184Y4131
X53365Y5048
X54507Y7331
X54507Y4131
X56259Y5233
T12
X7342Y2162
X36672Y2162
X57224Y2162
T5
X31260Y40876G85X31260Y40364
G05
X34134Y40876G85X34134Y40364
G05
T0
M30
