G04 #@! TF.GenerationSoftware,KiCad,Pcbnew,(5.99.0-10483-ga6ad7a4a70)*
G04 #@! TF.CreationDate,2021-05-18T20:21:17+03:00*
G04 #@! TF.ProjectId,hellen121vag,68656c6c-656e-4313-9231-7661672e6b69,a*
G04 #@! TF.SameCoordinates,PX2b953a0PY6943058*
G04 #@! TF.FileFunction,Legend,Bot*
G04 #@! TF.FilePolarity,Positive*
%FSLAX46Y46*%
G04 Gerber Fmt 4.6, Leading zero omitted, Abs format (unit mm)*
G04 Created by KiCad (PCBNEW (5.99.0-10483-ga6ad7a4a70)) date 2021-05-18 20:21:17*
%MOMM*%
%LPD*%
G01*
G04 APERTURE LIST*
%ADD10C,0.381000*%
%ADD11C,0.250000*%
%ADD12C,0.200000*%
%ADD13C,0.300000*%
%ADD14C,0.750000*%
%ADD15C,0.304800*%
%ADD16C,0.500000*%
%ADD17C,0.120000*%
G04 APERTURE END LIST*
D10*
X124700000Y84000000D02*
X148100000Y84000000D01*
X148100000Y84000000D02*
X148100000Y36000000D01*
X148100000Y36000000D02*
X124700000Y36000000D01*
X124700000Y36000000D02*
X124700000Y84000000D01*
G36*
X124700000Y84000000D02*
G01*
X148100000Y84000000D01*
X148100000Y36000000D01*
X124700000Y36000000D01*
X124700000Y84000000D01*
G37*
D11*
X127063571Y23745000D02*
X127063571Y24602143D01*
X127063571Y24173572D02*
X125563571Y24173572D01*
X125777857Y24316429D01*
X125920714Y24459286D01*
X125992142Y24602143D01*
X127063571Y22316429D02*
X127063571Y23173572D01*
X127063571Y22745000D02*
X125563571Y22745000D01*
X125777857Y22887858D01*
X125920714Y23030715D01*
X125992142Y23173572D01*
X127063571Y21602143D02*
X127063571Y21316429D01*
X126992142Y21173572D01*
X126920714Y21102143D01*
X126706428Y20959286D01*
X126420714Y20887858D01*
X125849285Y20887858D01*
X125706428Y20959286D01*
X125635000Y21030715D01*
X125563571Y21173572D01*
X125563571Y21459286D01*
X125635000Y21602143D01*
X125706428Y21673572D01*
X125849285Y21745000D01*
X126206428Y21745000D01*
X126349285Y21673572D01*
X126420714Y21602143D01*
X126492142Y21459286D01*
X126492142Y21173572D01*
X126420714Y21030715D01*
X126349285Y20959286D01*
X126206428Y20887858D01*
X139128571Y23745000D02*
X139128571Y24602143D01*
X139128571Y24173572D02*
X137628571Y24173572D01*
X137842857Y24316429D01*
X137985714Y24459286D01*
X138057142Y24602143D01*
X137771428Y23173572D02*
X137700000Y23102143D01*
X137628571Y22959286D01*
X137628571Y22602143D01*
X137700000Y22459286D01*
X137771428Y22387858D01*
X137914285Y22316429D01*
X138057142Y22316429D01*
X138271428Y22387858D01*
X139128571Y23245000D01*
X139128571Y22316429D01*
X139128571Y20887858D02*
X139128571Y21745000D01*
X139128571Y21316429D02*
X137628571Y21316429D01*
X137842857Y21459286D01*
X137985714Y21602143D01*
X138057142Y21745000D01*
X139128571Y7870000D02*
X139128571Y8727143D01*
X139128571Y8298572D02*
X137628571Y8298572D01*
X137842857Y8441429D01*
X137985714Y8584286D01*
X138057142Y8727143D01*
X139128571Y6441429D02*
X139128571Y7298572D01*
X139128571Y6870000D02*
X137628571Y6870000D01*
X137842857Y7012858D01*
X137985714Y7155715D01*
X138057142Y7298572D01*
X137628571Y5155715D02*
X137628571Y5441429D01*
X137700000Y5584286D01*
X137771428Y5655715D01*
X137985714Y5798572D01*
X138271428Y5870000D01*
X138842857Y5870000D01*
X138985714Y5798572D01*
X139057142Y5727143D01*
X139128571Y5584286D01*
X139128571Y5298572D01*
X139057142Y5155715D01*
X138985714Y5084286D01*
X138842857Y5012858D01*
X138485714Y5012858D01*
X138342857Y5084286D01*
X138271428Y5155715D01*
X138200000Y5298572D01*
X138200000Y5584286D01*
X138271428Y5727143D01*
X138342857Y5798572D01*
X138485714Y5870000D01*
X133413571Y7870000D02*
X133413571Y8727143D01*
X133413571Y8298572D02*
X131913571Y8298572D01*
X132127857Y8441429D01*
X132270714Y8584286D01*
X132342142Y8727143D01*
X133413571Y6441429D02*
X133413571Y7298572D01*
X133413571Y6870000D02*
X131913571Y6870000D01*
X132127857Y7012858D01*
X132270714Y7155715D01*
X132342142Y7298572D01*
X131913571Y5084286D02*
X131913571Y5798572D01*
X132627857Y5870000D01*
X132556428Y5798572D01*
X132485000Y5655715D01*
X132485000Y5298572D01*
X132556428Y5155715D01*
X132627857Y5084286D01*
X132770714Y5012858D01*
X133127857Y5012858D01*
X133270714Y5084286D01*
X133342142Y5155715D01*
X133413571Y5298572D01*
X133413571Y5655715D01*
X133342142Y5798572D01*
X133270714Y5870000D01*
X135953571Y9775000D02*
X135953571Y10632143D01*
X135953571Y10203572D02*
X134453571Y10203572D01*
X134667857Y10346429D01*
X134810714Y10489286D01*
X134882142Y10632143D01*
X135953571Y8346429D02*
X135953571Y9203572D01*
X135953571Y8775000D02*
X134453571Y8775000D01*
X134667857Y8917858D01*
X134810714Y9060715D01*
X134882142Y9203572D01*
X135096428Y7489286D02*
X135025000Y7632143D01*
X134953571Y7703572D01*
X134810714Y7775000D01*
X134739285Y7775000D01*
X134596428Y7703572D01*
X134525000Y7632143D01*
X134453571Y7489286D01*
X134453571Y7203572D01*
X134525000Y7060715D01*
X134596428Y6989286D01*
X134739285Y6917858D01*
X134810714Y6917858D01*
X134953571Y6989286D01*
X135025000Y7060715D01*
X135096428Y7203572D01*
X135096428Y7489286D01*
X135167857Y7632143D01*
X135239285Y7703572D01*
X135382142Y7775000D01*
X135667857Y7775000D01*
X135810714Y7703572D01*
X135882142Y7632143D01*
X135953571Y7489286D01*
X135953571Y7203572D01*
X135882142Y7060715D01*
X135810714Y6989286D01*
X135667857Y6917858D01*
X135382142Y6917858D01*
X135239285Y6989286D01*
X135167857Y7060715D01*
X135096428Y7203572D01*
X132778571Y23745000D02*
X132778571Y24602143D01*
X132778571Y24173572D02*
X131278571Y24173572D01*
X131492857Y24316429D01*
X131635714Y24459286D01*
X131707142Y24602143D01*
X131421428Y23173572D02*
X131350000Y23102143D01*
X131278571Y22959286D01*
X131278571Y22602143D01*
X131350000Y22459286D01*
X131421428Y22387858D01*
X131564285Y22316429D01*
X131707142Y22316429D01*
X131921428Y22387858D01*
X132778571Y23245000D01*
X132778571Y22316429D01*
X131278571Y21387858D02*
X131278571Y21245000D01*
X131350000Y21102143D01*
X131421428Y21030715D01*
X131564285Y20959286D01*
X131850000Y20887858D01*
X132207142Y20887858D01*
X132492857Y20959286D01*
X132635714Y21030715D01*
X132707142Y21102143D01*
X132778571Y21245000D01*
X132778571Y21387858D01*
X132707142Y21530715D01*
X132635714Y21602143D01*
X132492857Y21673572D01*
X132207142Y21745000D01*
X131850000Y21745000D01*
X131564285Y21673572D01*
X131421428Y21602143D01*
X131350000Y21530715D01*
X131278571Y21387858D01*
X130238571Y9775000D02*
X130238571Y10632143D01*
X130238571Y10203572D02*
X128738571Y10203572D01*
X128952857Y10346429D01*
X129095714Y10489286D01*
X129167142Y10632143D01*
X130238571Y8346429D02*
X130238571Y9203572D01*
X130238571Y8775000D02*
X128738571Y8775000D01*
X128952857Y8917858D01*
X129095714Y9060715D01*
X129167142Y9203572D01*
X128738571Y7846429D02*
X128738571Y6846429D01*
X130238571Y7489286D01*
X127063571Y7870000D02*
X127063571Y8727143D01*
X127063571Y8298572D02*
X125563571Y8298572D01*
X125777857Y8441429D01*
X125920714Y8584286D01*
X125992142Y8727143D01*
X127063571Y6441429D02*
X127063571Y7298572D01*
X127063571Y6870000D02*
X125563571Y6870000D01*
X125777857Y7012858D01*
X125920714Y7155715D01*
X125992142Y7298572D01*
X126063571Y5155715D02*
X127063571Y5155715D01*
X125492142Y5512858D02*
X126563571Y5870000D01*
X126563571Y4941429D01*
X123082857Y7743096D02*
X123273333Y7838334D01*
X123368571Y7933572D01*
X123463809Y8124048D01*
X123463809Y8219286D01*
X123368571Y8409762D01*
X123273333Y8505000D01*
X123082857Y8600239D01*
X122701904Y8600239D01*
X122511428Y8505000D01*
X122416190Y8409762D01*
X122320952Y8219286D01*
X122320952Y8124048D01*
X122416190Y7933572D01*
X122511428Y7838334D01*
X122701904Y7743096D01*
X123082857Y7743096D01*
X123273333Y7647858D01*
X123368571Y7552620D01*
X123463809Y7362143D01*
X123463809Y6981191D01*
X123368571Y6790715D01*
X123273333Y6695477D01*
X123082857Y6600239D01*
X122701904Y6600239D01*
X122511428Y6695477D01*
X122416190Y6790715D01*
X122320952Y6981191D01*
X122320952Y7362143D01*
X122416190Y7552620D01*
X122511428Y7647858D01*
X122701904Y7743096D01*
X121368571Y6600239D02*
X120987619Y6600239D01*
X120797142Y6695477D01*
X120701904Y6790715D01*
X120511428Y7076429D01*
X120416190Y7457381D01*
X120416190Y8219286D01*
X120511428Y8409762D01*
X120606666Y8505000D01*
X120797142Y8600239D01*
X121178095Y8600239D01*
X121368571Y8505000D01*
X121463809Y8409762D01*
X121559047Y8219286D01*
X121559047Y7743096D01*
X121463809Y7552620D01*
X121368571Y7457381D01*
X121178095Y7362143D01*
X120797142Y7362143D01*
X120606666Y7457381D01*
X120511428Y7552620D01*
X120416190Y7743096D01*
X123273333Y9140239D02*
X122892380Y9140239D01*
X122701904Y9235477D01*
X122606666Y9330715D01*
X122416190Y9616429D01*
X122320952Y9997381D01*
X122320952Y10759286D01*
X122416190Y10949762D01*
X122511428Y11045000D01*
X122701904Y11140239D01*
X123082857Y11140239D01*
X123273333Y11045000D01*
X123368571Y10949762D01*
X123463809Y10759286D01*
X123463809Y10283096D01*
X123368571Y10092620D01*
X123273333Y9997381D01*
X123082857Y9902143D01*
X122701904Y9902143D01*
X122511428Y9997381D01*
X122416190Y10092620D01*
X122320952Y10283096D01*
X121654285Y11140239D02*
X120320952Y11140239D01*
X121178095Y9140239D01*
X123883333Y14870239D02*
X125026190Y14870239D01*
X124454761Y14870239D02*
X124454761Y16870239D01*
X124645238Y16584524D01*
X124835714Y16394048D01*
X125026190Y16298810D01*
X122645238Y16870239D02*
X122454761Y16870239D01*
X122264285Y16775000D01*
X122169047Y16679762D01*
X122073809Y16489286D01*
X121978571Y16108334D01*
X121978571Y15632143D01*
X122073809Y15251191D01*
X122169047Y15060715D01*
X122264285Y14965477D01*
X122454761Y14870239D01*
X122645238Y14870239D01*
X122835714Y14965477D01*
X122930952Y15060715D01*
X123026190Y15251191D01*
X123121428Y15632143D01*
X123121428Y16108334D01*
X123026190Y16489286D01*
X122930952Y16679762D01*
X122835714Y16775000D01*
X122645238Y16870239D01*
X120169047Y16870239D02*
X121121428Y16870239D01*
X121216666Y15917858D01*
X121121428Y16013096D01*
X120930952Y16108334D01*
X120454761Y16108334D01*
X120264285Y16013096D01*
X120169047Y15917858D01*
X120073809Y15727381D01*
X120073809Y15251191D01*
X120169047Y15060715D01*
X120264285Y14965477D01*
X120454761Y14870239D01*
X120930952Y14870239D01*
X121121428Y14965477D01*
X121216666Y15060715D01*
X123908333Y18030239D02*
X125051190Y18030239D01*
X124479761Y18030239D02*
X124479761Y20030239D01*
X124670238Y19744524D01*
X124860714Y19554048D01*
X125051190Y19458810D01*
X122003571Y18030239D02*
X123146428Y18030239D01*
X122575000Y18030239D02*
X122575000Y20030239D01*
X122765476Y19744524D01*
X122955952Y19554048D01*
X123146428Y19458810D01*
X121336904Y20030239D02*
X120098809Y20030239D01*
X120765476Y19268334D01*
X120479761Y19268334D01*
X120289285Y19173096D01*
X120194047Y19077858D01*
X120098809Y18887381D01*
X120098809Y18411191D01*
X120194047Y18220715D01*
X120289285Y18125477D01*
X120479761Y18030239D01*
X121051190Y18030239D01*
X121241666Y18125477D01*
X121336904Y18220715D01*
X98952857Y7743096D02*
X99143333Y7838334D01*
X99238571Y7933572D01*
X99333809Y8124048D01*
X99333809Y8219286D01*
X99238571Y8409762D01*
X99143333Y8505000D01*
X98952857Y8600239D01*
X98571904Y8600239D01*
X98381428Y8505000D01*
X98286190Y8409762D01*
X98190952Y8219286D01*
X98190952Y8124048D01*
X98286190Y7933572D01*
X98381428Y7838334D01*
X98571904Y7743096D01*
X98952857Y7743096D01*
X99143333Y7647858D01*
X99238571Y7552620D01*
X99333809Y7362143D01*
X99333809Y6981191D01*
X99238571Y6790715D01*
X99143333Y6695477D01*
X98952857Y6600239D01*
X98571904Y6600239D01*
X98381428Y6695477D01*
X98286190Y6790715D01*
X98190952Y6981191D01*
X98190952Y7362143D01*
X98286190Y7552620D01*
X98381428Y7647858D01*
X98571904Y7743096D01*
X97429047Y8409762D02*
X97333809Y8505000D01*
X97143333Y8600239D01*
X96667142Y8600239D01*
X96476666Y8505000D01*
X96381428Y8409762D01*
X96286190Y8219286D01*
X96286190Y8028810D01*
X96381428Y7743096D01*
X97524285Y6600239D01*
X96286190Y6600239D01*
X99143333Y9140239D02*
X98762380Y9140239D01*
X98571904Y9235477D01*
X98476666Y9330715D01*
X98286190Y9616429D01*
X98190952Y9997381D01*
X98190952Y10759286D01*
X98286190Y10949762D01*
X98381428Y11045000D01*
X98571904Y11140239D01*
X98952857Y11140239D01*
X99143333Y11045000D01*
X99238571Y10949762D01*
X99333809Y10759286D01*
X99333809Y10283096D01*
X99238571Y10092620D01*
X99143333Y9997381D01*
X98952857Y9902143D01*
X98571904Y9902143D01*
X98381428Y9997381D01*
X98286190Y10092620D01*
X98190952Y10283096D01*
X96952857Y11140239D02*
X96762380Y11140239D01*
X96571904Y11045000D01*
X96476666Y10949762D01*
X96381428Y10759286D01*
X96286190Y10378334D01*
X96286190Y9902143D01*
X96381428Y9521191D01*
X96476666Y9330715D01*
X96571904Y9235477D01*
X96762380Y9140239D01*
X96952857Y9140239D01*
X97143333Y9235477D01*
X97238571Y9330715D01*
X97333809Y9521191D01*
X97429047Y9902143D01*
X97429047Y10378334D01*
X97333809Y10759286D01*
X97238571Y10949762D01*
X97143333Y11045000D01*
X96952857Y11140239D01*
X98743333Y14655239D02*
X98362380Y14655239D01*
X98171904Y14750477D01*
X98076666Y14845715D01*
X97886190Y15131429D01*
X97790952Y15512381D01*
X97790952Y16274286D01*
X97886190Y16464762D01*
X97981428Y16560000D01*
X98171904Y16655239D01*
X98552857Y16655239D01*
X98743333Y16560000D01*
X98838571Y16464762D01*
X98933809Y16274286D01*
X98933809Y15798096D01*
X98838571Y15607620D01*
X98743333Y15512381D01*
X98552857Y15417143D01*
X98171904Y15417143D01*
X97981428Y15512381D01*
X97886190Y15607620D01*
X97790952Y15798096D01*
X96648095Y15798096D02*
X96838571Y15893334D01*
X96933809Y15988572D01*
X97029047Y16179048D01*
X97029047Y16274286D01*
X96933809Y16464762D01*
X96838571Y16560000D01*
X96648095Y16655239D01*
X96267142Y16655239D01*
X96076666Y16560000D01*
X95981428Y16464762D01*
X95886190Y16274286D01*
X95886190Y16179048D01*
X95981428Y15988572D01*
X96076666Y15893334D01*
X96267142Y15798096D01*
X96648095Y15798096D01*
X96838571Y15702858D01*
X96933809Y15607620D01*
X97029047Y15417143D01*
X97029047Y15036191D01*
X96933809Y14845715D01*
X96838571Y14750477D01*
X96648095Y14655239D01*
X96267142Y14655239D01*
X96076666Y14750477D01*
X95981428Y14845715D01*
X95886190Y15036191D01*
X95886190Y15417143D01*
X95981428Y15607620D01*
X96076666Y15702858D01*
X96267142Y15798096D01*
X98508333Y18030239D02*
X99651190Y18030239D01*
X99079761Y18030239D02*
X99079761Y20030239D01*
X99270238Y19744524D01*
X99460714Y19554048D01*
X99651190Y19458810D01*
X97270238Y20030239D02*
X97079761Y20030239D01*
X96889285Y19935000D01*
X96794047Y19839762D01*
X96698809Y19649286D01*
X96603571Y19268334D01*
X96603571Y18792143D01*
X96698809Y18411191D01*
X96794047Y18220715D01*
X96889285Y18125477D01*
X97079761Y18030239D01*
X97270238Y18030239D01*
X97460714Y18125477D01*
X97555952Y18220715D01*
X97651190Y18411191D01*
X97746428Y18792143D01*
X97746428Y19268334D01*
X97651190Y19649286D01*
X97555952Y19839762D01*
X97460714Y19935000D01*
X97270238Y20030239D01*
X94889285Y20030239D02*
X95270238Y20030239D01*
X95460714Y19935000D01*
X95555952Y19839762D01*
X95746428Y19554048D01*
X95841666Y19173096D01*
X95841666Y18411191D01*
X95746428Y18220715D01*
X95651190Y18125477D01*
X95460714Y18030239D01*
X95079761Y18030239D01*
X94889285Y18125477D01*
X94794047Y18220715D01*
X94698809Y18411191D01*
X94698809Y18887381D01*
X94794047Y19077858D01*
X94889285Y19173096D01*
X95079761Y19268334D01*
X95460714Y19268334D01*
X95651190Y19173096D01*
X95746428Y19077858D01*
X95841666Y18887381D01*
X88856428Y8600239D02*
X89237380Y8600239D01*
X89427857Y8505000D01*
X89523095Y8409762D01*
X89713571Y8124048D01*
X89808809Y7743096D01*
X89808809Y6981191D01*
X89713571Y6790715D01*
X89618333Y6695477D01*
X89427857Y6600239D01*
X89046904Y6600239D01*
X88856428Y6695477D01*
X88761190Y6790715D01*
X88665952Y6981191D01*
X88665952Y7457381D01*
X88761190Y7647858D01*
X88856428Y7743096D01*
X89046904Y7838334D01*
X89427857Y7838334D01*
X89618333Y7743096D01*
X89713571Y7647858D01*
X89808809Y7457381D01*
X87999285Y8600239D02*
X86761190Y8600239D01*
X87427857Y7838334D01*
X87142142Y7838334D01*
X86951666Y7743096D01*
X86856428Y7647858D01*
X86761190Y7457381D01*
X86761190Y6981191D01*
X86856428Y6790715D01*
X86951666Y6695477D01*
X87142142Y6600239D01*
X87713571Y6600239D01*
X87904047Y6695477D01*
X87999285Y6790715D01*
X88856428Y10473572D02*
X88856428Y9140239D01*
X89332619Y11235477D02*
X89808809Y9806905D01*
X88570714Y9806905D01*
X86951666Y10473572D02*
X86951666Y9140239D01*
X87427857Y11235477D02*
X87904047Y9806905D01*
X86665952Y9806905D01*
X89808809Y16664762D02*
X89713571Y16760000D01*
X89523095Y16855239D01*
X89046904Y16855239D01*
X88856428Y16760000D01*
X88761190Y16664762D01*
X88665952Y16474286D01*
X88665952Y16283810D01*
X88761190Y15998096D01*
X89904047Y14855239D01*
X88665952Y14855239D01*
X86856428Y16855239D02*
X87808809Y16855239D01*
X87904047Y15902858D01*
X87808809Y15998096D01*
X87618333Y16093334D01*
X87142142Y16093334D01*
X86951666Y15998096D01*
X86856428Y15902858D01*
X86761190Y15712381D01*
X86761190Y15236191D01*
X86856428Y15045715D01*
X86951666Y14950477D01*
X87142142Y14855239D01*
X87618333Y14855239D01*
X87808809Y14950477D01*
X87904047Y15045715D01*
X87269047Y20030239D02*
X87650000Y20030239D01*
X87840476Y19935000D01*
X87935714Y19839762D01*
X88126190Y19554048D01*
X88221428Y19173096D01*
X88221428Y18411191D01*
X88126190Y18220715D01*
X88030952Y18125477D01*
X87840476Y18030239D01*
X87459523Y18030239D01*
X87269047Y18125477D01*
X87173809Y18220715D01*
X87078571Y18411191D01*
X87078571Y18887381D01*
X87173809Y19077858D01*
X87269047Y19173096D01*
X87459523Y19268334D01*
X87840476Y19268334D01*
X88030952Y19173096D01*
X88126190Y19077858D01*
X88221428Y18887381D01*
X32563809Y21935239D02*
X33516190Y21935239D01*
X33611428Y20982858D01*
X33516190Y21078096D01*
X33325714Y21173334D01*
X32849523Y21173334D01*
X32659047Y21078096D01*
X32563809Y20982858D01*
X32468571Y20792381D01*
X32468571Y20316191D01*
X32563809Y20125715D01*
X32659047Y20030477D01*
X32849523Y19935239D01*
X33325714Y19935239D01*
X33516190Y20030477D01*
X33611428Y20125715D01*
X23769047Y21268572D02*
X23769047Y19935239D01*
X24245238Y22030477D02*
X24721428Y20601905D01*
X23483333Y20601905D01*
X29261666Y16855239D02*
X28023571Y16855239D01*
X28690238Y16093334D01*
X28404523Y16093334D01*
X28214047Y15998096D01*
X28118809Y15902858D01*
X28023571Y15712381D01*
X28023571Y15236191D01*
X28118809Y15045715D01*
X28214047Y14950477D01*
X28404523Y14855239D01*
X28975952Y14855239D01*
X29166428Y14950477D01*
X29261666Y15045715D01*
X33611428Y14124762D02*
X33516190Y14220000D01*
X33325714Y14315239D01*
X32849523Y14315239D01*
X32659047Y14220000D01*
X32563809Y14124762D01*
X32468571Y13934286D01*
X32468571Y13743810D01*
X32563809Y13458096D01*
X33706666Y12315239D01*
X32468571Y12315239D01*
X23578571Y12315239D02*
X24721428Y12315239D01*
X24150000Y12315239D02*
X24150000Y14315239D01*
X24340476Y14029524D01*
X24530952Y13839048D01*
X24721428Y13743810D01*
X37992857Y7743096D02*
X38183333Y7838334D01*
X38278571Y7933572D01*
X38373809Y8124048D01*
X38373809Y8219286D01*
X38278571Y8409762D01*
X38183333Y8505000D01*
X37992857Y8600239D01*
X37611904Y8600239D01*
X37421428Y8505000D01*
X37326190Y8409762D01*
X37230952Y8219286D01*
X37230952Y8124048D01*
X37326190Y7933572D01*
X37421428Y7838334D01*
X37611904Y7743096D01*
X37992857Y7743096D01*
X38183333Y7647858D01*
X38278571Y7552620D01*
X38373809Y7362143D01*
X38373809Y6981191D01*
X38278571Y6790715D01*
X38183333Y6695477D01*
X37992857Y6600239D01*
X37611904Y6600239D01*
X37421428Y6695477D01*
X37326190Y6790715D01*
X37230952Y6981191D01*
X37230952Y7362143D01*
X37326190Y7552620D01*
X37421428Y7647858D01*
X37611904Y7743096D01*
X35326190Y6600239D02*
X36469047Y6600239D01*
X35897619Y6600239D02*
X35897619Y8600239D01*
X36088095Y8314524D01*
X36278571Y8124048D01*
X36469047Y8028810D01*
X37421428Y11140239D02*
X37802380Y11140239D01*
X37992857Y11045000D01*
X38088095Y10949762D01*
X38278571Y10664048D01*
X38373809Y10283096D01*
X38373809Y9521191D01*
X38278571Y9330715D01*
X38183333Y9235477D01*
X37992857Y9140239D01*
X37611904Y9140239D01*
X37421428Y9235477D01*
X37326190Y9330715D01*
X37230952Y9521191D01*
X37230952Y9997381D01*
X37326190Y10187858D01*
X37421428Y10283096D01*
X37611904Y10378334D01*
X37992857Y10378334D01*
X38183333Y10283096D01*
X38278571Y10187858D01*
X38373809Y9997381D01*
X36469047Y10949762D02*
X36373809Y11045000D01*
X36183333Y11140239D01*
X35707142Y11140239D01*
X35516666Y11045000D01*
X35421428Y10949762D01*
X35326190Y10759286D01*
X35326190Y10568810D01*
X35421428Y10283096D01*
X36564285Y9140239D01*
X35326190Y9140239D01*
X37333428Y16307572D02*
X37333428Y14974239D01*
X37809619Y17069477D02*
X38285809Y15640905D01*
X37047714Y15640905D01*
X36476285Y16974239D02*
X35238190Y16974239D01*
X35904857Y16212334D01*
X35619142Y16212334D01*
X35428666Y16117096D01*
X35333428Y16021858D01*
X35238190Y15831381D01*
X35238190Y15355191D01*
X35333428Y15164715D01*
X35428666Y15069477D01*
X35619142Y14974239D01*
X36190571Y14974239D01*
X36381047Y15069477D01*
X36476285Y15164715D01*
X38373809Y19839762D02*
X38278571Y19935000D01*
X38088095Y20030239D01*
X37611904Y20030239D01*
X37421428Y19935000D01*
X37326190Y19839762D01*
X37230952Y19649286D01*
X37230952Y19458810D01*
X37326190Y19173096D01*
X38469047Y18030239D01*
X37230952Y18030239D01*
X35516666Y19363572D02*
X35516666Y18030239D01*
X35992857Y20125477D02*
X36469047Y18696905D01*
X35230952Y18696905D01*
D12*
X53282380Y15049524D02*
X53282380Y14430477D01*
X53663333Y14763810D01*
X53663333Y14620953D01*
X53710952Y14525715D01*
X53758571Y14478096D01*
X53853809Y14430477D01*
X54091904Y14430477D01*
X54187142Y14478096D01*
X54234761Y14525715D01*
X54282380Y14620953D01*
X54282380Y14906667D01*
X54234761Y15001905D01*
X54187142Y15049524D01*
X53282380Y14097143D02*
X53282380Y13430477D01*
X54282380Y13859048D01*
X52714380Y20969477D02*
X52714380Y21540905D01*
X52714380Y21255191D02*
X51714380Y21255191D01*
X51857238Y21350429D01*
X51952476Y21445667D01*
X52000095Y21540905D01*
X52714380Y20493286D02*
X52714380Y20302810D01*
X52666761Y20207572D01*
X52619142Y20159953D01*
X52476285Y20064715D01*
X52285809Y20017096D01*
X51904857Y20017096D01*
X51809619Y20064715D01*
X51762000Y20112334D01*
X51714380Y20207572D01*
X51714380Y20398048D01*
X51762000Y20493286D01*
X51809619Y20540905D01*
X51904857Y20588524D01*
X52142952Y20588524D01*
X52238190Y20540905D01*
X52285809Y20493286D01*
X52333428Y20398048D01*
X52333428Y20207572D01*
X52285809Y20112334D01*
X52238190Y20064715D01*
X52142952Y20017096D01*
X115582380Y14706667D02*
X115582380Y15278096D01*
X115582380Y14992381D02*
X114582380Y14992381D01*
X114725238Y15087620D01*
X114820476Y15182858D01*
X114868095Y15278096D01*
X114582380Y14087620D02*
X114582380Y13992381D01*
X114630000Y13897143D01*
X114677619Y13849524D01*
X114772857Y13801905D01*
X114963333Y13754286D01*
X115201428Y13754286D01*
X115391904Y13801905D01*
X115487142Y13849524D01*
X115534761Y13897143D01*
X115582380Y13992381D01*
X115582380Y14087620D01*
X115534761Y14182858D01*
X115487142Y14230477D01*
X115391904Y14278096D01*
X115201428Y14325715D01*
X114963333Y14325715D01*
X114772857Y14278096D01*
X114677619Y14230477D01*
X114630000Y14182858D01*
X114582380Y14087620D01*
X114915714Y12897143D02*
X115582380Y12897143D01*
X114534761Y13135239D02*
X115249047Y13373334D01*
X115249047Y12754286D01*
X43547714Y14464715D02*
X44214380Y14464715D01*
X43166761Y14702810D02*
X43881047Y14940905D01*
X43881047Y14321858D01*
X44214380Y13417096D02*
X44214380Y13988524D01*
X44214380Y13702810D02*
X43214380Y13702810D01*
X43357238Y13798048D01*
X43452476Y13893286D01*
X43500095Y13988524D01*
X106814380Y21845667D02*
X106814380Y22417096D01*
X106814380Y22131381D02*
X105814380Y22131381D01*
X105957238Y22226620D01*
X106052476Y22321858D01*
X106100095Y22417096D01*
X105814380Y21226620D02*
X105814380Y21131381D01*
X105862000Y21036143D01*
X105909619Y20988524D01*
X106004857Y20940905D01*
X106195333Y20893286D01*
X106433428Y20893286D01*
X106623904Y20940905D01*
X106719142Y20988524D01*
X106766761Y21036143D01*
X106814380Y21131381D01*
X106814380Y21226620D01*
X106766761Y21321858D01*
X106719142Y21369477D01*
X106623904Y21417096D01*
X106433428Y21464715D01*
X106195333Y21464715D01*
X106004857Y21417096D01*
X105909619Y21369477D01*
X105862000Y21321858D01*
X105814380Y21226620D01*
X106242952Y20321858D02*
X106195333Y20417096D01*
X106147714Y20464715D01*
X106052476Y20512334D01*
X106004857Y20512334D01*
X105909619Y20464715D01*
X105862000Y20417096D01*
X105814380Y20321858D01*
X105814380Y20131381D01*
X105862000Y20036143D01*
X105909619Y19988524D01*
X106004857Y19940905D01*
X106052476Y19940905D01*
X106147714Y19988524D01*
X106195333Y20036143D01*
X106242952Y20131381D01*
X106242952Y20321858D01*
X106290571Y20417096D01*
X106338190Y20464715D01*
X106433428Y20512334D01*
X106623904Y20512334D01*
X106719142Y20464715D01*
X106766761Y20417096D01*
X106814380Y20321858D01*
X106814380Y20131381D01*
X106766761Y20036143D01*
X106719142Y19988524D01*
X106623904Y19940905D01*
X106433428Y19940905D01*
X106338190Y19988524D01*
X106290571Y20036143D01*
X106242952Y20131381D01*
D13*
X27066761Y103674239D02*
X27066761Y105007572D01*
X27066761Y104626620D02*
X26971523Y104817096D01*
X26876285Y104912334D01*
X26685809Y105007572D01*
X26495333Y105007572D01*
X25066761Y103769477D02*
X25257238Y103674239D01*
X25638190Y103674239D01*
X25828666Y103769477D01*
X25923904Y103959953D01*
X25923904Y104721858D01*
X25828666Y104912334D01*
X25638190Y105007572D01*
X25257238Y105007572D01*
X25066761Y104912334D01*
X24971523Y104721858D01*
X24971523Y104531381D01*
X25923904Y104340905D01*
X24304857Y105007572D02*
X23828666Y103674239D01*
X23352476Y105007572D01*
X22590571Y103864715D02*
X22495333Y103769477D01*
X22590571Y103674239D01*
X22685809Y103769477D01*
X22590571Y103864715D01*
X22590571Y103674239D01*
X20114380Y103674239D02*
X20114380Y105674239D01*
X20114380Y104912334D02*
X19923904Y105007572D01*
X19542952Y105007572D01*
X19352476Y104912334D01*
X19257238Y104817096D01*
X19162000Y104626620D01*
X19162000Y104055191D01*
X19257238Y103864715D01*
X19352476Y103769477D01*
X19542952Y103674239D01*
X19923904Y103674239D01*
X20114380Y103769477D01*
D12*
X116410952Y5911429D02*
X116363333Y6006667D01*
X116315714Y6054286D01*
X116220476Y6101905D01*
X116172857Y6101905D01*
X116077619Y6054286D01*
X116030000Y6006667D01*
X115982380Y5911429D01*
X115982380Y5720953D01*
X116030000Y5625715D01*
X116077619Y5578096D01*
X116172857Y5530477D01*
X116220476Y5530477D01*
X116315714Y5578096D01*
X116363333Y5625715D01*
X116410952Y5720953D01*
X116410952Y5911429D01*
X116458571Y6006667D01*
X116506190Y6054286D01*
X116601428Y6101905D01*
X116791904Y6101905D01*
X116887142Y6054286D01*
X116934761Y6006667D01*
X116982380Y5911429D01*
X116982380Y5720953D01*
X116934761Y5625715D01*
X116887142Y5578096D01*
X116791904Y5530477D01*
X116601428Y5530477D01*
X116506190Y5578096D01*
X116458571Y5625715D01*
X116410952Y5720953D01*
X116410952Y4959048D02*
X116363333Y5054286D01*
X116315714Y5101905D01*
X116220476Y5149524D01*
X116172857Y5149524D01*
X116077619Y5101905D01*
X116030000Y5054286D01*
X115982380Y4959048D01*
X115982380Y4768572D01*
X116030000Y4673334D01*
X116077619Y4625715D01*
X116172857Y4578096D01*
X116220476Y4578096D01*
X116315714Y4625715D01*
X116363333Y4673334D01*
X116410952Y4768572D01*
X116410952Y4959048D01*
X116458571Y5054286D01*
X116506190Y5101905D01*
X116601428Y5149524D01*
X116791904Y5149524D01*
X116887142Y5101905D01*
X116934761Y5054286D01*
X116982380Y4959048D01*
X116982380Y4768572D01*
X116934761Y4673334D01*
X116887142Y4625715D01*
X116791904Y4578096D01*
X116601428Y4578096D01*
X116506190Y4625715D01*
X116458571Y4673334D01*
X116410952Y4768572D01*
X44109619Y21540905D02*
X44062000Y21493286D01*
X44014380Y21398048D01*
X44014380Y21159953D01*
X44062000Y21064715D01*
X44109619Y21017096D01*
X44204857Y20969477D01*
X44300095Y20969477D01*
X44442952Y21017096D01*
X45014380Y21588524D01*
X45014380Y20969477D01*
X44109619Y20588524D02*
X44062000Y20540905D01*
X44014380Y20445667D01*
X44014380Y20207572D01*
X44062000Y20112334D01*
X44109619Y20064715D01*
X44204857Y20017096D01*
X44300095Y20017096D01*
X44442952Y20064715D01*
X45014380Y20636143D01*
X45014380Y20017096D01*
X59414380Y12317096D02*
X59414380Y12793286D01*
X59890571Y12840905D01*
X59842952Y12793286D01*
X59795333Y12698048D01*
X59795333Y12459953D01*
X59842952Y12364715D01*
X59890571Y12317096D01*
X59985809Y12269477D01*
X60223904Y12269477D01*
X60319142Y12317096D01*
X60366761Y12364715D01*
X60414380Y12459953D01*
X60414380Y12698048D01*
X60366761Y12793286D01*
X60319142Y12840905D01*
X59747714Y11412334D02*
X60414380Y11412334D01*
X59366761Y11650429D02*
X60081047Y11888524D01*
X60081047Y11269477D01*
X101714380Y12545667D02*
X101714380Y12355191D01*
X101666761Y12259953D01*
X101619142Y12212334D01*
X101476285Y12117096D01*
X101285809Y12069477D01*
X100904857Y12069477D01*
X100809619Y12117096D01*
X100762000Y12164715D01*
X100714380Y12259953D01*
X100714380Y12450429D01*
X100762000Y12545667D01*
X100809619Y12593286D01*
X100904857Y12640905D01*
X101142952Y12640905D01*
X101238190Y12593286D01*
X101285809Y12545667D01*
X101333428Y12450429D01*
X101333428Y12259953D01*
X101285809Y12164715D01*
X101238190Y12117096D01*
X101142952Y12069477D01*
X100714380Y11450429D02*
X100714380Y11355191D01*
X100762000Y11259953D01*
X100809619Y11212334D01*
X100904857Y11164715D01*
X101095333Y11117096D01*
X101333428Y11117096D01*
X101523904Y11164715D01*
X101619142Y11212334D01*
X101666761Y11259953D01*
X101714380Y11355191D01*
X101714380Y11450429D01*
X101666761Y11545667D01*
X101619142Y11593286D01*
X101523904Y11640905D01*
X101333428Y11688524D01*
X101095333Y11688524D01*
X100904857Y11640905D01*
X100809619Y11593286D01*
X100762000Y11545667D01*
X100714380Y11450429D01*
X74847714Y12364715D02*
X75514380Y12364715D01*
X74466761Y12602810D02*
X75181047Y12840905D01*
X75181047Y12221858D01*
X74942952Y11698048D02*
X74895333Y11793286D01*
X74847714Y11840905D01*
X74752476Y11888524D01*
X74704857Y11888524D01*
X74609619Y11840905D01*
X74562000Y11793286D01*
X74514380Y11698048D01*
X74514380Y11507572D01*
X74562000Y11412334D01*
X74609619Y11364715D01*
X74704857Y11317096D01*
X74752476Y11317096D01*
X74847714Y11364715D01*
X74895333Y11412334D01*
X74942952Y11507572D01*
X74942952Y11698048D01*
X74990571Y11793286D01*
X75038190Y11840905D01*
X75133428Y11888524D01*
X75323904Y11888524D01*
X75419142Y11840905D01*
X75466761Y11793286D01*
X75514380Y11698048D01*
X75514380Y11507572D01*
X75466761Y11412334D01*
X75419142Y11364715D01*
X75323904Y11317096D01*
X75133428Y11317096D01*
X75038190Y11364715D01*
X74990571Y11412334D01*
X74942952Y11507572D01*
X112014380Y12545667D02*
X112014380Y12355191D01*
X111966761Y12259953D01*
X111919142Y12212334D01*
X111776285Y12117096D01*
X111585809Y12069477D01*
X111204857Y12069477D01*
X111109619Y12117096D01*
X111062000Y12164715D01*
X111014380Y12259953D01*
X111014380Y12450429D01*
X111062000Y12545667D01*
X111109619Y12593286D01*
X111204857Y12640905D01*
X111442952Y12640905D01*
X111538190Y12593286D01*
X111585809Y12545667D01*
X111633428Y12450429D01*
X111633428Y12259953D01*
X111585809Y12164715D01*
X111538190Y12117096D01*
X111442952Y12069477D01*
X111347714Y11212334D02*
X112014380Y11212334D01*
X110966761Y11450429D02*
X111681047Y11688524D01*
X111681047Y11069477D01*
D14*
X48312000Y107119477D02*
X48312000Y111119476D01*
X48312000Y109214715D02*
X46597714Y109214715D01*
X46597714Y107119477D02*
X46597714Y111119476D01*
X44026285Y107309953D02*
X44312000Y107119477D01*
X44883428Y107119477D01*
X45169142Y107309953D01*
X45312000Y107690905D01*
X45312000Y109214715D01*
X45169142Y109595667D01*
X44883428Y109786143D01*
X44312000Y109786143D01*
X44026285Y109595667D01*
X43883428Y109214715D01*
X43883428Y108833762D01*
X45312000Y108452810D01*
X42169142Y107119477D02*
X42454857Y107309953D01*
X42597714Y107690905D01*
X42597714Y111119476D01*
X40597714Y107119477D02*
X40883428Y107309953D01*
X41026285Y107690905D01*
X41026285Y111119476D01*
X38312000Y107309953D02*
X38597714Y107119477D01*
X39169142Y107119477D01*
X39454857Y107309953D01*
X39597714Y107690905D01*
X39597714Y109214715D01*
X39454857Y109595667D01*
X39169142Y109786143D01*
X38597714Y109786143D01*
X38312000Y109595667D01*
X38169142Y109214715D01*
X38169142Y108833762D01*
X39597714Y108452810D01*
X36883428Y109786143D02*
X36883428Y107119477D01*
X36883428Y109405191D02*
X36740571Y109595667D01*
X36454857Y109786143D01*
X36026285Y109786143D01*
X35740571Y109595667D01*
X35597714Y109214715D01*
X35597714Y107119477D01*
X32597714Y107119477D02*
X34312000Y107119477D01*
X33454857Y107119477D02*
X33454857Y111119476D01*
X33740571Y110548047D01*
X34026285Y110167096D01*
X34312000Y109976620D01*
X31454857Y110738523D02*
X31312000Y110929000D01*
X31026285Y111119476D01*
X30312000Y111119476D01*
X30026285Y110929000D01*
X29883428Y110738523D01*
X29740571Y110357572D01*
X29740571Y109976620D01*
X29883428Y109405191D01*
X31597714Y107119477D01*
X29740571Y107119477D01*
X26883428Y107119477D02*
X28597714Y107119477D01*
X27740571Y107119477D02*
X27740571Y111119476D01*
X28026285Y110548047D01*
X28312000Y110167096D01*
X28597714Y109976620D01*
X25883428Y109786143D02*
X25169142Y107119477D01*
X24454857Y109786143D01*
X22026285Y107119477D02*
X22026285Y109214715D01*
X22169142Y109595667D01*
X22454857Y109786143D01*
X23026285Y109786143D01*
X23312000Y109595667D01*
X22026285Y107309953D02*
X22312000Y107119477D01*
X23026285Y107119477D01*
X23312000Y107309953D01*
X23454857Y107690905D01*
X23454857Y108071858D01*
X23312000Y108452810D01*
X23026285Y108643286D01*
X22312000Y108643286D01*
X22026285Y108833762D01*
X19312000Y109786143D02*
X19312000Y106548048D01*
X19454857Y106167096D01*
X19597714Y105976620D01*
X19883428Y105786143D01*
X20312000Y105786143D01*
X20597714Y105976620D01*
X19312000Y107309953D02*
X19597714Y107119477D01*
X20169142Y107119477D01*
X20454857Y107309953D01*
X20597714Y107500429D01*
X20740571Y107881381D01*
X20740571Y109024239D01*
X20597714Y109405191D01*
X20454857Y109595667D01*
X20169142Y109786143D01*
X19597714Y109786143D01*
X19312000Y109595667D01*
D13*
X15185809Y71079000D02*
X15376285Y71174239D01*
X15662000Y71174239D01*
X15947714Y71079000D01*
X16138190Y70888524D01*
X16233428Y70698048D01*
X16328666Y70317096D01*
X16328666Y70031381D01*
X16233428Y69650429D01*
X16138190Y69459953D01*
X15947714Y69269477D01*
X15662000Y69174239D01*
X15471523Y69174239D01*
X15185809Y69269477D01*
X15090571Y69364715D01*
X15090571Y70031381D01*
X15471523Y70031381D01*
X14233428Y69174239D02*
X14233428Y71174239D01*
X13090571Y69174239D01*
X13090571Y71174239D01*
X12138190Y69174239D02*
X12138190Y71174239D01*
X11662000Y71174239D01*
X11376285Y71079000D01*
X11185809Y70888524D01*
X11090571Y70698048D01*
X10995333Y70317096D01*
X10995333Y70031381D01*
X11090571Y69650429D01*
X11185809Y69459953D01*
X11376285Y69269477D01*
X11662000Y69174239D01*
X12138190Y69174239D01*
D12*
X75414380Y21069477D02*
X75414380Y21640905D01*
X75414380Y21355191D02*
X74414380Y21355191D01*
X74557238Y21450429D01*
X74652476Y21545667D01*
X74700095Y21640905D01*
X74414380Y20450429D02*
X74414380Y20355191D01*
X74462000Y20259953D01*
X74509619Y20212334D01*
X74604857Y20164715D01*
X74795333Y20117096D01*
X75033428Y20117096D01*
X75223904Y20164715D01*
X75319142Y20212334D01*
X75366761Y20259953D01*
X75414380Y20355191D01*
X75414380Y20450429D01*
X75366761Y20545667D01*
X75319142Y20593286D01*
X75223904Y20640905D01*
X75033428Y20688524D01*
X74795333Y20688524D01*
X74604857Y20640905D01*
X74509619Y20593286D01*
X74462000Y20545667D01*
X74414380Y20450429D01*
X38447714Y14464715D02*
X39114380Y14464715D01*
X38066761Y14702810D02*
X38781047Y14940905D01*
X38781047Y14321858D01*
X38114380Y14036143D02*
X38114380Y13417096D01*
X38495333Y13750429D01*
X38495333Y13607572D01*
X38542952Y13512334D01*
X38590571Y13464715D01*
X38685809Y13417096D01*
X38923904Y13417096D01*
X39019142Y13464715D01*
X39066761Y13512334D01*
X39114380Y13607572D01*
X39114380Y13893286D01*
X39066761Y13988524D01*
X39019142Y14036143D01*
X82114380Y21212334D02*
X82114380Y20545667D01*
X83114380Y20974239D01*
X46714380Y12217096D02*
X46714380Y12693286D01*
X47190571Y12740905D01*
X47142952Y12693286D01*
X47095333Y12598048D01*
X47095333Y12359953D01*
X47142952Y12264715D01*
X47190571Y12217096D01*
X47285809Y12169477D01*
X47523904Y12169477D01*
X47619142Y12217096D01*
X47666761Y12264715D01*
X47714380Y12359953D01*
X47714380Y12598048D01*
X47666761Y12693286D01*
X47619142Y12740905D01*
X47714380Y11693286D02*
X47714380Y11502810D01*
X47666761Y11407572D01*
X47619142Y11359953D01*
X47476285Y11264715D01*
X47285809Y11217096D01*
X46904857Y11217096D01*
X46809619Y11264715D01*
X46762000Y11312334D01*
X46714380Y11407572D01*
X46714380Y11598048D01*
X46762000Y11693286D01*
X46809619Y11740905D01*
X46904857Y11788524D01*
X47142952Y11788524D01*
X47238190Y11740905D01*
X47285809Y11693286D01*
X47333428Y11598048D01*
X47333428Y11407572D01*
X47285809Y11312334D01*
X47238190Y11264715D01*
X47142952Y11217096D01*
X57614380Y21069477D02*
X57614380Y21640905D01*
X57614380Y21355191D02*
X56614380Y21355191D01*
X56757238Y21450429D01*
X56852476Y21545667D01*
X56900095Y21640905D01*
X56614380Y20736143D02*
X56614380Y20069477D01*
X57614380Y20498048D01*
X72447714Y12364715D02*
X73114380Y12364715D01*
X72066761Y12602810D02*
X72781047Y12840905D01*
X72781047Y12221858D01*
X73114380Y11793286D02*
X73114380Y11602810D01*
X73066761Y11507572D01*
X73019142Y11459953D01*
X72876285Y11364715D01*
X72685809Y11317096D01*
X72304857Y11317096D01*
X72209619Y11364715D01*
X72162000Y11412334D01*
X72114380Y11507572D01*
X72114380Y11698048D01*
X72162000Y11793286D01*
X72209619Y11840905D01*
X72304857Y11888524D01*
X72542952Y11888524D01*
X72638190Y11840905D01*
X72685809Y11793286D01*
X72733428Y11698048D01*
X72733428Y11507572D01*
X72685809Y11412334D01*
X72638190Y11364715D01*
X72542952Y11317096D01*
X62714380Y21069477D02*
X62714380Y21640905D01*
X62714380Y21355191D02*
X61714380Y21355191D01*
X61857238Y21450429D01*
X61952476Y21545667D01*
X62000095Y21640905D01*
X61714380Y20164715D02*
X61714380Y20640905D01*
X62190571Y20688524D01*
X62142952Y20640905D01*
X62095333Y20545667D01*
X62095333Y20307572D01*
X62142952Y20212334D01*
X62190571Y20164715D01*
X62285809Y20117096D01*
X62523904Y20117096D01*
X62619142Y20164715D01*
X62666761Y20212334D01*
X62714380Y20307572D01*
X62714380Y20545667D01*
X62666761Y20640905D01*
X62619142Y20688524D01*
X116882380Y12606667D02*
X116882380Y12416191D01*
X116834761Y12320953D01*
X116787142Y12273334D01*
X116644285Y12178096D01*
X116453809Y12130477D01*
X116072857Y12130477D01*
X115977619Y12178096D01*
X115930000Y12225715D01*
X115882380Y12320953D01*
X115882380Y12511429D01*
X115930000Y12606667D01*
X115977619Y12654286D01*
X116072857Y12701905D01*
X116310952Y12701905D01*
X116406190Y12654286D01*
X116453809Y12606667D01*
X116501428Y12511429D01*
X116501428Y12320953D01*
X116453809Y12225715D01*
X116406190Y12178096D01*
X116310952Y12130477D01*
X115882380Y11273334D02*
X115882380Y11463810D01*
X115930000Y11559048D01*
X115977619Y11606667D01*
X116120476Y11701905D01*
X116310952Y11749524D01*
X116691904Y11749524D01*
X116787142Y11701905D01*
X116834761Y11654286D01*
X116882380Y11559048D01*
X116882380Y11368572D01*
X116834761Y11273334D01*
X116787142Y11225715D01*
X116691904Y11178096D01*
X116453809Y11178096D01*
X116358571Y11225715D01*
X116310952Y11273334D01*
X116263333Y11368572D01*
X116263333Y11559048D01*
X116310952Y11654286D01*
X116358571Y11701905D01*
X116453809Y11749524D01*
X76309619Y15040905D02*
X76262000Y14993286D01*
X76214380Y14898048D01*
X76214380Y14659953D01*
X76262000Y14564715D01*
X76309619Y14517096D01*
X76404857Y14469477D01*
X76500095Y14469477D01*
X76642952Y14517096D01*
X77214380Y15088524D01*
X77214380Y14469477D01*
X76642952Y13898048D02*
X76595333Y13993286D01*
X76547714Y14040905D01*
X76452476Y14088524D01*
X76404857Y14088524D01*
X76309619Y14040905D01*
X76262000Y13993286D01*
X76214380Y13898048D01*
X76214380Y13707572D01*
X76262000Y13612334D01*
X76309619Y13564715D01*
X76404857Y13517096D01*
X76452476Y13517096D01*
X76547714Y13564715D01*
X76595333Y13612334D01*
X76642952Y13707572D01*
X76642952Y13898048D01*
X76690571Y13993286D01*
X76738190Y14040905D01*
X76833428Y14088524D01*
X77023904Y14088524D01*
X77119142Y14040905D01*
X77166761Y13993286D01*
X77214380Y13898048D01*
X77214380Y13707572D01*
X77166761Y13612334D01*
X77119142Y13564715D01*
X77023904Y13517096D01*
X76833428Y13517096D01*
X76738190Y13564715D01*
X76690571Y13612334D01*
X76642952Y13707572D01*
X50914380Y14988524D02*
X50914380Y14369477D01*
X51295333Y14702810D01*
X51295333Y14559953D01*
X51342952Y14464715D01*
X51390571Y14417096D01*
X51485809Y14369477D01*
X51723904Y14369477D01*
X51819142Y14417096D01*
X51866761Y14464715D01*
X51914380Y14559953D01*
X51914380Y14845667D01*
X51866761Y14940905D01*
X51819142Y14988524D01*
X51342952Y13798048D02*
X51295333Y13893286D01*
X51247714Y13940905D01*
X51152476Y13988524D01*
X51104857Y13988524D01*
X51009619Y13940905D01*
X50962000Y13893286D01*
X50914380Y13798048D01*
X50914380Y13607572D01*
X50962000Y13512334D01*
X51009619Y13464715D01*
X51104857Y13417096D01*
X51152476Y13417096D01*
X51247714Y13464715D01*
X51295333Y13512334D01*
X51342952Y13607572D01*
X51342952Y13798048D01*
X51390571Y13893286D01*
X51438190Y13940905D01*
X51533428Y13988524D01*
X51723904Y13988524D01*
X51819142Y13940905D01*
X51866761Y13893286D01*
X51914380Y13798048D01*
X51914380Y13607572D01*
X51866761Y13512334D01*
X51819142Y13464715D01*
X51723904Y13417096D01*
X51533428Y13417096D01*
X51438190Y13464715D01*
X51390571Y13512334D01*
X51342952Y13607572D01*
X69422380Y12278096D02*
X69422380Y12754286D01*
X69898571Y12801905D01*
X69850952Y12754286D01*
X69803333Y12659048D01*
X69803333Y12420953D01*
X69850952Y12325715D01*
X69898571Y12278096D01*
X69993809Y12230477D01*
X70231904Y12230477D01*
X70327142Y12278096D01*
X70374761Y12325715D01*
X70422380Y12420953D01*
X70422380Y12659048D01*
X70374761Y12754286D01*
X70327142Y12801905D01*
X69422380Y11611429D02*
X69422380Y11516191D01*
X69470000Y11420953D01*
X69517619Y11373334D01*
X69612857Y11325715D01*
X69803333Y11278096D01*
X70041428Y11278096D01*
X70231904Y11325715D01*
X70327142Y11373334D01*
X70374761Y11420953D01*
X70422380Y11516191D01*
X70422380Y11611429D01*
X70374761Y11706667D01*
X70327142Y11754286D01*
X70231904Y11801905D01*
X70041428Y11849524D01*
X69803333Y11849524D01*
X69612857Y11801905D01*
X69517619Y11754286D01*
X69470000Y11706667D01*
X69422380Y11611429D01*
X114514380Y12545667D02*
X114514380Y12355191D01*
X114466761Y12259953D01*
X114419142Y12212334D01*
X114276285Y12117096D01*
X114085809Y12069477D01*
X113704857Y12069477D01*
X113609619Y12117096D01*
X113562000Y12164715D01*
X113514380Y12259953D01*
X113514380Y12450429D01*
X113562000Y12545667D01*
X113609619Y12593286D01*
X113704857Y12640905D01*
X113942952Y12640905D01*
X114038190Y12593286D01*
X114085809Y12545667D01*
X114133428Y12450429D01*
X114133428Y12259953D01*
X114085809Y12164715D01*
X114038190Y12117096D01*
X113942952Y12069477D01*
X113514380Y11164715D02*
X113514380Y11640905D01*
X113990571Y11688524D01*
X113942952Y11640905D01*
X113895333Y11545667D01*
X113895333Y11307572D01*
X113942952Y11212334D01*
X113990571Y11164715D01*
X114085809Y11117096D01*
X114323904Y11117096D01*
X114419142Y11164715D01*
X114466761Y11212334D01*
X114514380Y11307572D01*
X114514380Y11545667D01*
X114466761Y11640905D01*
X114419142Y11688524D01*
X110714380Y14645667D02*
X110714380Y15217096D01*
X110714380Y14931381D02*
X109714380Y14931381D01*
X109857238Y15026620D01*
X109952476Y15121858D01*
X110000095Y15217096D01*
X109714380Y14026620D02*
X109714380Y13931381D01*
X109762000Y13836143D01*
X109809619Y13788524D01*
X109904857Y13740905D01*
X110095333Y13693286D01*
X110333428Y13693286D01*
X110523904Y13740905D01*
X110619142Y13788524D01*
X110666761Y13836143D01*
X110714380Y13931381D01*
X110714380Y14026620D01*
X110666761Y14121858D01*
X110619142Y14169477D01*
X110523904Y14217096D01*
X110333428Y14264715D01*
X110095333Y14264715D01*
X109904857Y14217096D01*
X109809619Y14169477D01*
X109762000Y14121858D01*
X109714380Y14026620D01*
X109809619Y13312334D02*
X109762000Y13264715D01*
X109714380Y13169477D01*
X109714380Y12931381D01*
X109762000Y12836143D01*
X109809619Y12788524D01*
X109904857Y12740905D01*
X110000095Y12740905D01*
X110142952Y12788524D01*
X110714380Y13359953D01*
X110714380Y12740905D01*
D15*
X127298857Y103928953D02*
X127444000Y104025715D01*
X127734285Y104025715D01*
X127879428Y103928953D01*
X128024571Y103735429D01*
X128097142Y103541905D01*
X128097142Y103154858D01*
X128024571Y102961334D01*
X127879428Y102767810D01*
X127734285Y102671048D01*
X127444000Y102671048D01*
X127298857Y102767810D01*
X127589142Y104703048D02*
X127952000Y104606286D01*
X128314857Y104316000D01*
X128532571Y103832191D01*
X128605142Y103348381D01*
X128532571Y102864572D01*
X128314857Y102380762D01*
X127952000Y102090477D01*
X127589142Y101993715D01*
X127226285Y102090477D01*
X126863428Y102380762D01*
X126645714Y102864572D01*
X126573142Y103348381D01*
X126645714Y103832191D01*
X126863428Y104316000D01*
X127226285Y104606286D01*
X127589142Y104703048D01*
X124105714Y102380762D02*
X124105714Y103445143D01*
X124178285Y103638667D01*
X124323428Y103735429D01*
X124613714Y103735429D01*
X124758857Y103638667D01*
X124105714Y102477524D02*
X124250857Y102380762D01*
X124613714Y102380762D01*
X124758857Y102477524D01*
X124831428Y102671048D01*
X124831428Y102864572D01*
X124758857Y103058096D01*
X124613714Y103154858D01*
X124250857Y103154858D01*
X124105714Y103251620D01*
X123380000Y103735429D02*
X123380000Y102380762D01*
X123380000Y103541905D02*
X123307428Y103638667D01*
X123162285Y103735429D01*
X122944571Y103735429D01*
X122799428Y103638667D01*
X122726857Y103445143D01*
X122726857Y102380762D01*
X121348000Y102380762D02*
X121348000Y104412762D01*
X121348000Y102477524D02*
X121493142Y102380762D01*
X121783428Y102380762D01*
X121928571Y102477524D01*
X122001142Y102574286D01*
X122073714Y102767810D01*
X122073714Y103348381D01*
X122001142Y103541905D01*
X121928571Y103638667D01*
X121783428Y103735429D01*
X121493142Y103735429D01*
X121348000Y103638667D01*
X120622285Y102380762D02*
X120622285Y103735429D01*
X120622285Y103348381D02*
X120549714Y103541905D01*
X120477142Y103638667D01*
X120332000Y103735429D01*
X120186857Y103735429D01*
X119098285Y102477524D02*
X119243428Y102380762D01*
X119533714Y102380762D01*
X119678857Y102477524D01*
X119751428Y102671048D01*
X119751428Y103445143D01*
X119678857Y103638667D01*
X119533714Y103735429D01*
X119243428Y103735429D01*
X119098285Y103638667D01*
X119025714Y103445143D01*
X119025714Y103251620D01*
X119751428Y103058096D01*
X118372571Y102380762D02*
X118372571Y103735429D01*
X118372571Y104412762D02*
X118445142Y104316000D01*
X118372571Y104219239D01*
X118300000Y104316000D01*
X118372571Y104412762D01*
X118372571Y104219239D01*
X117646857Y102380762D02*
X117646857Y104412762D01*
X117501714Y103154858D02*
X117066285Y102380762D01*
X117066285Y103735429D02*
X117646857Y102961334D01*
X115760000Y102380762D02*
X115760000Y103445143D01*
X115832571Y103638667D01*
X115977714Y103735429D01*
X116268000Y103735429D01*
X116413142Y103638667D01*
X115760000Y102477524D02*
X115905142Y102380762D01*
X116268000Y102380762D01*
X116413142Y102477524D01*
X116485714Y102671048D01*
X116485714Y102864572D01*
X116413142Y103058096D01*
X116268000Y103154858D01*
X115905142Y103154858D01*
X115760000Y103251620D01*
X114961714Y102477524D02*
X114961714Y102380762D01*
X115034285Y102187239D01*
X115106857Y102090477D01*
X113220000Y104219239D02*
X113147428Y104316000D01*
X113002285Y104412762D01*
X112639428Y104412762D01*
X112494285Y104316000D01*
X112421714Y104219239D01*
X112349142Y104025715D01*
X112349142Y103832191D01*
X112421714Y103541905D01*
X113292571Y102380762D01*
X112349142Y102380762D01*
X111405714Y104412762D02*
X111260571Y104412762D01*
X111115428Y104316000D01*
X111042857Y104219239D01*
X110970285Y104025715D01*
X110897714Y103638667D01*
X110897714Y103154858D01*
X110970285Y102767810D01*
X111042857Y102574286D01*
X111115428Y102477524D01*
X111260571Y102380762D01*
X111405714Y102380762D01*
X111550857Y102477524D01*
X111623428Y102574286D01*
X111696000Y102767810D01*
X111768571Y103154858D01*
X111768571Y103638667D01*
X111696000Y104025715D01*
X111623428Y104219239D01*
X111550857Y104316000D01*
X111405714Y104412762D01*
X110317142Y104219239D02*
X110244571Y104316000D01*
X110099428Y104412762D01*
X109736571Y104412762D01*
X109591428Y104316000D01*
X109518857Y104219239D01*
X109446285Y104025715D01*
X109446285Y103832191D01*
X109518857Y103541905D01*
X110389714Y102380762D01*
X109446285Y102380762D01*
X107994857Y102380762D02*
X108865714Y102380762D01*
X108430285Y102380762D02*
X108430285Y104412762D01*
X108575428Y104122477D01*
X108720571Y103928953D01*
X108865714Y103832191D01*
D12*
X60314380Y21069477D02*
X60314380Y21640905D01*
X60314380Y21355191D02*
X59314380Y21355191D01*
X59457238Y21450429D01*
X59552476Y21545667D01*
X59600095Y21640905D01*
X59314380Y20212334D02*
X59314380Y20402810D01*
X59362000Y20498048D01*
X59409619Y20545667D01*
X59552476Y20640905D01*
X59742952Y20688524D01*
X60123904Y20688524D01*
X60219142Y20640905D01*
X60266761Y20593286D01*
X60314380Y20498048D01*
X60314380Y20307572D01*
X60266761Y20212334D01*
X60219142Y20164715D01*
X60123904Y20117096D01*
X59885809Y20117096D01*
X59790571Y20164715D01*
X59742952Y20212334D01*
X59695333Y20307572D01*
X59695333Y20498048D01*
X59742952Y20593286D01*
X59790571Y20640905D01*
X59885809Y20688524D01*
X82314380Y5664715D02*
X82314380Y5855191D01*
X82362000Y5950429D01*
X82409619Y5998048D01*
X82552476Y6093286D01*
X82742952Y6140905D01*
X83123904Y6140905D01*
X83219142Y6093286D01*
X83266761Y6045667D01*
X83314380Y5950429D01*
X83314380Y5759953D01*
X83266761Y5664715D01*
X83219142Y5617096D01*
X83123904Y5569477D01*
X82885809Y5569477D01*
X82790571Y5617096D01*
X82742952Y5664715D01*
X82695333Y5759953D01*
X82695333Y5950429D01*
X82742952Y6045667D01*
X82790571Y6093286D01*
X82885809Y6140905D01*
X82647714Y4712334D02*
X83314380Y4712334D01*
X82266761Y4950429D02*
X82981047Y5188524D01*
X82981047Y4569477D01*
X111542952Y5850429D02*
X111495333Y5945667D01*
X111447714Y5993286D01*
X111352476Y6040905D01*
X111304857Y6040905D01*
X111209619Y5993286D01*
X111162000Y5945667D01*
X111114380Y5850429D01*
X111114380Y5659953D01*
X111162000Y5564715D01*
X111209619Y5517096D01*
X111304857Y5469477D01*
X111352476Y5469477D01*
X111447714Y5517096D01*
X111495333Y5564715D01*
X111542952Y5659953D01*
X111542952Y5850429D01*
X111590571Y5945667D01*
X111638190Y5993286D01*
X111733428Y6040905D01*
X111923904Y6040905D01*
X112019142Y5993286D01*
X112066761Y5945667D01*
X112114380Y5850429D01*
X112114380Y5659953D01*
X112066761Y5564715D01*
X112019142Y5517096D01*
X111923904Y5469477D01*
X111733428Y5469477D01*
X111638190Y5517096D01*
X111590571Y5564715D01*
X111542952Y5659953D01*
X111114380Y4612334D02*
X111114380Y4802810D01*
X111162000Y4898048D01*
X111209619Y4945667D01*
X111352476Y5040905D01*
X111542952Y5088524D01*
X111923904Y5088524D01*
X112019142Y5040905D01*
X112066761Y4993286D01*
X112114380Y4898048D01*
X112114380Y4707572D01*
X112066761Y4612334D01*
X112019142Y4564715D01*
X111923904Y4517096D01*
X111685809Y4517096D01*
X111590571Y4564715D01*
X111542952Y4612334D01*
X111495333Y4707572D01*
X111495333Y4898048D01*
X111542952Y4993286D01*
X111590571Y5040905D01*
X111685809Y5088524D01*
X104314380Y12545667D02*
X104314380Y12355191D01*
X104266761Y12259953D01*
X104219142Y12212334D01*
X104076285Y12117096D01*
X103885809Y12069477D01*
X103504857Y12069477D01*
X103409619Y12117096D01*
X103362000Y12164715D01*
X103314380Y12259953D01*
X103314380Y12450429D01*
X103362000Y12545667D01*
X103409619Y12593286D01*
X103504857Y12640905D01*
X103742952Y12640905D01*
X103838190Y12593286D01*
X103885809Y12545667D01*
X103933428Y12450429D01*
X103933428Y12259953D01*
X103885809Y12164715D01*
X103838190Y12117096D01*
X103742952Y12069477D01*
X104314380Y11117096D02*
X104314380Y11688524D01*
X104314380Y11402810D02*
X103314380Y11402810D01*
X103457238Y11498048D01*
X103552476Y11593286D01*
X103600095Y11688524D01*
X118114380Y14745667D02*
X118114380Y15317096D01*
X118114380Y15031381D02*
X117114380Y15031381D01*
X117257238Y15126620D01*
X117352476Y15221858D01*
X117400095Y15317096D01*
X117114380Y14126620D02*
X117114380Y14031381D01*
X117162000Y13936143D01*
X117209619Y13888524D01*
X117304857Y13840905D01*
X117495333Y13793286D01*
X117733428Y13793286D01*
X117923904Y13840905D01*
X118019142Y13888524D01*
X118066761Y13936143D01*
X118114380Y14031381D01*
X118114380Y14126620D01*
X118066761Y14221858D01*
X118019142Y14269477D01*
X117923904Y14317096D01*
X117733428Y14364715D01*
X117495333Y14364715D01*
X117304857Y14317096D01*
X117209619Y14269477D01*
X117162000Y14221858D01*
X117114380Y14126620D01*
X117114380Y12888524D02*
X117114380Y13364715D01*
X117590571Y13412334D01*
X117542952Y13364715D01*
X117495333Y13269477D01*
X117495333Y13031381D01*
X117542952Y12936143D01*
X117590571Y12888524D01*
X117685809Y12840905D01*
X117923904Y12840905D01*
X118019142Y12888524D01*
X118066761Y12936143D01*
X118114380Y13031381D01*
X118114380Y13269477D01*
X118066761Y13364715D01*
X118019142Y13412334D01*
X119414380Y21945667D02*
X119414380Y22517096D01*
X119414380Y22231381D02*
X118414380Y22231381D01*
X118557238Y22326620D01*
X118652476Y22421858D01*
X118700095Y22517096D01*
X119414380Y20993286D02*
X119414380Y21564715D01*
X119414380Y21279000D02*
X118414380Y21279000D01*
X118557238Y21374239D01*
X118652476Y21469477D01*
X118700095Y21564715D01*
X118414380Y20659953D02*
X118414380Y20040905D01*
X118795333Y20374239D01*
X118795333Y20231381D01*
X118842952Y20136143D01*
X118890571Y20088524D01*
X118985809Y20040905D01*
X119223904Y20040905D01*
X119319142Y20088524D01*
X119366761Y20136143D01*
X119414380Y20231381D01*
X119414380Y20517096D01*
X119366761Y20612334D01*
X119319142Y20659953D01*
X108114380Y14645667D02*
X108114380Y15217096D01*
X108114380Y14931381D02*
X107114380Y14931381D01*
X107257238Y15026620D01*
X107352476Y15121858D01*
X107400095Y15217096D01*
X107114380Y14026620D02*
X107114380Y13931381D01*
X107162000Y13836143D01*
X107209619Y13788524D01*
X107304857Y13740905D01*
X107495333Y13693286D01*
X107733428Y13693286D01*
X107923904Y13740905D01*
X108019142Y13788524D01*
X108066761Y13836143D01*
X108114380Y13931381D01*
X108114380Y14026620D01*
X108066761Y14121858D01*
X108019142Y14169477D01*
X107923904Y14217096D01*
X107733428Y14264715D01*
X107495333Y14264715D01*
X107304857Y14217096D01*
X107209619Y14169477D01*
X107162000Y14121858D01*
X107114380Y14026620D01*
X108114380Y12740905D02*
X108114380Y13312334D01*
X108114380Y13026620D02*
X107114380Y13026620D01*
X107257238Y13121858D01*
X107352476Y13217096D01*
X107400095Y13312334D01*
X51914380Y6088524D02*
X51914380Y5421858D01*
X52914380Y5850429D01*
X51914380Y4612334D02*
X51914380Y4802810D01*
X51962000Y4898048D01*
X52009619Y4945667D01*
X52152476Y5040905D01*
X52342952Y5088524D01*
X52723904Y5088524D01*
X52819142Y5040905D01*
X52866761Y4993286D01*
X52914380Y4898048D01*
X52914380Y4707572D01*
X52866761Y4612334D01*
X52819142Y4564715D01*
X52723904Y4517096D01*
X52485809Y4517096D01*
X52390571Y4564715D01*
X52342952Y4612334D01*
X52295333Y4707572D01*
X52295333Y4898048D01*
X52342952Y4993286D01*
X52390571Y5040905D01*
X52485809Y5088524D01*
X42142952Y5850429D02*
X42095333Y5945667D01*
X42047714Y5993286D01*
X41952476Y6040905D01*
X41904857Y6040905D01*
X41809619Y5993286D01*
X41762000Y5945667D01*
X41714380Y5850429D01*
X41714380Y5659953D01*
X41762000Y5564715D01*
X41809619Y5517096D01*
X41904857Y5469477D01*
X41952476Y5469477D01*
X42047714Y5517096D01*
X42095333Y5564715D01*
X42142952Y5659953D01*
X42142952Y5850429D01*
X42190571Y5945667D01*
X42238190Y5993286D01*
X42333428Y6040905D01*
X42523904Y6040905D01*
X42619142Y5993286D01*
X42666761Y5945667D01*
X42714380Y5850429D01*
X42714380Y5659953D01*
X42666761Y5564715D01*
X42619142Y5517096D01*
X42523904Y5469477D01*
X42333428Y5469477D01*
X42238190Y5517096D01*
X42190571Y5564715D01*
X42142952Y5659953D01*
X41714380Y4850429D02*
X41714380Y4755191D01*
X41762000Y4659953D01*
X41809619Y4612334D01*
X41904857Y4564715D01*
X42095333Y4517096D01*
X42333428Y4517096D01*
X42523904Y4564715D01*
X42619142Y4612334D01*
X42666761Y4659953D01*
X42714380Y4755191D01*
X42714380Y4850429D01*
X42666761Y4945667D01*
X42619142Y4993286D01*
X42523904Y5040905D01*
X42333428Y5088524D01*
X42095333Y5088524D01*
X41904857Y5040905D01*
X41809619Y4993286D01*
X41762000Y4945667D01*
X41714380Y4850429D01*
X118942952Y5950429D02*
X118895333Y6045667D01*
X118847714Y6093286D01*
X118752476Y6140905D01*
X118704857Y6140905D01*
X118609619Y6093286D01*
X118562000Y6045667D01*
X118514380Y5950429D01*
X118514380Y5759953D01*
X118562000Y5664715D01*
X118609619Y5617096D01*
X118704857Y5569477D01*
X118752476Y5569477D01*
X118847714Y5617096D01*
X118895333Y5664715D01*
X118942952Y5759953D01*
X118942952Y5950429D01*
X118990571Y6045667D01*
X119038190Y6093286D01*
X119133428Y6140905D01*
X119323904Y6140905D01*
X119419142Y6093286D01*
X119466761Y6045667D01*
X119514380Y5950429D01*
X119514380Y5759953D01*
X119466761Y5664715D01*
X119419142Y5617096D01*
X119323904Y5569477D01*
X119133428Y5569477D01*
X119038190Y5617096D01*
X118990571Y5664715D01*
X118942952Y5759953D01*
X119514380Y5093286D02*
X119514380Y4902810D01*
X119466761Y4807572D01*
X119419142Y4759953D01*
X119276285Y4664715D01*
X119085809Y4617096D01*
X118704857Y4617096D01*
X118609619Y4664715D01*
X118562000Y4712334D01*
X118514380Y4807572D01*
X118514380Y4998048D01*
X118562000Y5093286D01*
X118609619Y5140905D01*
X118704857Y5188524D01*
X118942952Y5188524D01*
X119038190Y5140905D01*
X119085809Y5093286D01*
X119133428Y4998048D01*
X119133428Y4807572D01*
X119085809Y4712334D01*
X119038190Y4664715D01*
X118942952Y4617096D01*
X80042952Y20974239D02*
X79995333Y21069477D01*
X79947714Y21117096D01*
X79852476Y21164715D01*
X79804857Y21164715D01*
X79709619Y21117096D01*
X79662000Y21069477D01*
X79614380Y20974239D01*
X79614380Y20783762D01*
X79662000Y20688524D01*
X79709619Y20640905D01*
X79804857Y20593286D01*
X79852476Y20593286D01*
X79947714Y20640905D01*
X79995333Y20688524D01*
X80042952Y20783762D01*
X80042952Y20974239D01*
X80090571Y21069477D01*
X80138190Y21117096D01*
X80233428Y21164715D01*
X80423904Y21164715D01*
X80519142Y21117096D01*
X80566761Y21069477D01*
X80614380Y20974239D01*
X80614380Y20783762D01*
X80566761Y20688524D01*
X80519142Y20640905D01*
X80423904Y20593286D01*
X80233428Y20593286D01*
X80138190Y20640905D01*
X80090571Y20688524D01*
X80042952Y20783762D01*
X81409619Y15040905D02*
X81362000Y14993286D01*
X81314380Y14898048D01*
X81314380Y14659953D01*
X81362000Y14564715D01*
X81409619Y14517096D01*
X81504857Y14469477D01*
X81600095Y14469477D01*
X81742952Y14517096D01*
X82314380Y15088524D01*
X82314380Y14469477D01*
X81314380Y13612334D02*
X81314380Y13802810D01*
X81362000Y13898048D01*
X81409619Y13945667D01*
X81552476Y14040905D01*
X81742952Y14088524D01*
X82123904Y14088524D01*
X82219142Y14040905D01*
X82266761Y13993286D01*
X82314380Y13898048D01*
X82314380Y13707572D01*
X82266761Y13612334D01*
X82219142Y13564715D01*
X82123904Y13517096D01*
X81885809Y13517096D01*
X81790571Y13564715D01*
X81742952Y13612334D01*
X81695333Y13707572D01*
X81695333Y13898048D01*
X81742952Y13993286D01*
X81790571Y14040905D01*
X81885809Y14088524D01*
X44214380Y6088524D02*
X44214380Y5421858D01*
X45214380Y5850429D01*
X45214380Y4993286D02*
X45214380Y4802810D01*
X45166761Y4707572D01*
X45119142Y4659953D01*
X44976285Y4564715D01*
X44785809Y4517096D01*
X44404857Y4517096D01*
X44309619Y4564715D01*
X44262000Y4612334D01*
X44214380Y4707572D01*
X44214380Y4898048D01*
X44262000Y4993286D01*
X44309619Y5040905D01*
X44404857Y5088524D01*
X44642952Y5088524D01*
X44738190Y5040905D01*
X44785809Y4993286D01*
X44833428Y4898048D01*
X44833428Y4707572D01*
X44785809Y4612334D01*
X44738190Y4564715D01*
X44642952Y4517096D01*
X106814380Y12545667D02*
X106814380Y12355191D01*
X106766761Y12259953D01*
X106719142Y12212334D01*
X106576285Y12117096D01*
X106385809Y12069477D01*
X106004857Y12069477D01*
X105909619Y12117096D01*
X105862000Y12164715D01*
X105814380Y12259953D01*
X105814380Y12450429D01*
X105862000Y12545667D01*
X105909619Y12593286D01*
X106004857Y12640905D01*
X106242952Y12640905D01*
X106338190Y12593286D01*
X106385809Y12545667D01*
X106433428Y12450429D01*
X106433428Y12259953D01*
X106385809Y12164715D01*
X106338190Y12117096D01*
X106242952Y12069477D01*
X105909619Y11688524D02*
X105862000Y11640905D01*
X105814380Y11545667D01*
X105814380Y11307572D01*
X105862000Y11212334D01*
X105909619Y11164715D01*
X106004857Y11117096D01*
X106100095Y11117096D01*
X106242952Y11164715D01*
X106814380Y11736143D01*
X106814380Y11117096D01*
X56714380Y12317096D02*
X56714380Y12793286D01*
X57190571Y12840905D01*
X57142952Y12793286D01*
X57095333Y12698048D01*
X57095333Y12459953D01*
X57142952Y12364715D01*
X57190571Y12317096D01*
X57285809Y12269477D01*
X57523904Y12269477D01*
X57619142Y12317096D01*
X57666761Y12364715D01*
X57714380Y12459953D01*
X57714380Y12698048D01*
X57666761Y12793286D01*
X57619142Y12840905D01*
X56714380Y11364715D02*
X56714380Y11840905D01*
X57190571Y11888524D01*
X57142952Y11840905D01*
X57095333Y11745667D01*
X57095333Y11507572D01*
X57142952Y11412334D01*
X57190571Y11364715D01*
X57285809Y11317096D01*
X57523904Y11317096D01*
X57619142Y11364715D01*
X57666761Y11412334D01*
X57714380Y11507572D01*
X57714380Y11745667D01*
X57666761Y11840905D01*
X57619142Y11888524D01*
X71214380Y15088524D02*
X71214380Y14469477D01*
X71595333Y14802810D01*
X71595333Y14659953D01*
X71642952Y14564715D01*
X71690571Y14517096D01*
X71785809Y14469477D01*
X72023904Y14469477D01*
X72119142Y14517096D01*
X72166761Y14564715D01*
X72214380Y14659953D01*
X72214380Y14945667D01*
X72166761Y15040905D01*
X72119142Y15088524D01*
X71214380Y13850429D02*
X71214380Y13755191D01*
X71262000Y13659953D01*
X71309619Y13612334D01*
X71404857Y13564715D01*
X71595333Y13517096D01*
X71833428Y13517096D01*
X72023904Y13564715D01*
X72119142Y13612334D01*
X72166761Y13659953D01*
X72214380Y13755191D01*
X72214380Y13850429D01*
X72166761Y13945667D01*
X72119142Y13993286D01*
X72023904Y14040905D01*
X71833428Y14088524D01*
X71595333Y14088524D01*
X71404857Y14040905D01*
X71309619Y13993286D01*
X71262000Y13945667D01*
X71214380Y13850429D01*
X48414380Y14988524D02*
X48414380Y14369477D01*
X48795333Y14702810D01*
X48795333Y14559953D01*
X48842952Y14464715D01*
X48890571Y14417096D01*
X48985809Y14369477D01*
X49223904Y14369477D01*
X49319142Y14417096D01*
X49366761Y14464715D01*
X49414380Y14559953D01*
X49414380Y14845667D01*
X49366761Y14940905D01*
X49319142Y14988524D01*
X49414380Y13893286D02*
X49414380Y13702810D01*
X49366761Y13607572D01*
X49319142Y13559953D01*
X49176285Y13464715D01*
X48985809Y13417096D01*
X48604857Y13417096D01*
X48509619Y13464715D01*
X48462000Y13512334D01*
X48414380Y13607572D01*
X48414380Y13798048D01*
X48462000Y13893286D01*
X48509619Y13940905D01*
X48604857Y13988524D01*
X48842952Y13988524D01*
X48938190Y13940905D01*
X48985809Y13893286D01*
X49033428Y13798048D01*
X49033428Y13607572D01*
X48985809Y13512334D01*
X48938190Y13464715D01*
X48842952Y13417096D01*
X51814380Y12217096D02*
X51814380Y12693286D01*
X52290571Y12740905D01*
X52242952Y12693286D01*
X52195333Y12598048D01*
X52195333Y12359953D01*
X52242952Y12264715D01*
X52290571Y12217096D01*
X52385809Y12169477D01*
X52623904Y12169477D01*
X52719142Y12217096D01*
X52766761Y12264715D01*
X52814380Y12359953D01*
X52814380Y12598048D01*
X52766761Y12693286D01*
X52719142Y12740905D01*
X51814380Y11836143D02*
X51814380Y11169477D01*
X52814380Y11598048D01*
X67814380Y21069477D02*
X67814380Y21640905D01*
X67814380Y21355191D02*
X66814380Y21355191D01*
X66957238Y21450429D01*
X67052476Y21545667D01*
X67100095Y21640905D01*
X66814380Y20736143D02*
X66814380Y20117096D01*
X67195333Y20450429D01*
X67195333Y20307572D01*
X67242952Y20212334D01*
X67290571Y20164715D01*
X67385809Y20117096D01*
X67623904Y20117096D01*
X67719142Y20164715D01*
X67766761Y20212334D01*
X67814380Y20307572D01*
X67814380Y20593286D01*
X67766761Y20688524D01*
X67719142Y20736143D01*
X101242952Y5850429D02*
X101195333Y5945667D01*
X101147714Y5993286D01*
X101052476Y6040905D01*
X101004857Y6040905D01*
X100909619Y5993286D01*
X100862000Y5945667D01*
X100814380Y5850429D01*
X100814380Y5659953D01*
X100862000Y5564715D01*
X100909619Y5517096D01*
X101004857Y5469477D01*
X101052476Y5469477D01*
X101147714Y5517096D01*
X101195333Y5564715D01*
X101242952Y5659953D01*
X101242952Y5850429D01*
X101290571Y5945667D01*
X101338190Y5993286D01*
X101433428Y6040905D01*
X101623904Y6040905D01*
X101719142Y5993286D01*
X101766761Y5945667D01*
X101814380Y5850429D01*
X101814380Y5659953D01*
X101766761Y5564715D01*
X101719142Y5517096D01*
X101623904Y5469477D01*
X101433428Y5469477D01*
X101338190Y5517096D01*
X101290571Y5564715D01*
X101242952Y5659953D01*
X100909619Y5088524D02*
X100862000Y5040905D01*
X100814380Y4945667D01*
X100814380Y4707572D01*
X100862000Y4612334D01*
X100909619Y4564715D01*
X101004857Y4517096D01*
X101100095Y4517096D01*
X101242952Y4564715D01*
X101814380Y5136143D01*
X101814380Y4517096D01*
X104314380Y21845667D02*
X104314380Y22417096D01*
X104314380Y22131381D02*
X103314380Y22131381D01*
X103457238Y22226620D01*
X103552476Y22321858D01*
X103600095Y22417096D01*
X103314380Y21226620D02*
X103314380Y21131381D01*
X103362000Y21036143D01*
X103409619Y20988524D01*
X103504857Y20940905D01*
X103695333Y20893286D01*
X103933428Y20893286D01*
X104123904Y20940905D01*
X104219142Y20988524D01*
X104266761Y21036143D01*
X104314380Y21131381D01*
X104314380Y21226620D01*
X104266761Y21321858D01*
X104219142Y21369477D01*
X104123904Y21417096D01*
X103933428Y21464715D01*
X103695333Y21464715D01*
X103504857Y21417096D01*
X103409619Y21369477D01*
X103362000Y21321858D01*
X103314380Y21226620D01*
X103314380Y20559953D02*
X103314380Y19893286D01*
X104314380Y20321858D01*
X49309619Y21540905D02*
X49262000Y21493286D01*
X49214380Y21398048D01*
X49214380Y21159953D01*
X49262000Y21064715D01*
X49309619Y21017096D01*
X49404857Y20969477D01*
X49500095Y20969477D01*
X49642952Y21017096D01*
X50214380Y21588524D01*
X50214380Y20969477D01*
X49214380Y20350429D02*
X49214380Y20255191D01*
X49262000Y20159953D01*
X49309619Y20112334D01*
X49404857Y20064715D01*
X49595333Y20017096D01*
X49833428Y20017096D01*
X50023904Y20064715D01*
X50119142Y20112334D01*
X50166761Y20159953D01*
X50214380Y20255191D01*
X50214380Y20350429D01*
X50166761Y20445667D01*
X50119142Y20493286D01*
X50023904Y20540905D01*
X49833428Y20588524D01*
X49595333Y20588524D01*
X49404857Y20540905D01*
X49309619Y20493286D01*
X49262000Y20445667D01*
X49214380Y20350429D01*
X108942952Y5850429D02*
X108895333Y5945667D01*
X108847714Y5993286D01*
X108752476Y6040905D01*
X108704857Y6040905D01*
X108609619Y5993286D01*
X108562000Y5945667D01*
X108514380Y5850429D01*
X108514380Y5659953D01*
X108562000Y5564715D01*
X108609619Y5517096D01*
X108704857Y5469477D01*
X108752476Y5469477D01*
X108847714Y5517096D01*
X108895333Y5564715D01*
X108942952Y5659953D01*
X108942952Y5850429D01*
X108990571Y5945667D01*
X109038190Y5993286D01*
X109133428Y6040905D01*
X109323904Y6040905D01*
X109419142Y5993286D01*
X109466761Y5945667D01*
X109514380Y5850429D01*
X109514380Y5659953D01*
X109466761Y5564715D01*
X109419142Y5517096D01*
X109323904Y5469477D01*
X109133428Y5469477D01*
X109038190Y5517096D01*
X108990571Y5564715D01*
X108942952Y5659953D01*
X108514380Y4564715D02*
X108514380Y5040905D01*
X108990571Y5088524D01*
X108942952Y5040905D01*
X108895333Y4945667D01*
X108895333Y4707572D01*
X108942952Y4612334D01*
X108990571Y4564715D01*
X109085809Y4517096D01*
X109323904Y4517096D01*
X109419142Y4564715D01*
X109466761Y4612334D01*
X109514380Y4707572D01*
X109514380Y4945667D01*
X109466761Y5040905D01*
X109419142Y5088524D01*
X116882380Y21906667D02*
X116882380Y22478096D01*
X116882380Y22192381D02*
X115882380Y22192381D01*
X116025238Y22287620D01*
X116120476Y22382858D01*
X116168095Y22478096D01*
X116882380Y20954286D02*
X116882380Y21525715D01*
X116882380Y21240000D02*
X115882380Y21240000D01*
X116025238Y21335239D01*
X116120476Y21430477D01*
X116168095Y21525715D01*
X115977619Y20573334D02*
X115930000Y20525715D01*
X115882380Y20430477D01*
X115882380Y20192381D01*
X115930000Y20097143D01*
X115977619Y20049524D01*
X116072857Y20001905D01*
X116168095Y20001905D01*
X116310952Y20049524D01*
X116882380Y20620953D01*
X116882380Y20001905D01*
X112014380Y21845667D02*
X112014380Y22417096D01*
X112014380Y22131381D02*
X111014380Y22131381D01*
X111157238Y22226620D01*
X111252476Y22321858D01*
X111300095Y22417096D01*
X112014380Y20893286D02*
X112014380Y21464715D01*
X112014380Y21179000D02*
X111014380Y21179000D01*
X111157238Y21274239D01*
X111252476Y21369477D01*
X111300095Y21464715D01*
X111014380Y20274239D02*
X111014380Y20179000D01*
X111062000Y20083762D01*
X111109619Y20036143D01*
X111204857Y19988524D01*
X111395333Y19940905D01*
X111633428Y19940905D01*
X111823904Y19988524D01*
X111919142Y20036143D01*
X111966761Y20083762D01*
X112014380Y20179000D01*
X112014380Y20274239D01*
X111966761Y20369477D01*
X111919142Y20417096D01*
X111823904Y20464715D01*
X111633428Y20512334D01*
X111395333Y20512334D01*
X111204857Y20464715D01*
X111109619Y20417096D01*
X111062000Y20369477D01*
X111014380Y20274239D01*
X73014380Y21069477D02*
X73014380Y21640905D01*
X73014380Y21355191D02*
X72014380Y21355191D01*
X72157238Y21450429D01*
X72252476Y21545667D01*
X72300095Y21640905D01*
X73014380Y20117096D02*
X73014380Y20688524D01*
X73014380Y20402810D02*
X72014380Y20402810D01*
X72157238Y20498048D01*
X72252476Y20593286D01*
X72300095Y20688524D01*
X77447714Y12364715D02*
X78114380Y12364715D01*
X77066761Y12602810D02*
X77781047Y12840905D01*
X77781047Y12221858D01*
X77114380Y11936143D02*
X77114380Y11269477D01*
X78114380Y11698048D01*
X78909619Y15040905D02*
X78862000Y14993286D01*
X78814380Y14898048D01*
X78814380Y14659953D01*
X78862000Y14564715D01*
X78909619Y14517096D01*
X79004857Y14469477D01*
X79100095Y14469477D01*
X79242952Y14517096D01*
X79814380Y15088524D01*
X79814380Y14469477D01*
X78814380Y14136143D02*
X78814380Y13469477D01*
X79814380Y13898048D01*
X69522380Y5625715D02*
X69522380Y5816191D01*
X69570000Y5911429D01*
X69617619Y5959048D01*
X69760476Y6054286D01*
X69950952Y6101905D01*
X70331904Y6101905D01*
X70427142Y6054286D01*
X70474761Y6006667D01*
X70522380Y5911429D01*
X70522380Y5720953D01*
X70474761Y5625715D01*
X70427142Y5578096D01*
X70331904Y5530477D01*
X70093809Y5530477D01*
X69998571Y5578096D01*
X69950952Y5625715D01*
X69903333Y5720953D01*
X69903333Y5911429D01*
X69950952Y6006667D01*
X69998571Y6054286D01*
X70093809Y6101905D01*
X70522380Y5054286D02*
X70522380Y4863810D01*
X70474761Y4768572D01*
X70427142Y4720953D01*
X70284285Y4625715D01*
X70093809Y4578096D01*
X69712857Y4578096D01*
X69617619Y4625715D01*
X69570000Y4673334D01*
X69522380Y4768572D01*
X69522380Y4959048D01*
X69570000Y5054286D01*
X69617619Y5101905D01*
X69712857Y5149524D01*
X69950952Y5149524D01*
X70046190Y5101905D01*
X70093809Y5054286D01*
X70141428Y4959048D01*
X70141428Y4768572D01*
X70093809Y4673334D01*
X70046190Y4625715D01*
X69950952Y4578096D01*
X58514380Y15088524D02*
X58514380Y14469477D01*
X58895333Y14802810D01*
X58895333Y14659953D01*
X58942952Y14564715D01*
X58990571Y14517096D01*
X59085809Y14469477D01*
X59323904Y14469477D01*
X59419142Y14517096D01*
X59466761Y14564715D01*
X59514380Y14659953D01*
X59514380Y14945667D01*
X59466761Y15040905D01*
X59419142Y15088524D01*
X58514380Y13564715D02*
X58514380Y14040905D01*
X58990571Y14088524D01*
X58942952Y14040905D01*
X58895333Y13945667D01*
X58895333Y13707572D01*
X58942952Y13612334D01*
X58990571Y13564715D01*
X59085809Y13517096D01*
X59323904Y13517096D01*
X59419142Y13564715D01*
X59466761Y13612334D01*
X59514380Y13707572D01*
X59514380Y13945667D01*
X59466761Y14040905D01*
X59419142Y14088524D01*
X64414380Y12317096D02*
X64414380Y12793286D01*
X64890571Y12840905D01*
X64842952Y12793286D01*
X64795333Y12698048D01*
X64795333Y12459953D01*
X64842952Y12364715D01*
X64890571Y12317096D01*
X64985809Y12269477D01*
X65223904Y12269477D01*
X65319142Y12317096D01*
X65366761Y12364715D01*
X65414380Y12459953D01*
X65414380Y12698048D01*
X65366761Y12793286D01*
X65319142Y12840905D01*
X64509619Y11888524D02*
X64462000Y11840905D01*
X64414380Y11745667D01*
X64414380Y11507572D01*
X64462000Y11412334D01*
X64509619Y11364715D01*
X64604857Y11317096D01*
X64700095Y11317096D01*
X64842952Y11364715D01*
X65414380Y11936143D01*
X65414380Y11317096D01*
X101714380Y21845667D02*
X101714380Y22417096D01*
X101714380Y22131381D02*
X100714380Y22131381D01*
X100857238Y22226620D01*
X100952476Y22321858D01*
X101000095Y22417096D01*
X100714380Y21226620D02*
X100714380Y21131381D01*
X100762000Y21036143D01*
X100809619Y20988524D01*
X100904857Y20940905D01*
X101095333Y20893286D01*
X101333428Y20893286D01*
X101523904Y20940905D01*
X101619142Y20988524D01*
X101666761Y21036143D01*
X101714380Y21131381D01*
X101714380Y21226620D01*
X101666761Y21321858D01*
X101619142Y21369477D01*
X101523904Y21417096D01*
X101333428Y21464715D01*
X101095333Y21464715D01*
X100904857Y21417096D01*
X100809619Y21369477D01*
X100762000Y21321858D01*
X100714380Y21226620D01*
X100714380Y20036143D02*
X100714380Y20226620D01*
X100762000Y20321858D01*
X100809619Y20369477D01*
X100952476Y20464715D01*
X101142952Y20512334D01*
X101523904Y20512334D01*
X101619142Y20464715D01*
X101666761Y20417096D01*
X101714380Y20321858D01*
X101714380Y20131381D01*
X101666761Y20036143D01*
X101619142Y19988524D01*
X101523904Y19940905D01*
X101285809Y19940905D01*
X101190571Y19988524D01*
X101142952Y20036143D01*
X101095333Y20131381D01*
X101095333Y20321858D01*
X101142952Y20417096D01*
X101190571Y20464715D01*
X101285809Y20512334D01*
X44114380Y12264715D02*
X44114380Y12455191D01*
X44162000Y12550429D01*
X44209619Y12598048D01*
X44352476Y12693286D01*
X44542952Y12740905D01*
X44923904Y12740905D01*
X45019142Y12693286D01*
X45066761Y12645667D01*
X45114380Y12550429D01*
X45114380Y12359953D01*
X45066761Y12264715D01*
X45019142Y12217096D01*
X44923904Y12169477D01*
X44685809Y12169477D01*
X44590571Y12217096D01*
X44542952Y12264715D01*
X44495333Y12359953D01*
X44495333Y12550429D01*
X44542952Y12645667D01*
X44590571Y12693286D01*
X44685809Y12740905D01*
X44114380Y11550429D02*
X44114380Y11455191D01*
X44162000Y11359953D01*
X44209619Y11312334D01*
X44304857Y11264715D01*
X44495333Y11217096D01*
X44733428Y11217096D01*
X44923904Y11264715D01*
X45019142Y11312334D01*
X45066761Y11359953D01*
X45114380Y11455191D01*
X45114380Y11550429D01*
X45066761Y11645667D01*
X45019142Y11693286D01*
X44923904Y11740905D01*
X44733428Y11788524D01*
X44495333Y11788524D01*
X44304857Y11740905D01*
X44209619Y11693286D01*
X44162000Y11645667D01*
X44114380Y11550429D01*
X49414380Y6088524D02*
X49414380Y5421858D01*
X50414380Y5850429D01*
X49414380Y5136143D02*
X49414380Y4469477D01*
X50414380Y4898048D01*
X61914380Y6188524D02*
X61914380Y5521858D01*
X62914380Y5950429D01*
X62009619Y5188524D02*
X61962000Y5140905D01*
X61914380Y5045667D01*
X61914380Y4807572D01*
X61962000Y4712334D01*
X62009619Y4664715D01*
X62104857Y4617096D01*
X62200095Y4617096D01*
X62342952Y4664715D01*
X62914380Y5236143D01*
X62914380Y4617096D01*
X46147714Y14464715D02*
X46814380Y14464715D01*
X45766761Y14702810D02*
X46481047Y14940905D01*
X46481047Y14321858D01*
X45814380Y13750429D02*
X45814380Y13655191D01*
X45862000Y13559953D01*
X45909619Y13512334D01*
X46004857Y13464715D01*
X46195333Y13417096D01*
X46433428Y13417096D01*
X46623904Y13464715D01*
X46719142Y13512334D01*
X46766761Y13559953D01*
X46814380Y13655191D01*
X46814380Y13750429D01*
X46766761Y13845667D01*
X46719142Y13893286D01*
X46623904Y13940905D01*
X46433428Y13988524D01*
X46195333Y13988524D01*
X46004857Y13940905D01*
X45909619Y13893286D01*
X45862000Y13845667D01*
X45814380Y13750429D01*
X83909619Y15040905D02*
X83862000Y14993286D01*
X83814380Y14898048D01*
X83814380Y14659953D01*
X83862000Y14564715D01*
X83909619Y14517096D01*
X84004857Y14469477D01*
X84100095Y14469477D01*
X84242952Y14517096D01*
X84814380Y15088524D01*
X84814380Y14469477D01*
X83814380Y13564715D02*
X83814380Y14040905D01*
X84290571Y14088524D01*
X84242952Y14040905D01*
X84195333Y13945667D01*
X84195333Y13707572D01*
X84242952Y13612334D01*
X84290571Y13564715D01*
X84385809Y13517096D01*
X84623904Y13517096D01*
X84719142Y13564715D01*
X84766761Y13612334D01*
X84814380Y13707572D01*
X84814380Y13945667D01*
X84766761Y14040905D01*
X84719142Y14088524D01*
X79814380Y5664715D02*
X79814380Y5855191D01*
X79862000Y5950429D01*
X79909619Y5998048D01*
X80052476Y6093286D01*
X80242952Y6140905D01*
X80623904Y6140905D01*
X80719142Y6093286D01*
X80766761Y6045667D01*
X80814380Y5950429D01*
X80814380Y5759953D01*
X80766761Y5664715D01*
X80719142Y5617096D01*
X80623904Y5569477D01*
X80385809Y5569477D01*
X80290571Y5617096D01*
X80242952Y5664715D01*
X80195333Y5759953D01*
X80195333Y5950429D01*
X80242952Y6045667D01*
X80290571Y6093286D01*
X80385809Y6140905D01*
X79814380Y4664715D02*
X79814380Y5140905D01*
X80290571Y5188524D01*
X80242952Y5140905D01*
X80195333Y5045667D01*
X80195333Y4807572D01*
X80242952Y4712334D01*
X80290571Y4664715D01*
X80385809Y4617096D01*
X80623904Y4617096D01*
X80719142Y4664715D01*
X80766761Y4712334D01*
X80814380Y4807572D01*
X80814380Y5045667D01*
X80766761Y5140905D01*
X80719142Y5188524D01*
X70322380Y21030477D02*
X70322380Y21601905D01*
X70322380Y21316191D02*
X69322380Y21316191D01*
X69465238Y21411429D01*
X69560476Y21506667D01*
X69608095Y21601905D01*
X69417619Y20649524D02*
X69370000Y20601905D01*
X69322380Y20506667D01*
X69322380Y20268572D01*
X69370000Y20173334D01*
X69417619Y20125715D01*
X69512857Y20078096D01*
X69608095Y20078096D01*
X69750952Y20125715D01*
X70322380Y20697143D01*
X70322380Y20078096D01*
X84814380Y5664715D02*
X84814380Y5855191D01*
X84862000Y5950429D01*
X84909619Y5998048D01*
X85052476Y6093286D01*
X85242952Y6140905D01*
X85623904Y6140905D01*
X85719142Y6093286D01*
X85766761Y6045667D01*
X85814380Y5950429D01*
X85814380Y5759953D01*
X85766761Y5664715D01*
X85719142Y5617096D01*
X85623904Y5569477D01*
X85385809Y5569477D01*
X85290571Y5617096D01*
X85242952Y5664715D01*
X85195333Y5759953D01*
X85195333Y5950429D01*
X85242952Y6045667D01*
X85290571Y6093286D01*
X85385809Y6140905D01*
X84814380Y5236143D02*
X84814380Y4617096D01*
X85195333Y4950429D01*
X85195333Y4807572D01*
X85242952Y4712334D01*
X85290571Y4664715D01*
X85385809Y4617096D01*
X85623904Y4617096D01*
X85719142Y4664715D01*
X85766761Y4712334D01*
X85814380Y4807572D01*
X85814380Y5093286D01*
X85766761Y5188524D01*
X85719142Y5236143D01*
X56814380Y6188524D02*
X56814380Y5521858D01*
X57814380Y5950429D01*
X57147714Y4712334D02*
X57814380Y4712334D01*
X56766761Y4950429D02*
X57481047Y5188524D01*
X57481047Y4569477D01*
X54182380Y12278096D02*
X54182380Y12754286D01*
X54658571Y12801905D01*
X54610952Y12754286D01*
X54563333Y12659048D01*
X54563333Y12420953D01*
X54610952Y12325715D01*
X54658571Y12278096D01*
X54753809Y12230477D01*
X54991904Y12230477D01*
X55087142Y12278096D01*
X55134761Y12325715D01*
X55182380Y12420953D01*
X55182380Y12659048D01*
X55134761Y12754286D01*
X55087142Y12801905D01*
X54182380Y11373334D02*
X54182380Y11563810D01*
X54230000Y11659048D01*
X54277619Y11706667D01*
X54420476Y11801905D01*
X54610952Y11849524D01*
X54991904Y11849524D01*
X55087142Y11801905D01*
X55134761Y11754286D01*
X55182380Y11659048D01*
X55182380Y11468572D01*
X55134761Y11373334D01*
X55087142Y11325715D01*
X54991904Y11278096D01*
X54753809Y11278096D01*
X54658571Y11325715D01*
X54610952Y11373334D01*
X54563333Y11468572D01*
X54563333Y11659048D01*
X54610952Y11754286D01*
X54658571Y11801905D01*
X54753809Y11849524D01*
X74614380Y5664715D02*
X74614380Y5855191D01*
X74662000Y5950429D01*
X74709619Y5998048D01*
X74852476Y6093286D01*
X75042952Y6140905D01*
X75423904Y6140905D01*
X75519142Y6093286D01*
X75566761Y6045667D01*
X75614380Y5950429D01*
X75614380Y5759953D01*
X75566761Y5664715D01*
X75519142Y5617096D01*
X75423904Y5569477D01*
X75185809Y5569477D01*
X75090571Y5617096D01*
X75042952Y5664715D01*
X74995333Y5759953D01*
X74995333Y5950429D01*
X75042952Y6045667D01*
X75090571Y6093286D01*
X75185809Y6140905D01*
X74614380Y5236143D02*
X74614380Y4569477D01*
X75614380Y4998048D01*
X78014380Y21069477D02*
X78014380Y20879000D01*
X77966761Y20783762D01*
X77919142Y20736143D01*
X77776285Y20640905D01*
X77585809Y20593286D01*
X77204857Y20593286D01*
X77109619Y20640905D01*
X77062000Y20688524D01*
X77014380Y20783762D01*
X77014380Y20974239D01*
X77062000Y21069477D01*
X77109619Y21117096D01*
X77204857Y21164715D01*
X77442952Y21164715D01*
X77538190Y21117096D01*
X77585809Y21069477D01*
X77633428Y20974239D01*
X77633428Y20783762D01*
X77585809Y20688524D01*
X77538190Y20640905D01*
X77442952Y20593286D01*
X46814380Y6088524D02*
X46814380Y5421858D01*
X47814380Y5850429D01*
X47242952Y4898048D02*
X47195333Y4993286D01*
X47147714Y5040905D01*
X47052476Y5088524D01*
X47004857Y5088524D01*
X46909619Y5040905D01*
X46862000Y4993286D01*
X46814380Y4898048D01*
X46814380Y4707572D01*
X46862000Y4612334D01*
X46909619Y4564715D01*
X47004857Y4517096D01*
X47052476Y4517096D01*
X47147714Y4564715D01*
X47195333Y4612334D01*
X47242952Y4707572D01*
X47242952Y4898048D01*
X47290571Y4993286D01*
X47338190Y5040905D01*
X47433428Y5088524D01*
X47623904Y5088524D01*
X47719142Y5040905D01*
X47766761Y4993286D01*
X47814380Y4898048D01*
X47814380Y4707572D01*
X47766761Y4612334D01*
X47719142Y4564715D01*
X47623904Y4517096D01*
X47433428Y4517096D01*
X47338190Y4564715D01*
X47290571Y4612334D01*
X47242952Y4707572D01*
X67014380Y6188524D02*
X67014380Y5521858D01*
X68014380Y5950429D01*
X67014380Y4950429D02*
X67014380Y4855191D01*
X67062000Y4759953D01*
X67109619Y4712334D01*
X67204857Y4664715D01*
X67395333Y4617096D01*
X67633428Y4617096D01*
X67823904Y4664715D01*
X67919142Y4712334D01*
X67966761Y4759953D01*
X68014380Y4855191D01*
X68014380Y4950429D01*
X67966761Y5045667D01*
X67919142Y5093286D01*
X67823904Y5140905D01*
X67633428Y5188524D01*
X67395333Y5188524D01*
X67204857Y5140905D01*
X67109619Y5093286D01*
X67062000Y5045667D01*
X67014380Y4950429D01*
X54282380Y6149524D02*
X54282380Y5482858D01*
X55282380Y5911429D01*
X54282380Y4625715D02*
X54282380Y5101905D01*
X54758571Y5149524D01*
X54710952Y5101905D01*
X54663333Y5006667D01*
X54663333Y4768572D01*
X54710952Y4673334D01*
X54758571Y4625715D01*
X54853809Y4578096D01*
X55091904Y4578096D01*
X55187142Y4625715D01*
X55234761Y4673334D01*
X55282380Y4768572D01*
X55282380Y5006667D01*
X55234761Y5101905D01*
X55187142Y5149524D01*
X49314380Y12217096D02*
X49314380Y12693286D01*
X49790571Y12740905D01*
X49742952Y12693286D01*
X49695333Y12598048D01*
X49695333Y12359953D01*
X49742952Y12264715D01*
X49790571Y12217096D01*
X49885809Y12169477D01*
X50123904Y12169477D01*
X50219142Y12217096D01*
X50266761Y12264715D01*
X50314380Y12359953D01*
X50314380Y12598048D01*
X50266761Y12693286D01*
X50219142Y12740905D01*
X49742952Y11598048D02*
X49695333Y11693286D01*
X49647714Y11740905D01*
X49552476Y11788524D01*
X49504857Y11788524D01*
X49409619Y11740905D01*
X49362000Y11693286D01*
X49314380Y11598048D01*
X49314380Y11407572D01*
X49362000Y11312334D01*
X49409619Y11264715D01*
X49504857Y11217096D01*
X49552476Y11217096D01*
X49647714Y11264715D01*
X49695333Y11312334D01*
X49742952Y11407572D01*
X49742952Y11598048D01*
X49790571Y11693286D01*
X49838190Y11740905D01*
X49933428Y11788524D01*
X50123904Y11788524D01*
X50219142Y11740905D01*
X50266761Y11693286D01*
X50314380Y11598048D01*
X50314380Y11407572D01*
X50266761Y11312334D01*
X50219142Y11264715D01*
X50123904Y11217096D01*
X49933428Y11217096D01*
X49838190Y11264715D01*
X49790571Y11312334D01*
X49742952Y11407572D01*
X55082380Y21030477D02*
X55082380Y21601905D01*
X55082380Y21316191D02*
X54082380Y21316191D01*
X54225238Y21411429D01*
X54320476Y21506667D01*
X54368095Y21601905D01*
X54510952Y20459048D02*
X54463333Y20554286D01*
X54415714Y20601905D01*
X54320476Y20649524D01*
X54272857Y20649524D01*
X54177619Y20601905D01*
X54130000Y20554286D01*
X54082380Y20459048D01*
X54082380Y20268572D01*
X54130000Y20173334D01*
X54177619Y20125715D01*
X54272857Y20078096D01*
X54320476Y20078096D01*
X54415714Y20125715D01*
X54463333Y20173334D01*
X54510952Y20268572D01*
X54510952Y20459048D01*
X54558571Y20554286D01*
X54606190Y20601905D01*
X54701428Y20649524D01*
X54891904Y20649524D01*
X54987142Y20601905D01*
X55034761Y20554286D01*
X55082380Y20459048D01*
X55082380Y20268572D01*
X55034761Y20173334D01*
X54987142Y20125715D01*
X54891904Y20078096D01*
X54701428Y20078096D01*
X54606190Y20125715D01*
X54558571Y20173334D01*
X54510952Y20268572D01*
X64514380Y6188524D02*
X64514380Y5521858D01*
X65514380Y5950429D01*
X65514380Y4617096D02*
X65514380Y5188524D01*
X65514380Y4902810D02*
X64514380Y4902810D01*
X64657238Y4998048D01*
X64752476Y5093286D01*
X64800095Y5188524D01*
X119414380Y12645667D02*
X119414380Y12455191D01*
X119366761Y12359953D01*
X119319142Y12312334D01*
X119176285Y12217096D01*
X118985809Y12169477D01*
X118604857Y12169477D01*
X118509619Y12217096D01*
X118462000Y12264715D01*
X118414380Y12359953D01*
X118414380Y12550429D01*
X118462000Y12645667D01*
X118509619Y12693286D01*
X118604857Y12740905D01*
X118842952Y12740905D01*
X118938190Y12693286D01*
X118985809Y12645667D01*
X119033428Y12550429D01*
X119033428Y12359953D01*
X118985809Y12264715D01*
X118938190Y12217096D01*
X118842952Y12169477D01*
X118414380Y11836143D02*
X118414380Y11169477D01*
X119414380Y11598048D01*
X100514380Y15145667D02*
X100514380Y14955191D01*
X100466761Y14859953D01*
X100419142Y14812334D01*
X100276285Y14717096D01*
X100085809Y14669477D01*
X99704857Y14669477D01*
X99609619Y14717096D01*
X99562000Y14764715D01*
X99514380Y14859953D01*
X99514380Y15050429D01*
X99562000Y15145667D01*
X99609619Y15193286D01*
X99704857Y15240905D01*
X99942952Y15240905D01*
X100038190Y15193286D01*
X100085809Y15145667D01*
X100133428Y15050429D01*
X100133428Y14859953D01*
X100085809Y14764715D01*
X100038190Y14717096D01*
X99942952Y14669477D01*
X99942952Y14098048D02*
X99895333Y14193286D01*
X99847714Y14240905D01*
X99752476Y14288524D01*
X99704857Y14288524D01*
X99609619Y14240905D01*
X99562000Y14193286D01*
X99514380Y14098048D01*
X99514380Y13907572D01*
X99562000Y13812334D01*
X99609619Y13764715D01*
X99704857Y13717096D01*
X99752476Y13717096D01*
X99847714Y13764715D01*
X99895333Y13812334D01*
X99942952Y13907572D01*
X99942952Y14098048D01*
X99990571Y14193286D01*
X100038190Y14240905D01*
X100133428Y14288524D01*
X100323904Y14288524D01*
X100419142Y14240905D01*
X100466761Y14193286D01*
X100514380Y14098048D01*
X100514380Y13907572D01*
X100466761Y13812334D01*
X100419142Y13764715D01*
X100323904Y13717096D01*
X100133428Y13717096D01*
X100038190Y13764715D01*
X99990571Y13812334D01*
X99942952Y13907572D01*
X39014380Y12264715D02*
X39014380Y12455191D01*
X39062000Y12550429D01*
X39109619Y12598048D01*
X39252476Y12693286D01*
X39442952Y12740905D01*
X39823904Y12740905D01*
X39919142Y12693286D01*
X39966761Y12645667D01*
X40014380Y12550429D01*
X40014380Y12359953D01*
X39966761Y12264715D01*
X39919142Y12217096D01*
X39823904Y12169477D01*
X39585809Y12169477D01*
X39490571Y12217096D01*
X39442952Y12264715D01*
X39395333Y12359953D01*
X39395333Y12550429D01*
X39442952Y12645667D01*
X39490571Y12693286D01*
X39585809Y12740905D01*
X39109619Y11788524D02*
X39062000Y11740905D01*
X39014380Y11645667D01*
X39014380Y11407572D01*
X39062000Y11312334D01*
X39109619Y11264715D01*
X39204857Y11217096D01*
X39300095Y11217096D01*
X39442952Y11264715D01*
X40014380Y11836143D01*
X40014380Y11217096D01*
X60914380Y15088524D02*
X60914380Y14469477D01*
X61295333Y14802810D01*
X61295333Y14659953D01*
X61342952Y14564715D01*
X61390571Y14517096D01*
X61485809Y14469477D01*
X61723904Y14469477D01*
X61819142Y14517096D01*
X61866761Y14564715D01*
X61914380Y14659953D01*
X61914380Y14945667D01*
X61866761Y15040905D01*
X61819142Y15088524D01*
X61247714Y13612334D02*
X61914380Y13612334D01*
X60866761Y13850429D02*
X61581047Y14088524D01*
X61581047Y13469477D01*
D16*
X141961904Y108290477D02*
X141961904Y112290476D01*
X141104761Y108290477D02*
X141104761Y110385714D01*
X141200000Y110766666D01*
X141390476Y110957142D01*
X141676190Y110957142D01*
X141866666Y110766666D01*
X141961904Y110576190D01*
X140438095Y110957142D02*
X139676190Y110957142D01*
X140152380Y112290476D02*
X140152380Y108861905D01*
X140057142Y108480953D01*
X139866666Y108290477D01*
X139676190Y108290477D01*
X139295238Y110957142D02*
X138533333Y110957142D01*
X139009523Y112290476D02*
X139009523Y108861905D01*
X138914285Y108480953D01*
X138723809Y108290477D01*
X138533333Y108290477D01*
X137866666Y110957142D02*
X137866666Y106957143D01*
X137866666Y110766666D02*
X137676190Y110957142D01*
X137295238Y110957142D01*
X137104761Y110766666D01*
X137009523Y110576190D01*
X136914285Y110195239D01*
X136914285Y109052381D01*
X137009523Y108671429D01*
X137104761Y108480953D01*
X137295238Y108290477D01*
X137676190Y108290477D01*
X137866666Y108480953D01*
X136057142Y108671429D02*
X135961904Y108480953D01*
X136057142Y108290477D01*
X136152380Y108480953D01*
X136057142Y108671429D01*
X136057142Y108290477D01*
X136057142Y110766666D02*
X135961904Y110576190D01*
X136057142Y110385714D01*
X136152380Y110576190D01*
X136057142Y110766666D01*
X136057142Y110385714D01*
X133676190Y112480952D02*
X135390476Y107338096D01*
X131580952Y112480952D02*
X133295238Y107338096D01*
X130914285Y108290477D02*
X130914285Y110957142D01*
X130914285Y110195239D02*
X130819047Y110576190D01*
X130723809Y110766666D01*
X130533333Y110957142D01*
X130342857Y110957142D01*
X128819047Y110957142D02*
X128819047Y108290477D01*
X129676190Y110957142D02*
X129676190Y108861905D01*
X129580952Y108480953D01*
X129390476Y108290477D01*
X129104761Y108290477D01*
X128914285Y108480953D01*
X128819047Y108671429D01*
X127961904Y108480953D02*
X127771428Y108290477D01*
X127390476Y108290477D01*
X127200000Y108480953D01*
X127104761Y108861905D01*
X127104761Y109052381D01*
X127200000Y109433334D01*
X127390476Y109623810D01*
X127676190Y109623810D01*
X127866666Y109814286D01*
X127961904Y110195239D01*
X127961904Y110385714D01*
X127866666Y110766666D01*
X127676190Y110957142D01*
X127390476Y110957142D01*
X127200000Y110766666D01*
X125485714Y108480953D02*
X125676190Y108290477D01*
X126057142Y108290477D01*
X126247619Y108480953D01*
X126342857Y108861905D01*
X126342857Y110385714D01*
X126247619Y110766666D01*
X126057142Y110957142D01*
X125676190Y110957142D01*
X125485714Y110766666D01*
X125390476Y110385714D01*
X125390476Y110004762D01*
X126342857Y109623810D01*
X124819047Y110957142D02*
X124057142Y110957142D01*
X124533333Y108290477D02*
X124533333Y111719047D01*
X124438095Y112100000D01*
X124247619Y112290476D01*
X124057142Y112290476D01*
X123390476Y108290477D02*
X123390476Y110957142D01*
X123390476Y112290476D02*
X123485714Y112100000D01*
X123390476Y111909523D01*
X123295238Y112100000D01*
X123390476Y112290476D01*
X123390476Y111909523D01*
X122438095Y108671429D02*
X122342857Y108480953D01*
X122438095Y108290477D01*
X122533333Y108480953D01*
X122438095Y108671429D01*
X122438095Y108290477D01*
X120628571Y108480953D02*
X120819047Y108290477D01*
X121200000Y108290477D01*
X121390476Y108480953D01*
X121485714Y108671429D01*
X121580952Y109052381D01*
X121580952Y110195239D01*
X121485714Y110576190D01*
X121390476Y110766666D01*
X121200000Y110957142D01*
X120819047Y110957142D01*
X120628571Y110766666D01*
X119485714Y108290477D02*
X119676190Y108480953D01*
X119771428Y108671429D01*
X119866666Y109052381D01*
X119866666Y110195239D01*
X119771428Y110576190D01*
X119676190Y110766666D01*
X119485714Y110957142D01*
X119200000Y110957142D01*
X119009523Y110766666D01*
X118914285Y110576190D01*
X118819047Y110195239D01*
X118819047Y109052381D01*
X118914285Y108671429D01*
X119009523Y108480953D01*
X119200000Y108290477D01*
X119485714Y108290477D01*
X117961904Y108290477D02*
X117961904Y110957142D01*
X117961904Y110576190D02*
X117866666Y110766666D01*
X117676190Y110957142D01*
X117390476Y110957142D01*
X117200000Y110766666D01*
X117104761Y110385714D01*
X117104761Y108290477D01*
X117104761Y110385714D02*
X117009523Y110766666D01*
X116819047Y110957142D01*
X116533333Y110957142D01*
X116342857Y110766666D01*
X116247619Y110385714D01*
X116247619Y108290477D01*
X113866666Y112480952D02*
X115580952Y107338096D01*
X113295238Y108480953D02*
X113104761Y108290477D01*
X112723809Y108290477D01*
X112533333Y108480953D01*
X112438095Y108861905D01*
X112438095Y109052381D01*
X112533333Y109433334D01*
X112723809Y109623810D01*
X113009523Y109623810D01*
X113200000Y109814286D01*
X113295238Y110195239D01*
X113295238Y110385714D01*
X113200000Y110766666D01*
X113009523Y110957142D01*
X112723809Y110957142D01*
X112533333Y110766666D01*
X110152380Y112480952D02*
X111866666Y107338096D01*
X109485714Y108290477D02*
X109485714Y112290476D01*
X108628571Y108290477D02*
X108628571Y110385714D01*
X108723809Y110766666D01*
X108914285Y110957142D01*
X109200000Y110957142D01*
X109390476Y110766666D01*
X109485714Y110576190D01*
X106914285Y108480953D02*
X107104761Y108290477D01*
X107485714Y108290477D01*
X107676190Y108480953D01*
X107771428Y108861905D01*
X107771428Y110385714D01*
X107676190Y110766666D01*
X107485714Y110957142D01*
X107104761Y110957142D01*
X106914285Y110766666D01*
X106819047Y110385714D01*
X106819047Y110004762D01*
X107771428Y109623810D01*
X105676190Y108290477D02*
X105866666Y108480953D01*
X105961904Y108861905D01*
X105961904Y112290476D01*
X104628571Y108290477D02*
X104819047Y108480953D01*
X104914285Y108861905D01*
X104914285Y112290476D01*
X103104761Y108480953D02*
X103295238Y108290477D01*
X103676190Y108290477D01*
X103866666Y108480953D01*
X103961904Y108861905D01*
X103961904Y110385714D01*
X103866666Y110766666D01*
X103676190Y110957142D01*
X103295238Y110957142D01*
X103104761Y110766666D01*
X103009523Y110385714D01*
X103009523Y110004762D01*
X103961904Y109623810D01*
X102152380Y110957142D02*
X102152380Y108290477D01*
X102152380Y110576190D02*
X102057142Y110766666D01*
X101866666Y110957142D01*
X101580952Y110957142D01*
X101390476Y110766666D01*
X101295238Y110385714D01*
X101295238Y108290477D01*
X99295238Y108290477D02*
X100438095Y108290477D01*
X99866666Y108290477D02*
X99866666Y112290476D01*
X100057142Y111719047D01*
X100247619Y111338095D01*
X100438095Y111147619D01*
X98533333Y111909523D02*
X98438095Y112100000D01*
X98247619Y112290476D01*
X97771428Y112290476D01*
X97580952Y112100000D01*
X97485714Y111909523D01*
X97390476Y111528571D01*
X97390476Y111147619D01*
X97485714Y110576190D01*
X98628571Y108290477D01*
X97390476Y108290477D01*
X95485714Y108290477D02*
X96628571Y108290477D01*
X96057142Y108290477D02*
X96057142Y112290476D01*
X96247619Y111719047D01*
X96438095Y111338095D01*
X96628571Y111147619D01*
X94819047Y110957142D02*
X94342857Y108290477D01*
X93866666Y110957142D01*
X92247619Y108290477D02*
X92247619Y110385714D01*
X92342857Y110766666D01*
X92533333Y110957142D01*
X92914285Y110957142D01*
X93104761Y110766666D01*
X92247619Y108480953D02*
X92438095Y108290477D01*
X92914285Y108290477D01*
X93104761Y108480953D01*
X93200000Y108861905D01*
X93200000Y109242858D01*
X93104761Y109623810D01*
X92914285Y109814286D01*
X92438095Y109814286D01*
X92247619Y110004762D01*
X90438095Y110957142D02*
X90438095Y107719048D01*
X90533333Y107338096D01*
X90628571Y107147620D01*
X90819047Y106957143D01*
X91104761Y106957143D01*
X91295238Y107147620D01*
X90438095Y108480953D02*
X90628571Y108290477D01*
X91009523Y108290477D01*
X91200000Y108480953D01*
X91295238Y108671429D01*
X91390476Y109052381D01*
X91390476Y110195239D01*
X91295238Y110576190D01*
X91200000Y110766666D01*
X91009523Y110957142D01*
X90628571Y110957142D01*
X90438095Y110766666D01*
D12*
X105514380Y14645667D02*
X105514380Y15217096D01*
X105514380Y14931381D02*
X104514380Y14931381D01*
X104657238Y15026620D01*
X104752476Y15121858D01*
X104800095Y15217096D01*
X104514380Y14026620D02*
X104514380Y13931381D01*
X104562000Y13836143D01*
X104609619Y13788524D01*
X104704857Y13740905D01*
X104895333Y13693286D01*
X105133428Y13693286D01*
X105323904Y13740905D01*
X105419142Y13788524D01*
X105466761Y13836143D01*
X105514380Y13931381D01*
X105514380Y14026620D01*
X105466761Y14121858D01*
X105419142Y14169477D01*
X105323904Y14217096D01*
X105133428Y14264715D01*
X104895333Y14264715D01*
X104704857Y14217096D01*
X104609619Y14169477D01*
X104562000Y14121858D01*
X104514380Y14026620D01*
X104514380Y13074239D02*
X104514380Y12979000D01*
X104562000Y12883762D01*
X104609619Y12836143D01*
X104704857Y12788524D01*
X104895333Y12740905D01*
X105133428Y12740905D01*
X105323904Y12788524D01*
X105419142Y12836143D01*
X105466761Y12883762D01*
X105514380Y12979000D01*
X105514380Y13074239D01*
X105466761Y13169477D01*
X105419142Y13217096D01*
X105323904Y13264715D01*
X105133428Y13312334D01*
X104895333Y13312334D01*
X104704857Y13264715D01*
X104609619Y13217096D01*
X104562000Y13169477D01*
X104514380Y13074239D01*
X113214380Y14645667D02*
X113214380Y15217096D01*
X113214380Y14931381D02*
X112214380Y14931381D01*
X112357238Y15026620D01*
X112452476Y15121858D01*
X112500095Y15217096D01*
X112214380Y14026620D02*
X112214380Y13931381D01*
X112262000Y13836143D01*
X112309619Y13788524D01*
X112404857Y13740905D01*
X112595333Y13693286D01*
X112833428Y13693286D01*
X113023904Y13740905D01*
X113119142Y13788524D01*
X113166761Y13836143D01*
X113214380Y13931381D01*
X113214380Y14026620D01*
X113166761Y14121858D01*
X113119142Y14169477D01*
X113023904Y14217096D01*
X112833428Y14264715D01*
X112595333Y14264715D01*
X112404857Y14217096D01*
X112309619Y14169477D01*
X112262000Y14121858D01*
X112214380Y14026620D01*
X112214380Y13359953D02*
X112214380Y12740905D01*
X112595333Y13074239D01*
X112595333Y12931381D01*
X112642952Y12836143D01*
X112690571Y12788524D01*
X112785809Y12740905D01*
X113023904Y12740905D01*
X113119142Y12788524D01*
X113166761Y12836143D01*
X113214380Y12931381D01*
X113214380Y13217096D01*
X113166761Y13312334D01*
X113119142Y13359953D01*
X103842952Y5850429D02*
X103795333Y5945667D01*
X103747714Y5993286D01*
X103652476Y6040905D01*
X103604857Y6040905D01*
X103509619Y5993286D01*
X103462000Y5945667D01*
X103414380Y5850429D01*
X103414380Y5659953D01*
X103462000Y5564715D01*
X103509619Y5517096D01*
X103604857Y5469477D01*
X103652476Y5469477D01*
X103747714Y5517096D01*
X103795333Y5564715D01*
X103842952Y5659953D01*
X103842952Y5850429D01*
X103890571Y5945667D01*
X103938190Y5993286D01*
X104033428Y6040905D01*
X104223904Y6040905D01*
X104319142Y5993286D01*
X104366761Y5945667D01*
X104414380Y5850429D01*
X104414380Y5659953D01*
X104366761Y5564715D01*
X104319142Y5517096D01*
X104223904Y5469477D01*
X104033428Y5469477D01*
X103938190Y5517096D01*
X103890571Y5564715D01*
X103842952Y5659953D01*
X103414380Y5136143D02*
X103414380Y4517096D01*
X103795333Y4850429D01*
X103795333Y4707572D01*
X103842952Y4612334D01*
X103890571Y4564715D01*
X103985809Y4517096D01*
X104223904Y4517096D01*
X104319142Y4564715D01*
X104366761Y4612334D01*
X104414380Y4707572D01*
X104414380Y4993286D01*
X104366761Y5088524D01*
X104319142Y5136143D01*
X80047714Y12364715D02*
X80714380Y12364715D01*
X79666761Y12602810D02*
X80381047Y12840905D01*
X80381047Y12221858D01*
X79714380Y11412334D02*
X79714380Y11602810D01*
X79762000Y11698048D01*
X79809619Y11745667D01*
X79952476Y11840905D01*
X80142952Y11888524D01*
X80523904Y11888524D01*
X80619142Y11840905D01*
X80666761Y11793286D01*
X80714380Y11698048D01*
X80714380Y11507572D01*
X80666761Y11412334D01*
X80619142Y11364715D01*
X80523904Y11317096D01*
X80285809Y11317096D01*
X80190571Y11364715D01*
X80142952Y11412334D01*
X80095333Y11507572D01*
X80095333Y11698048D01*
X80142952Y11793286D01*
X80190571Y11840905D01*
X80285809Y11888524D01*
X84614380Y20688524D02*
X84614380Y20879000D01*
X84662000Y20974239D01*
X84709619Y21021858D01*
X84852476Y21117096D01*
X85042952Y21164715D01*
X85423904Y21164715D01*
X85519142Y21117096D01*
X85566761Y21069477D01*
X85614380Y20974239D01*
X85614380Y20783762D01*
X85566761Y20688524D01*
X85519142Y20640905D01*
X85423904Y20593286D01*
X85185809Y20593286D01*
X85090571Y20640905D01*
X85042952Y20688524D01*
X84995333Y20783762D01*
X84995333Y20974239D01*
X85042952Y21069477D01*
X85090571Y21117096D01*
X85185809Y21164715D01*
X72214380Y5664715D02*
X72214380Y5855191D01*
X72262000Y5950429D01*
X72309619Y5998048D01*
X72452476Y6093286D01*
X72642952Y6140905D01*
X73023904Y6140905D01*
X73119142Y6093286D01*
X73166761Y6045667D01*
X73214380Y5950429D01*
X73214380Y5759953D01*
X73166761Y5664715D01*
X73119142Y5617096D01*
X73023904Y5569477D01*
X72785809Y5569477D01*
X72690571Y5617096D01*
X72642952Y5664715D01*
X72595333Y5759953D01*
X72595333Y5950429D01*
X72642952Y6045667D01*
X72690571Y6093286D01*
X72785809Y6140905D01*
X72642952Y4998048D02*
X72595333Y5093286D01*
X72547714Y5140905D01*
X72452476Y5188524D01*
X72404857Y5188524D01*
X72309619Y5140905D01*
X72262000Y5093286D01*
X72214380Y4998048D01*
X72214380Y4807572D01*
X72262000Y4712334D01*
X72309619Y4664715D01*
X72404857Y4617096D01*
X72452476Y4617096D01*
X72547714Y4664715D01*
X72595333Y4712334D01*
X72642952Y4807572D01*
X72642952Y4998048D01*
X72690571Y5093286D01*
X72738190Y5140905D01*
X72833428Y5188524D01*
X73023904Y5188524D01*
X73119142Y5140905D01*
X73166761Y5093286D01*
X73214380Y4998048D01*
X73214380Y4807572D01*
X73166761Y4712334D01*
X73119142Y4664715D01*
X73023904Y4617096D01*
X72833428Y4617096D01*
X72738190Y4664715D01*
X72690571Y4712334D01*
X72642952Y4807572D01*
X66014380Y15088524D02*
X66014380Y14469477D01*
X66395333Y14802810D01*
X66395333Y14659953D01*
X66442952Y14564715D01*
X66490571Y14517096D01*
X66585809Y14469477D01*
X66823904Y14469477D01*
X66919142Y14517096D01*
X66966761Y14564715D01*
X67014380Y14659953D01*
X67014380Y14945667D01*
X66966761Y15040905D01*
X66919142Y15088524D01*
X66109619Y14088524D02*
X66062000Y14040905D01*
X66014380Y13945667D01*
X66014380Y13707572D01*
X66062000Y13612334D01*
X66109619Y13564715D01*
X66204857Y13517096D01*
X66300095Y13517096D01*
X66442952Y13564715D01*
X67014380Y14136143D01*
X67014380Y13517096D01*
X66914380Y12317096D02*
X66914380Y12793286D01*
X67390571Y12840905D01*
X67342952Y12793286D01*
X67295333Y12698048D01*
X67295333Y12459953D01*
X67342952Y12364715D01*
X67390571Y12317096D01*
X67485809Y12269477D01*
X67723904Y12269477D01*
X67819142Y12317096D01*
X67866761Y12364715D01*
X67914380Y12459953D01*
X67914380Y12698048D01*
X67866761Y12793286D01*
X67819142Y12840905D01*
X67914380Y11317096D02*
X67914380Y11888524D01*
X67914380Y11602810D02*
X66914380Y11602810D01*
X67057238Y11698048D01*
X67152476Y11793286D01*
X67200095Y11888524D01*
X77214380Y5664715D02*
X77214380Y5855191D01*
X77262000Y5950429D01*
X77309619Y5998048D01*
X77452476Y6093286D01*
X77642952Y6140905D01*
X78023904Y6140905D01*
X78119142Y6093286D01*
X78166761Y6045667D01*
X78214380Y5950429D01*
X78214380Y5759953D01*
X78166761Y5664715D01*
X78119142Y5617096D01*
X78023904Y5569477D01*
X77785809Y5569477D01*
X77690571Y5617096D01*
X77642952Y5664715D01*
X77595333Y5759953D01*
X77595333Y5950429D01*
X77642952Y6045667D01*
X77690571Y6093286D01*
X77785809Y6140905D01*
X77214380Y4712334D02*
X77214380Y4902810D01*
X77262000Y4998048D01*
X77309619Y5045667D01*
X77452476Y5140905D01*
X77642952Y5188524D01*
X78023904Y5188524D01*
X78119142Y5140905D01*
X78166761Y5093286D01*
X78214380Y4998048D01*
X78214380Y4807572D01*
X78166761Y4712334D01*
X78119142Y4664715D01*
X78023904Y4617096D01*
X77785809Y4617096D01*
X77690571Y4664715D01*
X77642952Y4712334D01*
X77595333Y4807572D01*
X77595333Y4998048D01*
X77642952Y5093286D01*
X77690571Y5140905D01*
X77785809Y5188524D01*
X46709619Y21540905D02*
X46662000Y21493286D01*
X46614380Y21398048D01*
X46614380Y21159953D01*
X46662000Y21064715D01*
X46709619Y21017096D01*
X46804857Y20969477D01*
X46900095Y20969477D01*
X47042952Y21017096D01*
X47614380Y21588524D01*
X47614380Y20969477D01*
X47614380Y20017096D02*
X47614380Y20588524D01*
X47614380Y20302810D02*
X46614380Y20302810D01*
X46757238Y20398048D01*
X46852476Y20493286D01*
X46900095Y20588524D01*
X114042952Y5850429D02*
X113995333Y5945667D01*
X113947714Y5993286D01*
X113852476Y6040905D01*
X113804857Y6040905D01*
X113709619Y5993286D01*
X113662000Y5945667D01*
X113614380Y5850429D01*
X113614380Y5659953D01*
X113662000Y5564715D01*
X113709619Y5517096D01*
X113804857Y5469477D01*
X113852476Y5469477D01*
X113947714Y5517096D01*
X113995333Y5564715D01*
X114042952Y5659953D01*
X114042952Y5850429D01*
X114090571Y5945667D01*
X114138190Y5993286D01*
X114233428Y6040905D01*
X114423904Y6040905D01*
X114519142Y5993286D01*
X114566761Y5945667D01*
X114614380Y5850429D01*
X114614380Y5659953D01*
X114566761Y5564715D01*
X114519142Y5517096D01*
X114423904Y5469477D01*
X114233428Y5469477D01*
X114138190Y5517096D01*
X114090571Y5564715D01*
X114042952Y5659953D01*
X113614380Y5136143D02*
X113614380Y4469477D01*
X114614380Y4898048D01*
X68522380Y15049524D02*
X68522380Y14430477D01*
X68903333Y14763810D01*
X68903333Y14620953D01*
X68950952Y14525715D01*
X68998571Y14478096D01*
X69093809Y14430477D01*
X69331904Y14430477D01*
X69427142Y14478096D01*
X69474761Y14525715D01*
X69522380Y14620953D01*
X69522380Y14906667D01*
X69474761Y15001905D01*
X69427142Y15049524D01*
X69522380Y13478096D02*
X69522380Y14049524D01*
X69522380Y13763810D02*
X68522380Y13763810D01*
X68665238Y13859048D01*
X68760476Y13954286D01*
X68808095Y14049524D01*
X114514380Y21845667D02*
X114514380Y22417096D01*
X114514380Y22131381D02*
X113514380Y22131381D01*
X113657238Y22226620D01*
X113752476Y22321858D01*
X113800095Y22417096D01*
X114514380Y20893286D02*
X114514380Y21464715D01*
X114514380Y21179000D02*
X113514380Y21179000D01*
X113657238Y21274239D01*
X113752476Y21369477D01*
X113800095Y21464715D01*
X114514380Y19940905D02*
X114514380Y20512334D01*
X114514380Y20226620D02*
X113514380Y20226620D01*
X113657238Y20321858D01*
X113752476Y20417096D01*
X113800095Y20512334D01*
X61814380Y12317096D02*
X61814380Y12793286D01*
X62290571Y12840905D01*
X62242952Y12793286D01*
X62195333Y12698048D01*
X62195333Y12459953D01*
X62242952Y12364715D01*
X62290571Y12317096D01*
X62385809Y12269477D01*
X62623904Y12269477D01*
X62719142Y12317096D01*
X62766761Y12364715D01*
X62814380Y12459953D01*
X62814380Y12698048D01*
X62766761Y12793286D01*
X62719142Y12840905D01*
X61814380Y11936143D02*
X61814380Y11317096D01*
X62195333Y11650429D01*
X62195333Y11507572D01*
X62242952Y11412334D01*
X62290571Y11364715D01*
X62385809Y11317096D01*
X62623904Y11317096D01*
X62719142Y11364715D01*
X62766761Y11412334D01*
X62814380Y11507572D01*
X62814380Y11793286D01*
X62766761Y11888524D01*
X62719142Y11936143D01*
X109414380Y12545667D02*
X109414380Y12355191D01*
X109366761Y12259953D01*
X109319142Y12212334D01*
X109176285Y12117096D01*
X108985809Y12069477D01*
X108604857Y12069477D01*
X108509619Y12117096D01*
X108462000Y12164715D01*
X108414380Y12259953D01*
X108414380Y12450429D01*
X108462000Y12545667D01*
X108509619Y12593286D01*
X108604857Y12640905D01*
X108842952Y12640905D01*
X108938190Y12593286D01*
X108985809Y12545667D01*
X109033428Y12450429D01*
X109033428Y12259953D01*
X108985809Y12164715D01*
X108938190Y12117096D01*
X108842952Y12069477D01*
X108414380Y11736143D02*
X108414380Y11117096D01*
X108795333Y11450429D01*
X108795333Y11307572D01*
X108842952Y11212334D01*
X108890571Y11164715D01*
X108985809Y11117096D01*
X109223904Y11117096D01*
X109319142Y11164715D01*
X109366761Y11212334D01*
X109414380Y11307572D01*
X109414380Y11593286D01*
X109366761Y11688524D01*
X109319142Y11736143D01*
X41047714Y14464715D02*
X41714380Y14464715D01*
X40666761Y14702810D02*
X41381047Y14940905D01*
X41381047Y14321858D01*
X40809619Y13988524D02*
X40762000Y13940905D01*
X40714380Y13845667D01*
X40714380Y13607572D01*
X40762000Y13512334D01*
X40809619Y13464715D01*
X40904857Y13417096D01*
X41000095Y13417096D01*
X41142952Y13464715D01*
X41714380Y14036143D01*
X41714380Y13417096D01*
X109414380Y21845667D02*
X109414380Y22417096D01*
X109414380Y22131381D02*
X108414380Y22131381D01*
X108557238Y22226620D01*
X108652476Y22321858D01*
X108700095Y22417096D01*
X108414380Y21226620D02*
X108414380Y21131381D01*
X108462000Y21036143D01*
X108509619Y20988524D01*
X108604857Y20940905D01*
X108795333Y20893286D01*
X109033428Y20893286D01*
X109223904Y20940905D01*
X109319142Y20988524D01*
X109366761Y21036143D01*
X109414380Y21131381D01*
X109414380Y21226620D01*
X109366761Y21321858D01*
X109319142Y21369477D01*
X109223904Y21417096D01*
X109033428Y21464715D01*
X108795333Y21464715D01*
X108604857Y21417096D01*
X108509619Y21369477D01*
X108462000Y21321858D01*
X108414380Y21226620D01*
X109414380Y20417096D02*
X109414380Y20226620D01*
X109366761Y20131381D01*
X109319142Y20083762D01*
X109176285Y19988524D01*
X108985809Y19940905D01*
X108604857Y19940905D01*
X108509619Y19988524D01*
X108462000Y20036143D01*
X108414380Y20131381D01*
X108414380Y20321858D01*
X108462000Y20417096D01*
X108509619Y20464715D01*
X108604857Y20512334D01*
X108842952Y20512334D01*
X108938190Y20464715D01*
X108985809Y20417096D01*
X109033428Y20321858D01*
X109033428Y20131381D01*
X108985809Y20036143D01*
X108938190Y19988524D01*
X108842952Y19940905D01*
X73709619Y15040905D02*
X73662000Y14993286D01*
X73614380Y14898048D01*
X73614380Y14659953D01*
X73662000Y14564715D01*
X73709619Y14517096D01*
X73804857Y14469477D01*
X73900095Y14469477D01*
X74042952Y14517096D01*
X74614380Y15088524D01*
X74614380Y14469477D01*
X74614380Y13993286D02*
X74614380Y13802810D01*
X74566761Y13707572D01*
X74519142Y13659953D01*
X74376285Y13564715D01*
X74185809Y13517096D01*
X73804857Y13517096D01*
X73709619Y13564715D01*
X73662000Y13612334D01*
X73614380Y13707572D01*
X73614380Y13898048D01*
X73662000Y13993286D01*
X73709619Y14040905D01*
X73804857Y14088524D01*
X74042952Y14088524D01*
X74138190Y14040905D01*
X74185809Y13993286D01*
X74233428Y13898048D01*
X74233428Y13707572D01*
X74185809Y13612334D01*
X74138190Y13564715D01*
X74042952Y13517096D01*
X63514380Y15088524D02*
X63514380Y14469477D01*
X63895333Y14802810D01*
X63895333Y14659953D01*
X63942952Y14564715D01*
X63990571Y14517096D01*
X64085809Y14469477D01*
X64323904Y14469477D01*
X64419142Y14517096D01*
X64466761Y14564715D01*
X64514380Y14659953D01*
X64514380Y14945667D01*
X64466761Y15040905D01*
X64419142Y15088524D01*
X63514380Y14136143D02*
X63514380Y13517096D01*
X63895333Y13850429D01*
X63895333Y13707572D01*
X63942952Y13612334D01*
X63990571Y13564715D01*
X64085809Y13517096D01*
X64323904Y13517096D01*
X64419142Y13564715D01*
X64466761Y13612334D01*
X64514380Y13707572D01*
X64514380Y13993286D01*
X64466761Y14088524D01*
X64419142Y14136143D01*
X82547714Y12364715D02*
X83214380Y12364715D01*
X82166761Y12602810D02*
X82881047Y12840905D01*
X82881047Y12221858D01*
X82214380Y11364715D02*
X82214380Y11840905D01*
X82690571Y11888524D01*
X82642952Y11840905D01*
X82595333Y11745667D01*
X82595333Y11507572D01*
X82642952Y11412334D01*
X82690571Y11364715D01*
X82785809Y11317096D01*
X83023904Y11317096D01*
X83119142Y11364715D01*
X83166761Y11412334D01*
X83214380Y11507572D01*
X83214380Y11745667D01*
X83166761Y11840905D01*
X83119142Y11888524D01*
X55814380Y15088524D02*
X55814380Y14469477D01*
X56195333Y14802810D01*
X56195333Y14659953D01*
X56242952Y14564715D01*
X56290571Y14517096D01*
X56385809Y14469477D01*
X56623904Y14469477D01*
X56719142Y14517096D01*
X56766761Y14564715D01*
X56814380Y14659953D01*
X56814380Y14945667D01*
X56766761Y15040905D01*
X56719142Y15088524D01*
X55814380Y13612334D02*
X55814380Y13802810D01*
X55862000Y13898048D01*
X55909619Y13945667D01*
X56052476Y14040905D01*
X56242952Y14088524D01*
X56623904Y14088524D01*
X56719142Y14040905D01*
X56766761Y13993286D01*
X56814380Y13898048D01*
X56814380Y13707572D01*
X56766761Y13612334D01*
X56719142Y13564715D01*
X56623904Y13517096D01*
X56385809Y13517096D01*
X56290571Y13564715D01*
X56242952Y13612334D01*
X56195333Y13707572D01*
X56195333Y13898048D01*
X56242952Y13993286D01*
X56290571Y14040905D01*
X56385809Y14088524D01*
X103114380Y15145667D02*
X103114380Y14955191D01*
X103066761Y14859953D01*
X103019142Y14812334D01*
X102876285Y14717096D01*
X102685809Y14669477D01*
X102304857Y14669477D01*
X102209619Y14717096D01*
X102162000Y14764715D01*
X102114380Y14859953D01*
X102114380Y15050429D01*
X102162000Y15145667D01*
X102209619Y15193286D01*
X102304857Y15240905D01*
X102542952Y15240905D01*
X102638190Y15193286D01*
X102685809Y15145667D01*
X102733428Y15050429D01*
X102733428Y14859953D01*
X102685809Y14764715D01*
X102638190Y14717096D01*
X102542952Y14669477D01*
X103114380Y14193286D02*
X103114380Y14002810D01*
X103066761Y13907572D01*
X103019142Y13859953D01*
X102876285Y13764715D01*
X102685809Y13717096D01*
X102304857Y13717096D01*
X102209619Y13764715D01*
X102162000Y13812334D01*
X102114380Y13907572D01*
X102114380Y14098048D01*
X102162000Y14193286D01*
X102209619Y14240905D01*
X102304857Y14288524D01*
X102542952Y14288524D01*
X102638190Y14240905D01*
X102685809Y14193286D01*
X102733428Y14098048D01*
X102733428Y13907572D01*
X102685809Y13812334D01*
X102638190Y13764715D01*
X102542952Y13717096D01*
X39009619Y21540905D02*
X38962000Y21493286D01*
X38914380Y21398048D01*
X38914380Y21159953D01*
X38962000Y21064715D01*
X39009619Y21017096D01*
X39104857Y20969477D01*
X39200095Y20969477D01*
X39342952Y21017096D01*
X39914380Y21588524D01*
X39914380Y20969477D01*
X39247714Y20112334D02*
X39914380Y20112334D01*
X38866761Y20350429D02*
X39581047Y20588524D01*
X39581047Y19969477D01*
X39542952Y5850429D02*
X39495333Y5945667D01*
X39447714Y5993286D01*
X39352476Y6040905D01*
X39304857Y6040905D01*
X39209619Y5993286D01*
X39162000Y5945667D01*
X39114380Y5850429D01*
X39114380Y5659953D01*
X39162000Y5564715D01*
X39209619Y5517096D01*
X39304857Y5469477D01*
X39352476Y5469477D01*
X39447714Y5517096D01*
X39495333Y5564715D01*
X39542952Y5659953D01*
X39542952Y5850429D01*
X39590571Y5945667D01*
X39638190Y5993286D01*
X39733428Y6040905D01*
X39923904Y6040905D01*
X40019142Y5993286D01*
X40066761Y5945667D01*
X40114380Y5850429D01*
X40114380Y5659953D01*
X40066761Y5564715D01*
X40019142Y5517096D01*
X39923904Y5469477D01*
X39733428Y5469477D01*
X39638190Y5517096D01*
X39590571Y5564715D01*
X39542952Y5659953D01*
X40114380Y4517096D02*
X40114380Y5088524D01*
X40114380Y4802810D02*
X39114380Y4802810D01*
X39257238Y4898048D01*
X39352476Y4993286D01*
X39400095Y5088524D01*
X106342952Y5850429D02*
X106295333Y5945667D01*
X106247714Y5993286D01*
X106152476Y6040905D01*
X106104857Y6040905D01*
X106009619Y5993286D01*
X105962000Y5945667D01*
X105914380Y5850429D01*
X105914380Y5659953D01*
X105962000Y5564715D01*
X106009619Y5517096D01*
X106104857Y5469477D01*
X106152476Y5469477D01*
X106247714Y5517096D01*
X106295333Y5564715D01*
X106342952Y5659953D01*
X106342952Y5850429D01*
X106390571Y5945667D01*
X106438190Y5993286D01*
X106533428Y6040905D01*
X106723904Y6040905D01*
X106819142Y5993286D01*
X106866761Y5945667D01*
X106914380Y5850429D01*
X106914380Y5659953D01*
X106866761Y5564715D01*
X106819142Y5517096D01*
X106723904Y5469477D01*
X106533428Y5469477D01*
X106438190Y5517096D01*
X106390571Y5564715D01*
X106342952Y5659953D01*
X106247714Y4612334D02*
X106914380Y4612334D01*
X105866761Y4850429D02*
X106581047Y5088524D01*
X106581047Y4469477D01*
X41614380Y12264715D02*
X41614380Y12455191D01*
X41662000Y12550429D01*
X41709619Y12598048D01*
X41852476Y12693286D01*
X42042952Y12740905D01*
X42423904Y12740905D01*
X42519142Y12693286D01*
X42566761Y12645667D01*
X42614380Y12550429D01*
X42614380Y12359953D01*
X42566761Y12264715D01*
X42519142Y12217096D01*
X42423904Y12169477D01*
X42185809Y12169477D01*
X42090571Y12217096D01*
X42042952Y12264715D01*
X41995333Y12359953D01*
X41995333Y12550429D01*
X42042952Y12645667D01*
X42090571Y12693286D01*
X42185809Y12740905D01*
X42614380Y11217096D02*
X42614380Y11788524D01*
X42614380Y11502810D02*
X41614380Y11502810D01*
X41757238Y11598048D01*
X41852476Y11693286D01*
X41900095Y11788524D01*
X65314380Y21069477D02*
X65314380Y21640905D01*
X65314380Y21355191D02*
X64314380Y21355191D01*
X64457238Y21450429D01*
X64552476Y21545667D01*
X64600095Y21640905D01*
X64647714Y20212334D02*
X65314380Y20212334D01*
X64266761Y20450429D02*
X64981047Y20688524D01*
X64981047Y20069477D01*
X59514380Y6188524D02*
X59514380Y5521858D01*
X60514380Y5950429D01*
X59514380Y5236143D02*
X59514380Y4617096D01*
X59895333Y4950429D01*
X59895333Y4807572D01*
X59942952Y4712334D01*
X59990571Y4664715D01*
X60085809Y4617096D01*
X60323904Y4617096D01*
X60419142Y4664715D01*
X60466761Y4712334D01*
X60514380Y4807572D01*
X60514380Y5093286D01*
X60466761Y5188524D01*
X60419142Y5236143D01*
X41609619Y21540905D02*
X41562000Y21493286D01*
X41514380Y21398048D01*
X41514380Y21159953D01*
X41562000Y21064715D01*
X41609619Y21017096D01*
X41704857Y20969477D01*
X41800095Y20969477D01*
X41942952Y21017096D01*
X42514380Y21588524D01*
X42514380Y20969477D01*
X41514380Y20636143D02*
X41514380Y20017096D01*
X41895333Y20350429D01*
X41895333Y20207572D01*
X41942952Y20112334D01*
X41990571Y20064715D01*
X42085809Y20017096D01*
X42323904Y20017096D01*
X42419142Y20064715D01*
X42466761Y20112334D01*
X42514380Y20207572D01*
X42514380Y20493286D01*
X42466761Y20588524D01*
X42419142Y20636143D01*
X85047714Y12364715D02*
X85714380Y12364715D01*
X84666761Y12602810D02*
X85381047Y12840905D01*
X85381047Y12221858D01*
X85047714Y11412334D02*
X85714380Y11412334D01*
X84666761Y11650429D02*
X85381047Y11888524D01*
X85381047Y11269477D01*
G04 #@! TO.C,M3*
X39312496Y95733739D02*
X39312499Y59641454D01*
X83887499Y95521377D02*
X85412501Y95521377D01*
X39800133Y96221377D02*
X83187501Y96221377D01*
X85294274Y59072370D02*
X85636709Y59414805D01*
X85636701Y95297177D02*
X85636709Y59414805D01*
X39312499Y59641454D02*
X39881588Y59072365D01*
X85412501Y95521377D02*
X85636701Y95297177D01*
X39312496Y95733739D02*
X39800133Y96221377D01*
X39881588Y59072365D02*
X85294274Y59072370D01*
X83187501Y96221377D02*
X83887499Y95521377D01*
D17*
G04 #@! TO.C,G5*
X148844000Y84226000D02*
X155956000Y84226000D01*
X155956000Y84226000D02*
X155956000Y72034000D01*
X155956000Y72034000D02*
X148844000Y72034000D01*
X148844000Y72034000D02*
X148844000Y84226000D01*
D12*
G04 #@! TO.C,M1*
X50812499Y97350460D02*
X50812499Y104243337D01*
X39968705Y97356663D02*
X50812499Y97356663D01*
X39637499Y104204490D02*
X50812499Y104243337D01*
X39637499Y98506668D02*
X39637499Y104204490D01*
X39912503Y97406663D02*
X39968705Y97356663D01*
X39912503Y97406663D02*
X39912503Y98231662D01*
X39637499Y98506668D02*
X39912503Y98231662D01*
G04 #@! TO.C,M7*
X32867386Y96714204D02*
X32867386Y97312913D01*
X34367769Y83639585D02*
X34617388Y83889203D01*
X27129036Y97312913D02*
X32867386Y97312913D01*
X32867386Y96714204D02*
X33617387Y95964203D01*
X26767388Y83889584D02*
X26767388Y96951265D01*
X26767388Y83889584D02*
X27017388Y83639585D01*
X26767388Y96951265D02*
X27129036Y97312913D01*
X33617387Y95964203D02*
X34617388Y95964203D01*
X34617388Y83889203D02*
X34617388Y95964203D01*
X27017388Y83639585D02*
X34367769Y83639585D01*
G04 #@! TO.C,M4*
X39412501Y57821375D02*
X39812506Y58221380D01*
X70212499Y44671371D02*
X70212499Y57721377D01*
X69712499Y58221377D02*
X70212499Y57721377D01*
X39412501Y45296374D02*
X39412501Y57821375D01*
X39412501Y45296374D02*
X40962501Y43746374D01*
X69287501Y43746374D02*
X70212499Y44671371D01*
X40962501Y43746374D02*
X69292499Y43746374D01*
X39812506Y58221380D02*
X69712499Y58221377D01*
G04 #@! TO.C,M6*
X122868575Y44118245D02*
X123251546Y44501216D01*
X123251546Y44501216D02*
X123251546Y86476215D01*
X95141000Y60490671D02*
X95276545Y60626216D01*
X122776546Y86951215D02*
X123251546Y86476215D01*
X95276545Y85376215D02*
X96851546Y86951215D01*
X95141000Y44361760D02*
X95384515Y44118245D01*
X96851546Y86951215D02*
X122776546Y86951215D01*
X95384515Y44118245D02*
X122868575Y44118245D01*
X95141000Y44361760D02*
X95141000Y60490671D01*
X95276545Y60626216D02*
X95276545Y85376215D01*
D17*
G04 #@! TO.C,G2*
X148844000Y97536000D02*
X155956000Y97536000D01*
X155956000Y97536000D02*
X155956000Y85344000D01*
X155956000Y85344000D02*
X148844000Y85344000D01*
X148844000Y85344000D02*
X148844000Y97536000D01*
D12*
G04 #@! TO.C,M5*
X34437525Y50626574D02*
X33712525Y51351574D01*
X33712525Y51351574D02*
X33712525Y56951578D01*
X38012524Y43876575D02*
X38012524Y62151575D01*
X33712525Y56951578D02*
X34437525Y57676578D01*
X34437525Y57676578D02*
X34437525Y62151575D01*
X38012524Y62151575D02*
X34437525Y62151575D01*
X38012524Y43876575D02*
X34437525Y43876575D01*
X34437525Y43876575D02*
X34437525Y50626574D01*
G04 #@! TO.C,M9*
X32045000Y26955000D02*
X17145000Y26955000D01*
X17145000Y26955000D02*
X17145000Y66105000D01*
X17145000Y66105000D02*
X32045000Y66105000D01*
X32045000Y66105000D02*
X32045000Y26955000D01*
G04 #@! TO.C,M10*
X31625003Y73774995D02*
X31625003Y68077173D01*
X31349999Y74875000D02*
X31349999Y74050001D01*
X20450003Y74931203D02*
X20450003Y68038326D01*
X31293797Y74925000D02*
X20450003Y74925000D01*
X31625003Y68077173D02*
X20450003Y68038326D01*
X31349999Y74875000D02*
X31293797Y74925000D01*
X31625003Y73774995D02*
X31349999Y74050001D01*
D17*
G04 #@! TO.C,G3*
X145916000Y93424000D02*
X138804000Y93424000D01*
X138804000Y93424000D02*
X138804000Y105616000D01*
X138804000Y105616000D02*
X145916000Y105616000D01*
X145916000Y105616000D02*
X145916000Y93424000D01*
D12*
G04 #@! TO.C,M12*
X71637000Y57567000D02*
X71637000Y45817000D01*
X71637000Y45817000D02*
X76537000Y45817000D01*
X71637000Y57567000D02*
X76537000Y57567000D01*
X76637000Y57567000D02*
X76637000Y45817000D01*
D17*
G04 #@! TO.C,G1*
X148844000Y70816000D02*
X155956000Y70816000D01*
X155956000Y70816000D02*
X155956000Y58624000D01*
X155956000Y58624000D02*
X148844000Y58624000D01*
X148844000Y58624000D02*
X148844000Y70816000D01*
D12*
G04 #@! TO.C,M2*
X88187500Y98999820D02*
X127612498Y98925342D01*
X126437500Y92350001D02*
X126962492Y92350001D01*
X118962503Y97475005D02*
X121587504Y97475005D01*
X126962492Y92350001D02*
X127612498Y93000007D01*
X125837498Y91750000D02*
X126437500Y92350001D01*
X88187500Y91750000D02*
X125837498Y91750000D01*
X88187500Y91750000D02*
X88187500Y98999820D01*
X127612498Y93000007D02*
X127612498Y98925342D01*
G04 #@! TO.C,M8*
X84565983Y42812111D02*
X93640984Y42812111D01*
X77465985Y58337112D02*
X93640984Y58337112D01*
X77465985Y49162109D02*
X77591019Y49037075D01*
X83490984Y43887110D02*
X84565983Y42812111D01*
X82741021Y49037075D02*
X83490984Y48287112D01*
X77591019Y49037075D02*
X82741021Y49037075D01*
X83490984Y43887110D02*
X83490984Y48287112D01*
X77465985Y49162109D02*
X77465985Y58337112D01*
X93640984Y42812111D02*
X93640984Y58337112D01*
D17*
G04 #@! TO.C,J6*
X14862000Y73079000D02*
G75*
G03*
X14862000Y73079000I-1200000J0D01*
G01*
G04 #@! TD*
M02*
