G04 #@! TF.GenerationSoftware,KiCad,Pcbnew,(5.99.0-12439-g94954386e6)*
G04 #@! TF.CreationDate,2021-10-12T01:17:31+03:00*
G04 #@! TF.ProjectId,hellen121vag,68656c6c-656e-4313-9231-7661672e6b69,b*
G04 #@! TF.SameCoordinates,PX2b953a0PY6943058*
G04 #@! TF.FileFunction,Soldermask,Bot*
G04 #@! TF.FilePolarity,Negative*
%FSLAX46Y46*%
G04 Gerber Fmt 4.6, Leading zero omitted, Abs format (unit mm)*
G04 Created by KiCad (PCBNEW (5.99.0-12439-g94954386e6)) date 2021-10-12 01:17:31*
%MOMM*%
%LPD*%
G01*
G04 APERTURE LIST*
%ADD10C,3.700000*%
%ADD11C,2.200000*%
%ADD12C,2.600000*%
%ADD13C,1.500000*%
%ADD14C,1.700000*%
%ADD15C,0.599999*%
%ADD16O,1.000001X1.500000*%
%ADD17O,11.400000X1.100000*%
%ADD18O,0.399999X0.599999*%
%ADD19O,0.599999X0.800001*%
%ADD20O,0.599999X0.399999*%
%ADD21O,0.800001X0.599999*%
%ADD22O,0.399999X0.200000*%
%ADD23C,1.524000*%
%ADD24R,1.700000X1.700000*%
%ADD25O,1.700000X1.700000*%
%ADD26C,0.600000*%
%ADD27R,1.100000X1.100000*%
%ADD28C,1.100000*%
%ADD29O,1.100000X2.400000*%
%ADD30C,2.000000*%
G04 APERTURE END LIST*
D10*
G04 #@! TO.C,P1*
X145348000Y5492000D03*
X18648000Y5492000D03*
X93148000Y5492000D03*
D11*
X142898000Y13292000D03*
X21098000Y13292000D03*
D12*
X25748000Y10492000D03*
X31548000Y10492000D03*
X28648000Y12822000D03*
X25748000Y18622000D03*
X31548000Y18622000D03*
D13*
X85168000Y18622000D03*
X82628000Y18622000D03*
X80088000Y18622000D03*
X77548000Y18622000D03*
X75008000Y18622000D03*
X72468000Y18622000D03*
X69928000Y18622000D03*
X67388000Y18622000D03*
X64848000Y18622000D03*
X62308000Y18622000D03*
X59768000Y18622000D03*
X57228000Y18622000D03*
X54688000Y18622000D03*
X52148000Y18622000D03*
X49608000Y18622000D03*
X47068000Y18622000D03*
X44528000Y18622000D03*
X41988000Y18622000D03*
X39448000Y18622000D03*
X85168000Y16082000D03*
X82628000Y16082000D03*
X80088000Y16082000D03*
X77548000Y16082000D03*
X75008000Y16082000D03*
X72468000Y16082000D03*
X69928000Y16082000D03*
X67388000Y16082000D03*
X64848000Y16082000D03*
X62308000Y16082000D03*
X59768000Y16082000D03*
X57228000Y16082000D03*
X54688000Y16082000D03*
X52148000Y16082000D03*
X49608000Y16082000D03*
X47068000Y16082000D03*
X44528000Y16082000D03*
X41988000Y16082000D03*
X39448000Y16082000D03*
X85168000Y10032000D03*
X82628000Y10032000D03*
X80088000Y10032000D03*
X77548000Y10032000D03*
X75008000Y10032000D03*
X72468000Y10032000D03*
X69928000Y10032000D03*
X67388000Y10032000D03*
X64848000Y10032000D03*
X62308000Y10032000D03*
X59768000Y10032000D03*
X57228000Y10032000D03*
X54688000Y10032000D03*
X52148000Y10032000D03*
X49608000Y10032000D03*
X47068000Y10032000D03*
X44528000Y10032000D03*
X41988000Y10032000D03*
X39448000Y10032000D03*
X85168000Y7492000D03*
X82628000Y7492000D03*
X80088000Y7492000D03*
X77548000Y7492000D03*
X75008000Y7492000D03*
X72468000Y7492000D03*
X69928000Y7492000D03*
X67388000Y7492000D03*
X64848000Y7492000D03*
X62308000Y7492000D03*
X59768000Y7492000D03*
X57228000Y7492000D03*
X54688000Y7492000D03*
X52148000Y7492000D03*
X49608000Y7492000D03*
X47068000Y7492000D03*
X44528000Y7492000D03*
X41988000Y7492000D03*
X39448000Y7492000D03*
X101138000Y7492000D03*
X103678000Y7492000D03*
X106218000Y7492000D03*
X108758000Y7492000D03*
X111298000Y7492000D03*
X113838000Y7492000D03*
X116378000Y7492000D03*
X118918000Y7492000D03*
X101138000Y10032000D03*
X103678000Y10032000D03*
X106218000Y10032000D03*
X108758000Y10032000D03*
X111298000Y10032000D03*
X113838000Y10032000D03*
X116378000Y10032000D03*
X118918000Y10032000D03*
X101138000Y16082000D03*
X103678000Y16082000D03*
X106218000Y16082000D03*
X108758000Y16082000D03*
X111298000Y16082000D03*
X113838000Y16082000D03*
X116378000Y16082000D03*
X118918000Y16082000D03*
X101138000Y18622000D03*
X103678000Y18622000D03*
X106218000Y18622000D03*
X108758000Y18622000D03*
X111298000Y18622000D03*
X113838000Y18622000D03*
X116378000Y18622000D03*
X118918000Y18622000D03*
D12*
X126748000Y10492000D03*
X132548000Y10492000D03*
X138448000Y10492000D03*
X129648000Y12822000D03*
X135548000Y12822000D03*
X126748000Y18622000D03*
X132548000Y18622000D03*
X138448000Y18622000D03*
G04 #@! TD*
G04 #@! TO.C,M3*
G36*
G01*
X85339497Y91171375D02*
X85089497Y91171375D01*
G75*
G02*
X84964497Y91296375I0J125000D01*
G01*
X84964497Y91296375D01*
G75*
G02*
X85089497Y91421375I125000J0D01*
G01*
X85339497Y91421375D01*
G75*
G02*
X85464497Y91296375I0J-125000D01*
G01*
X85464497Y91296375D01*
G75*
G02*
X85339497Y91171375I-125000J0D01*
G01*
G37*
G36*
G01*
X85089497Y90761377D02*
X85339497Y90761377D01*
G75*
G02*
X85464497Y90636377I0J-125000D01*
G01*
X85464497Y90636377D01*
G75*
G02*
X85339497Y90511377I-125000J0D01*
G01*
X85089497Y90511377D01*
G75*
G02*
X84964497Y90636377I0J125000D01*
G01*
X84964497Y90636377D01*
G75*
G02*
X85089497Y90761377I125000J0D01*
G01*
G37*
G36*
G01*
X85089497Y90101372D02*
X85339497Y90101372D01*
G75*
G02*
X85464497Y89976372I0J-125000D01*
G01*
X85464497Y89976372D01*
G75*
G02*
X85339497Y89851372I-125000J0D01*
G01*
X85089497Y89851372D01*
G75*
G02*
X84964497Y89976372I0J125000D01*
G01*
X84964497Y89976372D01*
G75*
G02*
X85089497Y90101372I125000J0D01*
G01*
G37*
G36*
G01*
X85089497Y89441377D02*
X85339497Y89441377D01*
G75*
G02*
X85464497Y89316377I0J-125000D01*
G01*
X85464497Y89316377D01*
G75*
G02*
X85339497Y89191377I-125000J0D01*
G01*
X85089497Y89191377D01*
G75*
G02*
X84964497Y89316377I0J125000D01*
G01*
X84964497Y89316377D01*
G75*
G02*
X85089497Y89441377I125000J0D01*
G01*
G37*
G36*
G01*
X85089497Y88781375D02*
X85339497Y88781375D01*
G75*
G02*
X85464497Y88656375I0J-125000D01*
G01*
X85464497Y88656375D01*
G75*
G02*
X85339497Y88531375I-125000J0D01*
G01*
X85089497Y88531375D01*
G75*
G02*
X84964497Y88656375I0J125000D01*
G01*
X84964497Y88656375D01*
G75*
G02*
X85089497Y88781375I125000J0D01*
G01*
G37*
G36*
G01*
X85089497Y85481374D02*
X85339497Y85481374D01*
G75*
G02*
X85464497Y85356374I0J-125000D01*
G01*
X85464497Y85356374D01*
G75*
G02*
X85339497Y85231374I-125000J0D01*
G01*
X85089497Y85231374D01*
G75*
G02*
X84964497Y85356374I0J125000D01*
G01*
X84964497Y85356374D01*
G75*
G02*
X85089497Y85481374I125000J0D01*
G01*
G37*
G36*
G01*
X85089497Y84821373D02*
X85339497Y84821373D01*
G75*
G02*
X85464497Y84696373I0J-125000D01*
G01*
X85464497Y84696373D01*
G75*
G02*
X85339497Y84571373I-125000J0D01*
G01*
X85089497Y84571373D01*
G75*
G02*
X84964497Y84696373I0J125000D01*
G01*
X84964497Y84696373D01*
G75*
G02*
X85089497Y84821373I125000J0D01*
G01*
G37*
G36*
G01*
X85089497Y84161371D02*
X85339497Y84161371D01*
G75*
G02*
X85464497Y84036371I0J-125000D01*
G01*
X85464497Y84036371D01*
G75*
G02*
X85339497Y83911371I-125000J0D01*
G01*
X85089497Y83911371D01*
G75*
G02*
X84964497Y84036371I0J125000D01*
G01*
X84964497Y84036371D01*
G75*
G02*
X85089497Y84161371I125000J0D01*
G01*
G37*
G36*
G01*
X85089497Y83501373D02*
X85339497Y83501373D01*
G75*
G02*
X85464497Y83376373I0J-125000D01*
G01*
X85464497Y83376373D01*
G75*
G02*
X85339497Y83251373I-125000J0D01*
G01*
X85089497Y83251373D01*
G75*
G02*
X84964497Y83376373I0J125000D01*
G01*
X84964497Y83376373D01*
G75*
G02*
X85089497Y83501373I125000J0D01*
G01*
G37*
G36*
G01*
X85089497Y82841371D02*
X85339497Y82841371D01*
G75*
G02*
X85464497Y82716371I0J-125000D01*
G01*
X85464497Y82716371D01*
G75*
G02*
X85339497Y82591371I-125000J0D01*
G01*
X85089497Y82591371D01*
G75*
G02*
X84964497Y82716371I0J125000D01*
G01*
X84964497Y82716371D01*
G75*
G02*
X85089497Y82841371I125000J0D01*
G01*
G37*
G36*
G01*
X85089497Y82181373D02*
X85339497Y82181373D01*
G75*
G02*
X85464497Y82056373I0J-125000D01*
G01*
X85464497Y82056373D01*
G75*
G02*
X85339497Y81931373I-125000J0D01*
G01*
X85089497Y81931373D01*
G75*
G02*
X84964497Y82056373I0J125000D01*
G01*
X84964497Y82056373D01*
G75*
G02*
X85089497Y82181373I125000J0D01*
G01*
G37*
G36*
G01*
X85089497Y81521372D02*
X85339497Y81521372D01*
G75*
G02*
X85464497Y81396372I0J-125000D01*
G01*
X85464497Y81396372D01*
G75*
G02*
X85339497Y81271372I-125000J0D01*
G01*
X85089497Y81271372D01*
G75*
G02*
X84964497Y81396372I0J125000D01*
G01*
X84964497Y81396372D01*
G75*
G02*
X85089497Y81521372I125000J0D01*
G01*
G37*
G36*
G01*
X85089497Y80861373D02*
X85339497Y80861373D01*
G75*
G02*
X85464497Y80736373I0J-125000D01*
G01*
X85464497Y80736373D01*
G75*
G02*
X85339497Y80611373I-125000J0D01*
G01*
X85089497Y80611373D01*
G75*
G02*
X84964497Y80736373I0J125000D01*
G01*
X84964497Y80736373D01*
G75*
G02*
X85089497Y80861373I125000J0D01*
G01*
G37*
G36*
G01*
X85089497Y80201372D02*
X85339497Y80201372D01*
G75*
G02*
X85464497Y80076372I0J-125000D01*
G01*
X85464497Y80076372D01*
G75*
G02*
X85339497Y79951372I-125000J0D01*
G01*
X85089497Y79951372D01*
G75*
G02*
X84964497Y80076372I0J125000D01*
G01*
X84964497Y80076372D01*
G75*
G02*
X85089497Y80201372I125000J0D01*
G01*
G37*
G36*
G01*
X85089497Y79541373D02*
X85339497Y79541373D01*
G75*
G02*
X85464497Y79416373I0J-125000D01*
G01*
X85464497Y79416373D01*
G75*
G02*
X85339497Y79291373I-125000J0D01*
G01*
X85089497Y79291373D01*
G75*
G02*
X84964497Y79416373I0J125000D01*
G01*
X84964497Y79416373D01*
G75*
G02*
X85089497Y79541373I125000J0D01*
G01*
G37*
G36*
G01*
X85089497Y78881372D02*
X85339497Y78881372D01*
G75*
G02*
X85464497Y78756372I0J-125000D01*
G01*
X85464497Y78756372D01*
G75*
G02*
X85339497Y78631372I-125000J0D01*
G01*
X85089497Y78631372D01*
G75*
G02*
X84964497Y78756372I0J125000D01*
G01*
X84964497Y78756372D01*
G75*
G02*
X85089497Y78881372I125000J0D01*
G01*
G37*
G36*
G01*
X85089497Y78221373D02*
X85339497Y78221373D01*
G75*
G02*
X85464497Y78096373I0J-125000D01*
G01*
X85464497Y78096373D01*
G75*
G02*
X85339497Y77971373I-125000J0D01*
G01*
X85089497Y77971373D01*
G75*
G02*
X84964497Y78096373I0J125000D01*
G01*
X84964497Y78096373D01*
G75*
G02*
X85089497Y78221373I125000J0D01*
G01*
G37*
G36*
G01*
X85089497Y77561372D02*
X85339497Y77561372D01*
G75*
G02*
X85464497Y77436372I0J-125000D01*
G01*
X85464497Y77436372D01*
G75*
G02*
X85339497Y77311372I-125000J0D01*
G01*
X85089497Y77311372D01*
G75*
G02*
X84964497Y77436372I0J125000D01*
G01*
X84964497Y77436372D01*
G75*
G02*
X85089497Y77561372I125000J0D01*
G01*
G37*
G36*
G01*
X85089497Y76901373D02*
X85339497Y76901373D01*
G75*
G02*
X85464497Y76776373I0J-125000D01*
G01*
X85464497Y76776373D01*
G75*
G02*
X85339497Y76651373I-125000J0D01*
G01*
X85089497Y76651373D01*
G75*
G02*
X84964497Y76776373I0J125000D01*
G01*
X84964497Y76776373D01*
G75*
G02*
X85089497Y76901373I125000J0D01*
G01*
G37*
G36*
G01*
X85089497Y76241372D02*
X85339497Y76241372D01*
G75*
G02*
X85464497Y76116372I0J-125000D01*
G01*
X85464497Y76116372D01*
G75*
G02*
X85339497Y75991372I-125000J0D01*
G01*
X85089497Y75991372D01*
G75*
G02*
X84964497Y76116372I0J125000D01*
G01*
X84964497Y76116372D01*
G75*
G02*
X85089497Y76241372I125000J0D01*
G01*
G37*
G36*
G01*
X85089497Y75581373D02*
X85339497Y75581373D01*
G75*
G02*
X85464497Y75456373I0J-125000D01*
G01*
X85464497Y75456373D01*
G75*
G02*
X85339497Y75331373I-125000J0D01*
G01*
X85089497Y75331373D01*
G75*
G02*
X84964497Y75456373I0J125000D01*
G01*
X84964497Y75456373D01*
G75*
G02*
X85089497Y75581373I125000J0D01*
G01*
G37*
G36*
G01*
X85089497Y74921372D02*
X85339497Y74921372D01*
G75*
G02*
X85464497Y74796372I0J-125000D01*
G01*
X85464497Y74796372D01*
G75*
G02*
X85339497Y74671372I-125000J0D01*
G01*
X85089497Y74671372D01*
G75*
G02*
X84964497Y74796372I0J125000D01*
G01*
X84964497Y74796372D01*
G75*
G02*
X85089497Y74921372I125000J0D01*
G01*
G37*
G36*
G01*
X85089497Y74261373D02*
X85339497Y74261373D01*
G75*
G02*
X85464497Y74136373I0J-125000D01*
G01*
X85464497Y74136373D01*
G75*
G02*
X85339497Y74011373I-125000J0D01*
G01*
X85089497Y74011373D01*
G75*
G02*
X84964497Y74136373I0J125000D01*
G01*
X84964497Y74136373D01*
G75*
G02*
X85089497Y74261373I125000J0D01*
G01*
G37*
G36*
G01*
X85089497Y73601372D02*
X85339497Y73601372D01*
G75*
G02*
X85464497Y73476372I0J-125000D01*
G01*
X85464497Y73476372D01*
G75*
G02*
X85339497Y73351372I-125000J0D01*
G01*
X85089497Y73351372D01*
G75*
G02*
X84964497Y73476372I0J125000D01*
G01*
X84964497Y73476372D01*
G75*
G02*
X85089497Y73601372I125000J0D01*
G01*
G37*
G36*
G01*
X85089497Y72941373D02*
X85339497Y72941373D01*
G75*
G02*
X85464497Y72816373I0J-125000D01*
G01*
X85464497Y72816373D01*
G75*
G02*
X85339497Y72691373I-125000J0D01*
G01*
X85089497Y72691373D01*
G75*
G02*
X84964497Y72816373I0J125000D01*
G01*
X84964497Y72816373D01*
G75*
G02*
X85089497Y72941373I125000J0D01*
G01*
G37*
G36*
G01*
X85089497Y72281372D02*
X85339497Y72281372D01*
G75*
G02*
X85464497Y72156372I0J-125000D01*
G01*
X85464497Y72156372D01*
G75*
G02*
X85339497Y72031372I-125000J0D01*
G01*
X85089497Y72031372D01*
G75*
G02*
X84964497Y72156372I0J125000D01*
G01*
X84964497Y72156372D01*
G75*
G02*
X85089497Y72281372I125000J0D01*
G01*
G37*
G36*
G01*
X85089497Y71621374D02*
X85339497Y71621374D01*
G75*
G02*
X85464497Y71496374I0J-125000D01*
G01*
X85464497Y71496374D01*
G75*
G02*
X85339497Y71371374I-125000J0D01*
G01*
X85089497Y71371374D01*
G75*
G02*
X84964497Y71496374I0J125000D01*
G01*
X84964497Y71496374D01*
G75*
G02*
X85089497Y71621374I125000J0D01*
G01*
G37*
G36*
G01*
X85089497Y70961372D02*
X85339497Y70961372D01*
G75*
G02*
X85464497Y70836372I0J-125000D01*
G01*
X85464497Y70836372D01*
G75*
G02*
X85339497Y70711372I-125000J0D01*
G01*
X85089497Y70711372D01*
G75*
G02*
X84964497Y70836372I0J125000D01*
G01*
X84964497Y70836372D01*
G75*
G02*
X85089497Y70961372I125000J0D01*
G01*
G37*
G36*
G01*
X85089497Y70301374D02*
X85339497Y70301374D01*
G75*
G02*
X85464497Y70176374I0J-125000D01*
G01*
X85464497Y70176374D01*
G75*
G02*
X85339497Y70051374I-125000J0D01*
G01*
X85089497Y70051374D01*
G75*
G02*
X84964497Y70176374I0J125000D01*
G01*
X84964497Y70176374D01*
G75*
G02*
X85089497Y70301374I125000J0D01*
G01*
G37*
G36*
G01*
X85089497Y69641372D02*
X85339497Y69641372D01*
G75*
G02*
X85464497Y69516372I0J-125000D01*
G01*
X85464497Y69516372D01*
G75*
G02*
X85339497Y69391372I-125000J0D01*
G01*
X85089497Y69391372D01*
G75*
G02*
X84964497Y69516372I0J125000D01*
G01*
X84964497Y69516372D01*
G75*
G02*
X85089497Y69641372I125000J0D01*
G01*
G37*
G36*
G01*
X85089497Y68981374D02*
X85339497Y68981374D01*
G75*
G02*
X85464497Y68856374I0J-125000D01*
G01*
X85464497Y68856374D01*
G75*
G02*
X85339497Y68731374I-125000J0D01*
G01*
X85089497Y68731374D01*
G75*
G02*
X84964497Y68856374I0J125000D01*
G01*
X84964497Y68856374D01*
G75*
G02*
X85089497Y68981374I125000J0D01*
G01*
G37*
G36*
G01*
X85089497Y68321373D02*
X85339497Y68321373D01*
G75*
G02*
X85464497Y68196373I0J-125000D01*
G01*
X85464497Y68196373D01*
G75*
G02*
X85339497Y68071373I-125000J0D01*
G01*
X85089497Y68071373D01*
G75*
G02*
X84964497Y68196373I0J125000D01*
G01*
X84964497Y68196373D01*
G75*
G02*
X85089497Y68321373I125000J0D01*
G01*
G37*
G36*
G01*
X85089497Y67661374D02*
X85339497Y67661374D01*
G75*
G02*
X85464497Y67536374I0J-125000D01*
G01*
X85464497Y67536374D01*
G75*
G02*
X85339497Y67411374I-125000J0D01*
G01*
X85089497Y67411374D01*
G75*
G02*
X84964497Y67536374I0J125000D01*
G01*
X84964497Y67536374D01*
G75*
G02*
X85089497Y67661374I125000J0D01*
G01*
G37*
G36*
G01*
X85089497Y67001373D02*
X85339497Y67001373D01*
G75*
G02*
X85464497Y66876373I0J-125000D01*
G01*
X85464497Y66876373D01*
G75*
G02*
X85339497Y66751373I-125000J0D01*
G01*
X85089497Y66751373D01*
G75*
G02*
X84964497Y66876373I0J125000D01*
G01*
X84964497Y66876373D01*
G75*
G02*
X85089497Y67001373I125000J0D01*
G01*
G37*
G36*
G01*
X51392499Y95548377D02*
X51392499Y95298377D01*
G75*
G02*
X51267499Y95173377I-125000J0D01*
G01*
X51267499Y95173377D01*
G75*
G02*
X51142499Y95298377I0J125000D01*
G01*
X51142499Y95548377D01*
G75*
G02*
X51267499Y95673377I125000J0D01*
G01*
X51267499Y95673377D01*
G75*
G02*
X51392499Y95548377I0J-125000D01*
G01*
G37*
G36*
G01*
X52462501Y95298377D02*
X52462501Y95548377D01*
G75*
G02*
X52587501Y95673377I125000J0D01*
G01*
X52587501Y95673377D01*
G75*
G02*
X52712501Y95548377I0J-125000D01*
G01*
X52712501Y95298377D01*
G75*
G02*
X52587501Y95173377I-125000J0D01*
G01*
X52587501Y95173377D01*
G75*
G02*
X52462501Y95298377I0J125000D01*
G01*
G37*
G36*
G01*
X53782504Y95298377D02*
X53782504Y95548377D01*
G75*
G02*
X53907504Y95673377I125000J0D01*
G01*
X53907504Y95673377D01*
G75*
G02*
X54032504Y95548377I0J-125000D01*
G01*
X54032504Y95298377D01*
G75*
G02*
X53907504Y95173377I-125000J0D01*
G01*
X53907504Y95173377D01*
G75*
G02*
X53782504Y95298377I0J125000D01*
G01*
G37*
G36*
G01*
X54542502Y95298377D02*
X54542502Y95548377D01*
G75*
G02*
X54667502Y95673377I125000J0D01*
G01*
X54667502Y95673377D01*
G75*
G02*
X54792502Y95548377I0J-125000D01*
G01*
X54792502Y95298377D01*
G75*
G02*
X54667502Y95173377I-125000J0D01*
G01*
X54667502Y95173377D01*
G75*
G02*
X54542502Y95298377I0J125000D01*
G01*
G37*
G36*
G01*
X55207505Y95298377D02*
X55207505Y95548377D01*
G75*
G02*
X55332505Y95673377I125000J0D01*
G01*
X55332505Y95673377D01*
G75*
G02*
X55457505Y95548377I0J-125000D01*
G01*
X55457505Y95298377D01*
G75*
G02*
X55332505Y95173377I-125000J0D01*
G01*
X55332505Y95173377D01*
G75*
G02*
X55207505Y95298377I0J125000D01*
G01*
G37*
G36*
G01*
X55872507Y95298377D02*
X55872507Y95548377D01*
G75*
G02*
X55997507Y95673377I125000J0D01*
G01*
X55997507Y95673377D01*
G75*
G02*
X56122507Y95548377I0J-125000D01*
G01*
X56122507Y95298377D01*
G75*
G02*
X55997507Y95173377I-125000J0D01*
G01*
X55997507Y95173377D01*
G75*
G02*
X55872507Y95298377I0J125000D01*
G01*
G37*
G36*
G01*
X56537497Y95298377D02*
X56537497Y95548377D01*
G75*
G02*
X56662497Y95673377I125000J0D01*
G01*
X56662497Y95673377D01*
G75*
G02*
X56787497Y95548377I0J-125000D01*
G01*
X56787497Y95298377D01*
G75*
G02*
X56662497Y95173377I-125000J0D01*
G01*
X56662497Y95173377D01*
G75*
G02*
X56537497Y95298377I0J125000D01*
G01*
G37*
G36*
G01*
X57312497Y95298377D02*
X57312497Y95548377D01*
G75*
G02*
X57437497Y95673377I125000J0D01*
G01*
X57437497Y95673377D01*
G75*
G02*
X57562497Y95548377I0J-125000D01*
G01*
X57562497Y95298377D01*
G75*
G02*
X57437497Y95173377I-125000J0D01*
G01*
X57437497Y95173377D01*
G75*
G02*
X57312497Y95298377I0J125000D01*
G01*
G37*
G36*
G01*
X58412495Y95298377D02*
X58412495Y95548377D01*
G75*
G02*
X58537495Y95673377I125000J0D01*
G01*
X58537495Y95673377D01*
G75*
G02*
X58662495Y95548377I0J-125000D01*
G01*
X58662495Y95298377D01*
G75*
G02*
X58537495Y95173377I-125000J0D01*
G01*
X58537495Y95173377D01*
G75*
G02*
X58412495Y95298377I0J125000D01*
G01*
G37*
G36*
G01*
X59512492Y95298377D02*
X59512492Y95548377D01*
G75*
G02*
X59637492Y95673377I125000J0D01*
G01*
X59637492Y95673377D01*
G75*
G02*
X59762492Y95548377I0J-125000D01*
G01*
X59762492Y95298377D01*
G75*
G02*
X59637492Y95173377I-125000J0D01*
G01*
X59637492Y95173377D01*
G75*
G02*
X59512492Y95298377I0J125000D01*
G01*
G37*
G36*
G01*
X60612490Y95298377D02*
X60612490Y95548377D01*
G75*
G02*
X60737490Y95673377I125000J0D01*
G01*
X60737490Y95673377D01*
G75*
G02*
X60862490Y95548377I0J-125000D01*
G01*
X60862490Y95298377D01*
G75*
G02*
X60737490Y95173377I-125000J0D01*
G01*
X60737490Y95173377D01*
G75*
G02*
X60612490Y95298377I0J125000D01*
G01*
G37*
G36*
G01*
X61712488Y95298377D02*
X61712488Y95548377D01*
G75*
G02*
X61837488Y95673377I125000J0D01*
G01*
X61837488Y95673377D01*
G75*
G02*
X61962488Y95548377I0J-125000D01*
G01*
X61962488Y95298377D01*
G75*
G02*
X61837488Y95173377I-125000J0D01*
G01*
X61837488Y95173377D01*
G75*
G02*
X61712488Y95298377I0J125000D01*
G01*
G37*
G36*
G01*
X62812486Y95298377D02*
X62812486Y95548377D01*
G75*
G02*
X62937486Y95673377I125000J0D01*
G01*
X62937486Y95673377D01*
G75*
G02*
X63062486Y95548377I0J-125000D01*
G01*
X63062486Y95298377D01*
G75*
G02*
X62937486Y95173377I-125000J0D01*
G01*
X62937486Y95173377D01*
G75*
G02*
X62812486Y95298377I0J125000D01*
G01*
G37*
G36*
G01*
X63912484Y95298377D02*
X63912484Y95548377D01*
G75*
G02*
X64037484Y95673377I125000J0D01*
G01*
X64037484Y95673377D01*
G75*
G02*
X64162484Y95548377I0J-125000D01*
G01*
X64162484Y95298377D01*
G75*
G02*
X64037484Y95173377I-125000J0D01*
G01*
X64037484Y95173377D01*
G75*
G02*
X63912484Y95298377I0J125000D01*
G01*
G37*
G36*
G01*
X65012481Y95298377D02*
X65012481Y95548377D01*
G75*
G02*
X65137481Y95673377I125000J0D01*
G01*
X65137481Y95673377D01*
G75*
G02*
X65262481Y95548377I0J-125000D01*
G01*
X65262481Y95298377D01*
G75*
G02*
X65137481Y95173377I-125000J0D01*
G01*
X65137481Y95173377D01*
G75*
G02*
X65012481Y95298377I0J125000D01*
G01*
G37*
G36*
G01*
X66112479Y95298377D02*
X66112479Y95548377D01*
G75*
G02*
X66237479Y95673377I125000J0D01*
G01*
X66237479Y95673377D01*
G75*
G02*
X66362479Y95548377I0J-125000D01*
G01*
X66362479Y95298377D01*
G75*
G02*
X66237479Y95173377I-125000J0D01*
G01*
X66237479Y95173377D01*
G75*
G02*
X66112479Y95298377I0J125000D01*
G01*
G37*
G36*
G01*
X67212477Y95298377D02*
X67212477Y95548377D01*
G75*
G02*
X67337477Y95673377I125000J0D01*
G01*
X67337477Y95673377D01*
G75*
G02*
X67462477Y95548377I0J-125000D01*
G01*
X67462477Y95298377D01*
G75*
G02*
X67337477Y95173377I-125000J0D01*
G01*
X67337477Y95173377D01*
G75*
G02*
X67212477Y95298377I0J125000D01*
G01*
G37*
G36*
G01*
X68312475Y95298377D02*
X68312475Y95548377D01*
G75*
G02*
X68437475Y95673377I125000J0D01*
G01*
X68437475Y95673377D01*
G75*
G02*
X68562475Y95548377I0J-125000D01*
G01*
X68562475Y95298377D01*
G75*
G02*
X68437475Y95173377I-125000J0D01*
G01*
X68437475Y95173377D01*
G75*
G02*
X68312475Y95298377I0J125000D01*
G01*
G37*
G36*
G01*
X69412473Y95298377D02*
X69412473Y95548377D01*
G75*
G02*
X69537473Y95673377I125000J0D01*
G01*
X69537473Y95673377D01*
G75*
G02*
X69662473Y95548377I0J-125000D01*
G01*
X69662473Y95298377D01*
G75*
G02*
X69537473Y95173377I-125000J0D01*
G01*
X69537473Y95173377D01*
G75*
G02*
X69412473Y95298377I0J125000D01*
G01*
G37*
G36*
G01*
X70512470Y95298377D02*
X70512470Y95548377D01*
G75*
G02*
X70637470Y95673377I125000J0D01*
G01*
X70637470Y95673377D01*
G75*
G02*
X70762470Y95548377I0J-125000D01*
G01*
X70762470Y95298377D01*
G75*
G02*
X70637470Y95173377I-125000J0D01*
G01*
X70637470Y95173377D01*
G75*
G02*
X70512470Y95298377I0J125000D01*
G01*
G37*
G36*
G01*
X71612468Y95298377D02*
X71612468Y95548377D01*
G75*
G02*
X71737468Y95673377I125000J0D01*
G01*
X71737468Y95673377D01*
G75*
G02*
X71862468Y95548377I0J-125000D01*
G01*
X71862468Y95298377D01*
G75*
G02*
X71737468Y95173377I-125000J0D01*
G01*
X71737468Y95173377D01*
G75*
G02*
X71612468Y95298377I0J125000D01*
G01*
G37*
G36*
G01*
X72712466Y95298377D02*
X72712466Y95548377D01*
G75*
G02*
X72837466Y95673377I125000J0D01*
G01*
X72837466Y95673377D01*
G75*
G02*
X72962466Y95548377I0J-125000D01*
G01*
X72962466Y95298377D01*
G75*
G02*
X72837466Y95173377I-125000J0D01*
G01*
X72837466Y95173377D01*
G75*
G02*
X72712466Y95298377I0J125000D01*
G01*
G37*
G36*
G01*
X73812464Y95298377D02*
X73812464Y95548377D01*
G75*
G02*
X73937464Y95673377I125000J0D01*
G01*
X73937464Y95673377D01*
G75*
G02*
X74062464Y95548377I0J-125000D01*
G01*
X74062464Y95298377D01*
G75*
G02*
X73937464Y95173377I-125000J0D01*
G01*
X73937464Y95173377D01*
G75*
G02*
X73812464Y95298377I0J125000D01*
G01*
G37*
G36*
G01*
X74912462Y95298377D02*
X74912462Y95548377D01*
G75*
G02*
X75037462Y95673377I125000J0D01*
G01*
X75037462Y95673377D01*
G75*
G02*
X75162462Y95548377I0J-125000D01*
G01*
X75162462Y95298377D01*
G75*
G02*
X75037462Y95173377I-125000J0D01*
G01*
X75037462Y95173377D01*
G75*
G02*
X74912462Y95298377I0J125000D01*
G01*
G37*
G36*
G01*
X76012459Y95298377D02*
X76012459Y95548377D01*
G75*
G02*
X76137459Y95673377I125000J0D01*
G01*
X76137459Y95673377D01*
G75*
G02*
X76262459Y95548377I0J-125000D01*
G01*
X76262459Y95298377D01*
G75*
G02*
X76137459Y95173377I-125000J0D01*
G01*
X76137459Y95173377D01*
G75*
G02*
X76012459Y95298377I0J125000D01*
G01*
G37*
G36*
G01*
X77112457Y95298377D02*
X77112457Y95548377D01*
G75*
G02*
X77237457Y95673377I125000J0D01*
G01*
X77237457Y95673377D01*
G75*
G02*
X77362457Y95548377I0J-125000D01*
G01*
X77362457Y95298377D01*
G75*
G02*
X77237457Y95173377I-125000J0D01*
G01*
X77237457Y95173377D01*
G75*
G02*
X77112457Y95298377I0J125000D01*
G01*
G37*
G36*
G01*
X78212455Y95298377D02*
X78212455Y95548377D01*
G75*
G02*
X78337455Y95673377I125000J0D01*
G01*
X78337455Y95673377D01*
G75*
G02*
X78462455Y95548377I0J-125000D01*
G01*
X78462455Y95298377D01*
G75*
G02*
X78337455Y95173377I-125000J0D01*
G01*
X78337455Y95173377D01*
G75*
G02*
X78212455Y95298377I0J125000D01*
G01*
G37*
G36*
G01*
X79312453Y95298377D02*
X79312453Y95548377D01*
G75*
G02*
X79437453Y95673377I125000J0D01*
G01*
X79437453Y95673377D01*
G75*
G02*
X79562453Y95548377I0J-125000D01*
G01*
X79562453Y95298377D01*
G75*
G02*
X79437453Y95173377I-125000J0D01*
G01*
X79437453Y95173377D01*
G75*
G02*
X79312453Y95298377I0J125000D01*
G01*
G37*
G36*
G01*
X80412451Y95298377D02*
X80412451Y95548377D01*
G75*
G02*
X80537451Y95673377I125000J0D01*
G01*
X80537451Y95673377D01*
G75*
G02*
X80662451Y95548377I0J-125000D01*
G01*
X80662451Y95298377D01*
G75*
G02*
X80537451Y95173377I-125000J0D01*
G01*
X80537451Y95173377D01*
G75*
G02*
X80412451Y95298377I0J125000D01*
G01*
G37*
G36*
G01*
X81512448Y95298377D02*
X81512448Y95548377D01*
G75*
G02*
X81637448Y95673377I125000J0D01*
G01*
X81637448Y95673377D01*
G75*
G02*
X81762448Y95548377I0J-125000D01*
G01*
X81762448Y95298377D01*
G75*
G02*
X81637448Y95173377I-125000J0D01*
G01*
X81637448Y95173377D01*
G75*
G02*
X81512448Y95298377I0J125000D01*
G01*
G37*
G36*
G01*
X82612446Y95298377D02*
X82612446Y95548377D01*
G75*
G02*
X82737446Y95673377I125000J0D01*
G01*
X82737446Y95673377D01*
G75*
G02*
X82862446Y95548377I0J-125000D01*
G01*
X82862446Y95298377D01*
G75*
G02*
X82737446Y95173377I-125000J0D01*
G01*
X82737446Y95173377D01*
G75*
G02*
X82612446Y95298377I0J125000D01*
G01*
G37*
G36*
G01*
X83712444Y95298377D02*
X83712444Y95548377D01*
G75*
G02*
X83837444Y95673377I125000J0D01*
G01*
X83837444Y95673377D01*
G75*
G02*
X83962444Y95548377I0J-125000D01*
G01*
X83962444Y95298377D01*
G75*
G02*
X83837444Y95173377I-125000J0D01*
G01*
X83837444Y95173377D01*
G75*
G02*
X83712444Y95298377I0J125000D01*
G01*
G37*
G36*
G01*
X76712501Y59369377D02*
X76712501Y59619377D01*
G75*
G02*
X76837501Y59744377I125000J0D01*
G01*
X76837501Y59744377D01*
G75*
G02*
X76962501Y59619377I0J-125000D01*
G01*
X76962501Y59369377D01*
G75*
G02*
X76837501Y59244377I-125000J0D01*
G01*
X76837501Y59244377D01*
G75*
G02*
X76712501Y59369377I0J125000D01*
G01*
G37*
G36*
G01*
X75642499Y59619377D02*
X75642499Y59369377D01*
G75*
G02*
X75517499Y59244377I-125000J0D01*
G01*
X75517499Y59244377D01*
G75*
G02*
X75392499Y59369377I0J125000D01*
G01*
X75392499Y59619377D01*
G75*
G02*
X75517499Y59744377I125000J0D01*
G01*
X75517499Y59744377D01*
G75*
G02*
X75642499Y59619377I0J-125000D01*
G01*
G37*
G36*
G01*
X74322496Y59619377D02*
X74322496Y59369377D01*
G75*
G02*
X74197496Y59244377I-125000J0D01*
G01*
X74197496Y59244377D01*
G75*
G02*
X74072496Y59369377I0J125000D01*
G01*
X74072496Y59619377D01*
G75*
G02*
X74197496Y59744377I125000J0D01*
G01*
X74197496Y59744377D01*
G75*
G02*
X74322496Y59619377I0J-125000D01*
G01*
G37*
G36*
G01*
X73222499Y59619377D02*
X73222499Y59369377D01*
G75*
G02*
X73097499Y59244377I-125000J0D01*
G01*
X73097499Y59244377D01*
G75*
G02*
X72972499Y59369377I0J125000D01*
G01*
X72972499Y59619377D01*
G75*
G02*
X73097499Y59744377I125000J0D01*
G01*
X73097499Y59744377D01*
G75*
G02*
X73222499Y59619377I0J-125000D01*
G01*
G37*
G36*
G01*
X72122501Y59619377D02*
X72122501Y59369377D01*
G75*
G02*
X71997501Y59244377I-125000J0D01*
G01*
X71997501Y59244377D01*
G75*
G02*
X71872501Y59369377I0J125000D01*
G01*
X71872501Y59619377D01*
G75*
G02*
X71997501Y59744377I125000J0D01*
G01*
X71997501Y59744377D01*
G75*
G02*
X72122501Y59619377I0J-125000D01*
G01*
G37*
G36*
G01*
X71022503Y59619377D02*
X71022503Y59369377D01*
G75*
G02*
X70897503Y59244377I-125000J0D01*
G01*
X70897503Y59244377D01*
G75*
G02*
X70772503Y59369377I0J125000D01*
G01*
X70772503Y59619377D01*
G75*
G02*
X70897503Y59744377I125000J0D01*
G01*
X70897503Y59744377D01*
G75*
G02*
X71022503Y59619377I0J-125000D01*
G01*
G37*
G36*
G01*
X69922505Y59619377D02*
X69922505Y59369377D01*
G75*
G02*
X69797505Y59244377I-125000J0D01*
G01*
X69797505Y59244377D01*
G75*
G02*
X69672505Y59369377I0J125000D01*
G01*
X69672505Y59619377D01*
G75*
G02*
X69797505Y59744377I125000J0D01*
G01*
X69797505Y59744377D01*
G75*
G02*
X69922505Y59619377I0J-125000D01*
G01*
G37*
G36*
G01*
X68822507Y59619377D02*
X68822507Y59369377D01*
G75*
G02*
X68697507Y59244377I-125000J0D01*
G01*
X68697507Y59244377D01*
G75*
G02*
X68572507Y59369377I0J125000D01*
G01*
X68572507Y59619377D01*
G75*
G02*
X68697507Y59744377I125000J0D01*
G01*
X68697507Y59744377D01*
G75*
G02*
X68822507Y59619377I0J-125000D01*
G01*
G37*
G36*
G01*
X67722510Y59619377D02*
X67722510Y59369377D01*
G75*
G02*
X67597510Y59244377I-125000J0D01*
G01*
X67597510Y59244377D01*
G75*
G02*
X67472510Y59369377I0J125000D01*
G01*
X67472510Y59619377D01*
G75*
G02*
X67597510Y59744377I125000J0D01*
G01*
X67597510Y59744377D01*
G75*
G02*
X67722510Y59619377I0J-125000D01*
G01*
G37*
G36*
G01*
X66622512Y59619377D02*
X66622512Y59369377D01*
G75*
G02*
X66497512Y59244377I-125000J0D01*
G01*
X66497512Y59244377D01*
G75*
G02*
X66372512Y59369377I0J125000D01*
G01*
X66372512Y59619377D01*
G75*
G02*
X66497512Y59744377I125000J0D01*
G01*
X66497512Y59744377D01*
G75*
G02*
X66622512Y59619377I0J-125000D01*
G01*
G37*
G36*
G01*
X65522514Y59619377D02*
X65522514Y59369377D01*
G75*
G02*
X65397514Y59244377I-125000J0D01*
G01*
X65397514Y59244377D01*
G75*
G02*
X65272514Y59369377I0J125000D01*
G01*
X65272514Y59619377D01*
G75*
G02*
X65397514Y59744377I125000J0D01*
G01*
X65397514Y59744377D01*
G75*
G02*
X65522514Y59619377I0J-125000D01*
G01*
G37*
G36*
G01*
X64422516Y59619377D02*
X64422516Y59369377D01*
G75*
G02*
X64297516Y59244377I-125000J0D01*
G01*
X64297516Y59244377D01*
G75*
G02*
X64172516Y59369377I0J125000D01*
G01*
X64172516Y59619377D01*
G75*
G02*
X64297516Y59744377I125000J0D01*
G01*
X64297516Y59744377D01*
G75*
G02*
X64422516Y59619377I0J-125000D01*
G01*
G37*
G36*
G01*
X63322518Y59619377D02*
X63322518Y59369377D01*
G75*
G02*
X63197518Y59244377I-125000J0D01*
G01*
X63197518Y59244377D01*
G75*
G02*
X63072518Y59369377I0J125000D01*
G01*
X63072518Y59619377D01*
G75*
G02*
X63197518Y59744377I125000J0D01*
G01*
X63197518Y59744377D01*
G75*
G02*
X63322518Y59619377I0J-125000D01*
G01*
G37*
G36*
G01*
X62222521Y59619377D02*
X62222521Y59369377D01*
G75*
G02*
X62097521Y59244377I-125000J0D01*
G01*
X62097521Y59244377D01*
G75*
G02*
X61972521Y59369377I0J125000D01*
G01*
X61972521Y59619377D01*
G75*
G02*
X62097521Y59744377I125000J0D01*
G01*
X62097521Y59744377D01*
G75*
G02*
X62222521Y59619377I0J-125000D01*
G01*
G37*
G36*
G01*
X61122523Y59619377D02*
X61122523Y59369377D01*
G75*
G02*
X60997523Y59244377I-125000J0D01*
G01*
X60997523Y59244377D01*
G75*
G02*
X60872523Y59369377I0J125000D01*
G01*
X60872523Y59619377D01*
G75*
G02*
X60997523Y59744377I125000J0D01*
G01*
X60997523Y59744377D01*
G75*
G02*
X61122523Y59619377I0J-125000D01*
G01*
G37*
G36*
G01*
X60022525Y59619377D02*
X60022525Y59369377D01*
G75*
G02*
X59897525Y59244377I-125000J0D01*
G01*
X59897525Y59244377D01*
G75*
G02*
X59772525Y59369377I0J125000D01*
G01*
X59772525Y59619377D01*
G75*
G02*
X59897525Y59744377I125000J0D01*
G01*
X59897525Y59744377D01*
G75*
G02*
X60022525Y59619377I0J-125000D01*
G01*
G37*
G36*
G01*
X58922527Y59619377D02*
X58922527Y59369377D01*
G75*
G02*
X58797527Y59244377I-125000J0D01*
G01*
X58797527Y59244377D01*
G75*
G02*
X58672527Y59369377I0J125000D01*
G01*
X58672527Y59619377D01*
G75*
G02*
X58797527Y59744377I125000J0D01*
G01*
X58797527Y59744377D01*
G75*
G02*
X58922527Y59619377I0J-125000D01*
G01*
G37*
G36*
G01*
X57822529Y59619377D02*
X57822529Y59369377D01*
G75*
G02*
X57697529Y59244377I-125000J0D01*
G01*
X57697529Y59244377D01*
G75*
G02*
X57572529Y59369377I0J125000D01*
G01*
X57572529Y59619377D01*
G75*
G02*
X57697529Y59744377I125000J0D01*
G01*
X57697529Y59744377D01*
G75*
G02*
X57822529Y59619377I0J-125000D01*
G01*
G37*
G36*
G01*
X56722532Y59619377D02*
X56722532Y59369377D01*
G75*
G02*
X56597532Y59244377I-125000J0D01*
G01*
X56597532Y59244377D01*
G75*
G02*
X56472532Y59369377I0J125000D01*
G01*
X56472532Y59619377D01*
G75*
G02*
X56597532Y59744377I125000J0D01*
G01*
X56597532Y59744377D01*
G75*
G02*
X56722532Y59619377I0J-125000D01*
G01*
G37*
G36*
G01*
X55622534Y59619377D02*
X55622534Y59369377D01*
G75*
G02*
X55497534Y59244377I-125000J0D01*
G01*
X55497534Y59244377D01*
G75*
G02*
X55372534Y59369377I0J125000D01*
G01*
X55372534Y59619377D01*
G75*
G02*
X55497534Y59744377I125000J0D01*
G01*
X55497534Y59744377D01*
G75*
G02*
X55622534Y59619377I0J-125000D01*
G01*
G37*
G36*
G01*
X54522536Y59619377D02*
X54522536Y59369377D01*
G75*
G02*
X54397536Y59244377I-125000J0D01*
G01*
X54397536Y59244377D01*
G75*
G02*
X54272536Y59369377I0J125000D01*
G01*
X54272536Y59619377D01*
G75*
G02*
X54397536Y59744377I125000J0D01*
G01*
X54397536Y59744377D01*
G75*
G02*
X54522536Y59619377I0J-125000D01*
G01*
G37*
G36*
G01*
X53422538Y59619377D02*
X53422538Y59369377D01*
G75*
G02*
X53297538Y59244377I-125000J0D01*
G01*
X53297538Y59244377D01*
G75*
G02*
X53172538Y59369377I0J125000D01*
G01*
X53172538Y59619377D01*
G75*
G02*
X53297538Y59744377I125000J0D01*
G01*
X53297538Y59744377D01*
G75*
G02*
X53422538Y59619377I0J-125000D01*
G01*
G37*
G36*
G01*
X52322540Y59619377D02*
X52322540Y59369377D01*
G75*
G02*
X52197540Y59244377I-125000J0D01*
G01*
X52197540Y59244377D01*
G75*
G02*
X52072540Y59369377I0J125000D01*
G01*
X52072540Y59619377D01*
G75*
G02*
X52197540Y59744377I125000J0D01*
G01*
X52197540Y59744377D01*
G75*
G02*
X52322540Y59619377I0J-125000D01*
G01*
G37*
G36*
G01*
X51222543Y59619377D02*
X51222543Y59369377D01*
G75*
G02*
X51097543Y59244377I-125000J0D01*
G01*
X51097543Y59244377D01*
G75*
G02*
X50972543Y59369377I0J125000D01*
G01*
X50972543Y59619377D01*
G75*
G02*
X51097543Y59744377I125000J0D01*
G01*
X51097543Y59744377D01*
G75*
G02*
X51222543Y59619377I0J-125000D01*
G01*
G37*
G36*
G01*
X50122545Y59619377D02*
X50122545Y59369377D01*
G75*
G02*
X49997545Y59244377I-125000J0D01*
G01*
X49997545Y59244377D01*
G75*
G02*
X49872545Y59369377I0J125000D01*
G01*
X49872545Y59619377D01*
G75*
G02*
X49997545Y59744377I125000J0D01*
G01*
X49997545Y59744377D01*
G75*
G02*
X50122545Y59619377I0J-125000D01*
G01*
G37*
G36*
G01*
X49022547Y59619377D02*
X49022547Y59369377D01*
G75*
G02*
X48897547Y59244377I-125000J0D01*
G01*
X48897547Y59244377D01*
G75*
G02*
X48772547Y59369377I0J125000D01*
G01*
X48772547Y59619377D01*
G75*
G02*
X48897547Y59744377I125000J0D01*
G01*
X48897547Y59744377D01*
G75*
G02*
X49022547Y59619377I0J-125000D01*
G01*
G37*
G36*
G01*
X47922549Y59619377D02*
X47922549Y59369377D01*
G75*
G02*
X47797549Y59244377I-125000J0D01*
G01*
X47797549Y59244377D01*
G75*
G02*
X47672549Y59369377I0J125000D01*
G01*
X47672549Y59619377D01*
G75*
G02*
X47797549Y59744377I125000J0D01*
G01*
X47797549Y59744377D01*
G75*
G02*
X47922549Y59619377I0J-125000D01*
G01*
G37*
G36*
G01*
X46822551Y59619377D02*
X46822551Y59369377D01*
G75*
G02*
X46697551Y59244377I-125000J0D01*
G01*
X46697551Y59244377D01*
G75*
G02*
X46572551Y59369377I0J125000D01*
G01*
X46572551Y59619377D01*
G75*
G02*
X46697551Y59744377I125000J0D01*
G01*
X46697551Y59744377D01*
G75*
G02*
X46822551Y59619377I0J-125000D01*
G01*
G37*
G36*
G01*
X45722554Y59619377D02*
X45722554Y59369377D01*
G75*
G02*
X45597554Y59244377I-125000J0D01*
G01*
X45597554Y59244377D01*
G75*
G02*
X45472554Y59369377I0J125000D01*
G01*
X45472554Y59619377D01*
G75*
G02*
X45597554Y59744377I125000J0D01*
G01*
X45597554Y59744377D01*
G75*
G02*
X45722554Y59619377I0J-125000D01*
G01*
G37*
G36*
G01*
X44622556Y59619377D02*
X44622556Y59369377D01*
G75*
G02*
X44497556Y59244377I-125000J0D01*
G01*
X44497556Y59244377D01*
G75*
G02*
X44372556Y59369377I0J125000D01*
G01*
X44372556Y59619377D01*
G75*
G02*
X44497556Y59744377I125000J0D01*
G01*
X44497556Y59744377D01*
G75*
G02*
X44622556Y59619377I0J-125000D01*
G01*
G37*
G36*
G01*
X43522558Y59619377D02*
X43522558Y59369377D01*
G75*
G02*
X43397558Y59244377I-125000J0D01*
G01*
X43397558Y59244377D01*
G75*
G02*
X43272558Y59369377I0J125000D01*
G01*
X43272558Y59619377D01*
G75*
G02*
X43397558Y59744377I125000J0D01*
G01*
X43397558Y59744377D01*
G75*
G02*
X43522558Y59619377I0J-125000D01*
G01*
G37*
G36*
G01*
X42422560Y59619377D02*
X42422560Y59369377D01*
G75*
G02*
X42297560Y59244377I-125000J0D01*
G01*
X42297560Y59244377D01*
G75*
G02*
X42172560Y59369377I0J125000D01*
G01*
X42172560Y59619377D01*
G75*
G02*
X42297560Y59744377I125000J0D01*
G01*
X42297560Y59744377D01*
G75*
G02*
X42422560Y59619377I0J-125000D01*
G01*
G37*
G36*
G01*
X41322562Y59619377D02*
X41322562Y59369377D01*
G75*
G02*
X41197562Y59244377I-125000J0D01*
G01*
X41197562Y59244377D01*
G75*
G02*
X41072562Y59369377I0J125000D01*
G01*
X41072562Y59619377D01*
G75*
G02*
X41197562Y59744377I125000J0D01*
G01*
X41197562Y59744377D01*
G75*
G02*
X41322562Y59619377I0J-125000D01*
G01*
G37*
G36*
G01*
X39812499Y89426377D02*
X39562499Y89426377D01*
G75*
G02*
X39437499Y89551377I0J125000D01*
G01*
X39437499Y89551377D01*
G75*
G02*
X39562499Y89676377I125000J0D01*
G01*
X39812499Y89676377D01*
G75*
G02*
X39937499Y89551377I0J-125000D01*
G01*
X39937499Y89551377D01*
G75*
G02*
X39812499Y89426377I-125000J0D01*
G01*
G37*
G36*
G01*
X39812499Y90086377D02*
X39562499Y90086377D01*
G75*
G02*
X39437499Y90211377I0J125000D01*
G01*
X39437499Y90211377D01*
G75*
G02*
X39562499Y90336377I125000J0D01*
G01*
X39812499Y90336377D01*
G75*
G02*
X39937499Y90211377I0J-125000D01*
G01*
X39937499Y90211377D01*
G75*
G02*
X39812499Y90086377I-125000J0D01*
G01*
G37*
G36*
G01*
X39812499Y90746379D02*
X39562499Y90746379D01*
G75*
G02*
X39437499Y90871379I0J125000D01*
G01*
X39437499Y90871379D01*
G75*
G02*
X39562499Y90996379I125000J0D01*
G01*
X39812499Y90996379D01*
G75*
G02*
X39937499Y90871379I0J-125000D01*
G01*
X39937499Y90871379D01*
G75*
G02*
X39812499Y90746379I-125000J0D01*
G01*
G37*
G36*
G01*
X39812499Y91406380D02*
X39562499Y91406380D01*
G75*
G02*
X39437499Y91531380I0J125000D01*
G01*
X39437499Y91531380D01*
G75*
G02*
X39562499Y91656380I125000J0D01*
G01*
X39812499Y91656380D01*
G75*
G02*
X39937499Y91531380I0J-125000D01*
G01*
X39937499Y91531380D01*
G75*
G02*
X39812499Y91406380I-125000J0D01*
G01*
G37*
G36*
G01*
X39812499Y92066382D02*
X39562499Y92066382D01*
G75*
G02*
X39437499Y92191382I0J125000D01*
G01*
X39437499Y92191382D01*
G75*
G02*
X39562499Y92316382I125000J0D01*
G01*
X39812499Y92316382D01*
G75*
G02*
X39937499Y92191382I0J-125000D01*
G01*
X39937499Y92191382D01*
G75*
G02*
X39812499Y92066382I-125000J0D01*
G01*
G37*
G36*
G01*
X39812499Y92726383D02*
X39562499Y92726383D01*
G75*
G02*
X39437499Y92851383I0J125000D01*
G01*
X39437499Y92851383D01*
G75*
G02*
X39562499Y92976383I125000J0D01*
G01*
X39812499Y92976383D01*
G75*
G02*
X39937499Y92851383I0J-125000D01*
G01*
X39937499Y92851383D01*
G75*
G02*
X39812499Y92726383I-125000J0D01*
G01*
G37*
G36*
G01*
X39812499Y93386384D02*
X39562499Y93386384D01*
G75*
G02*
X39437499Y93511384I0J125000D01*
G01*
X39437499Y93511384D01*
G75*
G02*
X39562499Y93636384I125000J0D01*
G01*
X39812499Y93636384D01*
G75*
G02*
X39937499Y93511384I0J-125000D01*
G01*
X39937499Y93511384D01*
G75*
G02*
X39812499Y93386384I-125000J0D01*
G01*
G37*
G36*
G01*
X39812499Y94046385D02*
X39562499Y94046385D01*
G75*
G02*
X39437499Y94171385I0J125000D01*
G01*
X39437499Y94171385D01*
G75*
G02*
X39562499Y94296385I125000J0D01*
G01*
X39812499Y94296385D01*
G75*
G02*
X39937499Y94171385I0J-125000D01*
G01*
X39937499Y94171385D01*
G75*
G02*
X39812499Y94046385I-125000J0D01*
G01*
G37*
G36*
G01*
X39812499Y94706387D02*
X39562499Y94706387D01*
G75*
G02*
X39437499Y94831387I0J125000D01*
G01*
X39437499Y94831387D01*
G75*
G02*
X39562499Y94956387I125000J0D01*
G01*
X39812499Y94956387D01*
G75*
G02*
X39937499Y94831387I0J-125000D01*
G01*
X39937499Y94831387D01*
G75*
G02*
X39812499Y94706387I-125000J0D01*
G01*
G37*
G36*
G01*
X39812499Y95366388D02*
X39562499Y95366388D01*
G75*
G02*
X39437499Y95491388I0J125000D01*
G01*
X39437499Y95491388D01*
G75*
G02*
X39562499Y95616388I125000J0D01*
G01*
X39812499Y95616388D01*
G75*
G02*
X39937499Y95491388I0J-125000D01*
G01*
X39937499Y95491388D01*
G75*
G02*
X39812499Y95366388I-125000J0D01*
G01*
G37*
G04 #@! TD*
D14*
G04 #@! TO.C,P2*
X44450000Y41550000D03*
G04 #@! TD*
D15*
G04 #@! TO.C,M11*
X96809400Y36036600D03*
X96809400Y28536600D03*
X96809400Y27736600D03*
X96809400Y26936600D03*
X114334400Y34136600D03*
X114334400Y35136600D03*
G04 #@! TD*
D14*
G04 #@! TO.C,G5*
X149860000Y73050000D03*
X149860000Y75590000D03*
X149860000Y78130000D03*
X149860000Y80670000D03*
X149860000Y83210000D03*
X152400000Y73050000D03*
X152400000Y75590000D03*
X152400000Y78130000D03*
X152400000Y80670000D03*
X152400000Y83210000D03*
X154940000Y73050000D03*
X154940000Y75590000D03*
X154940000Y78130000D03*
X154940000Y80670000D03*
X154940000Y83210000D03*
G04 #@! TD*
D15*
G04 #@! TO.C,M1*
X47237499Y98631662D03*
X46362497Y99156662D03*
X47537501Y99906660D03*
X47462498Y103456661D03*
G04 #@! TD*
D14*
G04 #@! TO.C,P17*
X57200000Y28275000D03*
G04 #@! TD*
D15*
G04 #@! TO.C,M7*
X32507387Y93914190D03*
X34342397Y93489182D03*
X32292389Y92939185D03*
X32507384Y92064226D03*
X32582391Y91214203D03*
X34342397Y90889187D03*
X33032397Y89589220D03*
X34342397Y88939203D03*
X28417382Y96114206D03*
X32492388Y95814204D03*
G04 #@! TD*
G04 #@! TO.C,M4*
G36*
G01*
X70087501Y49879581D02*
X69837501Y49879581D01*
G75*
G02*
X69712501Y50004581I0J125000D01*
G01*
X69712501Y50004581D01*
G75*
G02*
X69837501Y50129581I125000J0D01*
G01*
X70087501Y50129581D01*
G75*
G02*
X70212501Y50004581I0J-125000D01*
G01*
X70212501Y50004581D01*
G75*
G02*
X70087501Y49879581I-125000J0D01*
G01*
G37*
G36*
G01*
X70087501Y49219580D02*
X69837501Y49219580D01*
G75*
G02*
X69712501Y49344580I0J125000D01*
G01*
X69712501Y49344580D01*
G75*
G02*
X69837501Y49469580I125000J0D01*
G01*
X70087501Y49469580D01*
G75*
G02*
X70212501Y49344580I0J-125000D01*
G01*
X70212501Y49344580D01*
G75*
G02*
X70087501Y49219580I-125000J0D01*
G01*
G37*
G36*
G01*
X70087501Y48559579D02*
X69837501Y48559579D01*
G75*
G02*
X69712501Y48684579I0J125000D01*
G01*
X69712501Y48684579D01*
G75*
G02*
X69837501Y48809579I125000J0D01*
G01*
X70087501Y48809579D01*
G75*
G02*
X70212501Y48684579I0J-125000D01*
G01*
X70212501Y48684579D01*
G75*
G02*
X70087501Y48559579I-125000J0D01*
G01*
G37*
G36*
G01*
X70087501Y47899578D02*
X69837501Y47899578D01*
G75*
G02*
X69712501Y48024578I0J125000D01*
G01*
X69712501Y48024578D01*
G75*
G02*
X69837501Y48149578I125000J0D01*
G01*
X70087501Y48149578D01*
G75*
G02*
X70212501Y48024578I0J-125000D01*
G01*
X70212501Y48024578D01*
G75*
G02*
X70087501Y47899578I-125000J0D01*
G01*
G37*
G36*
G01*
X70087501Y44599571D02*
X69837501Y44599571D01*
G75*
G02*
X69712501Y44724571I0J125000D01*
G01*
X69712501Y44724571D01*
G75*
G02*
X69837501Y44849571I125000J0D01*
G01*
X70087501Y44849571D01*
G75*
G02*
X70212501Y44724571I0J-125000D01*
G01*
X70212501Y44724571D01*
G75*
G02*
X70087501Y44599571I-125000J0D01*
G01*
G37*
G36*
G01*
X41317499Y58098374D02*
X41317499Y57848374D01*
G75*
G02*
X41192499Y57723374I-125000J0D01*
G01*
X41192499Y57723374D01*
G75*
G02*
X41067499Y57848374I0J125000D01*
G01*
X41067499Y58098374D01*
G75*
G02*
X41192499Y58223374I125000J0D01*
G01*
X41192499Y58223374D01*
G75*
G02*
X41317499Y58098374I0J-125000D01*
G01*
G37*
G36*
G01*
X42167503Y57848374D02*
X42167503Y58098374D01*
G75*
G02*
X42292503Y58223374I125000J0D01*
G01*
X42292503Y58223374D01*
G75*
G02*
X42417503Y58098374I0J-125000D01*
G01*
X42417503Y57848374D01*
G75*
G02*
X42292503Y57723374I-125000J0D01*
G01*
X42292503Y57723374D01*
G75*
G02*
X42167503Y57848374I0J125000D01*
G01*
G37*
G36*
G01*
X43267504Y57848374D02*
X43267504Y58098374D01*
G75*
G02*
X43392504Y58223374I125000J0D01*
G01*
X43392504Y58223374D01*
G75*
G02*
X43517504Y58098374I0J-125000D01*
G01*
X43517504Y57848374D01*
G75*
G02*
X43392504Y57723374I-125000J0D01*
G01*
X43392504Y57723374D01*
G75*
G02*
X43267504Y57848374I0J125000D01*
G01*
G37*
G36*
G01*
X44367501Y57848374D02*
X44367501Y58098374D01*
G75*
G02*
X44492501Y58223374I125000J0D01*
G01*
X44492501Y58223374D01*
G75*
G02*
X44617501Y58098374I0J-125000D01*
G01*
X44617501Y57848374D01*
G75*
G02*
X44492501Y57723374I-125000J0D01*
G01*
X44492501Y57723374D01*
G75*
G02*
X44367501Y57848374I0J125000D01*
G01*
G37*
G36*
G01*
X45467499Y57848374D02*
X45467499Y58098374D01*
G75*
G02*
X45592499Y58223374I125000J0D01*
G01*
X45592499Y58223374D01*
G75*
G02*
X45717499Y58098374I0J-125000D01*
G01*
X45717499Y57848374D01*
G75*
G02*
X45592499Y57723374I-125000J0D01*
G01*
X45592499Y57723374D01*
G75*
G02*
X45467499Y57848374I0J125000D01*
G01*
G37*
G36*
G01*
X46567497Y57848374D02*
X46567497Y58098374D01*
G75*
G02*
X46692497Y58223374I125000J0D01*
G01*
X46692497Y58223374D01*
G75*
G02*
X46817497Y58098374I0J-125000D01*
G01*
X46817497Y57848374D01*
G75*
G02*
X46692497Y57723374I-125000J0D01*
G01*
X46692497Y57723374D01*
G75*
G02*
X46567497Y57848374I0J125000D01*
G01*
G37*
G36*
G01*
X47667495Y57848374D02*
X47667495Y58098374D01*
G75*
G02*
X47792495Y58223374I125000J0D01*
G01*
X47792495Y58223374D01*
G75*
G02*
X47917495Y58098374I0J-125000D01*
G01*
X47917495Y57848374D01*
G75*
G02*
X47792495Y57723374I-125000J0D01*
G01*
X47792495Y57723374D01*
G75*
G02*
X47667495Y57848374I0J125000D01*
G01*
G37*
G36*
G01*
X48767493Y57848374D02*
X48767493Y58098374D01*
G75*
G02*
X48892493Y58223374I125000J0D01*
G01*
X48892493Y58223374D01*
G75*
G02*
X49017493Y58098374I0J-125000D01*
G01*
X49017493Y57848374D01*
G75*
G02*
X48892493Y57723374I-125000J0D01*
G01*
X48892493Y57723374D01*
G75*
G02*
X48767493Y57848374I0J125000D01*
G01*
G37*
G36*
G01*
X49867490Y57848374D02*
X49867490Y58098374D01*
G75*
G02*
X49992490Y58223374I125000J0D01*
G01*
X49992490Y58223374D01*
G75*
G02*
X50117490Y58098374I0J-125000D01*
G01*
X50117490Y57848374D01*
G75*
G02*
X49992490Y57723374I-125000J0D01*
G01*
X49992490Y57723374D01*
G75*
G02*
X49867490Y57848374I0J125000D01*
G01*
G37*
G36*
G01*
X50967488Y57848374D02*
X50967488Y58098374D01*
G75*
G02*
X51092488Y58223374I125000J0D01*
G01*
X51092488Y58223374D01*
G75*
G02*
X51217488Y58098374I0J-125000D01*
G01*
X51217488Y57848374D01*
G75*
G02*
X51092488Y57723374I-125000J0D01*
G01*
X51092488Y57723374D01*
G75*
G02*
X50967488Y57848374I0J125000D01*
G01*
G37*
G36*
G01*
X52067486Y57848374D02*
X52067486Y58098374D01*
G75*
G02*
X52192486Y58223374I125000J0D01*
G01*
X52192486Y58223374D01*
G75*
G02*
X52317486Y58098374I0J-125000D01*
G01*
X52317486Y57848374D01*
G75*
G02*
X52192486Y57723374I-125000J0D01*
G01*
X52192486Y57723374D01*
G75*
G02*
X52067486Y57848374I0J125000D01*
G01*
G37*
G36*
G01*
X53167484Y57848374D02*
X53167484Y58098374D01*
G75*
G02*
X53292484Y58223374I125000J0D01*
G01*
X53292484Y58223374D01*
G75*
G02*
X53417484Y58098374I0J-125000D01*
G01*
X53417484Y57848374D01*
G75*
G02*
X53292484Y57723374I-125000J0D01*
G01*
X53292484Y57723374D01*
G75*
G02*
X53167484Y57848374I0J125000D01*
G01*
G37*
G36*
G01*
X54267482Y57848374D02*
X54267482Y58098374D01*
G75*
G02*
X54392482Y58223374I125000J0D01*
G01*
X54392482Y58223374D01*
G75*
G02*
X54517482Y58098374I0J-125000D01*
G01*
X54517482Y57848374D01*
G75*
G02*
X54392482Y57723374I-125000J0D01*
G01*
X54392482Y57723374D01*
G75*
G02*
X54267482Y57848374I0J125000D01*
G01*
G37*
G36*
G01*
X55367479Y57848374D02*
X55367479Y58098374D01*
G75*
G02*
X55492479Y58223374I125000J0D01*
G01*
X55492479Y58223374D01*
G75*
G02*
X55617479Y58098374I0J-125000D01*
G01*
X55617479Y57848374D01*
G75*
G02*
X55492479Y57723374I-125000J0D01*
G01*
X55492479Y57723374D01*
G75*
G02*
X55367479Y57848374I0J125000D01*
G01*
G37*
G36*
G01*
X56467477Y57848374D02*
X56467477Y58098374D01*
G75*
G02*
X56592477Y58223374I125000J0D01*
G01*
X56592477Y58223374D01*
G75*
G02*
X56717477Y58098374I0J-125000D01*
G01*
X56717477Y57848374D01*
G75*
G02*
X56592477Y57723374I-125000J0D01*
G01*
X56592477Y57723374D01*
G75*
G02*
X56467477Y57848374I0J125000D01*
G01*
G37*
G36*
G01*
X57567475Y57848374D02*
X57567475Y58098374D01*
G75*
G02*
X57692475Y58223374I125000J0D01*
G01*
X57692475Y58223374D01*
G75*
G02*
X57817475Y58098374I0J-125000D01*
G01*
X57817475Y57848374D01*
G75*
G02*
X57692475Y57723374I-125000J0D01*
G01*
X57692475Y57723374D01*
G75*
G02*
X57567475Y57848374I0J125000D01*
G01*
G37*
G36*
G01*
X58667473Y57848374D02*
X58667473Y58098374D01*
G75*
G02*
X58792473Y58223374I125000J0D01*
G01*
X58792473Y58223374D01*
G75*
G02*
X58917473Y58098374I0J-125000D01*
G01*
X58917473Y57848374D01*
G75*
G02*
X58792473Y57723374I-125000J0D01*
G01*
X58792473Y57723374D01*
G75*
G02*
X58667473Y57848374I0J125000D01*
G01*
G37*
G36*
G01*
X59767471Y57848374D02*
X59767471Y58098374D01*
G75*
G02*
X59892471Y58223374I125000J0D01*
G01*
X59892471Y58223374D01*
G75*
G02*
X60017471Y58098374I0J-125000D01*
G01*
X60017471Y57848374D01*
G75*
G02*
X59892471Y57723374I-125000J0D01*
G01*
X59892471Y57723374D01*
G75*
G02*
X59767471Y57848374I0J125000D01*
G01*
G37*
G36*
G01*
X60867468Y57848374D02*
X60867468Y58098374D01*
G75*
G02*
X60992468Y58223374I125000J0D01*
G01*
X60992468Y58223374D01*
G75*
G02*
X61117468Y58098374I0J-125000D01*
G01*
X61117468Y57848374D01*
G75*
G02*
X60992468Y57723374I-125000J0D01*
G01*
X60992468Y57723374D01*
G75*
G02*
X60867468Y57848374I0J125000D01*
G01*
G37*
G36*
G01*
X61967466Y57848374D02*
X61967466Y58098374D01*
G75*
G02*
X62092466Y58223374I125000J0D01*
G01*
X62092466Y58223374D01*
G75*
G02*
X62217466Y58098374I0J-125000D01*
G01*
X62217466Y57848374D01*
G75*
G02*
X62092466Y57723374I-125000J0D01*
G01*
X62092466Y57723374D01*
G75*
G02*
X61967466Y57848374I0J125000D01*
G01*
G37*
G36*
G01*
X63067464Y57848374D02*
X63067464Y58098374D01*
G75*
G02*
X63192464Y58223374I125000J0D01*
G01*
X63192464Y58223374D01*
G75*
G02*
X63317464Y58098374I0J-125000D01*
G01*
X63317464Y57848374D01*
G75*
G02*
X63192464Y57723374I-125000J0D01*
G01*
X63192464Y57723374D01*
G75*
G02*
X63067464Y57848374I0J125000D01*
G01*
G37*
G36*
G01*
X64167462Y57848374D02*
X64167462Y58098374D01*
G75*
G02*
X64292462Y58223374I125000J0D01*
G01*
X64292462Y58223374D01*
G75*
G02*
X64417462Y58098374I0J-125000D01*
G01*
X64417462Y57848374D01*
G75*
G02*
X64292462Y57723374I-125000J0D01*
G01*
X64292462Y57723374D01*
G75*
G02*
X64167462Y57848374I0J125000D01*
G01*
G37*
G36*
G01*
X65267460Y57848374D02*
X65267460Y58098374D01*
G75*
G02*
X65392460Y58223374I125000J0D01*
G01*
X65392460Y58223374D01*
G75*
G02*
X65517460Y58098374I0J-125000D01*
G01*
X65517460Y57848374D01*
G75*
G02*
X65392460Y57723374I-125000J0D01*
G01*
X65392460Y57723374D01*
G75*
G02*
X65267460Y57848374I0J125000D01*
G01*
G37*
G36*
G01*
X66367457Y57848374D02*
X66367457Y58098374D01*
G75*
G02*
X66492457Y58223374I125000J0D01*
G01*
X66492457Y58223374D01*
G75*
G02*
X66617457Y58098374I0J-125000D01*
G01*
X66617457Y57848374D01*
G75*
G02*
X66492457Y57723374I-125000J0D01*
G01*
X66492457Y57723374D01*
G75*
G02*
X66367457Y57848374I0J125000D01*
G01*
G37*
G36*
G01*
X67467455Y57848374D02*
X67467455Y58098374D01*
G75*
G02*
X67592455Y58223374I125000J0D01*
G01*
X67592455Y58223374D01*
G75*
G02*
X67717455Y58098374I0J-125000D01*
G01*
X67717455Y57848374D01*
G75*
G02*
X67592455Y57723374I-125000J0D01*
G01*
X67592455Y57723374D01*
G75*
G02*
X67467455Y57848374I0J125000D01*
G01*
G37*
G36*
G01*
X68567453Y57848374D02*
X68567453Y58098374D01*
G75*
G02*
X68692453Y58223374I125000J0D01*
G01*
X68692453Y58223374D01*
G75*
G02*
X68817453Y58098374I0J-125000D01*
G01*
X68817453Y57848374D01*
G75*
G02*
X68692453Y57723374I-125000J0D01*
G01*
X68692453Y57723374D01*
G75*
G02*
X68567453Y57848374I0J125000D01*
G01*
G37*
G36*
G01*
X68316509Y43886375D02*
X68316509Y44136375D01*
G75*
G02*
X68441509Y44261375I125000J0D01*
G01*
X68441509Y44261375D01*
G75*
G02*
X68566509Y44136375I0J-125000D01*
G01*
X68566509Y43886375D01*
G75*
G02*
X68441509Y43761375I-125000J0D01*
G01*
X68441509Y43761375D01*
G75*
G02*
X68316509Y43886375I0J125000D01*
G01*
G37*
G36*
G01*
X67656507Y43886375D02*
X67656507Y44136375D01*
G75*
G02*
X67781507Y44261375I125000J0D01*
G01*
X67781507Y44261375D01*
G75*
G02*
X67906507Y44136375I0J-125000D01*
G01*
X67906507Y43886375D01*
G75*
G02*
X67781507Y43761375I-125000J0D01*
G01*
X67781507Y43761375D01*
G75*
G02*
X67656507Y43886375I0J125000D01*
G01*
G37*
G36*
G01*
X66996506Y43886375D02*
X66996506Y44136375D01*
G75*
G02*
X67121506Y44261375I125000J0D01*
G01*
X67121506Y44261375D01*
G75*
G02*
X67246506Y44136375I0J-125000D01*
G01*
X67246506Y43886375D01*
G75*
G02*
X67121506Y43761375I-125000J0D01*
G01*
X67121506Y43761375D01*
G75*
G02*
X66996506Y43886375I0J125000D01*
G01*
G37*
G36*
G01*
X66336505Y43886375D02*
X66336505Y44136375D01*
G75*
G02*
X66461505Y44261375I125000J0D01*
G01*
X66461505Y44261375D01*
G75*
G02*
X66586505Y44136375I0J-125000D01*
G01*
X66586505Y43886375D01*
G75*
G02*
X66461505Y43761375I-125000J0D01*
G01*
X66461505Y43761375D01*
G75*
G02*
X66336505Y43886375I0J125000D01*
G01*
G37*
G36*
G01*
X65676504Y43886375D02*
X65676504Y44136375D01*
G75*
G02*
X65801504Y44261375I125000J0D01*
G01*
X65801504Y44261375D01*
G75*
G02*
X65926504Y44136375I0J-125000D01*
G01*
X65926504Y43886375D01*
G75*
G02*
X65801504Y43761375I-125000J0D01*
G01*
X65801504Y43761375D01*
G75*
G02*
X65676504Y43886375I0J125000D01*
G01*
G37*
G36*
G01*
X65016502Y43886375D02*
X65016502Y44136375D01*
G75*
G02*
X65141502Y44261375I125000J0D01*
G01*
X65141502Y44261375D01*
G75*
G02*
X65266502Y44136375I0J-125000D01*
G01*
X65266502Y43886375D01*
G75*
G02*
X65141502Y43761375I-125000J0D01*
G01*
X65141502Y43761375D01*
G75*
G02*
X65016502Y43886375I0J125000D01*
G01*
G37*
G36*
G01*
X63415505Y43886375D02*
X63415505Y44136375D01*
G75*
G02*
X63540505Y44261375I125000J0D01*
G01*
X63540505Y44261375D01*
G75*
G02*
X63665505Y44136375I0J-125000D01*
G01*
X63665505Y43886375D01*
G75*
G02*
X63540505Y43761375I-125000J0D01*
G01*
X63540505Y43761375D01*
G75*
G02*
X63415505Y43886375I0J125000D01*
G01*
G37*
G36*
G01*
X62755504Y43886375D02*
X62755504Y44136375D01*
G75*
G02*
X62880504Y44261375I125000J0D01*
G01*
X62880504Y44261375D01*
G75*
G02*
X63005504Y44136375I0J-125000D01*
G01*
X63005504Y43886375D01*
G75*
G02*
X62880504Y43761375I-125000J0D01*
G01*
X62880504Y43761375D01*
G75*
G02*
X62755504Y43886375I0J125000D01*
G01*
G37*
G36*
G01*
X62095502Y43886375D02*
X62095502Y44136375D01*
G75*
G02*
X62220502Y44261375I125000J0D01*
G01*
X62220502Y44261375D01*
G75*
G02*
X62345502Y44136375I0J-125000D01*
G01*
X62345502Y43886375D01*
G75*
G02*
X62220502Y43761375I-125000J0D01*
G01*
X62220502Y43761375D01*
G75*
G02*
X62095502Y43886375I0J125000D01*
G01*
G37*
G36*
G01*
X60974603Y43886375D02*
X60974603Y44136375D01*
G75*
G02*
X61099603Y44261375I125000J0D01*
G01*
X61099603Y44261375D01*
G75*
G02*
X61224603Y44136375I0J-125000D01*
G01*
X61224603Y43886375D01*
G75*
G02*
X61099603Y43761375I-125000J0D01*
G01*
X61099603Y43761375D01*
G75*
G02*
X60974603Y43886375I0J125000D01*
G01*
G37*
G36*
G01*
X60314602Y43886375D02*
X60314602Y44136375D01*
G75*
G02*
X60439602Y44261375I125000J0D01*
G01*
X60439602Y44261375D01*
G75*
G02*
X60564602Y44136375I0J-125000D01*
G01*
X60564602Y43886375D01*
G75*
G02*
X60439602Y43761375I-125000J0D01*
G01*
X60439602Y43761375D01*
G75*
G02*
X60314602Y43886375I0J125000D01*
G01*
G37*
G36*
G01*
X59654601Y43886375D02*
X59654601Y44136375D01*
G75*
G02*
X59779601Y44261375I125000J0D01*
G01*
X59779601Y44261375D01*
G75*
G02*
X59904601Y44136375I0J-125000D01*
G01*
X59904601Y43886375D01*
G75*
G02*
X59779601Y43761375I-125000J0D01*
G01*
X59779601Y43761375D01*
G75*
G02*
X59654601Y43886375I0J125000D01*
G01*
G37*
G36*
G01*
X58994599Y43886375D02*
X58994599Y44136375D01*
G75*
G02*
X59119599Y44261375I125000J0D01*
G01*
X59119599Y44261375D01*
G75*
G02*
X59244599Y44136375I0J-125000D01*
G01*
X59244599Y43886375D01*
G75*
G02*
X59119599Y43761375I-125000J0D01*
G01*
X59119599Y43761375D01*
G75*
G02*
X58994599Y43886375I0J125000D01*
G01*
G37*
G36*
G01*
X55668505Y43886375D02*
X55668505Y44136375D01*
G75*
G02*
X55793505Y44261375I125000J0D01*
G01*
X55793505Y44261375D01*
G75*
G02*
X55918505Y44136375I0J-125000D01*
G01*
X55918505Y43886375D01*
G75*
G02*
X55793505Y43761375I-125000J0D01*
G01*
X55793505Y43761375D01*
G75*
G02*
X55668505Y43886375I0J125000D01*
G01*
G37*
G36*
G01*
X55008504Y43886375D02*
X55008504Y44136375D01*
G75*
G02*
X55133504Y44261375I125000J0D01*
G01*
X55133504Y44261375D01*
G75*
G02*
X55258504Y44136375I0J-125000D01*
G01*
X55258504Y43886375D01*
G75*
G02*
X55133504Y43761375I-125000J0D01*
G01*
X55133504Y43761375D01*
G75*
G02*
X55008504Y43886375I0J125000D01*
G01*
G37*
G36*
G01*
X54348502Y43886375D02*
X54348502Y44136375D01*
G75*
G02*
X54473502Y44261375I125000J0D01*
G01*
X54473502Y44261375D01*
G75*
G02*
X54598502Y44136375I0J-125000D01*
G01*
X54598502Y43886375D01*
G75*
G02*
X54473502Y43761375I-125000J0D01*
G01*
X54473502Y43761375D01*
G75*
G02*
X54348502Y43886375I0J125000D01*
G01*
G37*
G36*
G01*
X51702511Y43886375D02*
X51702511Y44136375D01*
G75*
G02*
X51827511Y44261375I125000J0D01*
G01*
X51827511Y44261375D01*
G75*
G02*
X51952511Y44136375I0J-125000D01*
G01*
X51952511Y43886375D01*
G75*
G02*
X51827511Y43761375I-125000J0D01*
G01*
X51827511Y43761375D01*
G75*
G02*
X51702511Y43886375I0J125000D01*
G01*
G37*
G36*
G01*
X51042510Y43886375D02*
X51042510Y44136375D01*
G75*
G02*
X51167510Y44261375I125000J0D01*
G01*
X51167510Y44261375D01*
G75*
G02*
X51292510Y44136375I0J-125000D01*
G01*
X51292510Y43886375D01*
G75*
G02*
X51167510Y43761375I-125000J0D01*
G01*
X51167510Y43761375D01*
G75*
G02*
X51042510Y43886375I0J125000D01*
G01*
G37*
G36*
G01*
X50382508Y43886375D02*
X50382508Y44136375D01*
G75*
G02*
X50507508Y44261375I125000J0D01*
G01*
X50507508Y44261375D01*
G75*
G02*
X50632508Y44136375I0J-125000D01*
G01*
X50632508Y43886375D01*
G75*
G02*
X50507508Y43761375I-125000J0D01*
G01*
X50507508Y43761375D01*
G75*
G02*
X50382508Y43886375I0J125000D01*
G01*
G37*
G36*
G01*
X49722507Y43886375D02*
X49722507Y44136375D01*
G75*
G02*
X49847507Y44261375I125000J0D01*
G01*
X49847507Y44261375D01*
G75*
G02*
X49972507Y44136375I0J-125000D01*
G01*
X49972507Y43886375D01*
G75*
G02*
X49847507Y43761375I-125000J0D01*
G01*
X49847507Y43761375D01*
G75*
G02*
X49722507Y43886375I0J125000D01*
G01*
G37*
G36*
G01*
X49062506Y43886375D02*
X49062506Y44136375D01*
G75*
G02*
X49187506Y44261375I125000J0D01*
G01*
X49187506Y44261375D01*
G75*
G02*
X49312506Y44136375I0J-125000D01*
G01*
X49312506Y43886375D01*
G75*
G02*
X49187506Y43761375I-125000J0D01*
G01*
X49187506Y43761375D01*
G75*
G02*
X49062506Y43886375I0J125000D01*
G01*
G37*
G36*
G01*
X48402505Y43886375D02*
X48402505Y44136375D01*
G75*
G02*
X48527505Y44261375I125000J0D01*
G01*
X48527505Y44261375D01*
G75*
G02*
X48652505Y44136375I0J-125000D01*
G01*
X48652505Y43886375D01*
G75*
G02*
X48527505Y43761375I-125000J0D01*
G01*
X48527505Y43761375D01*
G75*
G02*
X48402505Y43886375I0J125000D01*
G01*
G37*
G36*
G01*
X47742503Y43886375D02*
X47742503Y44136375D01*
G75*
G02*
X47867503Y44261375I125000J0D01*
G01*
X47867503Y44261375D01*
G75*
G02*
X47992503Y44136375I0J-125000D01*
G01*
X47992503Y43886375D01*
G75*
G02*
X47867503Y43761375I-125000J0D01*
G01*
X47867503Y43761375D01*
G75*
G02*
X47742503Y43886375I0J125000D01*
G01*
G37*
G36*
G01*
X47082502Y43886375D02*
X47082502Y44136375D01*
G75*
G02*
X47207502Y44261375I125000J0D01*
G01*
X47207502Y44261375D01*
G75*
G02*
X47332502Y44136375I0J-125000D01*
G01*
X47332502Y43886375D01*
G75*
G02*
X47207502Y43761375I-125000J0D01*
G01*
X47207502Y43761375D01*
G75*
G02*
X47082502Y43886375I0J125000D01*
G01*
G37*
G36*
G01*
X46422501Y43886375D02*
X46422501Y44136375D01*
G75*
G02*
X46547501Y44261375I125000J0D01*
G01*
X46547501Y44261375D01*
G75*
G02*
X46672501Y44136375I0J-125000D01*
G01*
X46672501Y43886375D01*
G75*
G02*
X46547501Y43761375I-125000J0D01*
G01*
X46547501Y43761375D01*
G75*
G02*
X46422501Y43886375I0J125000D01*
G01*
G37*
G36*
G01*
X45762499Y43886375D02*
X45762499Y44136375D01*
G75*
G02*
X45887499Y44261375I125000J0D01*
G01*
X45887499Y44261375D01*
G75*
G02*
X46012499Y44136375I0J-125000D01*
G01*
X46012499Y43886375D01*
G75*
G02*
X45887499Y43761375I-125000J0D01*
G01*
X45887499Y43761375D01*
G75*
G02*
X45762499Y43886375I0J125000D01*
G01*
G37*
G04 #@! TD*
D16*
G04 #@! TO.C,M6*
X122376544Y44826214D03*
X121120679Y44826214D03*
D17*
X114676544Y44701213D03*
D18*
X108226552Y44401214D03*
D19*
X107251540Y44501219D03*
D18*
X106381783Y44401214D03*
X105651546Y44401214D03*
X104756783Y44401214D03*
X102681783Y44401214D03*
X101781787Y44401214D03*
X101071545Y44401214D03*
D19*
X100051544Y44501214D03*
X98876545Y44501214D03*
X97526546Y44501214D03*
X96351547Y44501214D03*
D20*
X95451546Y45431453D03*
X95451546Y46126212D03*
X95451546Y46806452D03*
D21*
X95546544Y47626214D03*
D20*
X95451546Y48931451D03*
D21*
X95546544Y49901216D03*
D20*
X95451546Y51176214D03*
X95451546Y51826216D03*
D21*
X95546544Y53026216D03*
X95546544Y54101220D03*
X95546544Y54976222D03*
D20*
X95451546Y55801214D03*
X95451546Y61651215D03*
D22*
X95346545Y65706185D03*
X95346545Y66366187D03*
X95346545Y67426215D03*
X95346545Y68130300D03*
X95346545Y68930339D03*
X95346545Y69730378D03*
X95346545Y70526214D03*
X95346545Y72721216D03*
X95346545Y73161215D03*
X95346545Y73601214D03*
X95346545Y74041216D03*
X95346545Y74481215D03*
X95346545Y74921214D03*
X95346545Y75361216D03*
X95346545Y75801215D03*
X95346545Y76926186D03*
X95346545Y77586184D03*
X95346545Y78246186D03*
X95346545Y78906184D03*
X95346545Y82311214D03*
X95346545Y82751213D03*
X95346545Y83191215D03*
X95346545Y83631214D03*
X95346545Y84071213D03*
X95346545Y84511215D03*
X95346545Y84951214D03*
G04 #@! TD*
D14*
G04 #@! TO.C,P5*
X50675000Y41525000D03*
G04 #@! TD*
G04 #@! TO.C,P61*
X40675000Y32675000D03*
G04 #@! TD*
G04 #@! TO.C,P44*
X76744800Y30212600D03*
G04 #@! TD*
G04 #@! TO.C,P16*
X66568000Y39280400D03*
G04 #@! TD*
G04 #@! TO.C,P6*
X116936200Y34225800D03*
G04 #@! TD*
G04 #@! TO.C,P66*
X79419800Y30212600D03*
G04 #@! TD*
G04 #@! TO.C,P12*
X69300000Y25625000D03*
G04 #@! TD*
G04 #@! TO.C,P13*
X66575000Y25550000D03*
G04 #@! TD*
D23*
G04 #@! TO.C,R13*
X8700000Y31830000D03*
X8700000Y28020000D03*
G04 #@! TD*
D14*
G04 #@! TO.C,G2*
X149860000Y86360000D03*
X149860000Y88900000D03*
X149860000Y91440000D03*
X149860000Y93980000D03*
X149860000Y96520000D03*
X152400000Y86360000D03*
X152400000Y88900000D03*
X152400000Y91440000D03*
X152400000Y93980000D03*
X152400000Y96520000D03*
X154940000Y86360000D03*
X154940000Y88900000D03*
X154940000Y91440000D03*
X154940000Y93980000D03*
X154940000Y96520000D03*
G04 #@! TD*
D23*
G04 #@! TO.C,R4*
X54600000Y26295000D03*
X54600000Y30105000D03*
G04 #@! TD*
D14*
G04 #@! TO.C,P63*
X86775000Y25575000D03*
G04 #@! TD*
G04 #@! TO.C,P4*
X53500000Y41525000D03*
G04 #@! TD*
G04 #@! TO.C,P28*
X74094800Y30212600D03*
G04 #@! TD*
G04 #@! TO.C,P74*
X45925000Y32675000D03*
G04 #@! TD*
D23*
G04 #@! TO.C,R8*
X48350000Y29955000D03*
X48350000Y26145000D03*
G04 #@! TD*
G04 #@! TO.C,F1*
X124075000Y26775000D03*
X124075000Y31675000D03*
G04 #@! TD*
D15*
G04 #@! TO.C,M10*
X24025003Y73650001D03*
X24900005Y73125001D03*
X23725001Y72375003D03*
X23800004Y68825002D03*
G04 #@! TD*
D14*
G04 #@! TO.C,P67*
X82112800Y30212600D03*
G04 #@! TD*
G04 #@! TO.C,P9*
X71444800Y30212600D03*
G04 #@! TD*
G04 #@! TO.C,P7*
X90500000Y40325000D03*
G04 #@! TD*
G04 #@! TO.C,P49*
X72625000Y25575000D03*
G04 #@! TD*
D23*
G04 #@! TO.C,R10*
X13300000Y31880000D03*
X13300000Y28070000D03*
G04 #@! TD*
D14*
G04 #@! TO.C,P14*
X63775000Y25625000D03*
G04 #@! TD*
D23*
G04 #@! TO.C,R9*
X51600000Y26145000D03*
X51600000Y29955000D03*
G04 #@! TD*
D14*
G04 #@! TO.C,P56*
X54782400Y32676400D03*
G04 #@! TD*
G04 #@! TO.C,P10*
X68794800Y30212600D03*
G04 #@! TD*
G04 #@! TO.C,P64*
X84225000Y25575000D03*
G04 #@! TD*
G04 #@! TO.C,P69*
X87446800Y30212600D03*
G04 #@! TD*
G04 #@! TO.C,P80*
X35625000Y32675000D03*
G04 #@! TD*
D24*
G04 #@! TO.C,J8*
X13200000Y53550000D03*
D25*
X13200000Y56090000D03*
X13200000Y58630000D03*
X13200000Y61170000D03*
X13200000Y63710000D03*
X13200000Y66250000D03*
G04 #@! TD*
D14*
G04 #@! TO.C,G3*
X144900000Y104600000D03*
X144900000Y102060000D03*
X144900000Y99520000D03*
X144900000Y96980000D03*
X144900000Y94440000D03*
X142360000Y104600000D03*
X142360000Y102060000D03*
X142360000Y99520000D03*
X142360000Y96980000D03*
X142360000Y94440000D03*
X139820000Y104600000D03*
X139820000Y102060000D03*
X139820000Y99520000D03*
X139820000Y96980000D03*
X139820000Y94440000D03*
G04 #@! TD*
D26*
G04 #@! TO.C,M12*
X74280016Y56292004D03*
X74886977Y49016987D03*
X74036976Y49016987D03*
X73186975Y49016987D03*
X72336974Y49016987D03*
X75498380Y47567861D03*
X72337005Y57417026D03*
X73737012Y57417026D03*
X74812004Y57417026D03*
X76212011Y57417026D03*
G04 #@! TD*
D14*
G04 #@! TO.C,P3*
X47850000Y41525000D03*
G04 #@! TD*
D23*
G04 #@! TO.C,R2*
X46325000Y26165000D03*
X46325000Y29975000D03*
G04 #@! TD*
D14*
G04 #@! TO.C,P41*
X43200000Y32675000D03*
G04 #@! TD*
D23*
G04 #@! TO.C,R12*
X15600000Y31880021D03*
X15600000Y28070021D03*
G04 #@! TD*
G04 #@! TO.C,F2*
X126975000Y26775000D03*
X126975000Y31675000D03*
G04 #@! TD*
D14*
G04 #@! TO.C,G1*
X149860000Y59640000D03*
X149860000Y62180000D03*
X149860000Y64720000D03*
X149860000Y67260000D03*
X149860000Y69800000D03*
X152400000Y59640000D03*
X152400000Y62180000D03*
X152400000Y64720000D03*
X152400000Y67260000D03*
X152400000Y69800000D03*
X154940000Y59640000D03*
X154940000Y62180000D03*
X154940000Y64720000D03*
X154940000Y67260000D03*
X154940000Y69800000D03*
G04 #@! TD*
G04 #@! TO.C,P15*
X77337600Y41363200D03*
G04 #@! TD*
G04 #@! TO.C,J10*
G36*
G01*
X93339340Y103360660D02*
X93339340Y103360660D01*
G75*
G02*
X95036396Y103360660I848528J-848528D01*
G01*
X95460660Y102936396D01*
G75*
G02*
X95460660Y101239340I-848528J-848528D01*
G01*
X95460660Y101239340D01*
G75*
G02*
X93763604Y101239340I-848528J848528D01*
G01*
X93339340Y101663604D01*
G75*
G02*
X93339340Y103360660I848528J848528D01*
G01*
G37*
G36*
G01*
X95239340Y105560660D02*
X95239340Y105560660D01*
G75*
G02*
X96936396Y105560660I848528J-848528D01*
G01*
X97360660Y105136396D01*
G75*
G02*
X97360660Y103439340I-848528J-848528D01*
G01*
X97360660Y103439340D01*
G75*
G02*
X95663604Y103439340I-848528J848528D01*
G01*
X95239340Y103863604D01*
G75*
G02*
X95239340Y105560660I848528J848528D01*
G01*
G37*
G36*
G01*
X101439340Y105560660D02*
X101439340Y105560660D01*
G75*
G02*
X103136396Y105560660I848528J-848528D01*
G01*
X103560660Y105136396D01*
G75*
G02*
X103560660Y103439340I-848528J-848528D01*
G01*
X103560660Y103439340D01*
G75*
G02*
X101863604Y103439340I-848528J848528D01*
G01*
X101439340Y103863604D01*
G75*
G02*
X101439340Y105560660I848528J848528D01*
G01*
G37*
G36*
G01*
X98939340Y103360660D02*
X98939340Y103360660D01*
G75*
G02*
X100636396Y103360660I848528J-848528D01*
G01*
X101060660Y102936396D01*
G75*
G02*
X101060660Y101239340I-848528J-848528D01*
G01*
X101060660Y101239340D01*
G75*
G02*
X99363604Y101239340I-848528J848528D01*
G01*
X98939340Y101663604D01*
G75*
G02*
X98939340Y103360660I848528J848528D01*
G01*
G37*
G36*
G01*
X89639340Y105560660D02*
X89639340Y105560660D01*
G75*
G02*
X91336396Y105560660I848528J-848528D01*
G01*
X91760660Y105136396D01*
G75*
G02*
X91760660Y103439340I-848528J-848528D01*
G01*
X91760660Y103439340D01*
G75*
G02*
X90063604Y103439340I-848528J848528D01*
G01*
X89639340Y103863604D01*
G75*
G02*
X89639340Y105560660I848528J848528D01*
G01*
G37*
G04 #@! TD*
G04 #@! TO.C,P46*
X78875000Y25575000D03*
G04 #@! TD*
G04 #@! TO.C,P20*
X51350000Y32650000D03*
G04 #@! TD*
G04 #@! TO.C,P40*
X48650000Y32650000D03*
G04 #@! TD*
D24*
G04 #@! TO.C,J7*
X73280000Y99500000D03*
D25*
X70740000Y99500000D03*
X68200000Y99500000D03*
X65660000Y99500000D03*
X63120000Y99500000D03*
X60580000Y99500000D03*
X58040000Y99500000D03*
X55500000Y99500000D03*
G04 #@! TD*
D14*
G04 #@! TO.C,P68*
X84754400Y30212600D03*
G04 #@! TD*
D15*
G04 #@! TO.C,M2*
X88724232Y98550019D03*
X126087498Y98550019D03*
X115187499Y98550019D03*
X100987500Y98550019D03*
X90112505Y94750007D03*
G04 #@! TD*
D23*
G04 #@! TO.C,R3*
X41800000Y29910000D03*
X41800000Y26100000D03*
G04 #@! TD*
D14*
G04 #@! TO.C,P8*
X80741200Y42785600D03*
G04 #@! TD*
G04 #@! TO.C,P48*
X75375000Y25575000D03*
G04 #@! TD*
G04 #@! TO.C,P45*
X81575000Y25575000D03*
G04 #@! TD*
D27*
G04 #@! TO.C,J1*
X81450000Y102300000D03*
D28*
X82250000Y104050000D03*
X83050000Y102300000D03*
X83850000Y104050000D03*
X84650000Y102300000D03*
D29*
X86700000Y103175000D03*
X79400000Y103175000D03*
G04 #@! TD*
D14*
G04 #@! TO.C,P11*
X66144800Y30212600D03*
G04 #@! TD*
G04 #@! TO.C,P43*
X38150000Y32675000D03*
G04 #@! TD*
D15*
G04 #@! TO.C,M8*
X91915984Y57912112D03*
X83690984Y56587108D03*
X83708489Y51354614D03*
X85590985Y50862108D03*
X78240992Y49737122D03*
G04 #@! TD*
D23*
G04 #@! TO.C,R11*
X11000000Y31880000D03*
X11000000Y28070000D03*
G04 #@! TD*
D30*
G04 #@! TO.C,J6*
X13662000Y73079000D03*
G04 #@! TD*
M02*
