G04 #@! TF.GenerationSoftware,KiCad,Pcbnew,(5.99.0-10483-ga6ad7a4a70)*
G04 #@! TF.CreationDate,2021-05-18T20:21:17+03:00*
G04 #@! TF.ProjectId,hellen121vag,68656c6c-656e-4313-9231-7661672e6b69,a*
G04 #@! TF.SameCoordinates,PX2b953a0PY6943058*
G04 #@! TF.FileFunction,Legend,Top*
G04 #@! TF.FilePolarity,Positive*
%FSLAX46Y46*%
G04 Gerber Fmt 4.6, Leading zero omitted, Abs format (unit mm)*
G04 Created by KiCad (PCBNEW (5.99.0-10483-ga6ad7a4a70)) date 2021-05-18 20:21:17*
%MOMM*%
%LPD*%
G01*
G04 APERTURE LIST*
%ADD10C,0.250000*%
%ADD11C,0.300000*%
%ADD12C,0.304800*%
%ADD13C,0.750000*%
%ADD14C,0.200000*%
%ADD15C,0.222250*%
%ADD16C,0.150000*%
%ADD17C,0.170000*%
%ADD18C,0.127000*%
%ADD19C,0.120000*%
%ADD20C,0.099060*%
%ADD21C,0.203200*%
%ADD22C,0.616000*%
%ADD23C,0.254000*%
%ADD24C,3.700000*%
%ADD25C,2.200000*%
%ADD26C,2.600000*%
%ADD27C,1.500000*%
%ADD28C,1.524000*%
G04 APERTURE END LIST*
D10*
X95841666Y18030239D02*
X94698809Y18030239D01*
X95270238Y18030239D02*
X95270238Y20030239D01*
X95079761Y19744524D01*
X94889285Y19554048D01*
X94698809Y19458810D01*
X97079761Y20030239D02*
X97270238Y20030239D01*
X97460714Y19935000D01*
X97555952Y19839762D01*
X97651190Y19649286D01*
X97746428Y19268334D01*
X97746428Y18792143D01*
X97651190Y18411191D01*
X97555952Y18220715D01*
X97460714Y18125477D01*
X97270238Y18030239D01*
X97079761Y18030239D01*
X96889285Y18125477D01*
X96794047Y18220715D01*
X96698809Y18411191D01*
X96603571Y18792143D01*
X96603571Y19268334D01*
X96698809Y19649286D01*
X96794047Y19839762D01*
X96889285Y19935000D01*
X97079761Y20030239D01*
X99460714Y20030239D02*
X99079761Y20030239D01*
X98889285Y19935000D01*
X98794047Y19839762D01*
X98603571Y19554048D01*
X98508333Y19173096D01*
X98508333Y18411191D01*
X98603571Y18220715D01*
X98698809Y18125477D01*
X98889285Y18030239D01*
X99270238Y18030239D01*
X99460714Y18125477D01*
X99555952Y18220715D01*
X99651190Y18411191D01*
X99651190Y18887381D01*
X99555952Y19077858D01*
X99460714Y19173096D01*
X99270238Y19268334D01*
X98889285Y19268334D01*
X98698809Y19173096D01*
X98603571Y19077858D01*
X98508333Y18887381D01*
X24530952Y21268572D02*
X24530952Y19935239D01*
X24054761Y22030477D02*
X23578571Y20601905D01*
X24816666Y20601905D01*
X33516190Y21935239D02*
X32563809Y21935239D01*
X32468571Y20982858D01*
X32563809Y21078096D01*
X32754285Y21173334D01*
X33230476Y21173334D01*
X33420952Y21078096D01*
X33516190Y20982858D01*
X33611428Y20792381D01*
X33611428Y20316191D01*
X33516190Y20125715D01*
X33420952Y20030477D01*
X33230476Y19935239D01*
X32754285Y19935239D01*
X32563809Y20030477D01*
X32468571Y20125715D01*
X32468571Y14124762D02*
X32563809Y14220000D01*
X32754285Y14315239D01*
X33230476Y14315239D01*
X33420952Y14220000D01*
X33516190Y14124762D01*
X33611428Y13934286D01*
X33611428Y13743810D01*
X33516190Y13458096D01*
X32373333Y12315239D01*
X33611428Y12315239D01*
D11*
X19419142Y79136143D02*
X20942952Y79136143D01*
X20181047Y78374239D02*
X20181047Y79898048D01*
X21704857Y80374239D02*
X22942952Y80374239D01*
X22276285Y79612334D01*
X22562000Y79612334D01*
X22752476Y79517096D01*
X22847714Y79421858D01*
X22942952Y79231381D01*
X22942952Y78755191D01*
X22847714Y78564715D01*
X22752476Y78469477D01*
X22562000Y78374239D01*
X21990571Y78374239D01*
X21800095Y78469477D01*
X21704857Y78564715D01*
X23800095Y78564715D02*
X23895333Y78469477D01*
X23800095Y78374239D01*
X23704857Y78469477D01*
X23800095Y78564715D01*
X23800095Y78374239D01*
X24562000Y80374239D02*
X25800095Y80374239D01*
X25133428Y79612334D01*
X25419142Y79612334D01*
X25609619Y79517096D01*
X25704857Y79421858D01*
X25800095Y79231381D01*
X25800095Y78755191D01*
X25704857Y78564715D01*
X25609619Y78469477D01*
X25419142Y78374239D01*
X24847714Y78374239D01*
X24657238Y78469477D01*
X24562000Y78564715D01*
D12*
X106069428Y109080762D02*
X106069428Y111112761D01*
X106722571Y109080762D02*
X106722571Y110145143D01*
X106650000Y110338667D01*
X106504857Y110435428D01*
X106287142Y110435428D01*
X106142000Y110338667D01*
X106069428Y110241905D01*
X107230571Y110435428D02*
X107811142Y110435428D01*
X107448285Y111112761D02*
X107448285Y109371048D01*
X107520857Y109177524D01*
X107666000Y109080762D01*
X107811142Y109080762D01*
X108101428Y110435428D02*
X108682000Y110435428D01*
X108319142Y111112761D02*
X108319142Y109371048D01*
X108391714Y109177524D01*
X108536857Y109080762D01*
X108682000Y109080762D01*
X109190000Y110435428D02*
X109190000Y108403429D01*
X109190000Y110338667D02*
X109335142Y110435428D01*
X109625428Y110435428D01*
X109770571Y110338667D01*
X109843142Y110241905D01*
X109915714Y110048381D01*
X109915714Y109467810D01*
X109843142Y109274286D01*
X109770571Y109177524D01*
X109625428Y109080762D01*
X109335142Y109080762D01*
X109190000Y109177524D01*
X110568857Y109274286D02*
X110641428Y109177524D01*
X110568857Y109080762D01*
X110496285Y109177524D01*
X110568857Y109274286D01*
X110568857Y109080762D01*
X110568857Y110338667D02*
X110641428Y110241905D01*
X110568857Y110145143D01*
X110496285Y110241905D01*
X110568857Y110338667D01*
X110568857Y110145143D01*
X112383142Y111209523D02*
X111076857Y108596953D01*
X113979714Y111209523D02*
X112673428Y108596953D01*
X114487714Y109080762D02*
X114487714Y110435428D01*
X114487714Y110048381D02*
X114560285Y110241905D01*
X114632857Y110338667D01*
X114778000Y110435428D01*
X114923142Y110435428D01*
X116084285Y110435428D02*
X116084285Y109080762D01*
X115431142Y110435428D02*
X115431142Y109371048D01*
X115503714Y109177524D01*
X115648857Y109080762D01*
X115866571Y109080762D01*
X116011714Y109177524D01*
X116084285Y109274286D01*
X116737428Y109177524D02*
X116882571Y109080762D01*
X117172857Y109080762D01*
X117318000Y109177524D01*
X117390571Y109371048D01*
X117390571Y109467810D01*
X117318000Y109661334D01*
X117172857Y109758096D01*
X116955142Y109758096D01*
X116810000Y109854858D01*
X116737428Y110048381D01*
X116737428Y110145143D01*
X116810000Y110338667D01*
X116955142Y110435428D01*
X117172857Y110435428D01*
X117318000Y110338667D01*
X118624285Y109177524D02*
X118479142Y109080762D01*
X118188857Y109080762D01*
X118043714Y109177524D01*
X117971142Y109371048D01*
X117971142Y110145143D01*
X118043714Y110338667D01*
X118188857Y110435428D01*
X118479142Y110435428D01*
X118624285Y110338667D01*
X118696857Y110145143D01*
X118696857Y109951620D01*
X117971142Y109758096D01*
X119132285Y110435428D02*
X119712857Y110435428D01*
X119350000Y109080762D02*
X119350000Y110822476D01*
X119422571Y111016000D01*
X119567714Y111112761D01*
X119712857Y111112761D01*
X120220857Y109080762D02*
X120220857Y110435428D01*
X120220857Y111112761D02*
X120148285Y111016000D01*
X120220857Y110919238D01*
X120293428Y111016000D01*
X120220857Y111112761D01*
X120220857Y110919238D01*
X120946571Y109274286D02*
X121019142Y109177524D01*
X120946571Y109080762D01*
X120874000Y109177524D01*
X120946571Y109274286D01*
X120946571Y109080762D01*
X122325428Y109177524D02*
X122180285Y109080762D01*
X121890000Y109080762D01*
X121744857Y109177524D01*
X121672285Y109274286D01*
X121599714Y109467810D01*
X121599714Y110048381D01*
X121672285Y110241905D01*
X121744857Y110338667D01*
X121890000Y110435428D01*
X122180285Y110435428D01*
X122325428Y110338667D01*
X123196285Y109080762D02*
X123051142Y109177524D01*
X122978571Y109274286D01*
X122906000Y109467810D01*
X122906000Y110048381D01*
X122978571Y110241905D01*
X123051142Y110338667D01*
X123196285Y110435428D01*
X123414000Y110435428D01*
X123559142Y110338667D01*
X123631714Y110241905D01*
X123704285Y110048381D01*
X123704285Y109467810D01*
X123631714Y109274286D01*
X123559142Y109177524D01*
X123414000Y109080762D01*
X123196285Y109080762D01*
X124357428Y109080762D02*
X124357428Y110435428D01*
X124357428Y110241905D02*
X124430000Y110338667D01*
X124575142Y110435428D01*
X124792857Y110435428D01*
X124938000Y110338667D01*
X125010571Y110145143D01*
X125010571Y109080762D01*
X125010571Y110145143D02*
X125083142Y110338667D01*
X125228285Y110435428D01*
X125446000Y110435428D01*
X125591142Y110338667D01*
X125663714Y110145143D01*
X125663714Y109080762D01*
X127478000Y111209523D02*
X126171714Y108596953D01*
X127913428Y109177524D02*
X128058571Y109080762D01*
X128348857Y109080762D01*
X128494000Y109177524D01*
X128566571Y109371048D01*
X128566571Y109467810D01*
X128494000Y109661334D01*
X128348857Y109758096D01*
X128131142Y109758096D01*
X127986000Y109854858D01*
X127913428Y110048381D01*
X127913428Y110145143D01*
X127986000Y110338667D01*
X128131142Y110435428D01*
X128348857Y110435428D01*
X128494000Y110338667D01*
X130308285Y111209523D02*
X129002000Y108596953D01*
X130816285Y109080762D02*
X130816285Y111112761D01*
X131469428Y109080762D02*
X131469428Y110145143D01*
X131396857Y110338667D01*
X131251714Y110435428D01*
X131034000Y110435428D01*
X130888857Y110338667D01*
X130816285Y110241905D01*
X132775714Y109177524D02*
X132630571Y109080762D01*
X132340285Y109080762D01*
X132195142Y109177524D01*
X132122571Y109371048D01*
X132122571Y110145143D01*
X132195142Y110338667D01*
X132340285Y110435428D01*
X132630571Y110435428D01*
X132775714Y110338667D01*
X132848285Y110145143D01*
X132848285Y109951620D01*
X132122571Y109758096D01*
X133719142Y109080762D02*
X133574000Y109177524D01*
X133501428Y109371048D01*
X133501428Y111112761D01*
X134517428Y109080762D02*
X134372285Y109177524D01*
X134299714Y109371048D01*
X134299714Y111112761D01*
X135678571Y109177524D02*
X135533428Y109080762D01*
X135243142Y109080762D01*
X135098000Y109177524D01*
X135025428Y109371048D01*
X135025428Y110145143D01*
X135098000Y110338667D01*
X135243142Y110435428D01*
X135533428Y110435428D01*
X135678571Y110338667D01*
X135751142Y110145143D01*
X135751142Y109951620D01*
X135025428Y109758096D01*
X136404285Y110435428D02*
X136404285Y109080762D01*
X136404285Y110241905D02*
X136476857Y110338667D01*
X136622000Y110435428D01*
X136839714Y110435428D01*
X136984857Y110338667D01*
X137057428Y110145143D01*
X137057428Y109080762D01*
X138581428Y109080762D02*
X137710571Y109080762D01*
X138146000Y109080762D02*
X138146000Y111112761D01*
X138000857Y110822476D01*
X137855714Y110628952D01*
X137710571Y110532190D01*
X139162000Y110919238D02*
X139234571Y111016000D01*
X139379714Y111112761D01*
X139742571Y111112761D01*
X139887714Y111016000D01*
X139960285Y110919238D01*
X140032857Y110725714D01*
X140032857Y110532190D01*
X139960285Y110241905D01*
X139089428Y109080762D01*
X140032857Y109080762D01*
X141484285Y109080762D02*
X140613428Y109080762D01*
X141048857Y109080762D02*
X141048857Y111112761D01*
X140903714Y110822476D01*
X140758571Y110628952D01*
X140613428Y110532190D01*
X141992285Y110435428D02*
X142355142Y109080762D01*
X142718000Y110435428D01*
X143951714Y109080762D02*
X143951714Y110145143D01*
X143879142Y110338667D01*
X143734000Y110435428D01*
X143443714Y110435428D01*
X143298571Y110338667D01*
X143951714Y109177524D02*
X143806571Y109080762D01*
X143443714Y109080762D01*
X143298571Y109177524D01*
X143226000Y109371048D01*
X143226000Y109564572D01*
X143298571Y109758096D01*
X143443714Y109854858D01*
X143806571Y109854858D01*
X143951714Y109951620D01*
X145330571Y110435428D02*
X145330571Y108790477D01*
X145258000Y108596953D01*
X145185428Y108500191D01*
X145040285Y108403429D01*
X144822571Y108403429D01*
X144677428Y108500191D01*
X145330571Y109177524D02*
X145185428Y109080762D01*
X144895142Y109080762D01*
X144750000Y109177524D01*
X144677428Y109274286D01*
X144604857Y109467810D01*
X144604857Y110048381D01*
X144677428Y110241905D01*
X144750000Y110338667D01*
X144895142Y110435428D01*
X145185428Y110435428D01*
X145330571Y110338667D01*
D10*
X130238571Y7775000D02*
X130238571Y6917858D01*
X130238571Y7346429D02*
X128738571Y7346429D01*
X128952857Y7203572D01*
X129095714Y7060715D01*
X129167142Y6917858D01*
X130238571Y9203572D02*
X130238571Y8346429D01*
X130238571Y8775000D02*
X128738571Y8775000D01*
X128952857Y8632143D01*
X129095714Y8489286D01*
X129167142Y8346429D01*
X128738571Y9703572D02*
X128738571Y10703572D01*
X130238571Y10060715D01*
X139128571Y21745000D02*
X139128571Y20887858D01*
X139128571Y21316429D02*
X137628571Y21316429D01*
X137842857Y21173572D01*
X137985714Y21030715D01*
X138057142Y20887858D01*
X137771428Y22316429D02*
X137700000Y22387858D01*
X137628571Y22530715D01*
X137628571Y22887858D01*
X137700000Y23030715D01*
X137771428Y23102143D01*
X137914285Y23173572D01*
X138057142Y23173572D01*
X138271428Y23102143D01*
X139128571Y22245000D01*
X139128571Y23173572D01*
X139128571Y24602143D02*
X139128571Y23745000D01*
X139128571Y24173572D02*
X137628571Y24173572D01*
X137842857Y24030715D01*
X137985714Y23887858D01*
X138057142Y23745000D01*
D12*
X133428000Y104611143D02*
X134589142Y104611143D01*
X134008571Y104030572D02*
X134008571Y105191715D01*
X136113142Y104030572D02*
X135242285Y104030572D01*
X135677714Y104030572D02*
X135677714Y105554572D01*
X135532571Y105336858D01*
X135387428Y105191715D01*
X135242285Y105119143D01*
X136693714Y105409429D02*
X136766285Y105482000D01*
X136911428Y105554572D01*
X137274285Y105554572D01*
X137419428Y105482000D01*
X137492000Y105409429D01*
X137564571Y105264286D01*
X137564571Y105119143D01*
X137492000Y104901429D01*
X136621142Y104030572D01*
X137564571Y104030572D01*
D13*
X19412000Y107019477D02*
X19412000Y111019476D01*
X19412000Y109114715D02*
X21126285Y109114715D01*
X21126285Y107019477D02*
X21126285Y111019476D01*
X23697714Y107209953D02*
X23412000Y107019477D01*
X22840571Y107019477D01*
X22554857Y107209953D01*
X22412000Y107590905D01*
X22412000Y109114715D01*
X22554857Y109495667D01*
X22840571Y109686143D01*
X23412000Y109686143D01*
X23697714Y109495667D01*
X23840571Y109114715D01*
X23840571Y108733762D01*
X22412000Y108352810D01*
X25554857Y107019477D02*
X25269142Y107209953D01*
X25126285Y107590905D01*
X25126285Y111019476D01*
X27126285Y107019477D02*
X26840571Y107209953D01*
X26697714Y107590905D01*
X26697714Y111019476D01*
X29412000Y107209953D02*
X29126285Y107019477D01*
X28554857Y107019477D01*
X28269142Y107209953D01*
X28126285Y107590905D01*
X28126285Y109114715D01*
X28269142Y109495667D01*
X28554857Y109686143D01*
X29126285Y109686143D01*
X29412000Y109495667D01*
X29554857Y109114715D01*
X29554857Y108733762D01*
X28126285Y108352810D01*
X30840571Y109686143D02*
X30840571Y107019477D01*
X30840571Y109305191D02*
X30983428Y109495667D01*
X31269142Y109686143D01*
X31697714Y109686143D01*
X31983428Y109495667D01*
X32126285Y109114715D01*
X32126285Y107019477D01*
X35126285Y107019477D02*
X33412000Y107019477D01*
X34269142Y107019477D02*
X34269142Y111019476D01*
X33983428Y110448047D01*
X33697714Y110067096D01*
X33412000Y109876620D01*
X36269142Y110638523D02*
X36412000Y110829000D01*
X36697714Y111019476D01*
X37412000Y111019476D01*
X37697714Y110829000D01*
X37840571Y110638523D01*
X37983428Y110257572D01*
X37983428Y109876620D01*
X37840571Y109305191D01*
X36126285Y107019477D01*
X37983428Y107019477D01*
X40840571Y107019477D02*
X39126285Y107019477D01*
X39983428Y107019477D02*
X39983428Y111019476D01*
X39697714Y110448047D01*
X39412000Y110067096D01*
X39126285Y109876620D01*
X41840571Y109686143D02*
X42554857Y107019477D01*
X43269142Y109686143D01*
X45697714Y107019477D02*
X45697714Y109114715D01*
X45554857Y109495667D01*
X45269142Y109686143D01*
X44697714Y109686143D01*
X44412000Y109495667D01*
X45697714Y107209953D02*
X45412000Y107019477D01*
X44697714Y107019477D01*
X44412000Y107209953D01*
X44269142Y107590905D01*
X44269142Y107971858D01*
X44412000Y108352810D01*
X44697714Y108543286D01*
X45412000Y108543286D01*
X45697714Y108733762D01*
X48412000Y109686143D02*
X48412000Y106448048D01*
X48269142Y106067096D01*
X48126285Y105876620D01*
X47840571Y105686143D01*
X47412000Y105686143D01*
X47126285Y105876620D01*
X48412000Y107209953D02*
X48126285Y107019477D01*
X47554857Y107019477D01*
X47269142Y107209953D01*
X47126285Y107400429D01*
X46983428Y107781381D01*
X46983428Y108924239D01*
X47126285Y109305191D01*
X47269142Y109495667D01*
X47554857Y109686143D01*
X48126285Y109686143D01*
X48412000Y109495667D01*
D14*
X54082380Y4790477D02*
X54082380Y5457143D01*
X55082380Y5028572D01*
X54082380Y6314286D02*
X54082380Y5838096D01*
X54558571Y5790477D01*
X54510952Y5838096D01*
X54463333Y5933334D01*
X54463333Y6171429D01*
X54510952Y6266667D01*
X54558571Y6314286D01*
X54653809Y6361905D01*
X54891904Y6361905D01*
X54987142Y6314286D01*
X55034761Y6266667D01*
X55082380Y6171429D01*
X55082380Y5933334D01*
X55034761Y5838096D01*
X54987142Y5790477D01*
D11*
X19695333Y91136143D02*
X21219142Y91136143D01*
X20457238Y90374239D02*
X20457238Y91898048D01*
X23219142Y90374239D02*
X22076285Y90374239D01*
X22647714Y90374239D02*
X22647714Y92374239D01*
X22457238Y92088524D01*
X22266761Y91898048D01*
X22076285Y91802810D01*
X23981047Y92183762D02*
X24076285Y92279000D01*
X24266761Y92374239D01*
X24742952Y92374239D01*
X24933428Y92279000D01*
X25028666Y92183762D01*
X25123904Y91993286D01*
X25123904Y91802810D01*
X25028666Y91517096D01*
X23885809Y90374239D01*
X25123904Y90374239D01*
D14*
X69322380Y5314286D02*
X69322380Y5123810D01*
X69370000Y5028572D01*
X69417619Y4980953D01*
X69560476Y4885715D01*
X69750952Y4838096D01*
X70131904Y4838096D01*
X70227142Y4885715D01*
X70274761Y4933334D01*
X70322380Y5028572D01*
X70322380Y5219048D01*
X70274761Y5314286D01*
X70227142Y5361905D01*
X70131904Y5409524D01*
X69893809Y5409524D01*
X69798571Y5361905D01*
X69750952Y5314286D01*
X69703333Y5219048D01*
X69703333Y5028572D01*
X69750952Y4933334D01*
X69798571Y4885715D01*
X69893809Y4838096D01*
X70322380Y5885715D02*
X70322380Y6076191D01*
X70274761Y6171429D01*
X70227142Y6219048D01*
X70084285Y6314286D01*
X69893809Y6361905D01*
X69512857Y6361905D01*
X69417619Y6314286D01*
X69370000Y6266667D01*
X69322380Y6171429D01*
X69322380Y5980953D01*
X69370000Y5885715D01*
X69417619Y5838096D01*
X69512857Y5790477D01*
X69750952Y5790477D01*
X69846190Y5838096D01*
X69893809Y5885715D01*
X69941428Y5980953D01*
X69941428Y6171429D01*
X69893809Y6266667D01*
X69846190Y6314286D01*
X69750952Y6361905D01*
D10*
X86761190Y16664762D02*
X86856428Y16760000D01*
X87046904Y16855239D01*
X87523095Y16855239D01*
X87713571Y16760000D01*
X87808809Y16664762D01*
X87904047Y16474286D01*
X87904047Y16283810D01*
X87808809Y15998096D01*
X86665952Y14855239D01*
X87904047Y14855239D01*
X89713571Y16855239D02*
X88761190Y16855239D01*
X88665952Y15902858D01*
X88761190Y15998096D01*
X88951666Y16093334D01*
X89427857Y16093334D01*
X89618333Y15998096D01*
X89713571Y15902858D01*
X89808809Y15712381D01*
X89808809Y15236191D01*
X89713571Y15045715D01*
X89618333Y14950477D01*
X89427857Y14855239D01*
X88951666Y14855239D01*
X88761190Y14950477D01*
X88665952Y15045715D01*
X133413571Y5870000D02*
X133413571Y5012858D01*
X133413571Y5441429D02*
X131913571Y5441429D01*
X132127857Y5298572D01*
X132270714Y5155715D01*
X132342142Y5012858D01*
X133413571Y7298572D02*
X133413571Y6441429D01*
X133413571Y6870000D02*
X131913571Y6870000D01*
X132127857Y6727143D01*
X132270714Y6584286D01*
X132342142Y6441429D01*
X131913571Y8655715D02*
X131913571Y7941429D01*
X132627857Y7870000D01*
X132556428Y7941429D01*
X132485000Y8084286D01*
X132485000Y8441429D01*
X132556428Y8584286D01*
X132627857Y8655715D01*
X132770714Y8727143D01*
X133127857Y8727143D01*
X133270714Y8655715D01*
X133342142Y8584286D01*
X133413571Y8441429D01*
X133413571Y8084286D01*
X133342142Y7941429D01*
X133270714Y7870000D01*
X36278571Y16188572D02*
X36278571Y14855239D01*
X35802380Y16950477D02*
X35326190Y15521905D01*
X36564285Y15521905D01*
X37135714Y16855239D02*
X38373809Y16855239D01*
X37707142Y16093334D01*
X37992857Y16093334D01*
X38183333Y15998096D01*
X38278571Y15902858D01*
X38373809Y15712381D01*
X38373809Y15236191D01*
X38278571Y15045715D01*
X38183333Y14950477D01*
X37992857Y14855239D01*
X37421428Y14855239D01*
X37230952Y14950477D01*
X37135714Y15045715D01*
D12*
X141238857Y92862000D02*
X141093714Y92934572D01*
X140876000Y92934572D01*
X140658285Y92862000D01*
X140513142Y92716858D01*
X140440571Y92571715D01*
X140368000Y92281429D01*
X140368000Y92063715D01*
X140440571Y91773429D01*
X140513142Y91628286D01*
X140658285Y91483143D01*
X140876000Y91410572D01*
X141021142Y91410572D01*
X141238857Y91483143D01*
X141311428Y91555715D01*
X141311428Y92063715D01*
X141021142Y92063715D01*
X141964571Y91410572D02*
X141964571Y92934572D01*
X142835428Y91410572D01*
X142835428Y92934572D01*
X143561142Y91410572D02*
X143561142Y92934572D01*
X143924000Y92934572D01*
X144141714Y92862000D01*
X144286857Y92716858D01*
X144359428Y92571715D01*
X144432000Y92281429D01*
X144432000Y92063715D01*
X144359428Y91773429D01*
X144286857Y91628286D01*
X144141714Y91483143D01*
X143924000Y91410572D01*
X143561142Y91410572D01*
D14*
X55082380Y20649524D02*
X55082380Y20078096D01*
X55082380Y20363810D02*
X54082380Y20363810D01*
X54225238Y20268572D01*
X54320476Y20173334D01*
X54368095Y20078096D01*
X54510952Y21220953D02*
X54463333Y21125715D01*
X54415714Y21078096D01*
X54320476Y21030477D01*
X54272857Y21030477D01*
X54177619Y21078096D01*
X54130000Y21125715D01*
X54082380Y21220953D01*
X54082380Y21411429D01*
X54130000Y21506667D01*
X54177619Y21554286D01*
X54272857Y21601905D01*
X54320476Y21601905D01*
X54415714Y21554286D01*
X54463333Y21506667D01*
X54510952Y21411429D01*
X54510952Y21220953D01*
X54558571Y21125715D01*
X54606190Y21078096D01*
X54701428Y21030477D01*
X54891904Y21030477D01*
X54987142Y21078096D01*
X55034761Y21125715D01*
X55082380Y21220953D01*
X55082380Y21411429D01*
X55034761Y21506667D01*
X54987142Y21554286D01*
X54891904Y21601905D01*
X54701428Y21601905D01*
X54606190Y21554286D01*
X54558571Y21506667D01*
X54510952Y21411429D01*
D11*
X7152380Y60095239D02*
X7152380Y62095239D01*
X7628571Y62095239D01*
X7914285Y62000000D01*
X8104761Y61809524D01*
X8200000Y61619048D01*
X8295238Y61238096D01*
X8295238Y60952381D01*
X8200000Y60571429D01*
X8104761Y60380953D01*
X7914285Y60190477D01*
X7628571Y60095239D01*
X7152380Y60095239D01*
X9152380Y60095239D02*
X9152380Y62095239D01*
X10485714Y62095239D02*
X10866666Y62095239D01*
X11057142Y62000000D01*
X11247619Y61809524D01*
X11342857Y61428572D01*
X11342857Y60761905D01*
X11247619Y60380953D01*
X11057142Y60190477D01*
X10866666Y60095239D01*
X10485714Y60095239D01*
X10295238Y60190477D01*
X10104761Y60380953D01*
X10009523Y60761905D01*
X10009523Y61428572D01*
X10104761Y61809524D01*
X10295238Y62000000D01*
X10485714Y62095239D01*
D10*
X120606666Y9140239D02*
X120987619Y9140239D01*
X121178095Y9235477D01*
X121273333Y9330715D01*
X121463809Y9616429D01*
X121559047Y9997381D01*
X121559047Y10759286D01*
X121463809Y10949762D01*
X121368571Y11045000D01*
X121178095Y11140239D01*
X120797142Y11140239D01*
X120606666Y11045000D01*
X120511428Y10949762D01*
X120416190Y10759286D01*
X120416190Y10283096D01*
X120511428Y10092620D01*
X120606666Y9997381D01*
X120797142Y9902143D01*
X121178095Y9902143D01*
X121368571Y9997381D01*
X121463809Y10092620D01*
X121559047Y10283096D01*
X122225714Y11140239D02*
X123559047Y11140239D01*
X122701904Y9140239D01*
D11*
X11976190Y74100000D02*
X11785714Y74195239D01*
X11500000Y74195239D01*
X11214285Y74100000D01*
X11023809Y73909524D01*
X10928571Y73719048D01*
X10833333Y73338096D01*
X10833333Y73052381D01*
X10928571Y72671429D01*
X11023809Y72480953D01*
X11214285Y72290477D01*
X11500000Y72195239D01*
X11690476Y72195239D01*
X11976190Y72290477D01*
X12071428Y72385715D01*
X12071428Y73052381D01*
X11690476Y73052381D01*
X12928571Y72195239D02*
X12928571Y74195239D01*
X14071428Y72195239D01*
X14071428Y74195239D01*
X15023809Y72195239D02*
X15023809Y74195239D01*
X15500000Y74195239D01*
X15785714Y74100000D01*
X15976190Y73909524D01*
X16071428Y73719048D01*
X16166666Y73338096D01*
X16166666Y73052381D01*
X16071428Y72671429D01*
X15976190Y72480953D01*
X15785714Y72290477D01*
X15500000Y72195239D01*
X15023809Y72195239D01*
D12*
X69678571Y102086572D02*
X68964285Y101578572D01*
X69678571Y101215715D02*
X68178571Y101215715D01*
X68178571Y101796286D01*
X68250000Y101941429D01*
X68321428Y102014000D01*
X68464285Y102086572D01*
X68678571Y102086572D01*
X68821428Y102014000D01*
X68892857Y101941429D01*
X68964285Y101796286D01*
X68964285Y101215715D01*
X68892857Y102739715D02*
X68892857Y103247715D01*
X69678571Y103465429D02*
X69678571Y102739715D01*
X68178571Y102739715D01*
X68178571Y103465429D01*
X69607142Y104046000D02*
X69678571Y104263715D01*
X69678571Y104626572D01*
X69607142Y104771715D01*
X69535714Y104844286D01*
X69392857Y104916858D01*
X69250000Y104916858D01*
X69107142Y104844286D01*
X69035714Y104771715D01*
X68964285Y104626572D01*
X68892857Y104336286D01*
X68821428Y104191143D01*
X68750000Y104118572D01*
X68607142Y104046000D01*
X68464285Y104046000D01*
X68321428Y104118572D01*
X68250000Y104191143D01*
X68178571Y104336286D01*
X68178571Y104699143D01*
X68250000Y104916858D01*
X68892857Y105570000D02*
X68892857Y106078000D01*
X69678571Y106295715D02*
X69678571Y105570000D01*
X68178571Y105570000D01*
X68178571Y106295715D01*
X68178571Y106731143D02*
X68178571Y107602000D01*
X69678571Y107166572D02*
X68178571Y107166572D01*
D10*
X35326190Y19839762D02*
X35421428Y19935000D01*
X35611904Y20030239D01*
X36088095Y20030239D01*
X36278571Y19935000D01*
X36373809Y19839762D01*
X36469047Y19649286D01*
X36469047Y19458810D01*
X36373809Y19173096D01*
X35230952Y18030239D01*
X36469047Y18030239D01*
X38183333Y19363572D02*
X38183333Y18030239D01*
X37707142Y20125477D02*
X37230952Y18696905D01*
X38469047Y18696905D01*
X96476666Y14855239D02*
X96857619Y14855239D01*
X97048095Y14950477D01*
X97143333Y15045715D01*
X97333809Y15331429D01*
X97429047Y15712381D01*
X97429047Y16474286D01*
X97333809Y16664762D01*
X97238571Y16760000D01*
X97048095Y16855239D01*
X96667142Y16855239D01*
X96476666Y16760000D01*
X96381428Y16664762D01*
X96286190Y16474286D01*
X96286190Y15998096D01*
X96381428Y15807620D01*
X96476666Y15712381D01*
X96667142Y15617143D01*
X97048095Y15617143D01*
X97238571Y15712381D01*
X97333809Y15807620D01*
X97429047Y15998096D01*
X98571904Y15998096D02*
X98381428Y16093334D01*
X98286190Y16188572D01*
X98190952Y16379048D01*
X98190952Y16474286D01*
X98286190Y16664762D01*
X98381428Y16760000D01*
X98571904Y16855239D01*
X98952857Y16855239D01*
X99143333Y16760000D01*
X99238571Y16664762D01*
X99333809Y16474286D01*
X99333809Y16379048D01*
X99238571Y16188572D01*
X99143333Y16093334D01*
X98952857Y15998096D01*
X98571904Y15998096D01*
X98381428Y15902858D01*
X98286190Y15807620D01*
X98190952Y15617143D01*
X98190952Y15236191D01*
X98286190Y15045715D01*
X98381428Y14950477D01*
X98571904Y14855239D01*
X98952857Y14855239D01*
X99143333Y14950477D01*
X99238571Y15045715D01*
X99333809Y15236191D01*
X99333809Y15617143D01*
X99238571Y15807620D01*
X99143333Y15902858D01*
X98952857Y15998096D01*
D12*
X51401142Y110528952D02*
X51256000Y110625714D01*
X50965714Y110625714D01*
X50820571Y110528952D01*
X50675428Y110335429D01*
X50602857Y110141905D01*
X50602857Y109754858D01*
X50675428Y109561334D01*
X50820571Y109367810D01*
X50965714Y109271048D01*
X51256000Y109271048D01*
X51401142Y109367810D01*
X51110857Y111303047D02*
X50748000Y111206285D01*
X50385142Y110916000D01*
X50167428Y110432190D01*
X50094857Y109948381D01*
X50167428Y109464572D01*
X50385142Y108980762D01*
X50748000Y108690477D01*
X51110857Y108593715D01*
X51473714Y108690477D01*
X51836571Y108980762D01*
X52054285Y109464572D01*
X52126857Y109948381D01*
X52054285Y110432190D01*
X51836571Y110916000D01*
X51473714Y111206285D01*
X51110857Y111303047D01*
X54594285Y108980762D02*
X54594285Y110045143D01*
X54521714Y110238667D01*
X54376571Y110335429D01*
X54086285Y110335429D01*
X53941142Y110238667D01*
X54594285Y109077524D02*
X54449142Y108980762D01*
X54086285Y108980762D01*
X53941142Y109077524D01*
X53868571Y109271048D01*
X53868571Y109464572D01*
X53941142Y109658096D01*
X54086285Y109754858D01*
X54449142Y109754858D01*
X54594285Y109851620D01*
X55320000Y110335429D02*
X55320000Y108980762D01*
X55320000Y110141905D02*
X55392571Y110238667D01*
X55537714Y110335429D01*
X55755428Y110335429D01*
X55900571Y110238667D01*
X55973142Y110045143D01*
X55973142Y108980762D01*
X57352000Y108980762D02*
X57352000Y111012761D01*
X57352000Y109077524D02*
X57206857Y108980762D01*
X56916571Y108980762D01*
X56771428Y109077524D01*
X56698857Y109174286D01*
X56626285Y109367810D01*
X56626285Y109948381D01*
X56698857Y110141905D01*
X56771428Y110238667D01*
X56916571Y110335429D01*
X57206857Y110335429D01*
X57352000Y110238667D01*
X58077714Y108980762D02*
X58077714Y110335429D01*
X58077714Y109948381D02*
X58150285Y110141905D01*
X58222857Y110238667D01*
X58368000Y110335429D01*
X58513142Y110335429D01*
X59601714Y109077524D02*
X59456571Y108980762D01*
X59166285Y108980762D01*
X59021142Y109077524D01*
X58948571Y109271048D01*
X58948571Y110045143D01*
X59021142Y110238667D01*
X59166285Y110335429D01*
X59456571Y110335429D01*
X59601714Y110238667D01*
X59674285Y110045143D01*
X59674285Y109851620D01*
X58948571Y109658096D01*
X60327428Y108980762D02*
X60327428Y110335429D01*
X60327428Y111012761D02*
X60254857Y110916000D01*
X60327428Y110819238D01*
X60400000Y110916000D01*
X60327428Y111012761D01*
X60327428Y110819238D01*
X61053142Y108980762D02*
X61053142Y111012761D01*
X61198285Y109754858D02*
X61633714Y108980762D01*
X61633714Y110335429D02*
X61053142Y109561334D01*
X62940000Y108980762D02*
X62940000Y110045143D01*
X62867428Y110238667D01*
X62722285Y110335429D01*
X62432000Y110335429D01*
X62286857Y110238667D01*
X62940000Y109077524D02*
X62794857Y108980762D01*
X62432000Y108980762D01*
X62286857Y109077524D01*
X62214285Y109271048D01*
X62214285Y109464572D01*
X62286857Y109658096D01*
X62432000Y109754858D01*
X62794857Y109754858D01*
X62940000Y109851620D01*
X63738285Y109077524D02*
X63738285Y108980762D01*
X63665714Y108787239D01*
X63593142Y108690477D01*
X65480000Y110819238D02*
X65552571Y110916000D01*
X65697714Y111012761D01*
X66060571Y111012761D01*
X66205714Y110916000D01*
X66278285Y110819238D01*
X66350857Y110625714D01*
X66350857Y110432190D01*
X66278285Y110141905D01*
X65407428Y108980762D01*
X66350857Y108980762D01*
X67294285Y111012761D02*
X67439428Y111012761D01*
X67584571Y110916000D01*
X67657142Y110819238D01*
X67729714Y110625714D01*
X67802285Y110238667D01*
X67802285Y109754858D01*
X67729714Y109367810D01*
X67657142Y109174286D01*
X67584571Y109077524D01*
X67439428Y108980762D01*
X67294285Y108980762D01*
X67149142Y109077524D01*
X67076571Y109174286D01*
X67004000Y109367810D01*
X66931428Y109754858D01*
X66931428Y110238667D01*
X67004000Y110625714D01*
X67076571Y110819238D01*
X67149142Y110916000D01*
X67294285Y111012761D01*
X68382857Y110819238D02*
X68455428Y110916000D01*
X68600571Y111012761D01*
X68963428Y111012761D01*
X69108571Y110916000D01*
X69181142Y110819238D01*
X69253714Y110625714D01*
X69253714Y110432190D01*
X69181142Y110141905D01*
X68310285Y108980762D01*
X69253714Y108980762D01*
X70705142Y108980762D02*
X69834285Y108980762D01*
X70269714Y108980762D02*
X70269714Y111012761D01*
X70124571Y110722476D01*
X69979428Y110528952D01*
X69834285Y110432190D01*
D10*
X135953571Y7775000D02*
X135953571Y6917858D01*
X135953571Y7346429D02*
X134453571Y7346429D01*
X134667857Y7203572D01*
X134810714Y7060715D01*
X134882142Y6917858D01*
X135953571Y9203572D02*
X135953571Y8346429D01*
X135953571Y8775000D02*
X134453571Y8775000D01*
X134667857Y8632143D01*
X134810714Y8489286D01*
X134882142Y8346429D01*
X135096428Y10060715D02*
X135025000Y9917858D01*
X134953571Y9846429D01*
X134810714Y9775000D01*
X134739285Y9775000D01*
X134596428Y9846429D01*
X134525000Y9917858D01*
X134453571Y10060715D01*
X134453571Y10346429D01*
X134525000Y10489286D01*
X134596428Y10560715D01*
X134739285Y10632143D01*
X134810714Y10632143D01*
X134953571Y10560715D01*
X135025000Y10489286D01*
X135096428Y10346429D01*
X135096428Y10060715D01*
X135167857Y9917858D01*
X135239285Y9846429D01*
X135382142Y9775000D01*
X135667857Y9775000D01*
X135810714Y9846429D01*
X135882142Y9917858D01*
X135953571Y10060715D01*
X135953571Y10346429D01*
X135882142Y10489286D01*
X135810714Y10560715D01*
X135667857Y10632143D01*
X135382142Y10632143D01*
X135239285Y10560715D01*
X135167857Y10489286D01*
X135096428Y10346429D01*
D11*
X6533333Y68290477D02*
X6819047Y68195239D01*
X7295238Y68195239D01*
X7485714Y68290477D01*
X7580952Y68385715D01*
X7676190Y68576191D01*
X7676190Y68766667D01*
X7580952Y68957143D01*
X7485714Y69052381D01*
X7295238Y69147620D01*
X6914285Y69242858D01*
X6723809Y69338096D01*
X6628571Y69433334D01*
X6533333Y69623810D01*
X6533333Y69814286D01*
X6628571Y70004762D01*
X6723809Y70100000D01*
X6914285Y70195239D01*
X7390476Y70195239D01*
X7676190Y70100000D01*
X8342857Y70195239D02*
X8819047Y68195239D01*
X9200000Y69623810D01*
X9580952Y68195239D01*
X10057142Y70195239D01*
X10819047Y68195239D02*
X10819047Y70195239D01*
X11295238Y70195239D01*
X11580952Y70100000D01*
X11771428Y69909524D01*
X11866666Y69719048D01*
X11961904Y69338096D01*
X11961904Y69052381D01*
X11866666Y68671429D01*
X11771428Y68480953D01*
X11580952Y68290477D01*
X11295238Y68195239D01*
X10819047Y68195239D01*
X14152380Y70195239D02*
X14628571Y68195239D01*
X15009523Y69623810D01*
X15390476Y68195239D01*
X15866666Y70195239D01*
X17295238Y69242858D02*
X17580952Y69147620D01*
X17676190Y69052381D01*
X17771428Y68861905D01*
X17771428Y68576191D01*
X17676190Y68385715D01*
X17580952Y68290477D01*
X17390476Y68195239D01*
X16628571Y68195239D01*
X16628571Y70195239D01*
X17295238Y70195239D01*
X17485714Y70100000D01*
X17580952Y70004762D01*
X17676190Y69814286D01*
X17676190Y69623810D01*
X17580952Y69433334D01*
X17485714Y69338096D01*
X17295238Y69242858D01*
X16628571Y69242858D01*
X19009523Y70195239D02*
X19390476Y70195239D01*
X19580952Y70100000D01*
X19771428Y69909524D01*
X19866666Y69528572D01*
X19866666Y68861905D01*
X19771428Y68480953D01*
X19580952Y68290477D01*
X19390476Y68195239D01*
X19009523Y68195239D01*
X18819047Y68290477D01*
X18628571Y68480953D01*
X18533333Y68861905D01*
X18533333Y69528572D01*
X18628571Y69909524D01*
X18819047Y70100000D01*
X19009523Y70195239D01*
D12*
X59428069Y101246909D02*
X57928069Y101246909D01*
X57928069Y101827480D01*
X57999498Y101972623D01*
X58070926Y102045195D01*
X58213783Y102117766D01*
X58428069Y102117766D01*
X58570926Y102045195D01*
X58642355Y101972623D01*
X58713783Y101827480D01*
X58713783Y101246909D01*
X59428069Y103641766D02*
X58713783Y103133766D01*
X59428069Y102770909D02*
X57928069Y102770909D01*
X57928069Y103351480D01*
X57999498Y103496623D01*
X58070926Y103569195D01*
X58213783Y103641766D01*
X58428069Y103641766D01*
X58570926Y103569195D01*
X58642355Y103496623D01*
X58713783Y103351480D01*
X58713783Y102770909D01*
X57928069Y104585195D02*
X57928069Y104875480D01*
X57999498Y105020623D01*
X58142355Y105165766D01*
X58428069Y105238337D01*
X58928069Y105238337D01*
X59213783Y105165766D01*
X59356640Y105020623D01*
X59428069Y104875480D01*
X59428069Y104585195D01*
X59356640Y104440052D01*
X59213783Y104294909D01*
X58928069Y104222337D01*
X58428069Y104222337D01*
X58142355Y104294909D01*
X57999498Y104440052D01*
X57928069Y104585195D01*
X57999498Y106689766D02*
X57928069Y106544623D01*
X57928069Y106326909D01*
X57999498Y106109195D01*
X58142355Y105964052D01*
X58285212Y105891480D01*
X58570926Y105818909D01*
X58785212Y105818909D01*
X59070926Y105891480D01*
X59213783Y105964052D01*
X59356640Y106109195D01*
X59428069Y106326909D01*
X59428069Y106472052D01*
X59356640Y106689766D01*
X59285212Y106762337D01*
X58785212Y106762337D01*
X58785212Y106472052D01*
D10*
X24721428Y12315239D02*
X23578571Y12315239D01*
X24150000Y12315239D02*
X24150000Y14315239D01*
X23959523Y14029524D01*
X23769047Y13839048D01*
X23578571Y13743810D01*
X35707142Y7743096D02*
X35516666Y7838334D01*
X35421428Y7933572D01*
X35326190Y8124048D01*
X35326190Y8219286D01*
X35421428Y8409762D01*
X35516666Y8505000D01*
X35707142Y8600239D01*
X36088095Y8600239D01*
X36278571Y8505000D01*
X36373809Y8409762D01*
X36469047Y8219286D01*
X36469047Y8124048D01*
X36373809Y7933572D01*
X36278571Y7838334D01*
X36088095Y7743096D01*
X35707142Y7743096D01*
X35516666Y7647858D01*
X35421428Y7552620D01*
X35326190Y7362143D01*
X35326190Y6981191D01*
X35421428Y6790715D01*
X35516666Y6695477D01*
X35707142Y6600239D01*
X36088095Y6600239D01*
X36278571Y6695477D01*
X36373809Y6790715D01*
X36469047Y6981191D01*
X36469047Y7362143D01*
X36373809Y7552620D01*
X36278571Y7647858D01*
X36088095Y7743096D01*
X38373809Y6600239D02*
X37230952Y6600239D01*
X37802380Y6600239D02*
X37802380Y8600239D01*
X37611904Y8314524D01*
X37421428Y8124048D01*
X37230952Y8028810D01*
D11*
X8009523Y55085715D02*
X7914285Y54990477D01*
X7628571Y54895239D01*
X7438095Y54895239D01*
X7152380Y54990477D01*
X6961904Y55180953D01*
X6866666Y55371429D01*
X6771428Y55752381D01*
X6771428Y56038096D01*
X6866666Y56419048D01*
X6961904Y56609524D01*
X7152380Y56800000D01*
X7438095Y56895239D01*
X7628571Y56895239D01*
X7914285Y56800000D01*
X8009523Y56704762D01*
X9819047Y54895239D02*
X8866666Y54895239D01*
X8866666Y56895239D01*
X10485714Y54895239D02*
X10485714Y56895239D01*
X11628571Y54895239D02*
X10771428Y56038096D01*
X11628571Y56895239D02*
X10485714Y55752381D01*
X16809619Y98074239D02*
X17476285Y96074239D01*
X18142952Y98074239D01*
X18809619Y96074239D02*
X18809619Y97407572D01*
X18809619Y98074239D02*
X18714380Y97979000D01*
X18809619Y97883762D01*
X18904857Y97979000D01*
X18809619Y98074239D01*
X18809619Y97883762D01*
X20619142Y97407572D02*
X20619142Y95788524D01*
X20523904Y95598048D01*
X20428666Y95502810D01*
X20238190Y95407572D01*
X19952476Y95407572D01*
X19762000Y95502810D01*
X20619142Y96169477D02*
X20428666Y96074239D01*
X20047714Y96074239D01*
X19857238Y96169477D01*
X19762000Y96264715D01*
X19666761Y96455191D01*
X19666761Y97026620D01*
X19762000Y97217096D01*
X19857238Y97312334D01*
X20047714Y97407572D01*
X20428666Y97407572D01*
X20619142Y97312334D01*
X21571523Y97407572D02*
X21571523Y96074239D01*
X21571523Y97217096D02*
X21666761Y97312334D01*
X21857238Y97407572D01*
X22142952Y97407572D01*
X22333428Y97312334D01*
X22428666Y97121858D01*
X22428666Y96074239D01*
D10*
X127063571Y21745000D02*
X127063571Y20887858D01*
X127063571Y21316429D02*
X125563571Y21316429D01*
X125777857Y21173572D01*
X125920714Y21030715D01*
X125992142Y20887858D01*
X127063571Y23173572D02*
X127063571Y22316429D01*
X127063571Y22745000D02*
X125563571Y22745000D01*
X125777857Y22602143D01*
X125920714Y22459286D01*
X125992142Y22316429D01*
X127063571Y23887858D02*
X127063571Y24173572D01*
X126992142Y24316429D01*
X126920714Y24387858D01*
X126706428Y24530715D01*
X126420714Y24602143D01*
X125849285Y24602143D01*
X125706428Y24530715D01*
X125635000Y24459286D01*
X125563571Y24316429D01*
X125563571Y24030715D01*
X125635000Y23887858D01*
X125706428Y23816429D01*
X125849285Y23745000D01*
X126206428Y23745000D01*
X126349285Y23816429D01*
X126420714Y23887858D01*
X126492142Y24030715D01*
X126492142Y24316429D01*
X126420714Y24459286D01*
X126349285Y24530715D01*
X126206428Y24602143D01*
X87713571Y10473572D02*
X87713571Y9140239D01*
X87237380Y11235477D02*
X86761190Y9806905D01*
X87999285Y9806905D01*
X89618333Y10473572D02*
X89618333Y9140239D01*
X89142142Y11235477D02*
X88665952Y9806905D01*
X89904047Y9806905D01*
D12*
X133453714Y102011143D02*
X134614857Y102011143D01*
X134034285Y101430572D02*
X134034285Y102591715D01*
X136066285Y102954572D02*
X135340571Y102954572D01*
X135268000Y102228858D01*
X135340571Y102301429D01*
X135485714Y102374000D01*
X135848571Y102374000D01*
X135993714Y102301429D01*
X136066285Y102228858D01*
X136138857Y102083715D01*
X136138857Y101720858D01*
X136066285Y101575715D01*
X135993714Y101503143D01*
X135848571Y101430572D01*
X135485714Y101430572D01*
X135340571Y101503143D01*
X135268000Y101575715D01*
D10*
X96667142Y7743096D02*
X96476666Y7838334D01*
X96381428Y7933572D01*
X96286190Y8124048D01*
X96286190Y8219286D01*
X96381428Y8409762D01*
X96476666Y8505000D01*
X96667142Y8600239D01*
X97048095Y8600239D01*
X97238571Y8505000D01*
X97333809Y8409762D01*
X97429047Y8219286D01*
X97429047Y8124048D01*
X97333809Y7933572D01*
X97238571Y7838334D01*
X97048095Y7743096D01*
X96667142Y7743096D01*
X96476666Y7647858D01*
X96381428Y7552620D01*
X96286190Y7362143D01*
X96286190Y6981191D01*
X96381428Y6790715D01*
X96476666Y6695477D01*
X96667142Y6600239D01*
X97048095Y6600239D01*
X97238571Y6695477D01*
X97333809Y6790715D01*
X97429047Y6981191D01*
X97429047Y7362143D01*
X97333809Y7552620D01*
X97238571Y7647858D01*
X97048095Y7743096D01*
X98190952Y8409762D02*
X98286190Y8505000D01*
X98476666Y8600239D01*
X98952857Y8600239D01*
X99143333Y8505000D01*
X99238571Y8409762D01*
X99333809Y8219286D01*
X99333809Y8028810D01*
X99238571Y7743096D01*
X98095714Y6600239D01*
X99333809Y6600239D01*
X27928333Y16855239D02*
X29166428Y16855239D01*
X28499761Y16093334D01*
X28785476Y16093334D01*
X28975952Y15998096D01*
X29071190Y15902858D01*
X29166428Y15712381D01*
X29166428Y15236191D01*
X29071190Y15045715D01*
X28975952Y14950477D01*
X28785476Y14855239D01*
X28214047Y14855239D01*
X28023571Y14950477D01*
X27928333Y15045715D01*
X120797142Y7743096D02*
X120606666Y7838334D01*
X120511428Y7933572D01*
X120416190Y8124048D01*
X120416190Y8219286D01*
X120511428Y8409762D01*
X120606666Y8505000D01*
X120797142Y8600239D01*
X121178095Y8600239D01*
X121368571Y8505000D01*
X121463809Y8409762D01*
X121559047Y8219286D01*
X121559047Y8124048D01*
X121463809Y7933572D01*
X121368571Y7838334D01*
X121178095Y7743096D01*
X120797142Y7743096D01*
X120606666Y7647858D01*
X120511428Y7552620D01*
X120416190Y7362143D01*
X120416190Y6981191D01*
X120511428Y6790715D01*
X120606666Y6695477D01*
X120797142Y6600239D01*
X121178095Y6600239D01*
X121368571Y6695477D01*
X121463809Y6790715D01*
X121559047Y6981191D01*
X121559047Y7362143D01*
X121463809Y7552620D01*
X121368571Y7647858D01*
X121178095Y7743096D01*
X122511428Y6600239D02*
X122892380Y6600239D01*
X123082857Y6695477D01*
X123178095Y6790715D01*
X123368571Y7076429D01*
X123463809Y7457381D01*
X123463809Y8219286D01*
X123368571Y8409762D01*
X123273333Y8505000D01*
X123082857Y8600239D01*
X122701904Y8600239D01*
X122511428Y8505000D01*
X122416190Y8409762D01*
X122320952Y8219286D01*
X122320952Y7743096D01*
X122416190Y7552620D01*
X122511428Y7457381D01*
X122701904Y7362143D01*
X123082857Y7362143D01*
X123273333Y7457381D01*
X123368571Y7552620D01*
X123463809Y7743096D01*
D11*
X19747714Y85136143D02*
X21271523Y85136143D01*
X20509619Y84374239D02*
X20509619Y85898048D01*
X23176285Y86374239D02*
X22223904Y86374239D01*
X22128666Y85421858D01*
X22223904Y85517096D01*
X22414380Y85612334D01*
X22890571Y85612334D01*
X23081047Y85517096D01*
X23176285Y85421858D01*
X23271523Y85231381D01*
X23271523Y84755191D01*
X23176285Y84564715D01*
X23081047Y84469477D01*
X22890571Y84374239D01*
X22414380Y84374239D01*
X22223904Y84469477D01*
X22128666Y84564715D01*
D12*
X109744571Y103935429D02*
X108583428Y103354858D01*
X109744571Y102774286D01*
X110470285Y103354858D02*
X111631428Y103354858D01*
X113518285Y102580762D02*
X113518285Y104612762D01*
X114389142Y102580762D02*
X113736000Y103741905D01*
X114389142Y104612762D02*
X113518285Y103451620D01*
X115042285Y103935429D02*
X115042285Y102580762D01*
X115042285Y103741905D02*
X115114857Y103838667D01*
X115260000Y103935429D01*
X115477714Y103935429D01*
X115622857Y103838667D01*
X115695428Y103645143D01*
X115695428Y102580762D01*
X116638857Y102580762D02*
X116493714Y102677524D01*
X116421142Y102774286D01*
X116348571Y102967810D01*
X116348571Y103548381D01*
X116421142Y103741905D01*
X116493714Y103838667D01*
X116638857Y103935429D01*
X116856571Y103935429D01*
X117001714Y103838667D01*
X117074285Y103741905D01*
X117146857Y103548381D01*
X117146857Y102967810D01*
X117074285Y102774286D01*
X117001714Y102677524D01*
X116856571Y102580762D01*
X116638857Y102580762D01*
X118453142Y102677524D02*
X118308000Y102580762D01*
X118017714Y102580762D01*
X117872571Y102677524D01*
X117800000Y102774286D01*
X117727428Y102967810D01*
X117727428Y103548381D01*
X117800000Y103741905D01*
X117872571Y103838667D01*
X118017714Y103935429D01*
X118308000Y103935429D01*
X118453142Y103838667D01*
X119106285Y102580762D02*
X119106285Y104612762D01*
X119251428Y103354858D02*
X119686857Y102580762D01*
X119686857Y103935429D02*
X119106285Y103161334D01*
X122154285Y102580762D02*
X122154285Y103645143D01*
X122081714Y103838667D01*
X121936571Y103935429D01*
X121646285Y103935429D01*
X121501142Y103838667D01*
X122154285Y102677524D02*
X122009142Y102580762D01*
X121646285Y102580762D01*
X121501142Y102677524D01*
X121428571Y102871048D01*
X121428571Y103064572D01*
X121501142Y103258096D01*
X121646285Y103354858D01*
X122009142Y103354858D01*
X122154285Y103451620D01*
X123533142Y103935429D02*
X123533142Y102580762D01*
X122880000Y103935429D02*
X122880000Y102871048D01*
X122952571Y102677524D01*
X123097714Y102580762D01*
X123315428Y102580762D01*
X123460571Y102677524D01*
X123533142Y102774286D01*
X124912000Y102580762D02*
X124912000Y104612762D01*
X124912000Y102677524D02*
X124766857Y102580762D01*
X124476571Y102580762D01*
X124331428Y102677524D01*
X124258857Y102774286D01*
X124186285Y102967810D01*
X124186285Y103548381D01*
X124258857Y103741905D01*
X124331428Y103838667D01*
X124476571Y103935429D01*
X124766857Y103935429D01*
X124912000Y103838667D01*
X125637714Y102580762D02*
X125637714Y103935429D01*
X125637714Y104612762D02*
X125565142Y104516000D01*
X125637714Y104419239D01*
X125710285Y104516000D01*
X125637714Y104612762D01*
X125637714Y104419239D01*
X126581142Y102580762D02*
X126436000Y102677524D01*
X126363428Y102774286D01*
X126290857Y102967810D01*
X126290857Y103548381D01*
X126363428Y103741905D01*
X126436000Y103838667D01*
X126581142Y103935429D01*
X126798857Y103935429D01*
X126944000Y103838667D01*
X127016571Y103741905D01*
X127089142Y103548381D01*
X127089142Y102967810D01*
X127016571Y102774286D01*
X126944000Y102677524D01*
X126798857Y102580762D01*
X126581142Y102580762D01*
D10*
X87713571Y8600239D02*
X87332619Y8600239D01*
X87142142Y8505000D01*
X87046904Y8409762D01*
X86856428Y8124048D01*
X86761190Y7743096D01*
X86761190Y6981191D01*
X86856428Y6790715D01*
X86951666Y6695477D01*
X87142142Y6600239D01*
X87523095Y6600239D01*
X87713571Y6695477D01*
X87808809Y6790715D01*
X87904047Y6981191D01*
X87904047Y7457381D01*
X87808809Y7647858D01*
X87713571Y7743096D01*
X87523095Y7838334D01*
X87142142Y7838334D01*
X86951666Y7743096D01*
X86856428Y7647858D01*
X86761190Y7457381D01*
X88570714Y8600239D02*
X89808809Y8600239D01*
X89142142Y7838334D01*
X89427857Y7838334D01*
X89618333Y7743096D01*
X89713571Y7647858D01*
X89808809Y7457381D01*
X89808809Y6981191D01*
X89713571Y6790715D01*
X89618333Y6695477D01*
X89427857Y6600239D01*
X88856428Y6600239D01*
X88665952Y6695477D01*
X88570714Y6790715D01*
D12*
X133465142Y99411143D02*
X134626285Y99411143D01*
X134045714Y98830572D02*
X134045714Y99991715D01*
X135206857Y100354572D02*
X136150285Y100354572D01*
X135642285Y99774000D01*
X135860000Y99774000D01*
X136005142Y99701429D01*
X136077714Y99628858D01*
X136150285Y99483715D01*
X136150285Y99120858D01*
X136077714Y98975715D01*
X136005142Y98903143D01*
X135860000Y98830572D01*
X135424571Y98830572D01*
X135279428Y98903143D01*
X135206857Y98975715D01*
X136803428Y98975715D02*
X136876000Y98903143D01*
X136803428Y98830572D01*
X136730857Y98903143D01*
X136803428Y98975715D01*
X136803428Y98830572D01*
X137384000Y100354572D02*
X138327428Y100354572D01*
X137819428Y99774000D01*
X138037142Y99774000D01*
X138182285Y99701429D01*
X138254857Y99628858D01*
X138327428Y99483715D01*
X138327428Y99120858D01*
X138254857Y98975715D01*
X138182285Y98903143D01*
X138037142Y98830572D01*
X137601714Y98830572D01*
X137456571Y98903143D01*
X137384000Y98975715D01*
X137899142Y97662000D02*
X137754000Y97734572D01*
X137536285Y97734572D01*
X137318571Y97662000D01*
X137173428Y97516858D01*
X137100857Y97371715D01*
X137028285Y97081429D01*
X137028285Y96863715D01*
X137100857Y96573429D01*
X137173428Y96428286D01*
X137318571Y96283143D01*
X137536285Y96210572D01*
X137681428Y96210572D01*
X137899142Y96283143D01*
X137971714Y96355715D01*
X137971714Y96863715D01*
X137681428Y96863715D01*
D10*
X127063571Y5870000D02*
X127063571Y5012858D01*
X127063571Y5441429D02*
X125563571Y5441429D01*
X125777857Y5298572D01*
X125920714Y5155715D01*
X125992142Y5012858D01*
X127063571Y7298572D02*
X127063571Y6441429D01*
X127063571Y6870000D02*
X125563571Y6870000D01*
X125777857Y6727143D01*
X125920714Y6584286D01*
X125992142Y6441429D01*
X126063571Y8584286D02*
X127063571Y8584286D01*
X125492142Y8227143D02*
X126563571Y7870000D01*
X126563571Y8798572D01*
D11*
X19257238Y104274239D02*
X19257238Y105607572D01*
X19257238Y105226620D02*
X19352476Y105417096D01*
X19447714Y105512334D01*
X19638190Y105607572D01*
X19828666Y105607572D01*
X21257238Y104369477D02*
X21066761Y104274239D01*
X20685809Y104274239D01*
X20495333Y104369477D01*
X20400095Y104559953D01*
X20400095Y105321858D01*
X20495333Y105512334D01*
X20685809Y105607572D01*
X21066761Y105607572D01*
X21257238Y105512334D01*
X21352476Y105321858D01*
X21352476Y105131381D01*
X20400095Y104940905D01*
X22019142Y105607572D02*
X22495333Y104274239D01*
X22971523Y105607572D01*
X23733428Y104464715D02*
X23828666Y104369477D01*
X23733428Y104274239D01*
X23638190Y104369477D01*
X23733428Y104464715D01*
X23733428Y104274239D01*
X26209619Y104274239D02*
X26209619Y106274239D01*
X26209619Y105512334D02*
X26400095Y105607572D01*
X26781047Y105607572D01*
X26971523Y105512334D01*
X27066761Y105417096D01*
X27162000Y105226620D01*
X27162000Y104655191D01*
X27066761Y104464715D01*
X26971523Y104369477D01*
X26781047Y104274239D01*
X26400095Y104274239D01*
X26209619Y104369477D01*
D10*
X132778571Y21745000D02*
X132778571Y20887858D01*
X132778571Y21316429D02*
X131278571Y21316429D01*
X131492857Y21173572D01*
X131635714Y21030715D01*
X131707142Y20887858D01*
X131421428Y22316429D02*
X131350000Y22387858D01*
X131278571Y22530715D01*
X131278571Y22887858D01*
X131350000Y23030715D01*
X131421428Y23102143D01*
X131564285Y23173572D01*
X131707142Y23173572D01*
X131921428Y23102143D01*
X132778571Y22245000D01*
X132778571Y23173572D01*
X131278571Y24102143D02*
X131278571Y24245000D01*
X131350000Y24387858D01*
X131421428Y24459286D01*
X131564285Y24530715D01*
X131850000Y24602143D01*
X132207142Y24602143D01*
X132492857Y24530715D01*
X132635714Y24459286D01*
X132707142Y24387858D01*
X132778571Y24245000D01*
X132778571Y24102143D01*
X132707142Y23959286D01*
X132635714Y23887858D01*
X132492857Y23816429D01*
X132207142Y23745000D01*
X131850000Y23745000D01*
X131564285Y23816429D01*
X131421428Y23887858D01*
X131350000Y23959286D01*
X131278571Y24102143D01*
X88030952Y20030239D02*
X87650000Y20030239D01*
X87459523Y19935000D01*
X87364285Y19839762D01*
X87173809Y19554048D01*
X87078571Y19173096D01*
X87078571Y18411191D01*
X87173809Y18220715D01*
X87269047Y18125477D01*
X87459523Y18030239D01*
X87840476Y18030239D01*
X88030952Y18125477D01*
X88126190Y18220715D01*
X88221428Y18411191D01*
X88221428Y18887381D01*
X88126190Y19077858D01*
X88030952Y19173096D01*
X87840476Y19268334D01*
X87459523Y19268334D01*
X87269047Y19173096D01*
X87173809Y19077858D01*
X87078571Y18887381D01*
X96476666Y9140239D02*
X96857619Y9140239D01*
X97048095Y9235477D01*
X97143333Y9330715D01*
X97333809Y9616429D01*
X97429047Y9997381D01*
X97429047Y10759286D01*
X97333809Y10949762D01*
X97238571Y11045000D01*
X97048095Y11140239D01*
X96667142Y11140239D01*
X96476666Y11045000D01*
X96381428Y10949762D01*
X96286190Y10759286D01*
X96286190Y10283096D01*
X96381428Y10092620D01*
X96476666Y9997381D01*
X96667142Y9902143D01*
X97048095Y9902143D01*
X97238571Y9997381D01*
X97333809Y10092620D01*
X97429047Y10283096D01*
X98667142Y11140239D02*
X98857619Y11140239D01*
X99048095Y11045000D01*
X99143333Y10949762D01*
X99238571Y10759286D01*
X99333809Y10378334D01*
X99333809Y9902143D01*
X99238571Y9521191D01*
X99143333Y9330715D01*
X99048095Y9235477D01*
X98857619Y9140239D01*
X98667142Y9140239D01*
X98476666Y9235477D01*
X98381428Y9330715D01*
X98286190Y9521191D01*
X98190952Y9902143D01*
X98190952Y10378334D01*
X98286190Y10759286D01*
X98381428Y10949762D01*
X98476666Y11045000D01*
X98667142Y11140239D01*
X121241666Y18030239D02*
X120098809Y18030239D01*
X120670238Y18030239D02*
X120670238Y20030239D01*
X120479761Y19744524D01*
X120289285Y19554048D01*
X120098809Y19458810D01*
X123146428Y18030239D02*
X122003571Y18030239D01*
X122575000Y18030239D02*
X122575000Y20030239D01*
X122384523Y19744524D01*
X122194047Y19554048D01*
X122003571Y19458810D01*
X123813095Y20030239D02*
X125051190Y20030239D01*
X124384523Y19268334D01*
X124670238Y19268334D01*
X124860714Y19173096D01*
X124955952Y19077858D01*
X125051190Y18887381D01*
X125051190Y18411191D01*
X124955952Y18220715D01*
X124860714Y18125477D01*
X124670238Y18030239D01*
X124098809Y18030239D01*
X123908333Y18125477D01*
X123813095Y18220715D01*
D11*
X8104761Y62695239D02*
X7438095Y63647620D01*
X6961904Y62695239D02*
X6961904Y64695239D01*
X7723809Y64695239D01*
X7914285Y64600000D01*
X8009523Y64504762D01*
X8104761Y64314286D01*
X8104761Y64028572D01*
X8009523Y63838096D01*
X7914285Y63742858D01*
X7723809Y63647620D01*
X6961904Y63647620D01*
X8866666Y62790477D02*
X9152380Y62695239D01*
X9628571Y62695239D01*
X9819047Y62790477D01*
X9914285Y62885715D01*
X10009523Y63076191D01*
X10009523Y63266667D01*
X9914285Y63457143D01*
X9819047Y63552381D01*
X9628571Y63647620D01*
X9247619Y63742858D01*
X9057142Y63838096D01*
X8961904Y63933334D01*
X8866666Y64123810D01*
X8866666Y64314286D01*
X8961904Y64504762D01*
X9057142Y64600000D01*
X9247619Y64695239D01*
X9723809Y64695239D01*
X10009523Y64600000D01*
X10580952Y64695239D02*
X11723809Y64695239D01*
X11152380Y62695239D02*
X11152380Y64695239D01*
D10*
X36278571Y11140239D02*
X35897619Y11140239D01*
X35707142Y11045000D01*
X35611904Y10949762D01*
X35421428Y10664048D01*
X35326190Y10283096D01*
X35326190Y9521191D01*
X35421428Y9330715D01*
X35516666Y9235477D01*
X35707142Y9140239D01*
X36088095Y9140239D01*
X36278571Y9235477D01*
X36373809Y9330715D01*
X36469047Y9521191D01*
X36469047Y9997381D01*
X36373809Y10187858D01*
X36278571Y10283096D01*
X36088095Y10378334D01*
X35707142Y10378334D01*
X35516666Y10283096D01*
X35421428Y10187858D01*
X35326190Y9997381D01*
X37230952Y10949762D02*
X37326190Y11045000D01*
X37516666Y11140239D01*
X37992857Y11140239D01*
X38183333Y11045000D01*
X38278571Y10949762D01*
X38373809Y10759286D01*
X38373809Y10568810D01*
X38278571Y10283096D01*
X37135714Y9140239D01*
X38373809Y9140239D01*
X121241666Y14855239D02*
X120098809Y14855239D01*
X120670238Y14855239D02*
X120670238Y16855239D01*
X120479761Y16569524D01*
X120289285Y16379048D01*
X120098809Y16283810D01*
X122479761Y16855239D02*
X122670238Y16855239D01*
X122860714Y16760000D01*
X122955952Y16664762D01*
X123051190Y16474286D01*
X123146428Y16093334D01*
X123146428Y15617143D01*
X123051190Y15236191D01*
X122955952Y15045715D01*
X122860714Y14950477D01*
X122670238Y14855239D01*
X122479761Y14855239D01*
X122289285Y14950477D01*
X122194047Y15045715D01*
X122098809Y15236191D01*
X122003571Y15617143D01*
X122003571Y16093334D01*
X122098809Y16474286D01*
X122194047Y16664762D01*
X122289285Y16760000D01*
X122479761Y16855239D01*
X124955952Y16855239D02*
X124003571Y16855239D01*
X123908333Y15902858D01*
X124003571Y15998096D01*
X124194047Y16093334D01*
X124670238Y16093334D01*
X124860714Y15998096D01*
X124955952Y15902858D01*
X125051190Y15712381D01*
X125051190Y15236191D01*
X124955952Y15045715D01*
X124860714Y14950477D01*
X124670238Y14855239D01*
X124194047Y14855239D01*
X124003571Y14950477D01*
X123908333Y15045715D01*
X139128571Y5870000D02*
X139128571Y5012858D01*
X139128571Y5441429D02*
X137628571Y5441429D01*
X137842857Y5298572D01*
X137985714Y5155715D01*
X138057142Y5012858D01*
X139128571Y7298572D02*
X139128571Y6441429D01*
X139128571Y6870000D02*
X137628571Y6870000D01*
X137842857Y6727143D01*
X137985714Y6584286D01*
X138057142Y6441429D01*
X137628571Y8584286D02*
X137628571Y8298572D01*
X137700000Y8155715D01*
X137771428Y8084286D01*
X137985714Y7941429D01*
X138271428Y7870000D01*
X138842857Y7870000D01*
X138985714Y7941429D01*
X139057142Y8012858D01*
X139128571Y8155715D01*
X139128571Y8441429D01*
X139057142Y8584286D01*
X138985714Y8655715D01*
X138842857Y8727143D01*
X138485714Y8727143D01*
X138342857Y8655715D01*
X138271428Y8584286D01*
X138200000Y8441429D01*
X138200000Y8155715D01*
X138271428Y8012858D01*
X138342857Y7941429D01*
X138485714Y7870000D01*
D11*
X7104761Y54395239D02*
X8342857Y54395239D01*
X7676190Y53633334D01*
X7961904Y53633334D01*
X8152380Y53538096D01*
X8247619Y53442858D01*
X8342857Y53252381D01*
X8342857Y52776191D01*
X8247619Y52585715D01*
X8152380Y52490477D01*
X7961904Y52395239D01*
X7390476Y52395239D01*
X7200000Y52490477D01*
X7104761Y52585715D01*
X9200000Y52585715D02*
X9295238Y52490477D01*
X9200000Y52395239D01*
X9104761Y52490477D01*
X9200000Y52585715D01*
X9200000Y52395239D01*
X9961904Y54395239D02*
X11200000Y54395239D01*
X10533333Y53633334D01*
X10819047Y53633334D01*
X11009523Y53538096D01*
X11104761Y53442858D01*
X11200000Y53252381D01*
X11200000Y52776191D01*
X11104761Y52585715D01*
X11009523Y52490477D01*
X10819047Y52395239D01*
X10247619Y52395239D01*
X10057142Y52490477D01*
X9961904Y52585715D01*
D14*
X70322380Y20649524D02*
X70322380Y20078096D01*
X70322380Y20363810D02*
X69322380Y20363810D01*
X69465238Y20268572D01*
X69560476Y20173334D01*
X69608095Y20078096D01*
X69417619Y21030477D02*
X69370000Y21078096D01*
X69322380Y21173334D01*
X69322380Y21411429D01*
X69370000Y21506667D01*
X69417619Y21554286D01*
X69512857Y21601905D01*
X69608095Y21601905D01*
X69750952Y21554286D01*
X70322380Y20982858D01*
X70322380Y21601905D01*
D11*
X7676190Y59400000D02*
X7485714Y59495239D01*
X7200000Y59495239D01*
X6914285Y59400000D01*
X6723809Y59209524D01*
X6628571Y59019048D01*
X6533333Y58638096D01*
X6533333Y58352381D01*
X6628571Y57971429D01*
X6723809Y57780953D01*
X6914285Y57590477D01*
X7200000Y57495239D01*
X7390476Y57495239D01*
X7676190Y57590477D01*
X7771428Y57685715D01*
X7771428Y58352381D01*
X7390476Y58352381D01*
X8628571Y57495239D02*
X8628571Y59495239D01*
X9771428Y57495239D01*
X9771428Y59495239D01*
X10723809Y57495239D02*
X10723809Y59495239D01*
X11200000Y59495239D01*
X11485714Y59400000D01*
X11676190Y59209524D01*
X11771428Y59019048D01*
X11866666Y58638096D01*
X11866666Y58352381D01*
X11771428Y57971429D01*
X11676190Y57780953D01*
X11485714Y57590477D01*
X11200000Y57495239D01*
X10723809Y57495239D01*
D15*
G04 #@! TO.C,P1*
X156902166Y16443834D02*
X156013166Y16443834D01*
X156013166Y16782500D01*
X156055500Y16867167D01*
X156097833Y16909500D01*
X156182500Y16951834D01*
X156309500Y16951834D01*
X156394166Y16909500D01*
X156436500Y16867167D01*
X156478833Y16782500D01*
X156478833Y16443834D01*
X156902166Y17798500D02*
X156902166Y17290500D01*
X156902166Y17544500D02*
X156013166Y17544500D01*
X156140166Y17459834D01*
X156224833Y17375167D01*
X156267166Y17290500D01*
D16*
G04 #@! TO.C,U3*
X32052380Y68438096D02*
X32861904Y68438096D01*
X32957142Y68485715D01*
X33004761Y68533334D01*
X33052380Y68628572D01*
X33052380Y68819048D01*
X33004761Y68914286D01*
X32957142Y68961905D01*
X32861904Y69009524D01*
X32052380Y69009524D01*
X32052380Y69390477D02*
X32052380Y70009524D01*
X32433333Y69676191D01*
X32433333Y69819048D01*
X32480952Y69914286D01*
X32528571Y69961905D01*
X32623809Y70009524D01*
X32861904Y70009524D01*
X32957142Y69961905D01*
X33004761Y69914286D01*
X33052380Y69819048D01*
X33052380Y69533334D01*
X33004761Y69438096D01*
X32957142Y69390477D01*
D17*
G04 #@! TO.C,C15*
X50782857Y105274311D02*
X50821904Y105235263D01*
X50860952Y105118120D01*
X50860952Y105040025D01*
X50821904Y104922882D01*
X50743809Y104844786D01*
X50665714Y104805739D01*
X50509523Y104766691D01*
X50392380Y104766691D01*
X50236189Y104805739D01*
X50158094Y104844786D01*
X50079999Y104922882D01*
X50040951Y105040025D01*
X50040951Y105118120D01*
X50079999Y105235263D01*
X50119046Y105274311D01*
X50860952Y106055264D02*
X50860952Y105586692D01*
X50860952Y105820978D02*
X50040951Y105820978D01*
X50158094Y105742883D01*
X50236189Y105664787D01*
X50275237Y105586692D01*
X50040951Y106797170D02*
X50040951Y106406693D01*
X50431428Y106367645D01*
X50392380Y106406693D01*
X50353332Y106484788D01*
X50353332Y106680027D01*
X50392380Y106758122D01*
X50431428Y106797170D01*
X50509523Y106836217D01*
X50704761Y106836217D01*
X50782857Y106797170D01*
X50821904Y106758122D01*
X50860952Y106680027D01*
X50860952Y106484788D01*
X50821904Y106406693D01*
X50782857Y106367645D01*
G04 #@! TO.C,C6*
X78046143Y100438690D02*
X78007095Y100477738D01*
X77968047Y100594881D01*
X77968047Y100672976D01*
X78007095Y100790119D01*
X78085190Y100868214D01*
X78163286Y100907262D01*
X78319476Y100946310D01*
X78436619Y100946310D01*
X78592810Y100907262D01*
X78670905Y100868214D01*
X78749001Y100790119D01*
X78788048Y100672976D01*
X78788048Y100594881D01*
X78749001Y100477738D01*
X78709953Y100438690D01*
X78788048Y99735832D02*
X78788048Y99892023D01*
X78749001Y99970118D01*
X78709953Y100009166D01*
X78592810Y100087261D01*
X78436619Y100126309D01*
X78124238Y100126309D01*
X78046143Y100087261D01*
X78007095Y100048213D01*
X77968047Y99970118D01*
X77968047Y99813927D01*
X78007095Y99735832D01*
X78046143Y99696784D01*
X78124238Y99657737D01*
X78319476Y99657737D01*
X78397572Y99696784D01*
X78436619Y99735832D01*
X78475667Y99813927D01*
X78475667Y99970118D01*
X78436619Y100048213D01*
X78397572Y100087261D01*
X78319476Y100126309D01*
D16*
G04 #@! TO.C,V20*
X50752380Y34564286D02*
X51752380Y34897620D01*
X50752380Y35230953D01*
X50847619Y35516667D02*
X50800000Y35564286D01*
X50752380Y35659524D01*
X50752380Y35897620D01*
X50800000Y35992858D01*
X50847619Y36040477D01*
X50942857Y36088096D01*
X51038095Y36088096D01*
X51180952Y36040477D01*
X51752380Y35469048D01*
X51752380Y36088096D01*
X50752380Y36707143D02*
X50752380Y36802381D01*
X50800000Y36897620D01*
X50847619Y36945239D01*
X50942857Y36992858D01*
X51133333Y37040477D01*
X51371428Y37040477D01*
X51561904Y36992858D01*
X51657142Y36945239D01*
X51704761Y36897620D01*
X51752380Y36802381D01*
X51752380Y36707143D01*
X51704761Y36611905D01*
X51657142Y36564286D01*
X51561904Y36516667D01*
X51371428Y36469048D01*
X51133333Y36469048D01*
X50942857Y36516667D01*
X50847619Y36564286D01*
X50800000Y36611905D01*
X50752380Y36707143D01*
G04 #@! TO.C,V9*
X73440355Y27939806D02*
X74383164Y27468401D01*
X73911759Y28411210D01*
X74888240Y27973478D02*
X75022927Y28108165D01*
X75056599Y28209180D01*
X75056599Y28276523D01*
X75022927Y28444882D01*
X74921912Y28613241D01*
X74652538Y28882615D01*
X74551522Y28916287D01*
X74484179Y28916287D01*
X74383164Y28882615D01*
X74248477Y28747928D01*
X74214805Y28646913D01*
X74214805Y28579569D01*
X74248477Y28478554D01*
X74416835Y28310195D01*
X74517851Y28276523D01*
X74585194Y28276523D01*
X74686209Y28310195D01*
X74820896Y28444882D01*
X74854568Y28545897D01*
X74854568Y28613241D01*
X74820896Y28714256D01*
G04 #@! TO.C,V40*
X48102380Y34589286D02*
X49102380Y34922620D01*
X48102380Y35255953D01*
X48435714Y36017858D02*
X49102380Y36017858D01*
X48054761Y35779762D02*
X48769047Y35541667D01*
X48769047Y36160715D01*
X48102380Y36732143D02*
X48102380Y36827381D01*
X48150000Y36922620D01*
X48197619Y36970239D01*
X48292857Y37017858D01*
X48483333Y37065477D01*
X48721428Y37065477D01*
X48911904Y37017858D01*
X49007142Y36970239D01*
X49054761Y36922620D01*
X49102380Y36827381D01*
X49102380Y36732143D01*
X49054761Y36636905D01*
X49007142Y36589286D01*
X48911904Y36541667D01*
X48721428Y36494048D01*
X48483333Y36494048D01*
X48292857Y36541667D01*
X48197619Y36589286D01*
X48150000Y36636905D01*
X48102380Y36732143D01*
G04 #@! TO.C,V61*
X40127380Y34564286D02*
X41127380Y34897620D01*
X40127380Y35230953D01*
X40127380Y35992858D02*
X40127380Y35802381D01*
X40175000Y35707143D01*
X40222619Y35659524D01*
X40365476Y35564286D01*
X40555952Y35516667D01*
X40936904Y35516667D01*
X41032142Y35564286D01*
X41079761Y35611905D01*
X41127380Y35707143D01*
X41127380Y35897620D01*
X41079761Y35992858D01*
X41032142Y36040477D01*
X40936904Y36088096D01*
X40698809Y36088096D01*
X40603571Y36040477D01*
X40555952Y35992858D01*
X40508333Y35897620D01*
X40508333Y35707143D01*
X40555952Y35611905D01*
X40603571Y35564286D01*
X40698809Y35516667D01*
X41127380Y37040477D02*
X41127380Y36469048D01*
X41127380Y36754762D02*
X40127380Y36754762D01*
X40270238Y36659524D01*
X40365476Y36564286D01*
X40413095Y36469048D01*
G04 #@! TO.C,V17*
X56877380Y23664286D02*
X57877380Y23997620D01*
X56877380Y24330953D01*
X57877380Y25188096D02*
X57877380Y24616667D01*
X57877380Y24902381D02*
X56877380Y24902381D01*
X57020238Y24807143D01*
X57115476Y24711905D01*
X57163095Y24616667D01*
X56877380Y25521429D02*
X56877380Y26188096D01*
X57877380Y25759524D01*
G04 #@! TO.C,V69*
X90703637Y22503088D02*
X91646446Y22031684D01*
X91175042Y22974493D01*
X91713790Y23513241D02*
X91579103Y23378554D01*
X91545431Y23277539D01*
X91545431Y23210195D01*
X91579103Y23041836D01*
X91680118Y22873478D01*
X91949492Y22604104D01*
X92050507Y22570432D01*
X92117851Y22570432D01*
X92218866Y22604104D01*
X92353553Y22738791D01*
X92387225Y22839806D01*
X92387225Y22907149D01*
X92353553Y23008165D01*
X92185194Y23176523D01*
X92084179Y23210195D01*
X92016835Y23210195D01*
X91915820Y23176523D01*
X91781133Y23041836D01*
X91747461Y22940821D01*
X91747461Y22873478D01*
X91781133Y22772462D01*
X92824957Y23210195D02*
X92959644Y23344882D01*
X92993316Y23445897D01*
X92993316Y23513241D01*
X92959644Y23681600D01*
X92858629Y23849958D01*
X92589255Y24119332D01*
X92488240Y24153004D01*
X92420896Y24153004D01*
X92319881Y24119332D01*
X92185194Y23984645D01*
X92151522Y23883630D01*
X92151522Y23816287D01*
X92185194Y23715271D01*
X92353553Y23546913D01*
X92454568Y23513241D01*
X92521912Y23513241D01*
X92622927Y23546913D01*
X92757614Y23681600D01*
X92791286Y23782615D01*
X92791286Y23849958D01*
X92757614Y23950974D01*
D17*
G04 #@! TO.C,D8*
X10062976Y90563096D02*
X10062976Y91363097D01*
X10253452Y91363097D01*
X10367738Y91325001D01*
X10443929Y91248811D01*
X10482024Y91172620D01*
X10520119Y91020239D01*
X10520119Y90905953D01*
X10482024Y90753572D01*
X10443929Y90677382D01*
X10367738Y90601191D01*
X10253452Y90563096D01*
X10062976Y90563096D01*
X10977263Y91020239D02*
X10901072Y91058334D01*
X10862977Y91096430D01*
X10824882Y91172620D01*
X10824882Y91210716D01*
X10862977Y91286906D01*
X10901072Y91325001D01*
X10977263Y91363097D01*
X11129644Y91363097D01*
X11205835Y91325001D01*
X11243930Y91286906D01*
X11282025Y91210716D01*
X11282025Y91172620D01*
X11243930Y91096430D01*
X11205835Y91058334D01*
X11129644Y91020239D01*
X10977263Y91020239D01*
X10901072Y90982144D01*
X10862977Y90944049D01*
X10824882Y90867858D01*
X10824882Y90715477D01*
X10862977Y90639286D01*
X10901072Y90601191D01*
X10977263Y90563096D01*
X11129644Y90563096D01*
X11205835Y90601191D01*
X11243930Y90639286D01*
X11282025Y90715477D01*
X11282025Y90867858D01*
X11243930Y90944049D01*
X11205835Y90982144D01*
X11129644Y91020239D01*
D16*
G04 #@! TO.C,V67*
X87903637Y22403088D02*
X88846446Y21931684D01*
X88375042Y22874493D01*
X88913790Y23413241D02*
X88779103Y23278554D01*
X88745431Y23177539D01*
X88745431Y23110195D01*
X88779103Y22941836D01*
X88880118Y22773478D01*
X89149492Y22504104D01*
X89250507Y22470432D01*
X89317851Y22470432D01*
X89418866Y22504104D01*
X89553553Y22638791D01*
X89587225Y22739806D01*
X89587225Y22807149D01*
X89553553Y22908165D01*
X89385194Y23076523D01*
X89284179Y23110195D01*
X89216835Y23110195D01*
X89115820Y23076523D01*
X88981133Y22941836D01*
X88947461Y22840821D01*
X88947461Y22773478D01*
X88981133Y22672462D01*
X89216835Y23716287D02*
X89688240Y24187691D01*
X90092301Y23177539D01*
G04 #@! TO.C,VOUT3*
X107452380Y38011905D02*
X108452380Y38345239D01*
X107452380Y38678572D01*
X107452380Y39202381D02*
X107452380Y39392858D01*
X107500000Y39488096D01*
X107595238Y39583334D01*
X107785714Y39630953D01*
X108119047Y39630953D01*
X108309523Y39583334D01*
X108404761Y39488096D01*
X108452380Y39392858D01*
X108452380Y39202381D01*
X108404761Y39107143D01*
X108309523Y39011905D01*
X108119047Y38964286D01*
X107785714Y38964286D01*
X107595238Y39011905D01*
X107500000Y39107143D01*
X107452380Y39202381D01*
X107452380Y40059524D02*
X108261904Y40059524D01*
X108357142Y40107143D01*
X108404761Y40154762D01*
X108452380Y40250000D01*
X108452380Y40440477D01*
X108404761Y40535715D01*
X108357142Y40583334D01*
X108261904Y40630953D01*
X107452380Y40630953D01*
X107452380Y40964286D02*
X107452380Y41535715D01*
X108452380Y41250000D02*
X107452380Y41250000D01*
X107452380Y41773810D02*
X107452380Y42392858D01*
X107833333Y42059524D01*
X107833333Y42202381D01*
X107880952Y42297620D01*
X107928571Y42345239D01*
X108023809Y42392858D01*
X108261904Y42392858D01*
X108357142Y42345239D01*
X108404761Y42297620D01*
X108452380Y42202381D01*
X108452380Y41916667D01*
X108404761Y41821429D01*
X108357142Y41773810D01*
G04 #@! TO.C,V11*
X67603637Y27503088D02*
X68546446Y27031684D01*
X68075042Y27974493D01*
X69388240Y27873478D02*
X68984179Y27469417D01*
X69186209Y27671447D02*
X68479103Y28378554D01*
X68512774Y28210195D01*
X68512774Y28075508D01*
X68479103Y27974493D01*
X70061675Y28546913D02*
X69657614Y28142852D01*
X69859644Y28344882D02*
X69152538Y29051989D01*
X69186209Y28883630D01*
X69186209Y28748943D01*
X69152538Y28647928D01*
D18*
G04 #@! TO.C,R13*
X9044714Y25135143D02*
X8681857Y24881143D01*
X9044714Y24699715D02*
X8282714Y24699715D01*
X8282714Y24990000D01*
X8319000Y25062572D01*
X8355285Y25098858D01*
X8427857Y25135143D01*
X8536714Y25135143D01*
X8609285Y25098858D01*
X8645571Y25062572D01*
X8681857Y24990000D01*
X8681857Y24699715D01*
X9044714Y25860858D02*
X9044714Y25425429D01*
X9044714Y25643143D02*
X8282714Y25643143D01*
X8391571Y25570572D01*
X8464142Y25498000D01*
X8500428Y25425429D01*
X8282714Y26114858D02*
X8282714Y26586572D01*
X8573000Y26332572D01*
X8573000Y26441429D01*
X8609285Y26514000D01*
X8645571Y26550286D01*
X8718142Y26586572D01*
X8899571Y26586572D01*
X8972142Y26550286D01*
X9008428Y26514000D01*
X9044714Y26441429D01*
X9044714Y26223715D01*
X9008428Y26151143D01*
X8972142Y26114858D01*
G04 #@! TO.C,R4*
X55044714Y24223000D02*
X54681857Y23969000D01*
X55044714Y23787572D02*
X54282714Y23787572D01*
X54282714Y24077858D01*
X54319000Y24150429D01*
X54355285Y24186715D01*
X54427857Y24223000D01*
X54536714Y24223000D01*
X54609285Y24186715D01*
X54645571Y24150429D01*
X54681857Y24077858D01*
X54681857Y23787572D01*
X54536714Y24876143D02*
X55044714Y24876143D01*
X54246428Y24694715D02*
X54790714Y24513286D01*
X54790714Y24985000D01*
D17*
G04 #@! TO.C,R16*
X8574309Y96139048D02*
X8300976Y96529524D01*
X8105738Y96139048D02*
X8105738Y96959048D01*
X8418119Y96959048D01*
X8496214Y96920000D01*
X8535261Y96880953D01*
X8574309Y96802858D01*
X8574309Y96685715D01*
X8535261Y96607620D01*
X8496214Y96568572D01*
X8418119Y96529524D01*
X8105738Y96529524D01*
X9355261Y96139048D02*
X8886690Y96139048D01*
X9120976Y96139048D02*
X9120976Y96959048D01*
X9042880Y96841905D01*
X8964785Y96763810D01*
X8886690Y96724762D01*
X10058119Y96959048D02*
X9901928Y96959048D01*
X9823833Y96920000D01*
X9784785Y96880953D01*
X9706690Y96763810D01*
X9667642Y96607620D01*
X9667642Y96295239D01*
X9706690Y96217143D01*
X9745738Y96178096D01*
X9823833Y96139048D01*
X9980023Y96139048D01*
X10058119Y96178096D01*
X10097166Y96217143D01*
X10136214Y96295239D01*
X10136214Y96490477D01*
X10097166Y96568572D01*
X10058119Y96607620D01*
X9980023Y96646667D01*
X9823833Y96646667D01*
X9745738Y96607620D01*
X9706690Y96568572D01*
X9667642Y96490477D01*
D16*
G04 #@! TO.C,VIN4*
X47427380Y37128572D02*
X48427380Y37461905D01*
X47427380Y37795239D01*
X48427380Y38128572D02*
X47427380Y38128572D01*
X48427380Y38604762D02*
X47427380Y38604762D01*
X48427380Y39176191D01*
X47427380Y39176191D01*
X47760714Y40080953D02*
X48427380Y40080953D01*
X47379761Y39842858D02*
X48094047Y39604762D01*
X48094047Y40223810D01*
D17*
G04 #@! TO.C,C5*
X145836310Y53396143D02*
X145797262Y53357096D01*
X145680119Y53318048D01*
X145602024Y53318048D01*
X145484881Y53357096D01*
X145406786Y53435191D01*
X145367738Y53513286D01*
X145328690Y53669477D01*
X145328690Y53786620D01*
X145367738Y53942811D01*
X145406786Y54020906D01*
X145484881Y54099001D01*
X145602024Y54138049D01*
X145680119Y54138049D01*
X145797262Y54099001D01*
X145836310Y54059954D01*
X146578216Y54138049D02*
X146187739Y54138049D01*
X146148691Y53747572D01*
X146187739Y53786620D01*
X146265834Y53825668D01*
X146461073Y53825668D01*
X146539168Y53786620D01*
X146578216Y53747572D01*
X146617263Y53669477D01*
X146617263Y53474239D01*
X146578216Y53396143D01*
X146539168Y53357096D01*
X146461073Y53318048D01*
X146265834Y53318048D01*
X146187739Y53357096D01*
X146148691Y53396143D01*
D16*
G04 #@! TO.C,C11*
X132019142Y32221858D02*
X131971523Y32174239D01*
X131828666Y32126620D01*
X131733428Y32126620D01*
X131590571Y32174239D01*
X131495333Y32269477D01*
X131447714Y32364715D01*
X131400095Y32555191D01*
X131400095Y32698048D01*
X131447714Y32888524D01*
X131495333Y32983762D01*
X131590571Y33079000D01*
X131733428Y33126620D01*
X131828666Y33126620D01*
X131971523Y33079000D01*
X132019142Y33031381D01*
X132971523Y32126620D02*
X132400095Y32126620D01*
X132685809Y32126620D02*
X132685809Y33126620D01*
X132590571Y32983762D01*
X132495333Y32888524D01*
X132400095Y32840905D01*
X133923904Y32126620D02*
X133352476Y32126620D01*
X133638190Y32126620D02*
X133638190Y33126620D01*
X133542952Y32983762D01*
X133447714Y32888524D01*
X133352476Y32840905D01*
G04 #@! TO.C,V74*
X45427380Y34539286D02*
X46427380Y34872620D01*
X45427380Y35205953D01*
X45427380Y35444048D02*
X45427380Y36110715D01*
X46427380Y35682143D01*
X45760714Y36920239D02*
X46427380Y36920239D01*
X45379761Y36682143D02*
X46094047Y36444048D01*
X46094047Y37063096D01*
G04 #@! TO.C,VIN1*
X44027380Y37203572D02*
X45027380Y37536905D01*
X44027380Y37870239D01*
X45027380Y38203572D02*
X44027380Y38203572D01*
X45027380Y38679762D02*
X44027380Y38679762D01*
X45027380Y39251191D01*
X44027380Y39251191D01*
X45027380Y40251191D02*
X45027380Y39679762D01*
X45027380Y39965477D02*
X44027380Y39965477D01*
X44170238Y39870239D01*
X44265476Y39775000D01*
X44313095Y39679762D01*
D18*
G04 #@! TO.C,R8*
X48669714Y24223000D02*
X48306857Y23969000D01*
X48669714Y23787572D02*
X47907714Y23787572D01*
X47907714Y24077858D01*
X47944000Y24150429D01*
X47980285Y24186715D01*
X48052857Y24223000D01*
X48161714Y24223000D01*
X48234285Y24186715D01*
X48270571Y24150429D01*
X48306857Y24077858D01*
X48306857Y23787572D01*
X48234285Y24658429D02*
X48198000Y24585858D01*
X48161714Y24549572D01*
X48089142Y24513286D01*
X48052857Y24513286D01*
X47980285Y24549572D01*
X47944000Y24585858D01*
X47907714Y24658429D01*
X47907714Y24803572D01*
X47944000Y24876143D01*
X47980285Y24912429D01*
X48052857Y24948715D01*
X48089142Y24948715D01*
X48161714Y24912429D01*
X48198000Y24876143D01*
X48234285Y24803572D01*
X48234285Y24658429D01*
X48270571Y24585858D01*
X48306857Y24549572D01*
X48379428Y24513286D01*
X48524571Y24513286D01*
X48597142Y24549572D01*
X48633428Y24585858D01*
X48669714Y24658429D01*
X48669714Y24803572D01*
X48633428Y24876143D01*
X48597142Y24912429D01*
X48524571Y24948715D01*
X48379428Y24948715D01*
X48306857Y24912429D01*
X48270571Y24876143D01*
X48234285Y24803572D01*
G04 #@! TO.C,F1*
X122295571Y29046000D02*
X122295571Y28792000D01*
X122694714Y28792000D02*
X121932714Y28792000D01*
X121932714Y29154858D01*
X122694714Y29844286D02*
X122694714Y29408858D01*
X122694714Y29626572D02*
X121932714Y29626572D01*
X122041571Y29554000D01*
X122114142Y29481429D01*
X122150428Y29408858D01*
D16*
G04 #@! TO.C,U1*
X132608528Y39892433D02*
X132608528Y38985620D01*
X132661870Y38878936D01*
X132715212Y38825594D01*
X132821896Y38772252D01*
X133035264Y38772252D01*
X133141948Y38825594D01*
X133195290Y38878936D01*
X133248632Y38985620D01*
X133248632Y39892433D01*
X134368813Y38772252D02*
X133728709Y38772252D01*
X134048761Y38772252D02*
X134048761Y39892433D01*
X133942077Y39732407D01*
X133835393Y39625723D01*
X133728709Y39572381D01*
D17*
G04 #@! TO.C,R21*
X8574309Y81639048D02*
X8300976Y82029524D01*
X8105738Y81639048D02*
X8105738Y82459048D01*
X8418119Y82459048D01*
X8496214Y82420000D01*
X8535261Y82380953D01*
X8574309Y82302858D01*
X8574309Y82185715D01*
X8535261Y82107620D01*
X8496214Y82068572D01*
X8418119Y82029524D01*
X8105738Y82029524D01*
X8886690Y82380953D02*
X8925738Y82420000D01*
X9003833Y82459048D01*
X9199071Y82459048D01*
X9277166Y82420000D01*
X9316214Y82380953D01*
X9355261Y82302858D01*
X9355261Y82224762D01*
X9316214Y82107620D01*
X8847642Y81639048D01*
X9355261Y81639048D01*
X10136214Y81639048D02*
X9667642Y81639048D01*
X9901928Y81639048D02*
X9901928Y82459048D01*
X9823833Y82341905D01*
X9745738Y82263810D01*
X9667642Y82224762D01*
G04 #@! TO.C,D4*
X10162976Y97463096D02*
X10162976Y98263097D01*
X10353452Y98263097D01*
X10467738Y98225001D01*
X10543929Y98148811D01*
X10582024Y98072620D01*
X10620119Y97920239D01*
X10620119Y97805953D01*
X10582024Y97653572D01*
X10543929Y97577382D01*
X10467738Y97501191D01*
X10353452Y97463096D01*
X10162976Y97463096D01*
X11305835Y97996430D02*
X11305835Y97463096D01*
X11115358Y98301192D02*
X10924882Y97729763D01*
X11420120Y97729763D01*
G04 #@! TO.C,C16*
X34174310Y74117143D02*
X34135262Y74078096D01*
X34018119Y74039048D01*
X33940024Y74039048D01*
X33822881Y74078096D01*
X33744786Y74156191D01*
X33705738Y74234286D01*
X33666690Y74390477D01*
X33666690Y74507620D01*
X33705738Y74663811D01*
X33744786Y74741906D01*
X33822881Y74820001D01*
X33940024Y74859049D01*
X34018119Y74859049D01*
X34135262Y74820001D01*
X34174310Y74780954D01*
X34955263Y74039048D02*
X34486691Y74039048D01*
X34720977Y74039048D02*
X34720977Y74859049D01*
X34642882Y74741906D01*
X34564787Y74663811D01*
X34486691Y74624763D01*
X35658121Y74859049D02*
X35501931Y74859049D01*
X35423835Y74820001D01*
X35384788Y74780954D01*
X35306692Y74663811D01*
X35267645Y74507620D01*
X35267645Y74195239D01*
X35306692Y74117143D01*
X35345740Y74078096D01*
X35423835Y74039048D01*
X35580026Y74039048D01*
X35658121Y74078096D01*
X35697169Y74117143D01*
X35736217Y74195239D01*
X35736217Y74390477D01*
X35697169Y74468572D01*
X35658121Y74507620D01*
X35580026Y74546668D01*
X35423835Y74546668D01*
X35345740Y74507620D01*
X35306692Y74468572D01*
X35267645Y74390477D01*
G04 #@! TO.C,S1*
X60833430Y107076322D02*
X60947716Y107038227D01*
X61138192Y107038227D01*
X61214383Y107076322D01*
X61252478Y107114417D01*
X61290573Y107190608D01*
X61290573Y107266798D01*
X61252478Y107342989D01*
X61214383Y107381084D01*
X61138192Y107419180D01*
X60985811Y107457275D01*
X60909620Y107495370D01*
X60871525Y107533465D01*
X60833430Y107609656D01*
X60833430Y107685847D01*
X60871525Y107762037D01*
X60909620Y107800132D01*
X60985811Y107838228D01*
X61176287Y107838228D01*
X61290573Y107800132D01*
X62052479Y107038227D02*
X61595335Y107038227D01*
X61823907Y107038227D02*
X61823907Y107838228D01*
X61747717Y107723942D01*
X61671526Y107647751D01*
X61595335Y107609656D01*
D16*
G04 #@! TO.C,V10*
X70103637Y27403088D02*
X71046446Y26931684D01*
X70575042Y27874493D01*
X71888240Y27773478D02*
X71484179Y27369417D01*
X71686209Y27571447D02*
X70979103Y28278554D01*
X71012774Y28110195D01*
X71012774Y27975508D01*
X70979103Y27874493D01*
X71618866Y28918317D02*
X71686209Y28985661D01*
X71787225Y29019332D01*
X71854568Y29019332D01*
X71955583Y28985661D01*
X72123942Y28884645D01*
X72292301Y28716287D01*
X72393316Y28547928D01*
X72426988Y28446913D01*
X72426988Y28379569D01*
X72393316Y28278554D01*
X72325973Y28211210D01*
X72224957Y28177539D01*
X72157614Y28177539D01*
X72056599Y28211210D01*
X71888240Y28312226D01*
X71719881Y28480584D01*
X71618866Y28648943D01*
X71585194Y28749958D01*
X71585194Y28817302D01*
X71618866Y28918317D01*
G04 #@! TO.C,V44*
X78103637Y27403088D02*
X79046446Y26931684D01*
X78575042Y27874493D01*
X79349492Y28177539D02*
X79820896Y27706134D01*
X78911759Y28278554D02*
X79248477Y27605119D01*
X79686209Y28042852D01*
X80022927Y28850974D02*
X80494331Y28379569D01*
X79585194Y28951989D02*
X79921912Y28278554D01*
X80359644Y28716287D01*
G04 #@! TO.C,BT1*
X139314285Y90421429D02*
X139457142Y90373810D01*
X139504761Y90326191D01*
X139552380Y90230953D01*
X139552380Y90088096D01*
X139504761Y89992858D01*
X139457142Y89945239D01*
X139361904Y89897620D01*
X138980952Y89897620D01*
X138980952Y90897620D01*
X139314285Y90897620D01*
X139409523Y90850000D01*
X139457142Y90802381D01*
X139504761Y90707143D01*
X139504761Y90611905D01*
X139457142Y90516667D01*
X139409523Y90469048D01*
X139314285Y90421429D01*
X138980952Y90421429D01*
X139838095Y90897620D02*
X140409523Y90897620D01*
X140123809Y89897620D02*
X140123809Y90897620D01*
X141266666Y89897620D02*
X140695238Y89897620D01*
X140980952Y89897620D02*
X140980952Y90897620D01*
X140885714Y90754762D01*
X140790476Y90659524D01*
X140695238Y90611905D01*
D17*
G04 #@! TO.C,R5*
X142986309Y57268048D02*
X142712976Y57658524D01*
X142517738Y57268048D02*
X142517738Y58088048D01*
X142830119Y58088048D01*
X142908214Y58049000D01*
X142947261Y58009953D01*
X142986309Y57931858D01*
X142986309Y57814715D01*
X142947261Y57736620D01*
X142908214Y57697572D01*
X142830119Y57658524D01*
X142517738Y57658524D01*
X143728214Y58088048D02*
X143337738Y58088048D01*
X143298690Y57697572D01*
X143337738Y57736620D01*
X143415833Y57775667D01*
X143611071Y57775667D01*
X143689166Y57736620D01*
X143728214Y57697572D01*
X143767261Y57619477D01*
X143767261Y57424239D01*
X143728214Y57346143D01*
X143689166Y57307096D01*
X143611071Y57268048D01*
X143415833Y57268048D01*
X143337738Y57307096D01*
X143298690Y57346143D01*
D16*
G04 #@! TO.C,VIN2*
X52952380Y37178572D02*
X53952380Y37511905D01*
X52952380Y37845239D01*
X53952380Y38178572D02*
X52952380Y38178572D01*
X53952380Y38654762D02*
X52952380Y38654762D01*
X53952380Y39226191D01*
X52952380Y39226191D01*
X53047619Y39654762D02*
X53000000Y39702381D01*
X52952380Y39797620D01*
X52952380Y40035715D01*
X53000000Y40130953D01*
X53047619Y40178572D01*
X53142857Y40226191D01*
X53238095Y40226191D01*
X53380952Y40178572D01*
X53952380Y39607143D01*
X53952380Y40226191D01*
G04 #@! TO.C,V49*
X71003637Y22603088D02*
X71946446Y22131684D01*
X71475042Y23074493D01*
X72249492Y23377539D02*
X72720896Y22906134D01*
X71811759Y23478554D02*
X72148477Y22805119D01*
X72586209Y23242852D01*
X73124957Y23310195D02*
X73259644Y23444882D01*
X73293316Y23545897D01*
X73293316Y23613241D01*
X73259644Y23781600D01*
X73158629Y23949958D01*
X72889255Y24219332D01*
X72788240Y24253004D01*
X72720896Y24253004D01*
X72619881Y24219332D01*
X72485194Y24084645D01*
X72451522Y23983630D01*
X72451522Y23916287D01*
X72485194Y23815271D01*
X72653553Y23646913D01*
X72754568Y23613241D01*
X72821912Y23613241D01*
X72922927Y23646913D01*
X73057614Y23781600D01*
X73091286Y23882615D01*
X73091286Y23949958D01*
X73057614Y24050974D01*
G04 #@! TO.C,VIN3*
X50252380Y37053572D02*
X51252380Y37386905D01*
X50252380Y37720239D01*
X51252380Y38053572D02*
X50252380Y38053572D01*
X51252380Y38529762D02*
X50252380Y38529762D01*
X51252380Y39101191D01*
X50252380Y39101191D01*
X50252380Y39482143D02*
X50252380Y40101191D01*
X50633333Y39767858D01*
X50633333Y39910715D01*
X50680952Y40005953D01*
X50728571Y40053572D01*
X50823809Y40101191D01*
X51061904Y40101191D01*
X51157142Y40053572D01*
X51204761Y40005953D01*
X51252380Y39910715D01*
X51252380Y39625000D01*
X51204761Y39529762D01*
X51157142Y39482143D01*
G04 #@! TO.C,U2*
X51438095Y103747620D02*
X51438095Y102938096D01*
X51485714Y102842858D01*
X51533333Y102795239D01*
X51628571Y102747620D01*
X51819047Y102747620D01*
X51914285Y102795239D01*
X51961904Y102842858D01*
X52009523Y102938096D01*
X52009523Y103747620D01*
X52438095Y103652381D02*
X52485714Y103700000D01*
X52580952Y103747620D01*
X52819047Y103747620D01*
X52914285Y103700000D01*
X52961904Y103652381D01*
X53009523Y103557143D01*
X53009523Y103461905D01*
X52961904Y103319048D01*
X52390476Y102747620D01*
X53009523Y102747620D01*
D17*
G04 #@! TO.C,D5*
X10862976Y92763096D02*
X10862976Y93563096D01*
X11053452Y93563096D01*
X11167738Y93525000D01*
X11243928Y93448810D01*
X11282023Y93372620D01*
X11320119Y93220239D01*
X11320119Y93105953D01*
X11282023Y92953572D01*
X11243928Y92877381D01*
X11167738Y92801191D01*
X11053452Y92763096D01*
X10862976Y92763096D01*
X12043928Y93563096D02*
X11662976Y93563096D01*
X11624880Y93182143D01*
X11662976Y93220239D01*
X11739166Y93258334D01*
X11929642Y93258334D01*
X12005833Y93220239D01*
X12043928Y93182143D01*
X12082023Y93105953D01*
X12082023Y92915477D01*
X12043928Y92839286D01*
X12005833Y92801191D01*
X11929642Y92763096D01*
X11739166Y92763096D01*
X11662976Y92801191D01*
X11624880Y92839286D01*
D16*
G04 #@! TO.C,V28*
X75503637Y27303088D02*
X76446446Y26831684D01*
X75975042Y27774493D01*
X76244416Y27909180D02*
X76244416Y27976523D01*
X76278087Y28077539D01*
X76446446Y28245897D01*
X76547461Y28279569D01*
X76614805Y28279569D01*
X76715820Y28245897D01*
X76783164Y28178554D01*
X76850507Y28043867D01*
X76850507Y27235745D01*
X77288240Y27673478D01*
X77288240Y28481600D02*
X77187225Y28447928D01*
X77119881Y28447928D01*
X77018866Y28481600D01*
X76985194Y28515271D01*
X76951522Y28616287D01*
X76951522Y28683630D01*
X76985194Y28784645D01*
X77119881Y28919332D01*
X77220896Y28953004D01*
X77288240Y28953004D01*
X77389255Y28919332D01*
X77422927Y28885661D01*
X77456599Y28784645D01*
X77456599Y28717302D01*
X77422927Y28616287D01*
X77288240Y28481600D01*
X77254568Y28380584D01*
X77254568Y28313241D01*
X77288240Y28212226D01*
X77422927Y28077539D01*
X77523942Y28043867D01*
X77591286Y28043867D01*
X77692301Y28077539D01*
X77826988Y28212226D01*
X77860660Y28313241D01*
X77860660Y28380584D01*
X77826988Y28481600D01*
X77692301Y28616287D01*
X77591286Y28649958D01*
X77523942Y28649958D01*
X77422927Y28616287D01*
D17*
G04 #@! TO.C,R18*
X53963736Y102632872D02*
X53690403Y103023348D01*
X53495165Y102632872D02*
X53495165Y103452872D01*
X53807546Y103452872D01*
X53885641Y103413824D01*
X53924688Y103374777D01*
X53963736Y103296682D01*
X53963736Y103179539D01*
X53924688Y103101444D01*
X53885641Y103062396D01*
X53807546Y103023348D01*
X53495165Y103023348D01*
X54744688Y102632872D02*
X54276117Y102632872D01*
X54510403Y102632872D02*
X54510403Y103452872D01*
X54432307Y103335729D01*
X54354212Y103257634D01*
X54276117Y103218586D01*
X55213260Y103101444D02*
X55135165Y103140491D01*
X55096117Y103179539D01*
X55057069Y103257634D01*
X55057069Y103296682D01*
X55096117Y103374777D01*
X55135165Y103413824D01*
X55213260Y103452872D01*
X55369450Y103452872D01*
X55447546Y103413824D01*
X55486593Y103374777D01*
X55525641Y103296682D01*
X55525641Y103257634D01*
X55486593Y103179539D01*
X55447546Y103140491D01*
X55369450Y103101444D01*
X55213260Y103101444D01*
X55135165Y103062396D01*
X55096117Y103023348D01*
X55057069Y102945253D01*
X55057069Y102789063D01*
X55096117Y102710967D01*
X55135165Y102671920D01*
X55213260Y102632872D01*
X55369450Y102632872D01*
X55447546Y102671920D01*
X55486593Y102710967D01*
X55525641Y102789063D01*
X55525641Y102945253D01*
X55486593Y103023348D01*
X55447546Y103062396D01*
X55369450Y103101444D01*
D18*
G04 #@! TO.C,R10*
X13644714Y25135143D02*
X13281857Y24881143D01*
X13644714Y24699715D02*
X12882714Y24699715D01*
X12882714Y24990000D01*
X12919000Y25062572D01*
X12955285Y25098858D01*
X13027857Y25135143D01*
X13136714Y25135143D01*
X13209285Y25098858D01*
X13245571Y25062572D01*
X13281857Y24990000D01*
X13281857Y24699715D01*
X13644714Y25860858D02*
X13644714Y25425429D01*
X13644714Y25643143D02*
X12882714Y25643143D01*
X12991571Y25570572D01*
X13064142Y25498000D01*
X13100428Y25425429D01*
X12882714Y26332572D02*
X12882714Y26405143D01*
X12919000Y26477715D01*
X12955285Y26514000D01*
X13027857Y26550286D01*
X13173000Y26586572D01*
X13354428Y26586572D01*
X13499571Y26550286D01*
X13572142Y26514000D01*
X13608428Y26477715D01*
X13644714Y26405143D01*
X13644714Y26332572D01*
X13608428Y26260000D01*
X13572142Y26223715D01*
X13499571Y26187429D01*
X13354428Y26151143D01*
X13173000Y26151143D01*
X13027857Y26187429D01*
X12955285Y26223715D01*
X12919000Y26260000D01*
X12882714Y26332572D01*
D17*
G04 #@! TO.C,D3*
X10862976Y94763096D02*
X10862976Y95563096D01*
X11053452Y95563096D01*
X11167738Y95525000D01*
X11243928Y95448810D01*
X11282023Y95372620D01*
X11320119Y95220239D01*
X11320119Y95105953D01*
X11282023Y94953572D01*
X11243928Y94877381D01*
X11167738Y94801191D01*
X11053452Y94763096D01*
X10862976Y94763096D01*
X11586785Y95563096D02*
X12082023Y95563096D01*
X11815357Y95258334D01*
X11929642Y95258334D01*
X12005833Y95220239D01*
X12043928Y95182143D01*
X12082023Y95105953D01*
X12082023Y94915477D01*
X12043928Y94839286D01*
X12005833Y94801191D01*
X11929642Y94763096D01*
X11701071Y94763096D01*
X11624880Y94801191D01*
X11586785Y94839286D01*
D18*
G04 #@! TO.C,R9*
X51869714Y24173000D02*
X51506857Y23919000D01*
X51869714Y23737572D02*
X51107714Y23737572D01*
X51107714Y24027858D01*
X51144000Y24100429D01*
X51180285Y24136715D01*
X51252857Y24173000D01*
X51361714Y24173000D01*
X51434285Y24136715D01*
X51470571Y24100429D01*
X51506857Y24027858D01*
X51506857Y23737572D01*
X51869714Y24535858D02*
X51869714Y24681000D01*
X51833428Y24753572D01*
X51797142Y24789858D01*
X51688285Y24862429D01*
X51543142Y24898715D01*
X51252857Y24898715D01*
X51180285Y24862429D01*
X51144000Y24826143D01*
X51107714Y24753572D01*
X51107714Y24608429D01*
X51144000Y24535858D01*
X51180285Y24499572D01*
X51252857Y24463286D01*
X51434285Y24463286D01*
X51506857Y24499572D01*
X51543142Y24535858D01*
X51579428Y24608429D01*
X51579428Y24753572D01*
X51543142Y24826143D01*
X51506857Y24862429D01*
X51434285Y24898715D01*
D16*
G04 #@! TO.C,C8*
X134395333Y57871858D02*
X134347714Y57824239D01*
X134204857Y57776620D01*
X134109619Y57776620D01*
X133966761Y57824239D01*
X133871523Y57919477D01*
X133823904Y58014715D01*
X133776285Y58205191D01*
X133776285Y58348048D01*
X133823904Y58538524D01*
X133871523Y58633762D01*
X133966761Y58729000D01*
X134109619Y58776620D01*
X134204857Y58776620D01*
X134347714Y58729000D01*
X134395333Y58681381D01*
X134966761Y58348048D02*
X134871523Y58395667D01*
X134823904Y58443286D01*
X134776285Y58538524D01*
X134776285Y58586143D01*
X134823904Y58681381D01*
X134871523Y58729000D01*
X134966761Y58776620D01*
X135157238Y58776620D01*
X135252476Y58729000D01*
X135300095Y58681381D01*
X135347714Y58586143D01*
X135347714Y58538524D01*
X135300095Y58443286D01*
X135252476Y58395667D01*
X135157238Y58348048D01*
X134966761Y58348048D01*
X134871523Y58300429D01*
X134823904Y58252810D01*
X134776285Y58157572D01*
X134776285Y57967096D01*
X134823904Y57871858D01*
X134871523Y57824239D01*
X134966761Y57776620D01*
X135157238Y57776620D01*
X135252476Y57824239D01*
X135300095Y57871858D01*
X135347714Y57967096D01*
X135347714Y58157572D01*
X135300095Y58252810D01*
X135252476Y58300429D01*
X135157238Y58348048D01*
D17*
G04 #@! TO.C,D9*
X132700976Y96038096D02*
X132700976Y96838096D01*
X132891452Y96838096D01*
X133005738Y96800000D01*
X133081928Y96723810D01*
X133120023Y96647620D01*
X133158119Y96495239D01*
X133158119Y96380953D01*
X133120023Y96228572D01*
X133081928Y96152381D01*
X133005738Y96076191D01*
X132891452Y96038096D01*
X132700976Y96038096D01*
X133539071Y96038096D02*
X133691452Y96038096D01*
X133767642Y96076191D01*
X133805738Y96114286D01*
X133881928Y96228572D01*
X133920023Y96380953D01*
X133920023Y96685715D01*
X133881928Y96761905D01*
X133843833Y96800000D01*
X133767642Y96838096D01*
X133615261Y96838096D01*
X133539071Y96800000D01*
X133500976Y96761905D01*
X133462880Y96685715D01*
X133462880Y96495239D01*
X133500976Y96419048D01*
X133539071Y96380953D01*
X133615261Y96342858D01*
X133767642Y96342858D01*
X133843833Y96380953D01*
X133881928Y96419048D01*
X133920023Y96495239D01*
D16*
G04 #@! TO.C,V14*
X62203637Y22703088D02*
X63146446Y22231684D01*
X62675042Y23174493D01*
X63988240Y23073478D02*
X63584179Y22669417D01*
X63786209Y22871447D02*
X63079103Y23578554D01*
X63112774Y23410195D01*
X63112774Y23275508D01*
X63079103Y23174493D01*
X64122927Y24150974D02*
X64594331Y23679569D01*
X63685194Y24251989D02*
X64021912Y23578554D01*
X64459644Y24016287D01*
D17*
G04 #@! TO.C,R6*
X57960952Y38199310D02*
X57570476Y37925977D01*
X57960952Y37730739D02*
X57140952Y37730739D01*
X57140952Y38043120D01*
X57180000Y38121215D01*
X57219047Y38160262D01*
X57297142Y38199310D01*
X57414285Y38199310D01*
X57492380Y38160262D01*
X57531428Y38121215D01*
X57570476Y38043120D01*
X57570476Y37730739D01*
X57140952Y38902167D02*
X57140952Y38745977D01*
X57180000Y38667881D01*
X57219047Y38628834D01*
X57336190Y38550739D01*
X57492380Y38511691D01*
X57804761Y38511691D01*
X57882857Y38550739D01*
X57921904Y38589786D01*
X57960952Y38667881D01*
X57960952Y38824072D01*
X57921904Y38902167D01*
X57882857Y38941215D01*
X57804761Y38980262D01*
X57609523Y38980262D01*
X57531428Y38941215D01*
X57492380Y38902167D01*
X57453333Y38824072D01*
X57453333Y38667881D01*
X57492380Y38589786D01*
X57531428Y38550739D01*
X57609523Y38511691D01*
G04 #@! TO.C,R19*
X57360952Y103174310D02*
X56970476Y102900977D01*
X57360952Y102705739D02*
X56540952Y102705739D01*
X56540952Y103018120D01*
X56580000Y103096215D01*
X56619047Y103135262D01*
X56697142Y103174310D01*
X56814285Y103174310D01*
X56892380Y103135262D01*
X56931428Y103096215D01*
X56970476Y103018120D01*
X56970476Y102705739D01*
X57360952Y103955262D02*
X57360952Y103486691D01*
X57360952Y103720977D02*
X56540952Y103720977D01*
X56658095Y103642881D01*
X56736190Y103564786D01*
X56775238Y103486691D01*
X57360952Y104345739D02*
X57360952Y104501929D01*
X57321904Y104580024D01*
X57282857Y104619072D01*
X57165714Y104697167D01*
X57009523Y104736215D01*
X56697142Y104736215D01*
X56619047Y104697167D01*
X56580000Y104658120D01*
X56540952Y104580024D01*
X56540952Y104423834D01*
X56580000Y104345739D01*
X56619047Y104306691D01*
X56697142Y104267643D01*
X56892380Y104267643D01*
X56970476Y104306691D01*
X57009523Y104345739D01*
X57048571Y104423834D01*
X57048571Y104580024D01*
X57009523Y104658120D01*
X56970476Y104697167D01*
X56892380Y104736215D01*
D16*
G04 #@! TO.C,VOUT1*
X87827380Y37686905D02*
X88827380Y38020239D01*
X87827380Y38353572D01*
X87827380Y38877381D02*
X87827380Y39067858D01*
X87875000Y39163096D01*
X87970238Y39258334D01*
X88160714Y39305953D01*
X88494047Y39305953D01*
X88684523Y39258334D01*
X88779761Y39163096D01*
X88827380Y39067858D01*
X88827380Y38877381D01*
X88779761Y38782143D01*
X88684523Y38686905D01*
X88494047Y38639286D01*
X88160714Y38639286D01*
X87970238Y38686905D01*
X87875000Y38782143D01*
X87827380Y38877381D01*
X87827380Y39734524D02*
X88636904Y39734524D01*
X88732142Y39782143D01*
X88779761Y39829762D01*
X88827380Y39925000D01*
X88827380Y40115477D01*
X88779761Y40210715D01*
X88732142Y40258334D01*
X88636904Y40305953D01*
X87827380Y40305953D01*
X87827380Y40639286D02*
X87827380Y41210715D01*
X88827380Y40925000D02*
X87827380Y40925000D01*
X88827380Y42067858D02*
X88827380Y41496429D01*
X88827380Y41782143D02*
X87827380Y41782143D01*
X87970238Y41686905D01*
X88065476Y41591667D01*
X88113095Y41496429D01*
G04 #@! TO.C,V43*
X37777380Y34564286D02*
X38777380Y34897620D01*
X37777380Y35230953D01*
X38110714Y35992858D02*
X38777380Y35992858D01*
X37729761Y35754762D02*
X38444047Y35516667D01*
X38444047Y36135715D01*
X37777380Y36421429D02*
X37777380Y37040477D01*
X38158333Y36707143D01*
X38158333Y36850000D01*
X38205952Y36945239D01*
X38253571Y36992858D01*
X38348809Y37040477D01*
X38586904Y37040477D01*
X38682142Y36992858D01*
X38729761Y36945239D01*
X38777380Y36850000D01*
X38777380Y36564286D01*
X38729761Y36469048D01*
X38682142Y36421429D01*
G04 #@! TO.C,J8*
X10666666Y67647620D02*
X10666666Y66933334D01*
X10619047Y66790477D01*
X10523809Y66695239D01*
X10380952Y66647620D01*
X10285714Y66647620D01*
X11285714Y67219048D02*
X11190476Y67266667D01*
X11142857Y67314286D01*
X11095238Y67409524D01*
X11095238Y67457143D01*
X11142857Y67552381D01*
X11190476Y67600000D01*
X11285714Y67647620D01*
X11476190Y67647620D01*
X11571428Y67600000D01*
X11619047Y67552381D01*
X11666666Y67457143D01*
X11666666Y67409524D01*
X11619047Y67314286D01*
X11571428Y67266667D01*
X11476190Y67219048D01*
X11285714Y67219048D01*
X11190476Y67171429D01*
X11142857Y67123810D01*
X11095238Y67028572D01*
X11095238Y66838096D01*
X11142857Y66742858D01*
X11190476Y66695239D01*
X11285714Y66647620D01*
X11476190Y66647620D01*
X11571428Y66695239D01*
X11619047Y66742858D01*
X11666666Y66838096D01*
X11666666Y67028572D01*
X11619047Y67123810D01*
X11571428Y67171429D01*
X11476190Y67219048D01*
G04 #@! TO.C,C10*
X133369142Y53721858D02*
X133321523Y53674239D01*
X133178666Y53626620D01*
X133083428Y53626620D01*
X132940571Y53674239D01*
X132845333Y53769477D01*
X132797714Y53864715D01*
X132750095Y54055191D01*
X132750095Y54198048D01*
X132797714Y54388524D01*
X132845333Y54483762D01*
X132940571Y54579000D01*
X133083428Y54626620D01*
X133178666Y54626620D01*
X133321523Y54579000D01*
X133369142Y54531381D01*
X134321523Y53626620D02*
X133750095Y53626620D01*
X134035809Y53626620D02*
X134035809Y54626620D01*
X133940571Y54483762D01*
X133845333Y54388524D01*
X133750095Y54340905D01*
X134940571Y54626620D02*
X135035809Y54626620D01*
X135131047Y54579000D01*
X135178666Y54531381D01*
X135226285Y54436143D01*
X135273904Y54245667D01*
X135273904Y54007572D01*
X135226285Y53817096D01*
X135178666Y53721858D01*
X135131047Y53674239D01*
X135035809Y53626620D01*
X134940571Y53626620D01*
X134845333Y53674239D01*
X134797714Y53721858D01*
X134750095Y53817096D01*
X134702476Y54007572D01*
X134702476Y54245667D01*
X134750095Y54436143D01*
X134797714Y54531381D01*
X134845333Y54579000D01*
X134940571Y54626620D01*
G04 #@! TO.C,J9*
X64902380Y99166667D02*
X65616666Y99166667D01*
X65759523Y99119048D01*
X65854761Y99023810D01*
X65902380Y98880953D01*
X65902380Y98785715D01*
X65902380Y99690477D02*
X65902380Y99880953D01*
X65854761Y99976191D01*
X65807142Y100023810D01*
X65664285Y100119048D01*
X65473809Y100166667D01*
X65092857Y100166667D01*
X64997619Y100119048D01*
X64950000Y100071429D01*
X64902380Y99976191D01*
X64902380Y99785715D01*
X64950000Y99690477D01*
X64997619Y99642858D01*
X65092857Y99595239D01*
X65330952Y99595239D01*
X65426190Y99642858D01*
X65473809Y99690477D01*
X65521428Y99785715D01*
X65521428Y99976191D01*
X65473809Y100071429D01*
X65426190Y100119048D01*
X65330952Y100166667D01*
D18*
G04 #@! TO.C,R2*
X46719714Y24273000D02*
X46356857Y24019000D01*
X46719714Y23837572D02*
X45957714Y23837572D01*
X45957714Y24127858D01*
X45994000Y24200429D01*
X46030285Y24236715D01*
X46102857Y24273000D01*
X46211714Y24273000D01*
X46284285Y24236715D01*
X46320571Y24200429D01*
X46356857Y24127858D01*
X46356857Y23837572D01*
X46030285Y24563286D02*
X45994000Y24599572D01*
X45957714Y24672143D01*
X45957714Y24853572D01*
X45994000Y24926143D01*
X46030285Y24962429D01*
X46102857Y24998715D01*
X46175428Y24998715D01*
X46284285Y24962429D01*
X46719714Y24527000D01*
X46719714Y24998715D01*
D16*
G04 #@! TO.C,R14*
X70883571Y41250477D02*
X70460238Y41855239D01*
X70157857Y41250477D02*
X70157857Y42520477D01*
X70641666Y42520477D01*
X70762619Y42460000D01*
X70823095Y42399524D01*
X70883571Y42278572D01*
X70883571Y42097143D01*
X70823095Y41976191D01*
X70762619Y41915715D01*
X70641666Y41855239D01*
X70157857Y41855239D01*
X72093095Y41250477D02*
X71367380Y41250477D01*
X71730238Y41250477D02*
X71730238Y42520477D01*
X71609285Y42339048D01*
X71488333Y42218096D01*
X71367380Y42157620D01*
X73181666Y42097143D02*
X73181666Y41250477D01*
X72879285Y42580953D02*
X72576904Y41673810D01*
X73363095Y41673810D01*
D18*
G04 #@! TO.C,R12*
X15944714Y25135143D02*
X15581857Y24881143D01*
X15944714Y24699715D02*
X15182714Y24699715D01*
X15182714Y24990000D01*
X15219000Y25062572D01*
X15255285Y25098858D01*
X15327857Y25135143D01*
X15436714Y25135143D01*
X15509285Y25098858D01*
X15545571Y25062572D01*
X15581857Y24990000D01*
X15581857Y24699715D01*
X15944714Y25860858D02*
X15944714Y25425429D01*
X15944714Y25643143D02*
X15182714Y25643143D01*
X15291571Y25570572D01*
X15364142Y25498000D01*
X15400428Y25425429D01*
X15255285Y26151143D02*
X15219000Y26187429D01*
X15182714Y26260000D01*
X15182714Y26441429D01*
X15219000Y26514000D01*
X15255285Y26550286D01*
X15327857Y26586572D01*
X15400428Y26586572D01*
X15509285Y26550286D01*
X15944714Y26114858D01*
X15944714Y26586572D01*
D16*
G04 #@! TO.C,R15*
X86074523Y38608572D02*
X85469761Y38185239D01*
X86074523Y37882858D02*
X84804523Y37882858D01*
X84804523Y38366667D01*
X84865000Y38487620D01*
X84925476Y38548096D01*
X85046428Y38608572D01*
X85227857Y38608572D01*
X85348809Y38548096D01*
X85409285Y38487620D01*
X85469761Y38366667D01*
X85469761Y37882858D01*
X86074523Y39818096D02*
X86074523Y39092381D01*
X86074523Y39455239D02*
X84804523Y39455239D01*
X84985952Y39334286D01*
X85106904Y39213334D01*
X85167380Y39092381D01*
X84804523Y40967143D02*
X84804523Y40362381D01*
X85409285Y40301905D01*
X85348809Y40362381D01*
X85288333Y40483334D01*
X85288333Y40785715D01*
X85348809Y40906667D01*
X85409285Y40967143D01*
X85530238Y41027620D01*
X85832619Y41027620D01*
X85953571Y40967143D01*
X86014047Y40906667D01*
X86074523Y40785715D01*
X86074523Y40483334D01*
X86014047Y40362381D01*
X85953571Y40301905D01*
D18*
G04 #@! TO.C,F2*
X128745571Y28971000D02*
X128745571Y28717000D01*
X129144714Y28717000D02*
X128382714Y28717000D01*
X128382714Y29079858D01*
X128455285Y29333858D02*
X128419000Y29370143D01*
X128382714Y29442715D01*
X128382714Y29624143D01*
X128419000Y29696715D01*
X128455285Y29733000D01*
X128527857Y29769286D01*
X128600428Y29769286D01*
X128709285Y29733000D01*
X129144714Y29297572D01*
X129144714Y29769286D01*
D16*
G04 #@! TO.C,C14*
X131969142Y30171858D02*
X131921523Y30124239D01*
X131778666Y30076620D01*
X131683428Y30076620D01*
X131540571Y30124239D01*
X131445333Y30219477D01*
X131397714Y30314715D01*
X131350095Y30505191D01*
X131350095Y30648048D01*
X131397714Y30838524D01*
X131445333Y30933762D01*
X131540571Y31029000D01*
X131683428Y31076620D01*
X131778666Y31076620D01*
X131921523Y31029000D01*
X131969142Y30981381D01*
X132921523Y30076620D02*
X132350095Y30076620D01*
X132635809Y30076620D02*
X132635809Y31076620D01*
X132540571Y30933762D01*
X132445333Y30838524D01*
X132350095Y30790905D01*
X133778666Y30743286D02*
X133778666Y30076620D01*
X133540571Y31124239D02*
X133302476Y30409953D01*
X133921523Y30409953D01*
D17*
G04 #@! TO.C,C3*
X139986310Y55746143D02*
X139947262Y55707096D01*
X139830119Y55668048D01*
X139752024Y55668048D01*
X139634881Y55707096D01*
X139556786Y55785191D01*
X139517738Y55863286D01*
X139478690Y56019477D01*
X139478690Y56136620D01*
X139517738Y56292811D01*
X139556786Y56370906D01*
X139634881Y56449001D01*
X139752024Y56488049D01*
X139830119Y56488049D01*
X139947262Y56449001D01*
X139986310Y56409954D01*
X140259644Y56488049D02*
X140767263Y56488049D01*
X140493930Y56175668D01*
X140611073Y56175668D01*
X140689168Y56136620D01*
X140728216Y56097572D01*
X140767263Y56019477D01*
X140767263Y55824239D01*
X140728216Y55746143D01*
X140689168Y55707096D01*
X140611073Y55668048D01*
X140376787Y55668048D01*
X140298691Y55707096D01*
X140259644Y55746143D01*
G04 #@! TO.C,C2*
X133636310Y34096143D02*
X133597262Y34057096D01*
X133480119Y34018048D01*
X133402024Y34018048D01*
X133284881Y34057096D01*
X133206786Y34135191D01*
X133167738Y34213286D01*
X133128690Y34369477D01*
X133128690Y34486620D01*
X133167738Y34642811D01*
X133206786Y34720906D01*
X133284881Y34799001D01*
X133402024Y34838049D01*
X133480119Y34838049D01*
X133597262Y34799001D01*
X133636310Y34759954D01*
X133948691Y34759954D02*
X133987739Y34799001D01*
X134065834Y34838049D01*
X134261073Y34838049D01*
X134339168Y34799001D01*
X134378216Y34759954D01*
X134417263Y34681858D01*
X134417263Y34603763D01*
X134378216Y34486620D01*
X133909644Y34018048D01*
X134417263Y34018048D01*
D16*
G04 #@! TO.C,V63*
X85203637Y22403088D02*
X86146446Y21931684D01*
X85675042Y22874493D01*
X86213790Y23413241D02*
X86079103Y23278554D01*
X86045431Y23177539D01*
X86045431Y23110195D01*
X86079103Y22941836D01*
X86180118Y22773478D01*
X86449492Y22504104D01*
X86550507Y22470432D01*
X86617851Y22470432D01*
X86718866Y22504104D01*
X86853553Y22638791D01*
X86887225Y22739806D01*
X86887225Y22807149D01*
X86853553Y22908165D01*
X86685194Y23076523D01*
X86584179Y23110195D01*
X86516835Y23110195D01*
X86415820Y23076523D01*
X86281133Y22941836D01*
X86247461Y22840821D01*
X86247461Y22773478D01*
X86281133Y22672462D01*
X86516835Y23716287D02*
X86954568Y24154019D01*
X86988240Y23648943D01*
X87089255Y23749958D01*
X87190270Y23783630D01*
X87257614Y23783630D01*
X87358629Y23749958D01*
X87526988Y23581600D01*
X87560660Y23480584D01*
X87560660Y23413241D01*
X87526988Y23312226D01*
X87324957Y23110195D01*
X87223942Y23076523D01*
X87156599Y23076523D01*
G04 #@! TO.C,C12*
X132019142Y28121858D02*
X131971523Y28074239D01*
X131828666Y28026620D01*
X131733428Y28026620D01*
X131590571Y28074239D01*
X131495333Y28169477D01*
X131447714Y28264715D01*
X131400095Y28455191D01*
X131400095Y28598048D01*
X131447714Y28788524D01*
X131495333Y28883762D01*
X131590571Y28979000D01*
X131733428Y29026620D01*
X131828666Y29026620D01*
X131971523Y28979000D01*
X132019142Y28931381D01*
X132971523Y28026620D02*
X132400095Y28026620D01*
X132685809Y28026620D02*
X132685809Y29026620D01*
X132590571Y28883762D01*
X132495333Y28788524D01*
X132400095Y28740905D01*
X133352476Y28931381D02*
X133400095Y28979000D01*
X133495333Y29026620D01*
X133733428Y29026620D01*
X133828666Y28979000D01*
X133876285Y28931381D01*
X133923904Y28836143D01*
X133923904Y28740905D01*
X133876285Y28598048D01*
X133304857Y28026620D01*
X133923904Y28026620D01*
G04 #@! TO.C,J10*
X97890476Y109647620D02*
X97890476Y108933334D01*
X97842857Y108790477D01*
X97747619Y108695239D01*
X97604761Y108647620D01*
X97509523Y108647620D01*
X98890476Y108647620D02*
X98319047Y108647620D01*
X98604761Y108647620D02*
X98604761Y109647620D01*
X98509523Y109504762D01*
X98414285Y109409524D01*
X98319047Y109361905D01*
X99509523Y109647620D02*
X99604761Y109647620D01*
X99700000Y109600000D01*
X99747619Y109552381D01*
X99795238Y109457143D01*
X99842857Y109266667D01*
X99842857Y109028572D01*
X99795238Y108838096D01*
X99747619Y108742858D01*
X99700000Y108695239D01*
X99604761Y108647620D01*
X99509523Y108647620D01*
X99414285Y108695239D01*
X99366666Y108742858D01*
X99319047Y108838096D01*
X99271428Y109028572D01*
X99271428Y109266667D01*
X99319047Y109457143D01*
X99366666Y109552381D01*
X99414285Y109600000D01*
X99509523Y109647620D01*
G04 #@! TO.C,VOUT2*
X100102380Y37986905D02*
X101102380Y38320239D01*
X100102380Y38653572D01*
X100102380Y39177381D02*
X100102380Y39367858D01*
X100150000Y39463096D01*
X100245238Y39558334D01*
X100435714Y39605953D01*
X100769047Y39605953D01*
X100959523Y39558334D01*
X101054761Y39463096D01*
X101102380Y39367858D01*
X101102380Y39177381D01*
X101054761Y39082143D01*
X100959523Y38986905D01*
X100769047Y38939286D01*
X100435714Y38939286D01*
X100245238Y38986905D01*
X100150000Y39082143D01*
X100102380Y39177381D01*
X100102380Y40034524D02*
X100911904Y40034524D01*
X101007142Y40082143D01*
X101054761Y40129762D01*
X101102380Y40225000D01*
X101102380Y40415477D01*
X101054761Y40510715D01*
X101007142Y40558334D01*
X100911904Y40605953D01*
X100102380Y40605953D01*
X100102380Y40939286D02*
X100102380Y41510715D01*
X101102380Y41225000D02*
X100102380Y41225000D01*
X100197619Y41796429D02*
X100150000Y41844048D01*
X100102380Y41939286D01*
X100102380Y42177381D01*
X100150000Y42272620D01*
X100197619Y42320239D01*
X100292857Y42367858D01*
X100388095Y42367858D01*
X100530952Y42320239D01*
X101102380Y41748810D01*
X101102380Y42367858D01*
G04 #@! TO.C,C7*
X134345333Y59921858D02*
X134297714Y59874239D01*
X134154857Y59826620D01*
X134059619Y59826620D01*
X133916761Y59874239D01*
X133821523Y59969477D01*
X133773904Y60064715D01*
X133726285Y60255191D01*
X133726285Y60398048D01*
X133773904Y60588524D01*
X133821523Y60683762D01*
X133916761Y60779000D01*
X134059619Y60826620D01*
X134154857Y60826620D01*
X134297714Y60779000D01*
X134345333Y60731381D01*
X134678666Y60826620D02*
X135345333Y60826620D01*
X134916761Y59826620D01*
G04 #@! TO.C,C9*
X134395333Y55771858D02*
X134347714Y55724239D01*
X134204857Y55676620D01*
X134109619Y55676620D01*
X133966761Y55724239D01*
X133871523Y55819477D01*
X133823904Y55914715D01*
X133776285Y56105191D01*
X133776285Y56248048D01*
X133823904Y56438524D01*
X133871523Y56533762D01*
X133966761Y56629000D01*
X134109619Y56676620D01*
X134204857Y56676620D01*
X134347714Y56629000D01*
X134395333Y56581381D01*
X134871523Y55676620D02*
X135062000Y55676620D01*
X135157238Y55724239D01*
X135204857Y55771858D01*
X135300095Y55914715D01*
X135347714Y56105191D01*
X135347714Y56486143D01*
X135300095Y56581381D01*
X135252476Y56629000D01*
X135157238Y56676620D01*
X134966761Y56676620D01*
X134871523Y56629000D01*
X134823904Y56581381D01*
X134776285Y56486143D01*
X134776285Y56248048D01*
X134823904Y56152810D01*
X134871523Y56105191D01*
X134966761Y56057572D01*
X135157238Y56057572D01*
X135252476Y56105191D01*
X135300095Y56152810D01*
X135347714Y56248048D01*
G04 #@! TO.C,V46*
X77403637Y22503088D02*
X78346446Y22031684D01*
X77875042Y22974493D01*
X78649492Y23277539D02*
X79120896Y22806134D01*
X78211759Y23378554D02*
X78548477Y22705119D01*
X78986209Y23142852D01*
X79087225Y24186676D02*
X78952538Y24051989D01*
X78918866Y23950974D01*
X78918866Y23883630D01*
X78952538Y23715271D01*
X79053553Y23546913D01*
X79322927Y23277539D01*
X79423942Y23243867D01*
X79491286Y23243867D01*
X79592301Y23277539D01*
X79726988Y23412226D01*
X79760660Y23513241D01*
X79760660Y23580584D01*
X79726988Y23681600D01*
X79558629Y23849958D01*
X79457614Y23883630D01*
X79390270Y23883630D01*
X79289255Y23849958D01*
X79154568Y23715271D01*
X79120896Y23614256D01*
X79120896Y23546913D01*
X79154568Y23445897D01*
D17*
G04 #@! TO.C,R20*
X8574309Y84139048D02*
X8300976Y84529524D01*
X8105738Y84139048D02*
X8105738Y84959048D01*
X8418119Y84959048D01*
X8496214Y84920000D01*
X8535261Y84880953D01*
X8574309Y84802858D01*
X8574309Y84685715D01*
X8535261Y84607620D01*
X8496214Y84568572D01*
X8418119Y84529524D01*
X8105738Y84529524D01*
X8886690Y84880953D02*
X8925738Y84920000D01*
X9003833Y84959048D01*
X9199071Y84959048D01*
X9277166Y84920000D01*
X9316214Y84880953D01*
X9355261Y84802858D01*
X9355261Y84724762D01*
X9316214Y84607620D01*
X8847642Y84139048D01*
X9355261Y84139048D01*
X9862880Y84959048D02*
X9940976Y84959048D01*
X10019071Y84920000D01*
X10058119Y84880953D01*
X10097166Y84802858D01*
X10136214Y84646667D01*
X10136214Y84451429D01*
X10097166Y84295239D01*
X10058119Y84217143D01*
X10019071Y84178096D01*
X9940976Y84139048D01*
X9862880Y84139048D01*
X9784785Y84178096D01*
X9745738Y84217143D01*
X9706690Y84295239D01*
X9667642Y84451429D01*
X9667642Y84646667D01*
X9706690Y84802858D01*
X9745738Y84880953D01*
X9784785Y84920000D01*
X9862880Y84959048D01*
D16*
G04 #@! TO.C,V13*
X65003637Y22503088D02*
X65946446Y22031684D01*
X65475042Y22974493D01*
X66788240Y22873478D02*
X66384179Y22469417D01*
X66586209Y22671447D02*
X65879103Y23378554D01*
X65912774Y23210195D01*
X65912774Y23075508D01*
X65879103Y22974493D01*
X66316835Y23816287D02*
X66754568Y24254019D01*
X66788240Y23748943D01*
X66889255Y23849958D01*
X66990270Y23883630D01*
X67057614Y23883630D01*
X67158629Y23849958D01*
X67326988Y23681600D01*
X67360660Y23580584D01*
X67360660Y23513241D01*
X67326988Y23412226D01*
X67124957Y23210195D01*
X67023942Y23176523D01*
X66956599Y23176523D01*
G04 #@! TO.C,V45*
X80103637Y22503088D02*
X81046446Y22031684D01*
X80575042Y22974493D01*
X81349492Y23277539D02*
X81820896Y22806134D01*
X80911759Y23378554D02*
X81248477Y22705119D01*
X81686209Y23142852D01*
X81820896Y24220348D02*
X81484179Y23883630D01*
X81787225Y23513241D01*
X81787225Y23580584D01*
X81820896Y23681600D01*
X81989255Y23849958D01*
X82090270Y23883630D01*
X82157614Y23883630D01*
X82258629Y23849958D01*
X82426988Y23681600D01*
X82460660Y23580584D01*
X82460660Y23513241D01*
X82426988Y23412226D01*
X82258629Y23243867D01*
X82157614Y23210195D01*
X82090270Y23210195D01*
G04 #@! TO.C,J7*
X74766666Y102047620D02*
X74766666Y101333334D01*
X74719047Y101190477D01*
X74623809Y101095239D01*
X74480952Y101047620D01*
X74385714Y101047620D01*
X75147619Y102047620D02*
X75814285Y102047620D01*
X75385714Y101047620D01*
G04 #@! TO.C,V12*
X67703637Y22603088D02*
X68646446Y22131684D01*
X68175042Y23074493D01*
X69488240Y22973478D02*
X69084179Y22569417D01*
X69286209Y22771447D02*
X68579103Y23478554D01*
X68612774Y23310195D01*
X68612774Y23175508D01*
X68579103Y23074493D01*
X69117851Y23882615D02*
X69117851Y23949958D01*
X69151522Y24050974D01*
X69319881Y24219332D01*
X69420896Y24253004D01*
X69488240Y24253004D01*
X69589255Y24219332D01*
X69656599Y24151989D01*
X69723942Y24017302D01*
X69723942Y23209180D01*
X70161675Y23646913D01*
D17*
G04 #@! TO.C,R17*
X8574309Y93639048D02*
X8300976Y94029524D01*
X8105738Y93639048D02*
X8105738Y94459048D01*
X8418119Y94459048D01*
X8496214Y94420000D01*
X8535261Y94380953D01*
X8574309Y94302858D01*
X8574309Y94185715D01*
X8535261Y94107620D01*
X8496214Y94068572D01*
X8418119Y94029524D01*
X8105738Y94029524D01*
X9355261Y93639048D02*
X8886690Y93639048D01*
X9120976Y93639048D02*
X9120976Y94459048D01*
X9042880Y94341905D01*
X8964785Y94263810D01*
X8886690Y94224762D01*
X9628595Y94459048D02*
X10175261Y94459048D01*
X9823833Y93639048D01*
D18*
G04 #@! TO.C,R3*
X42219714Y24348000D02*
X41856857Y24094000D01*
X42219714Y23912572D02*
X41457714Y23912572D01*
X41457714Y24202858D01*
X41494000Y24275429D01*
X41530285Y24311715D01*
X41602857Y24348000D01*
X41711714Y24348000D01*
X41784285Y24311715D01*
X41820571Y24275429D01*
X41856857Y24202858D01*
X41856857Y23912572D01*
X41457714Y24602000D02*
X41457714Y25073715D01*
X41748000Y24819715D01*
X41748000Y24928572D01*
X41784285Y25001143D01*
X41820571Y25037429D01*
X41893142Y25073715D01*
X42074571Y25073715D01*
X42147142Y25037429D01*
X42183428Y25001143D01*
X42219714Y24928572D01*
X42219714Y24710858D01*
X42183428Y24638286D01*
X42147142Y24602000D01*
D17*
G04 #@! TO.C,S2*
X71112881Y107026191D02*
X71227167Y106988096D01*
X71417643Y106988096D01*
X71493834Y107026191D01*
X71531929Y107064286D01*
X71570024Y107140477D01*
X71570024Y107216667D01*
X71531929Y107292858D01*
X71493834Y107330953D01*
X71417643Y107369049D01*
X71265262Y107407144D01*
X71189071Y107445239D01*
X71150976Y107483334D01*
X71112881Y107559525D01*
X71112881Y107635716D01*
X71150976Y107711906D01*
X71189071Y107750001D01*
X71265262Y107788097D01*
X71455738Y107788097D01*
X71570024Y107750001D01*
X71874786Y107711906D02*
X71912882Y107750001D01*
X71989072Y107788097D01*
X72179549Y107788097D01*
X72255739Y107750001D01*
X72293835Y107711906D01*
X72331930Y107635716D01*
X72331930Y107559525D01*
X72293835Y107445239D01*
X71836691Y106988096D01*
X72331930Y106988096D01*
D16*
G04 #@! TO.C,V68*
X83403637Y27303088D02*
X84346446Y26831684D01*
X83875042Y27774493D01*
X84413790Y28313241D02*
X84279103Y28178554D01*
X84245431Y28077539D01*
X84245431Y28010195D01*
X84279103Y27841836D01*
X84380118Y27673478D01*
X84649492Y27404104D01*
X84750507Y27370432D01*
X84817851Y27370432D01*
X84918866Y27404104D01*
X85053553Y27538791D01*
X85087225Y27639806D01*
X85087225Y27707149D01*
X85053553Y27808165D01*
X84885194Y27976523D01*
X84784179Y28010195D01*
X84716835Y28010195D01*
X84615820Y27976523D01*
X84481133Y27841836D01*
X84447461Y27740821D01*
X84447461Y27673478D01*
X84481133Y27572462D01*
X85188240Y28481600D02*
X85087225Y28447928D01*
X85019881Y28447928D01*
X84918866Y28481600D01*
X84885194Y28515271D01*
X84851522Y28616287D01*
X84851522Y28683630D01*
X84885194Y28784645D01*
X85019881Y28919332D01*
X85120896Y28953004D01*
X85188240Y28953004D01*
X85289255Y28919332D01*
X85322927Y28885661D01*
X85356599Y28784645D01*
X85356599Y28717302D01*
X85322927Y28616287D01*
X85188240Y28481600D01*
X85154568Y28380584D01*
X85154568Y28313241D01*
X85188240Y28212226D01*
X85322927Y28077539D01*
X85423942Y28043867D01*
X85491286Y28043867D01*
X85592301Y28077539D01*
X85726988Y28212226D01*
X85760660Y28313241D01*
X85760660Y28380584D01*
X85726988Y28481600D01*
X85592301Y28616287D01*
X85491286Y28649958D01*
X85423942Y28649958D01*
X85322927Y28616287D01*
D17*
G04 #@! TO.C,D7*
X10262976Y79163096D02*
X10262976Y79963097D01*
X10453452Y79963097D01*
X10567738Y79925001D01*
X10643929Y79848811D01*
X10682024Y79772620D01*
X10720119Y79620239D01*
X10720119Y79505953D01*
X10682024Y79353572D01*
X10643929Y79277382D01*
X10567738Y79201191D01*
X10453452Y79163096D01*
X10262976Y79163096D01*
X10986786Y79963097D02*
X11520120Y79963097D01*
X11177263Y79163096D01*
D16*
G04 #@! TO.C,C13*
X132119142Y25921858D02*
X132071523Y25874239D01*
X131928666Y25826620D01*
X131833428Y25826620D01*
X131690571Y25874239D01*
X131595333Y25969477D01*
X131547714Y26064715D01*
X131500095Y26255191D01*
X131500095Y26398048D01*
X131547714Y26588524D01*
X131595333Y26683762D01*
X131690571Y26779000D01*
X131833428Y26826620D01*
X131928666Y26826620D01*
X132071523Y26779000D01*
X132119142Y26731381D01*
X133071523Y25826620D02*
X132500095Y25826620D01*
X132785809Y25826620D02*
X132785809Y26826620D01*
X132690571Y26683762D01*
X132595333Y26588524D01*
X132500095Y26540905D01*
X133404857Y26826620D02*
X134023904Y26826620D01*
X133690571Y26445667D01*
X133833428Y26445667D01*
X133928666Y26398048D01*
X133976285Y26350429D01*
X134023904Y26255191D01*
X134023904Y26017096D01*
X133976285Y25921858D01*
X133928666Y25874239D01*
X133833428Y25826620D01*
X133547714Y25826620D01*
X133452476Y25874239D01*
X133404857Y25921858D01*
D17*
G04 #@! TO.C,R1*
X143736309Y30718048D02*
X143462976Y31108524D01*
X143267738Y30718048D02*
X143267738Y31538048D01*
X143580119Y31538048D01*
X143658214Y31499000D01*
X143697261Y31459953D01*
X143736309Y31381858D01*
X143736309Y31264715D01*
X143697261Y31186620D01*
X143658214Y31147572D01*
X143580119Y31108524D01*
X143267738Y31108524D01*
X144517261Y30718048D02*
X144048690Y30718048D01*
X144282976Y30718048D02*
X144282976Y31538048D01*
X144204880Y31420905D01*
X144126785Y31342810D01*
X144048690Y31303762D01*
D16*
G04 #@! TO.C,V48*
X73803637Y22603088D02*
X74746446Y22131684D01*
X74275042Y23074493D01*
X75049492Y23377539D02*
X75520896Y22906134D01*
X74611759Y23478554D02*
X74948477Y22805119D01*
X75386209Y23242852D01*
X75588240Y23781600D02*
X75487225Y23747928D01*
X75419881Y23747928D01*
X75318866Y23781600D01*
X75285194Y23815271D01*
X75251522Y23916287D01*
X75251522Y23983630D01*
X75285194Y24084645D01*
X75419881Y24219332D01*
X75520896Y24253004D01*
X75588240Y24253004D01*
X75689255Y24219332D01*
X75722927Y24185661D01*
X75756599Y24084645D01*
X75756599Y24017302D01*
X75722927Y23916287D01*
X75588240Y23781600D01*
X75554568Y23680584D01*
X75554568Y23613241D01*
X75588240Y23512226D01*
X75722927Y23377539D01*
X75823942Y23343867D01*
X75891286Y23343867D01*
X75992301Y23377539D01*
X76126988Y23512226D01*
X76160660Y23613241D01*
X76160660Y23680584D01*
X76126988Y23781600D01*
X75992301Y23916287D01*
X75891286Y23949958D01*
X75823942Y23949958D01*
X75722927Y23916287D01*
D17*
G04 #@! TO.C,D2*
X138812976Y33317096D02*
X138812976Y34117096D01*
X139003452Y34117096D01*
X139117738Y34079000D01*
X139193928Y34002810D01*
X139232023Y33926620D01*
X139270119Y33774239D01*
X139270119Y33659953D01*
X139232023Y33507572D01*
X139193928Y33431381D01*
X139117738Y33355191D01*
X139003452Y33317096D01*
X138812976Y33317096D01*
X139574880Y34040905D02*
X139612976Y34079000D01*
X139689166Y34117096D01*
X139879642Y34117096D01*
X139955833Y34079000D01*
X139993928Y34040905D01*
X140032023Y33964715D01*
X140032023Y33888524D01*
X139993928Y33774239D01*
X139536785Y33317096D01*
X140032023Y33317096D01*
G04 #@! TO.C,D6*
X10362976Y85363096D02*
X10362976Y86163097D01*
X10553452Y86163097D01*
X10667738Y86125001D01*
X10743929Y86048811D01*
X10782024Y85972620D01*
X10820119Y85820239D01*
X10820119Y85705953D01*
X10782024Y85553572D01*
X10743929Y85477382D01*
X10667738Y85401191D01*
X10553452Y85363096D01*
X10362976Y85363096D01*
X11505835Y86163097D02*
X11353453Y86163097D01*
X11277263Y86125001D01*
X11239168Y86086906D01*
X11162977Y85972620D01*
X11124882Y85820239D01*
X11124882Y85515477D01*
X11162977Y85439286D01*
X11201072Y85401191D01*
X11277263Y85363096D01*
X11429644Y85363096D01*
X11505835Y85401191D01*
X11543930Y85439286D01*
X11582025Y85515477D01*
X11582025Y85705953D01*
X11543930Y85782144D01*
X11505835Y85820239D01*
X11429644Y85858334D01*
X11277263Y85858334D01*
X11201072Y85820239D01*
X11162977Y85782144D01*
X11124882Y85705953D01*
D16*
G04 #@! TO.C,V80*
X35077380Y34539286D02*
X36077380Y34872620D01*
X35077380Y35205953D01*
X35505952Y35682143D02*
X35458333Y35586905D01*
X35410714Y35539286D01*
X35315476Y35491667D01*
X35267857Y35491667D01*
X35172619Y35539286D01*
X35125000Y35586905D01*
X35077380Y35682143D01*
X35077380Y35872620D01*
X35125000Y35967858D01*
X35172619Y36015477D01*
X35267857Y36063096D01*
X35315476Y36063096D01*
X35410714Y36015477D01*
X35458333Y35967858D01*
X35505952Y35872620D01*
X35505952Y35682143D01*
X35553571Y35586905D01*
X35601190Y35539286D01*
X35696428Y35491667D01*
X35886904Y35491667D01*
X35982142Y35539286D01*
X36029761Y35586905D01*
X36077380Y35682143D01*
X36077380Y35872620D01*
X36029761Y35967858D01*
X35982142Y36015477D01*
X35886904Y36063096D01*
X35696428Y36063096D01*
X35601190Y36015477D01*
X35553571Y35967858D01*
X35505952Y35872620D01*
X35077380Y36682143D02*
X35077380Y36777381D01*
X35125000Y36872620D01*
X35172619Y36920239D01*
X35267857Y36967858D01*
X35458333Y37015477D01*
X35696428Y37015477D01*
X35886904Y36967858D01*
X35982142Y36920239D01*
X36029761Y36872620D01*
X36077380Y36777381D01*
X36077380Y36682143D01*
X36029761Y36586905D01*
X35982142Y36539286D01*
X35886904Y36491667D01*
X35696428Y36444048D01*
X35458333Y36444048D01*
X35267857Y36491667D01*
X35172619Y36539286D01*
X35125000Y36586905D01*
X35077380Y36682143D01*
D17*
G04 #@! TO.C,C17*
X85774310Y107617143D02*
X85735262Y107578096D01*
X85618119Y107539048D01*
X85540024Y107539048D01*
X85422881Y107578096D01*
X85344786Y107656191D01*
X85305738Y107734286D01*
X85266690Y107890477D01*
X85266690Y108007620D01*
X85305738Y108163811D01*
X85344786Y108241906D01*
X85422881Y108320001D01*
X85540024Y108359049D01*
X85618119Y108359049D01*
X85735262Y108320001D01*
X85774310Y108280954D01*
X86555263Y107539048D02*
X86086691Y107539048D01*
X86320977Y107539048D02*
X86320977Y108359049D01*
X86242882Y108241906D01*
X86164787Y108163811D01*
X86086691Y108124763D01*
X86828597Y108359049D02*
X87375264Y108359049D01*
X87023835Y107539048D01*
D16*
G04 #@! TO.C,V41*
X42652380Y34639286D02*
X43652380Y34972620D01*
X42652380Y35305953D01*
X42985714Y36067858D02*
X43652380Y36067858D01*
X42604761Y35829762D02*
X43319047Y35591667D01*
X43319047Y36210715D01*
X43652380Y37115477D02*
X43652380Y36544048D01*
X43652380Y36829762D02*
X42652380Y36829762D01*
X42795238Y36734524D01*
X42890476Y36639286D01*
X42938095Y36544048D01*
D17*
G04 #@! TO.C,D1*
X138600976Y27317096D02*
X138600976Y28117096D01*
X138791452Y28117096D01*
X138905738Y28079000D01*
X138981928Y28002810D01*
X139020023Y27926620D01*
X139058119Y27774239D01*
X139058119Y27659953D01*
X139020023Y27507572D01*
X138981928Y27431381D01*
X138905738Y27355191D01*
X138791452Y27317096D01*
X138600976Y27317096D01*
X139820023Y27317096D02*
X139362880Y27317096D01*
X139591452Y27317096D02*
X139591452Y28117096D01*
X139515261Y28002810D01*
X139439071Y27926620D01*
X139362880Y27888524D01*
D16*
G04 #@! TO.C,V64*
X82703637Y22603088D02*
X83646446Y22131684D01*
X83175042Y23074493D01*
X83713790Y23613241D02*
X83579103Y23478554D01*
X83545431Y23377539D01*
X83545431Y23310195D01*
X83579103Y23141836D01*
X83680118Y22973478D01*
X83949492Y22704104D01*
X84050507Y22670432D01*
X84117851Y22670432D01*
X84218866Y22704104D01*
X84353553Y22838791D01*
X84387225Y22939806D01*
X84387225Y23007149D01*
X84353553Y23108165D01*
X84185194Y23276523D01*
X84084179Y23310195D01*
X84016835Y23310195D01*
X83915820Y23276523D01*
X83781133Y23141836D01*
X83747461Y23040821D01*
X83747461Y22973478D01*
X83781133Y22872462D01*
X84622927Y24050974D02*
X85094331Y23579569D01*
X84185194Y24151989D02*
X84521912Y23478554D01*
X84959644Y23916287D01*
D17*
G04 #@! TO.C,C4*
X143694857Y32903311D02*
X143733904Y32864263D01*
X143772952Y32747120D01*
X143772952Y32669025D01*
X143733904Y32551882D01*
X143655809Y32473786D01*
X143577714Y32434739D01*
X143421523Y32395691D01*
X143304380Y32395691D01*
X143148189Y32434739D01*
X143070094Y32473786D01*
X142991999Y32551882D01*
X142952951Y32669025D01*
X142952951Y32747120D01*
X142991999Y32864263D01*
X143031046Y32903311D01*
X143226285Y33606169D02*
X143772952Y33606169D01*
X142913903Y33410930D02*
X143499618Y33215692D01*
X143499618Y33723312D01*
G04 #@! TO.C,C1*
X134936310Y52096143D02*
X134897262Y52057096D01*
X134780119Y52018048D01*
X134702024Y52018048D01*
X134584881Y52057096D01*
X134506786Y52135191D01*
X134467738Y52213286D01*
X134428690Y52369477D01*
X134428690Y52486620D01*
X134467738Y52642811D01*
X134506786Y52720906D01*
X134584881Y52799001D01*
X134702024Y52838049D01*
X134780119Y52838049D01*
X134897262Y52799001D01*
X134936310Y52759954D01*
X135717263Y52018048D02*
X135248691Y52018048D01*
X135482977Y52018048D02*
X135482977Y52838049D01*
X135404882Y52720906D01*
X135326787Y52642811D01*
X135248691Y52603763D01*
G04 #@! TO.C,R7*
X56635952Y38199310D02*
X56245476Y37925977D01*
X56635952Y37730739D02*
X55815952Y37730739D01*
X55815952Y38043120D01*
X55855000Y38121215D01*
X55894047Y38160262D01*
X55972142Y38199310D01*
X56089285Y38199310D01*
X56167380Y38160262D01*
X56206428Y38121215D01*
X56245476Y38043120D01*
X56245476Y37730739D01*
X55815952Y38472643D02*
X55815952Y39019310D01*
X56635952Y38667881D01*
D16*
G04 #@! TO.C,J1*
X79266666Y106547620D02*
X79266666Y105833334D01*
X79219047Y105690477D01*
X79123809Y105595239D01*
X78980952Y105547620D01*
X78885714Y105547620D01*
X80266666Y105547620D02*
X79695238Y105547620D01*
X79980952Y105547620D02*
X79980952Y106547620D01*
X79885714Y106404762D01*
X79790476Y106309524D01*
X79695238Y106261905D01*
G04 #@! TO.C,V56*
X55402380Y34539286D02*
X56402380Y34872620D01*
X55402380Y35205953D01*
X55402380Y36015477D02*
X55402380Y35539286D01*
X55878571Y35491667D01*
X55830952Y35539286D01*
X55783333Y35634524D01*
X55783333Y35872620D01*
X55830952Y35967858D01*
X55878571Y36015477D01*
X55973809Y36063096D01*
X56211904Y36063096D01*
X56307142Y36015477D01*
X56354761Y35967858D01*
X56402380Y35872620D01*
X56402380Y35634524D01*
X56354761Y35539286D01*
X56307142Y35491667D01*
X55402380Y36920239D02*
X55402380Y36729762D01*
X55450000Y36634524D01*
X55497619Y36586905D01*
X55640476Y36491667D01*
X55830952Y36444048D01*
X56211904Y36444048D01*
X56307142Y36491667D01*
X56354761Y36539286D01*
X56402380Y36634524D01*
X56402380Y36825000D01*
X56354761Y36920239D01*
X56307142Y36967858D01*
X56211904Y37015477D01*
X55973809Y37015477D01*
X55878571Y36967858D01*
X55830952Y36920239D01*
X55783333Y36825000D01*
X55783333Y36634524D01*
X55830952Y36539286D01*
X55878571Y36491667D01*
X55973809Y36444048D01*
D18*
G04 #@! TO.C,R11*
X11344714Y25135143D02*
X10981857Y24881143D01*
X11344714Y24699715D02*
X10582714Y24699715D01*
X10582714Y24990000D01*
X10619000Y25062572D01*
X10655285Y25098858D01*
X10727857Y25135143D01*
X10836714Y25135143D01*
X10909285Y25098858D01*
X10945571Y25062572D01*
X10981857Y24990000D01*
X10981857Y24699715D01*
X11344714Y25860858D02*
X11344714Y25425429D01*
X11344714Y25643143D02*
X10582714Y25643143D01*
X10691571Y25570572D01*
X10764142Y25498000D01*
X10800428Y25425429D01*
X11344714Y26586572D02*
X11344714Y26151143D01*
X11344714Y26368858D02*
X10582714Y26368858D01*
X10691571Y26296286D01*
X10764142Y26223715D01*
X10800428Y26151143D01*
D16*
G04 #@! TO.C,V66*
X80803637Y27303088D02*
X81746446Y26831684D01*
X81275042Y27774493D01*
X81813790Y28313241D02*
X81679103Y28178554D01*
X81645431Y28077539D01*
X81645431Y28010195D01*
X81679103Y27841836D01*
X81780118Y27673478D01*
X82049492Y27404104D01*
X82150507Y27370432D01*
X82217851Y27370432D01*
X82318866Y27404104D01*
X82453553Y27538791D01*
X82487225Y27639806D01*
X82487225Y27707149D01*
X82453553Y27808165D01*
X82285194Y27976523D01*
X82184179Y28010195D01*
X82116835Y28010195D01*
X82015820Y27976523D01*
X81881133Y27841836D01*
X81847461Y27740821D01*
X81847461Y27673478D01*
X81881133Y27572462D01*
X82487225Y28986676D02*
X82352538Y28851989D01*
X82318866Y28750974D01*
X82318866Y28683630D01*
X82352538Y28515271D01*
X82453553Y28346913D01*
X82722927Y28077539D01*
X82823942Y28043867D01*
X82891286Y28043867D01*
X82992301Y28077539D01*
X83126988Y28212226D01*
X83160660Y28313241D01*
X83160660Y28380584D01*
X83126988Y28481600D01*
X82958629Y28649958D01*
X82857614Y28683630D01*
X82790270Y28683630D01*
X82689255Y28649958D01*
X82554568Y28515271D01*
X82520896Y28414256D01*
X82520896Y28346913D01*
X82554568Y28245897D01*
D14*
G04 #@! TO.C,M3*
X85637499Y95308874D02*
X85637501Y59414053D01*
X39822904Y96228623D02*
X83180252Y96228623D01*
X83180252Y96228623D02*
X83887497Y95521377D01*
X39884758Y59072365D02*
X85295813Y59072365D01*
X39308887Y95714606D02*
X39822904Y96228623D01*
X39308889Y59648234D02*
X39884758Y59072365D01*
X85295813Y59072365D02*
X85637501Y59414053D01*
X85424995Y95521377D02*
X85637499Y95308874D01*
X39308887Y95714606D02*
X39308889Y59648234D01*
X83887497Y95521377D02*
X85424995Y95521377D01*
D19*
G04 #@! TO.C,U3*
X33340000Y68300000D02*
X33340000Y70250000D01*
X38460000Y68300000D02*
X38460000Y70250000D01*
X33340000Y68300000D02*
X33340000Y64850000D01*
X38460000Y68300000D02*
X38460000Y66350000D01*
D14*
G04 #@! TO.C,C15*
X52049986Y105700000D02*
X51300001Y105700000D01*
G04 #@! TO.C,C6*
X76850014Y100800000D02*
X77599999Y100800000D01*
D19*
G04 #@! TO.C,G5*
X148844000Y72034000D02*
X155956000Y72034000D01*
X155956000Y72034000D02*
X155956000Y84226000D01*
X155956000Y84226000D02*
X148844000Y84226000D01*
X148844000Y84226000D02*
X148844000Y72034000D01*
G04 #@! TO.C,V20*
X52680000Y31320000D02*
X52680000Y33980000D01*
X50314462Y31320000D02*
X50020000Y31320000D01*
X50325627Y33980000D02*
X50020000Y33980000D01*
X50020000Y33980000D02*
X50020000Y31320000D01*
X52385538Y33980000D02*
X52680000Y33980000D01*
X52374373Y31320000D02*
X52680000Y31320000D01*
G04 #@! TO.C,V9*
X75730000Y29020000D02*
X75730000Y31680000D01*
X75435538Y31680000D02*
X75730000Y31680000D01*
X73070000Y31680000D02*
X73070000Y29020000D01*
X73375627Y31680000D02*
X73070000Y31680000D01*
X75424373Y29020000D02*
X75730000Y29020000D01*
X73364462Y29020000D02*
X73070000Y29020000D01*
D14*
G04 #@! TO.C,M1*
X39637499Y104204142D02*
X50812499Y104242989D01*
X39637499Y98506661D02*
X39637499Y104204142D01*
X39637499Y98506661D02*
X39912503Y98231657D01*
X39912503Y97356663D02*
X39912503Y98231657D01*
X39912503Y97356663D02*
X39912505Y97356660D01*
X39912505Y97356660D02*
X50812499Y97356660D01*
X50812499Y97356660D02*
X50812499Y104242989D01*
G04 #@! TO.C,M7*
X26767388Y96951265D02*
X27126679Y97310556D01*
X26767388Y83889584D02*
X27017388Y83639585D01*
X34367767Y83639585D02*
X34617388Y83889206D01*
X32867386Y96714204D02*
X33617387Y95964203D01*
X34617388Y94089206D02*
X34617388Y95964203D01*
X27017388Y83639585D02*
X34367767Y83639585D01*
X34617388Y83889206D02*
X34617388Y94089206D01*
X32867386Y96714204D02*
X32867386Y97310556D01*
X26767388Y83889584D02*
X26767388Y96951265D01*
X27126679Y97310556D02*
X32867386Y97310556D01*
X33617387Y95964203D02*
X34617388Y95964203D01*
G04 #@! TO.C,M4*
X39412501Y45296374D02*
X39412501Y57821375D01*
X69287501Y43746374D02*
X70212499Y44671371D01*
X70212499Y44671371D02*
X70212499Y57721377D01*
X39412501Y45296374D02*
X40962501Y43746374D01*
X39812506Y58221380D02*
X69712499Y58221377D01*
X39412501Y57821375D02*
X39812506Y58221380D01*
X40962501Y43746374D02*
X69292499Y43746374D01*
X69712499Y58221377D02*
X70212499Y57721377D01*
G04 #@! TO.C,M6*
X122872151Y44121822D02*
X123251546Y44501216D01*
X95144577Y44362167D02*
X95205537Y44301207D01*
X123251546Y44501216D02*
X123251546Y86476215D01*
X95276545Y85376215D02*
X96851546Y86951215D01*
X95144577Y44362167D02*
X95144577Y60494248D01*
X95384922Y44121822D02*
X122872151Y44121822D01*
X122776546Y86951215D02*
X123251546Y86476215D01*
X95205537Y44301207D02*
X95384922Y44121822D01*
X95144577Y60494248D02*
X95276545Y60626216D01*
X95276545Y60626216D02*
X95276545Y85376215D01*
X96851546Y86951215D02*
X122776546Y86951215D01*
D19*
G04 #@! TO.C,V40*
X47320000Y33980000D02*
X47320000Y31320000D01*
X49674373Y31320000D02*
X49980000Y31320000D01*
X49685538Y33980000D02*
X49980000Y33980000D01*
X49980000Y31320000D02*
X49980000Y33980000D01*
X47625627Y33980000D02*
X47320000Y33980000D01*
X47614462Y31320000D02*
X47320000Y31320000D01*
G04 #@! TO.C,V61*
X39345000Y33980000D02*
X39345000Y31320000D01*
X41710538Y33980000D02*
X42005000Y33980000D01*
X42005000Y31320000D02*
X42005000Y33980000D01*
X41699373Y31320000D02*
X42005000Y31320000D01*
X39639462Y31320000D02*
X39345000Y31320000D01*
X39650627Y33980000D02*
X39345000Y33980000D01*
G04 #@! TO.C,V17*
X56139462Y26970000D02*
X55845000Y26970000D01*
X58210538Y29630000D02*
X58505000Y29630000D01*
X55845000Y29630000D02*
X55845000Y26970000D01*
X58505000Y26970000D02*
X58505000Y29630000D01*
X58199373Y26970000D02*
X58505000Y26970000D01*
X56150627Y29630000D02*
X55845000Y29630000D01*
G04 #@! TO.C,V69*
X91225627Y26905000D02*
X90920000Y26905000D01*
X93274373Y24245000D02*
X93580000Y24245000D01*
X90920000Y26905000D02*
X90920000Y24245000D01*
X93285538Y26905000D02*
X93580000Y26905000D01*
X91214462Y24245000D02*
X90920000Y24245000D01*
X93580000Y24245000D02*
X93580000Y26905000D01*
D14*
G04 #@! TO.C,D8*
X16039166Y90900001D02*
X16039166Y91375002D01*
X12131980Y92135000D02*
X13101979Y92135000D01*
X15751981Y90114999D02*
X16051980Y90354999D01*
X15751981Y92135000D02*
X16051980Y91895001D01*
X12131980Y90114999D02*
X13101979Y90114999D01*
X14671980Y90114999D02*
X15751981Y90114999D01*
X15839171Y91149996D02*
X16264172Y91149996D01*
X12131980Y90114999D02*
X12131980Y92135000D01*
X14671980Y92135000D02*
X15751978Y92135000D01*
X11861976Y90599997D02*
X11861976Y91574994D01*
D19*
G04 #@! TO.C,V67*
X88464462Y24245000D02*
X88170000Y24245000D01*
X90830000Y24245000D02*
X90830000Y26905000D01*
X88170000Y26905000D02*
X88170000Y24245000D01*
X90524373Y24245000D02*
X90830000Y24245000D01*
X88475627Y26905000D02*
X88170000Y26905000D01*
X90535538Y26905000D02*
X90830000Y26905000D01*
G04 #@! TO.C,VOUT3*
X107080000Y38995000D02*
X107080000Y41655000D01*
X106774373Y38995000D02*
X107080000Y38995000D01*
X106785538Y41655000D02*
X107080000Y41655000D01*
X104725627Y41655000D02*
X104420000Y41655000D01*
X104420000Y41655000D02*
X104420000Y38995000D01*
X104714462Y38995000D02*
X104420000Y38995000D01*
G04 #@! TO.C,V11*
X70430000Y29020000D02*
X70430000Y31680000D01*
X68064462Y29020000D02*
X67770000Y29020000D01*
X68075627Y31680000D02*
X67770000Y31680000D01*
X70135538Y31680000D02*
X70430000Y31680000D01*
X67770000Y31680000D02*
X67770000Y29020000D01*
X70124373Y29020000D02*
X70430000Y29020000D01*
D20*
G04 #@! TO.C,R13*
X9462000Y28401000D02*
X7938000Y28401000D01*
X9462000Y29417000D02*
X9462000Y28401000D01*
X7938000Y28401000D02*
X7938000Y29417000D01*
X7938000Y30433000D02*
X7938000Y31449000D01*
X7938000Y31449000D02*
X9462000Y31449000D01*
X9462000Y31449000D02*
X9462000Y30433000D01*
D19*
G04 #@! TO.C,G2*
X148844000Y85344000D02*
X155956000Y85344000D01*
X155956000Y85344000D02*
X155956000Y97536000D01*
X155956000Y97536000D02*
X148844000Y97536000D01*
X148844000Y97536000D02*
X148844000Y85344000D01*
D20*
G04 #@! TO.C,R4*
X55362000Y27692000D02*
X55362000Y26676000D01*
X55362000Y29724000D02*
X55362000Y28708000D01*
X53838000Y26676000D02*
X53838000Y27692000D01*
X53838000Y28708000D02*
X53838000Y29724000D01*
X53838000Y29724000D02*
X55362000Y29724000D01*
X55362000Y26676000D02*
X53838000Y26676000D01*
D21*
G04 #@! TO.C,R16*
X9262000Y95025005D02*
X8862000Y95025015D01*
X9263056Y95770840D02*
X8863057Y95770851D01*
D19*
G04 #@! TO.C,VIN4*
X46814462Y40195000D02*
X46520000Y40195000D01*
X46825627Y42855000D02*
X46520000Y42855000D01*
X48874373Y40195000D02*
X49180000Y40195000D01*
X46520000Y42855000D02*
X46520000Y40195000D01*
X48885538Y42855000D02*
X49180000Y42855000D01*
X49180000Y40195000D02*
X49180000Y42855000D01*
D14*
G04 #@! TO.C,C5*
X143907000Y53242177D02*
X143907000Y53992162D01*
D19*
G04 #@! TO.C,C11*
X135550748Y31844000D02*
X136073252Y31844000D01*
X135550748Y33314000D02*
X136073252Y33314000D01*
G04 #@! TO.C,V74*
X46949373Y31320000D02*
X47255000Y31320000D01*
X47255000Y31320000D02*
X47255000Y33980000D01*
X44889462Y31320000D02*
X44595000Y31320000D01*
X46960538Y33980000D02*
X47255000Y33980000D01*
X44900627Y33980000D02*
X44595000Y33980000D01*
X44595000Y33980000D02*
X44595000Y31320000D01*
D14*
G04 #@! TO.C,M5*
X38012524Y43876575D02*
X34437525Y43876575D01*
X34437525Y57676575D02*
X34437525Y62151575D01*
X38012524Y62151575D02*
X34437525Y62151575D01*
X33712525Y56951575D02*
X34437525Y57676575D01*
X33712525Y51351574D02*
X33712525Y56951575D01*
X34437525Y43876575D02*
X34437525Y50626574D01*
X34437525Y50626574D02*
X33712525Y51351574D01*
X38012524Y43876575D02*
X38012524Y62151575D01*
D19*
G04 #@! TO.C,VIN1*
X45485538Y42880000D02*
X45780000Y42880000D01*
X43425627Y42880000D02*
X43120000Y42880000D01*
X43120000Y42880000D02*
X43120000Y40220000D01*
X43414462Y40220000D02*
X43120000Y40220000D01*
X45474373Y40220000D02*
X45780000Y40220000D01*
X45780000Y40220000D02*
X45780000Y42880000D01*
G04 #@! TO.C,G6*
G36*
X141996736Y29041181D02*
G01*
X142009663Y29015558D01*
X142029357Y28968579D01*
X142037099Y28949874D01*
X142068761Y28885234D01*
X142109492Y28817148D01*
X142139371Y28774989D01*
X142161174Y28748132D01*
X142182370Y28725664D01*
X142206972Y28705130D01*
X142238995Y28684076D01*
X142282452Y28660046D01*
X142341358Y28630585D01*
X142419725Y28593238D01*
X142491575Y28559563D01*
X142593145Y28511500D01*
X142671802Y28472713D01*
X142731350Y28441042D01*
X142775595Y28414330D01*
X142808341Y28390416D01*
X142833393Y28367144D01*
X142836414Y28363910D01*
X142928755Y28252773D01*
X143002394Y28141568D01*
X143055461Y28033924D01*
X143086088Y27933473D01*
X143093209Y27864939D01*
X143079411Y27702951D01*
X143038382Y27549942D01*
X142970673Y27407613D01*
X142921175Y27333030D01*
X142880555Y27287588D01*
X142822097Y27234273D01*
X142752792Y27178323D01*
X142679631Y27124976D01*
X142609604Y27079470D01*
X142549702Y27047044D01*
X142527332Y27037914D01*
X142462220Y27019011D01*
X142406438Y27009400D01*
X142366985Y27010052D01*
X142356099Y27014163D01*
X142355774Y27027677D01*
X142375048Y27056056D01*
X142414937Y27100585D01*
X142462558Y27148882D01*
X142522026Y27209667D01*
X142565913Y27260733D01*
X142600824Y27311131D01*
X142633365Y27369911D01*
X142652979Y27409786D01*
X142684675Y27478694D01*
X142705114Y27532290D01*
X142717181Y27580651D01*
X142723763Y27633852D01*
X142725822Y27664077D01*
X142725285Y27770560D01*
X142712435Y27872872D01*
X142688787Y27963565D01*
X142655858Y28035195D01*
X142647806Y28047258D01*
X142608095Y28089141D01*
X142553784Y28129636D01*
X142527227Y28145027D01*
X142471599Y28177472D01*
X142404028Y28221943D01*
X142330601Y28273878D01*
X142257408Y28328713D01*
X142190537Y28381887D01*
X142136076Y28428836D01*
X142100113Y28464998D01*
X142099864Y28465295D01*
X142021244Y28579548D01*
X141965795Y28705367D01*
X141935707Y28836927D01*
X141930738Y28915068D01*
X141932980Y28969898D01*
X141941176Y29004598D01*
X141957527Y29027855D01*
X141959889Y29030061D01*
X141975714Y29044418D01*
X141986708Y29049463D01*
X141996736Y29041181D01*
G37*
G36*
X141810349Y28681113D02*
G01*
X141814459Y28658282D01*
X141814491Y28654766D01*
X141825084Y28591715D01*
X141854528Y28515182D01*
X141899318Y28430255D01*
X141955949Y28342022D01*
X142020918Y28255570D01*
X142090718Y28175987D01*
X142161846Y28108360D01*
X142221876Y28063342D01*
X142284754Y28010584D01*
X142346728Y27936253D01*
X142402810Y27847551D01*
X142448011Y27751679D01*
X142459493Y27720280D01*
X142477417Y27664046D01*
X142486021Y27622988D01*
X142486357Y27585133D01*
X142479480Y27538511D01*
X142476763Y27524112D01*
X142451669Y27432584D01*
X142414556Y27347632D01*
X142369694Y27278020D01*
X142342590Y27248831D01*
X142308428Y27219964D01*
X142266829Y27187684D01*
X142224758Y27157019D01*
X142189179Y27132994D01*
X142167059Y27120635D01*
X142164002Y27119961D01*
X142147034Y27125448D01*
X142112336Y27138636D01*
X142085964Y27149165D01*
X142015044Y27182246D01*
X141955096Y27221541D01*
X141897477Y27273664D01*
X141840364Y27337132D01*
X141746842Y27452862D01*
X141674820Y27554212D01*
X141622444Y27644096D01*
X141587859Y27725427D01*
X141582522Y27742233D01*
X141570944Y27782522D01*
X141563299Y27816287D01*
X141559423Y27849854D01*
X141559155Y27889547D01*
X141562333Y27941691D01*
X141568794Y28012612D01*
X141574191Y28066935D01*
X141584966Y28159657D01*
X141598729Y28256661D01*
X141613860Y28347567D01*
X141628736Y28421993D01*
X141631592Y28434214D01*
X141648636Y28501630D01*
X141663245Y28547962D01*
X141678966Y28580564D01*
X141699346Y28606792D01*
X141727932Y28634000D01*
X141727948Y28634014D01*
X141770596Y28669818D01*
X141796896Y28685238D01*
X141810349Y28681113D01*
G37*
G36*
X140054313Y23927677D02*
G01*
X140053721Y24168016D01*
X140053331Y24413555D01*
X140053141Y24662459D01*
X140053152Y24912893D01*
X140053362Y25163020D01*
X140053772Y25411007D01*
X140054380Y25655016D01*
X140055186Y25893214D01*
X140056190Y26123764D01*
X140057391Y26344831D01*
X140058788Y26554579D01*
X140060381Y26751174D01*
X140062169Y26932779D01*
X140064152Y27097559D01*
X140066329Y27243679D01*
X140068700Y27369304D01*
X140071265Y27472598D01*
X140074021Y27551725D01*
X140076970Y27604850D01*
X140078957Y27624351D01*
X140132936Y27892312D01*
X140213212Y28151016D01*
X140318448Y28398619D01*
X140447305Y28633279D01*
X140598446Y28853152D01*
X140770533Y29056396D01*
X140962229Y29241167D01*
X141172194Y29405623D01*
X141399093Y29547920D01*
X141521580Y29611698D01*
X141590727Y29646190D01*
X141637761Y29674122D01*
X141666895Y29701241D01*
X141682343Y29733295D01*
X141688319Y29776032D01*
X141689037Y29835200D01*
X141688999Y29840078D01*
X141689683Y29889471D01*
X141695458Y29914790D01*
X141710391Y29921002D01*
X141738549Y29913076D01*
X141746342Y29910149D01*
X141774415Y29889470D01*
X141790014Y29849577D01*
X141791655Y29841127D01*
X141800992Y29789423D01*
X141810725Y29759629D01*
X141827401Y29748314D01*
X141857566Y29752049D01*
X141907765Y29767406D01*
X141923044Y29772287D01*
X142109636Y29821676D01*
X142316024Y29858249D01*
X142520765Y29879756D01*
X142554146Y29881100D01*
X142615249Y29882380D01*
X142702735Y29883596D01*
X142815266Y29884750D01*
X142951500Y29885840D01*
X143110101Y29886866D01*
X143289727Y29887830D01*
X143489040Y29888729D01*
X143706700Y29889566D01*
X143941369Y29890339D01*
X144191706Y29891049D01*
X144456374Y29891695D01*
X144734031Y29892278D01*
X145023340Y29892798D01*
X145322960Y29893254D01*
X145631553Y29893647D01*
X145947780Y29893976D01*
X146270300Y29894243D01*
X146597775Y29894445D01*
X146928865Y29894585D01*
X147262232Y29894661D01*
X147596535Y29894673D01*
X147930436Y29894623D01*
X148262596Y29894509D01*
X148591674Y29894331D01*
X148916332Y29894090D01*
X149235231Y29893786D01*
X149547031Y29893418D01*
X149850393Y29892987D01*
X150143977Y29892493D01*
X150426445Y29891935D01*
X150696456Y29891314D01*
X150952673Y29890630D01*
X151193755Y29889882D01*
X151418364Y29889071D01*
X151625159Y29888196D01*
X151812802Y29887258D01*
X151979954Y29886257D01*
X152125274Y29885192D01*
X152247425Y29884064D01*
X152345066Y29882873D01*
X152416858Y29881618D01*
X152461463Y29880300D01*
X152471374Y29879756D01*
X152677691Y29858355D01*
X152869436Y29823919D01*
X153059104Y29773996D01*
X153137834Y29748925D01*
X153392403Y29649229D01*
X153632407Y29525242D01*
X153856532Y29378539D01*
X154063461Y29210697D01*
X154251877Y29023290D01*
X154420465Y28817895D01*
X154567907Y28596088D01*
X154692888Y28359445D01*
X154794091Y28109540D01*
X154870200Y27847950D01*
X154913302Y27623544D01*
X154916170Y27601635D01*
X154918790Y27575377D01*
X154921175Y27543466D01*
X154923334Y27504594D01*
X154925278Y27457458D01*
X154927020Y27400753D01*
X154928569Y27333172D01*
X154929936Y27253411D01*
X154931133Y27160164D01*
X154932170Y27052127D01*
X154933058Y26927994D01*
X154933808Y26786459D01*
X154934432Y26626218D01*
X154934939Y26445965D01*
X154935342Y26244396D01*
X154935650Y26020204D01*
X154935875Y25772085D01*
X154936028Y25498733D01*
X154936120Y25198844D01*
X154936160Y24893725D01*
X154936101Y24518883D01*
X154935873Y24172874D01*
X154935475Y23855471D01*
X154934904Y23566447D01*
X154934161Y23305573D01*
X154933244Y23072622D01*
X154932150Y22867367D01*
X154930880Y22689579D01*
X154929432Y22539031D01*
X154927804Y22415496D01*
X154925995Y22318746D01*
X154924004Y22248553D01*
X154921829Y22204689D01*
X154920755Y22193196D01*
X154872256Y21920354D01*
X154797671Y21658191D01*
X154698315Y21408135D01*
X154575509Y21171610D01*
X154430569Y20950043D01*
X154264815Y20744860D01*
X154079564Y20557487D01*
X153876134Y20389350D01*
X153655845Y20241875D01*
X153420013Y20116488D01*
X153169957Y20014616D01*
X152906995Y19937684D01*
X152817735Y19918038D01*
X152727997Y19902164D01*
X152628333Y19888181D01*
X152532838Y19877908D01*
X152475411Y19873869D01*
X152444762Y19873101D01*
X152386538Y19872359D01*
X152302059Y19871643D01*
X152192647Y19870955D01*
X152059622Y19870295D01*
X151904305Y19869663D01*
X151728017Y19869059D01*
X151532077Y19868485D01*
X151317808Y19867940D01*
X151086530Y19867424D01*
X150839563Y19866940D01*
X150578228Y19866485D01*
X150303846Y19866062D01*
X150017738Y19865671D01*
X149721224Y19865312D01*
X149415625Y19864985D01*
X149102262Y19864690D01*
X148782455Y19864430D01*
X148457525Y19864202D01*
X148128794Y19864010D01*
X147797581Y19863851D01*
X147465207Y19863728D01*
X147132994Y19863640D01*
X146802261Y19863588D01*
X146474330Y19863572D01*
X146150520Y19863593D01*
X145832154Y19863651D01*
X145520552Y19863747D01*
X145217034Y19863880D01*
X144922921Y19864053D01*
X144639534Y19864264D01*
X144368193Y19864514D01*
X144110220Y19864804D01*
X143866934Y19865134D01*
X143639658Y19865505D01*
X143429710Y19865916D01*
X143238413Y19866369D01*
X143067087Y19866864D01*
X142917052Y19867402D01*
X142789630Y19867982D01*
X142686140Y19868605D01*
X142607904Y19869271D01*
X142556243Y19869982D01*
X142533770Y19870647D01*
X142260499Y19901204D01*
X141996340Y19958476D01*
X141742729Y20041151D01*
X141501103Y20147914D01*
X141272898Y20277450D01*
X141059552Y20428446D01*
X140862501Y20599588D01*
X140683183Y20789560D01*
X140523033Y20997051D01*
X140383489Y21220744D01*
X140265987Y21459327D01*
X140171964Y21711485D01*
X140102858Y21975903D01*
X140077317Y22117345D01*
X140074267Y22152115D01*
X140071424Y22214110D01*
X140068789Y22301496D01*
X140066361Y22412436D01*
X140064139Y22545095D01*
X140062122Y22697639D01*
X140060311Y22868231D01*
X140058704Y23055036D01*
X140057302Y23256219D01*
X140056103Y23469943D01*
X140055609Y23581261D01*
X140377181Y23581261D01*
X140377305Y23376006D01*
X140377679Y23191646D01*
X140378333Y23026819D01*
X140379298Y22880163D01*
X140380606Y22750319D01*
X140382290Y22635924D01*
X140384379Y22535618D01*
X140386906Y22448039D01*
X140389902Y22371827D01*
X140393399Y22305618D01*
X140397427Y22248054D01*
X140402020Y22197772D01*
X140407207Y22153411D01*
X140413021Y22113611D01*
X140419493Y22077009D01*
X140426655Y22042244D01*
X140434538Y22007956D01*
X140443173Y21972784D01*
X140449033Y21949482D01*
X140525466Y21703831D01*
X140626608Y21471587D01*
X140750819Y21254153D01*
X140896459Y21052933D01*
X141061889Y20869331D01*
X141245466Y20704749D01*
X141445552Y20560593D01*
X141660506Y20438266D01*
X141888688Y20339171D01*
X142128457Y20264713D01*
X142378174Y20216295D01*
X142488861Y20203772D01*
X142516027Y20202652D01*
X142570936Y20201582D01*
X142652271Y20200560D01*
X142758714Y20199589D01*
X142888946Y20198666D01*
X143041650Y20197794D01*
X143215508Y20196971D01*
X143409202Y20196198D01*
X143621414Y20195475D01*
X143850826Y20194802D01*
X144096119Y20194179D01*
X144355977Y20193607D01*
X144629080Y20193086D01*
X144914111Y20192615D01*
X145209752Y20192195D01*
X145514685Y20191826D01*
X145827592Y20191508D01*
X146147155Y20191241D01*
X146472055Y20191026D01*
X146800976Y20190862D01*
X147132599Y20190749D01*
X147465605Y20190689D01*
X147798678Y20190680D01*
X148130499Y20190723D01*
X148459750Y20190818D01*
X148785112Y20190966D01*
X149105269Y20191166D01*
X149418902Y20191418D01*
X149724693Y20191723D01*
X150021324Y20192081D01*
X150307477Y20192492D01*
X150581834Y20192956D01*
X150843077Y20193472D01*
X151089889Y20194043D01*
X151320950Y20194666D01*
X151534944Y20195343D01*
X151730552Y20196074D01*
X151906456Y20196859D01*
X152061338Y20197697D01*
X152193881Y20198590D01*
X152302766Y20199537D01*
X152386674Y20200538D01*
X152444289Y20201594D01*
X152474293Y20202704D01*
X152475372Y20202788D01*
X152735900Y20238612D01*
X152986104Y20301338D01*
X153224980Y20390517D01*
X153451520Y20505698D01*
X153664718Y20646432D01*
X153863567Y20812270D01*
X153885079Y20832557D01*
X154066157Y21024546D01*
X154221566Y21230127D01*
X154351171Y21449015D01*
X154454835Y21680923D01*
X154532424Y21925565D01*
X154583801Y22182654D01*
X154602339Y22347023D01*
X154604386Y22387958D01*
X154606224Y22457432D01*
X154607850Y22554920D01*
X154609263Y22679901D01*
X154610460Y22831851D01*
X154611441Y23010247D01*
X154612203Y23214566D01*
X154612744Y23444286D01*
X154613062Y23698883D01*
X154613156Y23977835D01*
X154613023Y24280617D01*
X154612662Y24606709D01*
X154612071Y24955585D01*
X154611949Y25016215D01*
X154611315Y25335574D01*
X154610751Y25627264D01*
X154610214Y25892677D01*
X154609659Y26133204D01*
X154609041Y26350238D01*
X154608317Y26545172D01*
X154607442Y26719397D01*
X154606371Y26874305D01*
X154605061Y27011289D01*
X154603468Y27131741D01*
X154601546Y27237052D01*
X154599252Y27328615D01*
X154596541Y27407823D01*
X154593369Y27476066D01*
X154589692Y27534738D01*
X154585465Y27585231D01*
X154580644Y27628936D01*
X154575185Y27667246D01*
X154569044Y27701553D01*
X154562176Y27733249D01*
X154554537Y27763726D01*
X154546083Y27794376D01*
X154536769Y27826592D01*
X154526551Y27861766D01*
X154520766Y27882040D01*
X154440798Y28113098D01*
X154334410Y28336991D01*
X154204043Y28549954D01*
X154052139Y28748222D01*
X153881140Y28928031D01*
X153789233Y29009845D01*
X153589351Y29160867D01*
X153377138Y29287859D01*
X153150280Y29391909D01*
X152906459Y29474103D01*
X152687402Y29526939D01*
X152674707Y29529288D01*
X152659969Y29531493D01*
X152642256Y29533559D01*
X152620640Y29535493D01*
X152594192Y29537299D01*
X152561981Y29538983D01*
X152523079Y29540551D01*
X152476555Y29542008D01*
X152421481Y29543360D01*
X152356926Y29544612D01*
X152281962Y29545771D01*
X152195659Y29546841D01*
X152097087Y29547828D01*
X151985317Y29548738D01*
X151859420Y29549577D01*
X151718465Y29550349D01*
X151561524Y29551061D01*
X151387668Y29551718D01*
X151195965Y29552325D01*
X150985488Y29552889D01*
X150755306Y29553414D01*
X150504491Y29553907D01*
X150232112Y29554373D01*
X149937240Y29554817D01*
X149618946Y29555245D01*
X149276301Y29555663D01*
X148908373Y29556076D01*
X148514236Y29556490D01*
X148092958Y29556910D01*
X147643610Y29557342D01*
X147612317Y29557372D01*
X147109091Y29557814D01*
X146634494Y29558158D01*
X146188092Y29558404D01*
X145769454Y29558550D01*
X145378146Y29558596D01*
X145013736Y29558540D01*
X144675791Y29558383D01*
X144363877Y29558121D01*
X144077562Y29557756D01*
X143816413Y29557286D01*
X143579998Y29556709D01*
X143367884Y29556025D01*
X143179637Y29555234D01*
X143014824Y29554333D01*
X142873014Y29553323D01*
X142753774Y29552202D01*
X142656669Y29550969D01*
X142581268Y29549623D01*
X142527138Y29548164D01*
X142493846Y29546590D01*
X142489109Y29546213D01*
X142274027Y29517334D01*
X142066002Y29468994D01*
X141956167Y29435312D01*
X141900692Y29416479D01*
X141867289Y29402293D01*
X141850362Y29388505D01*
X141844315Y29370864D01*
X141843552Y29349755D01*
X141840225Y29315540D01*
X141831245Y29261498D01*
X141818110Y29195970D01*
X141807103Y29147119D01*
X141790558Y29083365D01*
X141770904Y29021836D01*
X141745711Y28956503D01*
X141712549Y28881334D01*
X141668986Y28790299D01*
X141638464Y28728790D01*
X141562185Y28572472D01*
X141498441Y28433514D01*
X141447885Y28313510D01*
X141411168Y28214053D01*
X141388941Y28136734D01*
X141383212Y28104898D01*
X141383884Y28019638D01*
X141403410Y27917962D01*
X141439893Y27803801D01*
X141491437Y27681087D01*
X141556146Y27553752D01*
X141632124Y27425726D01*
X141717474Y27300942D01*
X141810301Y27183332D01*
X141848809Y27139497D01*
X141889815Y27092027D01*
X141911555Y27060397D01*
X141916273Y27040904D01*
X141912560Y27034148D01*
X141897282Y27022461D01*
X141878310Y27019206D01*
X141849181Y27025341D01*
X141803433Y27041821D01*
X141769771Y27055266D01*
X141678453Y27102755D01*
X141579955Y27172378D01*
X141478807Y27259671D01*
X141379542Y27360171D01*
X141286689Y27469415D01*
X141204781Y27582937D01*
X141160281Y27655628D01*
X141130853Y27714412D01*
X141099177Y27788607D01*
X141070516Y27865551D01*
X141060825Y27895056D01*
X141040213Y27963716D01*
X141027791Y28016022D01*
X141022164Y28063052D01*
X141021935Y28115889D01*
X141025205Y28177786D01*
X141029153Y28232377D01*
X141034443Y28276141D01*
X141043154Y28315733D01*
X141057360Y28357810D01*
X141079140Y28409027D01*
X141110569Y28476039D01*
X141132411Y28521399D01*
X141175453Y28607713D01*
X141227919Y28708646D01*
X141284323Y28813875D01*
X141339174Y28913076D01*
X141361510Y28952341D01*
X141404730Y29027616D01*
X141443834Y29095937D01*
X141476131Y29152589D01*
X141498932Y29192853D01*
X141508915Y29210819D01*
X141509227Y29222484D01*
X141490000Y29217499D01*
X141454089Y29197742D01*
X141404350Y29165085D01*
X141343637Y29121405D01*
X141274805Y29068577D01*
X141200709Y29008475D01*
X141200225Y29008071D01*
X141022967Y28841986D01*
X140862821Y28654455D01*
X140722095Y28449040D01*
X140603096Y28229306D01*
X140508134Y27998816D01*
X140470882Y27882356D01*
X140460200Y27846027D01*
X140450432Y27813110D01*
X140441538Y27782228D01*
X140433472Y27752006D01*
X140426192Y27721068D01*
X140419654Y27688040D01*
X140413815Y27651544D01*
X140408632Y27610207D01*
X140404062Y27562651D01*
X140400061Y27507502D01*
X140396586Y27443384D01*
X140393593Y27368922D01*
X140391040Y27282739D01*
X140388883Y27183460D01*
X140387078Y27069710D01*
X140385583Y26940112D01*
X140384355Y26793293D01*
X140383349Y26627874D01*
X140382523Y26442483D01*
X140381833Y26235741D01*
X140381236Y26006275D01*
X140380689Y25752708D01*
X140380148Y25473665D01*
X140379571Y25167770D01*
X140379184Y24968596D01*
X140378538Y24638451D01*
X140377983Y24336005D01*
X140377551Y24059900D01*
X140377273Y23808772D01*
X140377181Y23581261D01*
X140055609Y23581261D01*
X140055107Y23694375D01*
X140054313Y23927677D01*
G37*
G36*
X142916745Y26920897D02*
G01*
X142954431Y26898239D01*
X142955766Y26897109D01*
X142974901Y26877923D01*
X142987195Y26855462D01*
X142994824Y26822287D01*
X142999966Y26770960D01*
X143002123Y26738779D01*
X143004686Y26676745D01*
X143004630Y26621968D01*
X143002032Y26583869D01*
X143000754Y26577037D01*
X142984080Y26548197D01*
X142950815Y26512992D01*
X142922456Y26489730D01*
X142884614Y26459719D01*
X142860639Y26431783D01*
X142844205Y26395815D01*
X142828988Y26341711D01*
X142828439Y26339520D01*
X142815775Y26284377D01*
X142800440Y26210773D01*
X142784498Y26128917D01*
X142771861Y26059625D01*
X142758420Y25979232D01*
X142750549Y25918919D01*
X142747818Y25870331D01*
X142749799Y25825110D01*
X142756064Y25774901D01*
X142756951Y25769008D01*
X142763896Y25707680D01*
X142769447Y25628794D01*
X142772928Y25543846D01*
X142773769Y25484443D01*
X142775074Y25394021D01*
X142778709Y25291702D01*
X142784329Y25181437D01*
X142791584Y25067175D01*
X142800128Y24952867D01*
X142809613Y24842462D01*
X142819690Y24739910D01*
X142830013Y24649162D01*
X142840234Y24574168D01*
X142850005Y24518876D01*
X142858979Y24487238D01*
X142861965Y24482381D01*
X142882617Y24478563D01*
X142927727Y24481398D01*
X142993658Y24490096D01*
X143076773Y24503870D01*
X143173437Y24521931D01*
X143280013Y24543491D01*
X143392866Y24567763D01*
X143508359Y24593957D01*
X143622855Y24621286D01*
X143732720Y24648961D01*
X143834315Y24676195D01*
X143924007Y24702198D01*
X143998157Y24726182D01*
X144015921Y24732532D01*
X144132168Y24775240D01*
X144127481Y24875551D01*
X144123289Y24934587D01*
X144115283Y25011391D01*
X144103195Y25107929D01*
X144086759Y25226165D01*
X144065706Y25368064D01*
X144039770Y25535591D01*
X144024851Y25629806D01*
X143998711Y25802562D01*
X143978234Y25956670D01*
X143963624Y26090076D01*
X143955085Y26200726D01*
X143952822Y26286568D01*
X143955074Y26330719D01*
X143979221Y26426824D01*
X144030549Y26513474D01*
X144108544Y26590018D01*
X144212088Y26655496D01*
X144285554Y26680586D01*
X144372895Y26691167D01*
X144462823Y26687240D01*
X144544047Y26668805D01*
X144575360Y26655463D01*
X144631369Y26623875D01*
X144674256Y26591331D01*
X144706083Y26553269D01*
X144728908Y26505127D01*
X144744792Y26442344D01*
X144755794Y26360357D01*
X144763976Y26254605D01*
X144765163Y26235140D01*
X144773385Y26102815D01*
X144782223Y25973184D01*
X144792141Y25840363D01*
X144803605Y25698469D01*
X144817078Y25541617D01*
X144833026Y25363926D01*
X144839629Y25291908D01*
X144870752Y24954065D01*
X144918717Y24954065D01*
X144970468Y24940519D01*
X145020618Y24903630D01*
X145065250Y24849028D01*
X145100444Y24782340D01*
X145122280Y24709192D01*
X145127534Y24654240D01*
X145121343Y24596297D01*
X145104621Y24527222D01*
X145080143Y24453819D01*
X145050685Y24382888D01*
X145019020Y24321230D01*
X144987926Y24275647D01*
X144964588Y24254920D01*
X144952878Y24239817D01*
X144945169Y24208378D01*
X144941569Y24159452D01*
X144942187Y24091890D01*
X144947131Y24004541D01*
X144956508Y23896255D01*
X144970428Y23765882D01*
X144988999Y23612272D01*
X145012328Y23434274D01*
X145040525Y23230738D01*
X145073697Y23000515D01*
X145098493Y22832555D01*
X145124547Y22655819D01*
X145146073Y22505254D01*
X145163235Y22378354D01*
X145176199Y22272609D01*
X145185130Y22185511D01*
X145190195Y22114553D01*
X145191559Y22057225D01*
X145189388Y22011021D01*
X145183848Y21973431D01*
X145175104Y21941948D01*
X145163321Y21914063D01*
X145159647Y21906837D01*
X145110463Y21843930D01*
X145037508Y21795744D01*
X144942736Y21763479D01*
X144917800Y21758390D01*
X144864627Y21748998D01*
X144828667Y21745104D01*
X144798473Y21747408D01*
X144762594Y21756607D01*
X144718484Y21770561D01*
X144632689Y21805188D01*
X144568723Y21849122D01*
X144519661Y21907445D01*
X144509364Y21924099D01*
X144487883Y21963088D01*
X144471215Y22000740D01*
X144458218Y22042329D01*
X144447747Y22093126D01*
X144438658Y22158403D01*
X144429806Y22243434D01*
X144422580Y22323974D01*
X144407371Y22493882D01*
X144390586Y22670904D01*
X144372715Y22850511D01*
X144354250Y23028175D01*
X144335682Y23199369D01*
X144317500Y23359566D01*
X144300197Y23504237D01*
X144284261Y23628855D01*
X144270589Y23726205D01*
X144263418Y23778133D01*
X144254549Y23848284D01*
X144245305Y23925974D01*
X144239605Y23976520D01*
X144231513Y24047041D01*
X144224771Y24093368D01*
X144217926Y24120230D01*
X144209526Y24132359D01*
X144198120Y24134486D01*
X144191456Y24133407D01*
X144163640Y24127878D01*
X144116069Y24118628D01*
X144057538Y24107362D01*
X144037717Y24103570D01*
X143765416Y24048879D01*
X143471201Y23984748D01*
X143194437Y23920479D01*
X142881534Y23845844D01*
X142886897Y23793290D01*
X142898524Y23691949D01*
X142912790Y23587255D01*
X142928649Y23485432D01*
X142945058Y23392702D01*
X142960972Y23315289D01*
X142975346Y23259417D01*
X142977781Y23251855D01*
X142997429Y23180449D01*
X143002721Y23119501D01*
X143000353Y23086845D01*
X142999456Y23027461D01*
X143007619Y22940685D01*
X143024819Y22826732D01*
X143028848Y22803493D01*
X143048481Y22692304D01*
X143063933Y22606306D01*
X143076110Y22542078D01*
X143085920Y22496198D01*
X143094271Y22465245D01*
X143102070Y22445798D01*
X143110224Y22434434D01*
X143119640Y22427733D01*
X143129764Y22422942D01*
X143168143Y22390796D01*
X143189155Y22341081D01*
X143192715Y22279595D01*
X143178740Y22212133D01*
X143147145Y22144491D01*
X143134106Y22124875D01*
X143071136Y22051792D01*
X142994869Y21986205D01*
X142911835Y21932172D01*
X142828562Y21893748D01*
X142751578Y21874988D01*
X142729937Y21873800D01*
X142653569Y21885627D01*
X142572504Y21918083D01*
X142496578Y21966629D01*
X142461372Y21997741D01*
X142408283Y22062257D01*
X142365278Y22140996D01*
X142331357Y22237130D01*
X142305524Y22353833D01*
X142286780Y22494276D01*
X142279674Y22575469D01*
X142272475Y22667898D01*
X142263573Y22777095D01*
X142253980Y22890896D01*
X142244709Y22997132D01*
X142242527Y23021456D01*
X142233713Y23120853D01*
X142223604Y23237773D01*
X142213176Y23360766D01*
X142203402Y23478384D01*
X142198605Y23537303D01*
X142189969Y23638482D01*
X142182276Y23714079D01*
X142174993Y23767534D01*
X142167588Y23802292D01*
X142159529Y23821792D01*
X142153680Y23827921D01*
X142102687Y23865123D01*
X142064764Y23906020D01*
X142031452Y23960655D01*
X142016491Y23990761D01*
X141991911Y24045928D01*
X141979229Y24088062D01*
X141975897Y24129350D01*
X141978491Y24172612D01*
X141994002Y24248200D01*
X142023773Y24314849D01*
X142063812Y24365583D01*
X142103669Y24391265D01*
X142114776Y24394588D01*
X142123789Y24397280D01*
X142130489Y24402109D01*
X142134654Y24411840D01*
X142136065Y24429240D01*
X142134500Y24457075D01*
X142129739Y24498111D01*
X142121561Y24555114D01*
X142109747Y24630851D01*
X142094074Y24728087D01*
X142074323Y24849589D01*
X142060159Y24936922D01*
X142042363Y25047912D01*
X142026190Y25150747D01*
X142012214Y25241619D01*
X142001009Y25316719D01*
X141993150Y25372238D01*
X141989211Y25404367D01*
X141988861Y25409720D01*
X141983040Y25448056D01*
X141966850Y25507676D01*
X141942203Y25583525D01*
X141911009Y25670546D01*
X141875180Y25763685D01*
X141836627Y25857886D01*
X141797260Y25948093D01*
X141758991Y26029250D01*
X141742156Y26062390D01*
X141701271Y26139731D01*
X141669740Y26196126D01*
X141643876Y26236601D01*
X141619995Y26266184D01*
X141594413Y26289900D01*
X141563444Y26312778D01*
X141553726Y26319432D01*
X141508842Y26351398D01*
X141482589Y26376402D01*
X141468833Y26402691D01*
X141461439Y26438510D01*
X141460580Y26444628D01*
X141455575Y26496695D01*
X141452178Y26561788D01*
X141451218Y26612615D01*
X141455898Y26683219D01*
X141471968Y26730769D01*
X141502475Y26760048D01*
X141550466Y26775840D01*
X141555757Y26776765D01*
X141585966Y26781059D01*
X141640146Y26788023D01*
X141714662Y26797235D01*
X141805881Y26808274D01*
X141910166Y26820719D01*
X142023884Y26834148D01*
X142143399Y26848141D01*
X142265076Y26862274D01*
X142385282Y26876129D01*
X142500380Y26889282D01*
X142606737Y26901312D01*
X142700717Y26911800D01*
X142778686Y26920322D01*
X142837009Y26926457D01*
X142872051Y26929785D01*
X142879969Y26930267D01*
X142916745Y26920897D01*
G37*
G36*
X149033065Y25114646D02*
G01*
X149106982Y25097784D01*
X149170856Y25064479D01*
X149218485Y25014946D01*
X149228589Y24997137D01*
X149237617Y24976089D01*
X149243655Y24952906D01*
X149246848Y24922701D01*
X149247346Y24880585D01*
X149245297Y24821670D01*
X149240848Y24741066D01*
X149237825Y24691988D01*
X149232272Y24594211D01*
X149228890Y24506518D01*
X149227986Y24424343D01*
X149229864Y24343119D01*
X149234827Y24258278D01*
X149243180Y24165255D01*
X149255228Y24059482D01*
X149271275Y23936393D01*
X149291625Y23791420D01*
X149303164Y23711674D01*
X149320384Y23591905D01*
X149336972Y23473690D01*
X149352233Y23362201D01*
X149365470Y23262614D01*
X149375988Y23180101D01*
X149383090Y23119838D01*
X149384272Y23108642D01*
X149394413Y23017058D01*
X149406489Y22924998D01*
X149421359Y22827242D01*
X149439885Y22718568D01*
X149462927Y22593756D01*
X149491345Y22447585D01*
X149502157Y22393231D01*
X149519876Y22301789D01*
X149535369Y22216549D01*
X149547729Y22142934D01*
X149556050Y22086367D01*
X149559426Y22052272D01*
X149559456Y22050271D01*
X149545958Y21983956D01*
X149509272Y21923362D01*
X149455109Y21877279D01*
X149442691Y21870581D01*
X149398561Y21857286D01*
X149336659Y21848882D01*
X149267969Y21846044D01*
X149203471Y21849448D01*
X149174388Y21854090D01*
X149116866Y21872345D01*
X149063311Y21899211D01*
X149024105Y21929084D01*
X149015127Y21940061D01*
X149003212Y21969903D01*
X148991120Y22019288D01*
X148981053Y22078794D01*
X148979104Y22094205D01*
X148972921Y22146564D01*
X148964069Y22221046D01*
X148953351Y22310921D01*
X148941568Y22409459D01*
X148929525Y22509929D01*
X148928299Y22520141D01*
X148915991Y22624685D01*
X148903783Y22732023D01*
X148892544Y22834264D01*
X148883139Y22923518D01*
X148876436Y22991894D01*
X148876390Y22992395D01*
X148870053Y23051660D01*
X148859934Y23133941D01*
X148846803Y23233552D01*
X148831430Y23344806D01*
X148814582Y23462015D01*
X148797029Y23579492D01*
X148796815Y23580896D01*
X148763496Y23802094D01*
X148735273Y23996793D01*
X148712092Y24167098D01*
X148693902Y24315113D01*
X148680649Y24442941D01*
X148672282Y24552687D01*
X148668748Y24646454D01*
X148669994Y24726346D01*
X148675969Y24794467D01*
X148686619Y24852921D01*
X148701892Y24903813D01*
X148721735Y24949245D01*
X148746097Y24991322D01*
X148761092Y25013361D01*
X148813121Y25064423D01*
X148879930Y25098181D01*
X148955313Y25114850D01*
X149033065Y25114646D01*
G37*
G36*
X146039934Y23541607D02*
G01*
X146091024Y23698807D01*
X146155580Y23831523D01*
X146233778Y23940267D01*
X146254708Y23962972D01*
X146332150Y24042927D01*
X146437604Y24033126D01*
X146623200Y24002774D01*
X146793639Y23947626D01*
X146948924Y23867680D01*
X147061344Y23786611D01*
X147146068Y23704060D01*
X147202409Y23618913D01*
X147231033Y23529388D01*
X147232606Y23433706D01*
X147218958Y23365622D01*
X147204690Y23329236D01*
X147180851Y23293542D01*
X147144673Y23256335D01*
X147093391Y23215410D01*
X147024239Y23168564D01*
X146934451Y23113590D01*
X146821259Y23048285D01*
X146819602Y23047347D01*
X146713275Y22987414D01*
X146629327Y22940070D01*
X146565144Y22903071D01*
X146518109Y22874177D01*
X146485610Y22851145D01*
X146465032Y22831733D01*
X146453759Y22813700D01*
X146449179Y22794804D01*
X146448675Y22772802D01*
X146449633Y22745453D01*
X146449845Y22730288D01*
X146454657Y22640576D01*
X146467981Y22552807D01*
X146488151Y22472391D01*
X146513498Y22404736D01*
X146542355Y22355251D01*
X146573057Y22329347D01*
X146573474Y22329184D01*
X146605470Y22324496D01*
X146644162Y22333915D01*
X146691627Y22358889D01*
X146749945Y22400864D01*
X146821192Y22461286D01*
X146907449Y22541603D01*
X146978689Y22611247D01*
X147068973Y22699847D01*
X147142355Y22769296D01*
X147201702Y22821747D01*
X147249881Y22859352D01*
X147289758Y22884265D01*
X147324199Y22898638D01*
X147356071Y22904624D01*
X147370037Y22905155D01*
X147430913Y22895849D01*
X147484220Y22871177D01*
X147521839Y22835841D01*
X147533808Y22810309D01*
X147533372Y22764973D01*
X147516508Y22711775D01*
X147487808Y22664786D01*
X147438092Y22604021D01*
X147370255Y22532227D01*
X147287189Y22452148D01*
X147191788Y22366531D01*
X147086945Y22278122D01*
X146975554Y22189667D01*
X146929365Y22154552D01*
X146816354Y22070226D01*
X146723406Y22002326D01*
X146647699Y21949366D01*
X146586409Y21909862D01*
X146536715Y21882328D01*
X146495794Y21865278D01*
X146460822Y21857227D01*
X146428978Y21856691D01*
X146397438Y21862182D01*
X146381854Y21866442D01*
X146289191Y21906404D01*
X146209789Y21968521D01*
X146141972Y22054584D01*
X146084068Y22166385D01*
X146070495Y22199723D01*
X146042369Y22285165D01*
X146017595Y22384379D01*
X145998402Y22486202D01*
X145987017Y22579474D01*
X145984857Y22628647D01*
X145984857Y22697020D01*
X145925031Y22695766D01*
X145868209Y22705972D01*
X145829188Y22738867D01*
X145808534Y22793739D01*
X145805348Y22846335D01*
X145811704Y22908644D01*
X145829975Y22951916D01*
X145865834Y22985499D01*
X145903193Y23007589D01*
X145968428Y23042196D01*
X145977453Y23151706D01*
X145988878Y23247846D01*
X146435314Y23247846D01*
X146436030Y23233340D01*
X146440989Y23225534D01*
X146454405Y23225505D01*
X146480497Y23234335D01*
X146523478Y23253100D01*
X146587566Y23282882D01*
X146606052Y23291553D01*
X146672054Y23323294D01*
X146729481Y23352360D01*
X146772604Y23375748D01*
X146795692Y23390458D01*
X146796843Y23391496D01*
X146805859Y23419097D01*
X146796023Y23458775D01*
X146770949Y23504170D01*
X146734249Y23548920D01*
X146689537Y23586666D01*
X146683878Y23590376D01*
X146625677Y23620831D01*
X146580776Y23627574D01*
X146544846Y23609996D01*
X146513558Y23567490D01*
X146512941Y23566365D01*
X146493880Y23520978D01*
X146474080Y23457134D01*
X146456080Y23385252D01*
X146442420Y23315752D01*
X146435638Y23259052D01*
X146435314Y23247846D01*
X145988878Y23247846D01*
X146002135Y23359411D01*
X146039934Y23541607D01*
G37*
G36*
X153133614Y23952974D02*
G01*
X153229289Y23914091D01*
X153311733Y23849451D01*
X153380797Y23759189D01*
X153436330Y23643438D01*
X153459025Y23575882D01*
X153473089Y23514554D01*
X153487012Y23427286D01*
X153500477Y23317200D01*
X153513166Y23187418D01*
X153524763Y23041062D01*
X153534949Y22881252D01*
X153540529Y22774431D01*
X153545683Y22667875D01*
X153551078Y22558014D01*
X153556316Y22452847D01*
X153560997Y22360374D01*
X153564724Y22288594D01*
X153564854Y22286148D01*
X153567769Y22214050D01*
X153568704Y22149516D01*
X153567659Y22099811D01*
X153564832Y22072938D01*
X153542410Y22025081D01*
X153503029Y21975368D01*
X153455897Y21934592D01*
X153437275Y21923376D01*
X153359310Y21895132D01*
X153276122Y21885319D01*
X153194254Y21892801D01*
X153120249Y21916439D01*
X153060650Y21955096D01*
X153028677Y21994406D01*
X153023952Y22010084D01*
X153020043Y22040479D01*
X153016895Y22087646D01*
X153014449Y22153638D01*
X153012648Y22240510D01*
X153011436Y22350317D01*
X153010753Y22485113D01*
X153010543Y22643653D01*
X153010428Y22797516D01*
X153010008Y22925412D01*
X153009170Y23030435D01*
X153007803Y23115677D01*
X153005794Y23184234D01*
X153003032Y23239200D01*
X152999405Y23283667D01*
X152994800Y23320730D01*
X152989105Y23353483D01*
X152983964Y23377463D01*
X152958182Y23473698D01*
X152930426Y23543168D01*
X152899364Y23588162D01*
X152863669Y23610970D01*
X152846216Y23614561D01*
X152785132Y23607365D01*
X152716325Y23577511D01*
X152644238Y23528734D01*
X152573312Y23464772D01*
X152507987Y23389361D01*
X152452705Y23306236D01*
X152431519Y23265699D01*
X152393203Y23173209D01*
X152365092Y23076026D01*
X152347014Y22970618D01*
X152338798Y22853455D01*
X152340273Y22721006D01*
X152351268Y22569741D01*
X152371613Y22396129D01*
X152384893Y22302177D01*
X152401450Y22185723D01*
X152412729Y22094217D01*
X152418856Y22024053D01*
X152419959Y21971626D01*
X152416163Y21933328D01*
X152407597Y21905554D01*
X152399364Y21891197D01*
X152350854Y21846325D01*
X152283483Y21819527D01*
X152202023Y21811964D01*
X152118836Y21822970D01*
X152044551Y21850246D01*
X151992271Y21889980D01*
X151974010Y21909812D01*
X151958100Y21931539D01*
X151944027Y21957733D01*
X151931281Y21990969D01*
X151919347Y22033820D01*
X151907715Y22088858D01*
X151895871Y22158659D01*
X151883303Y22245794D01*
X151869500Y22352839D01*
X151853948Y22482365D01*
X151836136Y22636948D01*
X151826319Y22723573D01*
X151805843Y22906027D01*
X151788675Y23061709D01*
X151774623Y23192696D01*
X151763496Y23301067D01*
X151755101Y23388900D01*
X151749246Y23458273D01*
X151745738Y23511263D01*
X151744387Y23549948D01*
X151744999Y23576408D01*
X151746381Y23588161D01*
X151775435Y23680768D01*
X151824196Y23754509D01*
X151889568Y23807226D01*
X151968452Y23836764D01*
X152057751Y23840964D01*
X152099731Y23834188D01*
X152163935Y23812206D01*
X152213104Y23775976D01*
X152250870Y23721168D01*
X152280862Y23643454D01*
X152291302Y23605741D01*
X152307230Y23543401D01*
X152379532Y23628898D01*
X152495462Y23747854D01*
X152620406Y23842141D01*
X152752254Y23910656D01*
X152888892Y23952295D01*
X153024859Y23965964D01*
X153133614Y23952974D01*
G37*
G36*
X148018470Y25106339D02*
G01*
X148093421Y25078124D01*
X148150013Y25034187D01*
X148184108Y24976859D01*
X148185658Y24972034D01*
X148187853Y24948091D01*
X148188289Y24899973D01*
X148187066Y24832508D01*
X148184285Y24750524D01*
X148180048Y24658848D01*
X148178529Y24630558D01*
X148174485Y24557066D01*
X148171339Y24493283D01*
X148169364Y24435985D01*
X148168833Y24381948D01*
X148170016Y24327946D01*
X148173188Y24270756D01*
X148178621Y24207153D01*
X148186586Y24133913D01*
X148197357Y24047811D01*
X148211206Y23945623D01*
X148228405Y23824124D01*
X148249226Y23680089D01*
X148272126Y23522772D01*
X148287608Y23414630D01*
X148302655Y23306180D01*
X148316394Y23203965D01*
X148327952Y23114532D01*
X148336456Y23044424D01*
X148338999Y23021456D01*
X148348750Y22935795D01*
X148359997Y22851904D01*
X148373702Y22764093D01*
X148390827Y22666670D01*
X148412337Y22553943D01*
X148439193Y22420222D01*
X148447947Y22377538D01*
X148464908Y22291395D01*
X148479462Y22210334D01*
X148490583Y22140656D01*
X148497243Y22088664D01*
X148498701Y22066187D01*
X148487921Y21984197D01*
X148455471Y21921368D01*
X148401187Y21877565D01*
X148324905Y21852649D01*
X148237145Y21846261D01*
X148179168Y21848633D01*
X148125845Y21853582D01*
X148095833Y21858563D01*
X148027244Y21885457D01*
X147973056Y21927460D01*
X147955694Y21950006D01*
X147948267Y21973605D01*
X147938410Y22022746D01*
X147926568Y22094050D01*
X147913186Y22184139D01*
X147898710Y22289635D01*
X147883586Y22407161D01*
X147868259Y22533337D01*
X147853175Y22664787D01*
X147838779Y22798131D01*
X147825517Y22929993D01*
X147823145Y22954780D01*
X147814430Y23036546D01*
X147801972Y23139509D01*
X147786762Y23256192D01*
X147769791Y23379119D01*
X147752051Y23500814D01*
X147742238Y23565078D01*
X147708386Y23786554D01*
X147679961Y23981525D01*
X147656790Y24152003D01*
X147638700Y24300000D01*
X147625518Y24427529D01*
X147617070Y24536601D01*
X147613184Y24629228D01*
X147613687Y24707422D01*
X147618405Y24773196D01*
X147627165Y24828562D01*
X147631824Y24848483D01*
X147668876Y24951773D01*
X147720356Y25029898D01*
X147786452Y25083029D01*
X147867353Y25111335D01*
X147929295Y25116500D01*
X148018470Y25106339D01*
G37*
G36*
X150001856Y23511523D02*
G01*
X150045963Y23661743D01*
X150101066Y23789808D01*
X150167770Y23897524D01*
X150220435Y23960461D01*
X150298471Y24042984D01*
X150404231Y24033154D01*
X150589833Y24002836D01*
X150760200Y23947785D01*
X150915398Y23867973D01*
X151028277Y23786611D01*
X151113002Y23704060D01*
X151169342Y23618913D01*
X151197966Y23529388D01*
X151199540Y23433706D01*
X151185892Y23365622D01*
X151171312Y23328629D01*
X151146869Y23292351D01*
X151109773Y23254554D01*
X151057235Y23213006D01*
X150986466Y23165475D01*
X150894677Y23109728D01*
X150793883Y23051867D01*
X150686418Y22991424D01*
X150601408Y22943499D01*
X150536246Y22905894D01*
X150488324Y22876412D01*
X150455036Y22852857D01*
X150433774Y22833032D01*
X150421933Y22814740D01*
X150416904Y22795784D01*
X150416081Y22773967D01*
X150416857Y22747092D01*
X150417031Y22734289D01*
X150422241Y22639421D01*
X150436312Y22549509D01*
X150457648Y22468950D01*
X150484654Y22402141D01*
X150515734Y22353476D01*
X150549292Y22327352D01*
X150565927Y22324110D01*
X150605416Y22332701D01*
X150656226Y22358918D01*
X150719812Y22403859D01*
X150797632Y22468621D01*
X150891141Y22554301D01*
X150961687Y22622380D01*
X151048759Y22707280D01*
X151118497Y22773654D01*
X151173991Y22823650D01*
X151218335Y22859412D01*
X151254621Y22883090D01*
X151285940Y22896828D01*
X151315384Y22902774D01*
X151346045Y22903075D01*
X151363956Y22901669D01*
X151416583Y22892819D01*
X151452113Y22875376D01*
X151474535Y22853676D01*
X151498062Y22814022D01*
X151502795Y22769466D01*
X151487699Y22718003D01*
X151451736Y22657627D01*
X151393867Y22586332D01*
X151313057Y22502113D01*
X151272307Y22462673D01*
X151220419Y22415887D01*
X151152116Y22358128D01*
X151071713Y22292697D01*
X150983523Y22222892D01*
X150891859Y22152012D01*
X150801036Y22083357D01*
X150715365Y22020225D01*
X150639161Y21965916D01*
X150576738Y21923729D01*
X150533267Y21897420D01*
X150476666Y21869212D01*
X150434599Y21855313D01*
X150397356Y21854003D01*
X150355227Y21863565D01*
X150350384Y21865049D01*
X150254814Y21909712D01*
X150170657Y21979826D01*
X150098834Y22073744D01*
X150040264Y22189814D01*
X149995869Y22326388D01*
X149966569Y22481816D01*
X149957653Y22568882D01*
X149948001Y22696740D01*
X149890070Y22695626D01*
X149834639Y22706225D01*
X149796377Y22739920D01*
X149775968Y22795871D01*
X149772576Y22839820D01*
X149784048Y22910149D01*
X149819734Y22966873D01*
X149881541Y23012994D01*
X149883145Y23013877D01*
X149911656Y23031229D01*
X149928285Y23049792D01*
X149937332Y23078269D01*
X149943099Y23125359D01*
X149944202Y23137390D01*
X149957238Y23246284D01*
X150402248Y23246284D01*
X150403215Y23232551D01*
X150408911Y23225549D01*
X150423531Y23226407D01*
X150451270Y23236253D01*
X150496322Y23256213D01*
X150562882Y23287417D01*
X150572986Y23292194D01*
X150638540Y23323109D01*
X150695389Y23349763D01*
X150737945Y23369545D01*
X150760617Y23379847D01*
X150761888Y23380385D01*
X150776270Y23392278D01*
X150777248Y23414669D01*
X150764264Y23453355D01*
X150752252Y23480866D01*
X150712324Y23542497D01*
X150658185Y23590163D01*
X150597466Y23618070D01*
X150565349Y23622864D01*
X150531843Y23621568D01*
X150510219Y23610645D01*
X150491362Y23583369D01*
X150478937Y23559099D01*
X150458817Y23508523D01*
X150438447Y23441387D01*
X150420471Y23368467D01*
X150407528Y23300542D01*
X150402263Y23248388D01*
X150402248Y23246284D01*
X149957238Y23246284D01*
X149968138Y23337340D01*
X150001856Y23511523D01*
G37*
G36*
X148608609Y21534842D02*
G01*
X148951431Y21534667D01*
X149291164Y21534404D01*
X149626570Y21534054D01*
X149956414Y21533616D01*
X150279458Y21533091D01*
X150594467Y21532478D01*
X150900203Y21531778D01*
X151195431Y21530990D01*
X151478912Y21530114D01*
X151749412Y21529151D01*
X152005693Y21528101D01*
X152246518Y21526962D01*
X152470652Y21525737D01*
X152676857Y21524423D01*
X152863897Y21523022D01*
X153030536Y21521534D01*
X153175536Y21519958D01*
X153297661Y21518294D01*
X153395675Y21516543D01*
X153468341Y21514704D01*
X153514423Y21512778D01*
X153532683Y21510764D01*
X153532695Y21510757D01*
X153578847Y21470342D01*
X153606678Y21411267D01*
X153613575Y21356938D01*
X153607256Y21314424D01*
X153584380Y21276380D01*
X153564170Y21254500D01*
X153514765Y21205095D01*
X142668907Y21205095D01*
X142619502Y21254500D01*
X142585783Y21295002D01*
X142571654Y21333688D01*
X142570097Y21356938D01*
X142581597Y21426165D01*
X142613925Y21481502D01*
X142650977Y21510757D01*
X142669147Y21512772D01*
X142715142Y21514698D01*
X142787726Y21516537D01*
X142885661Y21518289D01*
X143007712Y21519953D01*
X143152642Y21521529D01*
X143319213Y21523018D01*
X143506191Y21524419D01*
X143712337Y21525733D01*
X143936416Y21526959D01*
X144177190Y21528097D01*
X144433424Y21529148D01*
X144703880Y21530111D01*
X144987323Y21530987D01*
X145282515Y21531775D01*
X145588220Y21532476D01*
X145903201Y21533089D01*
X146226222Y21533615D01*
X146556046Y21534053D01*
X146891437Y21534403D01*
X147231158Y21534666D01*
X147573972Y21534841D01*
X147918643Y21534929D01*
X148263934Y21534929D01*
X148608609Y21534842D01*
G37*
D20*
G04 #@! TO.C,R8*
X49112000Y29574000D02*
X49112000Y28558000D01*
X49112000Y26526000D02*
X47588000Y26526000D01*
X47588000Y29574000D02*
X49112000Y29574000D01*
X47588000Y26526000D02*
X47588000Y27542000D01*
X47588000Y28558000D02*
X47588000Y29574000D01*
X49112000Y27542000D02*
X49112000Y26526000D01*
G04 #@! TO.C,F1*
X123050000Y27717000D02*
X123050000Y30650000D01*
X125075000Y30650000D02*
X125075000Y27701000D01*
D19*
G04 #@! TO.C,J2*
X19162000Y91125000D02*
G75*
G03*
X19162000Y91125000I-1200000J0D01*
G01*
D14*
G04 #@! TO.C,M9*
X32045000Y26955000D02*
X17145000Y26955000D01*
X17145000Y26955000D02*
X17145000Y66105000D01*
X17145000Y66105000D02*
X32045000Y66105000D01*
X32045000Y66105000D02*
X32045000Y26955000D01*
D21*
G04 #@! TO.C,U1*
X150676550Y38158113D02*
X135753450Y38158213D01*
X134747000Y48826163D02*
X150667000Y48826163D01*
X150676550Y40698163D02*
X150676550Y38158113D01*
X150667000Y48826163D02*
X150667000Y46286163D01*
X134747000Y46286163D02*
X134747000Y48826163D01*
X134744100Y38793163D02*
X134747000Y40698163D01*
D22*
X135649000Y36888163D02*
G75*
G03*
X135649000Y36888163I-308000J0D01*
G01*
D21*
G04 #@! TO.C,R21*
X9262000Y80475005D02*
X8862000Y80475015D01*
X9263056Y81220840D02*
X8863057Y81220851D01*
D14*
G04 #@! TO.C,M10*
X31349999Y74925000D02*
X31349997Y74925003D01*
X31349997Y74925003D02*
X20450003Y74925003D01*
X31625003Y73775002D02*
X31625003Y68077521D01*
X31349999Y74925000D02*
X31349999Y74050006D01*
X20450003Y74925003D02*
X20450003Y68038674D01*
X31625003Y68077521D02*
X20450003Y68038674D01*
X31625003Y73775002D02*
X31349999Y74050006D01*
G04 #@! TO.C,D4*
X15839171Y97149996D02*
X16264172Y97149996D01*
X14671980Y96114999D02*
X15751981Y96114999D01*
X12131980Y96114999D02*
X12131980Y98135000D01*
X16039166Y96900001D02*
X16039166Y97375002D01*
X12131980Y96114999D02*
X13101979Y96114999D01*
X15751981Y96114999D02*
X16051980Y96354999D01*
X12131980Y98135000D02*
X13101979Y98135000D01*
X14671980Y98135000D02*
X15751978Y98135000D01*
X11861976Y96599997D02*
X11861976Y97574994D01*
X15751981Y98135000D02*
X16051980Y97895001D01*
G04 #@! TO.C,C16*
X34800000Y72750014D02*
X34800000Y73499999D01*
G04 #@! TO.C,S1*
X60012001Y106650003D02*
X60012001Y106050004D01*
X60012001Y101145995D02*
X62912000Y101145995D01*
X60012001Y106650003D02*
X62912000Y106650003D01*
X62912000Y106650003D02*
X62912000Y106050004D01*
X62912000Y101745994D02*
X62912000Y101145995D01*
X60012001Y101745994D02*
X60012001Y101145995D01*
D23*
X62552013Y103900000D02*
G75*
G03*
X62552013Y103900000I-1090013J0D01*
G01*
D19*
G04 #@! TO.C,V10*
X72774373Y29020000D02*
X73080000Y29020000D01*
X73080000Y29020000D02*
X73080000Y31680000D01*
X70725627Y31680000D02*
X70420000Y31680000D01*
X70714462Y29020000D02*
X70420000Y29020000D01*
X70420000Y31680000D02*
X70420000Y29020000D01*
X72785538Y31680000D02*
X73080000Y31680000D01*
G04 #@! TO.C,V44*
X80724373Y29020000D02*
X81030000Y29020000D01*
X78664462Y29020000D02*
X78370000Y29020000D01*
X81030000Y29020000D02*
X81030000Y31680000D01*
X78370000Y31680000D02*
X78370000Y29020000D01*
X80735538Y31680000D02*
X81030000Y31680000D01*
X78675627Y31680000D02*
X78370000Y31680000D01*
G04 #@! TO.C,BT1*
X142950000Y89400000D02*
X138450000Y89400000D01*
X138450000Y66700000D02*
X138450000Y63500000D01*
X130750000Y63500000D02*
X132300000Y63500000D01*
X130750000Y92600000D02*
X132300000Y92600000D01*
X142950000Y66700000D02*
X138450000Y66700000D01*
X128600000Y90050000D02*
X128600000Y92050000D01*
X129600000Y91050000D02*
X127600000Y91050000D01*
X130750000Y89400000D02*
X130750000Y92600000D01*
X142950000Y89400000D02*
X142950000Y66700000D01*
X138450000Y92600000D02*
X136900000Y92600000D01*
X128050000Y89400000D02*
X130750000Y89400000D01*
X138450000Y63500000D02*
X136900000Y63500000D01*
X138450000Y89400000D02*
X138450000Y92600000D01*
X130750000Y66700000D02*
X130750000Y63500000D01*
X126250000Y66700000D02*
X130750000Y66700000D01*
X126250000Y87600000D02*
X128050000Y89400000D01*
X126250000Y66700000D02*
X126250000Y87600000D01*
D21*
G04 #@! TO.C,R5*
X142736160Y55993219D02*
X142736149Y55593220D01*
X143481995Y55992163D02*
X143481985Y55592163D01*
D19*
G04 #@! TO.C,VIN2*
X54524373Y40195000D02*
X54830000Y40195000D01*
X52464462Y40195000D02*
X52170000Y40195000D01*
X54535538Y42855000D02*
X54830000Y42855000D01*
X52170000Y42855000D02*
X52170000Y40195000D01*
X54830000Y40195000D02*
X54830000Y42855000D01*
X52475627Y42855000D02*
X52170000Y42855000D01*
G04 #@! TO.C,V49*
X73880000Y24245000D02*
X73880000Y26905000D01*
X73585538Y26905000D02*
X73880000Y26905000D01*
X73574373Y24245000D02*
X73880000Y24245000D01*
X71514462Y24245000D02*
X71220000Y24245000D01*
X71220000Y26905000D02*
X71220000Y24245000D01*
X71525627Y26905000D02*
X71220000Y26905000D01*
G04 #@! TO.C,VIN3*
X51699373Y40195000D02*
X52005000Y40195000D01*
X52005000Y40195000D02*
X52005000Y42855000D01*
X49345000Y42855000D02*
X49345000Y40195000D01*
X49650627Y42855000D02*
X49345000Y42855000D01*
X51710538Y42855000D02*
X52005000Y42855000D01*
X49639462Y40195000D02*
X49345000Y40195000D01*
G04 #@! TO.C,U2*
X55760000Y104440000D02*
X55760000Y104140000D01*
X55760000Y104140000D02*
X55160000Y104140000D01*
X55760000Y106560000D02*
X55760000Y106860000D01*
X53040000Y104440000D02*
X53040000Y104140000D01*
X53040000Y106560000D02*
X53040000Y106860000D01*
X55760000Y106860000D02*
X55160000Y106860000D01*
X53040000Y106860000D02*
X53640000Y106860000D01*
D17*
G04 #@! TO.C,D5*
X14362000Y93125000D02*
X13662000Y92775000D01*
X14362000Y93125000D02*
X13662000Y93475000D01*
D16*
X15689997Y92525000D02*
X12761999Y92525000D01*
D17*
X14562000Y93125000D02*
X14362000Y93125000D01*
D16*
X15689997Y93699995D02*
X12762000Y93699995D01*
D17*
X13662000Y93125000D02*
X13362000Y93125000D01*
D16*
X15689997Y92871000D02*
X15562997Y92871000D01*
X15689997Y93699995D02*
X15689997Y93278995D01*
D17*
X13662000Y93475000D02*
X13662000Y92775000D01*
D16*
X15689997Y93379000D02*
X15562000Y93379000D01*
X15689997Y92971005D02*
X15689997Y92525000D01*
X15562000Y92971005D02*
X15562000Y92525000D01*
D17*
X14362000Y93475000D02*
X14362000Y92775000D01*
D16*
X15562000Y93675000D02*
X15562997Y93278995D01*
D19*
G04 #@! TO.C,V28*
X75720000Y31680000D02*
X75720000Y29020000D01*
X76014462Y29020000D02*
X75720000Y29020000D01*
X78380000Y29020000D02*
X78380000Y31680000D01*
X78085538Y31680000D02*
X78380000Y31680000D01*
X78074373Y29020000D02*
X78380000Y29020000D01*
X76025627Y31680000D02*
X75720000Y31680000D01*
D21*
G04 #@! TO.C,R18*
X54224986Y102314996D02*
X54624986Y102314986D01*
X54223930Y101569161D02*
X54623929Y101569150D01*
D20*
G04 #@! TO.C,R10*
X12538000Y30483000D02*
X12538000Y31499000D01*
X12538000Y31499000D02*
X14062000Y31499000D01*
X14062000Y29467000D02*
X14062000Y28451000D01*
X14062000Y28451000D02*
X12538000Y28451000D01*
X14062000Y31499000D02*
X14062000Y30483000D01*
X12538000Y28451000D02*
X12538000Y29467000D01*
D16*
G04 #@! TO.C,D3*
X15689997Y94525000D02*
X12761999Y94525000D01*
X15562000Y95675000D02*
X15562997Y95278995D01*
D17*
X14362000Y95125000D02*
X13662000Y95475000D01*
X14362000Y95125000D02*
X13662000Y94775000D01*
D16*
X15689997Y95699995D02*
X15689997Y95278995D01*
X15689997Y94971005D02*
X15689997Y94525000D01*
X15689997Y94871000D02*
X15562997Y94871000D01*
D17*
X13662000Y95125000D02*
X13362000Y95125000D01*
X14362000Y95475000D02*
X14362000Y94775000D01*
D16*
X15689997Y95699995D02*
X12762000Y95699995D01*
D17*
X14562000Y95125000D02*
X14362000Y95125000D01*
X13662000Y95475000D02*
X13662000Y94775000D01*
D16*
X15689997Y95379000D02*
X15562000Y95379000D01*
X15562000Y94971005D02*
X15562000Y94525000D01*
D20*
G04 #@! TO.C,R9*
X50838000Y28558000D02*
X50838000Y29574000D01*
X52362000Y27542000D02*
X52362000Y26526000D01*
X50838000Y29574000D02*
X52362000Y29574000D01*
X52362000Y26526000D02*
X50838000Y26526000D01*
X52362000Y29574000D02*
X52362000Y28558000D01*
X50838000Y26526000D02*
X50838000Y27542000D01*
D14*
G04 #@! TO.C,M11*
X62499997Y32425000D02*
X62499997Y40135012D01*
X62714985Y40350000D02*
X81524996Y40350000D01*
X81849996Y32649998D02*
X81849996Y40025000D01*
X62499997Y32425000D02*
X81624998Y32425000D01*
X81624998Y32425000D02*
X81849996Y32649998D01*
X62499997Y40135012D02*
X62714985Y40350000D01*
X81524996Y40350000D02*
X81849996Y40025000D01*
D19*
G04 #@! TO.C,C8*
X136950748Y59014000D02*
X137473252Y59014000D01*
X136950748Y57544000D02*
X137473252Y57544000D01*
D16*
G04 #@! TO.C,D9*
X131672003Y94525005D02*
X131672003Y94946005D01*
X131800000Y94550000D02*
X131799003Y94946005D01*
X131672003Y95253995D02*
X131672003Y95700000D01*
X131672003Y94846000D02*
X131800000Y94846000D01*
X131800000Y95253995D02*
X131800000Y95700000D01*
D17*
X132800000Y95100000D02*
X133000000Y95100000D01*
X133700000Y95100000D02*
X134000000Y95100000D01*
D16*
X131672003Y95700000D02*
X134600001Y95700000D01*
X131672003Y94525005D02*
X134600000Y94525005D01*
X131672003Y95354000D02*
X131799003Y95354000D01*
D17*
X133000000Y94750000D02*
X133000000Y95450000D01*
X133000000Y95100000D02*
X133700000Y94750000D01*
X133000000Y95100000D02*
X133700000Y95450000D01*
X133700000Y94750000D02*
X133700000Y95450000D01*
D19*
G04 #@! TO.C,V14*
X64810538Y26955000D02*
X65105000Y26955000D01*
X62445000Y26955000D02*
X62445000Y24295000D01*
X64799373Y24295000D02*
X65105000Y24295000D01*
X62739462Y24295000D02*
X62445000Y24295000D01*
X65105000Y24295000D02*
X65105000Y26955000D01*
X62750627Y26955000D02*
X62445000Y26955000D01*
D21*
G04 #@! TO.C,R6*
X57874995Y40650000D02*
X57874985Y40250000D01*
X57129160Y40651056D02*
X57129149Y40251057D01*
G04 #@! TO.C,R19*
X56529160Y106501056D02*
X56529149Y106101057D01*
X57274995Y106500000D02*
X57274985Y106100000D01*
D19*
G04 #@! TO.C,VOUT1*
X91524373Y38970000D02*
X91830000Y38970000D01*
X91535538Y41630000D02*
X91830000Y41630000D01*
X89464462Y38970000D02*
X89170000Y38970000D01*
X89170000Y41630000D02*
X89170000Y38970000D01*
X89475627Y41630000D02*
X89170000Y41630000D01*
X91830000Y38970000D02*
X91830000Y41630000D01*
G04 #@! TO.C,V43*
X39185538Y33980000D02*
X39480000Y33980000D01*
X39174373Y31320000D02*
X39480000Y31320000D01*
X37125627Y33980000D02*
X36820000Y33980000D01*
X39480000Y31320000D02*
X39480000Y33980000D01*
X37114462Y31320000D02*
X36820000Y31320000D01*
X36820000Y33980000D02*
X36820000Y31320000D01*
G04 #@! TO.C,J8*
X14530000Y54820000D02*
X14530000Y67580000D01*
X14530000Y53550000D02*
X14530000Y52220000D01*
X14530000Y52220000D02*
X13200000Y52220000D01*
X14530000Y67580000D02*
X11870000Y67580000D01*
X14530000Y54820000D02*
X11870000Y54820000D01*
X11870000Y54820000D02*
X11870000Y67580000D01*
G04 #@! TO.C,C10*
X136950748Y53344000D02*
X137473252Y53344000D01*
X136950748Y54814000D02*
X137473252Y54814000D01*
G04 #@! TO.C,G3*
X145916000Y105616000D02*
X138804000Y105616000D01*
X138804000Y105616000D02*
X138804000Y93424000D01*
X138804000Y93424000D02*
X145916000Y93424000D01*
X145916000Y93424000D02*
X145916000Y105616000D01*
D14*
G04 #@! TO.C,M12*
X76637000Y57567000D02*
X76637000Y45817000D01*
X71637000Y45817000D02*
X76537000Y45817000D01*
X71637000Y57567000D02*
X76537000Y57567000D01*
X71637000Y57567000D02*
X71637000Y45817000D01*
D19*
G04 #@! TO.C,J9*
X61850000Y98170000D02*
X54170000Y98170000D01*
X61850000Y100830000D02*
X61850000Y98170000D01*
X54170000Y100830000D02*
X54170000Y98170000D01*
X63120000Y100830000D02*
X64450000Y100830000D01*
X64450000Y100830000D02*
X64450000Y99500000D01*
X61850000Y100830000D02*
X54170000Y100830000D01*
D20*
G04 #@! TO.C,R2*
X47087000Y27562000D02*
X47087000Y26546000D01*
X45563000Y28578000D02*
X45563000Y29594000D01*
X45563000Y29594000D02*
X47087000Y29594000D01*
X47087000Y29594000D02*
X47087000Y28578000D01*
X47087000Y26546000D02*
X45563000Y26546000D01*
X45563000Y26546000D02*
X45563000Y27562000D01*
G04 #@! TO.C,R12*
X16362000Y31499021D02*
X16362000Y30483021D01*
X16362000Y28451021D02*
X14838000Y28451021D01*
X14838000Y28451021D02*
X14838000Y29467021D01*
X14838000Y31499021D02*
X16362000Y31499021D01*
X16362000Y29467021D02*
X16362000Y28451021D01*
X14838000Y30483021D02*
X14838000Y31499021D01*
G04 #@! TO.C,F2*
X127975000Y30650000D02*
X127975000Y27701000D01*
X125950000Y27717000D02*
X125950000Y30650000D01*
D19*
G04 #@! TO.C,C14*
X135550748Y31214000D02*
X136073252Y31214000D01*
X135550748Y29744000D02*
X136073252Y29744000D01*
G04 #@! TO.C,J4*
X19162000Y79125000D02*
G75*
G03*
X19162000Y79125000I-1200000J0D01*
G01*
D14*
G04 #@! TO.C,C3*
X140507000Y54442177D02*
X140507000Y55192162D01*
G04 #@! TO.C,C2*
X136071999Y34728986D02*
X136071999Y33979001D01*
D19*
G04 #@! TO.C,V63*
X87810538Y26905000D02*
X88105000Y26905000D01*
X85750627Y26905000D02*
X85445000Y26905000D01*
X87799373Y24245000D02*
X88105000Y24245000D01*
X85739462Y24245000D02*
X85445000Y24245000D01*
X85445000Y26905000D02*
X85445000Y24245000D01*
X88105000Y24245000D02*
X88105000Y26905000D01*
G04 #@! TO.C,G1*
X148844000Y58624000D02*
X155956000Y58624000D01*
X155956000Y58624000D02*
X155956000Y70816000D01*
X155956000Y70816000D02*
X148844000Y70816000D01*
X148844000Y70816000D02*
X148844000Y58624000D01*
G04 #@! TO.C,C12*
X135550748Y29114000D02*
X136073252Y29114000D01*
X135550748Y27644000D02*
X136073252Y27644000D01*
G04 #@! TO.C,J10*
X103820000Y106520000D02*
X107820000Y106520000D01*
X89580000Y99980000D02*
X89580000Y103300000D01*
X89580000Y108420000D02*
X103820000Y108420000D01*
X103820000Y100280000D02*
X103820000Y99980000D01*
X107820000Y106520000D02*
X107820000Y100280000D01*
X107820000Y100280000D02*
X103820000Y100280000D01*
X103820000Y99980000D02*
X89580000Y99980000D01*
X89580000Y106078000D02*
X89580000Y108420000D01*
X103820000Y108420000D02*
X103820000Y106520000D01*
G04 #@! TO.C,VOUT2*
X101864462Y38995000D02*
X101570000Y38995000D01*
X104230000Y38995000D02*
X104230000Y41655000D01*
X101570000Y41655000D02*
X101570000Y38995000D01*
X103924373Y38995000D02*
X104230000Y38995000D01*
X101875627Y41655000D02*
X101570000Y41655000D01*
X103935538Y41655000D02*
X104230000Y41655000D01*
G04 #@! TO.C,C7*
X136950748Y61114000D02*
X137473252Y61114000D01*
X136950748Y59644000D02*
X137473252Y59644000D01*
G04 #@! TO.C,C9*
X136950748Y55444000D02*
X137473252Y55444000D01*
X136950748Y56914000D02*
X137473252Y56914000D01*
G04 #@! TO.C,V46*
X79899373Y24245000D02*
X80205000Y24245000D01*
X77545000Y26905000D02*
X77545000Y24245000D01*
X77850627Y26905000D02*
X77545000Y26905000D01*
X80205000Y24245000D02*
X80205000Y26905000D01*
X79910538Y26905000D02*
X80205000Y26905000D01*
X77839462Y24245000D02*
X77545000Y24245000D01*
D21*
G04 #@! TO.C,R20*
X9262000Y83025005D02*
X8862000Y83025015D01*
X9263056Y83770840D02*
X8863057Y83770851D01*
D19*
G04 #@! TO.C,V13*
X67830000Y24295000D02*
X67830000Y26955000D01*
X67524373Y24295000D02*
X67830000Y24295000D01*
X65170000Y26955000D02*
X65170000Y24295000D01*
X67535538Y26955000D02*
X67830000Y26955000D01*
X65464462Y24295000D02*
X65170000Y24295000D01*
X65475627Y26955000D02*
X65170000Y26955000D01*
G04 #@! TO.C,V45*
X80539462Y24245000D02*
X80245000Y24245000D01*
X80245000Y26905000D02*
X80245000Y24245000D01*
X82905000Y24245000D02*
X82905000Y26905000D01*
X82599373Y24245000D02*
X82905000Y24245000D01*
X82610538Y26905000D02*
X82905000Y26905000D01*
X80550627Y26905000D02*
X80245000Y26905000D01*
G04 #@! TO.C,J7*
X73530000Y98170000D02*
X65850000Y98170000D01*
X65850000Y100830000D02*
X65850000Y98170000D01*
X73530000Y100830000D02*
X65850000Y100830000D01*
X73530000Y100830000D02*
X73530000Y98170000D01*
X76130000Y100830000D02*
X76130000Y99500000D01*
X74800000Y100830000D02*
X76130000Y100830000D01*
D14*
G04 #@! TO.C,M2*
X88187500Y91750000D02*
X88187500Y98999820D01*
X126437502Y92350001D02*
X126962492Y92350001D01*
X118962503Y97475005D02*
X121587504Y97475005D01*
X88187500Y91750000D02*
X125837501Y91750000D01*
X126962492Y92350001D02*
X127612498Y93000007D01*
X88187500Y98999820D02*
X127612498Y98925342D01*
X125837501Y91750000D02*
X126437502Y92350001D01*
X127612498Y93000007D02*
X127612498Y98925342D01*
D19*
G04 #@! TO.C,V12*
X67970000Y26955000D02*
X67970000Y24295000D01*
X70324373Y24295000D02*
X70630000Y24295000D01*
X68275627Y26955000D02*
X67970000Y26955000D01*
X70630000Y24295000D02*
X70630000Y26955000D01*
X68264462Y24295000D02*
X67970000Y24295000D01*
X70335538Y26955000D02*
X70630000Y26955000D01*
D21*
G04 #@! TO.C,R17*
X9262000Y92475005D02*
X8862000Y92475015D01*
X9263056Y93220840D02*
X8863057Y93220851D01*
D20*
G04 #@! TO.C,R3*
X42562000Y29529000D02*
X42562000Y28513000D01*
X41038000Y28513000D02*
X41038000Y29529000D01*
X41038000Y29529000D02*
X42562000Y29529000D01*
X41038000Y26481000D02*
X41038000Y27497000D01*
X42562000Y27497000D02*
X42562000Y26481000D01*
X42562000Y26481000D02*
X41038000Y26481000D01*
D14*
G04 #@! TO.C,S2*
X73074999Y106654005D02*
X70175000Y106654005D01*
X73074999Y101149997D02*
X70175000Y101149997D01*
X70175000Y106054006D02*
X70175000Y106654005D01*
X70175000Y101149997D02*
X70175000Y101749996D01*
X73074999Y101149997D02*
X73074999Y101749996D01*
X73074999Y106054006D02*
X73074999Y106654005D01*
D23*
X72715013Y103900000D02*
G75*
G03*
X72715013Y103900000I-1090013J0D01*
G01*
D19*
G04 #@! TO.C,V68*
X84025627Y31655000D02*
X83720000Y31655000D01*
X86380000Y28995000D02*
X86380000Y31655000D01*
X86074373Y28995000D02*
X86380000Y28995000D01*
X86085538Y31655000D02*
X86380000Y31655000D01*
X83720000Y31655000D02*
X83720000Y28995000D01*
X84014462Y28995000D02*
X83720000Y28995000D01*
D14*
G04 #@! TO.C,D7*
X15839171Y79149996D02*
X16264172Y79149996D01*
X15751981Y80135000D02*
X16051980Y79895001D01*
X16039166Y78900001D02*
X16039166Y79375002D01*
X12131980Y78114999D02*
X13101979Y78114999D01*
X12131980Y78114999D02*
X12131980Y80135000D01*
X12131980Y80135000D02*
X13101979Y80135000D01*
X14671980Y78114999D02*
X15751981Y78114999D01*
X14671980Y80135000D02*
X15751978Y80135000D01*
X11861976Y78599997D02*
X11861976Y79574994D01*
X15751981Y78114999D02*
X16051980Y78354999D01*
D19*
G04 #@! TO.C,C13*
X135550748Y25544000D02*
X136073252Y25544000D01*
X135550748Y27014000D02*
X136073252Y27014000D01*
G04 #@! TO.C,J3*
X19162000Y85125000D02*
G75*
G03*
X19162000Y85125000I-1200000J0D01*
G01*
D21*
G04 #@! TO.C,R1*
X141205944Y30721323D02*
X141605943Y30721312D01*
X141207000Y31467158D02*
X141607000Y31467148D01*
D19*
G04 #@! TO.C,V48*
X73970000Y26930000D02*
X73970000Y24270000D01*
X76335538Y26930000D02*
X76630000Y26930000D01*
X76324373Y24270000D02*
X76630000Y24270000D01*
X74275627Y26930000D02*
X73970000Y26930000D01*
X76630000Y24270000D02*
X76630000Y26930000D01*
X74264462Y24270000D02*
X73970000Y24270000D01*
D16*
G04 #@! TO.C,D2*
X137907000Y31942163D02*
X137906003Y32338168D01*
X137779003Y32646158D02*
X137779003Y33092163D01*
D17*
X138907000Y32492163D02*
X139107000Y32492163D01*
X139107000Y32492163D02*
X139807000Y32842163D01*
X139807000Y32492163D02*
X140107000Y32492163D01*
D16*
X137907000Y32646158D02*
X137907000Y33092163D01*
D17*
X139107000Y32142163D02*
X139107000Y32842163D01*
D16*
X137779003Y32238163D02*
X137907000Y32238163D01*
X137779003Y31917168D02*
X140707000Y31917168D01*
D17*
X139807000Y32142163D02*
X139807000Y32842163D01*
D16*
X137779003Y31917168D02*
X137779003Y32338168D01*
X137779003Y33092163D02*
X140707001Y33092163D01*
X137779003Y32746163D02*
X137906003Y32746163D01*
D17*
X139107000Y32492163D02*
X139807000Y32142163D01*
D14*
G04 #@! TO.C,D6*
X15751981Y84114999D02*
X16051980Y84354999D01*
X14671980Y84114999D02*
X15751981Y84114999D01*
X12131980Y84114999D02*
X13101979Y84114999D01*
X16039166Y84900001D02*
X16039166Y85375002D01*
X11861976Y84599997D02*
X11861976Y85574994D01*
X15751981Y86135000D02*
X16051980Y85895001D01*
X14671980Y86135000D02*
X15751978Y86135000D01*
X12131980Y84114999D02*
X12131980Y86135000D01*
X15839171Y85149996D02*
X16264172Y85149996D01*
X12131980Y86135000D02*
X13101979Y86135000D01*
D19*
G04 #@! TO.C,V80*
X34600627Y33980000D02*
X34295000Y33980000D01*
X36660538Y33980000D02*
X36955000Y33980000D01*
X36649373Y31320000D02*
X36955000Y31320000D01*
X34295000Y33980000D02*
X34295000Y31320000D01*
X34589462Y31320000D02*
X34295000Y31320000D01*
X36955000Y31320000D02*
X36955000Y33980000D01*
D14*
G04 #@! TO.C,C17*
X86000000Y106350014D02*
X86000000Y107099999D01*
D19*
G04 #@! TO.C,V41*
X44224373Y31320000D02*
X44530000Y31320000D01*
X44235538Y33980000D02*
X44530000Y33980000D01*
X44530000Y31320000D02*
X44530000Y33980000D01*
X41870000Y33980000D02*
X41870000Y31320000D01*
X42175627Y33980000D02*
X41870000Y33980000D01*
X42164462Y31320000D02*
X41870000Y31320000D01*
D16*
G04 #@! TO.C,D1*
X138632005Y31720160D02*
X138632005Y28792163D01*
X138632005Y31720160D02*
X139053005Y31720160D01*
D17*
X138857000Y29692163D02*
X139557000Y29692163D01*
X139207000Y30592163D02*
X139207000Y30392163D01*
D16*
X139807000Y31720160D02*
X139807000Y28792162D01*
X139360995Y31720160D02*
X139807000Y31720160D01*
D17*
X138857000Y30392163D02*
X139557000Y30392163D01*
D16*
X138953000Y31720160D02*
X138953000Y31592163D01*
X139461000Y31720160D02*
X139461000Y31593160D01*
D17*
X139207000Y30392163D02*
X138857000Y29692163D01*
X139207000Y30392163D02*
X139557000Y29692163D01*
X139207000Y29692163D02*
X139207000Y29392163D01*
D16*
X138657000Y31592163D02*
X139053005Y31593160D01*
X139360995Y31592163D02*
X139807000Y31592163D01*
D19*
G04 #@! TO.C,V64*
X83200627Y26905000D02*
X82895000Y26905000D01*
X85555000Y24245000D02*
X85555000Y26905000D01*
X83189462Y24245000D02*
X82895000Y24245000D01*
X85249373Y24245000D02*
X85555000Y24245000D01*
X85260538Y26905000D02*
X85555000Y26905000D01*
X82895000Y26905000D02*
X82895000Y24245000D01*
D14*
G04 #@! TO.C,C4*
X142556986Y33302162D02*
X141807001Y33302162D01*
G04 #@! TO.C,C1*
X137371999Y52728986D02*
X137371999Y51979001D01*
D19*
G04 #@! TO.C,J5*
X19162000Y73125000D02*
G75*
G03*
X19162000Y73125000I-1200000J0D01*
G01*
D21*
G04 #@! TO.C,R7*
X56474995Y40650000D02*
X56474985Y40250000D01*
X55729160Y40651056D02*
X55729149Y40251057D01*
D14*
G04 #@! TO.C,M8*
X77465985Y49162111D02*
X77465985Y58337112D01*
X77465985Y49162111D02*
X77586063Y49042033D01*
X93640984Y42812111D02*
X93640984Y58337112D01*
X83490984Y43911180D02*
X83490984Y48285783D01*
X77586063Y49042033D02*
X82734735Y49042033D01*
X77465985Y58337112D02*
X93640984Y58337112D01*
X83490984Y43911180D02*
X84590052Y42812111D01*
X82734735Y49042033D02*
X83490984Y48285783D01*
X84590052Y42812111D02*
X93640984Y42812111D01*
D16*
G04 #@! TO.C,J1*
X86950000Y105200000D02*
X86950000Y104600000D01*
X79150000Y104600000D02*
X79150000Y105200000D01*
X79150000Y105200000D02*
X86950000Y105200000D01*
X80950000Y100800000D02*
X81950000Y100800000D01*
X86950000Y101100000D02*
X86950000Y101700000D01*
X79150000Y101100000D02*
X86950000Y101100000D01*
X79150000Y101700000D02*
X79150000Y101100000D01*
D19*
G04 #@! TO.C,V56*
X54964462Y31270000D02*
X54670000Y31270000D01*
X57035538Y33930000D02*
X57330000Y33930000D01*
X57024373Y31270000D02*
X57330000Y31270000D01*
X57330000Y31270000D02*
X57330000Y33930000D01*
X54975627Y33930000D02*
X54670000Y33930000D01*
X54670000Y33930000D02*
X54670000Y31270000D01*
D20*
G04 #@! TO.C,R11*
X10238000Y28451000D02*
X10238000Y29467000D01*
X11762000Y28451000D02*
X10238000Y28451000D01*
X10238000Y31499000D02*
X11762000Y31499000D01*
X11762000Y31499000D02*
X11762000Y30483000D01*
X10238000Y30483000D02*
X10238000Y31499000D01*
X11762000Y29467000D02*
X11762000Y28451000D01*
D19*
G04 #@! TO.C,V66*
X81350627Y31680000D02*
X81045000Y31680000D01*
X83705000Y29020000D02*
X83705000Y31680000D01*
X81339462Y29020000D02*
X81045000Y29020000D01*
X81045000Y31680000D02*
X81045000Y29020000D01*
X83399373Y29020000D02*
X83705000Y29020000D01*
X83410538Y31680000D02*
X83705000Y31680000D01*
G04 #@! TD*
D24*
G04 #@! TO.C,P1*
X145348000Y5492000D03*
X18648000Y5492000D03*
X93148000Y5492000D03*
D25*
X142898000Y13292000D03*
X21098000Y13292000D03*
D26*
X25748000Y10492000D03*
X31548000Y10492000D03*
X28648000Y12822000D03*
X25748000Y18622000D03*
X31548000Y18622000D03*
D27*
X85168000Y18622000D03*
X82628000Y18622000D03*
X80088000Y18622000D03*
X77548000Y18622000D03*
X75008000Y18622000D03*
X72468000Y18622000D03*
X69928000Y18622000D03*
X67388000Y18622000D03*
X64848000Y18622000D03*
X62308000Y18622000D03*
X59768000Y18622000D03*
X57228000Y18622000D03*
X54688000Y18622000D03*
X52148000Y18622000D03*
X49608000Y18622000D03*
X47068000Y18622000D03*
X44528000Y18622000D03*
X41988000Y18622000D03*
X39448000Y18622000D03*
X85168000Y16082000D03*
X82628000Y16082000D03*
X80088000Y16082000D03*
X77548000Y16082000D03*
X75008000Y16082000D03*
X72468000Y16082000D03*
X69928000Y16082000D03*
X67388000Y16082000D03*
X64848000Y16082000D03*
X62308000Y16082000D03*
X59768000Y16082000D03*
X57228000Y16082000D03*
X54688000Y16082000D03*
X52148000Y16082000D03*
X49608000Y16082000D03*
X47068000Y16082000D03*
X44528000Y16082000D03*
X41988000Y16082000D03*
X39448000Y16082000D03*
X85168000Y10032000D03*
X82628000Y10032000D03*
X80088000Y10032000D03*
X77548000Y10032000D03*
X75008000Y10032000D03*
X72468000Y10032000D03*
X69928000Y10032000D03*
X67388000Y10032000D03*
X64848000Y10032000D03*
X62308000Y10032000D03*
X59768000Y10032000D03*
X57228000Y10032000D03*
X54688000Y10032000D03*
X52148000Y10032000D03*
X49608000Y10032000D03*
X47068000Y10032000D03*
X44528000Y10032000D03*
X41988000Y10032000D03*
X39448000Y10032000D03*
X85168000Y7492000D03*
X82628000Y7492000D03*
X80088000Y7492000D03*
X77548000Y7492000D03*
X75008000Y7492000D03*
X72468000Y7492000D03*
X69928000Y7492000D03*
X67388000Y7492000D03*
X64848000Y7492000D03*
X62308000Y7492000D03*
X59768000Y7492000D03*
X57228000Y7492000D03*
X54688000Y7492000D03*
X52148000Y7492000D03*
X49608000Y7492000D03*
X47068000Y7492000D03*
X44528000Y7492000D03*
X41988000Y7492000D03*
X39448000Y7492000D03*
X101138000Y7492000D03*
X103678000Y7492000D03*
X106218000Y7492000D03*
X108758000Y7492000D03*
X111298000Y7492000D03*
X113838000Y7492000D03*
X116378000Y7492000D03*
X118918000Y7492000D03*
X101138000Y10032000D03*
X103678000Y10032000D03*
X106218000Y10032000D03*
X108758000Y10032000D03*
X111298000Y10032000D03*
X113838000Y10032000D03*
X116378000Y10032000D03*
X118918000Y10032000D03*
X101138000Y16082000D03*
X103678000Y16082000D03*
X106218000Y16082000D03*
X108758000Y16082000D03*
X111298000Y16082000D03*
X113838000Y16082000D03*
X116378000Y16082000D03*
X118918000Y16082000D03*
X101138000Y18622000D03*
X103678000Y18622000D03*
X106218000Y18622000D03*
X108758000Y18622000D03*
X111298000Y18622000D03*
X113838000Y18622000D03*
X116378000Y18622000D03*
X118918000Y18622000D03*
D26*
X126748000Y10492000D03*
X132548000Y10492000D03*
X138448000Y10492000D03*
X129648000Y12822000D03*
X135548000Y12822000D03*
X126748000Y18622000D03*
X132548000Y18622000D03*
X138448000Y18622000D03*
G04 #@! TD*
D28*
G04 #@! TO.C,R13*
X8700000Y31830000D03*
X8700000Y28020000D03*
G04 #@! TD*
G04 #@! TO.C,R4*
X54600000Y26295000D03*
X54600000Y30105000D03*
G04 #@! TD*
G04 #@! TO.C,R8*
X48350000Y26145000D03*
X48350000Y29955000D03*
G04 #@! TD*
G04 #@! TO.C,F1*
X124075000Y26775000D03*
X124075000Y31675000D03*
G04 #@! TD*
G04 #@! TO.C,R10*
X13300000Y31880000D03*
X13300000Y28070000D03*
G04 #@! TD*
G04 #@! TO.C,R9*
X51600000Y26145000D03*
X51600000Y29955000D03*
G04 #@! TD*
G04 #@! TO.C,R2*
X46325000Y26165000D03*
X46325000Y29975000D03*
G04 #@! TD*
G04 #@! TO.C,R12*
X15600000Y31880021D03*
X15600000Y28070021D03*
G04 #@! TD*
G04 #@! TO.C,F2*
X126975000Y26775000D03*
X126975000Y31675000D03*
G04 #@! TD*
G04 #@! TO.C,R3*
X41800000Y26100000D03*
X41800000Y29910000D03*
G04 #@! TD*
G04 #@! TO.C,R11*
X11000000Y31880000D03*
X11000000Y28070000D03*
G04 #@! TD*
M02*
