G04 #@! TF.GenerationSoftware,KiCad,Pcbnew,(5.99.0-12439-g94954386e6)*
G04 #@! TF.CreationDate,2021-10-12T01:17:31+03:00*
G04 #@! TF.ProjectId,hellen121vag,68656c6c-656e-4313-9231-7661672e6b69,b*
G04 #@! TF.SameCoordinates,PX2b953a0PY6943058*
G04 #@! TF.FileFunction,Soldermask,Top*
G04 #@! TF.FilePolarity,Negative*
%FSLAX46Y46*%
G04 Gerber Fmt 4.6, Leading zero omitted, Abs format (unit mm)*
G04 Created by KiCad (PCBNEW (5.99.0-12439-g94954386e6)) date 2021-10-12 01:17:31*
%MOMM*%
%LPD*%
G01*
G04 APERTURE LIST*
%ADD10C,0.010000*%
%ADD11C,3.700000*%
%ADD12C,2.200000*%
%ADD13C,2.600000*%
%ADD14C,1.500000*%
%ADD15C,1.700000*%
%ADD16C,0.599999*%
%ADD17O,0.499999X0.250000*%
%ADD18O,0.250000X0.499999*%
%ADD19O,0.200000X0.399999*%
%ADD20O,1.000001X1.500000*%
%ADD21O,0.800001X0.599999*%
%ADD22C,1.524000*%
%ADD23R,0.203200X1.524000*%
%ADD24R,1.200000X0.900000*%
%ADD25C,2.000000*%
%ADD26R,0.800000X2.200000*%
%ADD27R,2.032000X5.080000*%
%ADD28R,11.430000X7.620000*%
%ADD29R,3.600000X2.600000*%
%ADD30R,0.900000X1.200000*%
%ADD31R,1.700000X1.700000*%
%ADD32O,1.700000X1.700000*%
%ADD33C,0.600000*%
%ADD34O,1.000001X0.499999*%
%ADD35R,1.100000X1.100000*%
%ADD36C,1.100000*%
%ADD37O,1.100000X2.400000*%
%ADD38O,0.200000X0.499999*%
%ADD39C,0.200000*%
G04 APERTURE END LIST*
D10*
G04 #@! TO.C,U1*
X148402450Y46133763D02*
X148803000Y46133763D01*
X148803000Y46133763D02*
X148803000Y40847843D01*
X148803000Y40847843D02*
X148402450Y40847843D01*
X148402450Y40847843D02*
X148402450Y46133763D01*
G36*
X148803000Y40847843D02*
G01*
X148402450Y40847843D01*
X148402450Y46133763D01*
X148803000Y46133763D01*
X148803000Y40847843D01*
G37*
X148803000Y40847843D02*
X148402450Y40847843D01*
X148402450Y46133763D01*
X148803000Y46133763D01*
X148803000Y40847843D01*
X136598850Y46133763D02*
X137017400Y46133763D01*
X137017400Y46133763D02*
X137017400Y40845303D01*
X137017400Y40845303D02*
X136598850Y40845303D01*
X136598850Y40845303D02*
X136598850Y46133763D01*
G36*
X137017400Y40845303D02*
G01*
X136598850Y40845303D01*
X136598850Y46133763D01*
X137017400Y46133763D01*
X137017400Y40845303D01*
G37*
X137017400Y40845303D02*
X136598850Y40845303D01*
X136598850Y46133763D01*
X137017400Y46133763D01*
X137017400Y40845303D01*
G04 #@! TD*
D11*
G04 #@! TO.C,P1*
X145348000Y5492000D03*
X18648000Y5492000D03*
X93148000Y5492000D03*
D12*
X142898000Y13292000D03*
X21098000Y13292000D03*
D13*
X25748000Y10492000D03*
X31548000Y10492000D03*
X28648000Y12822000D03*
X25748000Y18622000D03*
X31548000Y18622000D03*
D14*
X85168000Y18622000D03*
X82628000Y18622000D03*
X80088000Y18622000D03*
X77548000Y18622000D03*
X75008000Y18622000D03*
X72468000Y18622000D03*
X69928000Y18622000D03*
X67388000Y18622000D03*
X64848000Y18622000D03*
X62308000Y18622000D03*
X59768000Y18622000D03*
X57228000Y18622000D03*
X54688000Y18622000D03*
X52148000Y18622000D03*
X49608000Y18622000D03*
X47068000Y18622000D03*
X44528000Y18622000D03*
X41988000Y18622000D03*
X39448000Y18622000D03*
X85168000Y16082000D03*
X82628000Y16082000D03*
X80088000Y16082000D03*
X77548000Y16082000D03*
X75008000Y16082000D03*
X72468000Y16082000D03*
X69928000Y16082000D03*
X67388000Y16082000D03*
X64848000Y16082000D03*
X62308000Y16082000D03*
X59768000Y16082000D03*
X57228000Y16082000D03*
X54688000Y16082000D03*
X52148000Y16082000D03*
X49608000Y16082000D03*
X47068000Y16082000D03*
X44528000Y16082000D03*
X41988000Y16082000D03*
X39448000Y16082000D03*
X85168000Y10032000D03*
X82628000Y10032000D03*
X80088000Y10032000D03*
X77548000Y10032000D03*
X75008000Y10032000D03*
X72468000Y10032000D03*
X69928000Y10032000D03*
X67388000Y10032000D03*
X64848000Y10032000D03*
X62308000Y10032000D03*
X59768000Y10032000D03*
X57228000Y10032000D03*
X54688000Y10032000D03*
X52148000Y10032000D03*
X49608000Y10032000D03*
X47068000Y10032000D03*
X44528000Y10032000D03*
X41988000Y10032000D03*
X39448000Y10032000D03*
X85168000Y7492000D03*
X82628000Y7492000D03*
X80088000Y7492000D03*
X77548000Y7492000D03*
X75008000Y7492000D03*
X72468000Y7492000D03*
X69928000Y7492000D03*
X67388000Y7492000D03*
X64848000Y7492000D03*
X62308000Y7492000D03*
X59768000Y7492000D03*
X57228000Y7492000D03*
X54688000Y7492000D03*
X52148000Y7492000D03*
X49608000Y7492000D03*
X47068000Y7492000D03*
X44528000Y7492000D03*
X41988000Y7492000D03*
X39448000Y7492000D03*
X101138000Y7492000D03*
X103678000Y7492000D03*
X106218000Y7492000D03*
X108758000Y7492000D03*
X111298000Y7492000D03*
X113838000Y7492000D03*
X116378000Y7492000D03*
X118918000Y7492000D03*
X101138000Y10032000D03*
X103678000Y10032000D03*
X106218000Y10032000D03*
X108758000Y10032000D03*
X111298000Y10032000D03*
X113838000Y10032000D03*
X116378000Y10032000D03*
X118918000Y10032000D03*
X101138000Y16082000D03*
X103678000Y16082000D03*
X106218000Y16082000D03*
X108758000Y16082000D03*
X111298000Y16082000D03*
X113838000Y16082000D03*
X116378000Y16082000D03*
X118918000Y16082000D03*
X101138000Y18622000D03*
X103678000Y18622000D03*
X106218000Y18622000D03*
X108758000Y18622000D03*
X111298000Y18622000D03*
X113838000Y18622000D03*
X116378000Y18622000D03*
X118918000Y18622000D03*
D13*
X126748000Y10492000D03*
X132548000Y10492000D03*
X138448000Y10492000D03*
X129648000Y12822000D03*
X135548000Y12822000D03*
X126748000Y18622000D03*
X132548000Y18622000D03*
X138448000Y18622000D03*
G04 #@! TD*
G04 #@! TO.C,M3*
G36*
G01*
X75642499Y59646377D02*
X75642499Y59196377D01*
G75*
G02*
X75517499Y59071377I-125000J0D01*
G01*
X75517499Y59071377D01*
G75*
G02*
X75392499Y59196377I0J125000D01*
G01*
X75392499Y59646377D01*
G75*
G02*
X75517499Y59771377I125000J0D01*
G01*
X75517499Y59771377D01*
G75*
G02*
X75642499Y59646377I0J-125000D01*
G01*
G37*
G04 #@! TD*
G04 #@! TO.C,U3*
G36*
G01*
X34145000Y64850000D02*
X33845000Y64850000D01*
G75*
G02*
X33695000Y65000000I0J150000D01*
G01*
X33695000Y66650000D01*
G75*
G02*
X33845000Y66800000I150000J0D01*
G01*
X34145000Y66800000D01*
G75*
G02*
X34295000Y66650000I0J-150000D01*
G01*
X34295000Y65000000D01*
G75*
G02*
X34145000Y64850000I-150000J0D01*
G01*
G37*
G36*
G01*
X35415000Y64850000D02*
X35115000Y64850000D01*
G75*
G02*
X34965000Y65000000I0J150000D01*
G01*
X34965000Y66650000D01*
G75*
G02*
X35115000Y66800000I150000J0D01*
G01*
X35415000Y66800000D01*
G75*
G02*
X35565000Y66650000I0J-150000D01*
G01*
X35565000Y65000000D01*
G75*
G02*
X35415000Y64850000I-150000J0D01*
G01*
G37*
G36*
G01*
X36685000Y64850000D02*
X36385000Y64850000D01*
G75*
G02*
X36235000Y65000000I0J150000D01*
G01*
X36235000Y66650000D01*
G75*
G02*
X36385000Y66800000I150000J0D01*
G01*
X36685000Y66800000D01*
G75*
G02*
X36835000Y66650000I0J-150000D01*
G01*
X36835000Y65000000D01*
G75*
G02*
X36685000Y64850000I-150000J0D01*
G01*
G37*
G36*
G01*
X37955000Y64850000D02*
X37655000Y64850000D01*
G75*
G02*
X37505000Y65000000I0J150000D01*
G01*
X37505000Y66650000D01*
G75*
G02*
X37655000Y66800000I150000J0D01*
G01*
X37955000Y66800000D01*
G75*
G02*
X38105000Y66650000I0J-150000D01*
G01*
X38105000Y65000000D01*
G75*
G02*
X37955000Y64850000I-150000J0D01*
G01*
G37*
G36*
G01*
X37955000Y69800000D02*
X37655000Y69800000D01*
G75*
G02*
X37505000Y69950000I0J150000D01*
G01*
X37505000Y71600000D01*
G75*
G02*
X37655000Y71750000I150000J0D01*
G01*
X37955000Y71750000D01*
G75*
G02*
X38105000Y71600000I0J-150000D01*
G01*
X38105000Y69950000D01*
G75*
G02*
X37955000Y69800000I-150000J0D01*
G01*
G37*
G36*
G01*
X36685000Y69800000D02*
X36385000Y69800000D01*
G75*
G02*
X36235000Y69950000I0J150000D01*
G01*
X36235000Y71600000D01*
G75*
G02*
X36385000Y71750000I150000J0D01*
G01*
X36685000Y71750000D01*
G75*
G02*
X36835000Y71600000I0J-150000D01*
G01*
X36835000Y69950000D01*
G75*
G02*
X36685000Y69800000I-150000J0D01*
G01*
G37*
G36*
G01*
X35415000Y69800000D02*
X35115000Y69800000D01*
G75*
G02*
X34965000Y69950000I0J150000D01*
G01*
X34965000Y71600000D01*
G75*
G02*
X35115000Y71750000I150000J0D01*
G01*
X35415000Y71750000D01*
G75*
G02*
X35565000Y71600000I0J-150000D01*
G01*
X35565000Y69950000D01*
G75*
G02*
X35415000Y69800000I-150000J0D01*
G01*
G37*
G36*
G01*
X34145000Y69800000D02*
X33845000Y69800000D01*
G75*
G02*
X33695000Y69950000I0J150000D01*
G01*
X33695000Y71600000D01*
G75*
G02*
X33845000Y71750000I150000J0D01*
G01*
X34145000Y71750000D01*
G75*
G02*
X34295000Y71600000I0J-150000D01*
G01*
X34295000Y69950000D01*
G75*
G02*
X34145000Y69800000I-150000J0D01*
G01*
G37*
G04 #@! TD*
D15*
G04 #@! TO.C,P2*
X44450000Y41550000D03*
G04 #@! TD*
G04 #@! TO.C,R22*
G36*
G01*
X143450000Y58565000D02*
X143450000Y57785000D01*
G75*
G02*
X143380000Y57715000I-70000J0D01*
G01*
X142820000Y57715000D01*
G75*
G02*
X142750000Y57785000I0J70000D01*
G01*
X142750000Y58565000D01*
G75*
G02*
X142820000Y58635000I70000J0D01*
G01*
X143380000Y58635000D01*
G75*
G02*
X143450000Y58565000I0J-70000D01*
G01*
G37*
G36*
G01*
X141850000Y58565000D02*
X141850000Y57785000D01*
G75*
G02*
X141780000Y57715000I-70000J0D01*
G01*
X141220000Y57715000D01*
G75*
G02*
X141150000Y57785000I0J70000D01*
G01*
X141150000Y58565000D01*
G75*
G02*
X141220000Y58635000I70000J0D01*
G01*
X141780000Y58635000D01*
G75*
G02*
X141850000Y58565000I0J-70000D01*
G01*
G37*
G04 #@! TD*
G04 #@! TO.C,C15*
G36*
G01*
X51360000Y106915001D02*
X52040000Y106915001D01*
G75*
G02*
X52125000Y106830001I0J-85000D01*
G01*
X52125000Y106150001D01*
G75*
G02*
X52040000Y106065001I-85000J0D01*
G01*
X51360000Y106065001D01*
G75*
G02*
X51275000Y106150001I0J85000D01*
G01*
X51275000Y106830001D01*
G75*
G02*
X51360000Y106915001I85000J0D01*
G01*
G37*
G36*
G01*
X51360000Y105334999D02*
X52040000Y105334999D01*
G75*
G02*
X52125000Y105249999I0J-85000D01*
G01*
X52125000Y104569999D01*
G75*
G02*
X52040000Y104484999I-85000J0D01*
G01*
X51360000Y104484999D01*
G75*
G02*
X51275000Y104569999I0J85000D01*
G01*
X51275000Y105249999D01*
G75*
G02*
X51360000Y105334999I85000J0D01*
G01*
G37*
G04 #@! TD*
G04 #@! TO.C,C6*
G36*
G01*
X77540000Y99584999D02*
X76860000Y99584999D01*
G75*
G02*
X76775000Y99669999I0J85000D01*
G01*
X76775000Y100349999D01*
G75*
G02*
X76860000Y100434999I85000J0D01*
G01*
X77540000Y100434999D01*
G75*
G02*
X77625000Y100349999I0J-85000D01*
G01*
X77625000Y99669999D01*
G75*
G02*
X77540000Y99584999I-85000J0D01*
G01*
G37*
G36*
G01*
X77540000Y101165001D02*
X76860000Y101165001D01*
G75*
G02*
X76775000Y101250001I0J85000D01*
G01*
X76775000Y101930001D01*
G75*
G02*
X76860000Y102015001I85000J0D01*
G01*
X77540000Y102015001D01*
G75*
G02*
X77625000Y101930001I0J-85000D01*
G01*
X77625000Y101250001D01*
G75*
G02*
X77540000Y101165001I-85000J0D01*
G01*
G37*
G04 #@! TD*
D16*
G04 #@! TO.C,M11*
X96809400Y36036600D03*
X96809400Y28536600D03*
X96809400Y27736600D03*
X96809400Y26936600D03*
X114334400Y34136600D03*
X114334400Y35136600D03*
G04 #@! TD*
D15*
G04 #@! TO.C,G5*
X149860000Y73050000D03*
X149860000Y75590000D03*
X149860000Y78130000D03*
X149860000Y80670000D03*
X149860000Y83210000D03*
X152400000Y73050000D03*
X152400000Y75590000D03*
X152400000Y78130000D03*
X152400000Y80670000D03*
X152400000Y83210000D03*
X154940000Y73050000D03*
X154940000Y75590000D03*
X154940000Y78130000D03*
X154940000Y80670000D03*
X154940000Y83210000D03*
G04 #@! TD*
D17*
G04 #@! TO.C,M1*
X50537495Y97531666D03*
D18*
X40187501Y97581664D03*
X40687502Y97581664D03*
D16*
X47237499Y98631662D03*
X46362497Y99156662D03*
X47537501Y99906660D03*
X47462498Y103456661D03*
G04 #@! TD*
D15*
G04 #@! TO.C,P17*
X57200000Y28275000D03*
G04 #@! TD*
D19*
G04 #@! TO.C,M7*
X34517335Y83814583D03*
X33757356Y83814583D03*
X32582363Y83814583D03*
X31407376Y83814583D03*
X30567464Y83814583D03*
X29817392Y83814583D03*
X28642381Y83814583D03*
X27467384Y83814583D03*
D16*
X32507387Y93914190D03*
X34342397Y93489182D03*
X32292389Y92939185D03*
X32507384Y92064226D03*
X32582391Y91214203D03*
X34342397Y90889187D03*
X33032397Y89589220D03*
X34342397Y88939203D03*
X28417382Y96114206D03*
X32492388Y95814204D03*
G04 #@! TD*
D20*
G04 #@! TO.C,M6*
X120232431Y44851221D03*
X118976566Y44851221D03*
X104601540Y44851221D03*
D21*
X95546542Y48347505D03*
G04 #@! TD*
D15*
G04 #@! TO.C,P5*
X50675000Y41525000D03*
G04 #@! TD*
G04 #@! TO.C,P61*
X40675000Y32675000D03*
G04 #@! TD*
G04 #@! TO.C,P44*
X76744800Y30212600D03*
G04 #@! TD*
G04 #@! TO.C,P16*
X66568000Y39280400D03*
G04 #@! TD*
G04 #@! TO.C,D8*
G36*
G01*
X14312000Y90505000D02*
X14312000Y91745000D01*
G75*
G02*
X14442000Y91875000I130000J0D01*
G01*
X15482000Y91875000D01*
G75*
G02*
X15612000Y91745000I0J-130000D01*
G01*
X15612000Y90505000D01*
G75*
G02*
X15482000Y90375000I-130000J0D01*
G01*
X14442000Y90375000D01*
G75*
G02*
X14312000Y90505000I0J130000D01*
G01*
G37*
G36*
G01*
X12411979Y90505000D02*
X12411979Y91745000D01*
G75*
G02*
X12541979Y91875000I130000J0D01*
G01*
X13581979Y91875000D01*
G75*
G02*
X13711979Y91745000I0J-130000D01*
G01*
X13711979Y90505000D01*
G75*
G02*
X13581979Y90375000I-130000J0D01*
G01*
X12541979Y90375000D01*
G75*
G02*
X12411979Y90505000I0J130000D01*
G01*
G37*
G04 #@! TD*
G04 #@! TO.C,P6*
X116936200Y34225800D03*
G04 #@! TD*
G04 #@! TO.C,P66*
X79419800Y30212600D03*
G04 #@! TD*
G04 #@! TO.C,P12*
X69300000Y25625000D03*
G04 #@! TD*
G04 #@! TO.C,P13*
X66575000Y25550000D03*
G04 #@! TD*
G04 #@! TO.C,R13*
G36*
G01*
X8075000Y31375001D02*
X9325000Y31375001D01*
G75*
G02*
X9425000Y31275001I0J-100000D01*
G01*
X9425000Y30475001D01*
G75*
G02*
X9325000Y30375001I-100000J0D01*
G01*
X8075000Y30375001D01*
G75*
G02*
X7975000Y30475001I0J100000D01*
G01*
X7975000Y31275001D01*
G75*
G02*
X8075000Y31375001I100000J0D01*
G01*
G37*
D22*
X8700000Y31830000D03*
G36*
G01*
X8075000Y29474979D02*
X9325000Y29474979D01*
G75*
G02*
X9425000Y29374979I0J-100000D01*
G01*
X9425000Y28574979D01*
G75*
G02*
X9325000Y28474979I-100000J0D01*
G01*
X8075000Y28474979D01*
G75*
G02*
X7975000Y28574979I0J100000D01*
G01*
X7975000Y29374979D01*
G75*
G02*
X8075000Y29474979I100000J0D01*
G01*
G37*
X8700000Y28020000D03*
G04 #@! TD*
D15*
G04 #@! TO.C,G2*
X149860000Y86360000D03*
X149860000Y88900000D03*
X149860000Y91440000D03*
X149860000Y93980000D03*
X149860000Y96520000D03*
X152400000Y86360000D03*
X152400000Y88900000D03*
X152400000Y91440000D03*
X152400000Y93980000D03*
X152400000Y96520000D03*
X154940000Y86360000D03*
X154940000Y88900000D03*
X154940000Y91440000D03*
X154940000Y93980000D03*
X154940000Y96520000D03*
G04 #@! TD*
D22*
G04 #@! TO.C,R4*
X54600000Y26295000D03*
G36*
G01*
X55225000Y26749999D02*
X53975000Y26749999D01*
G75*
G02*
X53875000Y26849999I0J100000D01*
G01*
X53875000Y27649999D01*
G75*
G02*
X53975000Y27749999I100000J0D01*
G01*
X55225000Y27749999D01*
G75*
G02*
X55325000Y27649999I0J-100000D01*
G01*
X55325000Y26849999D01*
G75*
G02*
X55225000Y26749999I-100000J0D01*
G01*
G37*
X54600000Y30105000D03*
G36*
G01*
X55225000Y28650021D02*
X53975000Y28650021D01*
G75*
G02*
X53875000Y28750021I0J100000D01*
G01*
X53875000Y29550021D01*
G75*
G02*
X53975000Y29650021I100000J0D01*
G01*
X55225000Y29650021D01*
G75*
G02*
X55325000Y29550021I0J-100000D01*
G01*
X55325000Y28750021D01*
G75*
G02*
X55225000Y28650021I-100000J0D01*
G01*
G37*
G04 #@! TD*
D15*
G04 #@! TO.C,P63*
X86775000Y25575000D03*
G04 #@! TD*
G04 #@! TO.C,P4*
X53500000Y41525000D03*
G04 #@! TD*
G04 #@! TO.C,R16*
G36*
G01*
X10212000Y95790000D02*
X10212000Y95010000D01*
G75*
G02*
X10142000Y94940000I-70000J0D01*
G01*
X9582000Y94940000D01*
G75*
G02*
X9512000Y95010000I0J70000D01*
G01*
X9512000Y95790000D01*
G75*
G02*
X9582000Y95860000I70000J0D01*
G01*
X10142000Y95860000D01*
G75*
G02*
X10212000Y95790000I0J-70000D01*
G01*
G37*
G36*
G01*
X8612000Y95790000D02*
X8612000Y95010000D01*
G75*
G02*
X8542000Y94940000I-70000J0D01*
G01*
X7982000Y94940000D01*
G75*
G02*
X7912000Y95010000I0J70000D01*
G01*
X7912000Y95790000D01*
G75*
G02*
X7982000Y95860000I70000J0D01*
G01*
X8542000Y95860000D01*
G75*
G02*
X8612000Y95790000I0J-70000D01*
G01*
G37*
G04 #@! TD*
G04 #@! TO.C,C5*
G36*
G01*
X145122001Y53932163D02*
X145122001Y53252163D01*
G75*
G02*
X145037001Y53167163I-85000J0D01*
G01*
X144357001Y53167163D01*
G75*
G02*
X144272001Y53252163I0J85000D01*
G01*
X144272001Y53932163D01*
G75*
G02*
X144357001Y54017163I85000J0D01*
G01*
X145037001Y54017163D01*
G75*
G02*
X145122001Y53932163I0J-85000D01*
G01*
G37*
G36*
G01*
X143541999Y53932163D02*
X143541999Y53252163D01*
G75*
G02*
X143456999Y53167163I-85000J0D01*
G01*
X142776999Y53167163D01*
G75*
G02*
X142691999Y53252163I0J85000D01*
G01*
X142691999Y53932163D01*
G75*
G02*
X142776999Y54017163I85000J0D01*
G01*
X143456999Y54017163D01*
G75*
G02*
X143541999Y53932163I0J-85000D01*
G01*
G37*
G04 #@! TD*
G04 #@! TO.C,C11*
G36*
G01*
X134362000Y30900000D02*
X134362000Y31850000D01*
G75*
G02*
X134612000Y32100000I250000J0D01*
G01*
X135112000Y32100000D01*
G75*
G02*
X135362000Y31850000I0J-250000D01*
G01*
X135362000Y30900000D01*
G75*
G02*
X135112000Y30650000I-250000J0D01*
G01*
X134612000Y30650000D01*
G75*
G02*
X134362000Y30900000I0J250000D01*
G01*
G37*
G36*
G01*
X136262000Y30900000D02*
X136262000Y31850000D01*
G75*
G02*
X136512000Y32100000I250000J0D01*
G01*
X137012000Y32100000D01*
G75*
G02*
X137262000Y31850000I0J-250000D01*
G01*
X137262000Y30900000D01*
G75*
G02*
X137012000Y30650000I-250000J0D01*
G01*
X136512000Y30650000D01*
G75*
G02*
X136262000Y30900000I0J250000D01*
G01*
G37*
G04 #@! TD*
D18*
G04 #@! TO.C,M5*
X35362524Y61926574D03*
X36237524Y61926574D03*
X36937525Y61926574D03*
X37387524Y44101576D03*
X34987521Y44101576D03*
G04 #@! TD*
D15*
G04 #@! TO.C,P28*
X74094800Y30212600D03*
G04 #@! TD*
G04 #@! TO.C,P74*
X45925000Y32675000D03*
G04 #@! TD*
G04 #@! TO.C,R8*
G36*
G01*
X47725000Y29500001D02*
X48975000Y29500001D01*
G75*
G02*
X49075000Y29400001I0J-100000D01*
G01*
X49075000Y28600001D01*
G75*
G02*
X48975000Y28500001I-100000J0D01*
G01*
X47725000Y28500001D01*
G75*
G02*
X47625000Y28600001I0J100000D01*
G01*
X47625000Y29400001D01*
G75*
G02*
X47725000Y29500001I100000J0D01*
G01*
G37*
D22*
X48350000Y29955000D03*
X48350000Y26145000D03*
G36*
G01*
X47725000Y27599979D02*
X48975000Y27599979D01*
G75*
G02*
X49075000Y27499979I0J-100000D01*
G01*
X49075000Y26699979D01*
G75*
G02*
X48975000Y26599979I-100000J0D01*
G01*
X47725000Y26599979D01*
G75*
G02*
X47625000Y26699979I0J100000D01*
G01*
X47625000Y27499979D01*
G75*
G02*
X47725000Y27599979I100000J0D01*
G01*
G37*
G04 #@! TD*
D23*
G04 #@! TO.C,F1*
X124075000Y27250000D03*
G36*
G01*
X124975000Y28119990D02*
X124975000Y27429990D01*
G75*
G02*
X124745000Y27199990I-230000J0D01*
G01*
X123405000Y27199990D01*
G75*
G02*
X123175000Y27429990I0J230000D01*
G01*
X123175000Y28119990D01*
G75*
G02*
X123405000Y28349990I230000J0D01*
G01*
X124745000Y28349990D01*
G75*
G02*
X124975000Y28119990I0J-230000D01*
G01*
G37*
D22*
X124075000Y26775000D03*
X124075000Y31675000D03*
G36*
G01*
X124975000Y31020010D02*
X124975000Y30330010D01*
G75*
G02*
X124745000Y30100010I-230000J0D01*
G01*
X123405000Y30100010D01*
G75*
G02*
X123175000Y30330010I0J230000D01*
G01*
X123175000Y31020010D01*
G75*
G02*
X123405000Y31250010I230000J0D01*
G01*
X124745000Y31250010D01*
G75*
G02*
X124975000Y31020010I0J-230000D01*
G01*
G37*
D23*
X124075000Y31250010D03*
G04 #@! TD*
D24*
G04 #@! TO.C,D10*
X122016200Y38951200D03*
X122016200Y42251200D03*
G04 #@! TD*
D25*
G04 #@! TO.C,J2*
X17962000Y91125000D03*
G04 #@! TD*
D26*
G04 #@! TO.C,U1*
X136992000Y36892163D03*
X138262000Y36892163D03*
X139532000Y36892163D03*
X140802000Y36892163D03*
X142072000Y36892163D03*
X143342000Y36892163D03*
X144612000Y36892163D03*
X145882000Y36892163D03*
X147152000Y36892163D03*
X148422000Y36892163D03*
X148422000Y50092163D03*
X147152000Y50092163D03*
X145882000Y50092163D03*
X144612000Y50092163D03*
X143342000Y50092163D03*
X142072000Y50092163D03*
X140802000Y50092163D03*
X139532000Y50092163D03*
X138262000Y50092163D03*
X136992000Y50092163D03*
D27*
X135595000Y43492163D03*
D28*
X142707000Y43492163D03*
D27*
X149819000Y43492163D03*
G04 #@! TD*
G04 #@! TO.C,R21*
G36*
G01*
X10212000Y81240000D02*
X10212000Y80460000D01*
G75*
G02*
X10142000Y80390000I-70000J0D01*
G01*
X9582000Y80390000D01*
G75*
G02*
X9512000Y80460000I0J70000D01*
G01*
X9512000Y81240000D01*
G75*
G02*
X9582000Y81310000I70000J0D01*
G01*
X10142000Y81310000D01*
G75*
G02*
X10212000Y81240000I0J-70000D01*
G01*
G37*
G36*
G01*
X8612000Y81240000D02*
X8612000Y80460000D01*
G75*
G02*
X8542000Y80390000I-70000J0D01*
G01*
X7982000Y80390000D01*
G75*
G02*
X7912000Y80460000I0J70000D01*
G01*
X7912000Y81240000D01*
G75*
G02*
X7982000Y81310000I70000J0D01*
G01*
X8542000Y81310000D01*
G75*
G02*
X8612000Y81240000I0J-70000D01*
G01*
G37*
G04 #@! TD*
D17*
G04 #@! TO.C,M10*
X20725007Y74749997D03*
D18*
X31075001Y74699999D03*
X30575000Y74699999D03*
D16*
X24025003Y73650001D03*
X24900005Y73125001D03*
X23725001Y72375003D03*
X23800004Y68825002D03*
G04 #@! TD*
G04 #@! TO.C,D4*
G36*
G01*
X14312000Y96505000D02*
X14312000Y97745000D01*
G75*
G02*
X14442000Y97875000I130000J0D01*
G01*
X15482000Y97875000D01*
G75*
G02*
X15612000Y97745000I0J-130000D01*
G01*
X15612000Y96505000D01*
G75*
G02*
X15482000Y96375000I-130000J0D01*
G01*
X14442000Y96375000D01*
G75*
G02*
X14312000Y96505000I0J130000D01*
G01*
G37*
G36*
G01*
X12411979Y96505000D02*
X12411979Y97745000D01*
G75*
G02*
X12541979Y97875000I130000J0D01*
G01*
X13581979Y97875000D01*
G75*
G02*
X13711979Y97745000I0J-130000D01*
G01*
X13711979Y96505000D01*
G75*
G02*
X13581979Y96375000I-130000J0D01*
G01*
X12541979Y96375000D01*
G75*
G02*
X12411979Y96505000I0J130000D01*
G01*
G37*
G04 #@! TD*
G04 #@! TO.C,C16*
G36*
G01*
X36015001Y73440000D02*
X36015001Y72760000D01*
G75*
G02*
X35930001Y72675000I-85000J0D01*
G01*
X35250001Y72675000D01*
G75*
G02*
X35165001Y72760000I0J85000D01*
G01*
X35165001Y73440000D01*
G75*
G02*
X35250001Y73525000I85000J0D01*
G01*
X35930001Y73525000D01*
G75*
G02*
X36015001Y73440000I0J-85000D01*
G01*
G37*
G36*
G01*
X34434999Y73440000D02*
X34434999Y72760000D01*
G75*
G02*
X34349999Y72675000I-85000J0D01*
G01*
X33669999Y72675000D01*
G75*
G02*
X33584999Y72760000I0J85000D01*
G01*
X33584999Y73440000D01*
G75*
G02*
X33669999Y73525000I85000J0D01*
G01*
X34349999Y73525000D01*
G75*
G02*
X34434999Y73440000I0J-85000D01*
G01*
G37*
G04 #@! TD*
G04 #@! TO.C,S1*
G36*
G01*
X60542000Y106400001D02*
X62382000Y106400001D01*
G75*
G02*
X62462000Y106320001I0J-80000D01*
G01*
X62462000Y105680001D01*
G75*
G02*
X62382000Y105600001I-80000J0D01*
G01*
X60542000Y105600001D01*
G75*
G02*
X60462000Y105680001I0J80000D01*
G01*
X60462000Y106320001D01*
G75*
G02*
X60542000Y106400001I80000J0D01*
G01*
G37*
G36*
G01*
X60542000Y102200000D02*
X62382000Y102200000D01*
G75*
G02*
X62462000Y102120000I0J-80000D01*
G01*
X62462000Y101480000D01*
G75*
G02*
X62382000Y101400000I-80000J0D01*
G01*
X60542000Y101400000D01*
G75*
G02*
X60462000Y101480000I0J80000D01*
G01*
X60462000Y102120000D01*
G75*
G02*
X60542000Y102200000I80000J0D01*
G01*
G37*
G04 #@! TD*
D15*
G04 #@! TO.C,P67*
X82112800Y30212600D03*
G04 #@! TD*
D29*
G04 #@! TO.C,BT1*
X134600000Y92700000D03*
X134600000Y63400000D03*
G04 #@! TD*
D15*
G04 #@! TO.C,P9*
X71444800Y30212600D03*
G04 #@! TD*
G04 #@! TO.C,R5*
G36*
G01*
X142717000Y56942163D02*
X143497000Y56942163D01*
G75*
G02*
X143567000Y56872163I0J-70000D01*
G01*
X143567000Y56312163D01*
G75*
G02*
X143497000Y56242163I-70000J0D01*
G01*
X142717000Y56242163D01*
G75*
G02*
X142647000Y56312163I0J70000D01*
G01*
X142647000Y56872163D01*
G75*
G02*
X142717000Y56942163I70000J0D01*
G01*
G37*
G36*
G01*
X142717000Y55342163D02*
X143497000Y55342163D01*
G75*
G02*
X143567000Y55272163I0J-70000D01*
G01*
X143567000Y54712163D01*
G75*
G02*
X143497000Y54642163I-70000J0D01*
G01*
X142717000Y54642163D01*
G75*
G02*
X142647000Y54712163I0J70000D01*
G01*
X142647000Y55272163D01*
G75*
G02*
X142717000Y55342163I70000J0D01*
G01*
G37*
G04 #@! TD*
G04 #@! TO.C,P7*
X90500000Y40325000D03*
G04 #@! TD*
G04 #@! TO.C,U2*
G36*
G01*
X54200000Y104300000D02*
X54000000Y104300000D01*
G75*
G02*
X53900000Y104400000I0J100000D01*
G01*
X53900000Y104750000D01*
G75*
G02*
X54000000Y104850000I100000J0D01*
G01*
X54200000Y104850000D01*
G75*
G02*
X54300000Y104750000I0J-100000D01*
G01*
X54300000Y104400000D01*
G75*
G02*
X54200000Y104300000I-100000J0D01*
G01*
G37*
G36*
G01*
X54800000Y104300000D02*
X54600000Y104300000D01*
G75*
G02*
X54500000Y104400000I0J100000D01*
G01*
X54500000Y104750000D01*
G75*
G02*
X54600000Y104850000I100000J0D01*
G01*
X54800000Y104850000D01*
G75*
G02*
X54900000Y104750000I0J-100000D01*
G01*
X54900000Y104400000D01*
G75*
G02*
X54800000Y104300000I-100000J0D01*
G01*
G37*
G36*
G01*
X55500000Y104700000D02*
X55150000Y104700000D01*
G75*
G02*
X55050000Y104800000I0J100000D01*
G01*
X55050000Y105000000D01*
G75*
G02*
X55150000Y105100000I100000J0D01*
G01*
X55500000Y105100000D01*
G75*
G02*
X55600000Y105000000I0J-100000D01*
G01*
X55600000Y104800000D01*
G75*
G02*
X55500000Y104700000I-100000J0D01*
G01*
G37*
G36*
G01*
X55500000Y105300000D02*
X55150000Y105300000D01*
G75*
G02*
X55050000Y105400000I0J100000D01*
G01*
X55050000Y105600000D01*
G75*
G02*
X55150000Y105700000I100000J0D01*
G01*
X55500000Y105700000D01*
G75*
G02*
X55600000Y105600000I0J-100000D01*
G01*
X55600000Y105400000D01*
G75*
G02*
X55500000Y105300000I-100000J0D01*
G01*
G37*
G36*
G01*
X55500000Y105900000D02*
X55150000Y105900000D01*
G75*
G02*
X55050000Y106000000I0J100000D01*
G01*
X55050000Y106200000D01*
G75*
G02*
X55150000Y106300000I100000J0D01*
G01*
X55500000Y106300000D01*
G75*
G02*
X55600000Y106200000I0J-100000D01*
G01*
X55600000Y106000000D01*
G75*
G02*
X55500000Y105900000I-100000J0D01*
G01*
G37*
G36*
G01*
X54800000Y106150000D02*
X54600000Y106150000D01*
G75*
G02*
X54500000Y106250000I0J100000D01*
G01*
X54500000Y106600000D01*
G75*
G02*
X54600000Y106700000I100000J0D01*
G01*
X54800000Y106700000D01*
G75*
G02*
X54900000Y106600000I0J-100000D01*
G01*
X54900000Y106250000D01*
G75*
G02*
X54800000Y106150000I-100000J0D01*
G01*
G37*
G36*
G01*
X54200000Y106150000D02*
X54000000Y106150000D01*
G75*
G02*
X53900000Y106250000I0J100000D01*
G01*
X53900000Y106600000D01*
G75*
G02*
X54000000Y106700000I100000J0D01*
G01*
X54200000Y106700000D01*
G75*
G02*
X54300000Y106600000I0J-100000D01*
G01*
X54300000Y106250000D01*
G75*
G02*
X54200000Y106150000I-100000J0D01*
G01*
G37*
G36*
G01*
X53650000Y105900000D02*
X53300000Y105900000D01*
G75*
G02*
X53200000Y106000000I0J100000D01*
G01*
X53200000Y106200000D01*
G75*
G02*
X53300000Y106300000I100000J0D01*
G01*
X53650000Y106300000D01*
G75*
G02*
X53750000Y106200000I0J-100000D01*
G01*
X53750000Y106000000D01*
G75*
G02*
X53650000Y105900000I-100000J0D01*
G01*
G37*
G36*
G01*
X53650000Y105300000D02*
X53300000Y105300000D01*
G75*
G02*
X53200000Y105400000I0J100000D01*
G01*
X53200000Y105600000D01*
G75*
G02*
X53300000Y105700000I100000J0D01*
G01*
X53650000Y105700000D01*
G75*
G02*
X53750000Y105600000I0J-100000D01*
G01*
X53750000Y105400000D01*
G75*
G02*
X53650000Y105300000I-100000J0D01*
G01*
G37*
G36*
G01*
X53650000Y104700000D02*
X53300000Y104700000D01*
G75*
G02*
X53200000Y104800000I0J100000D01*
G01*
X53200000Y105000000D01*
G75*
G02*
X53300000Y105100000I100000J0D01*
G01*
X53650000Y105100000D01*
G75*
G02*
X53750000Y105000000I0J-100000D01*
G01*
X53750000Y104800000D01*
G75*
G02*
X53650000Y104700000I-100000J0D01*
G01*
G37*
G04 #@! TD*
G04 #@! TO.C,D5*
G36*
G01*
X15302000Y92825000D02*
X14822000Y92825000D01*
G75*
G02*
X14762000Y92885000I0J60000D01*
G01*
X14762000Y93365000D01*
G75*
G02*
X14822000Y93425000I60000J0D01*
G01*
X15302000Y93425000D01*
G75*
G02*
X15362000Y93365000I0J-60000D01*
G01*
X15362000Y92885000D01*
G75*
G02*
X15302000Y92825000I-60000J0D01*
G01*
G37*
G36*
G01*
X13102000Y92825000D02*
X12622000Y92825000D01*
G75*
G02*
X12562000Y92885000I0J60000D01*
G01*
X12562000Y93365000D01*
G75*
G02*
X12622000Y93425000I60000J0D01*
G01*
X13102000Y93425000D01*
G75*
G02*
X13162000Y93365000I0J-60000D01*
G01*
X13162000Y92885000D01*
G75*
G02*
X13102000Y92825000I-60000J0D01*
G01*
G37*
G04 #@! TD*
G04 #@! TO.C,P49*
X72625000Y25575000D03*
G04 #@! TD*
G04 #@! TO.C,R18*
G36*
G01*
X53274986Y101550001D02*
X53274986Y102330001D01*
G75*
G02*
X53344986Y102400001I70000J0D01*
G01*
X53904986Y102400001D01*
G75*
G02*
X53974986Y102330001I0J-70000D01*
G01*
X53974986Y101550001D01*
G75*
G02*
X53904986Y101480001I-70000J0D01*
G01*
X53344986Y101480001D01*
G75*
G02*
X53274986Y101550001I0J70000D01*
G01*
G37*
G36*
G01*
X54874986Y101550001D02*
X54874986Y102330001D01*
G75*
G02*
X54944986Y102400001I70000J0D01*
G01*
X55504986Y102400001D01*
G75*
G02*
X55574986Y102330001I0J-70000D01*
G01*
X55574986Y101550001D01*
G75*
G02*
X55504986Y101480001I-70000J0D01*
G01*
X54944986Y101480001D01*
G75*
G02*
X54874986Y101550001I0J70000D01*
G01*
G37*
G04 #@! TD*
D22*
G04 #@! TO.C,R10*
X13300000Y31880000D03*
G36*
G01*
X12675000Y31425001D02*
X13925000Y31425001D01*
G75*
G02*
X14025000Y31325001I0J-100000D01*
G01*
X14025000Y30525001D01*
G75*
G02*
X13925000Y30425001I-100000J0D01*
G01*
X12675000Y30425001D01*
G75*
G02*
X12575000Y30525001I0J100000D01*
G01*
X12575000Y31325001D01*
G75*
G02*
X12675000Y31425001I100000J0D01*
G01*
G37*
G36*
G01*
X12675000Y29524979D02*
X13925000Y29524979D01*
G75*
G02*
X14025000Y29424979I0J-100000D01*
G01*
X14025000Y28624979D01*
G75*
G02*
X13925000Y28524979I-100000J0D01*
G01*
X12675000Y28524979D01*
G75*
G02*
X12575000Y28624979I0J100000D01*
G01*
X12575000Y29424979D01*
G75*
G02*
X12675000Y29524979I100000J0D01*
G01*
G37*
X13300000Y28070000D03*
G04 #@! TD*
G04 #@! TO.C,D3*
G36*
G01*
X15302000Y94825000D02*
X14822000Y94825000D01*
G75*
G02*
X14762000Y94885000I0J60000D01*
G01*
X14762000Y95365000D01*
G75*
G02*
X14822000Y95425000I60000J0D01*
G01*
X15302000Y95425000D01*
G75*
G02*
X15362000Y95365000I0J-60000D01*
G01*
X15362000Y94885000D01*
G75*
G02*
X15302000Y94825000I-60000J0D01*
G01*
G37*
G36*
G01*
X13102000Y94825000D02*
X12622000Y94825000D01*
G75*
G02*
X12562000Y94885000I0J60000D01*
G01*
X12562000Y95365000D01*
G75*
G02*
X12622000Y95425000I60000J0D01*
G01*
X13102000Y95425000D01*
G75*
G02*
X13162000Y95365000I0J-60000D01*
G01*
X13162000Y94885000D01*
G75*
G02*
X13102000Y94825000I-60000J0D01*
G01*
G37*
G04 #@! TD*
D15*
G04 #@! TO.C,P14*
X63775000Y25625000D03*
G04 #@! TD*
G04 #@! TO.C,R9*
G36*
G01*
X52225000Y26599999D02*
X50975000Y26599999D01*
G75*
G02*
X50875000Y26699999I0J100000D01*
G01*
X50875000Y27499999D01*
G75*
G02*
X50975000Y27599999I100000J0D01*
G01*
X52225000Y27599999D01*
G75*
G02*
X52325000Y27499999I0J-100000D01*
G01*
X52325000Y26699999D01*
G75*
G02*
X52225000Y26599999I-100000J0D01*
G01*
G37*
D22*
X51600000Y26145000D03*
X51600000Y29955000D03*
G36*
G01*
X52225000Y28500021D02*
X50975000Y28500021D01*
G75*
G02*
X50875000Y28600021I0J100000D01*
G01*
X50875000Y29400021D01*
G75*
G02*
X50975000Y29500021I100000J0D01*
G01*
X52225000Y29500021D01*
G75*
G02*
X52325000Y29400021I0J-100000D01*
G01*
X52325000Y28600021D01*
G75*
G02*
X52225000Y28500021I-100000J0D01*
G01*
G37*
G04 #@! TD*
G04 #@! TO.C,C8*
G36*
G01*
X135762000Y57804000D02*
X135762000Y58754000D01*
G75*
G02*
X136012000Y59004000I250000J0D01*
G01*
X136512000Y59004000D01*
G75*
G02*
X136762000Y58754000I0J-250000D01*
G01*
X136762000Y57804000D01*
G75*
G02*
X136512000Y57554000I-250000J0D01*
G01*
X136012000Y57554000D01*
G75*
G02*
X135762000Y57804000I0J250000D01*
G01*
G37*
G36*
G01*
X137662000Y57804000D02*
X137662000Y58754000D01*
G75*
G02*
X137912000Y59004000I250000J0D01*
G01*
X138412000Y59004000D01*
G75*
G02*
X138662000Y58754000I0J-250000D01*
G01*
X138662000Y57804000D01*
G75*
G02*
X138412000Y57554000I-250000J0D01*
G01*
X137912000Y57554000D01*
G75*
G02*
X137662000Y57804000I0J250000D01*
G01*
G37*
G04 #@! TD*
D15*
G04 #@! TO.C,P56*
X54782400Y32676400D03*
G04 #@! TD*
G04 #@! TO.C,P10*
X68794800Y30212600D03*
G04 #@! TD*
G04 #@! TO.C,D9*
G36*
G01*
X132060000Y95400000D02*
X132540000Y95400000D01*
G75*
G02*
X132600000Y95340000I0J-60000D01*
G01*
X132600000Y94860000D01*
G75*
G02*
X132540000Y94800000I-60000J0D01*
G01*
X132060000Y94800000D01*
G75*
G02*
X132000000Y94860000I0J60000D01*
G01*
X132000000Y95340000D01*
G75*
G02*
X132060000Y95400000I60000J0D01*
G01*
G37*
G36*
G01*
X134260000Y95400000D02*
X134740000Y95400000D01*
G75*
G02*
X134800000Y95340000I0J-60000D01*
G01*
X134800000Y94860000D01*
G75*
G02*
X134740000Y94800000I-60000J0D01*
G01*
X134260000Y94800000D01*
G75*
G02*
X134200000Y94860000I0J60000D01*
G01*
X134200000Y95340000D01*
G75*
G02*
X134260000Y95400000I60000J0D01*
G01*
G37*
G04 #@! TD*
G04 #@! TO.C,P64*
X84225000Y25575000D03*
G04 #@! TD*
G04 #@! TO.C,P69*
X87446800Y30212600D03*
G04 #@! TD*
G04 #@! TO.C,R6*
G36*
G01*
X56735000Y41600000D02*
X57515000Y41600000D01*
G75*
G02*
X57585000Y41530000I0J-70000D01*
G01*
X57585000Y40970000D01*
G75*
G02*
X57515000Y40900000I-70000J0D01*
G01*
X56735000Y40900000D01*
G75*
G02*
X56665000Y40970000I0J70000D01*
G01*
X56665000Y41530000D01*
G75*
G02*
X56735000Y41600000I70000J0D01*
G01*
G37*
G36*
G01*
X56735000Y40000000D02*
X57515000Y40000000D01*
G75*
G02*
X57585000Y39930000I0J-70000D01*
G01*
X57585000Y39370000D01*
G75*
G02*
X57515000Y39300000I-70000J0D01*
G01*
X56735000Y39300000D01*
G75*
G02*
X56665000Y39370000I0J70000D01*
G01*
X56665000Y39930000D01*
G75*
G02*
X56735000Y40000000I70000J0D01*
G01*
G37*
G04 #@! TD*
G04 #@! TO.C,P80*
X35625000Y32675000D03*
G04 #@! TD*
G04 #@! TO.C,R19*
G36*
G01*
X56510000Y107450000D02*
X57290000Y107450000D01*
G75*
G02*
X57360000Y107380000I0J-70000D01*
G01*
X57360000Y106820000D01*
G75*
G02*
X57290000Y106750000I-70000J0D01*
G01*
X56510000Y106750000D01*
G75*
G02*
X56440000Y106820000I0J70000D01*
G01*
X56440000Y107380000D01*
G75*
G02*
X56510000Y107450000I70000J0D01*
G01*
G37*
G36*
G01*
X56510000Y105850000D02*
X57290000Y105850000D01*
G75*
G02*
X57360000Y105780000I0J-70000D01*
G01*
X57360000Y105220000D01*
G75*
G02*
X57290000Y105150000I-70000J0D01*
G01*
X56510000Y105150000D01*
G75*
G02*
X56440000Y105220000I0J70000D01*
G01*
X56440000Y105780000D01*
G75*
G02*
X56510000Y105850000I70000J0D01*
G01*
G37*
G04 #@! TD*
D30*
G04 #@! TO.C,D12*
X113303000Y42709400D03*
X110003000Y42709400D03*
G04 #@! TD*
D31*
G04 #@! TO.C,J8*
X13200000Y53550000D03*
D32*
X13200000Y56090000D03*
X13200000Y58630000D03*
X13200000Y61170000D03*
X13200000Y63710000D03*
X13200000Y66250000D03*
G04 #@! TD*
D30*
G04 #@! TO.C,D11*
X114981400Y42709400D03*
X118281400Y42709400D03*
G04 #@! TD*
G04 #@! TO.C,C10*
G36*
G01*
X142150000Y60850000D02*
X142150000Y59900000D01*
G75*
G02*
X141900000Y59650000I-250000J0D01*
G01*
X141400000Y59650000D01*
G75*
G02*
X141150000Y59900000I0J250000D01*
G01*
X141150000Y60850000D01*
G75*
G02*
X141400000Y61100000I250000J0D01*
G01*
X141900000Y61100000D01*
G75*
G02*
X142150000Y60850000I0J-250000D01*
G01*
G37*
G36*
G01*
X140250000Y60850000D02*
X140250000Y59900000D01*
G75*
G02*
X140000000Y59650000I-250000J0D01*
G01*
X139500000Y59650000D01*
G75*
G02*
X139250000Y59900000I0J250000D01*
G01*
X139250000Y60850000D01*
G75*
G02*
X139500000Y61100000I250000J0D01*
G01*
X140000000Y61100000D01*
G75*
G02*
X140250000Y60850000I0J-250000D01*
G01*
G37*
G04 #@! TD*
D15*
G04 #@! TO.C,G3*
X144900000Y104600000D03*
X144900000Y102060000D03*
X144900000Y99520000D03*
X144900000Y96980000D03*
X144900000Y94440000D03*
X142360000Y104600000D03*
X142360000Y102060000D03*
X142360000Y99520000D03*
X142360000Y96980000D03*
X142360000Y94440000D03*
X139820000Y104600000D03*
X139820000Y102060000D03*
X139820000Y99520000D03*
X139820000Y96980000D03*
X139820000Y94440000D03*
G04 #@! TD*
D33*
G04 #@! TO.C,M12*
X74280016Y56292004D03*
X74886977Y49016987D03*
X74036976Y49016987D03*
X73186975Y49016987D03*
X72336974Y49016987D03*
X75498380Y47567861D03*
X72337005Y57417026D03*
X73737012Y57417026D03*
X74812004Y57417026D03*
X76212011Y57417026D03*
G04 #@! TD*
D15*
G04 #@! TO.C,P3*
X47850000Y41525000D03*
G04 #@! TD*
G04 #@! TO.C,R2*
G36*
G01*
X46950000Y26619999D02*
X45700000Y26619999D01*
G75*
G02*
X45600000Y26719999I0J100000D01*
G01*
X45600000Y27519999D01*
G75*
G02*
X45700000Y27619999I100000J0D01*
G01*
X46950000Y27619999D01*
G75*
G02*
X47050000Y27519999I0J-100000D01*
G01*
X47050000Y26719999D01*
G75*
G02*
X46950000Y26619999I-100000J0D01*
G01*
G37*
D22*
X46325000Y26165000D03*
G36*
G01*
X46950000Y28520021D02*
X45700000Y28520021D01*
G75*
G02*
X45600000Y28620021I0J100000D01*
G01*
X45600000Y29420021D01*
G75*
G02*
X45700000Y29520021I100000J0D01*
G01*
X46950000Y29520021D01*
G75*
G02*
X47050000Y29420021I0J-100000D01*
G01*
X47050000Y28620021D01*
G75*
G02*
X46950000Y28520021I-100000J0D01*
G01*
G37*
X46325000Y29975000D03*
G04 #@! TD*
D15*
G04 #@! TO.C,P41*
X43200000Y32675000D03*
G04 #@! TD*
D30*
G04 #@! TO.C,D14*
X104350000Y41175000D03*
X101050000Y41175000D03*
G04 #@! TD*
D22*
G04 #@! TO.C,R12*
X15600000Y31880021D03*
G36*
G01*
X14975000Y31425022D02*
X16225000Y31425022D01*
G75*
G02*
X16325000Y31325022I0J-100000D01*
G01*
X16325000Y30525022D01*
G75*
G02*
X16225000Y30425022I-100000J0D01*
G01*
X14975000Y30425022D01*
G75*
G02*
X14875000Y30525022I0J100000D01*
G01*
X14875000Y31325022D01*
G75*
G02*
X14975000Y31425022I100000J0D01*
G01*
G37*
X15600000Y28070021D03*
G36*
G01*
X14975000Y29525000D02*
X16225000Y29525000D01*
G75*
G02*
X16325000Y29425000I0J-100000D01*
G01*
X16325000Y28625000D01*
G75*
G02*
X16225000Y28525000I-100000J0D01*
G01*
X14975000Y28525000D01*
G75*
G02*
X14875000Y28625000I0J100000D01*
G01*
X14875000Y29425000D01*
G75*
G02*
X14975000Y29525000I100000J0D01*
G01*
G37*
G04 #@! TD*
G04 #@! TO.C,F2*
G36*
G01*
X127875000Y28119990D02*
X127875000Y27429990D01*
G75*
G02*
X127645000Y27199990I-230000J0D01*
G01*
X126305000Y27199990D01*
G75*
G02*
X126075000Y27429990I0J230000D01*
G01*
X126075000Y28119990D01*
G75*
G02*
X126305000Y28349990I230000J0D01*
G01*
X127645000Y28349990D01*
G75*
G02*
X127875000Y28119990I0J-230000D01*
G01*
G37*
X126975000Y26775000D03*
D23*
X126975000Y27250000D03*
D22*
X126975000Y31675000D03*
G36*
G01*
X127875000Y31020010D02*
X127875000Y30330010D01*
G75*
G02*
X127645000Y30100010I-230000J0D01*
G01*
X126305000Y30100010D01*
G75*
G02*
X126075000Y30330010I0J230000D01*
G01*
X126075000Y31020010D01*
G75*
G02*
X126305000Y31250010I230000J0D01*
G01*
X127645000Y31250010D01*
G75*
G02*
X127875000Y31020010I0J-230000D01*
G01*
G37*
D23*
X126975000Y31250010D03*
G04 #@! TD*
G04 #@! TO.C,C14*
G36*
G01*
X134362000Y28800000D02*
X134362000Y29750000D01*
G75*
G02*
X134612000Y30000000I250000J0D01*
G01*
X135112000Y30000000D01*
G75*
G02*
X135362000Y29750000I0J-250000D01*
G01*
X135362000Y28800000D01*
G75*
G02*
X135112000Y28550000I-250000J0D01*
G01*
X134612000Y28550000D01*
G75*
G02*
X134362000Y28800000I0J250000D01*
G01*
G37*
G36*
G01*
X136262000Y28800000D02*
X136262000Y29750000D01*
G75*
G02*
X136512000Y30000000I250000J0D01*
G01*
X137012000Y30000000D01*
G75*
G02*
X137262000Y29750000I0J-250000D01*
G01*
X137262000Y28800000D01*
G75*
G02*
X137012000Y28550000I-250000J0D01*
G01*
X136512000Y28550000D01*
G75*
G02*
X136262000Y28800000I0J250000D01*
G01*
G37*
G04 #@! TD*
D25*
G04 #@! TO.C,J4*
X17962000Y79125000D03*
G04 #@! TD*
G04 #@! TO.C,C3*
G36*
G01*
X141722001Y55132163D02*
X141722001Y54452163D01*
G75*
G02*
X141637001Y54367163I-85000J0D01*
G01*
X140957001Y54367163D01*
G75*
G02*
X140872001Y54452163I0J85000D01*
G01*
X140872001Y55132163D01*
G75*
G02*
X140957001Y55217163I85000J0D01*
G01*
X141637001Y55217163D01*
G75*
G02*
X141722001Y55132163I0J-85000D01*
G01*
G37*
G36*
G01*
X140141999Y55132163D02*
X140141999Y54452163D01*
G75*
G02*
X140056999Y54367163I-85000J0D01*
G01*
X139376999Y54367163D01*
G75*
G02*
X139291999Y54452163I0J85000D01*
G01*
X139291999Y55132163D01*
G75*
G02*
X139376999Y55217163I85000J0D01*
G01*
X140056999Y55217163D01*
G75*
G02*
X140141999Y55132163I0J-85000D01*
G01*
G37*
G04 #@! TD*
G04 #@! TO.C,C2*
G36*
G01*
X134856998Y32835000D02*
X134856998Y33515000D01*
G75*
G02*
X134941998Y33600000I85000J0D01*
G01*
X135621998Y33600000D01*
G75*
G02*
X135706998Y33515000I0J-85000D01*
G01*
X135706998Y32835000D01*
G75*
G02*
X135621998Y32750000I-85000J0D01*
G01*
X134941998Y32750000D01*
G75*
G02*
X134856998Y32835000I0J85000D01*
G01*
G37*
G36*
G01*
X136437000Y32835000D02*
X136437000Y33515000D01*
G75*
G02*
X136522000Y33600000I85000J0D01*
G01*
X137202000Y33600000D01*
G75*
G02*
X137287000Y33515000I0J-85000D01*
G01*
X137287000Y32835000D01*
G75*
G02*
X137202000Y32750000I-85000J0D01*
G01*
X136522000Y32750000D01*
G75*
G02*
X136437000Y32835000I0J85000D01*
G01*
G37*
G04 #@! TD*
D15*
G04 #@! TO.C,G1*
X149860000Y59640000D03*
X149860000Y62180000D03*
X149860000Y64720000D03*
X149860000Y67260000D03*
X149860000Y69800000D03*
X152400000Y59640000D03*
X152400000Y62180000D03*
X152400000Y64720000D03*
X152400000Y67260000D03*
X152400000Y69800000D03*
X154940000Y59640000D03*
X154940000Y62180000D03*
X154940000Y64720000D03*
X154940000Y67260000D03*
X154940000Y69800000D03*
G04 #@! TD*
G04 #@! TO.C,P15*
X77337600Y41363200D03*
G04 #@! TD*
G04 #@! TO.C,C12*
G36*
G01*
X134362000Y26700000D02*
X134362000Y27650000D01*
G75*
G02*
X134612000Y27900000I250000J0D01*
G01*
X135112000Y27900000D01*
G75*
G02*
X135362000Y27650000I0J-250000D01*
G01*
X135362000Y26700000D01*
G75*
G02*
X135112000Y26450000I-250000J0D01*
G01*
X134612000Y26450000D01*
G75*
G02*
X134362000Y26700000I0J250000D01*
G01*
G37*
G36*
G01*
X136262000Y26700000D02*
X136262000Y27650000D01*
G75*
G02*
X136512000Y27900000I250000J0D01*
G01*
X137012000Y27900000D01*
G75*
G02*
X137262000Y27650000I0J-250000D01*
G01*
X137262000Y26700000D01*
G75*
G02*
X137012000Y26450000I-250000J0D01*
G01*
X136512000Y26450000D01*
G75*
G02*
X136262000Y26700000I0J250000D01*
G01*
G37*
G04 #@! TD*
G04 #@! TO.C,J10*
G36*
G01*
X93339340Y103360660D02*
X93339340Y103360660D01*
G75*
G02*
X95036396Y103360660I848528J-848528D01*
G01*
X95460660Y102936396D01*
G75*
G02*
X95460660Y101239340I-848528J-848528D01*
G01*
X95460660Y101239340D01*
G75*
G02*
X93763604Y101239340I-848528J848528D01*
G01*
X93339340Y101663604D01*
G75*
G02*
X93339340Y103360660I848528J848528D01*
G01*
G37*
G36*
G01*
X95239340Y105560660D02*
X95239340Y105560660D01*
G75*
G02*
X96936396Y105560660I848528J-848528D01*
G01*
X97360660Y105136396D01*
G75*
G02*
X97360660Y103439340I-848528J-848528D01*
G01*
X97360660Y103439340D01*
G75*
G02*
X95663604Y103439340I-848528J848528D01*
G01*
X95239340Y103863604D01*
G75*
G02*
X95239340Y105560660I848528J848528D01*
G01*
G37*
G36*
G01*
X101439340Y105560660D02*
X101439340Y105560660D01*
G75*
G02*
X103136396Y105560660I848528J-848528D01*
G01*
X103560660Y105136396D01*
G75*
G02*
X103560660Y103439340I-848528J-848528D01*
G01*
X103560660Y103439340D01*
G75*
G02*
X101863604Y103439340I-848528J848528D01*
G01*
X101439340Y103863604D01*
G75*
G02*
X101439340Y105560660I848528J848528D01*
G01*
G37*
G36*
G01*
X98939340Y103360660D02*
X98939340Y103360660D01*
G75*
G02*
X100636396Y103360660I848528J-848528D01*
G01*
X101060660Y102936396D01*
G75*
G02*
X101060660Y101239340I-848528J-848528D01*
G01*
X101060660Y101239340D01*
G75*
G02*
X99363604Y101239340I-848528J848528D01*
G01*
X98939340Y101663604D01*
G75*
G02*
X98939340Y103360660I848528J848528D01*
G01*
G37*
G36*
G01*
X89639340Y105560660D02*
X89639340Y105560660D01*
G75*
G02*
X91336396Y105560660I848528J-848528D01*
G01*
X91760660Y105136396D01*
G75*
G02*
X91760660Y103439340I-848528J-848528D01*
G01*
X91760660Y103439340D01*
G75*
G02*
X90063604Y103439340I-848528J848528D01*
G01*
X89639340Y103863604D01*
G75*
G02*
X89639340Y105560660I848528J848528D01*
G01*
G37*
G04 #@! TD*
G04 #@! TO.C,C7*
G36*
G01*
X135762000Y59912800D02*
X135762000Y60862800D01*
G75*
G02*
X136012000Y61112800I250000J0D01*
G01*
X136512000Y61112800D01*
G75*
G02*
X136762000Y60862800I0J-250000D01*
G01*
X136762000Y59912800D01*
G75*
G02*
X136512000Y59662800I-250000J0D01*
G01*
X136012000Y59662800D01*
G75*
G02*
X135762000Y59912800I0J250000D01*
G01*
G37*
G36*
G01*
X137662000Y59912800D02*
X137662000Y60862800D01*
G75*
G02*
X137912000Y61112800I250000J0D01*
G01*
X138412000Y61112800D01*
G75*
G02*
X138662000Y60862800I0J-250000D01*
G01*
X138662000Y59912800D01*
G75*
G02*
X138412000Y59662800I-250000J0D01*
G01*
X137912000Y59662800D01*
G75*
G02*
X137662000Y59912800I0J250000D01*
G01*
G37*
G04 #@! TD*
G04 #@! TO.C,P46*
X78875000Y25575000D03*
G04 #@! TD*
G04 #@! TO.C,P20*
X51350000Y32650000D03*
G04 #@! TD*
G04 #@! TO.C,P40*
X48650000Y32650000D03*
G04 #@! TD*
G04 #@! TO.C,C9*
G36*
G01*
X135762000Y55704000D02*
X135762000Y56654000D01*
G75*
G02*
X136012000Y56904000I250000J0D01*
G01*
X136512000Y56904000D01*
G75*
G02*
X136762000Y56654000I0J-250000D01*
G01*
X136762000Y55704000D01*
G75*
G02*
X136512000Y55454000I-250000J0D01*
G01*
X136012000Y55454000D01*
G75*
G02*
X135762000Y55704000I0J250000D01*
G01*
G37*
G36*
G01*
X137662000Y55704000D02*
X137662000Y56654000D01*
G75*
G02*
X137912000Y56904000I250000J0D01*
G01*
X138412000Y56904000D01*
G75*
G02*
X138662000Y56654000I0J-250000D01*
G01*
X138662000Y55704000D01*
G75*
G02*
X138412000Y55454000I-250000J0D01*
G01*
X137912000Y55454000D01*
G75*
G02*
X137662000Y55704000I0J250000D01*
G01*
G37*
G04 #@! TD*
G04 #@! TO.C,R20*
G36*
G01*
X10212000Y83790000D02*
X10212000Y83010000D01*
G75*
G02*
X10142000Y82940000I-70000J0D01*
G01*
X9582000Y82940000D01*
G75*
G02*
X9512000Y83010000I0J70000D01*
G01*
X9512000Y83790000D01*
G75*
G02*
X9582000Y83860000I70000J0D01*
G01*
X10142000Y83860000D01*
G75*
G02*
X10212000Y83790000I0J-70000D01*
G01*
G37*
G36*
G01*
X8612000Y83790000D02*
X8612000Y83010000D01*
G75*
G02*
X8542000Y82940000I-70000J0D01*
G01*
X7982000Y82940000D01*
G75*
G02*
X7912000Y83010000I0J70000D01*
G01*
X7912000Y83790000D01*
G75*
G02*
X7982000Y83860000I70000J0D01*
G01*
X8542000Y83860000D01*
G75*
G02*
X8612000Y83790000I0J-70000D01*
G01*
G37*
G04 #@! TD*
D31*
G04 #@! TO.C,J7*
X73280000Y99500000D03*
D32*
X70740000Y99500000D03*
X68200000Y99500000D03*
X65660000Y99500000D03*
X63120000Y99500000D03*
X60580000Y99500000D03*
X58040000Y99500000D03*
X55500000Y99500000D03*
G04 #@! TD*
D15*
G04 #@! TO.C,P68*
X84754400Y30212600D03*
G04 #@! TD*
D16*
G04 #@! TO.C,M2*
X88724232Y98550019D03*
X126087498Y98550019D03*
X115187499Y98550019D03*
X100987500Y98550019D03*
D34*
X127107496Y94825008D03*
X127107501Y96725009D03*
D16*
X90112505Y94750007D03*
G04 #@! TD*
G04 #@! TO.C,R17*
G36*
G01*
X10212000Y93240000D02*
X10212000Y92460000D01*
G75*
G02*
X10142000Y92390000I-70000J0D01*
G01*
X9582000Y92390000D01*
G75*
G02*
X9512000Y92460000I0J70000D01*
G01*
X9512000Y93240000D01*
G75*
G02*
X9582000Y93310000I70000J0D01*
G01*
X10142000Y93310000D01*
G75*
G02*
X10212000Y93240000I0J-70000D01*
G01*
G37*
G36*
G01*
X8612000Y93240000D02*
X8612000Y92460000D01*
G75*
G02*
X8542000Y92390000I-70000J0D01*
G01*
X7982000Y92390000D01*
G75*
G02*
X7912000Y92460000I0J70000D01*
G01*
X7912000Y93240000D01*
G75*
G02*
X7982000Y93310000I70000J0D01*
G01*
X8542000Y93310000D01*
G75*
G02*
X8612000Y93240000I0J-70000D01*
G01*
G37*
G04 #@! TD*
D22*
G04 #@! TO.C,R3*
X41800000Y29910000D03*
G36*
G01*
X41175000Y29455001D02*
X42425000Y29455001D01*
G75*
G02*
X42525000Y29355001I0J-100000D01*
G01*
X42525000Y28555001D01*
G75*
G02*
X42425000Y28455001I-100000J0D01*
G01*
X41175000Y28455001D01*
G75*
G02*
X41075000Y28555001I0J100000D01*
G01*
X41075000Y29355001D01*
G75*
G02*
X41175000Y29455001I100000J0D01*
G01*
G37*
G36*
G01*
X41175000Y27554979D02*
X42425000Y27554979D01*
G75*
G02*
X42525000Y27454979I0J-100000D01*
G01*
X42525000Y26654979D01*
G75*
G02*
X42425000Y26554979I-100000J0D01*
G01*
X41175000Y26554979D01*
G75*
G02*
X41075000Y26654979I0J100000D01*
G01*
X41075000Y27454979D01*
G75*
G02*
X41175000Y27554979I100000J0D01*
G01*
G37*
X41800000Y26100000D03*
G04 #@! TD*
G04 #@! TO.C,S2*
G36*
G01*
X72545000Y101399999D02*
X70705000Y101399999D01*
G75*
G02*
X70625000Y101479999I0J80000D01*
G01*
X70625000Y102119999D01*
G75*
G02*
X70705000Y102199999I80000J0D01*
G01*
X72545000Y102199999D01*
G75*
G02*
X72625000Y102119999I0J-80000D01*
G01*
X72625000Y101479999D01*
G75*
G02*
X72545000Y101399999I-80000J0D01*
G01*
G37*
G36*
G01*
X72545000Y105600000D02*
X70705000Y105600000D01*
G75*
G02*
X70625000Y105680000I0J80000D01*
G01*
X70625000Y106320000D01*
G75*
G02*
X70705000Y106400000I80000J0D01*
G01*
X72545000Y106400000D01*
G75*
G02*
X72625000Y106320000I0J-80000D01*
G01*
X72625000Y105680000D01*
G75*
G02*
X72545000Y105600000I-80000J0D01*
G01*
G37*
G04 #@! TD*
D15*
G04 #@! TO.C,P8*
X80741200Y42785600D03*
G04 #@! TD*
G04 #@! TO.C,D7*
G36*
G01*
X14312000Y78505000D02*
X14312000Y79745000D01*
G75*
G02*
X14442000Y79875000I130000J0D01*
G01*
X15482000Y79875000D01*
G75*
G02*
X15612000Y79745000I0J-130000D01*
G01*
X15612000Y78505000D01*
G75*
G02*
X15482000Y78375000I-130000J0D01*
G01*
X14442000Y78375000D01*
G75*
G02*
X14312000Y78505000I0J130000D01*
G01*
G37*
G36*
G01*
X12411979Y78505000D02*
X12411979Y79745000D01*
G75*
G02*
X12541979Y79875000I130000J0D01*
G01*
X13581979Y79875000D01*
G75*
G02*
X13711979Y79745000I0J-130000D01*
G01*
X13711979Y78505000D01*
G75*
G02*
X13581979Y78375000I-130000J0D01*
G01*
X12541979Y78375000D01*
G75*
G02*
X12411979Y78505000I0J130000D01*
G01*
G37*
G04 #@! TD*
G04 #@! TO.C,P48*
X75375000Y25575000D03*
G04 #@! TD*
G04 #@! TO.C,C13*
G36*
G01*
X134362000Y24600000D02*
X134362000Y25550000D01*
G75*
G02*
X134612000Y25800000I250000J0D01*
G01*
X135112000Y25800000D01*
G75*
G02*
X135362000Y25550000I0J-250000D01*
G01*
X135362000Y24600000D01*
G75*
G02*
X135112000Y24350000I-250000J0D01*
G01*
X134612000Y24350000D01*
G75*
G02*
X134362000Y24600000I0J250000D01*
G01*
G37*
G36*
G01*
X136262000Y24600000D02*
X136262000Y25550000D01*
G75*
G02*
X136512000Y25800000I250000J0D01*
G01*
X137012000Y25800000D01*
G75*
G02*
X137262000Y25550000I0J-250000D01*
G01*
X137262000Y24600000D01*
G75*
G02*
X137012000Y24350000I-250000J0D01*
G01*
X136512000Y24350000D01*
G75*
G02*
X136262000Y24600000I0J250000D01*
G01*
G37*
G04 #@! TD*
D25*
G04 #@! TO.C,J3*
X17962000Y85125000D03*
G04 #@! TD*
D15*
G04 #@! TO.C,P45*
X81575000Y25575000D03*
G04 #@! TD*
G04 #@! TO.C,R1*
G36*
G01*
X140257000Y29498163D02*
X140257000Y30278163D01*
G75*
G02*
X140327000Y30348163I70000J0D01*
G01*
X140887000Y30348163D01*
G75*
G02*
X140957000Y30278163I0J-70000D01*
G01*
X140957000Y29498163D01*
G75*
G02*
X140887000Y29428163I-70000J0D01*
G01*
X140327000Y29428163D01*
G75*
G02*
X140257000Y29498163I0J70000D01*
G01*
G37*
G36*
G01*
X141857000Y29498163D02*
X141857000Y30278163D01*
G75*
G02*
X141927000Y30348163I70000J0D01*
G01*
X142487000Y30348163D01*
G75*
G02*
X142557000Y30278163I0J-70000D01*
G01*
X142557000Y29498163D01*
G75*
G02*
X142487000Y29428163I-70000J0D01*
G01*
X141927000Y29428163D01*
G75*
G02*
X141857000Y29498163I0J70000D01*
G01*
G37*
G04 #@! TD*
G04 #@! TO.C,D2*
G36*
G01*
X138167000Y31588163D02*
X138647000Y31588163D01*
G75*
G02*
X138707000Y31528163I0J-60000D01*
G01*
X138707000Y31048163D01*
G75*
G02*
X138647000Y30988163I-60000J0D01*
G01*
X138167000Y30988163D01*
G75*
G02*
X138107000Y31048163I0J60000D01*
G01*
X138107000Y31528163D01*
G75*
G02*
X138167000Y31588163I60000J0D01*
G01*
G37*
G36*
G01*
X140367000Y31588163D02*
X140847000Y31588163D01*
G75*
G02*
X140907000Y31528163I0J-60000D01*
G01*
X140907000Y31048163D01*
G75*
G02*
X140847000Y30988163I-60000J0D01*
G01*
X140367000Y30988163D01*
G75*
G02*
X140307000Y31048163I0J60000D01*
G01*
X140307000Y31528163D01*
G75*
G02*
X140367000Y31588163I60000J0D01*
G01*
G37*
G04 #@! TD*
G04 #@! TO.C,D6*
G36*
G01*
X14312000Y84505000D02*
X14312000Y85745000D01*
G75*
G02*
X14442000Y85875000I130000J0D01*
G01*
X15482000Y85875000D01*
G75*
G02*
X15612000Y85745000I0J-130000D01*
G01*
X15612000Y84505000D01*
G75*
G02*
X15482000Y84375000I-130000J0D01*
G01*
X14442000Y84375000D01*
G75*
G02*
X14312000Y84505000I0J130000D01*
G01*
G37*
G36*
G01*
X12411979Y84505000D02*
X12411979Y85745000D01*
G75*
G02*
X12541979Y85875000I130000J0D01*
G01*
X13581979Y85875000D01*
G75*
G02*
X13711979Y85745000I0J-130000D01*
G01*
X13711979Y84505000D01*
G75*
G02*
X13581979Y84375000I-130000J0D01*
G01*
X12541979Y84375000D01*
G75*
G02*
X12411979Y84505000I0J130000D01*
G01*
G37*
G04 #@! TD*
G04 #@! TO.C,C17*
G36*
G01*
X87215001Y107040000D02*
X87215001Y106360000D01*
G75*
G02*
X87130001Y106275000I-85000J0D01*
G01*
X86450001Y106275000D01*
G75*
G02*
X86365001Y106360000I0J85000D01*
G01*
X86365001Y107040000D01*
G75*
G02*
X86450001Y107125000I85000J0D01*
G01*
X87130001Y107125000D01*
G75*
G02*
X87215001Y107040000I0J-85000D01*
G01*
G37*
G36*
G01*
X85634999Y107040000D02*
X85634999Y106360000D01*
G75*
G02*
X85549999Y106275000I-85000J0D01*
G01*
X84869999Y106275000D01*
G75*
G02*
X84784999Y106360000I0J85000D01*
G01*
X84784999Y107040000D01*
G75*
G02*
X84869999Y107125000I85000J0D01*
G01*
X85549999Y107125000D01*
G75*
G02*
X85634999Y107040000I0J-85000D01*
G01*
G37*
G04 #@! TD*
G04 #@! TO.C,D1*
G36*
G01*
X139507000Y30128163D02*
X139507000Y29648163D01*
G75*
G02*
X139447000Y29588163I-60000J0D01*
G01*
X138967000Y29588163D01*
G75*
G02*
X138907000Y29648163I0J60000D01*
G01*
X138907000Y30128163D01*
G75*
G02*
X138967000Y30188163I60000J0D01*
G01*
X139447000Y30188163D01*
G75*
G02*
X139507000Y30128163I0J-60000D01*
G01*
G37*
G36*
G01*
X139507000Y27928163D02*
X139507000Y27448163D01*
G75*
G02*
X139447000Y27388163I-60000J0D01*
G01*
X138967000Y27388163D01*
G75*
G02*
X138907000Y27448163I0J60000D01*
G01*
X138907000Y27928163D01*
G75*
G02*
X138967000Y27988163I60000J0D01*
G01*
X139447000Y27988163D01*
G75*
G02*
X139507000Y27928163I0J-60000D01*
G01*
G37*
G04 #@! TD*
G04 #@! TO.C,C4*
G36*
G01*
X141867000Y33313163D02*
X142547000Y33313163D01*
G75*
G02*
X142632000Y33228163I0J-85000D01*
G01*
X142632000Y32548163D01*
G75*
G02*
X142547000Y32463163I-85000J0D01*
G01*
X141867000Y32463163D01*
G75*
G02*
X141782000Y32548163I0J85000D01*
G01*
X141782000Y33228163D01*
G75*
G02*
X141867000Y33313163I85000J0D01*
G01*
G37*
G36*
G01*
X141867000Y31733161D02*
X142547000Y31733161D01*
G75*
G02*
X142632000Y31648161I0J-85000D01*
G01*
X142632000Y30968161D01*
G75*
G02*
X142547000Y30883161I-85000J0D01*
G01*
X141867000Y30883161D01*
G75*
G02*
X141782000Y30968161I0J85000D01*
G01*
X141782000Y31648161D01*
G75*
G02*
X141867000Y31733161I85000J0D01*
G01*
G37*
G04 #@! TD*
D35*
G04 #@! TO.C,J1*
X81450000Y102300000D03*
D36*
X82250000Y104050000D03*
X83050000Y102300000D03*
X83850000Y104050000D03*
X84650000Y102300000D03*
D37*
X86700000Y103175000D03*
X79400000Y103175000D03*
G04 #@! TD*
D15*
G04 #@! TO.C,P11*
X66144800Y30212600D03*
G04 #@! TD*
G04 #@! TO.C,C1*
G36*
G01*
X136094998Y53739000D02*
X136094998Y54419000D01*
G75*
G02*
X136179998Y54504000I85000J0D01*
G01*
X136859998Y54504000D01*
G75*
G02*
X136944998Y54419000I0J-85000D01*
G01*
X136944998Y53739000D01*
G75*
G02*
X136859998Y53654000I-85000J0D01*
G01*
X136179998Y53654000D01*
G75*
G02*
X136094998Y53739000I0J85000D01*
G01*
G37*
G36*
G01*
X137675000Y53739000D02*
X137675000Y54419000D01*
G75*
G02*
X137760000Y54504000I85000J0D01*
G01*
X138440000Y54504000D01*
G75*
G02*
X138525000Y54419000I0J-85000D01*
G01*
X138525000Y53739000D01*
G75*
G02*
X138440000Y53654000I-85000J0D01*
G01*
X137760000Y53654000D01*
G75*
G02*
X137675000Y53739000I0J85000D01*
G01*
G37*
G04 #@! TD*
D25*
G04 #@! TO.C,J5*
X17962000Y73125000D03*
G04 #@! TD*
D24*
G04 #@! TO.C,D13*
X95200000Y43125000D03*
X95200000Y39825000D03*
G04 #@! TD*
G04 #@! TO.C,R23*
G36*
G01*
X77499000Y105237200D02*
X76719000Y105237200D01*
G75*
G02*
X76649000Y105307200I0J70000D01*
G01*
X76649000Y105867200D01*
G75*
G02*
X76719000Y105937200I70000J0D01*
G01*
X77499000Y105937200D01*
G75*
G02*
X77569000Y105867200I0J-70000D01*
G01*
X77569000Y105307200D01*
G75*
G02*
X77499000Y105237200I-70000J0D01*
G01*
G37*
G36*
G01*
X77499000Y106837200D02*
X76719000Y106837200D01*
G75*
G02*
X76649000Y106907200I0J70000D01*
G01*
X76649000Y107467200D01*
G75*
G02*
X76719000Y107537200I70000J0D01*
G01*
X77499000Y107537200D01*
G75*
G02*
X77569000Y107467200I0J-70000D01*
G01*
X77569000Y106907200D01*
G75*
G02*
X77499000Y106837200I-70000J0D01*
G01*
G37*
G04 #@! TD*
G04 #@! TO.C,R7*
G36*
G01*
X55335000Y41600000D02*
X56115000Y41600000D01*
G75*
G02*
X56185000Y41530000I0J-70000D01*
G01*
X56185000Y40970000D01*
G75*
G02*
X56115000Y40900000I-70000J0D01*
G01*
X55335000Y40900000D01*
G75*
G02*
X55265000Y40970000I0J70000D01*
G01*
X55265000Y41530000D01*
G75*
G02*
X55335000Y41600000I70000J0D01*
G01*
G37*
G36*
G01*
X55335000Y40000000D02*
X56115000Y40000000D01*
G75*
G02*
X56185000Y39930000I0J-70000D01*
G01*
X56185000Y39370000D01*
G75*
G02*
X56115000Y39300000I-70000J0D01*
G01*
X55335000Y39300000D01*
G75*
G02*
X55265000Y39370000I0J70000D01*
G01*
X55265000Y39930000D01*
G75*
G02*
X55335000Y40000000I70000J0D01*
G01*
G37*
G04 #@! TD*
D15*
G04 #@! TO.C,P43*
X38150000Y32675000D03*
G04 #@! TD*
D34*
G04 #@! TO.C,M8*
X93090985Y53412113D03*
D38*
X77565985Y49362103D03*
D16*
X91915984Y57912112D03*
X83690984Y56587108D03*
X83708489Y51354614D03*
X85590985Y50862108D03*
X78240992Y49737122D03*
G04 #@! TD*
G04 #@! TO.C,R11*
G36*
G01*
X10375000Y31425001D02*
X11625000Y31425001D01*
G75*
G02*
X11725000Y31325001I0J-100000D01*
G01*
X11725000Y30525001D01*
G75*
G02*
X11625000Y30425001I-100000J0D01*
G01*
X10375000Y30425001D01*
G75*
G02*
X10275000Y30525001I0J100000D01*
G01*
X10275000Y31325001D01*
G75*
G02*
X10375000Y31425001I100000J0D01*
G01*
G37*
D22*
X11000000Y31880000D03*
X11000000Y28070000D03*
G36*
G01*
X10375000Y29524979D02*
X11625000Y29524979D01*
G75*
G02*
X11725000Y29424979I0J-100000D01*
G01*
X11725000Y28624979D01*
G75*
G02*
X11625000Y28524979I-100000J0D01*
G01*
X10375000Y28524979D01*
G75*
G02*
X10275000Y28624979I0J100000D01*
G01*
X10275000Y29424979D01*
G75*
G02*
X10375000Y29524979I100000J0D01*
G01*
G37*
G04 #@! TD*
D39*
X151076000Y112094800D02*
X151094907Y112036609D01*
X151144407Y112000645D01*
X151175000Y111995800D01*
X151301836Y111995800D01*
X151350254Y111788149D01*
X151351931Y111781892D01*
X151522892Y111218308D01*
X151524974Y111212173D01*
X151732429Y110660977D01*
X151734908Y110654992D01*
X151977969Y110118545D01*
X151980835Y110112735D01*
X152258461Y109593333D01*
X152261700Y109587722D01*
X152572702Y109087590D01*
X152576301Y109082204D01*
X152919348Y108603483D01*
X152923292Y108598343D01*
X153296914Y108143084D01*
X153301185Y108138213D01*
X153703782Y107708364D01*
X153708363Y107703783D01*
X154138212Y107301186D01*
X154143083Y107296915D01*
X154598342Y106923293D01*
X154603482Y106919349D01*
X155082203Y106576302D01*
X155087589Y106572703D01*
X155587721Y106261701D01*
X155593332Y106258462D01*
X156112734Y105980836D01*
X156118544Y105977970D01*
X156654991Y105734909D01*
X156660976Y105732430D01*
X157212172Y105524975D01*
X157218307Y105522893D01*
X157781891Y105351932D01*
X157788148Y105350255D01*
X157973148Y105307118D01*
X157985954Y105267142D01*
X158035304Y105230973D01*
X158066287Y105226000D01*
X158166877Y105226000D01*
X158143830Y99671816D01*
X158143174Y99659495D01*
X158141681Y99649712D01*
X158139233Y99640108D01*
X158135861Y99630806D01*
X158131597Y99621887D01*
X158126466Y99613406D01*
X158120535Y99605478D01*
X158113852Y99598166D01*
X158106499Y99591556D01*
X158098974Y99586023D01*
X158098974Y99677145D01*
X158080067Y99735335D01*
X158030567Y99771299D01*
X158016701Y99774722D01*
X157187903Y99916802D01*
X156268891Y100140345D01*
X155449990Y100388497D01*
X154805546Y100636360D01*
X154184302Y100909707D01*
X153463651Y101257608D01*
X152670508Y101703751D01*
X151851286Y102274724D01*
X151106581Y102845665D01*
X150486375Y103416254D01*
X149790995Y104111634D01*
X149171117Y104855487D01*
X148724203Y105476202D01*
X148276972Y106147048D01*
X147904716Y106792292D01*
X147532485Y107511938D01*
X147184781Y108331527D01*
X146812393Y109324562D01*
X146564659Y110290724D01*
X146415677Y111134953D01*
X146316091Y111881849D01*
X146304526Y111985933D01*
X146279309Y112041680D01*
X146226140Y112071957D01*
X146206132Y112074000D01*
X146093511Y112074000D01*
X146092707Y112081233D01*
X146091949Y112093541D01*
X146092311Y112103442D01*
X146093639Y112113236D01*
X146095927Y112122880D01*
X146099145Y112132240D01*
X146103264Y112141237D01*
X146108253Y112149802D01*
X146114042Y112157815D01*
X146120605Y112165240D01*
X146127848Y112171971D01*
X146135738Y112177977D01*
X146144158Y112183168D01*
X146153054Y112187512D01*
X146162340Y112190965D01*
X146171898Y112193487D01*
X146181681Y112195063D01*
X146193638Y112195800D01*
X151076000Y112195800D01*
X151076000Y112094800D02*
X151076000Y112195800D01*
G36*
X151076000Y112094800D02*
G01*
X151094907Y112036609D01*
X151144407Y112000645D01*
X151175000Y111995800D01*
X151301836Y111995800D01*
X151350254Y111788149D01*
X151351931Y111781892D01*
X151522892Y111218308D01*
X151524974Y111212173D01*
X151732429Y110660977D01*
X151734908Y110654992D01*
X151977969Y110118545D01*
X151980835Y110112735D01*
X152258461Y109593333D01*
X152261700Y109587722D01*
X152572702Y109087590D01*
X152576301Y109082204D01*
X152919348Y108603483D01*
X152923292Y108598343D01*
X153296914Y108143084D01*
X153301185Y108138213D01*
X153703782Y107708364D01*
X153708363Y107703783D01*
X154138212Y107301186D01*
X154143083Y107296915D01*
X154598342Y106923293D01*
X154603482Y106919349D01*
X155082203Y106576302D01*
X155087589Y106572703D01*
X155587721Y106261701D01*
X155593332Y106258462D01*
X156112734Y105980836D01*
X156118544Y105977970D01*
X156654991Y105734909D01*
X156660976Y105732430D01*
X157212172Y105524975D01*
X157218307Y105522893D01*
X157781891Y105351932D01*
X157788148Y105350255D01*
X157973148Y105307118D01*
X157985954Y105267142D01*
X158035304Y105230973D01*
X158066287Y105226000D01*
X158166877Y105226000D01*
X158143830Y99671816D01*
X158143174Y99659495D01*
X158141681Y99649712D01*
X158139233Y99640108D01*
X158135861Y99630806D01*
X158131597Y99621887D01*
X158126466Y99613406D01*
X158120535Y99605478D01*
X158113852Y99598166D01*
X158106499Y99591556D01*
X158098974Y99586023D01*
X158098974Y99677145D01*
X158080067Y99735335D01*
X158030567Y99771299D01*
X158016701Y99774722D01*
X157187903Y99916802D01*
X156268891Y100140345D01*
X155449990Y100388497D01*
X154805546Y100636360D01*
X154184302Y100909707D01*
X153463651Y101257608D01*
X152670508Y101703751D01*
X151851286Y102274724D01*
X151106581Y102845665D01*
X150486375Y103416254D01*
X149790995Y104111634D01*
X149171117Y104855487D01*
X148724203Y105476202D01*
X148276972Y106147048D01*
X147904716Y106792292D01*
X147532485Y107511938D01*
X147184781Y108331527D01*
X146812393Y109324562D01*
X146564659Y110290724D01*
X146415677Y111134953D01*
X146316091Y111881849D01*
X146304526Y111985933D01*
X146279309Y112041680D01*
X146226140Y112071957D01*
X146206132Y112074000D01*
X146093511Y112074000D01*
X146092707Y112081233D01*
X146091949Y112093541D01*
X146092311Y112103442D01*
X146093639Y112113236D01*
X146095927Y112122880D01*
X146099145Y112132240D01*
X146103264Y112141237D01*
X146108253Y112149802D01*
X146114042Y112157815D01*
X146120605Y112165240D01*
X146127848Y112171971D01*
X146135738Y112177977D01*
X146144158Y112183168D01*
X146153054Y112187512D01*
X146162340Y112190965D01*
X146171898Y112193487D01*
X146181681Y112195063D01*
X146193638Y112195800D01*
X151076000Y112195800D01*
X151076000Y112094800D01*
G37*
X157973148Y105307118D02*
X157985954Y105267142D01*
X158035304Y105230973D01*
X158066287Y105226000D01*
X158321045Y105226000D01*
X158361706Y105216519D01*
X158368060Y105215255D01*
X158949137Y105119319D01*
X158955560Y105118474D01*
X159541668Y105060748D01*
X159548133Y105060324D01*
X160136761Y105041054D01*
X160140000Y105041001D01*
X162544779Y105041001D01*
X163701000Y103884779D01*
X163701000Y80249001D01*
X161700000Y80249001D01*
X161691825Y80248663D01*
X161444933Y80228205D01*
X161428805Y80225514D01*
X161188648Y80164698D01*
X161173183Y80159389D01*
X160946311Y80059874D01*
X160931931Y80052091D01*
X160724533Y79916591D01*
X160711630Y79906549D01*
X160529363Y79738760D01*
X160518289Y79726730D01*
X160366125Y79531230D01*
X160357182Y79517542D01*
X160239272Y79299663D01*
X160232704Y79284689D01*
X160152264Y79050374D01*
X160148250Y79034524D01*
X160107473Y78790165D01*
X160106123Y78773870D01*
X160106123Y78526132D01*
X160107473Y78509837D01*
X160148250Y78265478D01*
X160152264Y78249628D01*
X160232704Y78015313D01*
X160239272Y78000339D01*
X160357182Y77782460D01*
X160366125Y77768772D01*
X160518289Y77573272D01*
X160529363Y77561242D01*
X160711630Y77393453D01*
X160724533Y77383411D01*
X160931931Y77247911D01*
X160946311Y77240128D01*
X161173183Y77140613D01*
X161188648Y77135304D01*
X161428805Y77074488D01*
X161444933Y77071797D01*
X161691825Y77051339D01*
X161700000Y77051001D01*
X163701000Y77051001D01*
X163701000Y14214430D01*
X162432203Y12874241D01*
X158098581Y12898451D01*
X158098974Y99677145D01*
X158080067Y99735335D01*
X158030567Y99771299D01*
X158016702Y99774722D01*
X157898975Y99794904D01*
X157899000Y105322565D01*
X157899089Y105324387D01*
X157973148Y105307118D02*
X157899089Y105324387D01*
G36*
X157973148Y105307118D02*
G01*
X157985954Y105267142D01*
X158035304Y105230973D01*
X158066287Y105226000D01*
X158321045Y105226000D01*
X158361706Y105216519D01*
X158368060Y105215255D01*
X158949137Y105119319D01*
X158955560Y105118474D01*
X159541668Y105060748D01*
X159548133Y105060324D01*
X160136761Y105041054D01*
X160140000Y105041001D01*
X162544779Y105041001D01*
X163701000Y103884779D01*
X163701000Y80249001D01*
X161700000Y80249001D01*
X161691825Y80248663D01*
X161444933Y80228205D01*
X161428805Y80225514D01*
X161188648Y80164698D01*
X161173183Y80159389D01*
X160946311Y80059874D01*
X160931931Y80052091D01*
X160724533Y79916591D01*
X160711630Y79906549D01*
X160529363Y79738760D01*
X160518289Y79726730D01*
X160366125Y79531230D01*
X160357182Y79517542D01*
X160239272Y79299663D01*
X160232704Y79284689D01*
X160152264Y79050374D01*
X160148250Y79034524D01*
X160107473Y78790165D01*
X160106123Y78773870D01*
X160106123Y78526132D01*
X160107473Y78509837D01*
X160148250Y78265478D01*
X160152264Y78249628D01*
X160232704Y78015313D01*
X160239272Y78000339D01*
X160357182Y77782460D01*
X160366125Y77768772D01*
X160518289Y77573272D01*
X160529363Y77561242D01*
X160711630Y77393453D01*
X160724533Y77383411D01*
X160931931Y77247911D01*
X160946311Y77240128D01*
X161173183Y77140613D01*
X161188648Y77135304D01*
X161428805Y77074488D01*
X161444933Y77071797D01*
X161691825Y77051339D01*
X161700000Y77051001D01*
X163701000Y77051001D01*
X163701000Y14214430D01*
X162432203Y12874241D01*
X158098581Y12898451D01*
X158098974Y99677145D01*
X158080067Y99735335D01*
X158030567Y99771299D01*
X158016702Y99774722D01*
X157898975Y99794904D01*
X157899000Y105322565D01*
X157899089Y105324387D01*
X157973148Y105307118D01*
G37*
X18197984Y112176009D02*
X18210305Y112175353D01*
X18220088Y112173860D01*
X18229692Y112171412D01*
X18238994Y112168040D01*
X18247913Y112163776D01*
X18256394Y112158645D01*
X18264322Y112152714D01*
X18271634Y112146031D01*
X18278244Y112138678D01*
X18284111Y112130698D01*
X18289167Y112122182D01*
X18293360Y112113221D01*
X18296656Y112103886D01*
X18299024Y112094263D01*
X18300435Y112084474D01*
X18300880Y112074586D01*
X18300848Y112074000D01*
X18182857Y112074000D01*
X18124666Y112055093D01*
X18088702Y112005593D01*
X18085280Y111991727D01*
X17952998Y111220082D01*
X17729455Y110301070D01*
X17481303Y109482169D01*
X17233440Y108837725D01*
X16960093Y108216481D01*
X16612192Y107495830D01*
X16166049Y106702687D01*
X15595076Y105883465D01*
X15024135Y105138760D01*
X14453546Y104518554D01*
X13758166Y103823174D01*
X13014313Y103203296D01*
X12393598Y102756381D01*
X11722752Y102309151D01*
X11077508Y101936895D01*
X10357862Y101564664D01*
X9538273Y101216960D01*
X8545238Y100844572D01*
X7579076Y100596838D01*
X6734847Y100447856D01*
X5987978Y100348274D01*
X5987703Y100348243D01*
X5987684Y100348234D01*
X5986916Y100348132D01*
X5986947Y100347901D01*
X5931960Y100323016D01*
X5901692Y100269842D01*
X5899652Y100249877D01*
X5899621Y100137225D01*
X5788587Y100124887D01*
X5776259Y100124128D01*
X5766358Y100124490D01*
X5756564Y100125818D01*
X5746920Y100128106D01*
X5737560Y100131324D01*
X5728563Y100135443D01*
X5719998Y100140432D01*
X5711985Y100146221D01*
X5704560Y100152784D01*
X5697829Y100160027D01*
X5691823Y100167917D01*
X5686632Y100176337D01*
X5682288Y100185233D01*
X5678835Y100194519D01*
X5676313Y100204077D01*
X5674737Y100213860D01*
X5674000Y100225817D01*
X5674000Y105076000D01*
X5775000Y105076000D01*
X5833191Y105094907D01*
X5869155Y105144407D01*
X5874000Y105175000D01*
X5874000Y105271477D01*
X6211852Y105350254D01*
X6218109Y105351931D01*
X6781693Y105522892D01*
X6787828Y105524974D01*
X7339024Y105732429D01*
X7345009Y105734908D01*
X7881456Y105977969D01*
X7887266Y105980835D01*
X8406668Y106258461D01*
X8412279Y106261700D01*
X8912411Y106572702D01*
X8917797Y106576301D01*
X9396518Y106919348D01*
X9401658Y106923292D01*
X9856917Y107296914D01*
X9861788Y107301185D01*
X10291637Y107703782D01*
X10296218Y107708363D01*
X10698815Y108138212D01*
X10703086Y108143083D01*
X11076708Y108598342D01*
X11080652Y108603482D01*
X11423699Y109082203D01*
X11427298Y109087589D01*
X11738300Y109587721D01*
X11741539Y109593332D01*
X12019165Y110112734D01*
X12022031Y110118544D01*
X12265092Y110654991D01*
X12267571Y110660976D01*
X12475026Y111212172D01*
X12477108Y111218307D01*
X12648069Y111781891D01*
X12649746Y111788148D01*
X12745459Y112198634D01*
X18197984Y112176009D02*
X12745459Y112198634D01*
G36*
X18197984Y112176009D02*
G01*
X18210305Y112175353D01*
X18220088Y112173860D01*
X18229692Y112171412D01*
X18238994Y112168040D01*
X18247913Y112163776D01*
X18256394Y112158645D01*
X18264322Y112152714D01*
X18271634Y112146031D01*
X18278244Y112138678D01*
X18284111Y112130698D01*
X18289167Y112122182D01*
X18293360Y112113221D01*
X18296656Y112103886D01*
X18299024Y112094263D01*
X18300435Y112084474D01*
X18300880Y112074586D01*
X18300848Y112074000D01*
X18182857Y112074000D01*
X18124666Y112055093D01*
X18088702Y112005593D01*
X18085280Y111991727D01*
X17952998Y111220082D01*
X17729455Y110301070D01*
X17481303Y109482169D01*
X17233440Y108837725D01*
X16960093Y108216481D01*
X16612192Y107495830D01*
X16166049Y106702687D01*
X15595076Y105883465D01*
X15024135Y105138760D01*
X14453546Y104518554D01*
X13758166Y103823174D01*
X13014313Y103203296D01*
X12393598Y102756381D01*
X11722752Y102309151D01*
X11077508Y101936895D01*
X10357862Y101564664D01*
X9538273Y101216960D01*
X8545238Y100844572D01*
X7579076Y100596838D01*
X6734847Y100447856D01*
X5987978Y100348274D01*
X5987703Y100348243D01*
X5987684Y100348234D01*
X5986916Y100348132D01*
X5986947Y100347901D01*
X5931960Y100323016D01*
X5901692Y100269842D01*
X5899652Y100249877D01*
X5899621Y100137225D01*
X5788587Y100124887D01*
X5776259Y100124128D01*
X5766358Y100124490D01*
X5756564Y100125818D01*
X5746920Y100128106D01*
X5737560Y100131324D01*
X5728563Y100135443D01*
X5719998Y100140432D01*
X5711985Y100146221D01*
X5704560Y100152784D01*
X5697829Y100160027D01*
X5691823Y100167917D01*
X5686632Y100176337D01*
X5682288Y100185233D01*
X5678835Y100194519D01*
X5676313Y100204077D01*
X5674737Y100213860D01*
X5674000Y100225817D01*
X5674000Y105076000D01*
X5775000Y105076000D01*
X5833191Y105094907D01*
X5869155Y105144407D01*
X5874000Y105175000D01*
X5874000Y105271477D01*
X6211852Y105350254D01*
X6218109Y105351931D01*
X6781693Y105522892D01*
X6787828Y105524974D01*
X7339024Y105732429D01*
X7345009Y105734908D01*
X7881456Y105977969D01*
X7887266Y105980835D01*
X8406668Y106258461D01*
X8412279Y106261700D01*
X8912411Y106572702D01*
X8917797Y106576301D01*
X9396518Y106919348D01*
X9401658Y106923292D01*
X9856917Y107296914D01*
X9861788Y107301185D01*
X10291637Y107703782D01*
X10296218Y107708363D01*
X10698815Y108138212D01*
X10703086Y108143083D01*
X11076708Y108598342D01*
X11080652Y108603482D01*
X11423699Y109082203D01*
X11427298Y109087589D01*
X11738300Y109587721D01*
X11741539Y109593332D01*
X12019165Y110112734D01*
X12022031Y110118544D01*
X12265092Y110654991D01*
X12267571Y110660976D01*
X12475026Y111212172D01*
X12477108Y111218307D01*
X12648069Y111781891D01*
X12649746Y111788148D01*
X12745459Y112198634D01*
X18197984Y112176009D01*
G37*
X6009894Y105275394D02*
X6019678Y105273943D01*
X6029286Y105271536D01*
X6038598Y105268204D01*
X6047562Y105263965D01*
X6056042Y105258882D01*
X6063997Y105252982D01*
X6071333Y105246333D01*
X6077982Y105238997D01*
X6083882Y105231042D01*
X6088965Y105222562D01*
X6093204Y105213598D01*
X6096536Y105204286D01*
X6098943Y105194678D01*
X6100394Y105184894D01*
X6100999Y105172544D01*
X6099683Y100363168D01*
X5987978Y100348274D01*
X5987703Y100348243D01*
X5987684Y100348234D01*
X5986916Y100348132D01*
X5986947Y100347901D01*
X5931960Y100323016D01*
X5901692Y100269842D01*
X5899652Y100249877D01*
X5876000Y13825027D01*
X5876000Y12749000D01*
X1455222Y12749001D01*
X290286Y13913936D01*
X296315Y77051000D01*
X2300000Y77051000D01*
X2308165Y77051337D01*
X2555077Y77071770D01*
X2571206Y77074460D01*
X2811386Y77135258D01*
X2826853Y77140566D01*
X3053749Y77240070D01*
X3068130Y77247852D01*
X3275552Y77383347D01*
X3288457Y77393389D01*
X3470746Y77561178D01*
X3481821Y77573208D01*
X3634005Y77768715D01*
X3642949Y77782404D01*
X3760875Y78000295D01*
X3767444Y78015269D01*
X3847896Y78249598D01*
X3851911Y78265450D01*
X3892693Y78509826D01*
X3894043Y78526122D01*
X3894043Y78773878D01*
X3892693Y78790174D01*
X3851911Y79034550D01*
X3847896Y79050402D01*
X3767444Y79284731D01*
X3760875Y79299705D01*
X3642949Y79517596D01*
X3634005Y79531285D01*
X3481821Y79726792D01*
X3470746Y79738822D01*
X3288457Y79906611D01*
X3275552Y79916653D01*
X3068130Y80052148D01*
X3053749Y80059930D01*
X2826853Y80159434D01*
X2811386Y80164742D01*
X2571206Y80225540D01*
X2555077Y80228230D01*
X2308165Y80248663D01*
X2300000Y80249000D01*
X296620Y80249001D01*
X298877Y103884656D01*
X1455222Y105041000D01*
X3860000Y105041000D01*
X3863239Y105041053D01*
X4451867Y105060323D01*
X4458332Y105060747D01*
X4613200Y105076000D01*
X5775000Y105076000D01*
X5833191Y105094907D01*
X5869155Y105144407D01*
X5874000Y105175000D01*
X5874000Y105271477D01*
X5893398Y105276000D01*
X5997564Y105276000D01*
X6009894Y105275394D02*
X5997564Y105276000D01*
G36*
X6009894Y105275394D02*
G01*
X6019678Y105273943D01*
X6029286Y105271536D01*
X6038598Y105268204D01*
X6047562Y105263965D01*
X6056042Y105258882D01*
X6063997Y105252982D01*
X6071333Y105246333D01*
X6077982Y105238997D01*
X6083882Y105231042D01*
X6088965Y105222562D01*
X6093204Y105213598D01*
X6096536Y105204286D01*
X6098943Y105194678D01*
X6100394Y105184894D01*
X6100999Y105172544D01*
X6099683Y100363168D01*
X5987978Y100348274D01*
X5987703Y100348243D01*
X5987684Y100348234D01*
X5986916Y100348132D01*
X5986947Y100347901D01*
X5931960Y100323016D01*
X5901692Y100269842D01*
X5899652Y100249877D01*
X5876000Y13825027D01*
X5876000Y12749000D01*
X1455222Y12749001D01*
X290286Y13913936D01*
X296315Y77051000D01*
X2300000Y77051000D01*
X2308165Y77051337D01*
X2555077Y77071770D01*
X2571206Y77074460D01*
X2811386Y77135258D01*
X2826853Y77140566D01*
X3053749Y77240070D01*
X3068130Y77247852D01*
X3275552Y77383347D01*
X3288457Y77393389D01*
X3470746Y77561178D01*
X3481821Y77573208D01*
X3634005Y77768715D01*
X3642949Y77782404D01*
X3760875Y78000295D01*
X3767444Y78015269D01*
X3847896Y78249598D01*
X3851911Y78265450D01*
X3892693Y78509826D01*
X3894043Y78526122D01*
X3894043Y78773878D01*
X3892693Y78790174D01*
X3851911Y79034550D01*
X3847896Y79050402D01*
X3767444Y79284731D01*
X3760875Y79299705D01*
X3642949Y79517596D01*
X3634005Y79531285D01*
X3481821Y79726792D01*
X3470746Y79738822D01*
X3288457Y79906611D01*
X3275552Y79916653D01*
X3068130Y80052148D01*
X3053749Y80059930D01*
X2826853Y80159434D01*
X2811386Y80164742D01*
X2571206Y80225540D01*
X2555077Y80228230D01*
X2308165Y80248663D01*
X2300000Y80249000D01*
X296620Y80249001D01*
X298877Y103884656D01*
X1455222Y105041000D01*
X3860000Y105041000D01*
X3863239Y105041053D01*
X4451867Y105060323D01*
X4458332Y105060747D01*
X4613200Y105076000D01*
X5775000Y105076000D01*
X5833191Y105094907D01*
X5869155Y105144407D01*
X5874000Y105175000D01*
X5874000Y105271477D01*
X5893398Y105276000D01*
X5997564Y105276000D01*
X6009894Y105275394D01*
G37*
X149884547Y117701232D02*
X151041000Y116544779D01*
X151041000Y114140001D01*
X151041053Y114136762D01*
X151060323Y113548134D01*
X151060747Y113541669D01*
X151076000Y113386801D01*
X151076000Y112094800D01*
X151094907Y112036609D01*
X151144407Y112000645D01*
X151175000Y111995800D01*
X151276000Y111995800D01*
X151276000Y111977436D01*
X151275394Y111965106D01*
X151273943Y111955322D01*
X151271536Y111945714D01*
X151268204Y111936402D01*
X151263965Y111927438D01*
X151258882Y111918958D01*
X151252982Y111911003D01*
X151246333Y111903667D01*
X151238997Y111897018D01*
X151231042Y111891118D01*
X151222562Y111886035D01*
X151213598Y111881796D01*
X151204286Y111878464D01*
X151194678Y111876057D01*
X151184894Y111874606D01*
X151172564Y111874000D01*
X146317138Y111874000D01*
X146316091Y111881849D01*
X146304526Y111985933D01*
X146279309Y112041680D01*
X146226140Y112071957D01*
X146206132Y112074000D01*
X18182857Y112074000D01*
X18124666Y112055093D01*
X18088702Y112005593D01*
X18085280Y111991728D01*
X18065098Y111874000D01*
X12669764Y111874000D01*
X12783482Y112361706D01*
X12784746Y112368060D01*
X12880682Y112949137D01*
X12881527Y112955560D01*
X12939253Y113541668D01*
X12939677Y113548133D01*
X12958947Y114136761D01*
X12959000Y114140000D01*
X12959000Y116544779D01*
X14139931Y117725709D01*
X149884547Y117701232D02*
X14139931Y117725709D01*
G36*
X149884547Y117701232D02*
G01*
X151041000Y116544779D01*
X151041000Y114140001D01*
X151041053Y114136762D01*
X151060323Y113548134D01*
X151060747Y113541669D01*
X151076000Y113386801D01*
X151076000Y112094800D01*
X151094907Y112036609D01*
X151144407Y112000645D01*
X151175000Y111995800D01*
X151276000Y111995800D01*
X151276000Y111977436D01*
X151275394Y111965106D01*
X151273943Y111955322D01*
X151271536Y111945714D01*
X151268204Y111936402D01*
X151263965Y111927438D01*
X151258882Y111918958D01*
X151252982Y111911003D01*
X151246333Y111903667D01*
X151238997Y111897018D01*
X151231042Y111891118D01*
X151222562Y111886035D01*
X151213598Y111881796D01*
X151204286Y111878464D01*
X151194678Y111876057D01*
X151184894Y111874606D01*
X151172564Y111874000D01*
X146317138Y111874000D01*
X146316091Y111881849D01*
X146304526Y111985933D01*
X146279309Y112041680D01*
X146226140Y112071957D01*
X146206132Y112074000D01*
X18182857Y112074000D01*
X18124666Y112055093D01*
X18088702Y112005593D01*
X18085280Y111991728D01*
X18065098Y111874000D01*
X12669764Y111874000D01*
X12783482Y112361706D01*
X12784746Y112368060D01*
X12880682Y112949137D01*
X12881527Y112955560D01*
X12939253Y113541668D01*
X12939677Y113548133D01*
X12958947Y114136761D01*
X12959000Y114140000D01*
X12959000Y116544779D01*
X14139931Y117725709D01*
X149884547Y117701232D01*
G37*
M02*
