G04 #@! TF.GenerationSoftware,KiCad,Pcbnew,(5.99.0-12439-g94954386e6)*
G04 #@! TF.CreationDate,2021-10-12T01:17:31+03:00*
G04 #@! TF.ProjectId,hellen121vag,68656c6c-656e-4313-9231-7661672e6b69,b*
G04 #@! TF.SameCoordinates,PX2b953a0PY6943058*
G04 #@! TF.FileFunction,Paste,Top*
G04 #@! TF.FilePolarity,Positive*
%FSLAX46Y46*%
G04 Gerber Fmt 4.6, Leading zero omitted, Abs format (unit mm)*
G04 Created by KiCad (PCBNEW (5.99.0-12439-g94954386e6)) date 2021-10-12 01:17:31*
%MOMM*%
%LPD*%
G01*
G04 APERTURE LIST*
%ADD10O,0.000001X0.000001*%
%ADD11R,0.203200X1.524000*%
%ADD12R,1.200000X0.900000*%
%ADD13R,0.800000X2.200000*%
%ADD14R,2.032000X5.080000*%
%ADD15R,11.430000X7.620000*%
%ADD16R,3.600000X2.600000*%
%ADD17R,0.900000X1.200000*%
G04 APERTURE END LIST*
G04 #@! TO.C,U3*
G36*
G01*
X34145000Y64850000D02*
X33845000Y64850000D01*
G75*
G02*
X33695000Y65000000I0J150000D01*
G01*
X33695000Y66650000D01*
G75*
G02*
X33845000Y66800000I150000J0D01*
G01*
X34145000Y66800000D01*
G75*
G02*
X34295000Y66650000I0J-150000D01*
G01*
X34295000Y65000000D01*
G75*
G02*
X34145000Y64850000I-150000J0D01*
G01*
G37*
G36*
G01*
X35415000Y64850000D02*
X35115000Y64850000D01*
G75*
G02*
X34965000Y65000000I0J150000D01*
G01*
X34965000Y66650000D01*
G75*
G02*
X35115000Y66800000I150000J0D01*
G01*
X35415000Y66800000D01*
G75*
G02*
X35565000Y66650000I0J-150000D01*
G01*
X35565000Y65000000D01*
G75*
G02*
X35415000Y64850000I-150000J0D01*
G01*
G37*
G36*
G01*
X36685000Y64850000D02*
X36385000Y64850000D01*
G75*
G02*
X36235000Y65000000I0J150000D01*
G01*
X36235000Y66650000D01*
G75*
G02*
X36385000Y66800000I150000J0D01*
G01*
X36685000Y66800000D01*
G75*
G02*
X36835000Y66650000I0J-150000D01*
G01*
X36835000Y65000000D01*
G75*
G02*
X36685000Y64850000I-150000J0D01*
G01*
G37*
G36*
G01*
X37955000Y64850000D02*
X37655000Y64850000D01*
G75*
G02*
X37505000Y65000000I0J150000D01*
G01*
X37505000Y66650000D01*
G75*
G02*
X37655000Y66800000I150000J0D01*
G01*
X37955000Y66800000D01*
G75*
G02*
X38105000Y66650000I0J-150000D01*
G01*
X38105000Y65000000D01*
G75*
G02*
X37955000Y64850000I-150000J0D01*
G01*
G37*
G36*
G01*
X37955000Y69800000D02*
X37655000Y69800000D01*
G75*
G02*
X37505000Y69950000I0J150000D01*
G01*
X37505000Y71600000D01*
G75*
G02*
X37655000Y71750000I150000J0D01*
G01*
X37955000Y71750000D01*
G75*
G02*
X38105000Y71600000I0J-150000D01*
G01*
X38105000Y69950000D01*
G75*
G02*
X37955000Y69800000I-150000J0D01*
G01*
G37*
G36*
G01*
X36685000Y69800000D02*
X36385000Y69800000D01*
G75*
G02*
X36235000Y69950000I0J150000D01*
G01*
X36235000Y71600000D01*
G75*
G02*
X36385000Y71750000I150000J0D01*
G01*
X36685000Y71750000D01*
G75*
G02*
X36835000Y71600000I0J-150000D01*
G01*
X36835000Y69950000D01*
G75*
G02*
X36685000Y69800000I-150000J0D01*
G01*
G37*
G36*
G01*
X35415000Y69800000D02*
X35115000Y69800000D01*
G75*
G02*
X34965000Y69950000I0J150000D01*
G01*
X34965000Y71600000D01*
G75*
G02*
X35115000Y71750000I150000J0D01*
G01*
X35415000Y71750000D01*
G75*
G02*
X35565000Y71600000I0J-150000D01*
G01*
X35565000Y69950000D01*
G75*
G02*
X35415000Y69800000I-150000J0D01*
G01*
G37*
G36*
G01*
X34145000Y69800000D02*
X33845000Y69800000D01*
G75*
G02*
X33695000Y69950000I0J150000D01*
G01*
X33695000Y71600000D01*
G75*
G02*
X33845000Y71750000I150000J0D01*
G01*
X34145000Y71750000D01*
G75*
G02*
X34295000Y71600000I0J-150000D01*
G01*
X34295000Y69950000D01*
G75*
G02*
X34145000Y69800000I-150000J0D01*
G01*
G37*
G04 #@! TD*
G04 #@! TO.C,R22*
G36*
G01*
X143450000Y58565000D02*
X143450000Y57785000D01*
G75*
G02*
X143380000Y57715000I-70000J0D01*
G01*
X142820000Y57715000D01*
G75*
G02*
X142750000Y57785000I0J70000D01*
G01*
X142750000Y58565000D01*
G75*
G02*
X142820000Y58635000I70000J0D01*
G01*
X143380000Y58635000D01*
G75*
G02*
X143450000Y58565000I0J-70000D01*
G01*
G37*
G36*
G01*
X141850000Y58565000D02*
X141850000Y57785000D01*
G75*
G02*
X141780000Y57715000I-70000J0D01*
G01*
X141220000Y57715000D01*
G75*
G02*
X141150000Y57785000I0J70000D01*
G01*
X141150000Y58565000D01*
G75*
G02*
X141220000Y58635000I70000J0D01*
G01*
X141780000Y58635000D01*
G75*
G02*
X141850000Y58565000I0J-70000D01*
G01*
G37*
G04 #@! TD*
G04 #@! TO.C,C15*
G36*
G01*
X51360000Y106915001D02*
X52040000Y106915001D01*
G75*
G02*
X52125000Y106830001I0J-85000D01*
G01*
X52125000Y106150001D01*
G75*
G02*
X52040000Y106065001I-85000J0D01*
G01*
X51360000Y106065001D01*
G75*
G02*
X51275000Y106150001I0J85000D01*
G01*
X51275000Y106830001D01*
G75*
G02*
X51360000Y106915001I85000J0D01*
G01*
G37*
G36*
G01*
X51360000Y105334999D02*
X52040000Y105334999D01*
G75*
G02*
X52125000Y105249999I0J-85000D01*
G01*
X52125000Y104569999D01*
G75*
G02*
X52040000Y104484999I-85000J0D01*
G01*
X51360000Y104484999D01*
G75*
G02*
X51275000Y104569999I0J85000D01*
G01*
X51275000Y105249999D01*
G75*
G02*
X51360000Y105334999I85000J0D01*
G01*
G37*
G04 #@! TD*
G04 #@! TO.C,C6*
G36*
G01*
X77540000Y99584999D02*
X76860000Y99584999D01*
G75*
G02*
X76775000Y99669999I0J85000D01*
G01*
X76775000Y100349999D01*
G75*
G02*
X76860000Y100434999I85000J0D01*
G01*
X77540000Y100434999D01*
G75*
G02*
X77625000Y100349999I0J-85000D01*
G01*
X77625000Y99669999D01*
G75*
G02*
X77540000Y99584999I-85000J0D01*
G01*
G37*
G36*
G01*
X77540000Y101165001D02*
X76860000Y101165001D01*
G75*
G02*
X76775000Y101250001I0J85000D01*
G01*
X76775000Y101930001D01*
G75*
G02*
X76860000Y102015001I85000J0D01*
G01*
X77540000Y102015001D01*
G75*
G02*
X77625000Y101930001I0J-85000D01*
G01*
X77625000Y101250001D01*
G75*
G02*
X77540000Y101165001I-85000J0D01*
G01*
G37*
G04 #@! TD*
D10*
G04 #@! TO.C,M1*
X45912501Y97531666D03*
G04 #@! TD*
G04 #@! TO.C,M6*
X95546542Y48347505D03*
G04 #@! TD*
G04 #@! TO.C,D8*
G36*
G01*
X14312000Y90505000D02*
X14312000Y91745000D01*
G75*
G02*
X14442000Y91875000I130000J0D01*
G01*
X15482000Y91875000D01*
G75*
G02*
X15612000Y91745000I0J-130000D01*
G01*
X15612000Y90505000D01*
G75*
G02*
X15482000Y90375000I-130000J0D01*
G01*
X14442000Y90375000D01*
G75*
G02*
X14312000Y90505000I0J130000D01*
G01*
G37*
G36*
G01*
X12411979Y90505000D02*
X12411979Y91745000D01*
G75*
G02*
X12541979Y91875000I130000J0D01*
G01*
X13581979Y91875000D01*
G75*
G02*
X13711979Y91745000I0J-130000D01*
G01*
X13711979Y90505000D01*
G75*
G02*
X13581979Y90375000I-130000J0D01*
G01*
X12541979Y90375000D01*
G75*
G02*
X12411979Y90505000I0J130000D01*
G01*
G37*
G04 #@! TD*
G04 #@! TO.C,R13*
G36*
G01*
X8075000Y31375001D02*
X9325000Y31375001D01*
G75*
G02*
X9425000Y31275001I0J-100000D01*
G01*
X9425000Y30475001D01*
G75*
G02*
X9325000Y30375001I-100000J0D01*
G01*
X8075000Y30375001D01*
G75*
G02*
X7975000Y30475001I0J100000D01*
G01*
X7975000Y31275001D01*
G75*
G02*
X8075000Y31375001I100000J0D01*
G01*
G37*
G36*
G01*
X8075000Y29474979D02*
X9325000Y29474979D01*
G75*
G02*
X9425000Y29374979I0J-100000D01*
G01*
X9425000Y28574979D01*
G75*
G02*
X9325000Y28474979I-100000J0D01*
G01*
X8075000Y28474979D01*
G75*
G02*
X7975000Y28574979I0J100000D01*
G01*
X7975000Y29374979D01*
G75*
G02*
X8075000Y29474979I100000J0D01*
G01*
G37*
G04 #@! TD*
G04 #@! TO.C,R4*
G36*
G01*
X55225000Y26749999D02*
X53975000Y26749999D01*
G75*
G02*
X53875000Y26849999I0J100000D01*
G01*
X53875000Y27649999D01*
G75*
G02*
X53975000Y27749999I100000J0D01*
G01*
X55225000Y27749999D01*
G75*
G02*
X55325000Y27649999I0J-100000D01*
G01*
X55325000Y26849999D01*
G75*
G02*
X55225000Y26749999I-100000J0D01*
G01*
G37*
G36*
G01*
X55225000Y28650021D02*
X53975000Y28650021D01*
G75*
G02*
X53875000Y28750021I0J100000D01*
G01*
X53875000Y29550021D01*
G75*
G02*
X53975000Y29650021I100000J0D01*
G01*
X55225000Y29650021D01*
G75*
G02*
X55325000Y29550021I0J-100000D01*
G01*
X55325000Y28750021D01*
G75*
G02*
X55225000Y28650021I-100000J0D01*
G01*
G37*
G04 #@! TD*
G04 #@! TO.C,R16*
G36*
G01*
X10212000Y95790000D02*
X10212000Y95010000D01*
G75*
G02*
X10142000Y94940000I-70000J0D01*
G01*
X9582000Y94940000D01*
G75*
G02*
X9512000Y95010000I0J70000D01*
G01*
X9512000Y95790000D01*
G75*
G02*
X9582000Y95860000I70000J0D01*
G01*
X10142000Y95860000D01*
G75*
G02*
X10212000Y95790000I0J-70000D01*
G01*
G37*
G36*
G01*
X8612000Y95790000D02*
X8612000Y95010000D01*
G75*
G02*
X8542000Y94940000I-70000J0D01*
G01*
X7982000Y94940000D01*
G75*
G02*
X7912000Y95010000I0J70000D01*
G01*
X7912000Y95790000D01*
G75*
G02*
X7982000Y95860000I70000J0D01*
G01*
X8542000Y95860000D01*
G75*
G02*
X8612000Y95790000I0J-70000D01*
G01*
G37*
G04 #@! TD*
G04 #@! TO.C,C5*
G36*
G01*
X145122001Y53932163D02*
X145122001Y53252163D01*
G75*
G02*
X145037001Y53167163I-85000J0D01*
G01*
X144357001Y53167163D01*
G75*
G02*
X144272001Y53252163I0J85000D01*
G01*
X144272001Y53932163D01*
G75*
G02*
X144357001Y54017163I85000J0D01*
G01*
X145037001Y54017163D01*
G75*
G02*
X145122001Y53932163I0J-85000D01*
G01*
G37*
G36*
G01*
X143541999Y53932163D02*
X143541999Y53252163D01*
G75*
G02*
X143456999Y53167163I-85000J0D01*
G01*
X142776999Y53167163D01*
G75*
G02*
X142691999Y53252163I0J85000D01*
G01*
X142691999Y53932163D01*
G75*
G02*
X142776999Y54017163I85000J0D01*
G01*
X143456999Y54017163D01*
G75*
G02*
X143541999Y53932163I0J-85000D01*
G01*
G37*
G04 #@! TD*
G04 #@! TO.C,C11*
G36*
G01*
X134362000Y30900000D02*
X134362000Y31850000D01*
G75*
G02*
X134612000Y32100000I250000J0D01*
G01*
X135112000Y32100000D01*
G75*
G02*
X135362000Y31850000I0J-250000D01*
G01*
X135362000Y30900000D01*
G75*
G02*
X135112000Y30650000I-250000J0D01*
G01*
X134612000Y30650000D01*
G75*
G02*
X134362000Y30900000I0J250000D01*
G01*
G37*
G36*
G01*
X136262000Y30900000D02*
X136262000Y31850000D01*
G75*
G02*
X136512000Y32100000I250000J0D01*
G01*
X137012000Y32100000D01*
G75*
G02*
X137262000Y31850000I0J-250000D01*
G01*
X137262000Y30900000D01*
G75*
G02*
X137012000Y30650000I-250000J0D01*
G01*
X136512000Y30650000D01*
G75*
G02*
X136262000Y30900000I0J250000D01*
G01*
G37*
G04 #@! TD*
G04 #@! TO.C,R8*
G36*
G01*
X47725000Y29500001D02*
X48975000Y29500001D01*
G75*
G02*
X49075000Y29400001I0J-100000D01*
G01*
X49075000Y28600001D01*
G75*
G02*
X48975000Y28500001I-100000J0D01*
G01*
X47725000Y28500001D01*
G75*
G02*
X47625000Y28600001I0J100000D01*
G01*
X47625000Y29400001D01*
G75*
G02*
X47725000Y29500001I100000J0D01*
G01*
G37*
G36*
G01*
X47725000Y27599979D02*
X48975000Y27599979D01*
G75*
G02*
X49075000Y27499979I0J-100000D01*
G01*
X49075000Y26699979D01*
G75*
G02*
X48975000Y26599979I-100000J0D01*
G01*
X47725000Y26599979D01*
G75*
G02*
X47625000Y26699979I0J100000D01*
G01*
X47625000Y27499979D01*
G75*
G02*
X47725000Y27599979I100000J0D01*
G01*
G37*
G04 #@! TD*
D11*
G04 #@! TO.C,F1*
X124075000Y27250000D03*
X124075000Y31250010D03*
G04 #@! TD*
D12*
G04 #@! TO.C,D10*
X122016200Y38951200D03*
X122016200Y42251200D03*
G04 #@! TD*
D13*
G04 #@! TO.C,U1*
X136992000Y36892163D03*
X138262000Y36892163D03*
X139532000Y36892163D03*
X140802000Y36892163D03*
X142072000Y36892163D03*
X143342000Y36892163D03*
X144612000Y36892163D03*
X145882000Y36892163D03*
X147152000Y36892163D03*
X148422000Y36892163D03*
X148422000Y50092163D03*
X147152000Y50092163D03*
X145882000Y50092163D03*
X144612000Y50092163D03*
X143342000Y50092163D03*
X142072000Y50092163D03*
X140802000Y50092163D03*
X139532000Y50092163D03*
X138262000Y50092163D03*
X136992000Y50092163D03*
D14*
X135595000Y43492163D03*
D15*
X142707000Y43492163D03*
D14*
X149819000Y43492163D03*
G04 #@! TD*
G04 #@! TO.C,R21*
G36*
G01*
X10212000Y81240000D02*
X10212000Y80460000D01*
G75*
G02*
X10142000Y80390000I-70000J0D01*
G01*
X9582000Y80390000D01*
G75*
G02*
X9512000Y80460000I0J70000D01*
G01*
X9512000Y81240000D01*
G75*
G02*
X9582000Y81310000I70000J0D01*
G01*
X10142000Y81310000D01*
G75*
G02*
X10212000Y81240000I0J-70000D01*
G01*
G37*
G36*
G01*
X8612000Y81240000D02*
X8612000Y80460000D01*
G75*
G02*
X8542000Y80390000I-70000J0D01*
G01*
X7982000Y80390000D01*
G75*
G02*
X7912000Y80460000I0J70000D01*
G01*
X7912000Y81240000D01*
G75*
G02*
X7982000Y81310000I70000J0D01*
G01*
X8542000Y81310000D01*
G75*
G02*
X8612000Y81240000I0J-70000D01*
G01*
G37*
G04 #@! TD*
D10*
G04 #@! TO.C,M10*
X25350001Y74749997D03*
G04 #@! TD*
G04 #@! TO.C,D4*
G36*
G01*
X14312000Y96505000D02*
X14312000Y97745000D01*
G75*
G02*
X14442000Y97875000I130000J0D01*
G01*
X15482000Y97875000D01*
G75*
G02*
X15612000Y97745000I0J-130000D01*
G01*
X15612000Y96505000D01*
G75*
G02*
X15482000Y96375000I-130000J0D01*
G01*
X14442000Y96375000D01*
G75*
G02*
X14312000Y96505000I0J130000D01*
G01*
G37*
G36*
G01*
X12411979Y96505000D02*
X12411979Y97745000D01*
G75*
G02*
X12541979Y97875000I130000J0D01*
G01*
X13581979Y97875000D01*
G75*
G02*
X13711979Y97745000I0J-130000D01*
G01*
X13711979Y96505000D01*
G75*
G02*
X13581979Y96375000I-130000J0D01*
G01*
X12541979Y96375000D01*
G75*
G02*
X12411979Y96505000I0J130000D01*
G01*
G37*
G04 #@! TD*
G04 #@! TO.C,C16*
G36*
G01*
X36015001Y73440000D02*
X36015001Y72760000D01*
G75*
G02*
X35930001Y72675000I-85000J0D01*
G01*
X35250001Y72675000D01*
G75*
G02*
X35165001Y72760000I0J85000D01*
G01*
X35165001Y73440000D01*
G75*
G02*
X35250001Y73525000I85000J0D01*
G01*
X35930001Y73525000D01*
G75*
G02*
X36015001Y73440000I0J-85000D01*
G01*
G37*
G36*
G01*
X34434999Y73440000D02*
X34434999Y72760000D01*
G75*
G02*
X34349999Y72675000I-85000J0D01*
G01*
X33669999Y72675000D01*
G75*
G02*
X33584999Y72760000I0J85000D01*
G01*
X33584999Y73440000D01*
G75*
G02*
X33669999Y73525000I85000J0D01*
G01*
X34349999Y73525000D01*
G75*
G02*
X34434999Y73440000I0J-85000D01*
G01*
G37*
G04 #@! TD*
G04 #@! TO.C,S1*
G36*
G01*
X60542000Y106400001D02*
X62382000Y106400001D01*
G75*
G02*
X62462000Y106320001I0J-80000D01*
G01*
X62462000Y105680001D01*
G75*
G02*
X62382000Y105600001I-80000J0D01*
G01*
X60542000Y105600001D01*
G75*
G02*
X60462000Y105680001I0J80000D01*
G01*
X60462000Y106320001D01*
G75*
G02*
X60542000Y106400001I80000J0D01*
G01*
G37*
G36*
G01*
X60542000Y102200000D02*
X62382000Y102200000D01*
G75*
G02*
X62462000Y102120000I0J-80000D01*
G01*
X62462000Y101480000D01*
G75*
G02*
X62382000Y101400000I-80000J0D01*
G01*
X60542000Y101400000D01*
G75*
G02*
X60462000Y101480000I0J80000D01*
G01*
X60462000Y102120000D01*
G75*
G02*
X60542000Y102200000I80000J0D01*
G01*
G37*
G04 #@! TD*
D16*
G04 #@! TO.C,BT1*
X134600000Y92700000D03*
X134600000Y63400000D03*
G04 #@! TD*
G04 #@! TO.C,R5*
G36*
G01*
X142717000Y56942163D02*
X143497000Y56942163D01*
G75*
G02*
X143567000Y56872163I0J-70000D01*
G01*
X143567000Y56312163D01*
G75*
G02*
X143497000Y56242163I-70000J0D01*
G01*
X142717000Y56242163D01*
G75*
G02*
X142647000Y56312163I0J70000D01*
G01*
X142647000Y56872163D01*
G75*
G02*
X142717000Y56942163I70000J0D01*
G01*
G37*
G36*
G01*
X142717000Y55342163D02*
X143497000Y55342163D01*
G75*
G02*
X143567000Y55272163I0J-70000D01*
G01*
X143567000Y54712163D01*
G75*
G02*
X143497000Y54642163I-70000J0D01*
G01*
X142717000Y54642163D01*
G75*
G02*
X142647000Y54712163I0J70000D01*
G01*
X142647000Y55272163D01*
G75*
G02*
X142717000Y55342163I70000J0D01*
G01*
G37*
G04 #@! TD*
G04 #@! TO.C,U2*
G36*
G01*
X54200000Y104300000D02*
X54000000Y104300000D01*
G75*
G02*
X53900000Y104400000I0J100000D01*
G01*
X53900000Y104750000D01*
G75*
G02*
X54000000Y104850000I100000J0D01*
G01*
X54200000Y104850000D01*
G75*
G02*
X54300000Y104750000I0J-100000D01*
G01*
X54300000Y104400000D01*
G75*
G02*
X54200000Y104300000I-100000J0D01*
G01*
G37*
G36*
G01*
X54800000Y104300000D02*
X54600000Y104300000D01*
G75*
G02*
X54500000Y104400000I0J100000D01*
G01*
X54500000Y104750000D01*
G75*
G02*
X54600000Y104850000I100000J0D01*
G01*
X54800000Y104850000D01*
G75*
G02*
X54900000Y104750000I0J-100000D01*
G01*
X54900000Y104400000D01*
G75*
G02*
X54800000Y104300000I-100000J0D01*
G01*
G37*
G36*
G01*
X55500000Y104700000D02*
X55150000Y104700000D01*
G75*
G02*
X55050000Y104800000I0J100000D01*
G01*
X55050000Y105000000D01*
G75*
G02*
X55150000Y105100000I100000J0D01*
G01*
X55500000Y105100000D01*
G75*
G02*
X55600000Y105000000I0J-100000D01*
G01*
X55600000Y104800000D01*
G75*
G02*
X55500000Y104700000I-100000J0D01*
G01*
G37*
G36*
G01*
X55500000Y105300000D02*
X55150000Y105300000D01*
G75*
G02*
X55050000Y105400000I0J100000D01*
G01*
X55050000Y105600000D01*
G75*
G02*
X55150000Y105700000I100000J0D01*
G01*
X55500000Y105700000D01*
G75*
G02*
X55600000Y105600000I0J-100000D01*
G01*
X55600000Y105400000D01*
G75*
G02*
X55500000Y105300000I-100000J0D01*
G01*
G37*
G36*
G01*
X55500000Y105900000D02*
X55150000Y105900000D01*
G75*
G02*
X55050000Y106000000I0J100000D01*
G01*
X55050000Y106200000D01*
G75*
G02*
X55150000Y106300000I100000J0D01*
G01*
X55500000Y106300000D01*
G75*
G02*
X55600000Y106200000I0J-100000D01*
G01*
X55600000Y106000000D01*
G75*
G02*
X55500000Y105900000I-100000J0D01*
G01*
G37*
G36*
G01*
X54800000Y106150000D02*
X54600000Y106150000D01*
G75*
G02*
X54500000Y106250000I0J100000D01*
G01*
X54500000Y106600000D01*
G75*
G02*
X54600000Y106700000I100000J0D01*
G01*
X54800000Y106700000D01*
G75*
G02*
X54900000Y106600000I0J-100000D01*
G01*
X54900000Y106250000D01*
G75*
G02*
X54800000Y106150000I-100000J0D01*
G01*
G37*
G36*
G01*
X54200000Y106150000D02*
X54000000Y106150000D01*
G75*
G02*
X53900000Y106250000I0J100000D01*
G01*
X53900000Y106600000D01*
G75*
G02*
X54000000Y106700000I100000J0D01*
G01*
X54200000Y106700000D01*
G75*
G02*
X54300000Y106600000I0J-100000D01*
G01*
X54300000Y106250000D01*
G75*
G02*
X54200000Y106150000I-100000J0D01*
G01*
G37*
G36*
G01*
X53650000Y105900000D02*
X53300000Y105900000D01*
G75*
G02*
X53200000Y106000000I0J100000D01*
G01*
X53200000Y106200000D01*
G75*
G02*
X53300000Y106300000I100000J0D01*
G01*
X53650000Y106300000D01*
G75*
G02*
X53750000Y106200000I0J-100000D01*
G01*
X53750000Y106000000D01*
G75*
G02*
X53650000Y105900000I-100000J0D01*
G01*
G37*
G36*
G01*
X53650000Y105300000D02*
X53300000Y105300000D01*
G75*
G02*
X53200000Y105400000I0J100000D01*
G01*
X53200000Y105600000D01*
G75*
G02*
X53300000Y105700000I100000J0D01*
G01*
X53650000Y105700000D01*
G75*
G02*
X53750000Y105600000I0J-100000D01*
G01*
X53750000Y105400000D01*
G75*
G02*
X53650000Y105300000I-100000J0D01*
G01*
G37*
G36*
G01*
X53650000Y104700000D02*
X53300000Y104700000D01*
G75*
G02*
X53200000Y104800000I0J100000D01*
G01*
X53200000Y105000000D01*
G75*
G02*
X53300000Y105100000I100000J0D01*
G01*
X53650000Y105100000D01*
G75*
G02*
X53750000Y105000000I0J-100000D01*
G01*
X53750000Y104800000D01*
G75*
G02*
X53650000Y104700000I-100000J0D01*
G01*
G37*
G04 #@! TD*
G04 #@! TO.C,D5*
G36*
G01*
X15302000Y92825000D02*
X14822000Y92825000D01*
G75*
G02*
X14762000Y92885000I0J60000D01*
G01*
X14762000Y93365000D01*
G75*
G02*
X14822000Y93425000I60000J0D01*
G01*
X15302000Y93425000D01*
G75*
G02*
X15362000Y93365000I0J-60000D01*
G01*
X15362000Y92885000D01*
G75*
G02*
X15302000Y92825000I-60000J0D01*
G01*
G37*
G36*
G01*
X13102000Y92825000D02*
X12622000Y92825000D01*
G75*
G02*
X12562000Y92885000I0J60000D01*
G01*
X12562000Y93365000D01*
G75*
G02*
X12622000Y93425000I60000J0D01*
G01*
X13102000Y93425000D01*
G75*
G02*
X13162000Y93365000I0J-60000D01*
G01*
X13162000Y92885000D01*
G75*
G02*
X13102000Y92825000I-60000J0D01*
G01*
G37*
G04 #@! TD*
G04 #@! TO.C,R18*
G36*
G01*
X53274986Y101550001D02*
X53274986Y102330001D01*
G75*
G02*
X53344986Y102400001I70000J0D01*
G01*
X53904986Y102400001D01*
G75*
G02*
X53974986Y102330001I0J-70000D01*
G01*
X53974986Y101550001D01*
G75*
G02*
X53904986Y101480001I-70000J0D01*
G01*
X53344986Y101480001D01*
G75*
G02*
X53274986Y101550001I0J70000D01*
G01*
G37*
G36*
G01*
X54874986Y101550001D02*
X54874986Y102330001D01*
G75*
G02*
X54944986Y102400001I70000J0D01*
G01*
X55504986Y102400001D01*
G75*
G02*
X55574986Y102330001I0J-70000D01*
G01*
X55574986Y101550001D01*
G75*
G02*
X55504986Y101480001I-70000J0D01*
G01*
X54944986Y101480001D01*
G75*
G02*
X54874986Y101550001I0J70000D01*
G01*
G37*
G04 #@! TD*
G04 #@! TO.C,R10*
G36*
G01*
X12675000Y31425001D02*
X13925000Y31425001D01*
G75*
G02*
X14025000Y31325001I0J-100000D01*
G01*
X14025000Y30525001D01*
G75*
G02*
X13925000Y30425001I-100000J0D01*
G01*
X12675000Y30425001D01*
G75*
G02*
X12575000Y30525001I0J100000D01*
G01*
X12575000Y31325001D01*
G75*
G02*
X12675000Y31425001I100000J0D01*
G01*
G37*
G36*
G01*
X12675000Y29524979D02*
X13925000Y29524979D01*
G75*
G02*
X14025000Y29424979I0J-100000D01*
G01*
X14025000Y28624979D01*
G75*
G02*
X13925000Y28524979I-100000J0D01*
G01*
X12675000Y28524979D01*
G75*
G02*
X12575000Y28624979I0J100000D01*
G01*
X12575000Y29424979D01*
G75*
G02*
X12675000Y29524979I100000J0D01*
G01*
G37*
G04 #@! TD*
G04 #@! TO.C,D3*
G36*
G01*
X15302000Y94825000D02*
X14822000Y94825000D01*
G75*
G02*
X14762000Y94885000I0J60000D01*
G01*
X14762000Y95365000D01*
G75*
G02*
X14822000Y95425000I60000J0D01*
G01*
X15302000Y95425000D01*
G75*
G02*
X15362000Y95365000I0J-60000D01*
G01*
X15362000Y94885000D01*
G75*
G02*
X15302000Y94825000I-60000J0D01*
G01*
G37*
G36*
G01*
X13102000Y94825000D02*
X12622000Y94825000D01*
G75*
G02*
X12562000Y94885000I0J60000D01*
G01*
X12562000Y95365000D01*
G75*
G02*
X12622000Y95425000I60000J0D01*
G01*
X13102000Y95425000D01*
G75*
G02*
X13162000Y95365000I0J-60000D01*
G01*
X13162000Y94885000D01*
G75*
G02*
X13102000Y94825000I-60000J0D01*
G01*
G37*
G04 #@! TD*
G04 #@! TO.C,R9*
G36*
G01*
X52225000Y26599999D02*
X50975000Y26599999D01*
G75*
G02*
X50875000Y26699999I0J100000D01*
G01*
X50875000Y27499999D01*
G75*
G02*
X50975000Y27599999I100000J0D01*
G01*
X52225000Y27599999D01*
G75*
G02*
X52325000Y27499999I0J-100000D01*
G01*
X52325000Y26699999D01*
G75*
G02*
X52225000Y26599999I-100000J0D01*
G01*
G37*
G36*
G01*
X52225000Y28500021D02*
X50975000Y28500021D01*
G75*
G02*
X50875000Y28600021I0J100000D01*
G01*
X50875000Y29400021D01*
G75*
G02*
X50975000Y29500021I100000J0D01*
G01*
X52225000Y29500021D01*
G75*
G02*
X52325000Y29400021I0J-100000D01*
G01*
X52325000Y28600021D01*
G75*
G02*
X52225000Y28500021I-100000J0D01*
G01*
G37*
G04 #@! TD*
G04 #@! TO.C,C8*
G36*
G01*
X135762000Y57804000D02*
X135762000Y58754000D01*
G75*
G02*
X136012000Y59004000I250000J0D01*
G01*
X136512000Y59004000D01*
G75*
G02*
X136762000Y58754000I0J-250000D01*
G01*
X136762000Y57804000D01*
G75*
G02*
X136512000Y57554000I-250000J0D01*
G01*
X136012000Y57554000D01*
G75*
G02*
X135762000Y57804000I0J250000D01*
G01*
G37*
G36*
G01*
X137662000Y57804000D02*
X137662000Y58754000D01*
G75*
G02*
X137912000Y59004000I250000J0D01*
G01*
X138412000Y59004000D01*
G75*
G02*
X138662000Y58754000I0J-250000D01*
G01*
X138662000Y57804000D01*
G75*
G02*
X138412000Y57554000I-250000J0D01*
G01*
X137912000Y57554000D01*
G75*
G02*
X137662000Y57804000I0J250000D01*
G01*
G37*
G04 #@! TD*
G04 #@! TO.C,D9*
G36*
G01*
X132060000Y95400000D02*
X132540000Y95400000D01*
G75*
G02*
X132600000Y95340000I0J-60000D01*
G01*
X132600000Y94860000D01*
G75*
G02*
X132540000Y94800000I-60000J0D01*
G01*
X132060000Y94800000D01*
G75*
G02*
X132000000Y94860000I0J60000D01*
G01*
X132000000Y95340000D01*
G75*
G02*
X132060000Y95400000I60000J0D01*
G01*
G37*
G36*
G01*
X134260000Y95400000D02*
X134740000Y95400000D01*
G75*
G02*
X134800000Y95340000I0J-60000D01*
G01*
X134800000Y94860000D01*
G75*
G02*
X134740000Y94800000I-60000J0D01*
G01*
X134260000Y94800000D01*
G75*
G02*
X134200000Y94860000I0J60000D01*
G01*
X134200000Y95340000D01*
G75*
G02*
X134260000Y95400000I60000J0D01*
G01*
G37*
G04 #@! TD*
G04 #@! TO.C,R6*
G36*
G01*
X56735000Y41600000D02*
X57515000Y41600000D01*
G75*
G02*
X57585000Y41530000I0J-70000D01*
G01*
X57585000Y40970000D01*
G75*
G02*
X57515000Y40900000I-70000J0D01*
G01*
X56735000Y40900000D01*
G75*
G02*
X56665000Y40970000I0J70000D01*
G01*
X56665000Y41530000D01*
G75*
G02*
X56735000Y41600000I70000J0D01*
G01*
G37*
G36*
G01*
X56735000Y40000000D02*
X57515000Y40000000D01*
G75*
G02*
X57585000Y39930000I0J-70000D01*
G01*
X57585000Y39370000D01*
G75*
G02*
X57515000Y39300000I-70000J0D01*
G01*
X56735000Y39300000D01*
G75*
G02*
X56665000Y39370000I0J70000D01*
G01*
X56665000Y39930000D01*
G75*
G02*
X56735000Y40000000I70000J0D01*
G01*
G37*
G04 #@! TD*
G04 #@! TO.C,R19*
G36*
G01*
X56510000Y107450000D02*
X57290000Y107450000D01*
G75*
G02*
X57360000Y107380000I0J-70000D01*
G01*
X57360000Y106820000D01*
G75*
G02*
X57290000Y106750000I-70000J0D01*
G01*
X56510000Y106750000D01*
G75*
G02*
X56440000Y106820000I0J70000D01*
G01*
X56440000Y107380000D01*
G75*
G02*
X56510000Y107450000I70000J0D01*
G01*
G37*
G36*
G01*
X56510000Y105850000D02*
X57290000Y105850000D01*
G75*
G02*
X57360000Y105780000I0J-70000D01*
G01*
X57360000Y105220000D01*
G75*
G02*
X57290000Y105150000I-70000J0D01*
G01*
X56510000Y105150000D01*
G75*
G02*
X56440000Y105220000I0J70000D01*
G01*
X56440000Y105780000D01*
G75*
G02*
X56510000Y105850000I70000J0D01*
G01*
G37*
G04 #@! TD*
D17*
G04 #@! TO.C,D12*
X113303000Y42709400D03*
X110003000Y42709400D03*
G04 #@! TD*
G04 #@! TO.C,D11*
X114981400Y42709400D03*
X118281400Y42709400D03*
G04 #@! TD*
G04 #@! TO.C,C10*
G36*
G01*
X142150000Y60850000D02*
X142150000Y59900000D01*
G75*
G02*
X141900000Y59650000I-250000J0D01*
G01*
X141400000Y59650000D01*
G75*
G02*
X141150000Y59900000I0J250000D01*
G01*
X141150000Y60850000D01*
G75*
G02*
X141400000Y61100000I250000J0D01*
G01*
X141900000Y61100000D01*
G75*
G02*
X142150000Y60850000I0J-250000D01*
G01*
G37*
G36*
G01*
X140250000Y60850000D02*
X140250000Y59900000D01*
G75*
G02*
X140000000Y59650000I-250000J0D01*
G01*
X139500000Y59650000D01*
G75*
G02*
X139250000Y59900000I0J250000D01*
G01*
X139250000Y60850000D01*
G75*
G02*
X139500000Y61100000I250000J0D01*
G01*
X140000000Y61100000D01*
G75*
G02*
X140250000Y60850000I0J-250000D01*
G01*
G37*
G04 #@! TD*
G04 #@! TO.C,R2*
G36*
G01*
X46950000Y26619999D02*
X45700000Y26619999D01*
G75*
G02*
X45600000Y26719999I0J100000D01*
G01*
X45600000Y27519999D01*
G75*
G02*
X45700000Y27619999I100000J0D01*
G01*
X46950000Y27619999D01*
G75*
G02*
X47050000Y27519999I0J-100000D01*
G01*
X47050000Y26719999D01*
G75*
G02*
X46950000Y26619999I-100000J0D01*
G01*
G37*
G36*
G01*
X46950000Y28520021D02*
X45700000Y28520021D01*
G75*
G02*
X45600000Y28620021I0J100000D01*
G01*
X45600000Y29420021D01*
G75*
G02*
X45700000Y29520021I100000J0D01*
G01*
X46950000Y29520021D01*
G75*
G02*
X47050000Y29420021I0J-100000D01*
G01*
X47050000Y28620021D01*
G75*
G02*
X46950000Y28520021I-100000J0D01*
G01*
G37*
G04 #@! TD*
G04 #@! TO.C,D14*
X104350000Y41175000D03*
X101050000Y41175000D03*
G04 #@! TD*
G04 #@! TO.C,R12*
G36*
G01*
X14975000Y31425022D02*
X16225000Y31425022D01*
G75*
G02*
X16325000Y31325022I0J-100000D01*
G01*
X16325000Y30525022D01*
G75*
G02*
X16225000Y30425022I-100000J0D01*
G01*
X14975000Y30425022D01*
G75*
G02*
X14875000Y30525022I0J100000D01*
G01*
X14875000Y31325022D01*
G75*
G02*
X14975000Y31425022I100000J0D01*
G01*
G37*
G36*
G01*
X14975000Y29525000D02*
X16225000Y29525000D01*
G75*
G02*
X16325000Y29425000I0J-100000D01*
G01*
X16325000Y28625000D01*
G75*
G02*
X16225000Y28525000I-100000J0D01*
G01*
X14975000Y28525000D01*
G75*
G02*
X14875000Y28625000I0J100000D01*
G01*
X14875000Y29425000D01*
G75*
G02*
X14975000Y29525000I100000J0D01*
G01*
G37*
G04 #@! TD*
D11*
G04 #@! TO.C,F2*
X126975000Y27250000D03*
X126975000Y31250010D03*
G04 #@! TD*
G04 #@! TO.C,C14*
G36*
G01*
X134362000Y28800000D02*
X134362000Y29750000D01*
G75*
G02*
X134612000Y30000000I250000J0D01*
G01*
X135112000Y30000000D01*
G75*
G02*
X135362000Y29750000I0J-250000D01*
G01*
X135362000Y28800000D01*
G75*
G02*
X135112000Y28550000I-250000J0D01*
G01*
X134612000Y28550000D01*
G75*
G02*
X134362000Y28800000I0J250000D01*
G01*
G37*
G36*
G01*
X136262000Y28800000D02*
X136262000Y29750000D01*
G75*
G02*
X136512000Y30000000I250000J0D01*
G01*
X137012000Y30000000D01*
G75*
G02*
X137262000Y29750000I0J-250000D01*
G01*
X137262000Y28800000D01*
G75*
G02*
X137012000Y28550000I-250000J0D01*
G01*
X136512000Y28550000D01*
G75*
G02*
X136262000Y28800000I0J250000D01*
G01*
G37*
G04 #@! TD*
G04 #@! TO.C,C3*
G36*
G01*
X141722001Y55132163D02*
X141722001Y54452163D01*
G75*
G02*
X141637001Y54367163I-85000J0D01*
G01*
X140957001Y54367163D01*
G75*
G02*
X140872001Y54452163I0J85000D01*
G01*
X140872001Y55132163D01*
G75*
G02*
X140957001Y55217163I85000J0D01*
G01*
X141637001Y55217163D01*
G75*
G02*
X141722001Y55132163I0J-85000D01*
G01*
G37*
G36*
G01*
X140141999Y55132163D02*
X140141999Y54452163D01*
G75*
G02*
X140056999Y54367163I-85000J0D01*
G01*
X139376999Y54367163D01*
G75*
G02*
X139291999Y54452163I0J85000D01*
G01*
X139291999Y55132163D01*
G75*
G02*
X139376999Y55217163I85000J0D01*
G01*
X140056999Y55217163D01*
G75*
G02*
X140141999Y55132163I0J-85000D01*
G01*
G37*
G04 #@! TD*
G04 #@! TO.C,C2*
G36*
G01*
X134856998Y32835000D02*
X134856998Y33515000D01*
G75*
G02*
X134941998Y33600000I85000J0D01*
G01*
X135621998Y33600000D01*
G75*
G02*
X135706998Y33515000I0J-85000D01*
G01*
X135706998Y32835000D01*
G75*
G02*
X135621998Y32750000I-85000J0D01*
G01*
X134941998Y32750000D01*
G75*
G02*
X134856998Y32835000I0J85000D01*
G01*
G37*
G36*
G01*
X136437000Y32835000D02*
X136437000Y33515000D01*
G75*
G02*
X136522000Y33600000I85000J0D01*
G01*
X137202000Y33600000D01*
G75*
G02*
X137287000Y33515000I0J-85000D01*
G01*
X137287000Y32835000D01*
G75*
G02*
X137202000Y32750000I-85000J0D01*
G01*
X136522000Y32750000D01*
G75*
G02*
X136437000Y32835000I0J85000D01*
G01*
G37*
G04 #@! TD*
G04 #@! TO.C,C12*
G36*
G01*
X134362000Y26700000D02*
X134362000Y27650000D01*
G75*
G02*
X134612000Y27900000I250000J0D01*
G01*
X135112000Y27900000D01*
G75*
G02*
X135362000Y27650000I0J-250000D01*
G01*
X135362000Y26700000D01*
G75*
G02*
X135112000Y26450000I-250000J0D01*
G01*
X134612000Y26450000D01*
G75*
G02*
X134362000Y26700000I0J250000D01*
G01*
G37*
G36*
G01*
X136262000Y26700000D02*
X136262000Y27650000D01*
G75*
G02*
X136512000Y27900000I250000J0D01*
G01*
X137012000Y27900000D01*
G75*
G02*
X137262000Y27650000I0J-250000D01*
G01*
X137262000Y26700000D01*
G75*
G02*
X137012000Y26450000I-250000J0D01*
G01*
X136512000Y26450000D01*
G75*
G02*
X136262000Y26700000I0J250000D01*
G01*
G37*
G04 #@! TD*
G04 #@! TO.C,C7*
G36*
G01*
X135762000Y59912800D02*
X135762000Y60862800D01*
G75*
G02*
X136012000Y61112800I250000J0D01*
G01*
X136512000Y61112800D01*
G75*
G02*
X136762000Y60862800I0J-250000D01*
G01*
X136762000Y59912800D01*
G75*
G02*
X136512000Y59662800I-250000J0D01*
G01*
X136012000Y59662800D01*
G75*
G02*
X135762000Y59912800I0J250000D01*
G01*
G37*
G36*
G01*
X137662000Y59912800D02*
X137662000Y60862800D01*
G75*
G02*
X137912000Y61112800I250000J0D01*
G01*
X138412000Y61112800D01*
G75*
G02*
X138662000Y60862800I0J-250000D01*
G01*
X138662000Y59912800D01*
G75*
G02*
X138412000Y59662800I-250000J0D01*
G01*
X137912000Y59662800D01*
G75*
G02*
X137662000Y59912800I0J250000D01*
G01*
G37*
G04 #@! TD*
G04 #@! TO.C,C9*
G36*
G01*
X135762000Y55704000D02*
X135762000Y56654000D01*
G75*
G02*
X136012000Y56904000I250000J0D01*
G01*
X136512000Y56904000D01*
G75*
G02*
X136762000Y56654000I0J-250000D01*
G01*
X136762000Y55704000D01*
G75*
G02*
X136512000Y55454000I-250000J0D01*
G01*
X136012000Y55454000D01*
G75*
G02*
X135762000Y55704000I0J250000D01*
G01*
G37*
G36*
G01*
X137662000Y55704000D02*
X137662000Y56654000D01*
G75*
G02*
X137912000Y56904000I250000J0D01*
G01*
X138412000Y56904000D01*
G75*
G02*
X138662000Y56654000I0J-250000D01*
G01*
X138662000Y55704000D01*
G75*
G02*
X138412000Y55454000I-250000J0D01*
G01*
X137912000Y55454000D01*
G75*
G02*
X137662000Y55704000I0J250000D01*
G01*
G37*
G04 #@! TD*
G04 #@! TO.C,R20*
G36*
G01*
X10212000Y83790000D02*
X10212000Y83010000D01*
G75*
G02*
X10142000Y82940000I-70000J0D01*
G01*
X9582000Y82940000D01*
G75*
G02*
X9512000Y83010000I0J70000D01*
G01*
X9512000Y83790000D01*
G75*
G02*
X9582000Y83860000I70000J0D01*
G01*
X10142000Y83860000D01*
G75*
G02*
X10212000Y83790000I0J-70000D01*
G01*
G37*
G36*
G01*
X8612000Y83790000D02*
X8612000Y83010000D01*
G75*
G02*
X8542000Y82940000I-70000J0D01*
G01*
X7982000Y82940000D01*
G75*
G02*
X7912000Y83010000I0J70000D01*
G01*
X7912000Y83790000D01*
G75*
G02*
X7982000Y83860000I70000J0D01*
G01*
X8542000Y83860000D01*
G75*
G02*
X8612000Y83790000I0J-70000D01*
G01*
G37*
G04 #@! TD*
D10*
G04 #@! TO.C,M2*
X127107496Y94825008D03*
X88412498Y95369312D03*
X103287500Y98775023D03*
X127107501Y96725009D03*
X90112515Y93367335D03*
G04 #@! TD*
G04 #@! TO.C,R17*
G36*
G01*
X10212000Y93240000D02*
X10212000Y92460000D01*
G75*
G02*
X10142000Y92390000I-70000J0D01*
G01*
X9582000Y92390000D01*
G75*
G02*
X9512000Y92460000I0J70000D01*
G01*
X9512000Y93240000D01*
G75*
G02*
X9582000Y93310000I70000J0D01*
G01*
X10142000Y93310000D01*
G75*
G02*
X10212000Y93240000I0J-70000D01*
G01*
G37*
G36*
G01*
X8612000Y93240000D02*
X8612000Y92460000D01*
G75*
G02*
X8542000Y92390000I-70000J0D01*
G01*
X7982000Y92390000D01*
G75*
G02*
X7912000Y92460000I0J70000D01*
G01*
X7912000Y93240000D01*
G75*
G02*
X7982000Y93310000I70000J0D01*
G01*
X8542000Y93310000D01*
G75*
G02*
X8612000Y93240000I0J-70000D01*
G01*
G37*
G04 #@! TD*
G04 #@! TO.C,R3*
G36*
G01*
X41175000Y29455001D02*
X42425000Y29455001D01*
G75*
G02*
X42525000Y29355001I0J-100000D01*
G01*
X42525000Y28555001D01*
G75*
G02*
X42425000Y28455001I-100000J0D01*
G01*
X41175000Y28455001D01*
G75*
G02*
X41075000Y28555001I0J100000D01*
G01*
X41075000Y29355001D01*
G75*
G02*
X41175000Y29455001I100000J0D01*
G01*
G37*
G36*
G01*
X41175000Y27554979D02*
X42425000Y27554979D01*
G75*
G02*
X42525000Y27454979I0J-100000D01*
G01*
X42525000Y26654979D01*
G75*
G02*
X42425000Y26554979I-100000J0D01*
G01*
X41175000Y26554979D01*
G75*
G02*
X41075000Y26654979I0J100000D01*
G01*
X41075000Y27454979D01*
G75*
G02*
X41175000Y27554979I100000J0D01*
G01*
G37*
G04 #@! TD*
G04 #@! TO.C,S2*
G36*
G01*
X72545000Y101399999D02*
X70705000Y101399999D01*
G75*
G02*
X70625000Y101479999I0J80000D01*
G01*
X70625000Y102119999D01*
G75*
G02*
X70705000Y102199999I80000J0D01*
G01*
X72545000Y102199999D01*
G75*
G02*
X72625000Y102119999I0J-80000D01*
G01*
X72625000Y101479999D01*
G75*
G02*
X72545000Y101399999I-80000J0D01*
G01*
G37*
G36*
G01*
X72545000Y105600000D02*
X70705000Y105600000D01*
G75*
G02*
X70625000Y105680000I0J80000D01*
G01*
X70625000Y106320000D01*
G75*
G02*
X70705000Y106400000I80000J0D01*
G01*
X72545000Y106400000D01*
G75*
G02*
X72625000Y106320000I0J-80000D01*
G01*
X72625000Y105680000D01*
G75*
G02*
X72545000Y105600000I-80000J0D01*
G01*
G37*
G04 #@! TD*
G04 #@! TO.C,D7*
G36*
G01*
X14312000Y78505000D02*
X14312000Y79745000D01*
G75*
G02*
X14442000Y79875000I130000J0D01*
G01*
X15482000Y79875000D01*
G75*
G02*
X15612000Y79745000I0J-130000D01*
G01*
X15612000Y78505000D01*
G75*
G02*
X15482000Y78375000I-130000J0D01*
G01*
X14442000Y78375000D01*
G75*
G02*
X14312000Y78505000I0J130000D01*
G01*
G37*
G36*
G01*
X12411979Y78505000D02*
X12411979Y79745000D01*
G75*
G02*
X12541979Y79875000I130000J0D01*
G01*
X13581979Y79875000D01*
G75*
G02*
X13711979Y79745000I0J-130000D01*
G01*
X13711979Y78505000D01*
G75*
G02*
X13581979Y78375000I-130000J0D01*
G01*
X12541979Y78375000D01*
G75*
G02*
X12411979Y78505000I0J130000D01*
G01*
G37*
G04 #@! TD*
G04 #@! TO.C,C13*
G36*
G01*
X134362000Y24600000D02*
X134362000Y25550000D01*
G75*
G02*
X134612000Y25800000I250000J0D01*
G01*
X135112000Y25800000D01*
G75*
G02*
X135362000Y25550000I0J-250000D01*
G01*
X135362000Y24600000D01*
G75*
G02*
X135112000Y24350000I-250000J0D01*
G01*
X134612000Y24350000D01*
G75*
G02*
X134362000Y24600000I0J250000D01*
G01*
G37*
G36*
G01*
X136262000Y24600000D02*
X136262000Y25550000D01*
G75*
G02*
X136512000Y25800000I250000J0D01*
G01*
X137012000Y25800000D01*
G75*
G02*
X137262000Y25550000I0J-250000D01*
G01*
X137262000Y24600000D01*
G75*
G02*
X137012000Y24350000I-250000J0D01*
G01*
X136512000Y24350000D01*
G75*
G02*
X136262000Y24600000I0J250000D01*
G01*
G37*
G04 #@! TD*
G04 #@! TO.C,R1*
G36*
G01*
X140257000Y29498163D02*
X140257000Y30278163D01*
G75*
G02*
X140327000Y30348163I70000J0D01*
G01*
X140887000Y30348163D01*
G75*
G02*
X140957000Y30278163I0J-70000D01*
G01*
X140957000Y29498163D01*
G75*
G02*
X140887000Y29428163I-70000J0D01*
G01*
X140327000Y29428163D01*
G75*
G02*
X140257000Y29498163I0J70000D01*
G01*
G37*
G36*
G01*
X141857000Y29498163D02*
X141857000Y30278163D01*
G75*
G02*
X141927000Y30348163I70000J0D01*
G01*
X142487000Y30348163D01*
G75*
G02*
X142557000Y30278163I0J-70000D01*
G01*
X142557000Y29498163D01*
G75*
G02*
X142487000Y29428163I-70000J0D01*
G01*
X141927000Y29428163D01*
G75*
G02*
X141857000Y29498163I0J70000D01*
G01*
G37*
G04 #@! TD*
G04 #@! TO.C,D2*
G36*
G01*
X138167000Y31588163D02*
X138647000Y31588163D01*
G75*
G02*
X138707000Y31528163I0J-60000D01*
G01*
X138707000Y31048163D01*
G75*
G02*
X138647000Y30988163I-60000J0D01*
G01*
X138167000Y30988163D01*
G75*
G02*
X138107000Y31048163I0J60000D01*
G01*
X138107000Y31528163D01*
G75*
G02*
X138167000Y31588163I60000J0D01*
G01*
G37*
G36*
G01*
X140367000Y31588163D02*
X140847000Y31588163D01*
G75*
G02*
X140907000Y31528163I0J-60000D01*
G01*
X140907000Y31048163D01*
G75*
G02*
X140847000Y30988163I-60000J0D01*
G01*
X140367000Y30988163D01*
G75*
G02*
X140307000Y31048163I0J60000D01*
G01*
X140307000Y31528163D01*
G75*
G02*
X140367000Y31588163I60000J0D01*
G01*
G37*
G04 #@! TD*
G04 #@! TO.C,D6*
G36*
G01*
X14312000Y84505000D02*
X14312000Y85745000D01*
G75*
G02*
X14442000Y85875000I130000J0D01*
G01*
X15482000Y85875000D01*
G75*
G02*
X15612000Y85745000I0J-130000D01*
G01*
X15612000Y84505000D01*
G75*
G02*
X15482000Y84375000I-130000J0D01*
G01*
X14442000Y84375000D01*
G75*
G02*
X14312000Y84505000I0J130000D01*
G01*
G37*
G36*
G01*
X12411979Y84505000D02*
X12411979Y85745000D01*
G75*
G02*
X12541979Y85875000I130000J0D01*
G01*
X13581979Y85875000D01*
G75*
G02*
X13711979Y85745000I0J-130000D01*
G01*
X13711979Y84505000D01*
G75*
G02*
X13581979Y84375000I-130000J0D01*
G01*
X12541979Y84375000D01*
G75*
G02*
X12411979Y84505000I0J130000D01*
G01*
G37*
G04 #@! TD*
G04 #@! TO.C,C17*
G36*
G01*
X87215001Y107040000D02*
X87215001Y106360000D01*
G75*
G02*
X87130001Y106275000I-85000J0D01*
G01*
X86450001Y106275000D01*
G75*
G02*
X86365001Y106360000I0J85000D01*
G01*
X86365001Y107040000D01*
G75*
G02*
X86450001Y107125000I85000J0D01*
G01*
X87130001Y107125000D01*
G75*
G02*
X87215001Y107040000I0J-85000D01*
G01*
G37*
G36*
G01*
X85634999Y107040000D02*
X85634999Y106360000D01*
G75*
G02*
X85549999Y106275000I-85000J0D01*
G01*
X84869999Y106275000D01*
G75*
G02*
X84784999Y106360000I0J85000D01*
G01*
X84784999Y107040000D01*
G75*
G02*
X84869999Y107125000I85000J0D01*
G01*
X85549999Y107125000D01*
G75*
G02*
X85634999Y107040000I0J-85000D01*
G01*
G37*
G04 #@! TD*
G04 #@! TO.C,D1*
G36*
G01*
X139507000Y30128163D02*
X139507000Y29648163D01*
G75*
G02*
X139447000Y29588163I-60000J0D01*
G01*
X138967000Y29588163D01*
G75*
G02*
X138907000Y29648163I0J60000D01*
G01*
X138907000Y30128163D01*
G75*
G02*
X138967000Y30188163I60000J0D01*
G01*
X139447000Y30188163D01*
G75*
G02*
X139507000Y30128163I0J-60000D01*
G01*
G37*
G36*
G01*
X139507000Y27928163D02*
X139507000Y27448163D01*
G75*
G02*
X139447000Y27388163I-60000J0D01*
G01*
X138967000Y27388163D01*
G75*
G02*
X138907000Y27448163I0J60000D01*
G01*
X138907000Y27928163D01*
G75*
G02*
X138967000Y27988163I60000J0D01*
G01*
X139447000Y27988163D01*
G75*
G02*
X139507000Y27928163I0J-60000D01*
G01*
G37*
G04 #@! TD*
G04 #@! TO.C,C4*
G36*
G01*
X141867000Y33313163D02*
X142547000Y33313163D01*
G75*
G02*
X142632000Y33228163I0J-85000D01*
G01*
X142632000Y32548163D01*
G75*
G02*
X142547000Y32463163I-85000J0D01*
G01*
X141867000Y32463163D01*
G75*
G02*
X141782000Y32548163I0J85000D01*
G01*
X141782000Y33228163D01*
G75*
G02*
X141867000Y33313163I85000J0D01*
G01*
G37*
G36*
G01*
X141867000Y31733161D02*
X142547000Y31733161D01*
G75*
G02*
X142632000Y31648161I0J-85000D01*
G01*
X142632000Y30968161D01*
G75*
G02*
X142547000Y30883161I-85000J0D01*
G01*
X141867000Y30883161D01*
G75*
G02*
X141782000Y30968161I0J85000D01*
G01*
X141782000Y31648161D01*
G75*
G02*
X141867000Y31733161I85000J0D01*
G01*
G37*
G04 #@! TD*
G04 #@! TO.C,C1*
G36*
G01*
X136094998Y53739000D02*
X136094998Y54419000D01*
G75*
G02*
X136179998Y54504000I85000J0D01*
G01*
X136859998Y54504000D01*
G75*
G02*
X136944998Y54419000I0J-85000D01*
G01*
X136944998Y53739000D01*
G75*
G02*
X136859998Y53654000I-85000J0D01*
G01*
X136179998Y53654000D01*
G75*
G02*
X136094998Y53739000I0J85000D01*
G01*
G37*
G36*
G01*
X137675000Y53739000D02*
X137675000Y54419000D01*
G75*
G02*
X137760000Y54504000I85000J0D01*
G01*
X138440000Y54504000D01*
G75*
G02*
X138525000Y54419000I0J-85000D01*
G01*
X138525000Y53739000D01*
G75*
G02*
X138440000Y53654000I-85000J0D01*
G01*
X137760000Y53654000D01*
G75*
G02*
X137675000Y53739000I0J85000D01*
G01*
G37*
G04 #@! TD*
D12*
G04 #@! TO.C,D13*
X95200000Y43125000D03*
X95200000Y39825000D03*
G04 #@! TD*
G04 #@! TO.C,R23*
G36*
G01*
X77499000Y105237200D02*
X76719000Y105237200D01*
G75*
G02*
X76649000Y105307200I0J70000D01*
G01*
X76649000Y105867200D01*
G75*
G02*
X76719000Y105937200I70000J0D01*
G01*
X77499000Y105937200D01*
G75*
G02*
X77569000Y105867200I0J-70000D01*
G01*
X77569000Y105307200D01*
G75*
G02*
X77499000Y105237200I-70000J0D01*
G01*
G37*
G36*
G01*
X77499000Y106837200D02*
X76719000Y106837200D01*
G75*
G02*
X76649000Y106907200I0J70000D01*
G01*
X76649000Y107467200D01*
G75*
G02*
X76719000Y107537200I70000J0D01*
G01*
X77499000Y107537200D01*
G75*
G02*
X77569000Y107467200I0J-70000D01*
G01*
X77569000Y106907200D01*
G75*
G02*
X77499000Y106837200I-70000J0D01*
G01*
G37*
G04 #@! TD*
G04 #@! TO.C,R7*
G36*
G01*
X55335000Y41600000D02*
X56115000Y41600000D01*
G75*
G02*
X56185000Y41530000I0J-70000D01*
G01*
X56185000Y40970000D01*
G75*
G02*
X56115000Y40900000I-70000J0D01*
G01*
X55335000Y40900000D01*
G75*
G02*
X55265000Y40970000I0J70000D01*
G01*
X55265000Y41530000D01*
G75*
G02*
X55335000Y41600000I70000J0D01*
G01*
G37*
G36*
G01*
X55335000Y40000000D02*
X56115000Y40000000D01*
G75*
G02*
X56185000Y39930000I0J-70000D01*
G01*
X56185000Y39370000D01*
G75*
G02*
X56115000Y39300000I-70000J0D01*
G01*
X55335000Y39300000D01*
G75*
G02*
X55265000Y39370000I0J70000D01*
G01*
X55265000Y39930000D01*
G75*
G02*
X55335000Y40000000I70000J0D01*
G01*
G37*
G04 #@! TD*
D10*
G04 #@! TO.C,M8*
X93090985Y53412113D03*
X93005784Y47909548D03*
G36*
G01*
X84265989Y43487116D02*
X84265989Y43487116D01*
X84265989Y43487116D01*
X84265989Y43487116D01*
X84265989Y43487116D01*
G37*
X83765980Y46487113D03*
G04 #@! TD*
G04 #@! TO.C,R11*
G36*
G01*
X10375000Y31425001D02*
X11625000Y31425001D01*
G75*
G02*
X11725000Y31325001I0J-100000D01*
G01*
X11725000Y30525001D01*
G75*
G02*
X11625000Y30425001I-100000J0D01*
G01*
X10375000Y30425001D01*
G75*
G02*
X10275000Y30525001I0J100000D01*
G01*
X10275000Y31325001D01*
G75*
G02*
X10375000Y31425001I100000J0D01*
G01*
G37*
G36*
G01*
X10375000Y29524979D02*
X11625000Y29524979D01*
G75*
G02*
X11725000Y29424979I0J-100000D01*
G01*
X11725000Y28624979D01*
G75*
G02*
X11625000Y28524979I-100000J0D01*
G01*
X10375000Y28524979D01*
G75*
G02*
X10275000Y28624979I0J100000D01*
G01*
X10275000Y29424979D01*
G75*
G02*
X10375000Y29524979I100000J0D01*
G01*
G37*
G04 #@! TD*
M02*
