G04 #@! TF.GenerationSoftware,KiCad,Pcbnew,(5.99.0-12439-g94954386e6)*
G04 #@! TF.CreationDate,2021-10-12T01:17:31+03:00*
G04 #@! TF.ProjectId,hellen121vag,68656c6c-656e-4313-9231-7661672e6b69,b*
G04 #@! TF.SameCoordinates,PX2b953a0PY6943058*
G04 #@! TF.FileFunction,Profile,NP*
%FSLAX46Y46*%
G04 Gerber Fmt 4.6, Leading zero omitted, Abs format (unit mm)*
G04 Created by KiCad (PCBNEW (5.99.0-12439-g94954386e6)) date 2021-10-12 01:17:31*
%MOMM*%
%LPD*%
G01*
G04 APERTURE LIST*
G04 #@! TA.AperFunction,Profile*
%ADD10C,0.200000*%
G04 #@! TD*
G04 APERTURE END LIST*
D10*
X137960000Y0D02*
X149315200Y2000000D01*
X12860000Y114140000D02*
X12860000Y116585787D01*
X2300000Y80150000D02*
G75*
G02*
X2300000Y77150000I167J-1500000D01*
G01*
X160140000Y105140001D02*
G75*
G02*
X151140000Y114140001I0J9000000D01*
G01*
X14700000Y2000000D02*
X14700000Y8208001D01*
X10200000Y12650002D02*
G75*
G02*
X14700000Y8208001I-46893J-4547884D01*
G01*
X161700000Y80150001D02*
X164000000Y80150001D01*
X149300001Y8088001D02*
G75*
G02*
X153887200Y12650000I4569203J-7175D01*
G01*
X0Y14064214D02*
X0Y77150000D01*
X3860000Y105140000D02*
X1414214Y105140000D01*
X149725787Y118000001D02*
X14274214Y118000000D01*
X162585787Y12650000D02*
X153887200Y12650000D01*
X2300000Y77150000D02*
X0Y77150000D01*
X149315200Y2000000D02*
X149300000Y8088001D01*
X137960000Y0D02*
X26040000Y0D01*
X164000000Y14064214D02*
X164000000Y77150001D01*
X12860000Y116585787D02*
X14274214Y118000000D01*
X164000000Y80150001D02*
X164000000Y103725787D01*
X151140000Y116585787D02*
X149725787Y118000000D01*
X2300000Y80150000D02*
X0Y80150000D01*
X26040000Y0D02*
X14700000Y2000000D01*
X164000001Y103725787D02*
X162585787Y105140001D01*
X160140000Y105140001D02*
X162585787Y105140001D01*
X161700000Y77150001D02*
X164000000Y77150001D01*
X164000000Y14064214D02*
X162585787Y12650001D01*
X12860000Y114140000D02*
G75*
G02*
X3860000Y105140000I-9000000J0D01*
G01*
X0Y103725787D02*
X1414214Y105140000D01*
X151140000Y114140001D02*
X151140000Y116585787D01*
X161700000Y77150001D02*
G75*
G02*
X161700000Y80150001I0J1500000D01*
G01*
X0Y80150001D02*
X0Y103725787D01*
X0Y14064214D02*
X1414214Y12650001D01*
X1414214Y12650000D02*
X10200000Y12650000D01*
M02*
