G04 #@! TF.GenerationSoftware,KiCad,Pcbnew,(5.99.0-9206-g896188ca5e)*
G04 #@! TF.CreationDate,2021-02-20T22:34:01+02:00*
G04 #@! TF.ProjectId,hellen121vag,68656c6c-656e-4313-9231-7661672e6b69,a*
G04 #@! TF.SameCoordinates,PX2b953a0PY6943058*
G04 #@! TF.FileFunction,Soldermask,Top*
G04 #@! TF.FilePolarity,Negative*
%FSLAX46Y46*%
G04 Gerber Fmt 4.6, Leading zero omitted, Abs format (unit mm)*
G04 Created by KiCad (PCBNEW (5.99.0-9206-g896188ca5e)) date 2021-02-20 22:34:01*
%MOMM*%
%LPD*%
G01*
G04 APERTURE LIST*
%ADD10O,1.240000X2.540000*%
%ADD11C,1.240000*%
%ADD12C,3.840000*%
%ADD13C,2.340000*%
%ADD14C,2.740000*%
%ADD15C,1.640000*%
%ADD16C,1.840000*%
%ADD17O,0.639999X0.390000*%
%ADD18O,0.390000X0.639999*%
%ADD19C,0.739999*%
%ADD20O,0.340000X0.539999*%
%ADD21O,1.140001X1.640000*%
%ADD22O,0.940001X0.739999*%
%ADD23C,1.664000*%
%ADD24O,1.140001X0.639999*%
%ADD25O,0.340000X0.639999*%
%ADD26C,0.200000*%
G04 APERTURE END LIST*
D10*
G04 #@! TO.C,J1*
X79400000Y103175000D03*
X86700000Y103175000D03*
D11*
X84650000Y102300000D03*
X83850000Y104050000D03*
X83050000Y102300000D03*
X82250000Y104050000D03*
G36*
G01*
X80830000Y101750000D02*
X80830000Y102850000D01*
G75*
G02*
X80900000Y102920000I70000J0D01*
G01*
X82000000Y102920000D01*
G75*
G02*
X82070000Y102850000I0J-70000D01*
G01*
X82070000Y101750000D01*
G75*
G02*
X82000000Y101680000I-70000J0D01*
G01*
X80900000Y101680000D01*
G75*
G02*
X80830000Y101750000I0J70000D01*
G01*
G37*
G04 #@! TD*
D12*
G04 #@! TO.C,P1*
X145348000Y5492000D03*
X18648000Y5492000D03*
D13*
X142898000Y13292000D03*
X21098000Y13292000D03*
D12*
X93148000Y5492000D03*
D14*
X25748000Y10492000D03*
X31548000Y10492000D03*
X28648000Y12822000D03*
X25748000Y18622000D03*
X31548000Y18622000D03*
D15*
X85168000Y18622000D03*
X82628000Y18622000D03*
X80088000Y18622000D03*
X77548000Y18622000D03*
X75008000Y18622000D03*
X72468000Y18622000D03*
X69928000Y18622000D03*
X67388000Y18622000D03*
X64848000Y18622000D03*
X62308000Y18622000D03*
X59768000Y18622000D03*
X57228000Y18622000D03*
X54688000Y18622000D03*
X52148000Y18622000D03*
X49608000Y18622000D03*
X47068000Y18622000D03*
X44528000Y18622000D03*
X41988000Y18622000D03*
X39448000Y18622000D03*
X85168000Y16082000D03*
X82628000Y16082000D03*
X80088000Y16082000D03*
X77548000Y16082000D03*
X75008000Y16082000D03*
X72468000Y16082000D03*
X69928000Y16082000D03*
X67388000Y16082000D03*
X64848000Y16082000D03*
X62308000Y16082000D03*
X59768000Y16082000D03*
X57228000Y16082000D03*
X54688000Y16082000D03*
X52148000Y16082000D03*
X49608000Y16082000D03*
X47068000Y16082000D03*
X44528000Y16082000D03*
X41988000Y16082000D03*
X39448000Y16082000D03*
X85168000Y10032000D03*
X82628000Y10032000D03*
X80088000Y10032000D03*
X77548000Y10032000D03*
X75008000Y10032000D03*
X72468000Y10032000D03*
X69928000Y10032000D03*
X67388000Y10032000D03*
X64848000Y10032000D03*
X62308000Y10032000D03*
X59768000Y10032000D03*
X57228000Y10032000D03*
X54688000Y10032000D03*
X52148000Y10032000D03*
X49608000Y10032000D03*
X47068000Y10032000D03*
X44528000Y10032000D03*
X41988000Y10032000D03*
X39448000Y10032000D03*
X85168000Y7492000D03*
X82628000Y7492000D03*
X80088000Y7492000D03*
X77548000Y7492000D03*
X75008000Y7492000D03*
X72468000Y7492000D03*
X69928000Y7492000D03*
X67388000Y7492000D03*
X64848000Y7492000D03*
X62308000Y7492000D03*
X59768000Y7492000D03*
X57228000Y7492000D03*
X54688000Y7492000D03*
X52148000Y7492000D03*
X49608000Y7492000D03*
X47068000Y7492000D03*
X44528000Y7492000D03*
X41988000Y7492000D03*
X39448000Y7492000D03*
X101138000Y7492000D03*
X103678000Y7492000D03*
X106218000Y7492000D03*
X108758000Y7492000D03*
X111298000Y7492000D03*
X113838000Y7492000D03*
X116378000Y7492000D03*
X118918000Y7492000D03*
X101138000Y10032000D03*
X103678000Y10032000D03*
X106218000Y10032000D03*
X108758000Y10032000D03*
X111298000Y10032000D03*
X113838000Y10032000D03*
X116378000Y10032000D03*
X118918000Y10032000D03*
X101138000Y16082000D03*
X103678000Y16082000D03*
X106218000Y16082000D03*
X108758000Y16082000D03*
X111298000Y16082000D03*
X113838000Y16082000D03*
X116378000Y16082000D03*
X118918000Y16082000D03*
X101138000Y18622000D03*
X103678000Y18622000D03*
X106218000Y18622000D03*
X108758000Y18622000D03*
X111298000Y18622000D03*
X113838000Y18622000D03*
X116378000Y18622000D03*
X118918000Y18622000D03*
D14*
X126748000Y10492000D03*
X132548000Y10492000D03*
X138448000Y10492000D03*
X129648000Y12822000D03*
X135548000Y12822000D03*
X126748000Y18622000D03*
X132548000Y18622000D03*
X138448000Y18622000D03*
G04 #@! TD*
G04 #@! TO.C,M3*
G36*
G01*
X75712499Y59646376D02*
X75712499Y59196376D01*
G75*
G02*
X75517499Y59001376I-195000J0D01*
G01*
X75517499Y59001376D01*
G75*
G02*
X75322499Y59196376I0J195000D01*
G01*
X75322499Y59646376D01*
G75*
G02*
X75517499Y59841376I195000J0D01*
G01*
X75517499Y59841376D01*
G75*
G02*
X75712499Y59646376I0J-195000D01*
G01*
G37*
G04 #@! TD*
D16*
G04 #@! TO.C,V20*
X51350000Y32650000D03*
G04 #@! TD*
G04 #@! TO.C,V9*
X74400000Y32375000D03*
G04 #@! TD*
D17*
G04 #@! TO.C,M1*
X50537495Y97531666D03*
D18*
X40187501Y97581664D03*
X40687502Y97581664D03*
D19*
X47237499Y98631662D03*
X46362497Y99156662D03*
X47537501Y99906660D03*
X47462498Y103456661D03*
G04 #@! TD*
D20*
G04 #@! TO.C,M7*
X34517335Y83814583D03*
X33757356Y83814583D03*
X32582363Y83814583D03*
X31407376Y83814583D03*
X30567464Y83814583D03*
X29817392Y83814583D03*
X28642381Y83814583D03*
X27467384Y83814583D03*
D19*
X32507387Y93914190D03*
X34342397Y93489182D03*
X32292389Y92939185D03*
X32507384Y92064226D03*
X32582391Y91214203D03*
X34342397Y90889187D03*
X33032397Y89589220D03*
X34342397Y88939203D03*
X28417382Y96114206D03*
X32492388Y95814204D03*
G04 #@! TD*
D21*
G04 #@! TO.C,M6*
X120232431Y44851221D03*
X118976566Y44851221D03*
X104601540Y44851221D03*
D22*
X95546542Y48347505D03*
G04 #@! TD*
D16*
G04 #@! TO.C,V40*
X48650000Y32650000D03*
G04 #@! TD*
G04 #@! TO.C,V61*
X40675000Y32650000D03*
G04 #@! TD*
G04 #@! TO.C,V17*
X57175000Y28300000D03*
G04 #@! TD*
G04 #@! TO.C,V69*
X92325000Y27975000D03*
G04 #@! TD*
G04 #@! TO.C,V67*
X89575000Y27975000D03*
G04 #@! TD*
G04 #@! TO.C,VOUT3*
X105750000Y40325000D03*
G04 #@! TD*
G04 #@! TO.C,V11*
X69100000Y32375000D03*
G04 #@! TD*
G04 #@! TO.C,R4*
G36*
G01*
X54701600Y26098000D02*
X54498400Y26098000D01*
G75*
G02*
X54428400Y26168000I0J70000D01*
G01*
X54428400Y27692000D01*
G75*
G02*
X54498400Y27762000I70000J0D01*
G01*
X54701600Y27762000D01*
G75*
G02*
X54771600Y27692000I0J-70000D01*
G01*
X54771600Y26168000D01*
G75*
G02*
X54701600Y26098000I-70000J0D01*
G01*
G37*
D23*
X54600000Y26295000D03*
G36*
G01*
X55281000Y26679999D02*
X53919000Y26679999D01*
G75*
G02*
X53805000Y26793999I0J114000D01*
G01*
X53805000Y27705999D01*
G75*
G02*
X53919000Y27819999I114000J0D01*
G01*
X55281000Y27819999D01*
G75*
G02*
X55395000Y27705999I0J-114000D01*
G01*
X55395000Y26793999D01*
G75*
G02*
X55281000Y26679999I-114000J0D01*
G01*
G37*
G36*
G01*
X55281000Y28580021D02*
X53919000Y28580021D01*
G75*
G02*
X53805000Y28694021I0J114000D01*
G01*
X53805000Y29606021D01*
G75*
G02*
X53919000Y29720021I114000J0D01*
G01*
X55281000Y29720021D01*
G75*
G02*
X55395000Y29606021I0J-114000D01*
G01*
X55395000Y28694021D01*
G75*
G02*
X55281000Y28580021I-114000J0D01*
G01*
G37*
G36*
G01*
X54701600Y28638000D02*
X54498400Y28638000D01*
G75*
G02*
X54428400Y28708000I0J70000D01*
G01*
X54428400Y30232000D01*
G75*
G02*
X54498400Y30302000I70000J0D01*
G01*
X54701600Y30302000D01*
G75*
G02*
X54771600Y30232000I0J-70000D01*
G01*
X54771600Y28708000D01*
G75*
G02*
X54701600Y28638000I-70000J0D01*
G01*
G37*
X54600000Y30105000D03*
G04 #@! TD*
D16*
G04 #@! TO.C,VIN4*
X47850000Y41525000D03*
G04 #@! TD*
G04 #@! TO.C,V52*
X63700000Y32375000D03*
G04 #@! TD*
G04 #@! TO.C,V74*
X45925000Y32650000D03*
G04 #@! TD*
G04 #@! TO.C,VIN1*
X44450000Y41550000D03*
G04 #@! TD*
G04 #@! TO.C,R8*
G36*
G01*
X49031000Y26529999D02*
X47669000Y26529999D01*
G75*
G02*
X47555000Y26643999I0J114000D01*
G01*
X47555000Y27555999D01*
G75*
G02*
X47669000Y27669999I114000J0D01*
G01*
X49031000Y27669999D01*
G75*
G02*
X49145000Y27555999I0J-114000D01*
G01*
X49145000Y26643999D01*
G75*
G02*
X49031000Y26529999I-114000J0D01*
G01*
G37*
D23*
X48350000Y26145000D03*
G36*
G01*
X48451600Y25948000D02*
X48248400Y25948000D01*
G75*
G02*
X48178400Y26018000I0J70000D01*
G01*
X48178400Y27542000D01*
G75*
G02*
X48248400Y27612000I70000J0D01*
G01*
X48451600Y27612000D01*
G75*
G02*
X48521600Y27542000I0J-70000D01*
G01*
X48521600Y26018000D01*
G75*
G02*
X48451600Y25948000I-70000J0D01*
G01*
G37*
G36*
G01*
X48451600Y28488000D02*
X48248400Y28488000D01*
G75*
G02*
X48178400Y28558000I0J70000D01*
G01*
X48178400Y30082000D01*
G75*
G02*
X48248400Y30152000I70000J0D01*
G01*
X48451600Y30152000D01*
G75*
G02*
X48521600Y30082000I0J-70000D01*
G01*
X48521600Y28558000D01*
G75*
G02*
X48451600Y28488000I-70000J0D01*
G01*
G37*
X48350000Y29955000D03*
G36*
G01*
X49031000Y28430021D02*
X47669000Y28430021D01*
G75*
G02*
X47555000Y28544021I0J114000D01*
G01*
X47555000Y29456021D01*
G75*
G02*
X47669000Y29570021I114000J0D01*
G01*
X49031000Y29570021D01*
G75*
G02*
X49145000Y29456021I0J-114000D01*
G01*
X49145000Y28544021D01*
G75*
G02*
X49031000Y28430021I-114000J0D01*
G01*
G37*
G04 #@! TD*
G04 #@! TO.C,F1*
G36*
G01*
X125045000Y28161990D02*
X125045000Y27387990D01*
G75*
G02*
X124787000Y27129990I-258000J0D01*
G01*
X123363000Y27129990D01*
G75*
G02*
X123105000Y27387990I0J258000D01*
G01*
X123105000Y28161990D01*
G75*
G02*
X123363000Y28419990I258000J0D01*
G01*
X124787000Y28419990D01*
G75*
G02*
X125045000Y28161990I0J-258000D01*
G01*
G37*
G36*
G01*
X124176600Y26418000D02*
X123973400Y26418000D01*
G75*
G02*
X123903400Y26488000I0J70000D01*
G01*
X123903400Y28012000D01*
G75*
G02*
X123973400Y28082000I70000J0D01*
G01*
X124176600Y28082000D01*
G75*
G02*
X124246600Y28012000I0J-70000D01*
G01*
X124246600Y26488000D01*
G75*
G02*
X124176600Y26418000I-70000J0D01*
G01*
G37*
X124075000Y26775000D03*
G36*
G01*
X125045000Y31062010D02*
X125045000Y30288010D01*
G75*
G02*
X124787000Y30030010I-258000J0D01*
G01*
X123363000Y30030010D01*
G75*
G02*
X123105000Y30288010I0J258000D01*
G01*
X123105000Y31062010D01*
G75*
G02*
X123363000Y31320010I258000J0D01*
G01*
X124787000Y31320010D01*
G75*
G02*
X125045000Y31062010I0J-258000D01*
G01*
G37*
X124075000Y31675000D03*
G36*
G01*
X124176600Y30418010D02*
X123973400Y30418010D01*
G75*
G02*
X123903400Y30488010I0J70000D01*
G01*
X123903400Y32012010D01*
G75*
G02*
X123973400Y32082010I70000J0D01*
G01*
X124176600Y32082010D01*
G75*
G02*
X124246600Y32012010I0J-70000D01*
G01*
X124246600Y30488010D01*
G75*
G02*
X124176600Y30418010I-70000J0D01*
G01*
G37*
G04 #@! TD*
G04 #@! TO.C,S1*
G36*
G01*
X63899000Y106470001D02*
X65851000Y106470001D01*
G75*
G02*
X65945000Y106376001I0J-94000D01*
G01*
X65945000Y105624001D01*
G75*
G02*
X65851000Y105530001I-94000J0D01*
G01*
X63899000Y105530001D01*
G75*
G02*
X63805000Y105624001I0J94000D01*
G01*
X63805000Y106376001D01*
G75*
G02*
X63899000Y106470001I94000J0D01*
G01*
G37*
G36*
G01*
X63899000Y102270000D02*
X65851000Y102270000D01*
G75*
G02*
X65945000Y102176000I0J-94000D01*
G01*
X65945000Y101424000D01*
G75*
G02*
X65851000Y101330000I-94000J0D01*
G01*
X63899000Y101330000D01*
G75*
G02*
X63805000Y101424000I0J94000D01*
G01*
X63805000Y102176000D01*
G75*
G02*
X63899000Y102270000I94000J0D01*
G01*
G37*
G04 #@! TD*
D16*
G04 #@! TO.C,V10*
X71750000Y32375000D03*
G04 #@! TD*
G04 #@! TO.C,V44*
X79700000Y32375000D03*
G04 #@! TD*
G04 #@! TO.C,VIN2*
X53500000Y41525000D03*
G04 #@! TD*
G04 #@! TO.C,D1*
G36*
G01*
X74505000Y43979000D02*
X74505000Y44871000D01*
G75*
G02*
X74579000Y44945000I74000J0D01*
G01*
X75171000Y44945000D01*
G75*
G02*
X75245000Y44871000I0J-74000D01*
G01*
X75245000Y43979000D01*
G75*
G02*
X75171000Y43905000I-74000J0D01*
G01*
X74579000Y43905000D01*
G75*
G02*
X74505000Y43979000I0J74000D01*
G01*
G37*
G36*
G01*
X75455000Y43979000D02*
X75455000Y44871000D01*
G75*
G02*
X75529000Y44945000I74000J0D01*
G01*
X76121000Y44945000D01*
G75*
G02*
X76195000Y44871000I0J-74000D01*
G01*
X76195000Y43979000D01*
G75*
G02*
X76121000Y43905000I-74000J0D01*
G01*
X75529000Y43905000D01*
G75*
G02*
X75455000Y43979000I0J74000D01*
G01*
G37*
G36*
G01*
X76405000Y43979000D02*
X76405000Y44871000D01*
G75*
G02*
X76479000Y44945000I74000J0D01*
G01*
X77071000Y44945000D01*
G75*
G02*
X77145000Y44871000I0J-74000D01*
G01*
X77145000Y43979000D01*
G75*
G02*
X77071000Y43905000I-74000J0D01*
G01*
X76479000Y43905000D01*
G75*
G02*
X76405000Y43979000I0J74000D01*
G01*
G37*
G36*
G01*
X76405000Y46379000D02*
X76405000Y47271000D01*
G75*
G02*
X76479000Y47345000I74000J0D01*
G01*
X77071000Y47345000D01*
G75*
G02*
X77145000Y47271000I0J-74000D01*
G01*
X77145000Y46379000D01*
G75*
G02*
X77071000Y46305000I-74000J0D01*
G01*
X76479000Y46305000D01*
G75*
G02*
X76405000Y46379000I0J74000D01*
G01*
G37*
G36*
G01*
X75455000Y46379000D02*
X75455000Y47271000D01*
G75*
G02*
X75529000Y47345000I74000J0D01*
G01*
X76121000Y47345000D01*
G75*
G02*
X76195000Y47271000I0J-74000D01*
G01*
X76195000Y46379000D01*
G75*
G02*
X76121000Y46305000I-74000J0D01*
G01*
X75529000Y46305000D01*
G75*
G02*
X75455000Y46379000I0J74000D01*
G01*
G37*
G36*
G01*
X74505000Y46379000D02*
X74505000Y47271000D01*
G75*
G02*
X74579000Y47345000I74000J0D01*
G01*
X75171000Y47345000D01*
G75*
G02*
X75245000Y47271000I0J-74000D01*
G01*
X75245000Y46379000D01*
G75*
G02*
X75171000Y46305000I-74000J0D01*
G01*
X74579000Y46305000D01*
G75*
G02*
X74505000Y46379000I0J74000D01*
G01*
G37*
G04 #@! TD*
G04 #@! TO.C,V49*
X72625000Y27975000D03*
G04 #@! TD*
G04 #@! TO.C,VIN3*
X50675000Y41525000D03*
G04 #@! TD*
G04 #@! TO.C,V28*
X77050000Y32375000D03*
G04 #@! TD*
G04 #@! TO.C,R9*
G36*
G01*
X51701600Y25948000D02*
X51498400Y25948000D01*
G75*
G02*
X51428400Y26018000I0J70000D01*
G01*
X51428400Y27542000D01*
G75*
G02*
X51498400Y27612000I70000J0D01*
G01*
X51701600Y27612000D01*
G75*
G02*
X51771600Y27542000I0J-70000D01*
G01*
X51771600Y26018000D01*
G75*
G02*
X51701600Y25948000I-70000J0D01*
G01*
G37*
D23*
X51600000Y26145000D03*
G36*
G01*
X52281000Y26529999D02*
X50919000Y26529999D01*
G75*
G02*
X50805000Y26643999I0J114000D01*
G01*
X50805000Y27555999D01*
G75*
G02*
X50919000Y27669999I114000J0D01*
G01*
X52281000Y27669999D01*
G75*
G02*
X52395000Y27555999I0J-114000D01*
G01*
X52395000Y26643999D01*
G75*
G02*
X52281000Y26529999I-114000J0D01*
G01*
G37*
G36*
G01*
X51701600Y28488000D02*
X51498400Y28488000D01*
G75*
G02*
X51428400Y28558000I0J70000D01*
G01*
X51428400Y30082000D01*
G75*
G02*
X51498400Y30152000I70000J0D01*
G01*
X51701600Y30152000D01*
G75*
G02*
X51771600Y30082000I0J-70000D01*
G01*
X51771600Y28558000D01*
G75*
G02*
X51701600Y28488000I-70000J0D01*
G01*
G37*
G36*
G01*
X52281000Y28430021D02*
X50919000Y28430021D01*
G75*
G02*
X50805000Y28544021I0J114000D01*
G01*
X50805000Y29456021D01*
G75*
G02*
X50919000Y29570021I114000J0D01*
G01*
X52281000Y29570021D01*
G75*
G02*
X52395000Y29456021I0J-114000D01*
G01*
X52395000Y28544021D01*
G75*
G02*
X52281000Y28430021I-114000J0D01*
G01*
G37*
X51600000Y29955000D03*
G04 #@! TD*
D16*
G04 #@! TO.C,V71*
X95075000Y27975000D03*
G04 #@! TD*
G04 #@! TO.C,V14*
X63850000Y28025000D03*
G04 #@! TD*
G04 #@! TO.C,R6*
G36*
G01*
X57054000Y41670000D02*
X57946000Y41670000D01*
G75*
G02*
X58030000Y41586000I0J-84000D01*
G01*
X58030000Y40914000D01*
G75*
G02*
X57946000Y40830000I-84000J0D01*
G01*
X57054000Y40830000D01*
G75*
G02*
X56970000Y40914000I0J84000D01*
G01*
X56970000Y41586000D01*
G75*
G02*
X57054000Y41670000I84000J0D01*
G01*
G37*
G36*
G01*
X57054000Y40070000D02*
X57946000Y40070000D01*
G75*
G02*
X58030000Y39986000I0J-84000D01*
G01*
X58030000Y39314000D01*
G75*
G02*
X57946000Y39230000I-84000J0D01*
G01*
X57054000Y39230000D01*
G75*
G02*
X56970000Y39314000I0J84000D01*
G01*
X56970000Y39986000D01*
G75*
G02*
X57054000Y40070000I84000J0D01*
G01*
G37*
G04 #@! TD*
G04 #@! TO.C,VOUT1*
X90500000Y40300000D03*
G04 #@! TD*
G04 #@! TO.C,V43*
X38150000Y32650000D03*
G04 #@! TD*
G04 #@! TO.C,V51*
X66350000Y32375000D03*
G04 #@! TD*
G04 #@! TO.C,R5*
G36*
G01*
X71309000Y47320000D02*
X72091000Y47320000D01*
G75*
G02*
X72170000Y47241000I0J-79000D01*
G01*
X72170000Y46609000D01*
G75*
G02*
X72091000Y46530000I-79000J0D01*
G01*
X71309000Y46530000D01*
G75*
G02*
X71230000Y46609000I0J79000D01*
G01*
X71230000Y47241000D01*
G75*
G02*
X71309000Y47320000I79000J0D01*
G01*
G37*
G36*
G01*
X71289000Y46345000D02*
X72111000Y46345000D01*
G75*
G02*
X72170000Y46286000I0J-59000D01*
G01*
X72170000Y45814000D01*
G75*
G02*
X72111000Y45755000I-59000J0D01*
G01*
X71289000Y45755000D01*
G75*
G02*
X71230000Y45814000I0J59000D01*
G01*
X71230000Y46286000D01*
G75*
G02*
X71289000Y46345000I59000J0D01*
G01*
G37*
G36*
G01*
X71289000Y45545000D02*
X72111000Y45545000D01*
G75*
G02*
X72170000Y45486000I0J-59000D01*
G01*
X72170000Y45014000D01*
G75*
G02*
X72111000Y44955000I-59000J0D01*
G01*
X71289000Y44955000D01*
G75*
G02*
X71230000Y45014000I0J59000D01*
G01*
X71230000Y45486000D01*
G75*
G02*
X71289000Y45545000I59000J0D01*
G01*
G37*
G36*
G01*
X71309000Y44770000D02*
X72091000Y44770000D01*
G75*
G02*
X72170000Y44691000I0J-79000D01*
G01*
X72170000Y44059000D01*
G75*
G02*
X72091000Y43980000I-79000J0D01*
G01*
X71309000Y43980000D01*
G75*
G02*
X71230000Y44059000I0J79000D01*
G01*
X71230000Y44691000D01*
G75*
G02*
X71309000Y44770000I79000J0D01*
G01*
G37*
G36*
G01*
X73109000Y44770000D02*
X73891000Y44770000D01*
G75*
G02*
X73970000Y44691000I0J-79000D01*
G01*
X73970000Y44059000D01*
G75*
G02*
X73891000Y43980000I-79000J0D01*
G01*
X73109000Y43980000D01*
G75*
G02*
X73030000Y44059000I0J79000D01*
G01*
X73030000Y44691000D01*
G75*
G02*
X73109000Y44770000I79000J0D01*
G01*
G37*
G36*
G01*
X73089000Y45545000D02*
X73911000Y45545000D01*
G75*
G02*
X73970000Y45486000I0J-59000D01*
G01*
X73970000Y45014000D01*
G75*
G02*
X73911000Y44955000I-59000J0D01*
G01*
X73089000Y44955000D01*
G75*
G02*
X73030000Y45014000I0J59000D01*
G01*
X73030000Y45486000D01*
G75*
G02*
X73089000Y45545000I59000J0D01*
G01*
G37*
G36*
G01*
X73089000Y46345000D02*
X73911000Y46345000D01*
G75*
G02*
X73970000Y46286000I0J-59000D01*
G01*
X73970000Y45814000D01*
G75*
G02*
X73911000Y45755000I-59000J0D01*
G01*
X73089000Y45755000D01*
G75*
G02*
X73030000Y45814000I0J59000D01*
G01*
X73030000Y46286000D01*
G75*
G02*
X73089000Y46345000I59000J0D01*
G01*
G37*
G36*
G01*
X73109000Y47320000D02*
X73891000Y47320000D01*
G75*
G02*
X73970000Y47241000I0J-79000D01*
G01*
X73970000Y46609000D01*
G75*
G02*
X73891000Y46530000I-79000J0D01*
G01*
X73109000Y46530000D01*
G75*
G02*
X73030000Y46609000I0J79000D01*
G01*
X73030000Y47241000D01*
G75*
G02*
X73109000Y47320000I79000J0D01*
G01*
G37*
G04 #@! TD*
G04 #@! TO.C,R2*
G36*
G01*
X46426600Y25968000D02*
X46223400Y25968000D01*
G75*
G02*
X46153400Y26038000I0J70000D01*
G01*
X46153400Y27562000D01*
G75*
G02*
X46223400Y27632000I70000J0D01*
G01*
X46426600Y27632000D01*
G75*
G02*
X46496600Y27562000I0J-70000D01*
G01*
X46496600Y26038000D01*
G75*
G02*
X46426600Y25968000I-70000J0D01*
G01*
G37*
G36*
G01*
X47006000Y26549999D02*
X45644000Y26549999D01*
G75*
G02*
X45530000Y26663999I0J114000D01*
G01*
X45530000Y27575999D01*
G75*
G02*
X45644000Y27689999I114000J0D01*
G01*
X47006000Y27689999D01*
G75*
G02*
X47120000Y27575999I0J-114000D01*
G01*
X47120000Y26663999D01*
G75*
G02*
X47006000Y26549999I-114000J0D01*
G01*
G37*
D23*
X46325000Y26165000D03*
G36*
G01*
X47006000Y28450021D02*
X45644000Y28450021D01*
G75*
G02*
X45530000Y28564021I0J114000D01*
G01*
X45530000Y29476021D01*
G75*
G02*
X45644000Y29590021I114000J0D01*
G01*
X47006000Y29590021D01*
G75*
G02*
X47120000Y29476021I0J-114000D01*
G01*
X47120000Y28564021D01*
G75*
G02*
X47006000Y28450021I-114000J0D01*
G01*
G37*
X46325000Y29975000D03*
G36*
G01*
X46426600Y28508000D02*
X46223400Y28508000D01*
G75*
G02*
X46153400Y28578000I0J70000D01*
G01*
X46153400Y30102000D01*
G75*
G02*
X46223400Y30172000I70000J0D01*
G01*
X46426600Y30172000D01*
G75*
G02*
X46496600Y30102000I0J-70000D01*
G01*
X46496600Y28578000D01*
G75*
G02*
X46426600Y28508000I-70000J0D01*
G01*
G37*
G04 #@! TD*
G04 #@! TO.C,F2*
X126975000Y26775000D03*
G36*
G01*
X127945000Y28161990D02*
X127945000Y27387990D01*
G75*
G02*
X127687000Y27129990I-258000J0D01*
G01*
X126263000Y27129990D01*
G75*
G02*
X126005000Y27387990I0J258000D01*
G01*
X126005000Y28161990D01*
G75*
G02*
X126263000Y28419990I258000J0D01*
G01*
X127687000Y28419990D01*
G75*
G02*
X127945000Y28161990I0J-258000D01*
G01*
G37*
G36*
G01*
X127076600Y26418000D02*
X126873400Y26418000D01*
G75*
G02*
X126803400Y26488000I0J70000D01*
G01*
X126803400Y28012000D01*
G75*
G02*
X126873400Y28082000I70000J0D01*
G01*
X127076600Y28082000D01*
G75*
G02*
X127146600Y28012000I0J-70000D01*
G01*
X127146600Y26488000D01*
G75*
G02*
X127076600Y26418000I-70000J0D01*
G01*
G37*
X126975000Y31675000D03*
G36*
G01*
X127076600Y30418010D02*
X126873400Y30418010D01*
G75*
G02*
X126803400Y30488010I0J70000D01*
G01*
X126803400Y32012010D01*
G75*
G02*
X126873400Y32082010I70000J0D01*
G01*
X127076600Y32082010D01*
G75*
G02*
X127146600Y32012010I0J-70000D01*
G01*
X127146600Y30488010D01*
G75*
G02*
X127076600Y30418010I-70000J0D01*
G01*
G37*
G36*
G01*
X127945000Y31062010D02*
X127945000Y30288010D01*
G75*
G02*
X127687000Y30030010I-258000J0D01*
G01*
X126263000Y30030010D01*
G75*
G02*
X126005000Y30288010I0J258000D01*
G01*
X126005000Y31062010D01*
G75*
G02*
X126263000Y31320010I258000J0D01*
G01*
X127687000Y31320010D01*
G75*
G02*
X127945000Y31062010I0J-258000D01*
G01*
G37*
G04 #@! TD*
D16*
G04 #@! TO.C,V63*
X86850000Y27975000D03*
G04 #@! TD*
D17*
G04 #@! TO.C,M5*
X36739072Y58363535D03*
X36739072Y57488535D03*
X36739072Y56788534D03*
X18914074Y56338535D03*
X18914074Y58738538D03*
G04 #@! TD*
D16*
G04 #@! TO.C,VOUT2*
X102900000Y40325000D03*
G04 #@! TD*
G04 #@! TO.C,V46*
X78950000Y27975000D03*
G04 #@! TD*
G04 #@! TO.C,V13*
X66575000Y28025000D03*
G04 #@! TD*
G04 #@! TO.C,V45*
X81650000Y27975000D03*
G04 #@! TD*
D24*
G04 #@! TO.C,M2*
X126494996Y94825008D03*
D19*
X114574999Y98550019D03*
X100375000Y98550019D03*
X125474998Y98550019D03*
X88111732Y98550019D03*
D24*
X126495001Y96725009D03*
D19*
X89500005Y94750007D03*
G04 #@! TD*
D16*
G04 #@! TO.C,V12*
X69375000Y28025000D03*
G04 #@! TD*
G04 #@! TO.C,R3*
G36*
G01*
X42481000Y26484999D02*
X41119000Y26484999D01*
G75*
G02*
X41005000Y26598999I0J114000D01*
G01*
X41005000Y27510999D01*
G75*
G02*
X41119000Y27624999I114000J0D01*
G01*
X42481000Y27624999D01*
G75*
G02*
X42595000Y27510999I0J-114000D01*
G01*
X42595000Y26598999D01*
G75*
G02*
X42481000Y26484999I-114000J0D01*
G01*
G37*
D23*
X41800000Y26100000D03*
G36*
G01*
X41901600Y25903000D02*
X41698400Y25903000D01*
G75*
G02*
X41628400Y25973000I0J70000D01*
G01*
X41628400Y27497000D01*
G75*
G02*
X41698400Y27567000I70000J0D01*
G01*
X41901600Y27567000D01*
G75*
G02*
X41971600Y27497000I0J-70000D01*
G01*
X41971600Y25973000D01*
G75*
G02*
X41901600Y25903000I-70000J0D01*
G01*
G37*
G36*
G01*
X41901600Y28443000D02*
X41698400Y28443000D01*
G75*
G02*
X41628400Y28513000I0J70000D01*
G01*
X41628400Y30037000D01*
G75*
G02*
X41698400Y30107000I70000J0D01*
G01*
X41901600Y30107000D01*
G75*
G02*
X41971600Y30037000I0J-70000D01*
G01*
X41971600Y28513000D01*
G75*
G02*
X41901600Y28443000I-70000J0D01*
G01*
G37*
G36*
G01*
X42481000Y28385021D02*
X41119000Y28385021D01*
G75*
G02*
X41005000Y28499021I0J114000D01*
G01*
X41005000Y29411021D01*
G75*
G02*
X41119000Y29525021I114000J0D01*
G01*
X42481000Y29525021D01*
G75*
G02*
X42595000Y29411021I0J-114000D01*
G01*
X42595000Y28499021D01*
G75*
G02*
X42481000Y28385021I-114000J0D01*
G01*
G37*
X41800000Y29910000D03*
G04 #@! TD*
G04 #@! TO.C,S2*
G36*
G01*
X72601000Y101329999D02*
X70649000Y101329999D01*
G75*
G02*
X70555000Y101423999I0J94000D01*
G01*
X70555000Y102175999D01*
G75*
G02*
X70649000Y102269999I94000J0D01*
G01*
X72601000Y102269999D01*
G75*
G02*
X72695000Y102175999I0J-94000D01*
G01*
X72695000Y101423999D01*
G75*
G02*
X72601000Y101329999I-94000J0D01*
G01*
G37*
G36*
G01*
X72601000Y105530000D02*
X70649000Y105530000D01*
G75*
G02*
X70555000Y105624000I0J94000D01*
G01*
X70555000Y106376000D01*
G75*
G02*
X70649000Y106470000I94000J0D01*
G01*
X72601000Y106470000D01*
G75*
G02*
X72695000Y106376000I0J-94000D01*
G01*
X72695000Y105624000D01*
G75*
G02*
X72601000Y105530000I-94000J0D01*
G01*
G37*
G04 #@! TD*
D16*
G04 #@! TO.C,V68*
X85050000Y32350000D03*
G04 #@! TD*
G04 #@! TO.C,V48*
X75375000Y28000000D03*
G04 #@! TD*
G04 #@! TO.C,V80*
X35625000Y32650000D03*
G04 #@! TD*
G04 #@! TO.C,R1*
G36*
G01*
X77584000Y47370000D02*
X78366000Y47370000D01*
G75*
G02*
X78445000Y47291000I0J-79000D01*
G01*
X78445000Y46659000D01*
G75*
G02*
X78366000Y46580000I-79000J0D01*
G01*
X77584000Y46580000D01*
G75*
G02*
X77505000Y46659000I0J79000D01*
G01*
X77505000Y47291000D01*
G75*
G02*
X77584000Y47370000I79000J0D01*
G01*
G37*
G36*
G01*
X77564000Y46395000D02*
X78386000Y46395000D01*
G75*
G02*
X78445000Y46336000I0J-59000D01*
G01*
X78445000Y45864000D01*
G75*
G02*
X78386000Y45805000I-59000J0D01*
G01*
X77564000Y45805000D01*
G75*
G02*
X77505000Y45864000I0J59000D01*
G01*
X77505000Y46336000D01*
G75*
G02*
X77564000Y46395000I59000J0D01*
G01*
G37*
G36*
G01*
X77564000Y45595000D02*
X78386000Y45595000D01*
G75*
G02*
X78445000Y45536000I0J-59000D01*
G01*
X78445000Y45064000D01*
G75*
G02*
X78386000Y45005000I-59000J0D01*
G01*
X77564000Y45005000D01*
G75*
G02*
X77505000Y45064000I0J59000D01*
G01*
X77505000Y45536000D01*
G75*
G02*
X77564000Y45595000I59000J0D01*
G01*
G37*
G36*
G01*
X77584000Y44820000D02*
X78366000Y44820000D01*
G75*
G02*
X78445000Y44741000I0J-79000D01*
G01*
X78445000Y44109000D01*
G75*
G02*
X78366000Y44030000I-79000J0D01*
G01*
X77584000Y44030000D01*
G75*
G02*
X77505000Y44109000I0J79000D01*
G01*
X77505000Y44741000D01*
G75*
G02*
X77584000Y44820000I79000J0D01*
G01*
G37*
G36*
G01*
X79384000Y44820000D02*
X80166000Y44820000D01*
G75*
G02*
X80245000Y44741000I0J-79000D01*
G01*
X80245000Y44109000D01*
G75*
G02*
X80166000Y44030000I-79000J0D01*
G01*
X79384000Y44030000D01*
G75*
G02*
X79305000Y44109000I0J79000D01*
G01*
X79305000Y44741000D01*
G75*
G02*
X79384000Y44820000I79000J0D01*
G01*
G37*
G36*
G01*
X79364000Y45595000D02*
X80186000Y45595000D01*
G75*
G02*
X80245000Y45536000I0J-59000D01*
G01*
X80245000Y45064000D01*
G75*
G02*
X80186000Y45005000I-59000J0D01*
G01*
X79364000Y45005000D01*
G75*
G02*
X79305000Y45064000I0J59000D01*
G01*
X79305000Y45536000D01*
G75*
G02*
X79364000Y45595000I59000J0D01*
G01*
G37*
G36*
G01*
X79364000Y46395000D02*
X80186000Y46395000D01*
G75*
G02*
X80245000Y46336000I0J-59000D01*
G01*
X80245000Y45864000D01*
G75*
G02*
X80186000Y45805000I-59000J0D01*
G01*
X79364000Y45805000D01*
G75*
G02*
X79305000Y45864000I0J59000D01*
G01*
X79305000Y46336000D01*
G75*
G02*
X79364000Y46395000I59000J0D01*
G01*
G37*
G36*
G01*
X79384000Y47370000D02*
X80166000Y47370000D01*
G75*
G02*
X80245000Y47291000I0J-79000D01*
G01*
X80245000Y46659000D01*
G75*
G02*
X80166000Y46580000I-79000J0D01*
G01*
X79384000Y46580000D01*
G75*
G02*
X79305000Y46659000I0J79000D01*
G01*
X79305000Y47291000D01*
G75*
G02*
X79384000Y47370000I79000J0D01*
G01*
G37*
G04 #@! TD*
G04 #@! TO.C,V41*
X43200000Y32650000D03*
G04 #@! TD*
G04 #@! TO.C,V64*
X84300000Y27975000D03*
G04 #@! TD*
G04 #@! TO.C,C1*
G36*
G01*
X75360001Y100046000D02*
X75360001Y99254000D01*
G75*
G02*
X75261001Y99155000I-99000J0D01*
G01*
X74469001Y99155000D01*
G75*
G02*
X74370001Y99254000I0J99000D01*
G01*
X74370001Y100046000D01*
G75*
G02*
X74469001Y100145000I99000J0D01*
G01*
X75261001Y100145000D01*
G75*
G02*
X75360001Y100046000I0J-99000D01*
G01*
G37*
G36*
G01*
X73779999Y100046000D02*
X73779999Y99254000D01*
G75*
G02*
X73680999Y99155000I-99000J0D01*
G01*
X72888999Y99155000D01*
G75*
G02*
X72789999Y99254000I0J99000D01*
G01*
X72789999Y100046000D01*
G75*
G02*
X72888999Y100145000I99000J0D01*
G01*
X73680999Y100145000D01*
G75*
G02*
X73779999Y100046000I0J-99000D01*
G01*
G37*
G04 #@! TD*
G04 #@! TO.C,R7*
G36*
G01*
X55654000Y41670000D02*
X56546000Y41670000D01*
G75*
G02*
X56630000Y41586000I0J-84000D01*
G01*
X56630000Y40914000D01*
G75*
G02*
X56546000Y40830000I-84000J0D01*
G01*
X55654000Y40830000D01*
G75*
G02*
X55570000Y40914000I0J84000D01*
G01*
X55570000Y41586000D01*
G75*
G02*
X55654000Y41670000I84000J0D01*
G01*
G37*
G36*
G01*
X55654000Y40070000D02*
X56546000Y40070000D01*
G75*
G02*
X56630000Y39986000I0J-84000D01*
G01*
X56630000Y39314000D01*
G75*
G02*
X56546000Y39230000I-84000J0D01*
G01*
X55654000Y39230000D01*
G75*
G02*
X55570000Y39314000I0J84000D01*
G01*
X55570000Y39986000D01*
G75*
G02*
X55654000Y40070000I84000J0D01*
G01*
G37*
G04 #@! TD*
D24*
G04 #@! TO.C,M8*
X90783985Y53412113D03*
D25*
X75258985Y49362103D03*
D19*
X89608984Y57912112D03*
X81383984Y56587108D03*
X81401489Y51354614D03*
X83283985Y50862108D03*
X75933992Y49737122D03*
G04 #@! TD*
D16*
G04 #@! TO.C,V56*
X56000000Y32600000D03*
G04 #@! TD*
G04 #@! TO.C,V66*
X82375000Y32375000D03*
G04 #@! TD*
G04 #@! TO.C,V70*
X87700000Y32350000D03*
G04 #@! TD*
D26*
X151076000Y112125435D02*
X151076000Y112094800D01*
X151094907Y112036609D01*
X151097079Y112035031D01*
X151164731Y111744891D01*
X151165518Y111741752D01*
X151168744Y111729711D01*
X151169634Y111726593D01*
X151340595Y111163009D01*
X151341586Y111159924D01*
X151345593Y111148120D01*
X151346684Y111145070D01*
X151554139Y110593874D01*
X151555327Y110590868D01*
X151560097Y110579350D01*
X151561388Y110576371D01*
X151804449Y110039924D01*
X151805837Y110036991D01*
X151811351Y110025811D01*
X151812829Y110022934D01*
X152090455Y109503532D01*
X152092028Y109500700D01*
X152098261Y109489904D01*
X152099927Y109487125D01*
X152410929Y108986993D01*
X152412686Y108984269D01*
X152419612Y108973904D01*
X152421454Y108971242D01*
X152764501Y108492521D01*
X152766432Y108489918D01*
X152774021Y108480028D01*
X152776034Y108477491D01*
X153149656Y108022232D01*
X153151752Y108019762D01*
X153159971Y108010390D01*
X153162146Y108007989D01*
X153564743Y107578140D01*
X153566996Y107575812D01*
X153575811Y107566997D01*
X153578139Y107564744D01*
X154007988Y107162147D01*
X154010389Y107159972D01*
X154019761Y107151753D01*
X154022231Y107149657D01*
X154477490Y106776035D01*
X154480027Y106774022D01*
X154489917Y106766433D01*
X154492520Y106764502D01*
X154971241Y106421455D01*
X154973903Y106419613D01*
X154984268Y106412687D01*
X154986992Y106410930D01*
X155487124Y106099928D01*
X155489903Y106098262D01*
X155500699Y106092029D01*
X155503531Y106090456D01*
X156022933Y105812830D01*
X156025810Y105811352D01*
X156036990Y105805838D01*
X156039923Y105804450D01*
X156576370Y105561389D01*
X156579349Y105560098D01*
X156590867Y105555328D01*
X156593873Y105554140D01*
X157145069Y105346685D01*
X157148119Y105345594D01*
X157159923Y105341587D01*
X157163008Y105340596D01*
X157726592Y105169635D01*
X157729710Y105168745D01*
X157741751Y105165519D01*
X157744890Y105164732D01*
X158166215Y105066492D01*
X158143860Y99679132D01*
X158134183Y99631511D01*
X158112576Y99599464D01*
X158098974Y99590456D01*
X158098974Y99677145D01*
X158080067Y99735335D01*
X158030567Y99771299D01*
X158016701Y99774722D01*
X157187903Y99916802D01*
X156268891Y100140345D01*
X155449990Y100388497D01*
X154805546Y100636360D01*
X154184302Y100909707D01*
X153463651Y101257608D01*
X152670508Y101703751D01*
X151851286Y102274724D01*
X151106581Y102845665D01*
X150486375Y103416254D01*
X149790995Y104111634D01*
X149171117Y104855487D01*
X148724203Y105476202D01*
X148276972Y106147048D01*
X147904716Y106792292D01*
X147532485Y107511938D01*
X147184781Y108331527D01*
X146812393Y109324562D01*
X146564659Y110290724D01*
X146415677Y111134953D01*
X146316091Y111881849D01*
X146304526Y111985933D01*
X146279309Y112041680D01*
X146226140Y112071957D01*
X146206132Y112074000D01*
X146093519Y112074000D01*
X146097675Y112122370D01*
X146115468Y112156682D01*
X146145038Y112181575D01*
X146188712Y112195420D01*
X146195568Y112195800D01*
X151059593Y112195800D01*
X151076000Y112125435D01*
G36*
X151076000Y112125435D02*
G01*
X151076000Y112094800D01*
X151094907Y112036609D01*
X151097079Y112035031D01*
X151164731Y111744891D01*
X151165518Y111741752D01*
X151168744Y111729711D01*
X151169634Y111726593D01*
X151340595Y111163009D01*
X151341586Y111159924D01*
X151345593Y111148120D01*
X151346684Y111145070D01*
X151554139Y110593874D01*
X151555327Y110590868D01*
X151560097Y110579350D01*
X151561388Y110576371D01*
X151804449Y110039924D01*
X151805837Y110036991D01*
X151811351Y110025811D01*
X151812829Y110022934D01*
X152090455Y109503532D01*
X152092028Y109500700D01*
X152098261Y109489904D01*
X152099927Y109487125D01*
X152410929Y108986993D01*
X152412686Y108984269D01*
X152419612Y108973904D01*
X152421454Y108971242D01*
X152764501Y108492521D01*
X152766432Y108489918D01*
X152774021Y108480028D01*
X152776034Y108477491D01*
X153149656Y108022232D01*
X153151752Y108019762D01*
X153159971Y108010390D01*
X153162146Y108007989D01*
X153564743Y107578140D01*
X153566996Y107575812D01*
X153575811Y107566997D01*
X153578139Y107564744D01*
X154007988Y107162147D01*
X154010389Y107159972D01*
X154019761Y107151753D01*
X154022231Y107149657D01*
X154477490Y106776035D01*
X154480027Y106774022D01*
X154489917Y106766433D01*
X154492520Y106764502D01*
X154971241Y106421455D01*
X154973903Y106419613D01*
X154984268Y106412687D01*
X154986992Y106410930D01*
X155487124Y106099928D01*
X155489903Y106098262D01*
X155500699Y106092029D01*
X155503531Y106090456D01*
X156022933Y105812830D01*
X156025810Y105811352D01*
X156036990Y105805838D01*
X156039923Y105804450D01*
X156576370Y105561389D01*
X156579349Y105560098D01*
X156590867Y105555328D01*
X156593873Y105554140D01*
X157145069Y105346685D01*
X157148119Y105345594D01*
X157159923Y105341587D01*
X157163008Y105340596D01*
X157726592Y105169635D01*
X157729710Y105168745D01*
X157741751Y105165519D01*
X157744890Y105164732D01*
X158166215Y105066492D01*
X158143860Y99679132D01*
X158134183Y99631511D01*
X158112576Y99599464D01*
X158098974Y99590456D01*
X158098974Y99677145D01*
X158080067Y99735335D01*
X158030567Y99771299D01*
X158016701Y99774722D01*
X157187903Y99916802D01*
X156268891Y100140345D01*
X155449990Y100388497D01*
X154805546Y100636360D01*
X154184302Y100909707D01*
X153463651Y101257608D01*
X152670508Y101703751D01*
X151851286Y102274724D01*
X151106581Y102845665D01*
X150486375Y103416254D01*
X149790995Y104111634D01*
X149171117Y104855487D01*
X148724203Y105476202D01*
X148276972Y106147048D01*
X147904716Y106792292D01*
X147532485Y107511938D01*
X147184781Y108331527D01*
X146812393Y109324562D01*
X146564659Y110290724D01*
X146415677Y111134953D01*
X146316091Y111881849D01*
X146304526Y111985933D01*
X146279309Y112041680D01*
X146226140Y112071957D01*
X146206132Y112074000D01*
X146093519Y112074000D01*
X146097675Y112122370D01*
X146115468Y112156682D01*
X146145038Y112181575D01*
X146188712Y112195420D01*
X146195568Y112195800D01*
X151059593Y112195800D01*
X151076000Y112125435D01*
G37*
X158318448Y105030996D02*
X158321607Y105030314D01*
X158333833Y105027881D01*
X158337028Y105027299D01*
X158918105Y104931363D01*
X158921312Y104930888D01*
X158933672Y104929261D01*
X158936888Y104928891D01*
X159522996Y104871165D01*
X159526227Y104870900D01*
X159538666Y104870085D01*
X159541900Y104869926D01*
X160130528Y104850656D01*
X160132147Y104850616D01*
X160138380Y104850514D01*
X160140000Y104850501D01*
X162465871Y104850501D01*
X163701000Y103615371D01*
X163701000Y80439501D01*
X161700000Y80439501D01*
X161695907Y80439416D01*
X161680176Y80438765D01*
X161676094Y80438512D01*
X161429202Y80418054D01*
X161421084Y80417042D01*
X161390050Y80411864D01*
X161382040Y80410185D01*
X161141883Y80349369D01*
X161134041Y80347034D01*
X161104283Y80336818D01*
X161096660Y80333844D01*
X160869788Y80234329D01*
X160862437Y80230735D01*
X160834766Y80215760D01*
X160827737Y80211571D01*
X160620339Y80076071D01*
X160613679Y80071316D01*
X160588851Y80051991D01*
X160582608Y80046704D01*
X160400341Y79878915D01*
X160394556Y79873130D01*
X160373247Y79849983D01*
X160367958Y79843738D01*
X160215794Y79648238D01*
X160211040Y79641579D01*
X160193831Y79615239D01*
X160189642Y79608210D01*
X160071732Y79390331D01*
X160068138Y79382978D01*
X160055500Y79354165D01*
X160052526Y79346544D01*
X159972086Y79112229D01*
X159969752Y79104389D01*
X159962028Y79073890D01*
X159960348Y79065880D01*
X159919571Y78821521D01*
X159918559Y78813401D01*
X159915961Y78782045D01*
X159915623Y78773870D01*
X159915623Y78526132D01*
X159915961Y78517957D01*
X159918559Y78486601D01*
X159919571Y78478481D01*
X159960348Y78234122D01*
X159962028Y78226112D01*
X159969752Y78195613D01*
X159972086Y78187773D01*
X160052526Y77953458D01*
X160055500Y77945837D01*
X160068138Y77917024D01*
X160071732Y77909671D01*
X160189642Y77691792D01*
X160193831Y77684763D01*
X160211040Y77658423D01*
X160215794Y77651764D01*
X160367958Y77456264D01*
X160373247Y77450019D01*
X160394556Y77426872D01*
X160400341Y77421087D01*
X160582608Y77253298D01*
X160588851Y77248011D01*
X160613679Y77228686D01*
X160620339Y77223931D01*
X160827737Y77088431D01*
X160834766Y77084242D01*
X160862437Y77069267D01*
X160869788Y77065673D01*
X161096660Y76966158D01*
X161104283Y76963184D01*
X161134041Y76952968D01*
X161141883Y76950633D01*
X161382040Y76889817D01*
X161390050Y76888138D01*
X161421084Y76882960D01*
X161429202Y76881948D01*
X161676094Y76861490D01*
X161680176Y76861237D01*
X161695907Y76860586D01*
X161700000Y76860501D01*
X163701000Y76860501D01*
X163701000Y14214430D01*
X162993660Y13467289D01*
X162465871Y12939500D01*
X158098581Y12939500D01*
X158098974Y99677145D01*
X158080067Y99735335D01*
X158030567Y99771299D01*
X158016702Y99774722D01*
X157898975Y99794904D01*
X157898999Y105128798D01*
X158318448Y105030996D01*
G36*
X158318448Y105030996D02*
G01*
X158321607Y105030314D01*
X158333833Y105027881D01*
X158337028Y105027299D01*
X158918105Y104931363D01*
X158921312Y104930888D01*
X158933672Y104929261D01*
X158936888Y104928891D01*
X159522996Y104871165D01*
X159526227Y104870900D01*
X159538666Y104870085D01*
X159541900Y104869926D01*
X160130528Y104850656D01*
X160132147Y104850616D01*
X160138380Y104850514D01*
X160140000Y104850501D01*
X162465871Y104850501D01*
X163701000Y103615371D01*
X163701000Y80439501D01*
X161700000Y80439501D01*
X161695907Y80439416D01*
X161680176Y80438765D01*
X161676094Y80438512D01*
X161429202Y80418054D01*
X161421084Y80417042D01*
X161390050Y80411864D01*
X161382040Y80410185D01*
X161141883Y80349369D01*
X161134041Y80347034D01*
X161104283Y80336818D01*
X161096660Y80333844D01*
X160869788Y80234329D01*
X160862437Y80230735D01*
X160834766Y80215760D01*
X160827737Y80211571D01*
X160620339Y80076071D01*
X160613679Y80071316D01*
X160588851Y80051991D01*
X160582608Y80046704D01*
X160400341Y79878915D01*
X160394556Y79873130D01*
X160373247Y79849983D01*
X160367958Y79843738D01*
X160215794Y79648238D01*
X160211040Y79641579D01*
X160193831Y79615239D01*
X160189642Y79608210D01*
X160071732Y79390331D01*
X160068138Y79382978D01*
X160055500Y79354165D01*
X160052526Y79346544D01*
X159972086Y79112229D01*
X159969752Y79104389D01*
X159962028Y79073890D01*
X159960348Y79065880D01*
X159919571Y78821521D01*
X159918559Y78813401D01*
X159915961Y78782045D01*
X159915623Y78773870D01*
X159915623Y78526132D01*
X159915961Y78517957D01*
X159918559Y78486601D01*
X159919571Y78478481D01*
X159960348Y78234122D01*
X159962028Y78226112D01*
X159969752Y78195613D01*
X159972086Y78187773D01*
X160052526Y77953458D01*
X160055500Y77945837D01*
X160068138Y77917024D01*
X160071732Y77909671D01*
X160189642Y77691792D01*
X160193831Y77684763D01*
X160211040Y77658423D01*
X160215794Y77651764D01*
X160367958Y77456264D01*
X160373247Y77450019D01*
X160394556Y77426872D01*
X160400341Y77421087D01*
X160582608Y77253298D01*
X160588851Y77248011D01*
X160613679Y77228686D01*
X160620339Y77223931D01*
X160827737Y77088431D01*
X160834766Y77084242D01*
X160862437Y77069267D01*
X160869788Y77065673D01*
X161096660Y76966158D01*
X161104283Y76963184D01*
X161134041Y76952968D01*
X161141883Y76950633D01*
X161382040Y76889817D01*
X161390050Y76888138D01*
X161421084Y76882960D01*
X161429202Y76881948D01*
X161676094Y76861490D01*
X161680176Y76861237D01*
X161695907Y76860586D01*
X161700000Y76860501D01*
X163701000Y76860501D01*
X163701000Y14214430D01*
X162993660Y13467289D01*
X162465871Y12939500D01*
X158098581Y12939500D01*
X158098974Y99677145D01*
X158080067Y99735335D01*
X158030567Y99771299D01*
X158016702Y99774722D01*
X157898975Y99794904D01*
X157898999Y105128798D01*
X158318448Y105030996D01*
G37*
X18190668Y112176039D02*
X18238289Y112166362D01*
X18270336Y112144755D01*
X18291677Y112112529D01*
X18299174Y112074000D01*
X18182857Y112074000D01*
X18124666Y112055093D01*
X18088702Y112005593D01*
X18085280Y111991727D01*
X17952998Y111220082D01*
X17729455Y110301070D01*
X17481303Y109482169D01*
X17233440Y108837725D01*
X16960093Y108216481D01*
X16612192Y107495830D01*
X16166049Y106702687D01*
X15595076Y105883465D01*
X15024135Y105138760D01*
X14453546Y104518554D01*
X13758166Y103823174D01*
X13014313Y103203296D01*
X12393598Y102756381D01*
X11722752Y102309151D01*
X11077508Y101936895D01*
X10357862Y101564664D01*
X9538273Y101216960D01*
X8545238Y100844572D01*
X7579076Y100596838D01*
X6734847Y100447856D01*
X5987978Y100348274D01*
X5987703Y100348243D01*
X5987684Y100348234D01*
X5986916Y100348132D01*
X5986947Y100347901D01*
X5931960Y100323016D01*
X5901692Y100269842D01*
X5899652Y100249877D01*
X5899621Y100137225D01*
X5795848Y100125694D01*
X5747430Y100129854D01*
X5713118Y100147647D01*
X5688225Y100177217D01*
X5674380Y100220891D01*
X5674000Y100227747D01*
X5674000Y105029439D01*
X5678393Y105030313D01*
X5681552Y105030995D01*
X6255110Y105164731D01*
X6258249Y105165518D01*
X6270290Y105168744D01*
X6273408Y105169634D01*
X6836992Y105340595D01*
X6840077Y105341586D01*
X6851881Y105345593D01*
X6854931Y105346684D01*
X7406127Y105554139D01*
X7409133Y105555327D01*
X7420651Y105560097D01*
X7423630Y105561388D01*
X7960077Y105804449D01*
X7963010Y105805837D01*
X7974190Y105811351D01*
X7977067Y105812829D01*
X8496469Y106090455D01*
X8499301Y106092028D01*
X8510097Y106098261D01*
X8512876Y106099927D01*
X9013008Y106410929D01*
X9015732Y106412686D01*
X9026097Y106419612D01*
X9028759Y106421454D01*
X9507480Y106764501D01*
X9510083Y106766432D01*
X9519973Y106774021D01*
X9522510Y106776034D01*
X9977769Y107149656D01*
X9980239Y107151752D01*
X9989611Y107159971D01*
X9992012Y107162146D01*
X10421861Y107564743D01*
X10424189Y107566996D01*
X10433004Y107575811D01*
X10435257Y107578139D01*
X10837854Y108007988D01*
X10840029Y108010389D01*
X10848248Y108019761D01*
X10850344Y108022231D01*
X11223966Y108477490D01*
X11225979Y108480027D01*
X11233568Y108489917D01*
X11235499Y108492520D01*
X11578546Y108971241D01*
X11580388Y108973903D01*
X11587314Y108984268D01*
X11589071Y108986992D01*
X11900073Y109487124D01*
X11901739Y109489903D01*
X11907972Y109500699D01*
X11909545Y109503531D01*
X12187171Y110022933D01*
X12188649Y110025810D01*
X12194163Y110036990D01*
X12195551Y110039923D01*
X12438612Y110576370D01*
X12439903Y110579349D01*
X12444673Y110590867D01*
X12445861Y110593873D01*
X12653316Y111145069D01*
X12654407Y111148119D01*
X12658414Y111159923D01*
X12659405Y111163008D01*
X12830366Y111726592D01*
X12831256Y111729710D01*
X12834482Y111741751D01*
X12835269Y111744890D01*
X12940879Y112197823D01*
X18190668Y112176039D01*
G36*
X18190668Y112176039D02*
G01*
X18238289Y112166362D01*
X18270336Y112144755D01*
X18291677Y112112529D01*
X18299174Y112074000D01*
X18182857Y112074000D01*
X18124666Y112055093D01*
X18088702Y112005593D01*
X18085280Y111991727D01*
X17952998Y111220082D01*
X17729455Y110301070D01*
X17481303Y109482169D01*
X17233440Y108837725D01*
X16960093Y108216481D01*
X16612192Y107495830D01*
X16166049Y106702687D01*
X15595076Y105883465D01*
X15024135Y105138760D01*
X14453546Y104518554D01*
X13758166Y103823174D01*
X13014313Y103203296D01*
X12393598Y102756381D01*
X11722752Y102309151D01*
X11077508Y101936895D01*
X10357862Y101564664D01*
X9538273Y101216960D01*
X8545238Y100844572D01*
X7579076Y100596838D01*
X6734847Y100447856D01*
X5987978Y100348274D01*
X5987703Y100348243D01*
X5987684Y100348234D01*
X5986916Y100348132D01*
X5986947Y100347901D01*
X5931960Y100323016D01*
X5901692Y100269842D01*
X5899652Y100249877D01*
X5899621Y100137225D01*
X5795848Y100125694D01*
X5747430Y100129854D01*
X5713118Y100147647D01*
X5688225Y100177217D01*
X5674380Y100220891D01*
X5674000Y100227747D01*
X5674000Y105029439D01*
X5678393Y105030313D01*
X5681552Y105030995D01*
X6255110Y105164731D01*
X6258249Y105165518D01*
X6270290Y105168744D01*
X6273408Y105169634D01*
X6836992Y105340595D01*
X6840077Y105341586D01*
X6851881Y105345593D01*
X6854931Y105346684D01*
X7406127Y105554139D01*
X7409133Y105555327D01*
X7420651Y105560097D01*
X7423630Y105561388D01*
X7960077Y105804449D01*
X7963010Y105805837D01*
X7974190Y105811351D01*
X7977067Y105812829D01*
X8496469Y106090455D01*
X8499301Y106092028D01*
X8510097Y106098261D01*
X8512876Y106099927D01*
X9013008Y106410929D01*
X9015732Y106412686D01*
X9026097Y106419612D01*
X9028759Y106421454D01*
X9507480Y106764501D01*
X9510083Y106766432D01*
X9519973Y106774021D01*
X9522510Y106776034D01*
X9977769Y107149656D01*
X9980239Y107151752D01*
X9989611Y107159971D01*
X9992012Y107162146D01*
X10421861Y107564743D01*
X10424189Y107566996D01*
X10433004Y107575811D01*
X10435257Y107578139D01*
X10837854Y108007988D01*
X10840029Y108010389D01*
X10848248Y108019761D01*
X10850344Y108022231D01*
X11223966Y108477490D01*
X11225979Y108480027D01*
X11233568Y108489917D01*
X11235499Y108492520D01*
X11578546Y108971241D01*
X11580388Y108973903D01*
X11587314Y108984268D01*
X11589071Y108986992D01*
X11900073Y109487124D01*
X11901739Y109489903D01*
X11907972Y109500699D01*
X11909545Y109503531D01*
X12187171Y110022933D01*
X12188649Y110025810D01*
X12194163Y110036990D01*
X12195551Y110039923D01*
X12438612Y110576370D01*
X12439903Y110579349D01*
X12444673Y110590867D01*
X12445861Y110593873D01*
X12653316Y111145069D01*
X12654407Y111148119D01*
X12658414Y111159923D01*
X12659405Y111163008D01*
X12830366Y111726592D01*
X12831256Y111729710D01*
X12834482Y111741751D01*
X12835269Y111744890D01*
X12940879Y112197823D01*
X18190668Y112176039D01*
G37*
X6099683Y100363168D02*
X5987978Y100348274D01*
X5987703Y100348243D01*
X5987684Y100348234D01*
X5986916Y100348132D01*
X5986947Y100347901D01*
X5931960Y100323016D01*
X5901692Y100269842D01*
X5899652Y100249877D01*
X5876000Y13825027D01*
X5876000Y12939500D01*
X1534130Y12939501D01*
X290312Y14183318D01*
X296297Y76860500D01*
X2300000Y76860500D01*
X2304086Y76860584D01*
X2319797Y76861233D01*
X2323876Y76861486D01*
X2570788Y76881919D01*
X2578908Y76882931D01*
X2609945Y76888107D01*
X2617954Y76889785D01*
X2858134Y76950583D01*
X2865977Y76952917D01*
X2895738Y76963131D01*
X2903362Y76966105D01*
X3130258Y77065609D01*
X3137610Y77069203D01*
X3165284Y77084177D01*
X3172313Y77088365D01*
X3379735Y77223860D01*
X3386395Y77228614D01*
X3411226Y77247938D01*
X3417471Y77253226D01*
X3599760Y77421015D01*
X3605545Y77426800D01*
X3626857Y77449948D01*
X3632147Y77456193D01*
X3784331Y77651700D01*
X3789086Y77658360D01*
X3806297Y77684701D01*
X3810486Y77691730D01*
X3928412Y77909621D01*
X3932006Y77916972D01*
X3944646Y77945786D01*
X3947621Y77953409D01*
X4028073Y78187738D01*
X4030409Y78195584D01*
X4038133Y78226087D01*
X4039812Y78234093D01*
X4080594Y78478469D01*
X4081606Y78486588D01*
X4084205Y78517945D01*
X4084543Y78526122D01*
X4084543Y78773878D01*
X4084205Y78782055D01*
X4081606Y78813412D01*
X4080594Y78821531D01*
X4039812Y79065907D01*
X4038133Y79073913D01*
X4030409Y79104416D01*
X4028073Y79112262D01*
X3947621Y79346591D01*
X3944646Y79354214D01*
X3932006Y79383028D01*
X3928412Y79390379D01*
X3810486Y79608270D01*
X3806297Y79615299D01*
X3789086Y79641640D01*
X3784331Y79648300D01*
X3632147Y79843807D01*
X3626857Y79850052D01*
X3605545Y79873200D01*
X3599760Y79878985D01*
X3417471Y80046774D01*
X3411226Y80052062D01*
X3386395Y80071386D01*
X3379735Y80076140D01*
X3172313Y80211635D01*
X3165284Y80215823D01*
X3137610Y80230797D01*
X3130258Y80234391D01*
X2903362Y80333895D01*
X2895738Y80336869D01*
X2865977Y80347083D01*
X2858134Y80349417D01*
X2617954Y80410215D01*
X2609945Y80411893D01*
X2578908Y80417069D01*
X2570788Y80418081D01*
X2323876Y80438514D01*
X2319797Y80438767D01*
X2304086Y80439416D01*
X2300000Y80439500D01*
X296638Y80439501D01*
X298851Y103615222D01*
X1534130Y104850500D01*
X3860000Y104850500D01*
X3861620Y104850513D01*
X3867853Y104850615D01*
X3869472Y104850655D01*
X4458100Y104869925D01*
X4461334Y104870084D01*
X4473773Y104870899D01*
X4477004Y104871164D01*
X5063112Y104928890D01*
X5066328Y104929260D01*
X5078688Y104930887D01*
X5081895Y104931362D01*
X5662972Y105027298D01*
X5666167Y105027880D01*
X5678393Y105030313D01*
X5681552Y105030995D01*
X6100987Y105128795D01*
X6099683Y100363168D01*
G36*
X6099683Y100363168D02*
G01*
X5987978Y100348274D01*
X5987703Y100348243D01*
X5987684Y100348234D01*
X5986916Y100348132D01*
X5986947Y100347901D01*
X5931960Y100323016D01*
X5901692Y100269842D01*
X5899652Y100249877D01*
X5876000Y13825027D01*
X5876000Y12939500D01*
X1534130Y12939501D01*
X290312Y14183318D01*
X296297Y76860500D01*
X2300000Y76860500D01*
X2304086Y76860584D01*
X2319797Y76861233D01*
X2323876Y76861486D01*
X2570788Y76881919D01*
X2578908Y76882931D01*
X2609945Y76888107D01*
X2617954Y76889785D01*
X2858134Y76950583D01*
X2865977Y76952917D01*
X2895738Y76963131D01*
X2903362Y76966105D01*
X3130258Y77065609D01*
X3137610Y77069203D01*
X3165284Y77084177D01*
X3172313Y77088365D01*
X3379735Y77223860D01*
X3386395Y77228614D01*
X3411226Y77247938D01*
X3417471Y77253226D01*
X3599760Y77421015D01*
X3605545Y77426800D01*
X3626857Y77449948D01*
X3632147Y77456193D01*
X3784331Y77651700D01*
X3789086Y77658360D01*
X3806297Y77684701D01*
X3810486Y77691730D01*
X3928412Y77909621D01*
X3932006Y77916972D01*
X3944646Y77945786D01*
X3947621Y77953409D01*
X4028073Y78187738D01*
X4030409Y78195584D01*
X4038133Y78226087D01*
X4039812Y78234093D01*
X4080594Y78478469D01*
X4081606Y78486588D01*
X4084205Y78517945D01*
X4084543Y78526122D01*
X4084543Y78773878D01*
X4084205Y78782055D01*
X4081606Y78813412D01*
X4080594Y78821531D01*
X4039812Y79065907D01*
X4038133Y79073913D01*
X4030409Y79104416D01*
X4028073Y79112262D01*
X3947621Y79346591D01*
X3944646Y79354214D01*
X3932006Y79383028D01*
X3928412Y79390379D01*
X3810486Y79608270D01*
X3806297Y79615299D01*
X3789086Y79641640D01*
X3784331Y79648300D01*
X3632147Y79843807D01*
X3626857Y79850052D01*
X3605545Y79873200D01*
X3599760Y79878985D01*
X3417471Y80046774D01*
X3411226Y80052062D01*
X3386395Y80071386D01*
X3379735Y80076140D01*
X3172313Y80211635D01*
X3165284Y80215823D01*
X3137610Y80230797D01*
X3130258Y80234391D01*
X2903362Y80333895D01*
X2895738Y80336869D01*
X2865977Y80347083D01*
X2858134Y80349417D01*
X2617954Y80410215D01*
X2609945Y80411893D01*
X2578908Y80417069D01*
X2570788Y80418081D01*
X2323876Y80438514D01*
X2319797Y80438767D01*
X2304086Y80439416D01*
X2300000Y80439500D01*
X296638Y80439501D01*
X298851Y103615222D01*
X1534130Y104850500D01*
X3860000Y104850500D01*
X3861620Y104850513D01*
X3867853Y104850615D01*
X3869472Y104850655D01*
X4458100Y104869925D01*
X4461334Y104870084D01*
X4473773Y104870899D01*
X4477004Y104871164D01*
X5063112Y104928890D01*
X5066328Y104929260D01*
X5078688Y104930887D01*
X5081895Y104931362D01*
X5662972Y105027298D01*
X5666167Y105027880D01*
X5678393Y105030313D01*
X5681552Y105030995D01*
X6100987Y105128795D01*
X6099683Y100363168D01*
G37*
X149615090Y117701281D02*
X150850500Y116465871D01*
X150850500Y114140001D01*
X150850513Y114138381D01*
X150850615Y114132148D01*
X150850655Y114130529D01*
X150869925Y113541901D01*
X150870084Y113538667D01*
X150870899Y113526228D01*
X150871164Y113522997D01*
X150928890Y112936889D01*
X150929260Y112933673D01*
X150930887Y112921313D01*
X150931362Y112918106D01*
X151027298Y112337029D01*
X151027880Y112333834D01*
X151030313Y112321608D01*
X151030995Y112318449D01*
X151076000Y112125435D01*
X151076000Y112094800D01*
X151094907Y112036609D01*
X151097080Y112035031D01*
X151134627Y111874000D01*
X146317138Y111874000D01*
X146316091Y111881849D01*
X146304526Y111985933D01*
X146279309Y112041680D01*
X146226140Y112071957D01*
X146206132Y112074000D01*
X18182857Y112074000D01*
X18124666Y112055093D01*
X18088702Y112005593D01*
X18085280Y111991728D01*
X18065098Y111874000D01*
X12865374Y111874000D01*
X12969005Y112318448D01*
X12969687Y112321607D01*
X12972120Y112333833D01*
X12972702Y112337028D01*
X13068638Y112918105D01*
X13069113Y112921312D01*
X13070740Y112933672D01*
X13071110Y112936888D01*
X13128836Y113522996D01*
X13129101Y113526227D01*
X13129916Y113538666D01*
X13130075Y113541900D01*
X13149345Y114130528D01*
X13149385Y114132147D01*
X13149487Y114138380D01*
X13149500Y114140000D01*
X13149500Y116465871D01*
X14394130Y117710500D01*
X98487982Y117710500D01*
X149615090Y117701281D01*
G36*
X149615090Y117701281D02*
G01*
X150850500Y116465871D01*
X150850500Y114140001D01*
X150850513Y114138381D01*
X150850615Y114132148D01*
X150850655Y114130529D01*
X150869925Y113541901D01*
X150870084Y113538667D01*
X150870899Y113526228D01*
X150871164Y113522997D01*
X150928890Y112936889D01*
X150929260Y112933673D01*
X150930887Y112921313D01*
X150931362Y112918106D01*
X151027298Y112337029D01*
X151027880Y112333834D01*
X151030313Y112321608D01*
X151030995Y112318449D01*
X151076000Y112125435D01*
X151076000Y112094800D01*
X151094907Y112036609D01*
X151097080Y112035031D01*
X151134627Y111874000D01*
X146317138Y111874000D01*
X146316091Y111881849D01*
X146304526Y111985933D01*
X146279309Y112041680D01*
X146226140Y112071957D01*
X146206132Y112074000D01*
X18182857Y112074000D01*
X18124666Y112055093D01*
X18088702Y112005593D01*
X18085280Y111991728D01*
X18065098Y111874000D01*
X12865374Y111874000D01*
X12969005Y112318448D01*
X12969687Y112321607D01*
X12972120Y112333833D01*
X12972702Y112337028D01*
X13068638Y112918105D01*
X13069113Y112921312D01*
X13070740Y112933672D01*
X13071110Y112936888D01*
X13128836Y113522996D01*
X13129101Y113526227D01*
X13129916Y113538666D01*
X13130075Y113541900D01*
X13149345Y114130528D01*
X13149385Y114132147D01*
X13149487Y114138380D01*
X13149500Y114140000D01*
X13149500Y116465871D01*
X14394130Y117710500D01*
X98487982Y117710500D01*
X149615090Y117701281D01*
G37*
M02*
