G04 #@! TF.GenerationSoftware,KiCad,Pcbnew,(5.99.0-8748-g0125986588)*
G04 #@! TF.CreationDate,2021-02-10T16:20:52+02:00*
G04 #@! TF.ProjectId,hellen121vag,68656c6c-656e-4313-9231-7661672e6b69,a*
G04 #@! TF.SameCoordinates,PX2b953a0PY6943058*
G04 #@! TF.FileFunction,Legend,Bot*
G04 #@! TF.FilePolarity,Positive*
%FSLAX46Y46*%
G04 Gerber Fmt 4.6, Leading zero omitted, Abs format (unit mm)*
G04 Created by KiCad (PCBNEW (5.99.0-8748-g0125986588)) date 2021-02-10 16:20:52*
%MOMM*%
%LPD*%
G01*
G04 APERTURE LIST*
%ADD10C,0.250000*%
%ADD11C,0.200000*%
G04 APERTURE END LIST*
D10*
X127063571Y23745000D02*
X127063571Y24602143D01*
X127063571Y24173572D02*
X125563571Y24173572D01*
X125777857Y24316429D01*
X125920714Y24459286D01*
X125992142Y24602143D01*
X127063571Y22316429D02*
X127063571Y23173572D01*
X127063571Y22745000D02*
X125563571Y22745000D01*
X125777857Y22887858D01*
X125920714Y23030715D01*
X125992142Y23173572D01*
X127063571Y21602143D02*
X127063571Y21316429D01*
X126992142Y21173572D01*
X126920714Y21102143D01*
X126706428Y20959286D01*
X126420714Y20887858D01*
X125849285Y20887858D01*
X125706428Y20959286D01*
X125635000Y21030715D01*
X125563571Y21173572D01*
X125563571Y21459286D01*
X125635000Y21602143D01*
X125706428Y21673572D01*
X125849285Y21745000D01*
X126206428Y21745000D01*
X126349285Y21673572D01*
X126420714Y21602143D01*
X126492142Y21459286D01*
X126492142Y21173572D01*
X126420714Y21030715D01*
X126349285Y20959286D01*
X126206428Y20887858D01*
X139128571Y23745000D02*
X139128571Y24602143D01*
X139128571Y24173572D02*
X137628571Y24173572D01*
X137842857Y24316429D01*
X137985714Y24459286D01*
X138057142Y24602143D01*
X137771428Y23173572D02*
X137700000Y23102143D01*
X137628571Y22959286D01*
X137628571Y22602143D01*
X137700000Y22459286D01*
X137771428Y22387858D01*
X137914285Y22316429D01*
X138057142Y22316429D01*
X138271428Y22387858D01*
X139128571Y23245000D01*
X139128571Y22316429D01*
X139128571Y20887858D02*
X139128571Y21745000D01*
X139128571Y21316429D02*
X137628571Y21316429D01*
X137842857Y21459286D01*
X137985714Y21602143D01*
X138057142Y21745000D01*
X139128571Y7870000D02*
X139128571Y8727143D01*
X139128571Y8298572D02*
X137628571Y8298572D01*
X137842857Y8441429D01*
X137985714Y8584286D01*
X138057142Y8727143D01*
X139128571Y6441429D02*
X139128571Y7298572D01*
X139128571Y6870000D02*
X137628571Y6870000D01*
X137842857Y7012858D01*
X137985714Y7155715D01*
X138057142Y7298572D01*
X137628571Y5155715D02*
X137628571Y5441429D01*
X137700000Y5584286D01*
X137771428Y5655715D01*
X137985714Y5798572D01*
X138271428Y5870000D01*
X138842857Y5870000D01*
X138985714Y5798572D01*
X139057142Y5727143D01*
X139128571Y5584286D01*
X139128571Y5298572D01*
X139057142Y5155715D01*
X138985714Y5084286D01*
X138842857Y5012858D01*
X138485714Y5012858D01*
X138342857Y5084286D01*
X138271428Y5155715D01*
X138200000Y5298572D01*
X138200000Y5584286D01*
X138271428Y5727143D01*
X138342857Y5798572D01*
X138485714Y5870000D01*
X133413571Y7870000D02*
X133413571Y8727143D01*
X133413571Y8298572D02*
X131913571Y8298572D01*
X132127857Y8441429D01*
X132270714Y8584286D01*
X132342142Y8727143D01*
X133413571Y6441429D02*
X133413571Y7298572D01*
X133413571Y6870000D02*
X131913571Y6870000D01*
X132127857Y7012858D01*
X132270714Y7155715D01*
X132342142Y7298572D01*
X131913571Y5084286D02*
X131913571Y5798572D01*
X132627857Y5870000D01*
X132556428Y5798572D01*
X132485000Y5655715D01*
X132485000Y5298572D01*
X132556428Y5155715D01*
X132627857Y5084286D01*
X132770714Y5012858D01*
X133127857Y5012858D01*
X133270714Y5084286D01*
X133342142Y5155715D01*
X133413571Y5298572D01*
X133413571Y5655715D01*
X133342142Y5798572D01*
X133270714Y5870000D01*
X135953571Y9775000D02*
X135953571Y10632143D01*
X135953571Y10203572D02*
X134453571Y10203572D01*
X134667857Y10346429D01*
X134810714Y10489286D01*
X134882142Y10632143D01*
X135953571Y8346429D02*
X135953571Y9203572D01*
X135953571Y8775000D02*
X134453571Y8775000D01*
X134667857Y8917858D01*
X134810714Y9060715D01*
X134882142Y9203572D01*
X135096428Y7489286D02*
X135025000Y7632143D01*
X134953571Y7703572D01*
X134810714Y7775000D01*
X134739285Y7775000D01*
X134596428Y7703572D01*
X134525000Y7632143D01*
X134453571Y7489286D01*
X134453571Y7203572D01*
X134525000Y7060715D01*
X134596428Y6989286D01*
X134739285Y6917858D01*
X134810714Y6917858D01*
X134953571Y6989286D01*
X135025000Y7060715D01*
X135096428Y7203572D01*
X135096428Y7489286D01*
X135167857Y7632143D01*
X135239285Y7703572D01*
X135382142Y7775000D01*
X135667857Y7775000D01*
X135810714Y7703572D01*
X135882142Y7632143D01*
X135953571Y7489286D01*
X135953571Y7203572D01*
X135882142Y7060715D01*
X135810714Y6989286D01*
X135667857Y6917858D01*
X135382142Y6917858D01*
X135239285Y6989286D01*
X135167857Y7060715D01*
X135096428Y7203572D01*
X132778571Y23745000D02*
X132778571Y24602143D01*
X132778571Y24173572D02*
X131278571Y24173572D01*
X131492857Y24316429D01*
X131635714Y24459286D01*
X131707142Y24602143D01*
X131421428Y23173572D02*
X131350000Y23102143D01*
X131278571Y22959286D01*
X131278571Y22602143D01*
X131350000Y22459286D01*
X131421428Y22387858D01*
X131564285Y22316429D01*
X131707142Y22316429D01*
X131921428Y22387858D01*
X132778571Y23245000D01*
X132778571Y22316429D01*
X131278571Y21387858D02*
X131278571Y21245000D01*
X131350000Y21102143D01*
X131421428Y21030715D01*
X131564285Y20959286D01*
X131850000Y20887858D01*
X132207142Y20887858D01*
X132492857Y20959286D01*
X132635714Y21030715D01*
X132707142Y21102143D01*
X132778571Y21245000D01*
X132778571Y21387858D01*
X132707142Y21530715D01*
X132635714Y21602143D01*
X132492857Y21673572D01*
X132207142Y21745000D01*
X131850000Y21745000D01*
X131564285Y21673572D01*
X131421428Y21602143D01*
X131350000Y21530715D01*
X131278571Y21387858D01*
X130238571Y9775000D02*
X130238571Y10632143D01*
X130238571Y10203572D02*
X128738571Y10203572D01*
X128952857Y10346429D01*
X129095714Y10489286D01*
X129167142Y10632143D01*
X130238571Y8346429D02*
X130238571Y9203572D01*
X130238571Y8775000D02*
X128738571Y8775000D01*
X128952857Y8917858D01*
X129095714Y9060715D01*
X129167142Y9203572D01*
X128738571Y7846429D02*
X128738571Y6846429D01*
X130238571Y7489286D01*
X127063571Y7870000D02*
X127063571Y8727143D01*
X127063571Y8298572D02*
X125563571Y8298572D01*
X125777857Y8441429D01*
X125920714Y8584286D01*
X125992142Y8727143D01*
X127063571Y6441429D02*
X127063571Y7298572D01*
X127063571Y6870000D02*
X125563571Y6870000D01*
X125777857Y7012858D01*
X125920714Y7155715D01*
X125992142Y7298572D01*
X126063571Y5155715D02*
X127063571Y5155715D01*
X125492142Y5512858D02*
X126563571Y5870000D01*
X126563571Y4941429D01*
X123082857Y7743096D02*
X123273333Y7838334D01*
X123368571Y7933572D01*
X123463809Y8124048D01*
X123463809Y8219286D01*
X123368571Y8409762D01*
X123273333Y8505000D01*
X123082857Y8600239D01*
X122701904Y8600239D01*
X122511428Y8505000D01*
X122416190Y8409762D01*
X122320952Y8219286D01*
X122320952Y8124048D01*
X122416190Y7933572D01*
X122511428Y7838334D01*
X122701904Y7743096D01*
X123082857Y7743096D01*
X123273333Y7647858D01*
X123368571Y7552620D01*
X123463809Y7362143D01*
X123463809Y6981191D01*
X123368571Y6790715D01*
X123273333Y6695477D01*
X123082857Y6600239D01*
X122701904Y6600239D01*
X122511428Y6695477D01*
X122416190Y6790715D01*
X122320952Y6981191D01*
X122320952Y7362143D01*
X122416190Y7552620D01*
X122511428Y7647858D01*
X122701904Y7743096D01*
X121368571Y6600239D02*
X120987619Y6600239D01*
X120797142Y6695477D01*
X120701904Y6790715D01*
X120511428Y7076429D01*
X120416190Y7457381D01*
X120416190Y8219286D01*
X120511428Y8409762D01*
X120606666Y8505000D01*
X120797142Y8600239D01*
X121178095Y8600239D01*
X121368571Y8505000D01*
X121463809Y8409762D01*
X121559047Y8219286D01*
X121559047Y7743096D01*
X121463809Y7552620D01*
X121368571Y7457381D01*
X121178095Y7362143D01*
X120797142Y7362143D01*
X120606666Y7457381D01*
X120511428Y7552620D01*
X120416190Y7743096D01*
X123273333Y9140239D02*
X122892380Y9140239D01*
X122701904Y9235477D01*
X122606666Y9330715D01*
X122416190Y9616429D01*
X122320952Y9997381D01*
X122320952Y10759286D01*
X122416190Y10949762D01*
X122511428Y11045000D01*
X122701904Y11140239D01*
X123082857Y11140239D01*
X123273333Y11045000D01*
X123368571Y10949762D01*
X123463809Y10759286D01*
X123463809Y10283096D01*
X123368571Y10092620D01*
X123273333Y9997381D01*
X123082857Y9902143D01*
X122701904Y9902143D01*
X122511428Y9997381D01*
X122416190Y10092620D01*
X122320952Y10283096D01*
X121654285Y11140239D02*
X120320952Y11140239D01*
X121178095Y9140239D01*
X123908333Y14855239D02*
X125051190Y14855239D01*
X124479761Y14855239D02*
X124479761Y16855239D01*
X124670238Y16569524D01*
X124860714Y16379048D01*
X125051190Y16283810D01*
X122670238Y16855239D02*
X122479761Y16855239D01*
X122289285Y16760000D01*
X122194047Y16664762D01*
X122098809Y16474286D01*
X122003571Y16093334D01*
X122003571Y15617143D01*
X122098809Y15236191D01*
X122194047Y15045715D01*
X122289285Y14950477D01*
X122479761Y14855239D01*
X122670238Y14855239D01*
X122860714Y14950477D01*
X122955952Y15045715D01*
X123051190Y15236191D01*
X123146428Y15617143D01*
X123146428Y16093334D01*
X123051190Y16474286D01*
X122955952Y16664762D01*
X122860714Y16760000D01*
X122670238Y16855239D01*
X120194047Y16855239D02*
X121146428Y16855239D01*
X121241666Y15902858D01*
X121146428Y15998096D01*
X120955952Y16093334D01*
X120479761Y16093334D01*
X120289285Y15998096D01*
X120194047Y15902858D01*
X120098809Y15712381D01*
X120098809Y15236191D01*
X120194047Y15045715D01*
X120289285Y14950477D01*
X120479761Y14855239D01*
X120955952Y14855239D01*
X121146428Y14950477D01*
X121241666Y15045715D01*
X123908333Y18030239D02*
X125051190Y18030239D01*
X124479761Y18030239D02*
X124479761Y20030239D01*
X124670238Y19744524D01*
X124860714Y19554048D01*
X125051190Y19458810D01*
X122003571Y18030239D02*
X123146428Y18030239D01*
X122575000Y18030239D02*
X122575000Y20030239D01*
X122765476Y19744524D01*
X122955952Y19554048D01*
X123146428Y19458810D01*
X121336904Y20030239D02*
X120098809Y20030239D01*
X120765476Y19268334D01*
X120479761Y19268334D01*
X120289285Y19173096D01*
X120194047Y19077858D01*
X120098809Y18887381D01*
X120098809Y18411191D01*
X120194047Y18220715D01*
X120289285Y18125477D01*
X120479761Y18030239D01*
X121051190Y18030239D01*
X121241666Y18125477D01*
X121336904Y18220715D01*
X98952857Y7743096D02*
X99143333Y7838334D01*
X99238571Y7933572D01*
X99333809Y8124048D01*
X99333809Y8219286D01*
X99238571Y8409762D01*
X99143333Y8505000D01*
X98952857Y8600239D01*
X98571904Y8600239D01*
X98381428Y8505000D01*
X98286190Y8409762D01*
X98190952Y8219286D01*
X98190952Y8124048D01*
X98286190Y7933572D01*
X98381428Y7838334D01*
X98571904Y7743096D01*
X98952857Y7743096D01*
X99143333Y7647858D01*
X99238571Y7552620D01*
X99333809Y7362143D01*
X99333809Y6981191D01*
X99238571Y6790715D01*
X99143333Y6695477D01*
X98952857Y6600239D01*
X98571904Y6600239D01*
X98381428Y6695477D01*
X98286190Y6790715D01*
X98190952Y6981191D01*
X98190952Y7362143D01*
X98286190Y7552620D01*
X98381428Y7647858D01*
X98571904Y7743096D01*
X97429047Y8409762D02*
X97333809Y8505000D01*
X97143333Y8600239D01*
X96667142Y8600239D01*
X96476666Y8505000D01*
X96381428Y8409762D01*
X96286190Y8219286D01*
X96286190Y8028810D01*
X96381428Y7743096D01*
X97524285Y6600239D01*
X96286190Y6600239D01*
X99143333Y9140239D02*
X98762380Y9140239D01*
X98571904Y9235477D01*
X98476666Y9330715D01*
X98286190Y9616429D01*
X98190952Y9997381D01*
X98190952Y10759286D01*
X98286190Y10949762D01*
X98381428Y11045000D01*
X98571904Y11140239D01*
X98952857Y11140239D01*
X99143333Y11045000D01*
X99238571Y10949762D01*
X99333809Y10759286D01*
X99333809Y10283096D01*
X99238571Y10092620D01*
X99143333Y9997381D01*
X98952857Y9902143D01*
X98571904Y9902143D01*
X98381428Y9997381D01*
X98286190Y10092620D01*
X98190952Y10283096D01*
X96952857Y11140239D02*
X96762380Y11140239D01*
X96571904Y11045000D01*
X96476666Y10949762D01*
X96381428Y10759286D01*
X96286190Y10378334D01*
X96286190Y9902143D01*
X96381428Y9521191D01*
X96476666Y9330715D01*
X96571904Y9235477D01*
X96762380Y9140239D01*
X96952857Y9140239D01*
X97143333Y9235477D01*
X97238571Y9330715D01*
X97333809Y9521191D01*
X97429047Y9902143D01*
X97429047Y10378334D01*
X97333809Y10759286D01*
X97238571Y10949762D01*
X97143333Y11045000D01*
X96952857Y11140239D01*
X99143333Y14855239D02*
X98762380Y14855239D01*
X98571904Y14950477D01*
X98476666Y15045715D01*
X98286190Y15331429D01*
X98190952Y15712381D01*
X98190952Y16474286D01*
X98286190Y16664762D01*
X98381428Y16760000D01*
X98571904Y16855239D01*
X98952857Y16855239D01*
X99143333Y16760000D01*
X99238571Y16664762D01*
X99333809Y16474286D01*
X99333809Y15998096D01*
X99238571Y15807620D01*
X99143333Y15712381D01*
X98952857Y15617143D01*
X98571904Y15617143D01*
X98381428Y15712381D01*
X98286190Y15807620D01*
X98190952Y15998096D01*
X97048095Y15998096D02*
X97238571Y16093334D01*
X97333809Y16188572D01*
X97429047Y16379048D01*
X97429047Y16474286D01*
X97333809Y16664762D01*
X97238571Y16760000D01*
X97048095Y16855239D01*
X96667142Y16855239D01*
X96476666Y16760000D01*
X96381428Y16664762D01*
X96286190Y16474286D01*
X96286190Y16379048D01*
X96381428Y16188572D01*
X96476666Y16093334D01*
X96667142Y15998096D01*
X97048095Y15998096D01*
X97238571Y15902858D01*
X97333809Y15807620D01*
X97429047Y15617143D01*
X97429047Y15236191D01*
X97333809Y15045715D01*
X97238571Y14950477D01*
X97048095Y14855239D01*
X96667142Y14855239D01*
X96476666Y14950477D01*
X96381428Y15045715D01*
X96286190Y15236191D01*
X96286190Y15617143D01*
X96381428Y15807620D01*
X96476666Y15902858D01*
X96667142Y15998096D01*
X98508333Y18030239D02*
X99651190Y18030239D01*
X99079761Y18030239D02*
X99079761Y20030239D01*
X99270238Y19744524D01*
X99460714Y19554048D01*
X99651190Y19458810D01*
X97270238Y20030239D02*
X97079761Y20030239D01*
X96889285Y19935000D01*
X96794047Y19839762D01*
X96698809Y19649286D01*
X96603571Y19268334D01*
X96603571Y18792143D01*
X96698809Y18411191D01*
X96794047Y18220715D01*
X96889285Y18125477D01*
X97079761Y18030239D01*
X97270238Y18030239D01*
X97460714Y18125477D01*
X97555952Y18220715D01*
X97651190Y18411191D01*
X97746428Y18792143D01*
X97746428Y19268334D01*
X97651190Y19649286D01*
X97555952Y19839762D01*
X97460714Y19935000D01*
X97270238Y20030239D01*
X94889285Y20030239D02*
X95270238Y20030239D01*
X95460714Y19935000D01*
X95555952Y19839762D01*
X95746428Y19554048D01*
X95841666Y19173096D01*
X95841666Y18411191D01*
X95746428Y18220715D01*
X95651190Y18125477D01*
X95460714Y18030239D01*
X95079761Y18030239D01*
X94889285Y18125477D01*
X94794047Y18220715D01*
X94698809Y18411191D01*
X94698809Y18887381D01*
X94794047Y19077858D01*
X94889285Y19173096D01*
X95079761Y19268334D01*
X95460714Y19268334D01*
X95651190Y19173096D01*
X95746428Y19077858D01*
X95841666Y18887381D01*
X88856428Y8600239D02*
X89237380Y8600239D01*
X89427857Y8505000D01*
X89523095Y8409762D01*
X89713571Y8124048D01*
X89808809Y7743096D01*
X89808809Y6981191D01*
X89713571Y6790715D01*
X89618333Y6695477D01*
X89427857Y6600239D01*
X89046904Y6600239D01*
X88856428Y6695477D01*
X88761190Y6790715D01*
X88665952Y6981191D01*
X88665952Y7457381D01*
X88761190Y7647858D01*
X88856428Y7743096D01*
X89046904Y7838334D01*
X89427857Y7838334D01*
X89618333Y7743096D01*
X89713571Y7647858D01*
X89808809Y7457381D01*
X87999285Y8600239D02*
X86761190Y8600239D01*
X87427857Y7838334D01*
X87142142Y7838334D01*
X86951666Y7743096D01*
X86856428Y7647858D01*
X86761190Y7457381D01*
X86761190Y6981191D01*
X86856428Y6790715D01*
X86951666Y6695477D01*
X87142142Y6600239D01*
X87713571Y6600239D01*
X87904047Y6695477D01*
X87999285Y6790715D01*
X88856428Y10473572D02*
X88856428Y9140239D01*
X89332619Y11235477D02*
X89808809Y9806905D01*
X88570714Y9806905D01*
X86951666Y10473572D02*
X86951666Y9140239D01*
X87427857Y11235477D02*
X87904047Y9806905D01*
X86665952Y9806905D01*
X89808809Y16664762D02*
X89713571Y16760000D01*
X89523095Y16855239D01*
X89046904Y16855239D01*
X88856428Y16760000D01*
X88761190Y16664762D01*
X88665952Y16474286D01*
X88665952Y16283810D01*
X88761190Y15998096D01*
X89904047Y14855239D01*
X88665952Y14855239D01*
X86856428Y16855239D02*
X87808809Y16855239D01*
X87904047Y15902858D01*
X87808809Y15998096D01*
X87618333Y16093334D01*
X87142142Y16093334D01*
X86951666Y15998096D01*
X86856428Y15902858D01*
X86761190Y15712381D01*
X86761190Y15236191D01*
X86856428Y15045715D01*
X86951666Y14950477D01*
X87142142Y14855239D01*
X87618333Y14855239D01*
X87808809Y14950477D01*
X87904047Y15045715D01*
X87269047Y20030239D02*
X87650000Y20030239D01*
X87840476Y19935000D01*
X87935714Y19839762D01*
X88126190Y19554048D01*
X88221428Y19173096D01*
X88221428Y18411191D01*
X88126190Y18220715D01*
X88030952Y18125477D01*
X87840476Y18030239D01*
X87459523Y18030239D01*
X87269047Y18125477D01*
X87173809Y18220715D01*
X87078571Y18411191D01*
X87078571Y18887381D01*
X87173809Y19077858D01*
X87269047Y19173096D01*
X87459523Y19268334D01*
X87840476Y19268334D01*
X88030952Y19173096D01*
X88126190Y19077858D01*
X88221428Y18887381D01*
X32563809Y21935239D02*
X33516190Y21935239D01*
X33611428Y20982858D01*
X33516190Y21078096D01*
X33325714Y21173334D01*
X32849523Y21173334D01*
X32659047Y21078096D01*
X32563809Y20982858D01*
X32468571Y20792381D01*
X32468571Y20316191D01*
X32563809Y20125715D01*
X32659047Y20030477D01*
X32849523Y19935239D01*
X33325714Y19935239D01*
X33516190Y20030477D01*
X33611428Y20125715D01*
X23769047Y21268572D02*
X23769047Y19935239D01*
X24245238Y22030477D02*
X24721428Y20601905D01*
X23483333Y20601905D01*
X29261666Y16855239D02*
X28023571Y16855239D01*
X28690238Y16093334D01*
X28404523Y16093334D01*
X28214047Y15998096D01*
X28118809Y15902858D01*
X28023571Y15712381D01*
X28023571Y15236191D01*
X28118809Y15045715D01*
X28214047Y14950477D01*
X28404523Y14855239D01*
X28975952Y14855239D01*
X29166428Y14950477D01*
X29261666Y15045715D01*
X33611428Y14124762D02*
X33516190Y14220000D01*
X33325714Y14315239D01*
X32849523Y14315239D01*
X32659047Y14220000D01*
X32563809Y14124762D01*
X32468571Y13934286D01*
X32468571Y13743810D01*
X32563809Y13458096D01*
X33706666Y12315239D01*
X32468571Y12315239D01*
X23578571Y12315239D02*
X24721428Y12315239D01*
X24150000Y12315239D02*
X24150000Y14315239D01*
X24340476Y14029524D01*
X24530952Y13839048D01*
X24721428Y13743810D01*
X37992857Y7743096D02*
X38183333Y7838334D01*
X38278571Y7933572D01*
X38373809Y8124048D01*
X38373809Y8219286D01*
X38278571Y8409762D01*
X38183333Y8505000D01*
X37992857Y8600239D01*
X37611904Y8600239D01*
X37421428Y8505000D01*
X37326190Y8409762D01*
X37230952Y8219286D01*
X37230952Y8124048D01*
X37326190Y7933572D01*
X37421428Y7838334D01*
X37611904Y7743096D01*
X37992857Y7743096D01*
X38183333Y7647858D01*
X38278571Y7552620D01*
X38373809Y7362143D01*
X38373809Y6981191D01*
X38278571Y6790715D01*
X38183333Y6695477D01*
X37992857Y6600239D01*
X37611904Y6600239D01*
X37421428Y6695477D01*
X37326190Y6790715D01*
X37230952Y6981191D01*
X37230952Y7362143D01*
X37326190Y7552620D01*
X37421428Y7647858D01*
X37611904Y7743096D01*
X35326190Y6600239D02*
X36469047Y6600239D01*
X35897619Y6600239D02*
X35897619Y8600239D01*
X36088095Y8314524D01*
X36278571Y8124048D01*
X36469047Y8028810D01*
X37421428Y11140239D02*
X37802380Y11140239D01*
X37992857Y11045000D01*
X38088095Y10949762D01*
X38278571Y10664048D01*
X38373809Y10283096D01*
X38373809Y9521191D01*
X38278571Y9330715D01*
X38183333Y9235477D01*
X37992857Y9140239D01*
X37611904Y9140239D01*
X37421428Y9235477D01*
X37326190Y9330715D01*
X37230952Y9521191D01*
X37230952Y9997381D01*
X37326190Y10187858D01*
X37421428Y10283096D01*
X37611904Y10378334D01*
X37992857Y10378334D01*
X38183333Y10283096D01*
X38278571Y10187858D01*
X38373809Y9997381D01*
X36469047Y10949762D02*
X36373809Y11045000D01*
X36183333Y11140239D01*
X35707142Y11140239D01*
X35516666Y11045000D01*
X35421428Y10949762D01*
X35326190Y10759286D01*
X35326190Y10568810D01*
X35421428Y10283096D01*
X36564285Y9140239D01*
X35326190Y9140239D01*
X37421428Y16188572D02*
X37421428Y14855239D01*
X37897619Y16950477D02*
X38373809Y15521905D01*
X37135714Y15521905D01*
X36564285Y16855239D02*
X35326190Y16855239D01*
X35992857Y16093334D01*
X35707142Y16093334D01*
X35516666Y15998096D01*
X35421428Y15902858D01*
X35326190Y15712381D01*
X35326190Y15236191D01*
X35421428Y15045715D01*
X35516666Y14950477D01*
X35707142Y14855239D01*
X36278571Y14855239D01*
X36469047Y14950477D01*
X36564285Y15045715D01*
X38373809Y19839762D02*
X38278571Y19935000D01*
X38088095Y20030239D01*
X37611904Y20030239D01*
X37421428Y19935000D01*
X37326190Y19839762D01*
X37230952Y19649286D01*
X37230952Y19458810D01*
X37326190Y19173096D01*
X38469047Y18030239D01*
X37230952Y18030239D01*
X35516666Y19363572D02*
X35516666Y18030239D01*
X35992857Y20125477D02*
X36469047Y18696905D01*
X35230952Y18696905D01*
D11*
X69322380Y5885715D02*
X69322380Y6076191D01*
X69370000Y6171429D01*
X69417619Y6219048D01*
X69560476Y6314286D01*
X69750952Y6361905D01*
X70131904Y6361905D01*
X70227142Y6314286D01*
X70274761Y6266667D01*
X70322380Y6171429D01*
X70322380Y5980953D01*
X70274761Y5885715D01*
X70227142Y5838096D01*
X70131904Y5790477D01*
X69893809Y5790477D01*
X69798571Y5838096D01*
X69750952Y5885715D01*
X69703333Y5980953D01*
X69703333Y6171429D01*
X69750952Y6266667D01*
X69798571Y6314286D01*
X69893809Y6361905D01*
X70322380Y5314286D02*
X70322380Y5123810D01*
X70274761Y5028572D01*
X70227142Y4980953D01*
X70084285Y4885715D01*
X69893809Y4838096D01*
X69512857Y4838096D01*
X69417619Y4885715D01*
X69370000Y4933334D01*
X69322380Y5028572D01*
X69322380Y5219048D01*
X69370000Y5314286D01*
X69417619Y5361905D01*
X69512857Y5409524D01*
X69750952Y5409524D01*
X69846190Y5361905D01*
X69893809Y5314286D01*
X69941428Y5219048D01*
X69941428Y5028572D01*
X69893809Y4933334D01*
X69846190Y4885715D01*
X69750952Y4838096D01*
X70322380Y21030477D02*
X70322380Y21601905D01*
X70322380Y21316191D02*
X69322380Y21316191D01*
X69465238Y21411429D01*
X69560476Y21506667D01*
X69608095Y21601905D01*
X69417619Y20649524D02*
X69370000Y20601905D01*
X69322380Y20506667D01*
X69322380Y20268572D01*
X69370000Y20173334D01*
X69417619Y20125715D01*
X69512857Y20078096D01*
X69608095Y20078096D01*
X69750952Y20125715D01*
X70322380Y20697143D01*
X70322380Y20078096D01*
X55082380Y21030477D02*
X55082380Y21601905D01*
X55082380Y21316191D02*
X54082380Y21316191D01*
X54225238Y21411429D01*
X54320476Y21506667D01*
X54368095Y21601905D01*
X54510952Y20459048D02*
X54463333Y20554286D01*
X54415714Y20601905D01*
X54320476Y20649524D01*
X54272857Y20649524D01*
X54177619Y20601905D01*
X54130000Y20554286D01*
X54082380Y20459048D01*
X54082380Y20268572D01*
X54130000Y20173334D01*
X54177619Y20125715D01*
X54272857Y20078096D01*
X54320476Y20078096D01*
X54415714Y20125715D01*
X54463333Y20173334D01*
X54510952Y20268572D01*
X54510952Y20459048D01*
X54558571Y20554286D01*
X54606190Y20601905D01*
X54701428Y20649524D01*
X54891904Y20649524D01*
X54987142Y20601905D01*
X55034761Y20554286D01*
X55082380Y20459048D01*
X55082380Y20268572D01*
X55034761Y20173334D01*
X54987142Y20125715D01*
X54891904Y20078096D01*
X54701428Y20078096D01*
X54606190Y20125715D01*
X54558571Y20173334D01*
X54510952Y20268572D01*
X54082380Y6409524D02*
X54082380Y5742858D01*
X55082380Y6171429D01*
X54082380Y4885715D02*
X54082380Y5361905D01*
X54558571Y5409524D01*
X54510952Y5361905D01*
X54463333Y5266667D01*
X54463333Y5028572D01*
X54510952Y4933334D01*
X54558571Y4885715D01*
X54653809Y4838096D01*
X54891904Y4838096D01*
X54987142Y4885715D01*
X55034761Y4933334D01*
X55082380Y5028572D01*
X55082380Y5266667D01*
X55034761Y5361905D01*
X54987142Y5409524D01*
G04 #@! TO.C,M3*
X39387634Y87674999D02*
X82775002Y87674999D01*
X38899997Y87187362D02*
X39387634Y87674999D01*
X82775002Y87674999D02*
X83475001Y86975001D01*
X38899997Y87187362D02*
X38900000Y51095077D01*
X85000002Y86975001D02*
X85224202Y86750800D01*
X39469089Y50525988D02*
X84881775Y50525993D01*
X85224202Y86750800D02*
X85224210Y50868428D01*
X84881775Y50525993D02*
X85224210Y50868428D01*
X38900000Y51095077D02*
X39469089Y50525988D01*
X83475001Y86975001D02*
X85000002Y86975001D01*
G04 #@! TO.C,M1*
X39824997Y96525005D02*
X39824997Y102222827D01*
X40100001Y95425000D02*
X40156203Y95375000D01*
X40100001Y95425000D02*
X40100001Y96249999D01*
X40156203Y95375000D02*
X50999997Y95375000D01*
X39824997Y102222827D02*
X50999997Y102261674D01*
X39824997Y96525005D02*
X40100001Y96249999D01*
X50999997Y95368797D02*
X50999997Y102261674D01*
G04 #@! TO.C,M7*
X33100382Y73800381D02*
X33350001Y74049999D01*
X25861649Y87473709D02*
X31599999Y87473709D01*
X31599999Y86875000D02*
X32350000Y86124999D01*
X32350000Y86124999D02*
X33350001Y86124999D01*
X25500001Y74050380D02*
X25500001Y87112061D01*
X25750001Y73800381D02*
X33100382Y73800381D01*
X33350001Y74049999D02*
X33350001Y86124999D01*
X25500001Y87112061D02*
X25861649Y87473709D01*
X31599999Y86875000D02*
X31599999Y87473709D01*
X25500001Y74050380D02*
X25750001Y73800381D01*
G04 #@! TO.C,M4*
X39675007Y48825003D02*
X69575000Y48825000D01*
X40825002Y34349997D02*
X69155001Y34349997D01*
X70074999Y35274994D02*
X70074999Y48325001D01*
X69150002Y34349997D02*
X70074999Y35274994D01*
X39275002Y35899997D02*
X39275002Y48424998D01*
X69575000Y48825000D02*
X70074999Y48325001D01*
X39275002Y35899997D02*
X40825002Y34349997D01*
X39275002Y48424998D02*
X39675007Y48825003D01*
G04 #@! TO.C,M6*
X131176545Y37163716D02*
X131176545Y79138715D01*
X103201544Y53288716D02*
X103201544Y78038715D01*
X103065999Y37024260D02*
X103065999Y53153171D01*
X130701545Y79613715D02*
X131176545Y79138715D01*
X103201544Y78038715D02*
X104776545Y79613715D01*
X103065999Y53153171D02*
X103201544Y53288716D01*
X130793574Y36780745D02*
X131176545Y37163716D01*
X104776545Y79613715D02*
X130701545Y79613715D01*
X103309514Y36780745D02*
X130793574Y36780745D01*
X103065999Y37024260D02*
X103309514Y36780745D01*
G04 #@! TO.C,M5*
X17125000Y36049999D02*
X23874999Y36049999D01*
X17125000Y32475000D02*
X17125000Y36049999D01*
X17125000Y32475000D02*
X35400000Y32475000D01*
X30200003Y36774999D02*
X30925003Y36049999D01*
X35400000Y32475000D02*
X35400000Y36049999D01*
X30925003Y36049999D02*
X35400000Y36049999D01*
X23874999Y36049999D02*
X24599999Y36774999D01*
X24599999Y36774999D02*
X30200003Y36774999D01*
G04 #@! TO.C,M2*
X132274998Y93100007D02*
X132274998Y99025342D01*
X92850000Y99099820D02*
X132274998Y99025342D01*
X131100000Y92450001D02*
X131624992Y92450001D01*
X130499998Y91850000D02*
X131100000Y92450001D01*
X131624992Y92450001D02*
X132274998Y93100007D01*
X123625003Y97575005D02*
X126250004Y97575005D01*
X92850000Y91850000D02*
X92850000Y99099820D01*
X92850000Y91850000D02*
X130499998Y91850000D01*
G04 #@! TO.C,M8*
X83024998Y30800002D02*
X92099999Y30800002D01*
X81949999Y31875001D02*
X83024998Y30800002D01*
X76050034Y37024966D02*
X81200036Y37024966D01*
X75925000Y37150000D02*
X76050034Y37024966D01*
X92099999Y30800002D02*
X92099999Y46325003D01*
X81200036Y37024966D02*
X81949999Y36275003D01*
X75925000Y46325003D02*
X92099999Y46325003D01*
X81949999Y31875001D02*
X81949999Y36275003D01*
X75925000Y37150000D02*
X75925000Y46325003D01*
G04 #@! TD*
M02*
