G04 #@! TF.GenerationSoftware,KiCad,Pcbnew,(5.99.0-9206-g896188ca5e)*
G04 #@! TF.CreationDate,2021-02-20T22:34:01+02:00*
G04 #@! TF.ProjectId,hellen121vag,68656c6c-656e-4313-9231-7661672e6b69,a*
G04 #@! TF.SameCoordinates,PX2b953a0PY6943058*
G04 #@! TF.FileFunction,Soldermask,Bot*
G04 #@! TF.FilePolarity,Negative*
%FSLAX46Y46*%
G04 Gerber Fmt 4.6, Leading zero omitted, Abs format (unit mm)*
G04 Created by KiCad (PCBNEW (5.99.0-9206-g896188ca5e)) date 2021-02-20 22:34:01*
%MOMM*%
%LPD*%
G01*
G04 APERTURE LIST*
%ADD10O,1.240000X2.540000*%
%ADD11C,1.240000*%
%ADD12C,3.840000*%
%ADD13C,2.340000*%
%ADD14C,2.740000*%
%ADD15C,1.640000*%
%ADD16C,1.840000*%
%ADD17C,0.739999*%
%ADD18O,1.140001X1.640000*%
%ADD19O,11.540000X1.240000*%
%ADD20O,0.539999X0.739999*%
%ADD21O,0.739999X0.940001*%
%ADD22O,0.739999X0.539999*%
%ADD23O,0.940001X0.739999*%
%ADD24O,0.539999X0.340000*%
%ADD25C,1.664000*%
G04 APERTURE END LIST*
D10*
G04 #@! TO.C,J1*
X79400000Y103175000D03*
X86700000Y103175000D03*
D11*
X84650000Y102300000D03*
X83850000Y104050000D03*
X83050000Y102300000D03*
X82250000Y104050000D03*
G36*
G01*
X80830000Y101750000D02*
X80830000Y102850000D01*
G75*
G02*
X80900000Y102920000I70000J0D01*
G01*
X82000000Y102920000D01*
G75*
G02*
X82070000Y102850000I0J-70000D01*
G01*
X82070000Y101750000D01*
G75*
G02*
X82000000Y101680000I-70000J0D01*
G01*
X80900000Y101680000D01*
G75*
G02*
X80830000Y101750000I0J70000D01*
G01*
G37*
G04 #@! TD*
D12*
G04 #@! TO.C,P1*
X145348000Y5492000D03*
X18648000Y5492000D03*
D13*
X142898000Y13292000D03*
X21098000Y13292000D03*
D12*
X93148000Y5492000D03*
D14*
X25748000Y10492000D03*
X31548000Y10492000D03*
X28648000Y12822000D03*
X25748000Y18622000D03*
X31548000Y18622000D03*
D15*
X85168000Y18622000D03*
X82628000Y18622000D03*
X80088000Y18622000D03*
X77548000Y18622000D03*
X75008000Y18622000D03*
X72468000Y18622000D03*
X69928000Y18622000D03*
X67388000Y18622000D03*
X64848000Y18622000D03*
X62308000Y18622000D03*
X59768000Y18622000D03*
X57228000Y18622000D03*
X54688000Y18622000D03*
X52148000Y18622000D03*
X49608000Y18622000D03*
X47068000Y18622000D03*
X44528000Y18622000D03*
X41988000Y18622000D03*
X39448000Y18622000D03*
X85168000Y16082000D03*
X82628000Y16082000D03*
X80088000Y16082000D03*
X77548000Y16082000D03*
X75008000Y16082000D03*
X72468000Y16082000D03*
X69928000Y16082000D03*
X67388000Y16082000D03*
X64848000Y16082000D03*
X62308000Y16082000D03*
X59768000Y16082000D03*
X57228000Y16082000D03*
X54688000Y16082000D03*
X52148000Y16082000D03*
X49608000Y16082000D03*
X47068000Y16082000D03*
X44528000Y16082000D03*
X41988000Y16082000D03*
X39448000Y16082000D03*
X85168000Y10032000D03*
X82628000Y10032000D03*
X80088000Y10032000D03*
X77548000Y10032000D03*
X75008000Y10032000D03*
X72468000Y10032000D03*
X69928000Y10032000D03*
X67388000Y10032000D03*
X64848000Y10032000D03*
X62308000Y10032000D03*
X59768000Y10032000D03*
X57228000Y10032000D03*
X54688000Y10032000D03*
X52148000Y10032000D03*
X49608000Y10032000D03*
X47068000Y10032000D03*
X44528000Y10032000D03*
X41988000Y10032000D03*
X39448000Y10032000D03*
X85168000Y7492000D03*
X82628000Y7492000D03*
X80088000Y7492000D03*
X77548000Y7492000D03*
X75008000Y7492000D03*
X72468000Y7492000D03*
X69928000Y7492000D03*
X67388000Y7492000D03*
X64848000Y7492000D03*
X62308000Y7492000D03*
X59768000Y7492000D03*
X57228000Y7492000D03*
X54688000Y7492000D03*
X52148000Y7492000D03*
X49608000Y7492000D03*
X47068000Y7492000D03*
X44528000Y7492000D03*
X41988000Y7492000D03*
X39448000Y7492000D03*
X101138000Y7492000D03*
X103678000Y7492000D03*
X106218000Y7492000D03*
X108758000Y7492000D03*
X111298000Y7492000D03*
X113838000Y7492000D03*
X116378000Y7492000D03*
X118918000Y7492000D03*
X101138000Y10032000D03*
X103678000Y10032000D03*
X106218000Y10032000D03*
X108758000Y10032000D03*
X111298000Y10032000D03*
X113838000Y10032000D03*
X116378000Y10032000D03*
X118918000Y10032000D03*
X101138000Y16082000D03*
X103678000Y16082000D03*
X106218000Y16082000D03*
X108758000Y16082000D03*
X111298000Y16082000D03*
X113838000Y16082000D03*
X116378000Y16082000D03*
X118918000Y16082000D03*
X101138000Y18622000D03*
X103678000Y18622000D03*
X106218000Y18622000D03*
X108758000Y18622000D03*
X111298000Y18622000D03*
X113838000Y18622000D03*
X116378000Y18622000D03*
X118918000Y18622000D03*
D14*
X126748000Y10492000D03*
X132548000Y10492000D03*
X138448000Y10492000D03*
X129648000Y12822000D03*
X135548000Y12822000D03*
X126748000Y18622000D03*
X132548000Y18622000D03*
X138448000Y18622000D03*
G04 #@! TD*
G04 #@! TO.C,M3*
G36*
G01*
X85339496Y91101375D02*
X85089498Y91101375D01*
G75*
G02*
X84894498Y91296375I0J195000D01*
G01*
X84894498Y91296375D01*
G75*
G02*
X85089498Y91491375I195000J0D01*
G01*
X85339496Y91491375D01*
G75*
G02*
X85534496Y91296375I0J-195000D01*
G01*
X85534496Y91296375D01*
G75*
G02*
X85339496Y91101375I-195000J0D01*
G01*
G37*
G36*
G01*
X85089498Y90831376D02*
X85339496Y90831376D01*
G75*
G02*
X85534496Y90636376I0J-195000D01*
G01*
X85534496Y90636376D01*
G75*
G02*
X85339496Y90441376I-195000J0D01*
G01*
X85089498Y90441376D01*
G75*
G02*
X84894498Y90636376I0J195000D01*
G01*
X84894498Y90636376D01*
G75*
G02*
X85089498Y90831376I195000J0D01*
G01*
G37*
G36*
G01*
X85089498Y90171372D02*
X85339496Y90171372D01*
G75*
G02*
X85534496Y89976372I0J-195000D01*
G01*
X85534496Y89976372D01*
G75*
G02*
X85339496Y89781372I-195000J0D01*
G01*
X85089498Y89781372D01*
G75*
G02*
X84894498Y89976372I0J195000D01*
G01*
X84894498Y89976372D01*
G75*
G02*
X85089498Y90171372I195000J0D01*
G01*
G37*
G36*
G01*
X85089498Y89511376D02*
X85339496Y89511376D01*
G75*
G02*
X85534496Y89316376I0J-195000D01*
G01*
X85534496Y89316376D01*
G75*
G02*
X85339496Y89121376I-195000J0D01*
G01*
X85089498Y89121376D01*
G75*
G02*
X84894498Y89316376I0J195000D01*
G01*
X84894498Y89316376D01*
G75*
G02*
X85089498Y89511376I195000J0D01*
G01*
G37*
G36*
G01*
X85089498Y88851375D02*
X85339496Y88851375D01*
G75*
G02*
X85534496Y88656375I0J-195000D01*
G01*
X85534496Y88656375D01*
G75*
G02*
X85339496Y88461375I-195000J0D01*
G01*
X85089498Y88461375D01*
G75*
G02*
X84894498Y88656375I0J195000D01*
G01*
X84894498Y88656375D01*
G75*
G02*
X85089498Y88851375I195000J0D01*
G01*
G37*
G36*
G01*
X85089498Y85551374D02*
X85339496Y85551374D01*
G75*
G02*
X85534496Y85356374I0J-195000D01*
G01*
X85534496Y85356374D01*
G75*
G02*
X85339496Y85161374I-195000J0D01*
G01*
X85089498Y85161374D01*
G75*
G02*
X84894498Y85356374I0J195000D01*
G01*
X84894498Y85356374D01*
G75*
G02*
X85089498Y85551374I195000J0D01*
G01*
G37*
G36*
G01*
X85089498Y84891373D02*
X85339496Y84891373D01*
G75*
G02*
X85534496Y84696373I0J-195000D01*
G01*
X85534496Y84696373D01*
G75*
G02*
X85339496Y84501373I-195000J0D01*
G01*
X85089498Y84501373D01*
G75*
G02*
X84894498Y84696373I0J195000D01*
G01*
X84894498Y84696373D01*
G75*
G02*
X85089498Y84891373I195000J0D01*
G01*
G37*
G36*
G01*
X85089498Y84231371D02*
X85339496Y84231371D01*
G75*
G02*
X85534496Y84036371I0J-195000D01*
G01*
X85534496Y84036371D01*
G75*
G02*
X85339496Y83841371I-195000J0D01*
G01*
X85089498Y83841371D01*
G75*
G02*
X84894498Y84036371I0J195000D01*
G01*
X84894498Y84036371D01*
G75*
G02*
X85089498Y84231371I195000J0D01*
G01*
G37*
G36*
G01*
X85089498Y83571373D02*
X85339496Y83571373D01*
G75*
G02*
X85534496Y83376373I0J-195000D01*
G01*
X85534496Y83376373D01*
G75*
G02*
X85339496Y83181373I-195000J0D01*
G01*
X85089498Y83181373D01*
G75*
G02*
X84894498Y83376373I0J195000D01*
G01*
X84894498Y83376373D01*
G75*
G02*
X85089498Y83571373I195000J0D01*
G01*
G37*
G36*
G01*
X85089498Y82911371D02*
X85339496Y82911371D01*
G75*
G02*
X85534496Y82716371I0J-195000D01*
G01*
X85534496Y82716371D01*
G75*
G02*
X85339496Y82521371I-195000J0D01*
G01*
X85089498Y82521371D01*
G75*
G02*
X84894498Y82716371I0J195000D01*
G01*
X84894498Y82716371D01*
G75*
G02*
X85089498Y82911371I195000J0D01*
G01*
G37*
G36*
G01*
X85089498Y82251373D02*
X85339496Y82251373D01*
G75*
G02*
X85534496Y82056373I0J-195000D01*
G01*
X85534496Y82056373D01*
G75*
G02*
X85339496Y81861373I-195000J0D01*
G01*
X85089498Y81861373D01*
G75*
G02*
X84894498Y82056373I0J195000D01*
G01*
X84894498Y82056373D01*
G75*
G02*
X85089498Y82251373I195000J0D01*
G01*
G37*
G36*
G01*
X85089498Y81591372D02*
X85339496Y81591372D01*
G75*
G02*
X85534496Y81396372I0J-195000D01*
G01*
X85534496Y81396372D01*
G75*
G02*
X85339496Y81201372I-195000J0D01*
G01*
X85089498Y81201372D01*
G75*
G02*
X84894498Y81396372I0J195000D01*
G01*
X84894498Y81396372D01*
G75*
G02*
X85089498Y81591372I195000J0D01*
G01*
G37*
G36*
G01*
X85089498Y80931373D02*
X85339496Y80931373D01*
G75*
G02*
X85534496Y80736373I0J-195000D01*
G01*
X85534496Y80736373D01*
G75*
G02*
X85339496Y80541373I-195000J0D01*
G01*
X85089498Y80541373D01*
G75*
G02*
X84894498Y80736373I0J195000D01*
G01*
X84894498Y80736373D01*
G75*
G02*
X85089498Y80931373I195000J0D01*
G01*
G37*
G36*
G01*
X85089498Y80271372D02*
X85339496Y80271372D01*
G75*
G02*
X85534496Y80076372I0J-195000D01*
G01*
X85534496Y80076372D01*
G75*
G02*
X85339496Y79881372I-195000J0D01*
G01*
X85089498Y79881372D01*
G75*
G02*
X84894498Y80076372I0J195000D01*
G01*
X84894498Y80076372D01*
G75*
G02*
X85089498Y80271372I195000J0D01*
G01*
G37*
G36*
G01*
X85089498Y79611373D02*
X85339496Y79611373D01*
G75*
G02*
X85534496Y79416373I0J-195000D01*
G01*
X85534496Y79416373D01*
G75*
G02*
X85339496Y79221373I-195000J0D01*
G01*
X85089498Y79221373D01*
G75*
G02*
X84894498Y79416373I0J195000D01*
G01*
X84894498Y79416373D01*
G75*
G02*
X85089498Y79611373I195000J0D01*
G01*
G37*
G36*
G01*
X85089498Y78951372D02*
X85339496Y78951372D01*
G75*
G02*
X85534496Y78756372I0J-195000D01*
G01*
X85534496Y78756372D01*
G75*
G02*
X85339496Y78561372I-195000J0D01*
G01*
X85089498Y78561372D01*
G75*
G02*
X84894498Y78756372I0J195000D01*
G01*
X84894498Y78756372D01*
G75*
G02*
X85089498Y78951372I195000J0D01*
G01*
G37*
G36*
G01*
X85089498Y78291373D02*
X85339496Y78291373D01*
G75*
G02*
X85534496Y78096373I0J-195000D01*
G01*
X85534496Y78096373D01*
G75*
G02*
X85339496Y77901373I-195000J0D01*
G01*
X85089498Y77901373D01*
G75*
G02*
X84894498Y78096373I0J195000D01*
G01*
X84894498Y78096373D01*
G75*
G02*
X85089498Y78291373I195000J0D01*
G01*
G37*
G36*
G01*
X85089498Y77631372D02*
X85339496Y77631372D01*
G75*
G02*
X85534496Y77436372I0J-195000D01*
G01*
X85534496Y77436372D01*
G75*
G02*
X85339496Y77241372I-195000J0D01*
G01*
X85089498Y77241372D01*
G75*
G02*
X84894498Y77436372I0J195000D01*
G01*
X84894498Y77436372D01*
G75*
G02*
X85089498Y77631372I195000J0D01*
G01*
G37*
G36*
G01*
X85089498Y76971373D02*
X85339496Y76971373D01*
G75*
G02*
X85534496Y76776373I0J-195000D01*
G01*
X85534496Y76776373D01*
G75*
G02*
X85339496Y76581373I-195000J0D01*
G01*
X85089498Y76581373D01*
G75*
G02*
X84894498Y76776373I0J195000D01*
G01*
X84894498Y76776373D01*
G75*
G02*
X85089498Y76971373I195000J0D01*
G01*
G37*
G36*
G01*
X85089498Y76311372D02*
X85339496Y76311372D01*
G75*
G02*
X85534496Y76116372I0J-195000D01*
G01*
X85534496Y76116372D01*
G75*
G02*
X85339496Y75921372I-195000J0D01*
G01*
X85089498Y75921372D01*
G75*
G02*
X84894498Y76116372I0J195000D01*
G01*
X84894498Y76116372D01*
G75*
G02*
X85089498Y76311372I195000J0D01*
G01*
G37*
G36*
G01*
X85089498Y75651373D02*
X85339496Y75651373D01*
G75*
G02*
X85534496Y75456373I0J-195000D01*
G01*
X85534496Y75456373D01*
G75*
G02*
X85339496Y75261373I-195000J0D01*
G01*
X85089498Y75261373D01*
G75*
G02*
X84894498Y75456373I0J195000D01*
G01*
X84894498Y75456373D01*
G75*
G02*
X85089498Y75651373I195000J0D01*
G01*
G37*
G36*
G01*
X85089498Y74991372D02*
X85339496Y74991372D01*
G75*
G02*
X85534496Y74796372I0J-195000D01*
G01*
X85534496Y74796372D01*
G75*
G02*
X85339496Y74601372I-195000J0D01*
G01*
X85089498Y74601372D01*
G75*
G02*
X84894498Y74796372I0J195000D01*
G01*
X84894498Y74796372D01*
G75*
G02*
X85089498Y74991372I195000J0D01*
G01*
G37*
G36*
G01*
X85089498Y74331373D02*
X85339496Y74331373D01*
G75*
G02*
X85534496Y74136373I0J-195000D01*
G01*
X85534496Y74136373D01*
G75*
G02*
X85339496Y73941373I-195000J0D01*
G01*
X85089498Y73941373D01*
G75*
G02*
X84894498Y74136373I0J195000D01*
G01*
X84894498Y74136373D01*
G75*
G02*
X85089498Y74331373I195000J0D01*
G01*
G37*
G36*
G01*
X85089498Y73671372D02*
X85339496Y73671372D01*
G75*
G02*
X85534496Y73476372I0J-195000D01*
G01*
X85534496Y73476372D01*
G75*
G02*
X85339496Y73281372I-195000J0D01*
G01*
X85089498Y73281372D01*
G75*
G02*
X84894498Y73476372I0J195000D01*
G01*
X84894498Y73476372D01*
G75*
G02*
X85089498Y73671372I195000J0D01*
G01*
G37*
G36*
G01*
X85089498Y73011373D02*
X85339496Y73011373D01*
G75*
G02*
X85534496Y72816373I0J-195000D01*
G01*
X85534496Y72816373D01*
G75*
G02*
X85339496Y72621373I-195000J0D01*
G01*
X85089498Y72621373D01*
G75*
G02*
X84894498Y72816373I0J195000D01*
G01*
X84894498Y72816373D01*
G75*
G02*
X85089498Y73011373I195000J0D01*
G01*
G37*
G36*
G01*
X85089498Y72351372D02*
X85339496Y72351372D01*
G75*
G02*
X85534496Y72156372I0J-195000D01*
G01*
X85534496Y72156372D01*
G75*
G02*
X85339496Y71961372I-195000J0D01*
G01*
X85089498Y71961372D01*
G75*
G02*
X84894498Y72156372I0J195000D01*
G01*
X84894498Y72156372D01*
G75*
G02*
X85089498Y72351372I195000J0D01*
G01*
G37*
G36*
G01*
X85089498Y71691374D02*
X85339496Y71691374D01*
G75*
G02*
X85534496Y71496374I0J-195000D01*
G01*
X85534496Y71496374D01*
G75*
G02*
X85339496Y71301374I-195000J0D01*
G01*
X85089498Y71301374D01*
G75*
G02*
X84894498Y71496374I0J195000D01*
G01*
X84894498Y71496374D01*
G75*
G02*
X85089498Y71691374I195000J0D01*
G01*
G37*
G36*
G01*
X85089498Y71031372D02*
X85339496Y71031372D01*
G75*
G02*
X85534496Y70836372I0J-195000D01*
G01*
X85534496Y70836372D01*
G75*
G02*
X85339496Y70641372I-195000J0D01*
G01*
X85089498Y70641372D01*
G75*
G02*
X84894498Y70836372I0J195000D01*
G01*
X84894498Y70836372D01*
G75*
G02*
X85089498Y71031372I195000J0D01*
G01*
G37*
G36*
G01*
X85089498Y70371374D02*
X85339496Y70371374D01*
G75*
G02*
X85534496Y70176374I0J-195000D01*
G01*
X85534496Y70176374D01*
G75*
G02*
X85339496Y69981374I-195000J0D01*
G01*
X85089498Y69981374D01*
G75*
G02*
X84894498Y70176374I0J195000D01*
G01*
X84894498Y70176374D01*
G75*
G02*
X85089498Y70371374I195000J0D01*
G01*
G37*
G36*
G01*
X85089498Y69711372D02*
X85339496Y69711372D01*
G75*
G02*
X85534496Y69516372I0J-195000D01*
G01*
X85534496Y69516372D01*
G75*
G02*
X85339496Y69321372I-195000J0D01*
G01*
X85089498Y69321372D01*
G75*
G02*
X84894498Y69516372I0J195000D01*
G01*
X84894498Y69516372D01*
G75*
G02*
X85089498Y69711372I195000J0D01*
G01*
G37*
G36*
G01*
X85089498Y69051374D02*
X85339496Y69051374D01*
G75*
G02*
X85534496Y68856374I0J-195000D01*
G01*
X85534496Y68856374D01*
G75*
G02*
X85339496Y68661374I-195000J0D01*
G01*
X85089498Y68661374D01*
G75*
G02*
X84894498Y68856374I0J195000D01*
G01*
X84894498Y68856374D01*
G75*
G02*
X85089498Y69051374I195000J0D01*
G01*
G37*
G36*
G01*
X85089498Y68391373D02*
X85339496Y68391373D01*
G75*
G02*
X85534496Y68196373I0J-195000D01*
G01*
X85534496Y68196373D01*
G75*
G02*
X85339496Y68001373I-195000J0D01*
G01*
X85089498Y68001373D01*
G75*
G02*
X84894498Y68196373I0J195000D01*
G01*
X84894498Y68196373D01*
G75*
G02*
X85089498Y68391373I195000J0D01*
G01*
G37*
G36*
G01*
X85089498Y67731374D02*
X85339496Y67731374D01*
G75*
G02*
X85534496Y67536374I0J-195000D01*
G01*
X85534496Y67536374D01*
G75*
G02*
X85339496Y67341374I-195000J0D01*
G01*
X85089498Y67341374D01*
G75*
G02*
X84894498Y67536374I0J195000D01*
G01*
X84894498Y67536374D01*
G75*
G02*
X85089498Y67731374I195000J0D01*
G01*
G37*
G36*
G01*
X85089498Y67071373D02*
X85339496Y67071373D01*
G75*
G02*
X85534496Y66876373I0J-195000D01*
G01*
X85534496Y66876373D01*
G75*
G02*
X85339496Y66681373I-195000J0D01*
G01*
X85089498Y66681373D01*
G75*
G02*
X84894498Y66876373I0J195000D01*
G01*
X84894498Y66876373D01*
G75*
G02*
X85089498Y67071373I195000J0D01*
G01*
G37*
G36*
G01*
X51462499Y95548376D02*
X51462499Y95298378D01*
G75*
G02*
X51267499Y95103378I-195000J0D01*
G01*
X51267499Y95103378D01*
G75*
G02*
X51072499Y95298378I0J195000D01*
G01*
X51072499Y95548376D01*
G75*
G02*
X51267499Y95743376I195000J0D01*
G01*
X51267499Y95743376D01*
G75*
G02*
X51462499Y95548376I0J-195000D01*
G01*
G37*
G36*
G01*
X52392501Y95298378D02*
X52392501Y95548376D01*
G75*
G02*
X52587501Y95743376I195000J0D01*
G01*
X52587501Y95743376D01*
G75*
G02*
X52782501Y95548376I0J-195000D01*
G01*
X52782501Y95298378D01*
G75*
G02*
X52587501Y95103378I-195000J0D01*
G01*
X52587501Y95103378D01*
G75*
G02*
X52392501Y95298378I0J195000D01*
G01*
G37*
G36*
G01*
X53712504Y95298378D02*
X53712504Y95548376D01*
G75*
G02*
X53907504Y95743376I195000J0D01*
G01*
X53907504Y95743376D01*
G75*
G02*
X54102504Y95548376I0J-195000D01*
G01*
X54102504Y95298378D01*
G75*
G02*
X53907504Y95103378I-195000J0D01*
G01*
X53907504Y95103378D01*
G75*
G02*
X53712504Y95298378I0J195000D01*
G01*
G37*
G36*
G01*
X55042501Y95298378D02*
X55042501Y95548376D01*
G75*
G02*
X55237501Y95743376I195000J0D01*
G01*
X55237501Y95743376D01*
G75*
G02*
X55432501Y95548376I0J-195000D01*
G01*
X55432501Y95298378D01*
G75*
G02*
X55237501Y95103378I-195000J0D01*
G01*
X55237501Y95103378D01*
G75*
G02*
X55042501Y95298378I0J195000D01*
G01*
G37*
G36*
G01*
X56142499Y95298378D02*
X56142499Y95548376D01*
G75*
G02*
X56337499Y95743376I195000J0D01*
G01*
X56337499Y95743376D01*
G75*
G02*
X56532499Y95548376I0J-195000D01*
G01*
X56532499Y95298378D01*
G75*
G02*
X56337499Y95103378I-195000J0D01*
G01*
X56337499Y95103378D01*
G75*
G02*
X56142499Y95298378I0J195000D01*
G01*
G37*
G36*
G01*
X57242497Y95298378D02*
X57242497Y95548376D01*
G75*
G02*
X57437497Y95743376I195000J0D01*
G01*
X57437497Y95743376D01*
G75*
G02*
X57632497Y95548376I0J-195000D01*
G01*
X57632497Y95298378D01*
G75*
G02*
X57437497Y95103378I-195000J0D01*
G01*
X57437497Y95103378D01*
G75*
G02*
X57242497Y95298378I0J195000D01*
G01*
G37*
G36*
G01*
X58342495Y95298378D02*
X58342495Y95548376D01*
G75*
G02*
X58537495Y95743376I195000J0D01*
G01*
X58537495Y95743376D01*
G75*
G02*
X58732495Y95548376I0J-195000D01*
G01*
X58732495Y95298378D01*
G75*
G02*
X58537495Y95103378I-195000J0D01*
G01*
X58537495Y95103378D01*
G75*
G02*
X58342495Y95298378I0J195000D01*
G01*
G37*
G36*
G01*
X59442492Y95298378D02*
X59442492Y95548376D01*
G75*
G02*
X59637492Y95743376I195000J0D01*
G01*
X59637492Y95743376D01*
G75*
G02*
X59832492Y95548376I0J-195000D01*
G01*
X59832492Y95298378D01*
G75*
G02*
X59637492Y95103378I-195000J0D01*
G01*
X59637492Y95103378D01*
G75*
G02*
X59442492Y95298378I0J195000D01*
G01*
G37*
G36*
G01*
X60542490Y95298378D02*
X60542490Y95548376D01*
G75*
G02*
X60737490Y95743376I195000J0D01*
G01*
X60737490Y95743376D01*
G75*
G02*
X60932490Y95548376I0J-195000D01*
G01*
X60932490Y95298378D01*
G75*
G02*
X60737490Y95103378I-195000J0D01*
G01*
X60737490Y95103378D01*
G75*
G02*
X60542490Y95298378I0J195000D01*
G01*
G37*
G36*
G01*
X61642488Y95298378D02*
X61642488Y95548376D01*
G75*
G02*
X61837488Y95743376I195000J0D01*
G01*
X61837488Y95743376D01*
G75*
G02*
X62032488Y95548376I0J-195000D01*
G01*
X62032488Y95298378D01*
G75*
G02*
X61837488Y95103378I-195000J0D01*
G01*
X61837488Y95103378D01*
G75*
G02*
X61642488Y95298378I0J195000D01*
G01*
G37*
G36*
G01*
X62742486Y95298378D02*
X62742486Y95548376D01*
G75*
G02*
X62937486Y95743376I195000J0D01*
G01*
X62937486Y95743376D01*
G75*
G02*
X63132486Y95548376I0J-195000D01*
G01*
X63132486Y95298378D01*
G75*
G02*
X62937486Y95103378I-195000J0D01*
G01*
X62937486Y95103378D01*
G75*
G02*
X62742486Y95298378I0J195000D01*
G01*
G37*
G36*
G01*
X63842484Y95298378D02*
X63842484Y95548376D01*
G75*
G02*
X64037484Y95743376I195000J0D01*
G01*
X64037484Y95743376D01*
G75*
G02*
X64232484Y95548376I0J-195000D01*
G01*
X64232484Y95298378D01*
G75*
G02*
X64037484Y95103378I-195000J0D01*
G01*
X64037484Y95103378D01*
G75*
G02*
X63842484Y95298378I0J195000D01*
G01*
G37*
G36*
G01*
X64942481Y95298378D02*
X64942481Y95548376D01*
G75*
G02*
X65137481Y95743376I195000J0D01*
G01*
X65137481Y95743376D01*
G75*
G02*
X65332481Y95548376I0J-195000D01*
G01*
X65332481Y95298378D01*
G75*
G02*
X65137481Y95103378I-195000J0D01*
G01*
X65137481Y95103378D01*
G75*
G02*
X64942481Y95298378I0J195000D01*
G01*
G37*
G36*
G01*
X66042479Y95298378D02*
X66042479Y95548376D01*
G75*
G02*
X66237479Y95743376I195000J0D01*
G01*
X66237479Y95743376D01*
G75*
G02*
X66432479Y95548376I0J-195000D01*
G01*
X66432479Y95298378D01*
G75*
G02*
X66237479Y95103378I-195000J0D01*
G01*
X66237479Y95103378D01*
G75*
G02*
X66042479Y95298378I0J195000D01*
G01*
G37*
G36*
G01*
X67142477Y95298378D02*
X67142477Y95548376D01*
G75*
G02*
X67337477Y95743376I195000J0D01*
G01*
X67337477Y95743376D01*
G75*
G02*
X67532477Y95548376I0J-195000D01*
G01*
X67532477Y95298378D01*
G75*
G02*
X67337477Y95103378I-195000J0D01*
G01*
X67337477Y95103378D01*
G75*
G02*
X67142477Y95298378I0J195000D01*
G01*
G37*
G36*
G01*
X68242475Y95298378D02*
X68242475Y95548376D01*
G75*
G02*
X68437475Y95743376I195000J0D01*
G01*
X68437475Y95743376D01*
G75*
G02*
X68632475Y95548376I0J-195000D01*
G01*
X68632475Y95298378D01*
G75*
G02*
X68437475Y95103378I-195000J0D01*
G01*
X68437475Y95103378D01*
G75*
G02*
X68242475Y95298378I0J195000D01*
G01*
G37*
G36*
G01*
X69342473Y95298378D02*
X69342473Y95548376D01*
G75*
G02*
X69537473Y95743376I195000J0D01*
G01*
X69537473Y95743376D01*
G75*
G02*
X69732473Y95548376I0J-195000D01*
G01*
X69732473Y95298378D01*
G75*
G02*
X69537473Y95103378I-195000J0D01*
G01*
X69537473Y95103378D01*
G75*
G02*
X69342473Y95298378I0J195000D01*
G01*
G37*
G36*
G01*
X70442470Y95298378D02*
X70442470Y95548376D01*
G75*
G02*
X70637470Y95743376I195000J0D01*
G01*
X70637470Y95743376D01*
G75*
G02*
X70832470Y95548376I0J-195000D01*
G01*
X70832470Y95298378D01*
G75*
G02*
X70637470Y95103378I-195000J0D01*
G01*
X70637470Y95103378D01*
G75*
G02*
X70442470Y95298378I0J195000D01*
G01*
G37*
G36*
G01*
X71542468Y95298378D02*
X71542468Y95548376D01*
G75*
G02*
X71737468Y95743376I195000J0D01*
G01*
X71737468Y95743376D01*
G75*
G02*
X71932468Y95548376I0J-195000D01*
G01*
X71932468Y95298378D01*
G75*
G02*
X71737468Y95103378I-195000J0D01*
G01*
X71737468Y95103378D01*
G75*
G02*
X71542468Y95298378I0J195000D01*
G01*
G37*
G36*
G01*
X72642466Y95298378D02*
X72642466Y95548376D01*
G75*
G02*
X72837466Y95743376I195000J0D01*
G01*
X72837466Y95743376D01*
G75*
G02*
X73032466Y95548376I0J-195000D01*
G01*
X73032466Y95298378D01*
G75*
G02*
X72837466Y95103378I-195000J0D01*
G01*
X72837466Y95103378D01*
G75*
G02*
X72642466Y95298378I0J195000D01*
G01*
G37*
G36*
G01*
X73742464Y95298378D02*
X73742464Y95548376D01*
G75*
G02*
X73937464Y95743376I195000J0D01*
G01*
X73937464Y95743376D01*
G75*
G02*
X74132464Y95548376I0J-195000D01*
G01*
X74132464Y95298378D01*
G75*
G02*
X73937464Y95103378I-195000J0D01*
G01*
X73937464Y95103378D01*
G75*
G02*
X73742464Y95298378I0J195000D01*
G01*
G37*
G36*
G01*
X74842462Y95298378D02*
X74842462Y95548376D01*
G75*
G02*
X75037462Y95743376I195000J0D01*
G01*
X75037462Y95743376D01*
G75*
G02*
X75232462Y95548376I0J-195000D01*
G01*
X75232462Y95298378D01*
G75*
G02*
X75037462Y95103378I-195000J0D01*
G01*
X75037462Y95103378D01*
G75*
G02*
X74842462Y95298378I0J195000D01*
G01*
G37*
G36*
G01*
X75942459Y95298378D02*
X75942459Y95548376D01*
G75*
G02*
X76137459Y95743376I195000J0D01*
G01*
X76137459Y95743376D01*
G75*
G02*
X76332459Y95548376I0J-195000D01*
G01*
X76332459Y95298378D01*
G75*
G02*
X76137459Y95103378I-195000J0D01*
G01*
X76137459Y95103378D01*
G75*
G02*
X75942459Y95298378I0J195000D01*
G01*
G37*
G36*
G01*
X77042457Y95298378D02*
X77042457Y95548376D01*
G75*
G02*
X77237457Y95743376I195000J0D01*
G01*
X77237457Y95743376D01*
G75*
G02*
X77432457Y95548376I0J-195000D01*
G01*
X77432457Y95298378D01*
G75*
G02*
X77237457Y95103378I-195000J0D01*
G01*
X77237457Y95103378D01*
G75*
G02*
X77042457Y95298378I0J195000D01*
G01*
G37*
G36*
G01*
X78142455Y95298378D02*
X78142455Y95548376D01*
G75*
G02*
X78337455Y95743376I195000J0D01*
G01*
X78337455Y95743376D01*
G75*
G02*
X78532455Y95548376I0J-195000D01*
G01*
X78532455Y95298378D01*
G75*
G02*
X78337455Y95103378I-195000J0D01*
G01*
X78337455Y95103378D01*
G75*
G02*
X78142455Y95298378I0J195000D01*
G01*
G37*
G36*
G01*
X79242453Y95298378D02*
X79242453Y95548376D01*
G75*
G02*
X79437453Y95743376I195000J0D01*
G01*
X79437453Y95743376D01*
G75*
G02*
X79632453Y95548376I0J-195000D01*
G01*
X79632453Y95298378D01*
G75*
G02*
X79437453Y95103378I-195000J0D01*
G01*
X79437453Y95103378D01*
G75*
G02*
X79242453Y95298378I0J195000D01*
G01*
G37*
G36*
G01*
X80342451Y95298378D02*
X80342451Y95548376D01*
G75*
G02*
X80537451Y95743376I195000J0D01*
G01*
X80537451Y95743376D01*
G75*
G02*
X80732451Y95548376I0J-195000D01*
G01*
X80732451Y95298378D01*
G75*
G02*
X80537451Y95103378I-195000J0D01*
G01*
X80537451Y95103378D01*
G75*
G02*
X80342451Y95298378I0J195000D01*
G01*
G37*
G36*
G01*
X81442448Y95298378D02*
X81442448Y95548376D01*
G75*
G02*
X81637448Y95743376I195000J0D01*
G01*
X81637448Y95743376D01*
G75*
G02*
X81832448Y95548376I0J-195000D01*
G01*
X81832448Y95298378D01*
G75*
G02*
X81637448Y95103378I-195000J0D01*
G01*
X81637448Y95103378D01*
G75*
G02*
X81442448Y95298378I0J195000D01*
G01*
G37*
G36*
G01*
X82542446Y95298378D02*
X82542446Y95548376D01*
G75*
G02*
X82737446Y95743376I195000J0D01*
G01*
X82737446Y95743376D01*
G75*
G02*
X82932446Y95548376I0J-195000D01*
G01*
X82932446Y95298378D01*
G75*
G02*
X82737446Y95103378I-195000J0D01*
G01*
X82737446Y95103378D01*
G75*
G02*
X82542446Y95298378I0J195000D01*
G01*
G37*
G36*
G01*
X83642444Y95298378D02*
X83642444Y95548376D01*
G75*
G02*
X83837444Y95743376I195000J0D01*
G01*
X83837444Y95743376D01*
G75*
G02*
X84032444Y95548376I0J-195000D01*
G01*
X84032444Y95298378D01*
G75*
G02*
X83837444Y95103378I-195000J0D01*
G01*
X83837444Y95103378D01*
G75*
G02*
X83642444Y95298378I0J195000D01*
G01*
G37*
G36*
G01*
X76642501Y59369377D02*
X76642501Y59619375D01*
G75*
G02*
X76837501Y59814375I195000J0D01*
G01*
X76837501Y59814375D01*
G75*
G02*
X77032501Y59619375I0J-195000D01*
G01*
X77032501Y59369377D01*
G75*
G02*
X76837501Y59174377I-195000J0D01*
G01*
X76837501Y59174377D01*
G75*
G02*
X76642501Y59369377I0J195000D01*
G01*
G37*
G36*
G01*
X75712499Y59619375D02*
X75712499Y59369377D01*
G75*
G02*
X75517499Y59174377I-195000J0D01*
G01*
X75517499Y59174377D01*
G75*
G02*
X75322499Y59369377I0J195000D01*
G01*
X75322499Y59619375D01*
G75*
G02*
X75517499Y59814375I195000J0D01*
G01*
X75517499Y59814375D01*
G75*
G02*
X75712499Y59619375I0J-195000D01*
G01*
G37*
G36*
G01*
X74392496Y59619375D02*
X74392496Y59369377D01*
G75*
G02*
X74197496Y59174377I-195000J0D01*
G01*
X74197496Y59174377D01*
G75*
G02*
X74002496Y59369377I0J195000D01*
G01*
X74002496Y59619375D01*
G75*
G02*
X74197496Y59814375I195000J0D01*
G01*
X74197496Y59814375D01*
G75*
G02*
X74392496Y59619375I0J-195000D01*
G01*
G37*
G36*
G01*
X73292499Y59619375D02*
X73292499Y59369377D01*
G75*
G02*
X73097499Y59174377I-195000J0D01*
G01*
X73097499Y59174377D01*
G75*
G02*
X72902499Y59369377I0J195000D01*
G01*
X72902499Y59619375D01*
G75*
G02*
X73097499Y59814375I195000J0D01*
G01*
X73097499Y59814375D01*
G75*
G02*
X73292499Y59619375I0J-195000D01*
G01*
G37*
G36*
G01*
X72192501Y59619375D02*
X72192501Y59369377D01*
G75*
G02*
X71997501Y59174377I-195000J0D01*
G01*
X71997501Y59174377D01*
G75*
G02*
X71802501Y59369377I0J195000D01*
G01*
X71802501Y59619375D01*
G75*
G02*
X71997501Y59814375I195000J0D01*
G01*
X71997501Y59814375D01*
G75*
G02*
X72192501Y59619375I0J-195000D01*
G01*
G37*
G36*
G01*
X71092503Y59619375D02*
X71092503Y59369377D01*
G75*
G02*
X70897503Y59174377I-195000J0D01*
G01*
X70897503Y59174377D01*
G75*
G02*
X70702503Y59369377I0J195000D01*
G01*
X70702503Y59619375D01*
G75*
G02*
X70897503Y59814375I195000J0D01*
G01*
X70897503Y59814375D01*
G75*
G02*
X71092503Y59619375I0J-195000D01*
G01*
G37*
G36*
G01*
X69992505Y59619375D02*
X69992505Y59369377D01*
G75*
G02*
X69797505Y59174377I-195000J0D01*
G01*
X69797505Y59174377D01*
G75*
G02*
X69602505Y59369377I0J195000D01*
G01*
X69602505Y59619375D01*
G75*
G02*
X69797505Y59814375I195000J0D01*
G01*
X69797505Y59814375D01*
G75*
G02*
X69992505Y59619375I0J-195000D01*
G01*
G37*
G36*
G01*
X68892507Y59619375D02*
X68892507Y59369377D01*
G75*
G02*
X68697507Y59174377I-195000J0D01*
G01*
X68697507Y59174377D01*
G75*
G02*
X68502507Y59369377I0J195000D01*
G01*
X68502507Y59619375D01*
G75*
G02*
X68697507Y59814375I195000J0D01*
G01*
X68697507Y59814375D01*
G75*
G02*
X68892507Y59619375I0J-195000D01*
G01*
G37*
G36*
G01*
X67792510Y59619375D02*
X67792510Y59369377D01*
G75*
G02*
X67597510Y59174377I-195000J0D01*
G01*
X67597510Y59174377D01*
G75*
G02*
X67402510Y59369377I0J195000D01*
G01*
X67402510Y59619375D01*
G75*
G02*
X67597510Y59814375I195000J0D01*
G01*
X67597510Y59814375D01*
G75*
G02*
X67792510Y59619375I0J-195000D01*
G01*
G37*
G36*
G01*
X66692512Y59619375D02*
X66692512Y59369377D01*
G75*
G02*
X66497512Y59174377I-195000J0D01*
G01*
X66497512Y59174377D01*
G75*
G02*
X66302512Y59369377I0J195000D01*
G01*
X66302512Y59619375D01*
G75*
G02*
X66497512Y59814375I195000J0D01*
G01*
X66497512Y59814375D01*
G75*
G02*
X66692512Y59619375I0J-195000D01*
G01*
G37*
G36*
G01*
X65592514Y59619375D02*
X65592514Y59369377D01*
G75*
G02*
X65397514Y59174377I-195000J0D01*
G01*
X65397514Y59174377D01*
G75*
G02*
X65202514Y59369377I0J195000D01*
G01*
X65202514Y59619375D01*
G75*
G02*
X65397514Y59814375I195000J0D01*
G01*
X65397514Y59814375D01*
G75*
G02*
X65592514Y59619375I0J-195000D01*
G01*
G37*
G36*
G01*
X64492516Y59619375D02*
X64492516Y59369377D01*
G75*
G02*
X64297516Y59174377I-195000J0D01*
G01*
X64297516Y59174377D01*
G75*
G02*
X64102516Y59369377I0J195000D01*
G01*
X64102516Y59619375D01*
G75*
G02*
X64297516Y59814375I195000J0D01*
G01*
X64297516Y59814375D01*
G75*
G02*
X64492516Y59619375I0J-195000D01*
G01*
G37*
G36*
G01*
X63392518Y59619375D02*
X63392518Y59369377D01*
G75*
G02*
X63197518Y59174377I-195000J0D01*
G01*
X63197518Y59174377D01*
G75*
G02*
X63002518Y59369377I0J195000D01*
G01*
X63002518Y59619375D01*
G75*
G02*
X63197518Y59814375I195000J0D01*
G01*
X63197518Y59814375D01*
G75*
G02*
X63392518Y59619375I0J-195000D01*
G01*
G37*
G36*
G01*
X62292521Y59619375D02*
X62292521Y59369377D01*
G75*
G02*
X62097521Y59174377I-195000J0D01*
G01*
X62097521Y59174377D01*
G75*
G02*
X61902521Y59369377I0J195000D01*
G01*
X61902521Y59619375D01*
G75*
G02*
X62097521Y59814375I195000J0D01*
G01*
X62097521Y59814375D01*
G75*
G02*
X62292521Y59619375I0J-195000D01*
G01*
G37*
G36*
G01*
X61192523Y59619375D02*
X61192523Y59369377D01*
G75*
G02*
X60997523Y59174377I-195000J0D01*
G01*
X60997523Y59174377D01*
G75*
G02*
X60802523Y59369377I0J195000D01*
G01*
X60802523Y59619375D01*
G75*
G02*
X60997523Y59814375I195000J0D01*
G01*
X60997523Y59814375D01*
G75*
G02*
X61192523Y59619375I0J-195000D01*
G01*
G37*
G36*
G01*
X60092525Y59619375D02*
X60092525Y59369377D01*
G75*
G02*
X59897525Y59174377I-195000J0D01*
G01*
X59897525Y59174377D01*
G75*
G02*
X59702525Y59369377I0J195000D01*
G01*
X59702525Y59619375D01*
G75*
G02*
X59897525Y59814375I195000J0D01*
G01*
X59897525Y59814375D01*
G75*
G02*
X60092525Y59619375I0J-195000D01*
G01*
G37*
G36*
G01*
X58992527Y59619375D02*
X58992527Y59369377D01*
G75*
G02*
X58797527Y59174377I-195000J0D01*
G01*
X58797527Y59174377D01*
G75*
G02*
X58602527Y59369377I0J195000D01*
G01*
X58602527Y59619375D01*
G75*
G02*
X58797527Y59814375I195000J0D01*
G01*
X58797527Y59814375D01*
G75*
G02*
X58992527Y59619375I0J-195000D01*
G01*
G37*
G36*
G01*
X57892529Y59619375D02*
X57892529Y59369377D01*
G75*
G02*
X57697529Y59174377I-195000J0D01*
G01*
X57697529Y59174377D01*
G75*
G02*
X57502529Y59369377I0J195000D01*
G01*
X57502529Y59619375D01*
G75*
G02*
X57697529Y59814375I195000J0D01*
G01*
X57697529Y59814375D01*
G75*
G02*
X57892529Y59619375I0J-195000D01*
G01*
G37*
G36*
G01*
X56792532Y59619375D02*
X56792532Y59369377D01*
G75*
G02*
X56597532Y59174377I-195000J0D01*
G01*
X56597532Y59174377D01*
G75*
G02*
X56402532Y59369377I0J195000D01*
G01*
X56402532Y59619375D01*
G75*
G02*
X56597532Y59814375I195000J0D01*
G01*
X56597532Y59814375D01*
G75*
G02*
X56792532Y59619375I0J-195000D01*
G01*
G37*
G36*
G01*
X55692534Y59619375D02*
X55692534Y59369377D01*
G75*
G02*
X55497534Y59174377I-195000J0D01*
G01*
X55497534Y59174377D01*
G75*
G02*
X55302534Y59369377I0J195000D01*
G01*
X55302534Y59619375D01*
G75*
G02*
X55497534Y59814375I195000J0D01*
G01*
X55497534Y59814375D01*
G75*
G02*
X55692534Y59619375I0J-195000D01*
G01*
G37*
G36*
G01*
X54592536Y59619375D02*
X54592536Y59369377D01*
G75*
G02*
X54397536Y59174377I-195000J0D01*
G01*
X54397536Y59174377D01*
G75*
G02*
X54202536Y59369377I0J195000D01*
G01*
X54202536Y59619375D01*
G75*
G02*
X54397536Y59814375I195000J0D01*
G01*
X54397536Y59814375D01*
G75*
G02*
X54592536Y59619375I0J-195000D01*
G01*
G37*
G36*
G01*
X53492538Y59619375D02*
X53492538Y59369377D01*
G75*
G02*
X53297538Y59174377I-195000J0D01*
G01*
X53297538Y59174377D01*
G75*
G02*
X53102538Y59369377I0J195000D01*
G01*
X53102538Y59619375D01*
G75*
G02*
X53297538Y59814375I195000J0D01*
G01*
X53297538Y59814375D01*
G75*
G02*
X53492538Y59619375I0J-195000D01*
G01*
G37*
G36*
G01*
X52392540Y59619375D02*
X52392540Y59369377D01*
G75*
G02*
X52197540Y59174377I-195000J0D01*
G01*
X52197540Y59174377D01*
G75*
G02*
X52002540Y59369377I0J195000D01*
G01*
X52002540Y59619375D01*
G75*
G02*
X52197540Y59814375I195000J0D01*
G01*
X52197540Y59814375D01*
G75*
G02*
X52392540Y59619375I0J-195000D01*
G01*
G37*
G36*
G01*
X51292543Y59619375D02*
X51292543Y59369377D01*
G75*
G02*
X51097543Y59174377I-195000J0D01*
G01*
X51097543Y59174377D01*
G75*
G02*
X50902543Y59369377I0J195000D01*
G01*
X50902543Y59619375D01*
G75*
G02*
X51097543Y59814375I195000J0D01*
G01*
X51097543Y59814375D01*
G75*
G02*
X51292543Y59619375I0J-195000D01*
G01*
G37*
G36*
G01*
X50192545Y59619375D02*
X50192545Y59369377D01*
G75*
G02*
X49997545Y59174377I-195000J0D01*
G01*
X49997545Y59174377D01*
G75*
G02*
X49802545Y59369377I0J195000D01*
G01*
X49802545Y59619375D01*
G75*
G02*
X49997545Y59814375I195000J0D01*
G01*
X49997545Y59814375D01*
G75*
G02*
X50192545Y59619375I0J-195000D01*
G01*
G37*
G36*
G01*
X49092547Y59619375D02*
X49092547Y59369377D01*
G75*
G02*
X48897547Y59174377I-195000J0D01*
G01*
X48897547Y59174377D01*
G75*
G02*
X48702547Y59369377I0J195000D01*
G01*
X48702547Y59619375D01*
G75*
G02*
X48897547Y59814375I195000J0D01*
G01*
X48897547Y59814375D01*
G75*
G02*
X49092547Y59619375I0J-195000D01*
G01*
G37*
G36*
G01*
X47992549Y59619375D02*
X47992549Y59369377D01*
G75*
G02*
X47797549Y59174377I-195000J0D01*
G01*
X47797549Y59174377D01*
G75*
G02*
X47602549Y59369377I0J195000D01*
G01*
X47602549Y59619375D01*
G75*
G02*
X47797549Y59814375I195000J0D01*
G01*
X47797549Y59814375D01*
G75*
G02*
X47992549Y59619375I0J-195000D01*
G01*
G37*
G36*
G01*
X46892551Y59619375D02*
X46892551Y59369377D01*
G75*
G02*
X46697551Y59174377I-195000J0D01*
G01*
X46697551Y59174377D01*
G75*
G02*
X46502551Y59369377I0J195000D01*
G01*
X46502551Y59619375D01*
G75*
G02*
X46697551Y59814375I195000J0D01*
G01*
X46697551Y59814375D01*
G75*
G02*
X46892551Y59619375I0J-195000D01*
G01*
G37*
G36*
G01*
X45792554Y59619375D02*
X45792554Y59369377D01*
G75*
G02*
X45597554Y59174377I-195000J0D01*
G01*
X45597554Y59174377D01*
G75*
G02*
X45402554Y59369377I0J195000D01*
G01*
X45402554Y59619375D01*
G75*
G02*
X45597554Y59814375I195000J0D01*
G01*
X45597554Y59814375D01*
G75*
G02*
X45792554Y59619375I0J-195000D01*
G01*
G37*
G36*
G01*
X44692556Y59619375D02*
X44692556Y59369377D01*
G75*
G02*
X44497556Y59174377I-195000J0D01*
G01*
X44497556Y59174377D01*
G75*
G02*
X44302556Y59369377I0J195000D01*
G01*
X44302556Y59619375D01*
G75*
G02*
X44497556Y59814375I195000J0D01*
G01*
X44497556Y59814375D01*
G75*
G02*
X44692556Y59619375I0J-195000D01*
G01*
G37*
G36*
G01*
X43592558Y59619375D02*
X43592558Y59369377D01*
G75*
G02*
X43397558Y59174377I-195000J0D01*
G01*
X43397558Y59174377D01*
G75*
G02*
X43202558Y59369377I0J195000D01*
G01*
X43202558Y59619375D01*
G75*
G02*
X43397558Y59814375I195000J0D01*
G01*
X43397558Y59814375D01*
G75*
G02*
X43592558Y59619375I0J-195000D01*
G01*
G37*
G36*
G01*
X42492560Y59619375D02*
X42492560Y59369377D01*
G75*
G02*
X42297560Y59174377I-195000J0D01*
G01*
X42297560Y59174377D01*
G75*
G02*
X42102560Y59369377I0J195000D01*
G01*
X42102560Y59619375D01*
G75*
G02*
X42297560Y59814375I195000J0D01*
G01*
X42297560Y59814375D01*
G75*
G02*
X42492560Y59619375I0J-195000D01*
G01*
G37*
G36*
G01*
X41392562Y59619375D02*
X41392562Y59369377D01*
G75*
G02*
X41197562Y59174377I-195000J0D01*
G01*
X41197562Y59174377D01*
G75*
G02*
X41002562Y59369377I0J195000D01*
G01*
X41002562Y59619375D01*
G75*
G02*
X41197562Y59814375I195000J0D01*
G01*
X41197562Y59814375D01*
G75*
G02*
X41392562Y59619375I0J-195000D01*
G01*
G37*
G36*
G01*
X39812498Y89356377D02*
X39562500Y89356377D01*
G75*
G02*
X39367500Y89551377I0J195000D01*
G01*
X39367500Y89551377D01*
G75*
G02*
X39562500Y89746377I195000J0D01*
G01*
X39812498Y89746377D01*
G75*
G02*
X40007498Y89551377I0J-195000D01*
G01*
X40007498Y89551377D01*
G75*
G02*
X39812498Y89356377I-195000J0D01*
G01*
G37*
G36*
G01*
X39812498Y90016378D02*
X39562500Y90016378D01*
G75*
G02*
X39367500Y90211378I0J195000D01*
G01*
X39367500Y90211378D01*
G75*
G02*
X39562500Y90406378I195000J0D01*
G01*
X39812498Y90406378D01*
G75*
G02*
X40007498Y90211378I0J-195000D01*
G01*
X40007498Y90211378D01*
G75*
G02*
X39812498Y90016378I-195000J0D01*
G01*
G37*
G36*
G01*
X39812498Y90676379D02*
X39562500Y90676379D01*
G75*
G02*
X39367500Y90871379I0J195000D01*
G01*
X39367500Y90871379D01*
G75*
G02*
X39562500Y91066379I195000J0D01*
G01*
X39812498Y91066379D01*
G75*
G02*
X40007498Y90871379I0J-195000D01*
G01*
X40007498Y90871379D01*
G75*
G02*
X39812498Y90676379I-195000J0D01*
G01*
G37*
G36*
G01*
X39812498Y91336380D02*
X39562500Y91336380D01*
G75*
G02*
X39367500Y91531380I0J195000D01*
G01*
X39367500Y91531380D01*
G75*
G02*
X39562500Y91726380I195000J0D01*
G01*
X39812498Y91726380D01*
G75*
G02*
X40007498Y91531380I0J-195000D01*
G01*
X40007498Y91531380D01*
G75*
G02*
X39812498Y91336380I-195000J0D01*
G01*
G37*
G36*
G01*
X39812498Y91996382D02*
X39562500Y91996382D01*
G75*
G02*
X39367500Y92191382I0J195000D01*
G01*
X39367500Y92191382D01*
G75*
G02*
X39562500Y92386382I195000J0D01*
G01*
X39812498Y92386382D01*
G75*
G02*
X40007498Y92191382I0J-195000D01*
G01*
X40007498Y92191382D01*
G75*
G02*
X39812498Y91996382I-195000J0D01*
G01*
G37*
G36*
G01*
X39812498Y92656383D02*
X39562500Y92656383D01*
G75*
G02*
X39367500Y92851383I0J195000D01*
G01*
X39367500Y92851383D01*
G75*
G02*
X39562500Y93046383I195000J0D01*
G01*
X39812498Y93046383D01*
G75*
G02*
X40007498Y92851383I0J-195000D01*
G01*
X40007498Y92851383D01*
G75*
G02*
X39812498Y92656383I-195000J0D01*
G01*
G37*
G36*
G01*
X39812498Y93316384D02*
X39562500Y93316384D01*
G75*
G02*
X39367500Y93511384I0J195000D01*
G01*
X39367500Y93511384D01*
G75*
G02*
X39562500Y93706384I195000J0D01*
G01*
X39812498Y93706384D01*
G75*
G02*
X40007498Y93511384I0J-195000D01*
G01*
X40007498Y93511384D01*
G75*
G02*
X39812498Y93316384I-195000J0D01*
G01*
G37*
G36*
G01*
X39812498Y93976385D02*
X39562500Y93976385D01*
G75*
G02*
X39367500Y94171385I0J195000D01*
G01*
X39367500Y94171385D01*
G75*
G02*
X39562500Y94366385I195000J0D01*
G01*
X39812498Y94366385D01*
G75*
G02*
X40007498Y94171385I0J-195000D01*
G01*
X40007498Y94171385D01*
G75*
G02*
X39812498Y93976385I-195000J0D01*
G01*
G37*
G36*
G01*
X39812498Y94636387D02*
X39562500Y94636387D01*
G75*
G02*
X39367500Y94831387I0J195000D01*
G01*
X39367500Y94831387D01*
G75*
G02*
X39562500Y95026387I195000J0D01*
G01*
X39812498Y95026387D01*
G75*
G02*
X40007498Y94831387I0J-195000D01*
G01*
X40007498Y94831387D01*
G75*
G02*
X39812498Y94636387I-195000J0D01*
G01*
G37*
G36*
G01*
X39812498Y95296388D02*
X39562500Y95296388D01*
G75*
G02*
X39367500Y95491388I0J195000D01*
G01*
X39367500Y95491388D01*
G75*
G02*
X39562500Y95686388I195000J0D01*
G01*
X39812498Y95686388D01*
G75*
G02*
X40007498Y95491388I0J-195000D01*
G01*
X40007498Y95491388D01*
G75*
G02*
X39812498Y95296388I-195000J0D01*
G01*
G37*
G04 #@! TD*
D16*
G04 #@! TO.C,V20*
X51350000Y32650000D03*
G04 #@! TD*
G04 #@! TO.C,V9*
X74400000Y32375000D03*
G04 #@! TD*
D17*
G04 #@! TO.C,M1*
X47237499Y98631662D03*
X46362497Y99156662D03*
X47537501Y99906660D03*
X47462498Y103456661D03*
G04 #@! TD*
G04 #@! TO.C,M7*
X32507387Y93914190D03*
X34342397Y93489182D03*
X32292389Y92939185D03*
X32507384Y92064226D03*
X32582391Y91214203D03*
X34342397Y90889187D03*
X33032397Y89589220D03*
X34342397Y88939203D03*
X28417382Y96114206D03*
X32492388Y95814204D03*
G04 #@! TD*
G04 #@! TO.C,M4*
G36*
G01*
X70087500Y49809581D02*
X69837502Y49809581D01*
G75*
G02*
X69642502Y50004581I0J195000D01*
G01*
X69642502Y50004581D01*
G75*
G02*
X69837502Y50199581I195000J0D01*
G01*
X70087500Y50199581D01*
G75*
G02*
X70282500Y50004581I0J-195000D01*
G01*
X70282500Y50004581D01*
G75*
G02*
X70087500Y49809581I-195000J0D01*
G01*
G37*
G36*
G01*
X70087500Y49149580D02*
X69837502Y49149580D01*
G75*
G02*
X69642502Y49344580I0J195000D01*
G01*
X69642502Y49344580D01*
G75*
G02*
X69837502Y49539580I195000J0D01*
G01*
X70087500Y49539580D01*
G75*
G02*
X70282500Y49344580I0J-195000D01*
G01*
X70282500Y49344580D01*
G75*
G02*
X70087500Y49149580I-195000J0D01*
G01*
G37*
G36*
G01*
X70087500Y48489579D02*
X69837502Y48489579D01*
G75*
G02*
X69642502Y48684579I0J195000D01*
G01*
X69642502Y48684579D01*
G75*
G02*
X69837502Y48879579I195000J0D01*
G01*
X70087500Y48879579D01*
G75*
G02*
X70282500Y48684579I0J-195000D01*
G01*
X70282500Y48684579D01*
G75*
G02*
X70087500Y48489579I-195000J0D01*
G01*
G37*
G36*
G01*
X70087500Y47829578D02*
X69837502Y47829578D01*
G75*
G02*
X69642502Y48024578I0J195000D01*
G01*
X69642502Y48024578D01*
G75*
G02*
X69837502Y48219578I195000J0D01*
G01*
X70087500Y48219578D01*
G75*
G02*
X70282500Y48024578I0J-195000D01*
G01*
X70282500Y48024578D01*
G75*
G02*
X70087500Y47829578I-195000J0D01*
G01*
G37*
G36*
G01*
X70087500Y44529571D02*
X69837502Y44529571D01*
G75*
G02*
X69642502Y44724571I0J195000D01*
G01*
X69642502Y44724571D01*
G75*
G02*
X69837502Y44919571I195000J0D01*
G01*
X70087500Y44919571D01*
G75*
G02*
X70282500Y44724571I0J-195000D01*
G01*
X70282500Y44724571D01*
G75*
G02*
X70087500Y44529571I-195000J0D01*
G01*
G37*
G36*
G01*
X41387500Y58098373D02*
X41387500Y57848375D01*
G75*
G02*
X41192500Y57653375I-195000J0D01*
G01*
X41192500Y57653375D01*
G75*
G02*
X40997500Y57848375I0J195000D01*
G01*
X40997500Y58098373D01*
G75*
G02*
X41192500Y58293373I195000J0D01*
G01*
X41192500Y58293373D01*
G75*
G02*
X41387500Y58098373I0J-195000D01*
G01*
G37*
G36*
G01*
X42097503Y57848375D02*
X42097503Y58098373D01*
G75*
G02*
X42292503Y58293373I195000J0D01*
G01*
X42292503Y58293373D01*
G75*
G02*
X42487503Y58098373I0J-195000D01*
G01*
X42487503Y57848375D01*
G75*
G02*
X42292503Y57653375I-195000J0D01*
G01*
X42292503Y57653375D01*
G75*
G02*
X42097503Y57848375I0J195000D01*
G01*
G37*
G36*
G01*
X43197504Y57848375D02*
X43197504Y58098373D01*
G75*
G02*
X43392504Y58293373I195000J0D01*
G01*
X43392504Y58293373D01*
G75*
G02*
X43587504Y58098373I0J-195000D01*
G01*
X43587504Y57848375D01*
G75*
G02*
X43392504Y57653375I-195000J0D01*
G01*
X43392504Y57653375D01*
G75*
G02*
X43197504Y57848375I0J195000D01*
G01*
G37*
G36*
G01*
X44297501Y57848375D02*
X44297501Y58098373D01*
G75*
G02*
X44492501Y58293373I195000J0D01*
G01*
X44492501Y58293373D01*
G75*
G02*
X44687501Y58098373I0J-195000D01*
G01*
X44687501Y57848375D01*
G75*
G02*
X44492501Y57653375I-195000J0D01*
G01*
X44492501Y57653375D01*
G75*
G02*
X44297501Y57848375I0J195000D01*
G01*
G37*
G36*
G01*
X45397499Y57848375D02*
X45397499Y58098373D01*
G75*
G02*
X45592499Y58293373I195000J0D01*
G01*
X45592499Y58293373D01*
G75*
G02*
X45787499Y58098373I0J-195000D01*
G01*
X45787499Y57848375D01*
G75*
G02*
X45592499Y57653375I-195000J0D01*
G01*
X45592499Y57653375D01*
G75*
G02*
X45397499Y57848375I0J195000D01*
G01*
G37*
G36*
G01*
X46497497Y57848375D02*
X46497497Y58098373D01*
G75*
G02*
X46692497Y58293373I195000J0D01*
G01*
X46692497Y58293373D01*
G75*
G02*
X46887497Y58098373I0J-195000D01*
G01*
X46887497Y57848375D01*
G75*
G02*
X46692497Y57653375I-195000J0D01*
G01*
X46692497Y57653375D01*
G75*
G02*
X46497497Y57848375I0J195000D01*
G01*
G37*
G36*
G01*
X47597495Y57848375D02*
X47597495Y58098373D01*
G75*
G02*
X47792495Y58293373I195000J0D01*
G01*
X47792495Y58293373D01*
G75*
G02*
X47987495Y58098373I0J-195000D01*
G01*
X47987495Y57848375D01*
G75*
G02*
X47792495Y57653375I-195000J0D01*
G01*
X47792495Y57653375D01*
G75*
G02*
X47597495Y57848375I0J195000D01*
G01*
G37*
G36*
G01*
X48697493Y57848375D02*
X48697493Y58098373D01*
G75*
G02*
X48892493Y58293373I195000J0D01*
G01*
X48892493Y58293373D01*
G75*
G02*
X49087493Y58098373I0J-195000D01*
G01*
X49087493Y57848375D01*
G75*
G02*
X48892493Y57653375I-195000J0D01*
G01*
X48892493Y57653375D01*
G75*
G02*
X48697493Y57848375I0J195000D01*
G01*
G37*
G36*
G01*
X49797490Y57848375D02*
X49797490Y58098373D01*
G75*
G02*
X49992490Y58293373I195000J0D01*
G01*
X49992490Y58293373D01*
G75*
G02*
X50187490Y58098373I0J-195000D01*
G01*
X50187490Y57848375D01*
G75*
G02*
X49992490Y57653375I-195000J0D01*
G01*
X49992490Y57653375D01*
G75*
G02*
X49797490Y57848375I0J195000D01*
G01*
G37*
G36*
G01*
X50897488Y57848375D02*
X50897488Y58098373D01*
G75*
G02*
X51092488Y58293373I195000J0D01*
G01*
X51092488Y58293373D01*
G75*
G02*
X51287488Y58098373I0J-195000D01*
G01*
X51287488Y57848375D01*
G75*
G02*
X51092488Y57653375I-195000J0D01*
G01*
X51092488Y57653375D01*
G75*
G02*
X50897488Y57848375I0J195000D01*
G01*
G37*
G36*
G01*
X51997486Y57848375D02*
X51997486Y58098373D01*
G75*
G02*
X52192486Y58293373I195000J0D01*
G01*
X52192486Y58293373D01*
G75*
G02*
X52387486Y58098373I0J-195000D01*
G01*
X52387486Y57848375D01*
G75*
G02*
X52192486Y57653375I-195000J0D01*
G01*
X52192486Y57653375D01*
G75*
G02*
X51997486Y57848375I0J195000D01*
G01*
G37*
G36*
G01*
X53097484Y57848375D02*
X53097484Y58098373D01*
G75*
G02*
X53292484Y58293373I195000J0D01*
G01*
X53292484Y58293373D01*
G75*
G02*
X53487484Y58098373I0J-195000D01*
G01*
X53487484Y57848375D01*
G75*
G02*
X53292484Y57653375I-195000J0D01*
G01*
X53292484Y57653375D01*
G75*
G02*
X53097484Y57848375I0J195000D01*
G01*
G37*
G36*
G01*
X54197482Y57848375D02*
X54197482Y58098373D01*
G75*
G02*
X54392482Y58293373I195000J0D01*
G01*
X54392482Y58293373D01*
G75*
G02*
X54587482Y58098373I0J-195000D01*
G01*
X54587482Y57848375D01*
G75*
G02*
X54392482Y57653375I-195000J0D01*
G01*
X54392482Y57653375D01*
G75*
G02*
X54197482Y57848375I0J195000D01*
G01*
G37*
G36*
G01*
X55297479Y57848375D02*
X55297479Y58098373D01*
G75*
G02*
X55492479Y58293373I195000J0D01*
G01*
X55492479Y58293373D01*
G75*
G02*
X55687479Y58098373I0J-195000D01*
G01*
X55687479Y57848375D01*
G75*
G02*
X55492479Y57653375I-195000J0D01*
G01*
X55492479Y57653375D01*
G75*
G02*
X55297479Y57848375I0J195000D01*
G01*
G37*
G36*
G01*
X56397477Y57848375D02*
X56397477Y58098373D01*
G75*
G02*
X56592477Y58293373I195000J0D01*
G01*
X56592477Y58293373D01*
G75*
G02*
X56787477Y58098373I0J-195000D01*
G01*
X56787477Y57848375D01*
G75*
G02*
X56592477Y57653375I-195000J0D01*
G01*
X56592477Y57653375D01*
G75*
G02*
X56397477Y57848375I0J195000D01*
G01*
G37*
G36*
G01*
X57497475Y57848375D02*
X57497475Y58098373D01*
G75*
G02*
X57692475Y58293373I195000J0D01*
G01*
X57692475Y58293373D01*
G75*
G02*
X57887475Y58098373I0J-195000D01*
G01*
X57887475Y57848375D01*
G75*
G02*
X57692475Y57653375I-195000J0D01*
G01*
X57692475Y57653375D01*
G75*
G02*
X57497475Y57848375I0J195000D01*
G01*
G37*
G36*
G01*
X58597473Y57848375D02*
X58597473Y58098373D01*
G75*
G02*
X58792473Y58293373I195000J0D01*
G01*
X58792473Y58293373D01*
G75*
G02*
X58987473Y58098373I0J-195000D01*
G01*
X58987473Y57848375D01*
G75*
G02*
X58792473Y57653375I-195000J0D01*
G01*
X58792473Y57653375D01*
G75*
G02*
X58597473Y57848375I0J195000D01*
G01*
G37*
G36*
G01*
X59697471Y57848375D02*
X59697471Y58098373D01*
G75*
G02*
X59892471Y58293373I195000J0D01*
G01*
X59892471Y58293373D01*
G75*
G02*
X60087471Y58098373I0J-195000D01*
G01*
X60087471Y57848375D01*
G75*
G02*
X59892471Y57653375I-195000J0D01*
G01*
X59892471Y57653375D01*
G75*
G02*
X59697471Y57848375I0J195000D01*
G01*
G37*
G36*
G01*
X60797468Y57848375D02*
X60797468Y58098373D01*
G75*
G02*
X60992468Y58293373I195000J0D01*
G01*
X60992468Y58293373D01*
G75*
G02*
X61187468Y58098373I0J-195000D01*
G01*
X61187468Y57848375D01*
G75*
G02*
X60992468Y57653375I-195000J0D01*
G01*
X60992468Y57653375D01*
G75*
G02*
X60797468Y57848375I0J195000D01*
G01*
G37*
G36*
G01*
X61897466Y57848375D02*
X61897466Y58098373D01*
G75*
G02*
X62092466Y58293373I195000J0D01*
G01*
X62092466Y58293373D01*
G75*
G02*
X62287466Y58098373I0J-195000D01*
G01*
X62287466Y57848375D01*
G75*
G02*
X62092466Y57653375I-195000J0D01*
G01*
X62092466Y57653375D01*
G75*
G02*
X61897466Y57848375I0J195000D01*
G01*
G37*
G36*
G01*
X62997464Y57848375D02*
X62997464Y58098373D01*
G75*
G02*
X63192464Y58293373I195000J0D01*
G01*
X63192464Y58293373D01*
G75*
G02*
X63387464Y58098373I0J-195000D01*
G01*
X63387464Y57848375D01*
G75*
G02*
X63192464Y57653375I-195000J0D01*
G01*
X63192464Y57653375D01*
G75*
G02*
X62997464Y57848375I0J195000D01*
G01*
G37*
G36*
G01*
X64097462Y57848375D02*
X64097462Y58098373D01*
G75*
G02*
X64292462Y58293373I195000J0D01*
G01*
X64292462Y58293373D01*
G75*
G02*
X64487462Y58098373I0J-195000D01*
G01*
X64487462Y57848375D01*
G75*
G02*
X64292462Y57653375I-195000J0D01*
G01*
X64292462Y57653375D01*
G75*
G02*
X64097462Y57848375I0J195000D01*
G01*
G37*
G36*
G01*
X65197460Y57848375D02*
X65197460Y58098373D01*
G75*
G02*
X65392460Y58293373I195000J0D01*
G01*
X65392460Y58293373D01*
G75*
G02*
X65587460Y58098373I0J-195000D01*
G01*
X65587460Y57848375D01*
G75*
G02*
X65392460Y57653375I-195000J0D01*
G01*
X65392460Y57653375D01*
G75*
G02*
X65197460Y57848375I0J195000D01*
G01*
G37*
G36*
G01*
X66297457Y57848375D02*
X66297457Y58098373D01*
G75*
G02*
X66492457Y58293373I195000J0D01*
G01*
X66492457Y58293373D01*
G75*
G02*
X66687457Y58098373I0J-195000D01*
G01*
X66687457Y57848375D01*
G75*
G02*
X66492457Y57653375I-195000J0D01*
G01*
X66492457Y57653375D01*
G75*
G02*
X66297457Y57848375I0J195000D01*
G01*
G37*
G36*
G01*
X67397455Y57848375D02*
X67397455Y58098373D01*
G75*
G02*
X67592455Y58293373I195000J0D01*
G01*
X67592455Y58293373D01*
G75*
G02*
X67787455Y58098373I0J-195000D01*
G01*
X67787455Y57848375D01*
G75*
G02*
X67592455Y57653375I-195000J0D01*
G01*
X67592455Y57653375D01*
G75*
G02*
X67397455Y57848375I0J195000D01*
G01*
G37*
G36*
G01*
X68497453Y57848375D02*
X68497453Y58098373D01*
G75*
G02*
X68692453Y58293373I195000J0D01*
G01*
X68692453Y58293373D01*
G75*
G02*
X68887453Y58098373I0J-195000D01*
G01*
X68887453Y57848375D01*
G75*
G02*
X68692453Y57653375I-195000J0D01*
G01*
X68692453Y57653375D01*
G75*
G02*
X68497453Y57848375I0J195000D01*
G01*
G37*
G36*
G01*
X68246509Y43886376D02*
X68246509Y44136374D01*
G75*
G02*
X68441509Y44331374I195000J0D01*
G01*
X68441509Y44331374D01*
G75*
G02*
X68636509Y44136374I0J-195000D01*
G01*
X68636509Y43886376D01*
G75*
G02*
X68441509Y43691376I-195000J0D01*
G01*
X68441509Y43691376D01*
G75*
G02*
X68246509Y43886376I0J195000D01*
G01*
G37*
G36*
G01*
X67586507Y43886376D02*
X67586507Y44136374D01*
G75*
G02*
X67781507Y44331374I195000J0D01*
G01*
X67781507Y44331374D01*
G75*
G02*
X67976507Y44136374I0J-195000D01*
G01*
X67976507Y43886376D01*
G75*
G02*
X67781507Y43691376I-195000J0D01*
G01*
X67781507Y43691376D01*
G75*
G02*
X67586507Y43886376I0J195000D01*
G01*
G37*
G36*
G01*
X66926506Y43886376D02*
X66926506Y44136374D01*
G75*
G02*
X67121506Y44331374I195000J0D01*
G01*
X67121506Y44331374D01*
G75*
G02*
X67316506Y44136374I0J-195000D01*
G01*
X67316506Y43886376D01*
G75*
G02*
X67121506Y43691376I-195000J0D01*
G01*
X67121506Y43691376D01*
G75*
G02*
X66926506Y43886376I0J195000D01*
G01*
G37*
G36*
G01*
X66266505Y43886376D02*
X66266505Y44136374D01*
G75*
G02*
X66461505Y44331374I195000J0D01*
G01*
X66461505Y44331374D01*
G75*
G02*
X66656505Y44136374I0J-195000D01*
G01*
X66656505Y43886376D01*
G75*
G02*
X66461505Y43691376I-195000J0D01*
G01*
X66461505Y43691376D01*
G75*
G02*
X66266505Y43886376I0J195000D01*
G01*
G37*
G36*
G01*
X65606504Y43886376D02*
X65606504Y44136374D01*
G75*
G02*
X65801504Y44331374I195000J0D01*
G01*
X65801504Y44331374D01*
G75*
G02*
X65996504Y44136374I0J-195000D01*
G01*
X65996504Y43886376D01*
G75*
G02*
X65801504Y43691376I-195000J0D01*
G01*
X65801504Y43691376D01*
G75*
G02*
X65606504Y43886376I0J195000D01*
G01*
G37*
G36*
G01*
X64946502Y43886376D02*
X64946502Y44136374D01*
G75*
G02*
X65141502Y44331374I195000J0D01*
G01*
X65141502Y44331374D01*
G75*
G02*
X65336502Y44136374I0J-195000D01*
G01*
X65336502Y43886376D01*
G75*
G02*
X65141502Y43691376I-195000J0D01*
G01*
X65141502Y43691376D01*
G75*
G02*
X64946502Y43886376I0J195000D01*
G01*
G37*
G36*
G01*
X63345505Y43886376D02*
X63345505Y44136374D01*
G75*
G02*
X63540505Y44331374I195000J0D01*
G01*
X63540505Y44331374D01*
G75*
G02*
X63735505Y44136374I0J-195000D01*
G01*
X63735505Y43886376D01*
G75*
G02*
X63540505Y43691376I-195000J0D01*
G01*
X63540505Y43691376D01*
G75*
G02*
X63345505Y43886376I0J195000D01*
G01*
G37*
G36*
G01*
X62685504Y43886376D02*
X62685504Y44136374D01*
G75*
G02*
X62880504Y44331374I195000J0D01*
G01*
X62880504Y44331374D01*
G75*
G02*
X63075504Y44136374I0J-195000D01*
G01*
X63075504Y43886376D01*
G75*
G02*
X62880504Y43691376I-195000J0D01*
G01*
X62880504Y43691376D01*
G75*
G02*
X62685504Y43886376I0J195000D01*
G01*
G37*
G36*
G01*
X62025502Y43886376D02*
X62025502Y44136374D01*
G75*
G02*
X62220502Y44331374I195000J0D01*
G01*
X62220502Y44331374D01*
G75*
G02*
X62415502Y44136374I0J-195000D01*
G01*
X62415502Y43886376D01*
G75*
G02*
X62220502Y43691376I-195000J0D01*
G01*
X62220502Y43691376D01*
G75*
G02*
X62025502Y43886376I0J195000D01*
G01*
G37*
G36*
G01*
X60904603Y43886376D02*
X60904603Y44136374D01*
G75*
G02*
X61099603Y44331374I195000J0D01*
G01*
X61099603Y44331374D01*
G75*
G02*
X61294603Y44136374I0J-195000D01*
G01*
X61294603Y43886376D01*
G75*
G02*
X61099603Y43691376I-195000J0D01*
G01*
X61099603Y43691376D01*
G75*
G02*
X60904603Y43886376I0J195000D01*
G01*
G37*
G36*
G01*
X60244602Y43886376D02*
X60244602Y44136374D01*
G75*
G02*
X60439602Y44331374I195000J0D01*
G01*
X60439602Y44331374D01*
G75*
G02*
X60634602Y44136374I0J-195000D01*
G01*
X60634602Y43886376D01*
G75*
G02*
X60439602Y43691376I-195000J0D01*
G01*
X60439602Y43691376D01*
G75*
G02*
X60244602Y43886376I0J195000D01*
G01*
G37*
G36*
G01*
X59584601Y43886376D02*
X59584601Y44136374D01*
G75*
G02*
X59779601Y44331374I195000J0D01*
G01*
X59779601Y44331374D01*
G75*
G02*
X59974601Y44136374I0J-195000D01*
G01*
X59974601Y43886376D01*
G75*
G02*
X59779601Y43691376I-195000J0D01*
G01*
X59779601Y43691376D01*
G75*
G02*
X59584601Y43886376I0J195000D01*
G01*
G37*
G36*
G01*
X58924599Y43886376D02*
X58924599Y44136374D01*
G75*
G02*
X59119599Y44331374I195000J0D01*
G01*
X59119599Y44331374D01*
G75*
G02*
X59314599Y44136374I0J-195000D01*
G01*
X59314599Y43886376D01*
G75*
G02*
X59119599Y43691376I-195000J0D01*
G01*
X59119599Y43691376D01*
G75*
G02*
X58924599Y43886376I0J195000D01*
G01*
G37*
G36*
G01*
X55598505Y43886376D02*
X55598505Y44136374D01*
G75*
G02*
X55793505Y44331374I195000J0D01*
G01*
X55793505Y44331374D01*
G75*
G02*
X55988505Y44136374I0J-195000D01*
G01*
X55988505Y43886376D01*
G75*
G02*
X55793505Y43691376I-195000J0D01*
G01*
X55793505Y43691376D01*
G75*
G02*
X55598505Y43886376I0J195000D01*
G01*
G37*
G36*
G01*
X54938504Y43886376D02*
X54938504Y44136374D01*
G75*
G02*
X55133504Y44331374I195000J0D01*
G01*
X55133504Y44331374D01*
G75*
G02*
X55328504Y44136374I0J-195000D01*
G01*
X55328504Y43886376D01*
G75*
G02*
X55133504Y43691376I-195000J0D01*
G01*
X55133504Y43691376D01*
G75*
G02*
X54938504Y43886376I0J195000D01*
G01*
G37*
G36*
G01*
X54278502Y43886376D02*
X54278502Y44136374D01*
G75*
G02*
X54473502Y44331374I195000J0D01*
G01*
X54473502Y44331374D01*
G75*
G02*
X54668502Y44136374I0J-195000D01*
G01*
X54668502Y43886376D01*
G75*
G02*
X54473502Y43691376I-195000J0D01*
G01*
X54473502Y43691376D01*
G75*
G02*
X54278502Y43886376I0J195000D01*
G01*
G37*
G36*
G01*
X51632511Y43886376D02*
X51632511Y44136374D01*
G75*
G02*
X51827511Y44331374I195000J0D01*
G01*
X51827511Y44331374D01*
G75*
G02*
X52022511Y44136374I0J-195000D01*
G01*
X52022511Y43886376D01*
G75*
G02*
X51827511Y43691376I-195000J0D01*
G01*
X51827511Y43691376D01*
G75*
G02*
X51632511Y43886376I0J195000D01*
G01*
G37*
G36*
G01*
X50972510Y43886376D02*
X50972510Y44136374D01*
G75*
G02*
X51167510Y44331374I195000J0D01*
G01*
X51167510Y44331374D01*
G75*
G02*
X51362510Y44136374I0J-195000D01*
G01*
X51362510Y43886376D01*
G75*
G02*
X51167510Y43691376I-195000J0D01*
G01*
X51167510Y43691376D01*
G75*
G02*
X50972510Y43886376I0J195000D01*
G01*
G37*
G36*
G01*
X50312508Y43886376D02*
X50312508Y44136374D01*
G75*
G02*
X50507508Y44331374I195000J0D01*
G01*
X50507508Y44331374D01*
G75*
G02*
X50702508Y44136374I0J-195000D01*
G01*
X50702508Y43886376D01*
G75*
G02*
X50507508Y43691376I-195000J0D01*
G01*
X50507508Y43691376D01*
G75*
G02*
X50312508Y43886376I0J195000D01*
G01*
G37*
G36*
G01*
X49652507Y43886376D02*
X49652507Y44136374D01*
G75*
G02*
X49847507Y44331374I195000J0D01*
G01*
X49847507Y44331374D01*
G75*
G02*
X50042507Y44136374I0J-195000D01*
G01*
X50042507Y43886376D01*
G75*
G02*
X49847507Y43691376I-195000J0D01*
G01*
X49847507Y43691376D01*
G75*
G02*
X49652507Y43886376I0J195000D01*
G01*
G37*
G36*
G01*
X48992506Y43886376D02*
X48992506Y44136374D01*
G75*
G02*
X49187506Y44331374I195000J0D01*
G01*
X49187506Y44331374D01*
G75*
G02*
X49382506Y44136374I0J-195000D01*
G01*
X49382506Y43886376D01*
G75*
G02*
X49187506Y43691376I-195000J0D01*
G01*
X49187506Y43691376D01*
G75*
G02*
X48992506Y43886376I0J195000D01*
G01*
G37*
G36*
G01*
X48332505Y43886376D02*
X48332505Y44136374D01*
G75*
G02*
X48527505Y44331374I195000J0D01*
G01*
X48527505Y44331374D01*
G75*
G02*
X48722505Y44136374I0J-195000D01*
G01*
X48722505Y43886376D01*
G75*
G02*
X48527505Y43691376I-195000J0D01*
G01*
X48527505Y43691376D01*
G75*
G02*
X48332505Y43886376I0J195000D01*
G01*
G37*
G36*
G01*
X47672503Y43886376D02*
X47672503Y44136374D01*
G75*
G02*
X47867503Y44331374I195000J0D01*
G01*
X47867503Y44331374D01*
G75*
G02*
X48062503Y44136374I0J-195000D01*
G01*
X48062503Y43886376D01*
G75*
G02*
X47867503Y43691376I-195000J0D01*
G01*
X47867503Y43691376D01*
G75*
G02*
X47672503Y43886376I0J195000D01*
G01*
G37*
G36*
G01*
X47012502Y43886376D02*
X47012502Y44136374D01*
G75*
G02*
X47207502Y44331374I195000J0D01*
G01*
X47207502Y44331374D01*
G75*
G02*
X47402502Y44136374I0J-195000D01*
G01*
X47402502Y43886376D01*
G75*
G02*
X47207502Y43691376I-195000J0D01*
G01*
X47207502Y43691376D01*
G75*
G02*
X47012502Y43886376I0J195000D01*
G01*
G37*
G36*
G01*
X46352501Y43886376D02*
X46352501Y44136374D01*
G75*
G02*
X46547501Y44331374I195000J0D01*
G01*
X46547501Y44331374D01*
G75*
G02*
X46742501Y44136374I0J-195000D01*
G01*
X46742501Y43886376D01*
G75*
G02*
X46547501Y43691376I-195000J0D01*
G01*
X46547501Y43691376D01*
G75*
G02*
X46352501Y43886376I0J195000D01*
G01*
G37*
G36*
G01*
X45692500Y43886376D02*
X45692500Y44136374D01*
G75*
G02*
X45887500Y44331374I195000J0D01*
G01*
X45887500Y44331374D01*
G75*
G02*
X46082500Y44136374I0J-195000D01*
G01*
X46082500Y43886376D01*
G75*
G02*
X45887500Y43691376I-195000J0D01*
G01*
X45887500Y43691376D01*
G75*
G02*
X45692500Y43886376I0J195000D01*
G01*
G37*
G04 #@! TD*
D18*
G04 #@! TO.C,M6*
X122376544Y44826214D03*
X121120679Y44826214D03*
D19*
X114676544Y44701213D03*
D20*
X108226552Y44401214D03*
D21*
X107251540Y44501219D03*
D20*
X106381783Y44401214D03*
X105651546Y44401214D03*
X104756783Y44401214D03*
X102681783Y44401214D03*
X101781787Y44401214D03*
X101071545Y44401214D03*
D21*
X100051544Y44501214D03*
X98876545Y44501214D03*
X97526546Y44501214D03*
X96351547Y44501214D03*
D22*
X95451546Y45431453D03*
X95451546Y46126212D03*
X95451546Y46806452D03*
D23*
X95546544Y47626214D03*
D22*
X95451546Y48931451D03*
D23*
X95546544Y49901216D03*
D22*
X95451546Y51176214D03*
X95451546Y51826216D03*
D23*
X95546544Y53026216D03*
X95546544Y54101220D03*
X95546544Y54976222D03*
D22*
X95451546Y55801214D03*
X95451546Y61651215D03*
D24*
X95346545Y65706185D03*
X95346545Y66366187D03*
X95346545Y67426215D03*
X95346545Y68130300D03*
X95346545Y68930339D03*
X95346545Y69730378D03*
X95346545Y70526214D03*
X95346545Y72721216D03*
X95346545Y73161215D03*
X95346545Y73601214D03*
X95346545Y74041216D03*
X95346545Y74481215D03*
X95346545Y74921214D03*
X95346545Y75361216D03*
X95346545Y75801215D03*
X95346545Y76926186D03*
X95346545Y77586184D03*
X95346545Y78246186D03*
X95346545Y78906184D03*
X95346545Y82311214D03*
X95346545Y82751213D03*
X95346545Y83191215D03*
X95346545Y83631214D03*
X95346545Y84071213D03*
X95346545Y84511215D03*
X95346545Y84951214D03*
G04 #@! TD*
D16*
G04 #@! TO.C,V40*
X48650000Y32650000D03*
G04 #@! TD*
G04 #@! TO.C,V61*
X40675000Y32650000D03*
G04 #@! TD*
G04 #@! TO.C,V17*
X57175000Y28300000D03*
G04 #@! TD*
G04 #@! TO.C,V69*
X92325000Y27975000D03*
G04 #@! TD*
G04 #@! TO.C,V67*
X89575000Y27975000D03*
G04 #@! TD*
G04 #@! TO.C,VOUT3*
X105750000Y40325000D03*
G04 #@! TD*
G04 #@! TO.C,V11*
X69100000Y32375000D03*
G04 #@! TD*
D25*
G04 #@! TO.C,R4*
X54600000Y26295000D03*
X54600000Y30105000D03*
G04 #@! TD*
D16*
G04 #@! TO.C,VIN4*
X47850000Y41525000D03*
G04 #@! TD*
G04 #@! TO.C,V52*
X63700000Y32375000D03*
G04 #@! TD*
G04 #@! TO.C,V74*
X45925000Y32650000D03*
G04 #@! TD*
G04 #@! TO.C,VIN1*
X44450000Y41550000D03*
G04 #@! TD*
D25*
G04 #@! TO.C,R8*
X48350000Y26145000D03*
X48350000Y29955000D03*
G04 #@! TD*
G04 #@! TO.C,F1*
X124075000Y26775000D03*
X124075000Y31675000D03*
G04 #@! TD*
D16*
G04 #@! TO.C,V10*
X71750000Y32375000D03*
G04 #@! TD*
G04 #@! TO.C,V44*
X79700000Y32375000D03*
G04 #@! TD*
G04 #@! TO.C,VIN2*
X53500000Y41525000D03*
G04 #@! TD*
G04 #@! TO.C,V49*
X72625000Y27975000D03*
G04 #@! TD*
G04 #@! TO.C,VIN3*
X50675000Y41525000D03*
G04 #@! TD*
G04 #@! TO.C,V28*
X77050000Y32375000D03*
G04 #@! TD*
D25*
G04 #@! TO.C,R9*
X51600000Y26145000D03*
X51600000Y29955000D03*
G04 #@! TD*
D16*
G04 #@! TO.C,V71*
X95075000Y27975000D03*
G04 #@! TD*
G04 #@! TO.C,V14*
X63850000Y28025000D03*
G04 #@! TD*
G04 #@! TO.C,VOUT1*
X90500000Y40300000D03*
G04 #@! TD*
G04 #@! TO.C,V43*
X38150000Y32650000D03*
G04 #@! TD*
G04 #@! TO.C,V51*
X66350000Y32375000D03*
G04 #@! TD*
D25*
G04 #@! TO.C,R2*
X46325000Y26165000D03*
X46325000Y29975000D03*
G04 #@! TD*
G04 #@! TO.C,F2*
X126975000Y26775000D03*
X126975000Y31675000D03*
G04 #@! TD*
D16*
G04 #@! TO.C,V63*
X86850000Y27975000D03*
G04 #@! TD*
G04 #@! TO.C,VOUT2*
X102900000Y40325000D03*
G04 #@! TD*
G04 #@! TO.C,V46*
X78950000Y27975000D03*
G04 #@! TD*
G04 #@! TO.C,V13*
X66575000Y28025000D03*
G04 #@! TD*
G04 #@! TO.C,V45*
X81650000Y27975000D03*
G04 #@! TD*
D17*
G04 #@! TO.C,M2*
X114574999Y98550019D03*
X100375000Y98550019D03*
X125474998Y98550019D03*
X88111732Y98550019D03*
X89500005Y94750007D03*
G04 #@! TD*
D16*
G04 #@! TO.C,V12*
X69375000Y28025000D03*
G04 #@! TD*
D25*
G04 #@! TO.C,R3*
X41800000Y26100000D03*
X41800000Y29910000D03*
G04 #@! TD*
D16*
G04 #@! TO.C,V68*
X85050000Y32350000D03*
G04 #@! TD*
G04 #@! TO.C,V48*
X75375000Y28000000D03*
G04 #@! TD*
G04 #@! TO.C,V80*
X35625000Y32650000D03*
G04 #@! TD*
G04 #@! TO.C,V41*
X43200000Y32650000D03*
G04 #@! TD*
G04 #@! TO.C,V64*
X84300000Y27975000D03*
G04 #@! TD*
D17*
G04 #@! TO.C,M8*
X89608984Y57912112D03*
X81383984Y56587108D03*
X81401489Y51354614D03*
X83283985Y50862108D03*
X75933992Y49737122D03*
G04 #@! TD*
D16*
G04 #@! TO.C,V56*
X56000000Y32600000D03*
G04 #@! TD*
G04 #@! TO.C,V66*
X82375000Y32375000D03*
G04 #@! TD*
G04 #@! TO.C,V70*
X87700000Y32350000D03*
G04 #@! TD*
M02*
