G04 #@! TF.GenerationSoftware,KiCad,Pcbnew,(5.99.0-10192-g8d0191151d)*
G04 #@! TF.CreationDate,2021-05-01T21:21:59+03:00*
G04 #@! TF.ProjectId,hellen121vag,68656c6c-656e-4313-9231-7661672e6b69,a*
G04 #@! TF.SameCoordinates,PX2b953a0PY6943058*
G04 #@! TF.FileFunction,Soldermask,Top*
G04 #@! TF.FilePolarity,Negative*
%FSLAX46Y46*%
G04 Gerber Fmt 4.6, Leading zero omitted, Abs format (unit mm)*
G04 Created by KiCad (PCBNEW (5.99.0-10192-g8d0191151d)) date 2021-05-01 21:21:59*
%MOMM*%
%LPD*%
G01*
G04 APERTURE LIST*
%ADD10C,0.010000*%
%ADD11C,3.700000*%
%ADD12C,2.200000*%
%ADD13C,2.600000*%
%ADD14C,1.500000*%
%ADD15C,1.700000*%
%ADD16O,0.499999X0.250000*%
%ADD17O,0.250000X0.499999*%
%ADD18C,0.599999*%
%ADD19O,0.200000X0.399999*%
%ADD20O,1.000001X1.500000*%
%ADD21O,0.800001X0.599999*%
%ADD22C,1.524000*%
%ADD23R,0.203200X1.524000*%
%ADD24C,2.000000*%
%ADD25R,0.800000X2.200000*%
%ADD26R,2.032000X5.080000*%
%ADD27R,11.430000X7.620000*%
%ADD28R,3.600000X2.600000*%
%ADD29O,0.500000X0.250000*%
%ADD30O,0.250000X0.500000*%
%ADD31R,1.700000X1.700000*%
%ADD32O,1.700000X1.700000*%
%ADD33C,0.600000*%
%ADD34O,1.000001X0.499999*%
%ADD35O,0.200000X0.499999*%
%ADD36R,1.100000X1.100000*%
%ADD37C,1.100000*%
%ADD38O,1.100000X2.400000*%
%ADD39C,0.200000*%
G04 APERTURE END LIST*
D10*
G04 #@! TO.C,U1*
X148402450Y46133763D02*
X148803000Y46133763D01*
X148803000Y46133763D02*
X148803000Y40847843D01*
X148803000Y40847843D02*
X148402450Y40847843D01*
X148402450Y40847843D02*
X148402450Y46133763D01*
G36*
X148803000Y40847843D02*
G01*
X148402450Y40847843D01*
X148402450Y46133763D01*
X148803000Y46133763D01*
X148803000Y40847843D01*
G37*
X148803000Y40847843D02*
X148402450Y40847843D01*
X148402450Y46133763D01*
X148803000Y46133763D01*
X148803000Y40847843D01*
X136598850Y46133763D02*
X137017400Y46133763D01*
X137017400Y46133763D02*
X137017400Y40845303D01*
X137017400Y40845303D02*
X136598850Y40845303D01*
X136598850Y40845303D02*
X136598850Y46133763D01*
G36*
X137017400Y40845303D02*
G01*
X136598850Y40845303D01*
X136598850Y46133763D01*
X137017400Y46133763D01*
X137017400Y40845303D01*
G37*
X137017400Y40845303D02*
X136598850Y40845303D01*
X136598850Y46133763D01*
X137017400Y46133763D01*
X137017400Y40845303D01*
G04 #@! TD*
D11*
G04 #@! TO.C,P1*
X145348000Y5492000D03*
X18648000Y5492000D03*
X93148000Y5492000D03*
D12*
X142898000Y13292000D03*
X21098000Y13292000D03*
D13*
X25748000Y10492000D03*
X31548000Y10492000D03*
X28648000Y12822000D03*
X25748000Y18622000D03*
X31548000Y18622000D03*
D14*
X85168000Y18622000D03*
X82628000Y18622000D03*
X80088000Y18622000D03*
X77548000Y18622000D03*
X75008000Y18622000D03*
X72468000Y18622000D03*
X69928000Y18622000D03*
X67388000Y18622000D03*
X64848000Y18622000D03*
X62308000Y18622000D03*
X59768000Y18622000D03*
X57228000Y18622000D03*
X54688000Y18622000D03*
X52148000Y18622000D03*
X49608000Y18622000D03*
X47068000Y18622000D03*
X44528000Y18622000D03*
X41988000Y18622000D03*
X39448000Y18622000D03*
X85168000Y16082000D03*
X82628000Y16082000D03*
X80088000Y16082000D03*
X77548000Y16082000D03*
X75008000Y16082000D03*
X72468000Y16082000D03*
X69928000Y16082000D03*
X67388000Y16082000D03*
X64848000Y16082000D03*
X62308000Y16082000D03*
X59768000Y16082000D03*
X57228000Y16082000D03*
X54688000Y16082000D03*
X52148000Y16082000D03*
X49608000Y16082000D03*
X47068000Y16082000D03*
X44528000Y16082000D03*
X41988000Y16082000D03*
X39448000Y16082000D03*
X85168000Y10032000D03*
X82628000Y10032000D03*
X80088000Y10032000D03*
X77548000Y10032000D03*
X75008000Y10032000D03*
X72468000Y10032000D03*
X69928000Y10032000D03*
X67388000Y10032000D03*
X64848000Y10032000D03*
X62308000Y10032000D03*
X59768000Y10032000D03*
X57228000Y10032000D03*
X54688000Y10032000D03*
X52148000Y10032000D03*
X49608000Y10032000D03*
X47068000Y10032000D03*
X44528000Y10032000D03*
X41988000Y10032000D03*
X39448000Y10032000D03*
X85168000Y7492000D03*
X82628000Y7492000D03*
X80088000Y7492000D03*
X77548000Y7492000D03*
X75008000Y7492000D03*
X72468000Y7492000D03*
X69928000Y7492000D03*
X67388000Y7492000D03*
X64848000Y7492000D03*
X62308000Y7492000D03*
X59768000Y7492000D03*
X57228000Y7492000D03*
X54688000Y7492000D03*
X52148000Y7492000D03*
X49608000Y7492000D03*
X47068000Y7492000D03*
X44528000Y7492000D03*
X41988000Y7492000D03*
X39448000Y7492000D03*
X101138000Y7492000D03*
X103678000Y7492000D03*
X106218000Y7492000D03*
X108758000Y7492000D03*
X111298000Y7492000D03*
X113838000Y7492000D03*
X116378000Y7492000D03*
X118918000Y7492000D03*
X101138000Y10032000D03*
X103678000Y10032000D03*
X106218000Y10032000D03*
X108758000Y10032000D03*
X111298000Y10032000D03*
X113838000Y10032000D03*
X116378000Y10032000D03*
X118918000Y10032000D03*
X101138000Y16082000D03*
X103678000Y16082000D03*
X106218000Y16082000D03*
X108758000Y16082000D03*
X111298000Y16082000D03*
X113838000Y16082000D03*
X116378000Y16082000D03*
X118918000Y16082000D03*
X101138000Y18622000D03*
X103678000Y18622000D03*
X106218000Y18622000D03*
X108758000Y18622000D03*
X111298000Y18622000D03*
X113838000Y18622000D03*
X116378000Y18622000D03*
X118918000Y18622000D03*
D13*
X126748000Y10492000D03*
X132548000Y10492000D03*
X138448000Y10492000D03*
X129648000Y12822000D03*
X135548000Y12822000D03*
X126748000Y18622000D03*
X132548000Y18622000D03*
X138448000Y18622000D03*
G04 #@! TD*
G04 #@! TO.C,M3*
G36*
G01*
X75642499Y59646377D02*
X75642499Y59196377D01*
G75*
G02*
X75517499Y59071377I-125000J0D01*
G01*
X75517499Y59071377D01*
G75*
G02*
X75392499Y59196377I0J125000D01*
G01*
X75392499Y59646377D01*
G75*
G02*
X75517499Y59771377I125000J0D01*
G01*
X75517499Y59771377D01*
G75*
G02*
X75642499Y59646377I0J-125000D01*
G01*
G37*
G04 #@! TD*
G04 #@! TO.C,U3*
G36*
G01*
X34145000Y64850000D02*
X33845000Y64850000D01*
G75*
G02*
X33695000Y65000000I0J150000D01*
G01*
X33695000Y66650000D01*
G75*
G02*
X33845000Y66800000I150000J0D01*
G01*
X34145000Y66800000D01*
G75*
G02*
X34295000Y66650000I0J-150000D01*
G01*
X34295000Y65000000D01*
G75*
G02*
X34145000Y64850000I-150000J0D01*
G01*
G37*
G36*
G01*
X35415000Y64850000D02*
X35115000Y64850000D01*
G75*
G02*
X34965000Y65000000I0J150000D01*
G01*
X34965000Y66650000D01*
G75*
G02*
X35115000Y66800000I150000J0D01*
G01*
X35415000Y66800000D01*
G75*
G02*
X35565000Y66650000I0J-150000D01*
G01*
X35565000Y65000000D01*
G75*
G02*
X35415000Y64850000I-150000J0D01*
G01*
G37*
G36*
G01*
X36685000Y64850000D02*
X36385000Y64850000D01*
G75*
G02*
X36235000Y65000000I0J150000D01*
G01*
X36235000Y66650000D01*
G75*
G02*
X36385000Y66800000I150000J0D01*
G01*
X36685000Y66800000D01*
G75*
G02*
X36835000Y66650000I0J-150000D01*
G01*
X36835000Y65000000D01*
G75*
G02*
X36685000Y64850000I-150000J0D01*
G01*
G37*
G36*
G01*
X37955000Y64850000D02*
X37655000Y64850000D01*
G75*
G02*
X37505000Y65000000I0J150000D01*
G01*
X37505000Y66650000D01*
G75*
G02*
X37655000Y66800000I150000J0D01*
G01*
X37955000Y66800000D01*
G75*
G02*
X38105000Y66650000I0J-150000D01*
G01*
X38105000Y65000000D01*
G75*
G02*
X37955000Y64850000I-150000J0D01*
G01*
G37*
G36*
G01*
X37955000Y69800000D02*
X37655000Y69800000D01*
G75*
G02*
X37505000Y69950000I0J150000D01*
G01*
X37505000Y71600000D01*
G75*
G02*
X37655000Y71750000I150000J0D01*
G01*
X37955000Y71750000D01*
G75*
G02*
X38105000Y71600000I0J-150000D01*
G01*
X38105000Y69950000D01*
G75*
G02*
X37955000Y69800000I-150000J0D01*
G01*
G37*
G36*
G01*
X36685000Y69800000D02*
X36385000Y69800000D01*
G75*
G02*
X36235000Y69950000I0J150000D01*
G01*
X36235000Y71600000D01*
G75*
G02*
X36385000Y71750000I150000J0D01*
G01*
X36685000Y71750000D01*
G75*
G02*
X36835000Y71600000I0J-150000D01*
G01*
X36835000Y69950000D01*
G75*
G02*
X36685000Y69800000I-150000J0D01*
G01*
G37*
G36*
G01*
X35415000Y69800000D02*
X35115000Y69800000D01*
G75*
G02*
X34965000Y69950000I0J150000D01*
G01*
X34965000Y71600000D01*
G75*
G02*
X35115000Y71750000I150000J0D01*
G01*
X35415000Y71750000D01*
G75*
G02*
X35565000Y71600000I0J-150000D01*
G01*
X35565000Y69950000D01*
G75*
G02*
X35415000Y69800000I-150000J0D01*
G01*
G37*
G36*
G01*
X34145000Y69800000D02*
X33845000Y69800000D01*
G75*
G02*
X33695000Y69950000I0J150000D01*
G01*
X33695000Y71600000D01*
G75*
G02*
X33845000Y71750000I150000J0D01*
G01*
X34145000Y71750000D01*
G75*
G02*
X34295000Y71600000I0J-150000D01*
G01*
X34295000Y69950000D01*
G75*
G02*
X34145000Y69800000I-150000J0D01*
G01*
G37*
G04 #@! TD*
G04 #@! TO.C,C15*
G36*
G01*
X51360000Y106915001D02*
X52040000Y106915001D01*
G75*
G02*
X52125000Y106830001I0J-85000D01*
G01*
X52125000Y106150001D01*
G75*
G02*
X52040000Y106065001I-85000J0D01*
G01*
X51360000Y106065001D01*
G75*
G02*
X51275000Y106150001I0J85000D01*
G01*
X51275000Y106830001D01*
G75*
G02*
X51360000Y106915001I85000J0D01*
G01*
G37*
G36*
G01*
X51360000Y105334999D02*
X52040000Y105334999D01*
G75*
G02*
X52125000Y105249999I0J-85000D01*
G01*
X52125000Y104569999D01*
G75*
G02*
X52040000Y104484999I-85000J0D01*
G01*
X51360000Y104484999D01*
G75*
G02*
X51275000Y104569999I0J85000D01*
G01*
X51275000Y105249999D01*
G75*
G02*
X51360000Y105334999I85000J0D01*
G01*
G37*
G04 #@! TD*
G04 #@! TO.C,C6*
G36*
G01*
X77540000Y99584999D02*
X76860000Y99584999D01*
G75*
G02*
X76775000Y99669999I0J85000D01*
G01*
X76775000Y100349999D01*
G75*
G02*
X76860000Y100434999I85000J0D01*
G01*
X77540000Y100434999D01*
G75*
G02*
X77625000Y100349999I0J-85000D01*
G01*
X77625000Y99669999D01*
G75*
G02*
X77540000Y99584999I-85000J0D01*
G01*
G37*
G36*
G01*
X77540000Y101165001D02*
X76860000Y101165001D01*
G75*
G02*
X76775000Y101250001I0J85000D01*
G01*
X76775000Y101930001D01*
G75*
G02*
X76860000Y102015001I85000J0D01*
G01*
X77540000Y102015001D01*
G75*
G02*
X77625000Y101930001I0J-85000D01*
G01*
X77625000Y101250001D01*
G75*
G02*
X77540000Y101165001I-85000J0D01*
G01*
G37*
G04 #@! TD*
D15*
G04 #@! TO.C,G5*
X149860000Y73050000D03*
X149860000Y75590000D03*
X149860000Y78130000D03*
X149860000Y80670000D03*
X149860000Y83210000D03*
X152400000Y73050000D03*
X152400000Y75590000D03*
X152400000Y78130000D03*
X152400000Y80670000D03*
X152400000Y83210000D03*
X154940000Y73050000D03*
X154940000Y75590000D03*
X154940000Y78130000D03*
X154940000Y80670000D03*
X154940000Y83210000D03*
G04 #@! TD*
G04 #@! TO.C,V20*
X51350000Y32650000D03*
G04 #@! TD*
G04 #@! TO.C,V9*
X74400000Y30350000D03*
G04 #@! TD*
D16*
G04 #@! TO.C,M1*
X50537495Y97531666D03*
D17*
X40187501Y97581664D03*
X40687502Y97581664D03*
D18*
X47237499Y98631662D03*
X46362497Y99156662D03*
X47537501Y99906660D03*
X47462498Y103456661D03*
G04 #@! TD*
D19*
G04 #@! TO.C,M7*
X34517335Y83814583D03*
X33757356Y83814583D03*
X32582363Y83814583D03*
X31407376Y83814583D03*
X30567464Y83814583D03*
X29817392Y83814583D03*
X28642381Y83814583D03*
X27467384Y83814583D03*
D18*
X32507387Y93914190D03*
X34342397Y93489182D03*
X32292389Y92939185D03*
X32507384Y92064226D03*
X32582391Y91214203D03*
X34342397Y90889187D03*
X33032397Y89589220D03*
X34342397Y88939203D03*
X28417382Y96114206D03*
X32492388Y95814204D03*
G04 #@! TD*
D20*
G04 #@! TO.C,M6*
X120232431Y44851221D03*
X118976566Y44851221D03*
X104601540Y44851221D03*
D21*
X95546542Y48347505D03*
G04 #@! TD*
D15*
G04 #@! TO.C,V40*
X48650000Y32650000D03*
G04 #@! TD*
G04 #@! TO.C,V61*
X40675000Y32650000D03*
G04 #@! TD*
G04 #@! TO.C,V17*
X57175000Y28300000D03*
G04 #@! TD*
G04 #@! TO.C,V69*
X92250000Y25575000D03*
G04 #@! TD*
G04 #@! TO.C,D8*
G36*
G01*
X14312000Y90505000D02*
X14312000Y91745000D01*
G75*
G02*
X14442000Y91875000I130000J0D01*
G01*
X15482000Y91875000D01*
G75*
G02*
X15612000Y91745000I0J-130000D01*
G01*
X15612000Y90505000D01*
G75*
G02*
X15482000Y90375000I-130000J0D01*
G01*
X14442000Y90375000D01*
G75*
G02*
X14312000Y90505000I0J130000D01*
G01*
G37*
G36*
G01*
X12411979Y90505000D02*
X12411979Y91745000D01*
G75*
G02*
X12541979Y91875000I130000J0D01*
G01*
X13581979Y91875000D01*
G75*
G02*
X13711979Y91745000I0J-130000D01*
G01*
X13711979Y90505000D01*
G75*
G02*
X13581979Y90375000I-130000J0D01*
G01*
X12541979Y90375000D01*
G75*
G02*
X12411979Y90505000I0J130000D01*
G01*
G37*
G04 #@! TD*
G04 #@! TO.C,V67*
X89500000Y25575000D03*
G04 #@! TD*
G04 #@! TO.C,VOUT3*
X105750000Y40325000D03*
G04 #@! TD*
G04 #@! TO.C,V11*
X69100000Y30350000D03*
G04 #@! TD*
G04 #@! TO.C,R13*
G36*
G01*
X8075000Y31375001D02*
X9325000Y31375001D01*
G75*
G02*
X9425000Y31275001I0J-100000D01*
G01*
X9425000Y30475001D01*
G75*
G02*
X9325000Y30375001I-100000J0D01*
G01*
X8075000Y30375001D01*
G75*
G02*
X7975000Y30475001I0J100000D01*
G01*
X7975000Y31275001D01*
G75*
G02*
X8075000Y31375001I100000J0D01*
G01*
G37*
D22*
X8700000Y31830000D03*
D23*
X8700000Y31195000D03*
X8700000Y28655000D03*
G36*
G01*
X8075000Y29474979D02*
X9325000Y29474979D01*
G75*
G02*
X9425000Y29374979I0J-100000D01*
G01*
X9425000Y28574979D01*
G75*
G02*
X9325000Y28474979I-100000J0D01*
G01*
X8075000Y28474979D01*
G75*
G02*
X7975000Y28574979I0J100000D01*
G01*
X7975000Y29374979D01*
G75*
G02*
X8075000Y29474979I100000J0D01*
G01*
G37*
D22*
X8700000Y28020000D03*
G04 #@! TD*
D15*
G04 #@! TO.C,G2*
X149860000Y86360000D03*
X149860000Y88900000D03*
X149860000Y91440000D03*
X149860000Y93980000D03*
X149860000Y96520000D03*
X152400000Y86360000D03*
X152400000Y88900000D03*
X152400000Y91440000D03*
X152400000Y93980000D03*
X152400000Y96520000D03*
X154940000Y86360000D03*
X154940000Y88900000D03*
X154940000Y91440000D03*
X154940000Y93980000D03*
X154940000Y96520000D03*
G04 #@! TD*
G04 #@! TO.C,R4*
G36*
G01*
X55225000Y26749999D02*
X53975000Y26749999D01*
G75*
G02*
X53875000Y26849999I0J100000D01*
G01*
X53875000Y27649999D01*
G75*
G02*
X53975000Y27749999I100000J0D01*
G01*
X55225000Y27749999D01*
G75*
G02*
X55325000Y27649999I0J-100000D01*
G01*
X55325000Y26849999D01*
G75*
G02*
X55225000Y26749999I-100000J0D01*
G01*
G37*
D23*
X54600000Y26930000D03*
D22*
X54600000Y26295000D03*
X54600000Y30105000D03*
G36*
G01*
X55225000Y28650021D02*
X53975000Y28650021D01*
G75*
G02*
X53875000Y28750021I0J100000D01*
G01*
X53875000Y29550021D01*
G75*
G02*
X53975000Y29650021I100000J0D01*
G01*
X55225000Y29650021D01*
G75*
G02*
X55325000Y29550021I0J-100000D01*
G01*
X55325000Y28750021D01*
G75*
G02*
X55225000Y28650021I-100000J0D01*
G01*
G37*
D23*
X54600000Y29470000D03*
G04 #@! TD*
G04 #@! TO.C,R16*
G36*
G01*
X10212000Y95790000D02*
X10212000Y95010000D01*
G75*
G02*
X10142000Y94940000I-70000J0D01*
G01*
X9582000Y94940000D01*
G75*
G02*
X9512000Y95010000I0J70000D01*
G01*
X9512000Y95790000D01*
G75*
G02*
X9582000Y95860000I70000J0D01*
G01*
X10142000Y95860000D01*
G75*
G02*
X10212000Y95790000I0J-70000D01*
G01*
G37*
G36*
G01*
X8612000Y95790000D02*
X8612000Y95010000D01*
G75*
G02*
X8542000Y94940000I-70000J0D01*
G01*
X7982000Y94940000D01*
G75*
G02*
X7912000Y95010000I0J70000D01*
G01*
X7912000Y95790000D01*
G75*
G02*
X7982000Y95860000I70000J0D01*
G01*
X8542000Y95860000D01*
G75*
G02*
X8612000Y95790000I0J-70000D01*
G01*
G37*
G04 #@! TD*
D15*
G04 #@! TO.C,VIN4*
X47850000Y41525000D03*
G04 #@! TD*
G04 #@! TO.C,C5*
G36*
G01*
X145122001Y53932163D02*
X145122001Y53252163D01*
G75*
G02*
X145037001Y53167163I-85000J0D01*
G01*
X144357001Y53167163D01*
G75*
G02*
X144272001Y53252163I0J85000D01*
G01*
X144272001Y53932163D01*
G75*
G02*
X144357001Y54017163I85000J0D01*
G01*
X145037001Y54017163D01*
G75*
G02*
X145122001Y53932163I0J-85000D01*
G01*
G37*
G36*
G01*
X143541999Y53932163D02*
X143541999Y53252163D01*
G75*
G02*
X143456999Y53167163I-85000J0D01*
G01*
X142776999Y53167163D01*
G75*
G02*
X142691999Y53252163I0J85000D01*
G01*
X142691999Y53932163D01*
G75*
G02*
X142776999Y54017163I85000J0D01*
G01*
X143456999Y54017163D01*
G75*
G02*
X143541999Y53932163I0J-85000D01*
G01*
G37*
G04 #@! TD*
G04 #@! TO.C,C11*
G36*
G01*
X134362000Y32104000D02*
X134362000Y33054000D01*
G75*
G02*
X134612000Y33304000I250000J0D01*
G01*
X135112000Y33304000D01*
G75*
G02*
X135362000Y33054000I0J-250000D01*
G01*
X135362000Y32104000D01*
G75*
G02*
X135112000Y31854000I-250000J0D01*
G01*
X134612000Y31854000D01*
G75*
G02*
X134362000Y32104000I0J250000D01*
G01*
G37*
G36*
G01*
X136262000Y32104000D02*
X136262000Y33054000D01*
G75*
G02*
X136512000Y33304000I250000J0D01*
G01*
X137012000Y33304000D01*
G75*
G02*
X137262000Y33054000I0J-250000D01*
G01*
X137262000Y32104000D01*
G75*
G02*
X137012000Y31854000I-250000J0D01*
G01*
X136512000Y31854000D01*
G75*
G02*
X136262000Y32104000I0J250000D01*
G01*
G37*
G04 #@! TD*
G04 #@! TO.C,V74*
X45925000Y32650000D03*
G04 #@! TD*
D17*
G04 #@! TO.C,M5*
X35362524Y61926574D03*
X36237524Y61926574D03*
X36937525Y61926574D03*
X37387524Y44101576D03*
X34987521Y44101576D03*
G04 #@! TD*
D15*
G04 #@! TO.C,VIN1*
X44450000Y41550000D03*
G04 #@! TD*
G04 #@! TO.C,R8*
G36*
G01*
X48975000Y26599999D02*
X47725000Y26599999D01*
G75*
G02*
X47625000Y26699999I0J100000D01*
G01*
X47625000Y27499999D01*
G75*
G02*
X47725000Y27599999I100000J0D01*
G01*
X48975000Y27599999D01*
G75*
G02*
X49075000Y27499999I0J-100000D01*
G01*
X49075000Y26699999D01*
G75*
G02*
X48975000Y26599999I-100000J0D01*
G01*
G37*
D22*
X48350000Y26145000D03*
D23*
X48350000Y26780000D03*
X48350000Y29320000D03*
G36*
G01*
X48975000Y28500021D02*
X47725000Y28500021D01*
G75*
G02*
X47625000Y28600021I0J100000D01*
G01*
X47625000Y29400021D01*
G75*
G02*
X47725000Y29500021I100000J0D01*
G01*
X48975000Y29500021D01*
G75*
G02*
X49075000Y29400021I0J-100000D01*
G01*
X49075000Y28600021D01*
G75*
G02*
X48975000Y28500021I-100000J0D01*
G01*
G37*
D22*
X48350000Y29955000D03*
G04 #@! TD*
D23*
G04 #@! TO.C,F1*
X124075000Y27250000D03*
G36*
G01*
X124975000Y28119990D02*
X124975000Y27429990D01*
G75*
G02*
X124745000Y27199990I-230000J0D01*
G01*
X123405000Y27199990D01*
G75*
G02*
X123175000Y27429990I0J230000D01*
G01*
X123175000Y28119990D01*
G75*
G02*
X123405000Y28349990I230000J0D01*
G01*
X124745000Y28349990D01*
G75*
G02*
X124975000Y28119990I0J-230000D01*
G01*
G37*
D22*
X124075000Y26775000D03*
X124075000Y31675000D03*
G36*
G01*
X124975000Y31020010D02*
X124975000Y30330010D01*
G75*
G02*
X124745000Y30100010I-230000J0D01*
G01*
X123405000Y30100010D01*
G75*
G02*
X123175000Y30330010I0J230000D01*
G01*
X123175000Y31020010D01*
G75*
G02*
X123405000Y31250010I230000J0D01*
G01*
X124745000Y31250010D01*
G75*
G02*
X124975000Y31020010I0J-230000D01*
G01*
G37*
D23*
X124075000Y31250010D03*
G04 #@! TD*
D24*
G04 #@! TO.C,J2*
X17962000Y91125000D03*
G04 #@! TD*
D25*
G04 #@! TO.C,U1*
X136992000Y36892163D03*
X138262000Y36892163D03*
X139532000Y36892163D03*
X140802000Y36892163D03*
X142072000Y36892163D03*
X143342000Y36892163D03*
X144612000Y36892163D03*
X145882000Y36892163D03*
X147152000Y36892163D03*
X148422000Y36892163D03*
X148422000Y50092163D03*
X147152000Y50092163D03*
X145882000Y50092163D03*
X144612000Y50092163D03*
X143342000Y50092163D03*
X142072000Y50092163D03*
X140802000Y50092163D03*
X139532000Y50092163D03*
X138262000Y50092163D03*
X136992000Y50092163D03*
D26*
X135595000Y43492163D03*
D27*
X142707000Y43492163D03*
D26*
X149819000Y43492163D03*
G04 #@! TD*
G04 #@! TO.C,R21*
G36*
G01*
X10212000Y81240000D02*
X10212000Y80460000D01*
G75*
G02*
X10142000Y80390000I-70000J0D01*
G01*
X9582000Y80390000D01*
G75*
G02*
X9512000Y80460000I0J70000D01*
G01*
X9512000Y81240000D01*
G75*
G02*
X9582000Y81310000I70000J0D01*
G01*
X10142000Y81310000D01*
G75*
G02*
X10212000Y81240000I0J-70000D01*
G01*
G37*
G36*
G01*
X8612000Y81240000D02*
X8612000Y80460000D01*
G75*
G02*
X8542000Y80390000I-70000J0D01*
G01*
X7982000Y80390000D01*
G75*
G02*
X7912000Y80460000I0J70000D01*
G01*
X7912000Y81240000D01*
G75*
G02*
X7982000Y81310000I70000J0D01*
G01*
X8542000Y81310000D01*
G75*
G02*
X8612000Y81240000I0J-70000D01*
G01*
G37*
G04 #@! TD*
D16*
G04 #@! TO.C,M10*
X20725007Y74749997D03*
D17*
X31075001Y74699999D03*
X30575000Y74699999D03*
D18*
X24025003Y73650001D03*
X24900005Y73125001D03*
X23725001Y72375003D03*
X23800004Y68825002D03*
G04 #@! TD*
G04 #@! TO.C,D4*
G36*
G01*
X14312000Y96505000D02*
X14312000Y97745000D01*
G75*
G02*
X14442000Y97875000I130000J0D01*
G01*
X15482000Y97875000D01*
G75*
G02*
X15612000Y97745000I0J-130000D01*
G01*
X15612000Y96505000D01*
G75*
G02*
X15482000Y96375000I-130000J0D01*
G01*
X14442000Y96375000D01*
G75*
G02*
X14312000Y96505000I0J130000D01*
G01*
G37*
G36*
G01*
X12411979Y96505000D02*
X12411979Y97745000D01*
G75*
G02*
X12541979Y97875000I130000J0D01*
G01*
X13581979Y97875000D01*
G75*
G02*
X13711979Y97745000I0J-130000D01*
G01*
X13711979Y96505000D01*
G75*
G02*
X13581979Y96375000I-130000J0D01*
G01*
X12541979Y96375000D01*
G75*
G02*
X12411979Y96505000I0J130000D01*
G01*
G37*
G04 #@! TD*
G04 #@! TO.C,C16*
G36*
G01*
X36015001Y73440000D02*
X36015001Y72760000D01*
G75*
G02*
X35930001Y72675000I-85000J0D01*
G01*
X35250001Y72675000D01*
G75*
G02*
X35165001Y72760000I0J85000D01*
G01*
X35165001Y73440000D01*
G75*
G02*
X35250001Y73525000I85000J0D01*
G01*
X35930001Y73525000D01*
G75*
G02*
X36015001Y73440000I0J-85000D01*
G01*
G37*
G36*
G01*
X34434999Y73440000D02*
X34434999Y72760000D01*
G75*
G02*
X34349999Y72675000I-85000J0D01*
G01*
X33669999Y72675000D01*
G75*
G02*
X33584999Y72760000I0J85000D01*
G01*
X33584999Y73440000D01*
G75*
G02*
X33669999Y73525000I85000J0D01*
G01*
X34349999Y73525000D01*
G75*
G02*
X34434999Y73440000I0J-85000D01*
G01*
G37*
G04 #@! TD*
G04 #@! TO.C,S1*
G36*
G01*
X60542000Y106400001D02*
X62382000Y106400001D01*
G75*
G02*
X62462000Y106320001I0J-80000D01*
G01*
X62462000Y105680001D01*
G75*
G02*
X62382000Y105600001I-80000J0D01*
G01*
X60542000Y105600001D01*
G75*
G02*
X60462000Y105680001I0J80000D01*
G01*
X60462000Y106320001D01*
G75*
G02*
X60542000Y106400001I80000J0D01*
G01*
G37*
G36*
G01*
X60542000Y102200000D02*
X62382000Y102200000D01*
G75*
G02*
X62462000Y102120000I0J-80000D01*
G01*
X62462000Y101480000D01*
G75*
G02*
X62382000Y101400000I-80000J0D01*
G01*
X60542000Y101400000D01*
G75*
G02*
X60462000Y101480000I0J80000D01*
G01*
X60462000Y102120000D01*
G75*
G02*
X60542000Y102200000I80000J0D01*
G01*
G37*
G04 #@! TD*
D15*
G04 #@! TO.C,V10*
X71750000Y30350000D03*
G04 #@! TD*
G04 #@! TO.C,V44*
X79700000Y30350000D03*
G04 #@! TD*
D28*
G04 #@! TO.C,BT1*
X134600000Y92700000D03*
X134600000Y63400000D03*
G04 #@! TD*
G04 #@! TO.C,R5*
G36*
G01*
X142717000Y56942163D02*
X143497000Y56942163D01*
G75*
G02*
X143567000Y56872163I0J-70000D01*
G01*
X143567000Y56312163D01*
G75*
G02*
X143497000Y56242163I-70000J0D01*
G01*
X142717000Y56242163D01*
G75*
G02*
X142647000Y56312163I0J70000D01*
G01*
X142647000Y56872163D01*
G75*
G02*
X142717000Y56942163I70000J0D01*
G01*
G37*
G36*
G01*
X142717000Y55342163D02*
X143497000Y55342163D01*
G75*
G02*
X143567000Y55272163I0J-70000D01*
G01*
X143567000Y54712163D01*
G75*
G02*
X143497000Y54642163I-70000J0D01*
G01*
X142717000Y54642163D01*
G75*
G02*
X142647000Y54712163I0J70000D01*
G01*
X142647000Y55272163D01*
G75*
G02*
X142717000Y55342163I70000J0D01*
G01*
G37*
G04 #@! TD*
D15*
G04 #@! TO.C,VIN2*
X53500000Y41525000D03*
G04 #@! TD*
G04 #@! TO.C,V49*
X72550000Y25575000D03*
G04 #@! TD*
G04 #@! TO.C,VIN3*
X50675000Y41525000D03*
G04 #@! TD*
G04 #@! TO.C,U2*
G36*
G01*
X54200000Y104300000D02*
X54000000Y104300000D01*
G75*
G02*
X53900000Y104400000I0J100000D01*
G01*
X53900000Y104750000D01*
G75*
G02*
X54000000Y104850000I100000J0D01*
G01*
X54200000Y104850000D01*
G75*
G02*
X54300000Y104750000I0J-100000D01*
G01*
X54300000Y104400000D01*
G75*
G02*
X54200000Y104300000I-100000J0D01*
G01*
G37*
G36*
G01*
X54800000Y104300000D02*
X54600000Y104300000D01*
G75*
G02*
X54500000Y104400000I0J100000D01*
G01*
X54500000Y104750000D01*
G75*
G02*
X54600000Y104850000I100000J0D01*
G01*
X54800000Y104850000D01*
G75*
G02*
X54900000Y104750000I0J-100000D01*
G01*
X54900000Y104400000D01*
G75*
G02*
X54800000Y104300000I-100000J0D01*
G01*
G37*
G36*
G01*
X55500000Y104700000D02*
X55150000Y104700000D01*
G75*
G02*
X55050000Y104800000I0J100000D01*
G01*
X55050000Y105000000D01*
G75*
G02*
X55150000Y105100000I100000J0D01*
G01*
X55500000Y105100000D01*
G75*
G02*
X55600000Y105000000I0J-100000D01*
G01*
X55600000Y104800000D01*
G75*
G02*
X55500000Y104700000I-100000J0D01*
G01*
G37*
G36*
G01*
X55500000Y105300000D02*
X55150000Y105300000D01*
G75*
G02*
X55050000Y105400000I0J100000D01*
G01*
X55050000Y105600000D01*
G75*
G02*
X55150000Y105700000I100000J0D01*
G01*
X55500000Y105700000D01*
G75*
G02*
X55600000Y105600000I0J-100000D01*
G01*
X55600000Y105400000D01*
G75*
G02*
X55500000Y105300000I-100000J0D01*
G01*
G37*
G36*
G01*
X55500000Y105900000D02*
X55150000Y105900000D01*
G75*
G02*
X55050000Y106000000I0J100000D01*
G01*
X55050000Y106200000D01*
G75*
G02*
X55150000Y106300000I100000J0D01*
G01*
X55500000Y106300000D01*
G75*
G02*
X55600000Y106200000I0J-100000D01*
G01*
X55600000Y106000000D01*
G75*
G02*
X55500000Y105900000I-100000J0D01*
G01*
G37*
G36*
G01*
X54800000Y106150000D02*
X54600000Y106150000D01*
G75*
G02*
X54500000Y106250000I0J100000D01*
G01*
X54500000Y106600000D01*
G75*
G02*
X54600000Y106700000I100000J0D01*
G01*
X54800000Y106700000D01*
G75*
G02*
X54900000Y106600000I0J-100000D01*
G01*
X54900000Y106250000D01*
G75*
G02*
X54800000Y106150000I-100000J0D01*
G01*
G37*
G36*
G01*
X54200000Y106150000D02*
X54000000Y106150000D01*
G75*
G02*
X53900000Y106250000I0J100000D01*
G01*
X53900000Y106600000D01*
G75*
G02*
X54000000Y106700000I100000J0D01*
G01*
X54200000Y106700000D01*
G75*
G02*
X54300000Y106600000I0J-100000D01*
G01*
X54300000Y106250000D01*
G75*
G02*
X54200000Y106150000I-100000J0D01*
G01*
G37*
G36*
G01*
X53650000Y105900000D02*
X53300000Y105900000D01*
G75*
G02*
X53200000Y106000000I0J100000D01*
G01*
X53200000Y106200000D01*
G75*
G02*
X53300000Y106300000I100000J0D01*
G01*
X53650000Y106300000D01*
G75*
G02*
X53750000Y106200000I0J-100000D01*
G01*
X53750000Y106000000D01*
G75*
G02*
X53650000Y105900000I-100000J0D01*
G01*
G37*
G36*
G01*
X53650000Y105300000D02*
X53300000Y105300000D01*
G75*
G02*
X53200000Y105400000I0J100000D01*
G01*
X53200000Y105600000D01*
G75*
G02*
X53300000Y105700000I100000J0D01*
G01*
X53650000Y105700000D01*
G75*
G02*
X53750000Y105600000I0J-100000D01*
G01*
X53750000Y105400000D01*
G75*
G02*
X53650000Y105300000I-100000J0D01*
G01*
G37*
G36*
G01*
X53650000Y104700000D02*
X53300000Y104700000D01*
G75*
G02*
X53200000Y104800000I0J100000D01*
G01*
X53200000Y105000000D01*
G75*
G02*
X53300000Y105100000I100000J0D01*
G01*
X53650000Y105100000D01*
G75*
G02*
X53750000Y105000000I0J-100000D01*
G01*
X53750000Y104800000D01*
G75*
G02*
X53650000Y104700000I-100000J0D01*
G01*
G37*
G04 #@! TD*
G04 #@! TO.C,D5*
G36*
G01*
X15302000Y92825000D02*
X14822000Y92825000D01*
G75*
G02*
X14762000Y92885000I0J60000D01*
G01*
X14762000Y93365000D01*
G75*
G02*
X14822000Y93425000I60000J0D01*
G01*
X15302000Y93425000D01*
G75*
G02*
X15362000Y93365000I0J-60000D01*
G01*
X15362000Y92885000D01*
G75*
G02*
X15302000Y92825000I-60000J0D01*
G01*
G37*
G36*
G01*
X13102000Y92825000D02*
X12622000Y92825000D01*
G75*
G02*
X12562000Y92885000I0J60000D01*
G01*
X12562000Y93365000D01*
G75*
G02*
X12622000Y93425000I60000J0D01*
G01*
X13102000Y93425000D01*
G75*
G02*
X13162000Y93365000I0J-60000D01*
G01*
X13162000Y92885000D01*
G75*
G02*
X13102000Y92825000I-60000J0D01*
G01*
G37*
G04 #@! TD*
G04 #@! TO.C,V28*
X77050000Y30350000D03*
G04 #@! TD*
G04 #@! TO.C,R18*
G36*
G01*
X53274986Y101550001D02*
X53274986Y102330001D01*
G75*
G02*
X53344986Y102400001I70000J0D01*
G01*
X53904986Y102400001D01*
G75*
G02*
X53974986Y102330001I0J-70000D01*
G01*
X53974986Y101550001D01*
G75*
G02*
X53904986Y101480001I-70000J0D01*
G01*
X53344986Y101480001D01*
G75*
G02*
X53274986Y101550001I0J70000D01*
G01*
G37*
G36*
G01*
X54874986Y101550001D02*
X54874986Y102330001D01*
G75*
G02*
X54944986Y102400001I70000J0D01*
G01*
X55504986Y102400001D01*
G75*
G02*
X55574986Y102330001I0J-70000D01*
G01*
X55574986Y101550001D01*
G75*
G02*
X55504986Y101480001I-70000J0D01*
G01*
X54944986Y101480001D01*
G75*
G02*
X54874986Y101550001I0J70000D01*
G01*
G37*
G04 #@! TD*
G04 #@! TO.C,R10*
G36*
G01*
X12675000Y31425001D02*
X13925000Y31425001D01*
G75*
G02*
X14025000Y31325001I0J-100000D01*
G01*
X14025000Y30525001D01*
G75*
G02*
X13925000Y30425001I-100000J0D01*
G01*
X12675000Y30425001D01*
G75*
G02*
X12575000Y30525001I0J100000D01*
G01*
X12575000Y31325001D01*
G75*
G02*
X12675000Y31425001I100000J0D01*
G01*
G37*
D22*
X13300000Y31880000D03*
D23*
X13300000Y31245000D03*
D22*
X13300000Y28070000D03*
G36*
G01*
X12675000Y29524979D02*
X13925000Y29524979D01*
G75*
G02*
X14025000Y29424979I0J-100000D01*
G01*
X14025000Y28624979D01*
G75*
G02*
X13925000Y28524979I-100000J0D01*
G01*
X12675000Y28524979D01*
G75*
G02*
X12575000Y28624979I0J100000D01*
G01*
X12575000Y29424979D01*
G75*
G02*
X12675000Y29524979I100000J0D01*
G01*
G37*
D23*
X13300000Y28705000D03*
G04 #@! TD*
G04 #@! TO.C,D3*
G36*
G01*
X15302000Y94825000D02*
X14822000Y94825000D01*
G75*
G02*
X14762000Y94885000I0J60000D01*
G01*
X14762000Y95365000D01*
G75*
G02*
X14822000Y95425000I60000J0D01*
G01*
X15302000Y95425000D01*
G75*
G02*
X15362000Y95365000I0J-60000D01*
G01*
X15362000Y94885000D01*
G75*
G02*
X15302000Y94825000I-60000J0D01*
G01*
G37*
G36*
G01*
X13102000Y94825000D02*
X12622000Y94825000D01*
G75*
G02*
X12562000Y94885000I0J60000D01*
G01*
X12562000Y95365000D01*
G75*
G02*
X12622000Y95425000I60000J0D01*
G01*
X13102000Y95425000D01*
G75*
G02*
X13162000Y95365000I0J-60000D01*
G01*
X13162000Y94885000D01*
G75*
G02*
X13102000Y94825000I-60000J0D01*
G01*
G37*
G04 #@! TD*
D22*
G04 #@! TO.C,R9*
X51600000Y26145000D03*
G36*
G01*
X52225000Y26599999D02*
X50975000Y26599999D01*
G75*
G02*
X50875000Y26699999I0J100000D01*
G01*
X50875000Y27499999D01*
G75*
G02*
X50975000Y27599999I100000J0D01*
G01*
X52225000Y27599999D01*
G75*
G02*
X52325000Y27499999I0J-100000D01*
G01*
X52325000Y26699999D01*
G75*
G02*
X52225000Y26599999I-100000J0D01*
G01*
G37*
D23*
X51600000Y26780000D03*
G36*
G01*
X52225000Y28500021D02*
X50975000Y28500021D01*
G75*
G02*
X50875000Y28600021I0J100000D01*
G01*
X50875000Y29400021D01*
G75*
G02*
X50975000Y29500021I100000J0D01*
G01*
X52225000Y29500021D01*
G75*
G02*
X52325000Y29400021I0J-100000D01*
G01*
X52325000Y28600021D01*
G75*
G02*
X52225000Y28500021I-100000J0D01*
G01*
G37*
D22*
X51600000Y29955000D03*
D23*
X51600000Y29320000D03*
G04 #@! TD*
D29*
G04 #@! TO.C,M11*
X81649997Y38700000D03*
X81649997Y36974998D03*
X81649997Y35249998D03*
X81649997Y33550000D03*
D30*
X68449998Y40175000D03*
D29*
X62694124Y34153602D03*
X62699996Y37775000D03*
G04 #@! TD*
G04 #@! TO.C,C8*
G36*
G01*
X135762000Y57804000D02*
X135762000Y58754000D01*
G75*
G02*
X136012000Y59004000I250000J0D01*
G01*
X136512000Y59004000D01*
G75*
G02*
X136762000Y58754000I0J-250000D01*
G01*
X136762000Y57804000D01*
G75*
G02*
X136512000Y57554000I-250000J0D01*
G01*
X136012000Y57554000D01*
G75*
G02*
X135762000Y57804000I0J250000D01*
G01*
G37*
G36*
G01*
X137662000Y57804000D02*
X137662000Y58754000D01*
G75*
G02*
X137912000Y59004000I250000J0D01*
G01*
X138412000Y59004000D01*
G75*
G02*
X138662000Y58754000I0J-250000D01*
G01*
X138662000Y57804000D01*
G75*
G02*
X138412000Y57554000I-250000J0D01*
G01*
X137912000Y57554000D01*
G75*
G02*
X137662000Y57804000I0J250000D01*
G01*
G37*
G04 #@! TD*
G04 #@! TO.C,D9*
G36*
G01*
X132060000Y95400000D02*
X132540000Y95400000D01*
G75*
G02*
X132600000Y95340000I0J-60000D01*
G01*
X132600000Y94860000D01*
G75*
G02*
X132540000Y94800000I-60000J0D01*
G01*
X132060000Y94800000D01*
G75*
G02*
X132000000Y94860000I0J60000D01*
G01*
X132000000Y95340000D01*
G75*
G02*
X132060000Y95400000I60000J0D01*
G01*
G37*
G36*
G01*
X134260000Y95400000D02*
X134740000Y95400000D01*
G75*
G02*
X134800000Y95340000I0J-60000D01*
G01*
X134800000Y94860000D01*
G75*
G02*
X134740000Y94800000I-60000J0D01*
G01*
X134260000Y94800000D01*
G75*
G02*
X134200000Y94860000I0J60000D01*
G01*
X134200000Y95340000D01*
G75*
G02*
X134260000Y95400000I60000J0D01*
G01*
G37*
G04 #@! TD*
D15*
G04 #@! TO.C,V14*
X63775000Y25625000D03*
G04 #@! TD*
G04 #@! TO.C,R6*
G36*
G01*
X57110000Y41600000D02*
X57890000Y41600000D01*
G75*
G02*
X57960000Y41530000I0J-70000D01*
G01*
X57960000Y40970000D01*
G75*
G02*
X57890000Y40900000I-70000J0D01*
G01*
X57110000Y40900000D01*
G75*
G02*
X57040000Y40970000I0J70000D01*
G01*
X57040000Y41530000D01*
G75*
G02*
X57110000Y41600000I70000J0D01*
G01*
G37*
G36*
G01*
X57110000Y40000000D02*
X57890000Y40000000D01*
G75*
G02*
X57960000Y39930000I0J-70000D01*
G01*
X57960000Y39370000D01*
G75*
G02*
X57890000Y39300000I-70000J0D01*
G01*
X57110000Y39300000D01*
G75*
G02*
X57040000Y39370000I0J70000D01*
G01*
X57040000Y39930000D01*
G75*
G02*
X57110000Y40000000I70000J0D01*
G01*
G37*
G04 #@! TD*
G04 #@! TO.C,R19*
G36*
G01*
X56510000Y107450000D02*
X57290000Y107450000D01*
G75*
G02*
X57360000Y107380000I0J-70000D01*
G01*
X57360000Y106820000D01*
G75*
G02*
X57290000Y106750000I-70000J0D01*
G01*
X56510000Y106750000D01*
G75*
G02*
X56440000Y106820000I0J70000D01*
G01*
X56440000Y107380000D01*
G75*
G02*
X56510000Y107450000I70000J0D01*
G01*
G37*
G36*
G01*
X56510000Y105850000D02*
X57290000Y105850000D01*
G75*
G02*
X57360000Y105780000I0J-70000D01*
G01*
X57360000Y105220000D01*
G75*
G02*
X57290000Y105150000I-70000J0D01*
G01*
X56510000Y105150000D01*
G75*
G02*
X56440000Y105220000I0J70000D01*
G01*
X56440000Y105780000D01*
G75*
G02*
X56510000Y105850000I70000J0D01*
G01*
G37*
G04 #@! TD*
G04 #@! TO.C,VOUT1*
X90500000Y40300000D03*
G04 #@! TD*
G04 #@! TO.C,V43*
X38150000Y32650000D03*
G04 #@! TD*
D31*
G04 #@! TO.C,J8*
X13200000Y53550000D03*
D32*
X13200000Y56090000D03*
X13200000Y58630000D03*
X13200000Y61170000D03*
X13200000Y63710000D03*
X13200000Y66250000D03*
G04 #@! TD*
G04 #@! TO.C,C10*
G36*
G01*
X135762000Y53604000D02*
X135762000Y54554000D01*
G75*
G02*
X136012000Y54804000I250000J0D01*
G01*
X136512000Y54804000D01*
G75*
G02*
X136762000Y54554000I0J-250000D01*
G01*
X136762000Y53604000D01*
G75*
G02*
X136512000Y53354000I-250000J0D01*
G01*
X136012000Y53354000D01*
G75*
G02*
X135762000Y53604000I0J250000D01*
G01*
G37*
G36*
G01*
X137662000Y53604000D02*
X137662000Y54554000D01*
G75*
G02*
X137912000Y54804000I250000J0D01*
G01*
X138412000Y54804000D01*
G75*
G02*
X138662000Y54554000I0J-250000D01*
G01*
X138662000Y53604000D01*
G75*
G02*
X138412000Y53354000I-250000J0D01*
G01*
X137912000Y53354000D01*
G75*
G02*
X137662000Y53604000I0J250000D01*
G01*
G37*
G04 #@! TD*
D15*
G04 #@! TO.C,G3*
X144900000Y104600000D03*
X144900000Y102060000D03*
X144900000Y99520000D03*
X144900000Y96980000D03*
X144900000Y94440000D03*
X142360000Y104600000D03*
X142360000Y102060000D03*
X142360000Y99520000D03*
X142360000Y96980000D03*
X142360000Y94440000D03*
X139820000Y104600000D03*
X139820000Y102060000D03*
X139820000Y99520000D03*
X139820000Y96980000D03*
X139820000Y94440000D03*
G04 #@! TD*
D33*
G04 #@! TO.C,M12*
X74280016Y56292004D03*
X74886977Y49016987D03*
X74036976Y49016987D03*
X73186975Y49016987D03*
X72336974Y49016987D03*
X75498380Y47567861D03*
X72337005Y57417026D03*
X73737012Y57417026D03*
X74812004Y57417026D03*
X76212011Y57417026D03*
G04 #@! TD*
D31*
G04 #@! TO.C,J9*
X63120000Y99500000D03*
D32*
X60580000Y99500000D03*
X58040000Y99500000D03*
X55500000Y99500000D03*
G04 #@! TD*
G04 #@! TO.C,R2*
G36*
G01*
X46950000Y26619999D02*
X45700000Y26619999D01*
G75*
G02*
X45600000Y26719999I0J100000D01*
G01*
X45600000Y27519999D01*
G75*
G02*
X45700000Y27619999I100000J0D01*
G01*
X46950000Y27619999D01*
G75*
G02*
X47050000Y27519999I0J-100000D01*
G01*
X47050000Y26719999D01*
G75*
G02*
X46950000Y26619999I-100000J0D01*
G01*
G37*
D22*
X46325000Y26165000D03*
D23*
X46325000Y26800000D03*
G36*
G01*
X46950000Y28520021D02*
X45700000Y28520021D01*
G75*
G02*
X45600000Y28620021I0J100000D01*
G01*
X45600000Y29420021D01*
G75*
G02*
X45700000Y29520021I100000J0D01*
G01*
X46950000Y29520021D01*
G75*
G02*
X47050000Y29420021I0J-100000D01*
G01*
X47050000Y28620021D01*
G75*
G02*
X46950000Y28520021I-100000J0D01*
G01*
G37*
X46325000Y29340000D03*
D22*
X46325000Y29975000D03*
G04 #@! TD*
G04 #@! TO.C,R14*
G36*
G01*
X76755020Y42625000D02*
X77445020Y42625000D01*
G75*
G02*
X77675020Y42395000I0J-230000D01*
G01*
X77675020Y41055000D01*
G75*
G02*
X77445020Y40825000I-230000J0D01*
G01*
X76755020Y40825000D01*
G75*
G02*
X76525020Y41055000I0J230000D01*
G01*
X76525020Y42395000D01*
G75*
G02*
X76755020Y42625000I230000J0D01*
G01*
G37*
G36*
G01*
X73855000Y42625000D02*
X74545000Y42625000D01*
G75*
G02*
X74775000Y42395000I0J-230000D01*
G01*
X74775000Y41055000D01*
G75*
G02*
X74545000Y40825000I-230000J0D01*
G01*
X73855000Y40825000D01*
G75*
G02*
X73625000Y41055000I0J230000D01*
G01*
X73625000Y42395000D01*
G75*
G02*
X73855000Y42625000I230000J0D01*
G01*
G37*
G04 #@! TD*
D23*
G04 #@! TO.C,R12*
X15600000Y31245021D03*
D22*
X15600000Y31880021D03*
G36*
G01*
X14975000Y31425022D02*
X16225000Y31425022D01*
G75*
G02*
X16325000Y31325022I0J-100000D01*
G01*
X16325000Y30525022D01*
G75*
G02*
X16225000Y30425022I-100000J0D01*
G01*
X14975000Y30425022D01*
G75*
G02*
X14875000Y30525022I0J100000D01*
G01*
X14875000Y31325022D01*
G75*
G02*
X14975000Y31425022I100000J0D01*
G01*
G37*
D23*
X15600000Y28705021D03*
G36*
G01*
X14975000Y29525000D02*
X16225000Y29525000D01*
G75*
G02*
X16325000Y29425000I0J-100000D01*
G01*
X16325000Y28625000D01*
G75*
G02*
X16225000Y28525000I-100000J0D01*
G01*
X14975000Y28525000D01*
G75*
G02*
X14875000Y28625000I0J100000D01*
G01*
X14875000Y29425000D01*
G75*
G02*
X14975000Y29525000I100000J0D01*
G01*
G37*
D22*
X15600000Y28070021D03*
G04 #@! TD*
G04 #@! TO.C,R15*
G36*
G01*
X82500000Y40630010D02*
X82500000Y41320010D01*
G75*
G02*
X82730000Y41550010I230000J0D01*
G01*
X84070000Y41550010D01*
G75*
G02*
X84300000Y41320010I0J-230000D01*
G01*
X84300000Y40630010D01*
G75*
G02*
X84070000Y40400010I-230000J0D01*
G01*
X82730000Y40400010D01*
G75*
G02*
X82500000Y40630010I0J230000D01*
G01*
G37*
G36*
G01*
X82500000Y37729990D02*
X82500000Y38419990D01*
G75*
G02*
X82730000Y38649990I230000J0D01*
G01*
X84070000Y38649990D01*
G75*
G02*
X84300000Y38419990I0J-230000D01*
G01*
X84300000Y37729990D01*
G75*
G02*
X84070000Y37499990I-230000J0D01*
G01*
X82730000Y37499990D01*
G75*
G02*
X82500000Y37729990I0J230000D01*
G01*
G37*
G04 #@! TD*
G04 #@! TO.C,F2*
G36*
G01*
X127875000Y28119990D02*
X127875000Y27429990D01*
G75*
G02*
X127645000Y27199990I-230000J0D01*
G01*
X126305000Y27199990D01*
G75*
G02*
X126075000Y27429990I0J230000D01*
G01*
X126075000Y28119990D01*
G75*
G02*
X126305000Y28349990I230000J0D01*
G01*
X127645000Y28349990D01*
G75*
G02*
X127875000Y28119990I0J-230000D01*
G01*
G37*
X126975000Y26775000D03*
D23*
X126975000Y27250000D03*
D22*
X126975000Y31675000D03*
G36*
G01*
X127875000Y31020010D02*
X127875000Y30330010D01*
G75*
G02*
X127645000Y30100010I-230000J0D01*
G01*
X126305000Y30100010D01*
G75*
G02*
X126075000Y30330010I0J230000D01*
G01*
X126075000Y31020010D01*
G75*
G02*
X126305000Y31250010I230000J0D01*
G01*
X127645000Y31250010D01*
G75*
G02*
X127875000Y31020010I0J-230000D01*
G01*
G37*
D23*
X126975000Y31250010D03*
G04 #@! TD*
G04 #@! TO.C,C14*
G36*
G01*
X134362000Y30004000D02*
X134362000Y30954000D01*
G75*
G02*
X134612000Y31204000I250000J0D01*
G01*
X135112000Y31204000D01*
G75*
G02*
X135362000Y30954000I0J-250000D01*
G01*
X135362000Y30004000D01*
G75*
G02*
X135112000Y29754000I-250000J0D01*
G01*
X134612000Y29754000D01*
G75*
G02*
X134362000Y30004000I0J250000D01*
G01*
G37*
G36*
G01*
X136262000Y30004000D02*
X136262000Y30954000D01*
G75*
G02*
X136512000Y31204000I250000J0D01*
G01*
X137012000Y31204000D01*
G75*
G02*
X137262000Y30954000I0J-250000D01*
G01*
X137262000Y30004000D01*
G75*
G02*
X137012000Y29754000I-250000J0D01*
G01*
X136512000Y29754000D01*
G75*
G02*
X136262000Y30004000I0J250000D01*
G01*
G37*
G04 #@! TD*
D24*
G04 #@! TO.C,J4*
X17962000Y79125000D03*
G04 #@! TD*
G04 #@! TO.C,C3*
G36*
G01*
X141722001Y55132163D02*
X141722001Y54452163D01*
G75*
G02*
X141637001Y54367163I-85000J0D01*
G01*
X140957001Y54367163D01*
G75*
G02*
X140872001Y54452163I0J85000D01*
G01*
X140872001Y55132163D01*
G75*
G02*
X140957001Y55217163I85000J0D01*
G01*
X141637001Y55217163D01*
G75*
G02*
X141722001Y55132163I0J-85000D01*
G01*
G37*
G36*
G01*
X140141999Y55132163D02*
X140141999Y54452163D01*
G75*
G02*
X140056999Y54367163I-85000J0D01*
G01*
X139376999Y54367163D01*
G75*
G02*
X139291999Y54452163I0J85000D01*
G01*
X139291999Y55132163D01*
G75*
G02*
X139376999Y55217163I85000J0D01*
G01*
X140056999Y55217163D01*
G75*
G02*
X140141999Y55132163I0J-85000D01*
G01*
G37*
G04 #@! TD*
G04 #@! TO.C,C2*
G36*
G01*
X134856998Y34039000D02*
X134856998Y34719000D01*
G75*
G02*
X134941998Y34804000I85000J0D01*
G01*
X135621998Y34804000D01*
G75*
G02*
X135706998Y34719000I0J-85000D01*
G01*
X135706998Y34039000D01*
G75*
G02*
X135621998Y33954000I-85000J0D01*
G01*
X134941998Y33954000D01*
G75*
G02*
X134856998Y34039000I0J85000D01*
G01*
G37*
G36*
G01*
X136437000Y34039000D02*
X136437000Y34719000D01*
G75*
G02*
X136522000Y34804000I85000J0D01*
G01*
X137202000Y34804000D01*
G75*
G02*
X137287000Y34719000I0J-85000D01*
G01*
X137287000Y34039000D01*
G75*
G02*
X137202000Y33954000I-85000J0D01*
G01*
X136522000Y33954000D01*
G75*
G02*
X136437000Y34039000I0J85000D01*
G01*
G37*
G04 #@! TD*
D15*
G04 #@! TO.C,V63*
X86775000Y25575000D03*
G04 #@! TD*
G04 #@! TO.C,G1*
X149860000Y59640000D03*
X149860000Y62180000D03*
X149860000Y64720000D03*
X149860000Y67260000D03*
X149860000Y69800000D03*
X152400000Y59640000D03*
X152400000Y62180000D03*
X152400000Y64720000D03*
X152400000Y67260000D03*
X152400000Y69800000D03*
X154940000Y59640000D03*
X154940000Y62180000D03*
X154940000Y64720000D03*
X154940000Y67260000D03*
X154940000Y69800000D03*
G04 #@! TD*
G04 #@! TO.C,C12*
G36*
G01*
X134362000Y27904000D02*
X134362000Y28854000D01*
G75*
G02*
X134612000Y29104000I250000J0D01*
G01*
X135112000Y29104000D01*
G75*
G02*
X135362000Y28854000I0J-250000D01*
G01*
X135362000Y27904000D01*
G75*
G02*
X135112000Y27654000I-250000J0D01*
G01*
X134612000Y27654000D01*
G75*
G02*
X134362000Y27904000I0J250000D01*
G01*
G37*
G36*
G01*
X136262000Y27904000D02*
X136262000Y28854000D01*
G75*
G02*
X136512000Y29104000I250000J0D01*
G01*
X137012000Y29104000D01*
G75*
G02*
X137262000Y28854000I0J-250000D01*
G01*
X137262000Y27904000D01*
G75*
G02*
X137012000Y27654000I-250000J0D01*
G01*
X136512000Y27654000D01*
G75*
G02*
X136262000Y27904000I0J250000D01*
G01*
G37*
G04 #@! TD*
G04 #@! TO.C,J10*
G36*
G01*
X93339340Y103360660D02*
X93339340Y103360660D01*
G75*
G02*
X95036396Y103360660I848528J-848528D01*
G01*
X95460660Y102936396D01*
G75*
G02*
X95460660Y101239340I-848528J-848528D01*
G01*
X95460660Y101239340D01*
G75*
G02*
X93763604Y101239340I-848528J848528D01*
G01*
X93339340Y101663604D01*
G75*
G02*
X93339340Y103360660I848528J848528D01*
G01*
G37*
G36*
G01*
X95239340Y105560660D02*
X95239340Y105560660D01*
G75*
G02*
X96936396Y105560660I848528J-848528D01*
G01*
X97360660Y105136396D01*
G75*
G02*
X97360660Y103439340I-848528J-848528D01*
G01*
X97360660Y103439340D01*
G75*
G02*
X95663604Y103439340I-848528J848528D01*
G01*
X95239340Y103863604D01*
G75*
G02*
X95239340Y105560660I848528J848528D01*
G01*
G37*
G36*
G01*
X101439340Y105560660D02*
X101439340Y105560660D01*
G75*
G02*
X103136396Y105560660I848528J-848528D01*
G01*
X103560660Y105136396D01*
G75*
G02*
X103560660Y103439340I-848528J-848528D01*
G01*
X103560660Y103439340D01*
G75*
G02*
X101863604Y103439340I-848528J848528D01*
G01*
X101439340Y103863604D01*
G75*
G02*
X101439340Y105560660I848528J848528D01*
G01*
G37*
G36*
G01*
X98939340Y103360660D02*
X98939340Y103360660D01*
G75*
G02*
X100636396Y103360660I848528J-848528D01*
G01*
X101060660Y102936396D01*
G75*
G02*
X101060660Y101239340I-848528J-848528D01*
G01*
X101060660Y101239340D01*
G75*
G02*
X99363604Y101239340I-848528J848528D01*
G01*
X98939340Y101663604D01*
G75*
G02*
X98939340Y103360660I848528J848528D01*
G01*
G37*
G36*
G01*
X89639340Y105560660D02*
X89639340Y105560660D01*
G75*
G02*
X91336396Y105560660I848528J-848528D01*
G01*
X91760660Y105136396D01*
G75*
G02*
X91760660Y103439340I-848528J-848528D01*
G01*
X91760660Y103439340D01*
G75*
G02*
X90063604Y103439340I-848528J848528D01*
G01*
X89639340Y103863604D01*
G75*
G02*
X89639340Y105560660I848528J848528D01*
G01*
G37*
G04 #@! TD*
G04 #@! TO.C,VOUT2*
X102900000Y40325000D03*
G04 #@! TD*
G04 #@! TO.C,C7*
G36*
G01*
X135762000Y59904000D02*
X135762000Y60854000D01*
G75*
G02*
X136012000Y61104000I250000J0D01*
G01*
X136512000Y61104000D01*
G75*
G02*
X136762000Y60854000I0J-250000D01*
G01*
X136762000Y59904000D01*
G75*
G02*
X136512000Y59654000I-250000J0D01*
G01*
X136012000Y59654000D01*
G75*
G02*
X135762000Y59904000I0J250000D01*
G01*
G37*
G36*
G01*
X137662000Y59904000D02*
X137662000Y60854000D01*
G75*
G02*
X137912000Y61104000I250000J0D01*
G01*
X138412000Y61104000D01*
G75*
G02*
X138662000Y60854000I0J-250000D01*
G01*
X138662000Y59904000D01*
G75*
G02*
X138412000Y59654000I-250000J0D01*
G01*
X137912000Y59654000D01*
G75*
G02*
X137662000Y59904000I0J250000D01*
G01*
G37*
G04 #@! TD*
G04 #@! TO.C,C9*
G36*
G01*
X135762000Y55704000D02*
X135762000Y56654000D01*
G75*
G02*
X136012000Y56904000I250000J0D01*
G01*
X136512000Y56904000D01*
G75*
G02*
X136762000Y56654000I0J-250000D01*
G01*
X136762000Y55704000D01*
G75*
G02*
X136512000Y55454000I-250000J0D01*
G01*
X136012000Y55454000D01*
G75*
G02*
X135762000Y55704000I0J250000D01*
G01*
G37*
G36*
G01*
X137662000Y55704000D02*
X137662000Y56654000D01*
G75*
G02*
X137912000Y56904000I250000J0D01*
G01*
X138412000Y56904000D01*
G75*
G02*
X138662000Y56654000I0J-250000D01*
G01*
X138662000Y55704000D01*
G75*
G02*
X138412000Y55454000I-250000J0D01*
G01*
X137912000Y55454000D01*
G75*
G02*
X137662000Y55704000I0J250000D01*
G01*
G37*
G04 #@! TD*
G04 #@! TO.C,V46*
X78875000Y25575000D03*
G04 #@! TD*
G04 #@! TO.C,R20*
G36*
G01*
X10212000Y83790000D02*
X10212000Y83010000D01*
G75*
G02*
X10142000Y82940000I-70000J0D01*
G01*
X9582000Y82940000D01*
G75*
G02*
X9512000Y83010000I0J70000D01*
G01*
X9512000Y83790000D01*
G75*
G02*
X9582000Y83860000I70000J0D01*
G01*
X10142000Y83860000D01*
G75*
G02*
X10212000Y83790000I0J-70000D01*
G01*
G37*
G36*
G01*
X8612000Y83790000D02*
X8612000Y83010000D01*
G75*
G02*
X8542000Y82940000I-70000J0D01*
G01*
X7982000Y82940000D01*
G75*
G02*
X7912000Y83010000I0J70000D01*
G01*
X7912000Y83790000D01*
G75*
G02*
X7982000Y83860000I70000J0D01*
G01*
X8542000Y83860000D01*
G75*
G02*
X8612000Y83790000I0J-70000D01*
G01*
G37*
G04 #@! TD*
G04 #@! TO.C,V13*
X66500000Y25625000D03*
G04 #@! TD*
G04 #@! TO.C,V45*
X81575000Y25575000D03*
G04 #@! TD*
D31*
G04 #@! TO.C,J7*
X74800000Y99500000D03*
D32*
X72260000Y99500000D03*
X69720000Y99500000D03*
X67180000Y99500000D03*
G04 #@! TD*
D18*
G04 #@! TO.C,M2*
X88724232Y98550019D03*
X126087498Y98550019D03*
X115187499Y98550019D03*
X100987500Y98550019D03*
D34*
X127107496Y94825008D03*
X127107501Y96725009D03*
D18*
X90112505Y94750007D03*
G04 #@! TD*
D15*
G04 #@! TO.C,V12*
X69300000Y25625000D03*
G04 #@! TD*
G04 #@! TO.C,R17*
G36*
G01*
X10212000Y93240000D02*
X10212000Y92460000D01*
G75*
G02*
X10142000Y92390000I-70000J0D01*
G01*
X9582000Y92390000D01*
G75*
G02*
X9512000Y92460000I0J70000D01*
G01*
X9512000Y93240000D01*
G75*
G02*
X9582000Y93310000I70000J0D01*
G01*
X10142000Y93310000D01*
G75*
G02*
X10212000Y93240000I0J-70000D01*
G01*
G37*
G36*
G01*
X8612000Y93240000D02*
X8612000Y92460000D01*
G75*
G02*
X8542000Y92390000I-70000J0D01*
G01*
X7982000Y92390000D01*
G75*
G02*
X7912000Y92460000I0J70000D01*
G01*
X7912000Y93240000D01*
G75*
G02*
X7982000Y93310000I70000J0D01*
G01*
X8542000Y93310000D01*
G75*
G02*
X8612000Y93240000I0J-70000D01*
G01*
G37*
G04 #@! TD*
D23*
G04 #@! TO.C,R3*
X41800000Y26735000D03*
G36*
G01*
X42425000Y26554999D02*
X41175000Y26554999D01*
G75*
G02*
X41075000Y26654999I0J100000D01*
G01*
X41075000Y27454999D01*
G75*
G02*
X41175000Y27554999I100000J0D01*
G01*
X42425000Y27554999D01*
G75*
G02*
X42525000Y27454999I0J-100000D01*
G01*
X42525000Y26654999D01*
G75*
G02*
X42425000Y26554999I-100000J0D01*
G01*
G37*
D22*
X41800000Y26100000D03*
X41800000Y29910000D03*
D23*
X41800000Y29275000D03*
G36*
G01*
X42425000Y28455021D02*
X41175000Y28455021D01*
G75*
G02*
X41075000Y28555021I0J100000D01*
G01*
X41075000Y29355021D01*
G75*
G02*
X41175000Y29455021I100000J0D01*
G01*
X42425000Y29455021D01*
G75*
G02*
X42525000Y29355021I0J-100000D01*
G01*
X42525000Y28555021D01*
G75*
G02*
X42425000Y28455021I-100000J0D01*
G01*
G37*
G04 #@! TD*
G04 #@! TO.C,S2*
G36*
G01*
X72545000Y101399999D02*
X70705000Y101399999D01*
G75*
G02*
X70625000Y101479999I0J80000D01*
G01*
X70625000Y102119999D01*
G75*
G02*
X70705000Y102199999I80000J0D01*
G01*
X72545000Y102199999D01*
G75*
G02*
X72625000Y102119999I0J-80000D01*
G01*
X72625000Y101479999D01*
G75*
G02*
X72545000Y101399999I-80000J0D01*
G01*
G37*
G36*
G01*
X72545000Y105600000D02*
X70705000Y105600000D01*
G75*
G02*
X70625000Y105680000I0J80000D01*
G01*
X70625000Y106320000D01*
G75*
G02*
X70705000Y106400000I80000J0D01*
G01*
X72545000Y106400000D01*
G75*
G02*
X72625000Y106320000I0J-80000D01*
G01*
X72625000Y105680000D01*
G75*
G02*
X72545000Y105600000I-80000J0D01*
G01*
G37*
G04 #@! TD*
D15*
G04 #@! TO.C,V68*
X85050000Y30325000D03*
G04 #@! TD*
G04 #@! TO.C,D7*
G36*
G01*
X14312000Y78505000D02*
X14312000Y79745000D01*
G75*
G02*
X14442000Y79875000I130000J0D01*
G01*
X15482000Y79875000D01*
G75*
G02*
X15612000Y79745000I0J-130000D01*
G01*
X15612000Y78505000D01*
G75*
G02*
X15482000Y78375000I-130000J0D01*
G01*
X14442000Y78375000D01*
G75*
G02*
X14312000Y78505000I0J130000D01*
G01*
G37*
G36*
G01*
X12411979Y78505000D02*
X12411979Y79745000D01*
G75*
G02*
X12541979Y79875000I130000J0D01*
G01*
X13581979Y79875000D01*
G75*
G02*
X13711979Y79745000I0J-130000D01*
G01*
X13711979Y78505000D01*
G75*
G02*
X13581979Y78375000I-130000J0D01*
G01*
X12541979Y78375000D01*
G75*
G02*
X12411979Y78505000I0J130000D01*
G01*
G37*
G04 #@! TD*
G04 #@! TO.C,C13*
G36*
G01*
X134362000Y25804000D02*
X134362000Y26754000D01*
G75*
G02*
X134612000Y27004000I250000J0D01*
G01*
X135112000Y27004000D01*
G75*
G02*
X135362000Y26754000I0J-250000D01*
G01*
X135362000Y25804000D01*
G75*
G02*
X135112000Y25554000I-250000J0D01*
G01*
X134612000Y25554000D01*
G75*
G02*
X134362000Y25804000I0J250000D01*
G01*
G37*
G36*
G01*
X136262000Y25804000D02*
X136262000Y26754000D01*
G75*
G02*
X136512000Y27004000I250000J0D01*
G01*
X137012000Y27004000D01*
G75*
G02*
X137262000Y26754000I0J-250000D01*
G01*
X137262000Y25804000D01*
G75*
G02*
X137012000Y25554000I-250000J0D01*
G01*
X136512000Y25554000D01*
G75*
G02*
X136262000Y25804000I0J250000D01*
G01*
G37*
G04 #@! TD*
D24*
G04 #@! TO.C,J3*
X17962000Y85125000D03*
G04 #@! TD*
G04 #@! TO.C,R1*
G36*
G01*
X140257000Y30702163D02*
X140257000Y31482163D01*
G75*
G02*
X140327000Y31552163I70000J0D01*
G01*
X140887000Y31552163D01*
G75*
G02*
X140957000Y31482163I0J-70000D01*
G01*
X140957000Y30702163D01*
G75*
G02*
X140887000Y30632163I-70000J0D01*
G01*
X140327000Y30632163D01*
G75*
G02*
X140257000Y30702163I0J70000D01*
G01*
G37*
G36*
G01*
X141857000Y30702163D02*
X141857000Y31482163D01*
G75*
G02*
X141927000Y31552163I70000J0D01*
G01*
X142487000Y31552163D01*
G75*
G02*
X142557000Y31482163I0J-70000D01*
G01*
X142557000Y30702163D01*
G75*
G02*
X142487000Y30632163I-70000J0D01*
G01*
X141927000Y30632163D01*
G75*
G02*
X141857000Y30702163I0J70000D01*
G01*
G37*
G04 #@! TD*
D15*
G04 #@! TO.C,V48*
X75300000Y25600000D03*
G04 #@! TD*
G04 #@! TO.C,D2*
G36*
G01*
X138167000Y32792163D02*
X138647000Y32792163D01*
G75*
G02*
X138707000Y32732163I0J-60000D01*
G01*
X138707000Y32252163D01*
G75*
G02*
X138647000Y32192163I-60000J0D01*
G01*
X138167000Y32192163D01*
G75*
G02*
X138107000Y32252163I0J60000D01*
G01*
X138107000Y32732163D01*
G75*
G02*
X138167000Y32792163I60000J0D01*
G01*
G37*
G36*
G01*
X140367000Y32792163D02*
X140847000Y32792163D01*
G75*
G02*
X140907000Y32732163I0J-60000D01*
G01*
X140907000Y32252163D01*
G75*
G02*
X140847000Y32192163I-60000J0D01*
G01*
X140367000Y32192163D01*
G75*
G02*
X140307000Y32252163I0J60000D01*
G01*
X140307000Y32732163D01*
G75*
G02*
X140367000Y32792163I60000J0D01*
G01*
G37*
G04 #@! TD*
G04 #@! TO.C,D6*
G36*
G01*
X14312000Y84505000D02*
X14312000Y85745000D01*
G75*
G02*
X14442000Y85875000I130000J0D01*
G01*
X15482000Y85875000D01*
G75*
G02*
X15612000Y85745000I0J-130000D01*
G01*
X15612000Y84505000D01*
G75*
G02*
X15482000Y84375000I-130000J0D01*
G01*
X14442000Y84375000D01*
G75*
G02*
X14312000Y84505000I0J130000D01*
G01*
G37*
G36*
G01*
X12411979Y84505000D02*
X12411979Y85745000D01*
G75*
G02*
X12541979Y85875000I130000J0D01*
G01*
X13581979Y85875000D01*
G75*
G02*
X13711979Y85745000I0J-130000D01*
G01*
X13711979Y84505000D01*
G75*
G02*
X13581979Y84375000I-130000J0D01*
G01*
X12541979Y84375000D01*
G75*
G02*
X12411979Y84505000I0J130000D01*
G01*
G37*
G04 #@! TD*
G04 #@! TO.C,V80*
X35625000Y32650000D03*
G04 #@! TD*
G04 #@! TO.C,C17*
G36*
G01*
X87215001Y107040000D02*
X87215001Y106360000D01*
G75*
G02*
X87130001Y106275000I-85000J0D01*
G01*
X86450001Y106275000D01*
G75*
G02*
X86365001Y106360000I0J85000D01*
G01*
X86365001Y107040000D01*
G75*
G02*
X86450001Y107125000I85000J0D01*
G01*
X87130001Y107125000D01*
G75*
G02*
X87215001Y107040000I0J-85000D01*
G01*
G37*
G36*
G01*
X85634999Y107040000D02*
X85634999Y106360000D01*
G75*
G02*
X85549999Y106275000I-85000J0D01*
G01*
X84869999Y106275000D01*
G75*
G02*
X84784999Y106360000I0J85000D01*
G01*
X84784999Y107040000D01*
G75*
G02*
X84869999Y107125000I85000J0D01*
G01*
X85549999Y107125000D01*
G75*
G02*
X85634999Y107040000I0J-85000D01*
G01*
G37*
G04 #@! TD*
G04 #@! TO.C,V41*
X43200000Y32650000D03*
G04 #@! TD*
G04 #@! TO.C,D1*
G36*
G01*
X139507000Y31332163D02*
X139507000Y30852163D01*
G75*
G02*
X139447000Y30792163I-60000J0D01*
G01*
X138967000Y30792163D01*
G75*
G02*
X138907000Y30852163I0J60000D01*
G01*
X138907000Y31332163D01*
G75*
G02*
X138967000Y31392163I60000J0D01*
G01*
X139447000Y31392163D01*
G75*
G02*
X139507000Y31332163I0J-60000D01*
G01*
G37*
G36*
G01*
X139507000Y29132163D02*
X139507000Y28652163D01*
G75*
G02*
X139447000Y28592163I-60000J0D01*
G01*
X138967000Y28592163D01*
G75*
G02*
X138907000Y28652163I0J60000D01*
G01*
X138907000Y29132163D01*
G75*
G02*
X138967000Y29192163I60000J0D01*
G01*
X139447000Y29192163D01*
G75*
G02*
X139507000Y29132163I0J-60000D01*
G01*
G37*
G04 #@! TD*
G04 #@! TO.C,V64*
X84225000Y25575000D03*
G04 #@! TD*
G04 #@! TO.C,C4*
G36*
G01*
X141867000Y34517163D02*
X142547000Y34517163D01*
G75*
G02*
X142632000Y34432163I0J-85000D01*
G01*
X142632000Y33752163D01*
G75*
G02*
X142547000Y33667163I-85000J0D01*
G01*
X141867000Y33667163D01*
G75*
G02*
X141782000Y33752163I0J85000D01*
G01*
X141782000Y34432163D01*
G75*
G02*
X141867000Y34517163I85000J0D01*
G01*
G37*
G36*
G01*
X141867000Y32937161D02*
X142547000Y32937161D01*
G75*
G02*
X142632000Y32852161I0J-85000D01*
G01*
X142632000Y32172161D01*
G75*
G02*
X142547000Y32087161I-85000J0D01*
G01*
X141867000Y32087161D01*
G75*
G02*
X141782000Y32172161I0J85000D01*
G01*
X141782000Y32852161D01*
G75*
G02*
X141867000Y32937161I85000J0D01*
G01*
G37*
G04 #@! TD*
G04 #@! TO.C,C1*
G36*
G01*
X136156998Y52039000D02*
X136156998Y52719000D01*
G75*
G02*
X136241998Y52804000I85000J0D01*
G01*
X136921998Y52804000D01*
G75*
G02*
X137006998Y52719000I0J-85000D01*
G01*
X137006998Y52039000D01*
G75*
G02*
X136921998Y51954000I-85000J0D01*
G01*
X136241998Y51954000D01*
G75*
G02*
X136156998Y52039000I0J85000D01*
G01*
G37*
G36*
G01*
X137737000Y52039000D02*
X137737000Y52719000D01*
G75*
G02*
X137822000Y52804000I85000J0D01*
G01*
X138502000Y52804000D01*
G75*
G02*
X138587000Y52719000I0J-85000D01*
G01*
X138587000Y52039000D01*
G75*
G02*
X138502000Y51954000I-85000J0D01*
G01*
X137822000Y51954000D01*
G75*
G02*
X137737000Y52039000I0J85000D01*
G01*
G37*
G04 #@! TD*
D24*
G04 #@! TO.C,J5*
X17962000Y73125000D03*
G04 #@! TD*
G04 #@! TO.C,R7*
G36*
G01*
X55710000Y41600000D02*
X56490000Y41600000D01*
G75*
G02*
X56560000Y41530000I0J-70000D01*
G01*
X56560000Y40970000D01*
G75*
G02*
X56490000Y40900000I-70000J0D01*
G01*
X55710000Y40900000D01*
G75*
G02*
X55640000Y40970000I0J70000D01*
G01*
X55640000Y41530000D01*
G75*
G02*
X55710000Y41600000I70000J0D01*
G01*
G37*
G36*
G01*
X55710000Y40000000D02*
X56490000Y40000000D01*
G75*
G02*
X56560000Y39930000I0J-70000D01*
G01*
X56560000Y39370000D01*
G75*
G02*
X56490000Y39300000I-70000J0D01*
G01*
X55710000Y39300000D01*
G75*
G02*
X55640000Y39370000I0J70000D01*
G01*
X55640000Y39930000D01*
G75*
G02*
X55710000Y40000000I70000J0D01*
G01*
G37*
G04 #@! TD*
D34*
G04 #@! TO.C,M8*
X93090985Y53412113D03*
D35*
X77565985Y49362103D03*
D18*
X91915984Y57912112D03*
X83690984Y56587108D03*
X83708489Y51354614D03*
X85590985Y50862108D03*
X78240992Y49737122D03*
G04 #@! TD*
D36*
G04 #@! TO.C,J1*
X81450000Y102300000D03*
D37*
X82250000Y104050000D03*
X83050000Y102300000D03*
X83850000Y104050000D03*
X84650000Y102300000D03*
D38*
X86700000Y103175000D03*
X79400000Y103175000D03*
G04 #@! TD*
D15*
G04 #@! TO.C,V56*
X56000000Y32600000D03*
G04 #@! TD*
D22*
G04 #@! TO.C,R11*
X11000000Y31880000D03*
D23*
X11000000Y31245000D03*
G36*
G01*
X10375000Y31425001D02*
X11625000Y31425001D01*
G75*
G02*
X11725000Y31325001I0J-100000D01*
G01*
X11725000Y30525001D01*
G75*
G02*
X11625000Y30425001I-100000J0D01*
G01*
X10375000Y30425001D01*
G75*
G02*
X10275000Y30525001I0J100000D01*
G01*
X10275000Y31325001D01*
G75*
G02*
X10375000Y31425001I100000J0D01*
G01*
G37*
D22*
X11000000Y28070000D03*
G36*
G01*
X10375000Y29524979D02*
X11625000Y29524979D01*
G75*
G02*
X11725000Y29424979I0J-100000D01*
G01*
X11725000Y28624979D01*
G75*
G02*
X11625000Y28524979I-100000J0D01*
G01*
X10375000Y28524979D01*
G75*
G02*
X10275000Y28624979I0J100000D01*
G01*
X10275000Y29424979D01*
G75*
G02*
X10375000Y29524979I100000J0D01*
G01*
G37*
D23*
X11000000Y28705000D03*
G04 #@! TD*
D15*
G04 #@! TO.C,V66*
X82375000Y30350000D03*
G04 #@! TD*
D39*
X151076000Y112125435D02*
X151076000Y112094800D01*
X151094907Y112036609D01*
X151097079Y112035031D01*
X151164731Y111744891D01*
X151165518Y111741752D01*
X151168744Y111729711D01*
X151169634Y111726593D01*
X151340595Y111163009D01*
X151341586Y111159924D01*
X151345593Y111148120D01*
X151346684Y111145070D01*
X151554139Y110593874D01*
X151555327Y110590868D01*
X151560097Y110579350D01*
X151561388Y110576371D01*
X151804449Y110039924D01*
X151805837Y110036991D01*
X151811351Y110025811D01*
X151812829Y110022934D01*
X152090455Y109503532D01*
X152092028Y109500700D01*
X152098261Y109489904D01*
X152099927Y109487125D01*
X152410929Y108986993D01*
X152412686Y108984269D01*
X152419612Y108973904D01*
X152421454Y108971242D01*
X152764501Y108492521D01*
X152766432Y108489918D01*
X152774021Y108480028D01*
X152776034Y108477491D01*
X153149656Y108022232D01*
X153151752Y108019762D01*
X153159971Y108010390D01*
X153162146Y108007989D01*
X153564743Y107578140D01*
X153566996Y107575812D01*
X153575811Y107566997D01*
X153578139Y107564744D01*
X154007988Y107162147D01*
X154010389Y107159972D01*
X154019761Y107151753D01*
X154022231Y107149657D01*
X154477490Y106776035D01*
X154480027Y106774022D01*
X154489917Y106766433D01*
X154492520Y106764502D01*
X154971241Y106421455D01*
X154973903Y106419613D01*
X154984268Y106412687D01*
X154986992Y106410930D01*
X155487124Y106099928D01*
X155489903Y106098262D01*
X155500699Y106092029D01*
X155503531Y106090456D01*
X156022933Y105812830D01*
X156025810Y105811352D01*
X156036990Y105805838D01*
X156039923Y105804450D01*
X156576370Y105561389D01*
X156579349Y105560098D01*
X156590867Y105555328D01*
X156593873Y105554140D01*
X157145069Y105346685D01*
X157148119Y105345594D01*
X157159923Y105341587D01*
X157163008Y105340596D01*
X157726592Y105169635D01*
X157729710Y105168745D01*
X157741751Y105165519D01*
X157744890Y105164732D01*
X158166215Y105066492D01*
X158143860Y99679132D01*
X158134183Y99631511D01*
X158112576Y99599464D01*
X158098974Y99590456D01*
X158098974Y99677145D01*
X158080067Y99735335D01*
X158030567Y99771299D01*
X158016701Y99774722D01*
X157187903Y99916802D01*
X156268891Y100140345D01*
X155449990Y100388497D01*
X154805546Y100636360D01*
X154184302Y100909707D01*
X153463651Y101257608D01*
X152670508Y101703751D01*
X151851286Y102274724D01*
X151106581Y102845665D01*
X150486375Y103416254D01*
X149790995Y104111634D01*
X149171117Y104855487D01*
X148724203Y105476202D01*
X148276972Y106147048D01*
X147904716Y106792292D01*
X147532485Y107511938D01*
X147184781Y108331527D01*
X146812393Y109324562D01*
X146564659Y110290724D01*
X146415677Y111134953D01*
X146316091Y111881849D01*
X146304526Y111985933D01*
X146279309Y112041680D01*
X146226140Y112071957D01*
X146206132Y112074000D01*
X146093519Y112074000D01*
X146097675Y112122370D01*
X146115468Y112156682D01*
X146145038Y112181575D01*
X146188712Y112195420D01*
X146195568Y112195800D01*
X151059593Y112195800D01*
X151076000Y112125435D01*
G36*
X151076000Y112125435D02*
G01*
X151076000Y112094800D01*
X151094907Y112036609D01*
X151097079Y112035031D01*
X151164731Y111744891D01*
X151165518Y111741752D01*
X151168744Y111729711D01*
X151169634Y111726593D01*
X151340595Y111163009D01*
X151341586Y111159924D01*
X151345593Y111148120D01*
X151346684Y111145070D01*
X151554139Y110593874D01*
X151555327Y110590868D01*
X151560097Y110579350D01*
X151561388Y110576371D01*
X151804449Y110039924D01*
X151805837Y110036991D01*
X151811351Y110025811D01*
X151812829Y110022934D01*
X152090455Y109503532D01*
X152092028Y109500700D01*
X152098261Y109489904D01*
X152099927Y109487125D01*
X152410929Y108986993D01*
X152412686Y108984269D01*
X152419612Y108973904D01*
X152421454Y108971242D01*
X152764501Y108492521D01*
X152766432Y108489918D01*
X152774021Y108480028D01*
X152776034Y108477491D01*
X153149656Y108022232D01*
X153151752Y108019762D01*
X153159971Y108010390D01*
X153162146Y108007989D01*
X153564743Y107578140D01*
X153566996Y107575812D01*
X153575811Y107566997D01*
X153578139Y107564744D01*
X154007988Y107162147D01*
X154010389Y107159972D01*
X154019761Y107151753D01*
X154022231Y107149657D01*
X154477490Y106776035D01*
X154480027Y106774022D01*
X154489917Y106766433D01*
X154492520Y106764502D01*
X154971241Y106421455D01*
X154973903Y106419613D01*
X154984268Y106412687D01*
X154986992Y106410930D01*
X155487124Y106099928D01*
X155489903Y106098262D01*
X155500699Y106092029D01*
X155503531Y106090456D01*
X156022933Y105812830D01*
X156025810Y105811352D01*
X156036990Y105805838D01*
X156039923Y105804450D01*
X156576370Y105561389D01*
X156579349Y105560098D01*
X156590867Y105555328D01*
X156593873Y105554140D01*
X157145069Y105346685D01*
X157148119Y105345594D01*
X157159923Y105341587D01*
X157163008Y105340596D01*
X157726592Y105169635D01*
X157729710Y105168745D01*
X157741751Y105165519D01*
X157744890Y105164732D01*
X158166215Y105066492D01*
X158143860Y99679132D01*
X158134183Y99631511D01*
X158112576Y99599464D01*
X158098974Y99590456D01*
X158098974Y99677145D01*
X158080067Y99735335D01*
X158030567Y99771299D01*
X158016701Y99774722D01*
X157187903Y99916802D01*
X156268891Y100140345D01*
X155449990Y100388497D01*
X154805546Y100636360D01*
X154184302Y100909707D01*
X153463651Y101257608D01*
X152670508Y101703751D01*
X151851286Y102274724D01*
X151106581Y102845665D01*
X150486375Y103416254D01*
X149790995Y104111634D01*
X149171117Y104855487D01*
X148724203Y105476202D01*
X148276972Y106147048D01*
X147904716Y106792292D01*
X147532485Y107511938D01*
X147184781Y108331527D01*
X146812393Y109324562D01*
X146564659Y110290724D01*
X146415677Y111134953D01*
X146316091Y111881849D01*
X146304526Y111985933D01*
X146279309Y112041680D01*
X146226140Y112071957D01*
X146206132Y112074000D01*
X146093519Y112074000D01*
X146097675Y112122370D01*
X146115468Y112156682D01*
X146145038Y112181575D01*
X146188712Y112195420D01*
X146195568Y112195800D01*
X151059593Y112195800D01*
X151076000Y112125435D01*
G37*
X158318448Y105030996D02*
X158321607Y105030314D01*
X158333833Y105027881D01*
X158337028Y105027299D01*
X158918105Y104931363D01*
X158921312Y104930888D01*
X158933672Y104929261D01*
X158936888Y104928891D01*
X159522996Y104871165D01*
X159526227Y104870900D01*
X159538666Y104870085D01*
X159541900Y104869926D01*
X160130528Y104850656D01*
X160132147Y104850616D01*
X160138380Y104850514D01*
X160140000Y104850501D01*
X162465871Y104850501D01*
X163701000Y103615371D01*
X163701000Y80439501D01*
X161700000Y80439501D01*
X161695907Y80439416D01*
X161680176Y80438765D01*
X161676094Y80438512D01*
X161429202Y80418054D01*
X161421084Y80417042D01*
X161390050Y80411864D01*
X161382040Y80410185D01*
X161141883Y80349369D01*
X161134041Y80347034D01*
X161104283Y80336818D01*
X161096660Y80333844D01*
X160869788Y80234329D01*
X160862437Y80230735D01*
X160834766Y80215760D01*
X160827737Y80211571D01*
X160620339Y80076071D01*
X160613679Y80071316D01*
X160588851Y80051991D01*
X160582608Y80046704D01*
X160400341Y79878915D01*
X160394556Y79873130D01*
X160373247Y79849983D01*
X160367958Y79843738D01*
X160215794Y79648238D01*
X160211040Y79641579D01*
X160193831Y79615239D01*
X160189642Y79608210D01*
X160071732Y79390331D01*
X160068138Y79382978D01*
X160055500Y79354165D01*
X160052526Y79346544D01*
X159972086Y79112229D01*
X159969752Y79104389D01*
X159962028Y79073890D01*
X159960348Y79065880D01*
X159919571Y78821521D01*
X159918559Y78813401D01*
X159915961Y78782045D01*
X159915623Y78773870D01*
X159915623Y78526132D01*
X159915961Y78517957D01*
X159918559Y78486601D01*
X159919571Y78478481D01*
X159960348Y78234122D01*
X159962028Y78226112D01*
X159969752Y78195613D01*
X159972086Y78187773D01*
X160052526Y77953458D01*
X160055500Y77945837D01*
X160068138Y77917024D01*
X160071732Y77909671D01*
X160189642Y77691792D01*
X160193831Y77684763D01*
X160211040Y77658423D01*
X160215794Y77651764D01*
X160367958Y77456264D01*
X160373247Y77450019D01*
X160394556Y77426872D01*
X160400341Y77421087D01*
X160582608Y77253298D01*
X160588851Y77248011D01*
X160613679Y77228686D01*
X160620339Y77223931D01*
X160827737Y77088431D01*
X160834766Y77084242D01*
X160862437Y77069267D01*
X160869788Y77065673D01*
X161096660Y76966158D01*
X161104283Y76963184D01*
X161134041Y76952968D01*
X161141883Y76950633D01*
X161382040Y76889817D01*
X161390050Y76888138D01*
X161421084Y76882960D01*
X161429202Y76881948D01*
X161676094Y76861490D01*
X161680176Y76861237D01*
X161695907Y76860586D01*
X161700000Y76860501D01*
X163701000Y76860501D01*
X163701000Y14214430D01*
X162993660Y13467289D01*
X162465871Y12939500D01*
X158098581Y12939500D01*
X158098974Y99677145D01*
X158080067Y99735335D01*
X158030567Y99771299D01*
X158016702Y99774722D01*
X157898975Y99794904D01*
X157898999Y105128798D01*
X158318448Y105030996D01*
G36*
X158318448Y105030996D02*
G01*
X158321607Y105030314D01*
X158333833Y105027881D01*
X158337028Y105027299D01*
X158918105Y104931363D01*
X158921312Y104930888D01*
X158933672Y104929261D01*
X158936888Y104928891D01*
X159522996Y104871165D01*
X159526227Y104870900D01*
X159538666Y104870085D01*
X159541900Y104869926D01*
X160130528Y104850656D01*
X160132147Y104850616D01*
X160138380Y104850514D01*
X160140000Y104850501D01*
X162465871Y104850501D01*
X163701000Y103615371D01*
X163701000Y80439501D01*
X161700000Y80439501D01*
X161695907Y80439416D01*
X161680176Y80438765D01*
X161676094Y80438512D01*
X161429202Y80418054D01*
X161421084Y80417042D01*
X161390050Y80411864D01*
X161382040Y80410185D01*
X161141883Y80349369D01*
X161134041Y80347034D01*
X161104283Y80336818D01*
X161096660Y80333844D01*
X160869788Y80234329D01*
X160862437Y80230735D01*
X160834766Y80215760D01*
X160827737Y80211571D01*
X160620339Y80076071D01*
X160613679Y80071316D01*
X160588851Y80051991D01*
X160582608Y80046704D01*
X160400341Y79878915D01*
X160394556Y79873130D01*
X160373247Y79849983D01*
X160367958Y79843738D01*
X160215794Y79648238D01*
X160211040Y79641579D01*
X160193831Y79615239D01*
X160189642Y79608210D01*
X160071732Y79390331D01*
X160068138Y79382978D01*
X160055500Y79354165D01*
X160052526Y79346544D01*
X159972086Y79112229D01*
X159969752Y79104389D01*
X159962028Y79073890D01*
X159960348Y79065880D01*
X159919571Y78821521D01*
X159918559Y78813401D01*
X159915961Y78782045D01*
X159915623Y78773870D01*
X159915623Y78526132D01*
X159915961Y78517957D01*
X159918559Y78486601D01*
X159919571Y78478481D01*
X159960348Y78234122D01*
X159962028Y78226112D01*
X159969752Y78195613D01*
X159972086Y78187773D01*
X160052526Y77953458D01*
X160055500Y77945837D01*
X160068138Y77917024D01*
X160071732Y77909671D01*
X160189642Y77691792D01*
X160193831Y77684763D01*
X160211040Y77658423D01*
X160215794Y77651764D01*
X160367958Y77456264D01*
X160373247Y77450019D01*
X160394556Y77426872D01*
X160400341Y77421087D01*
X160582608Y77253298D01*
X160588851Y77248011D01*
X160613679Y77228686D01*
X160620339Y77223931D01*
X160827737Y77088431D01*
X160834766Y77084242D01*
X160862437Y77069267D01*
X160869788Y77065673D01*
X161096660Y76966158D01*
X161104283Y76963184D01*
X161134041Y76952968D01*
X161141883Y76950633D01*
X161382040Y76889817D01*
X161390050Y76888138D01*
X161421084Y76882960D01*
X161429202Y76881948D01*
X161676094Y76861490D01*
X161680176Y76861237D01*
X161695907Y76860586D01*
X161700000Y76860501D01*
X163701000Y76860501D01*
X163701000Y14214430D01*
X162993660Y13467289D01*
X162465871Y12939500D01*
X158098581Y12939500D01*
X158098974Y99677145D01*
X158080067Y99735335D01*
X158030567Y99771299D01*
X158016702Y99774722D01*
X157898975Y99794904D01*
X157898999Y105128798D01*
X158318448Y105030996D01*
G37*
X18190668Y112176039D02*
X18238289Y112166362D01*
X18270336Y112144755D01*
X18291677Y112112529D01*
X18299174Y112074000D01*
X18182857Y112074000D01*
X18124666Y112055093D01*
X18088702Y112005593D01*
X18085280Y111991727D01*
X17952998Y111220082D01*
X17729455Y110301070D01*
X17481303Y109482169D01*
X17233440Y108837725D01*
X16960093Y108216481D01*
X16612192Y107495830D01*
X16166049Y106702687D01*
X15595076Y105883465D01*
X15024135Y105138760D01*
X14453546Y104518554D01*
X13758166Y103823174D01*
X13014313Y103203296D01*
X12393598Y102756381D01*
X11722752Y102309151D01*
X11077508Y101936895D01*
X10357862Y101564664D01*
X9538273Y101216960D01*
X8545238Y100844572D01*
X7579076Y100596838D01*
X6734847Y100447856D01*
X5987978Y100348274D01*
X5987703Y100348243D01*
X5987684Y100348234D01*
X5986916Y100348132D01*
X5986947Y100347901D01*
X5931960Y100323016D01*
X5901692Y100269842D01*
X5899652Y100249877D01*
X5899621Y100137225D01*
X5795848Y100125694D01*
X5747430Y100129854D01*
X5713118Y100147647D01*
X5688225Y100177217D01*
X5674380Y100220891D01*
X5674000Y100227747D01*
X5674000Y105029439D01*
X5678393Y105030313D01*
X5681552Y105030995D01*
X6255110Y105164731D01*
X6258249Y105165518D01*
X6270290Y105168744D01*
X6273408Y105169634D01*
X6836992Y105340595D01*
X6840077Y105341586D01*
X6851881Y105345593D01*
X6854931Y105346684D01*
X7406127Y105554139D01*
X7409133Y105555327D01*
X7420651Y105560097D01*
X7423630Y105561388D01*
X7960077Y105804449D01*
X7963010Y105805837D01*
X7974190Y105811351D01*
X7977067Y105812829D01*
X8496469Y106090455D01*
X8499301Y106092028D01*
X8510097Y106098261D01*
X8512876Y106099927D01*
X9013008Y106410929D01*
X9015732Y106412686D01*
X9026097Y106419612D01*
X9028759Y106421454D01*
X9507480Y106764501D01*
X9510083Y106766432D01*
X9519973Y106774021D01*
X9522510Y106776034D01*
X9977769Y107149656D01*
X9980239Y107151752D01*
X9989611Y107159971D01*
X9992012Y107162146D01*
X10421861Y107564743D01*
X10424189Y107566996D01*
X10433004Y107575811D01*
X10435257Y107578139D01*
X10837854Y108007988D01*
X10840029Y108010389D01*
X10848248Y108019761D01*
X10850344Y108022231D01*
X11223966Y108477490D01*
X11225979Y108480027D01*
X11233568Y108489917D01*
X11235499Y108492520D01*
X11578546Y108971241D01*
X11580388Y108973903D01*
X11587314Y108984268D01*
X11589071Y108986992D01*
X11900073Y109487124D01*
X11901739Y109489903D01*
X11907972Y109500699D01*
X11909545Y109503531D01*
X12187171Y110022933D01*
X12188649Y110025810D01*
X12194163Y110036990D01*
X12195551Y110039923D01*
X12438612Y110576370D01*
X12439903Y110579349D01*
X12444673Y110590867D01*
X12445861Y110593873D01*
X12653316Y111145069D01*
X12654407Y111148119D01*
X12658414Y111159923D01*
X12659405Y111163008D01*
X12830366Y111726592D01*
X12831256Y111729710D01*
X12834482Y111741751D01*
X12835269Y111744890D01*
X12940879Y112197823D01*
X18190668Y112176039D01*
G36*
X18190668Y112176039D02*
G01*
X18238289Y112166362D01*
X18270336Y112144755D01*
X18291677Y112112529D01*
X18299174Y112074000D01*
X18182857Y112074000D01*
X18124666Y112055093D01*
X18088702Y112005593D01*
X18085280Y111991727D01*
X17952998Y111220082D01*
X17729455Y110301070D01*
X17481303Y109482169D01*
X17233440Y108837725D01*
X16960093Y108216481D01*
X16612192Y107495830D01*
X16166049Y106702687D01*
X15595076Y105883465D01*
X15024135Y105138760D01*
X14453546Y104518554D01*
X13758166Y103823174D01*
X13014313Y103203296D01*
X12393598Y102756381D01*
X11722752Y102309151D01*
X11077508Y101936895D01*
X10357862Y101564664D01*
X9538273Y101216960D01*
X8545238Y100844572D01*
X7579076Y100596838D01*
X6734847Y100447856D01*
X5987978Y100348274D01*
X5987703Y100348243D01*
X5987684Y100348234D01*
X5986916Y100348132D01*
X5986947Y100347901D01*
X5931960Y100323016D01*
X5901692Y100269842D01*
X5899652Y100249877D01*
X5899621Y100137225D01*
X5795848Y100125694D01*
X5747430Y100129854D01*
X5713118Y100147647D01*
X5688225Y100177217D01*
X5674380Y100220891D01*
X5674000Y100227747D01*
X5674000Y105029439D01*
X5678393Y105030313D01*
X5681552Y105030995D01*
X6255110Y105164731D01*
X6258249Y105165518D01*
X6270290Y105168744D01*
X6273408Y105169634D01*
X6836992Y105340595D01*
X6840077Y105341586D01*
X6851881Y105345593D01*
X6854931Y105346684D01*
X7406127Y105554139D01*
X7409133Y105555327D01*
X7420651Y105560097D01*
X7423630Y105561388D01*
X7960077Y105804449D01*
X7963010Y105805837D01*
X7974190Y105811351D01*
X7977067Y105812829D01*
X8496469Y106090455D01*
X8499301Y106092028D01*
X8510097Y106098261D01*
X8512876Y106099927D01*
X9013008Y106410929D01*
X9015732Y106412686D01*
X9026097Y106419612D01*
X9028759Y106421454D01*
X9507480Y106764501D01*
X9510083Y106766432D01*
X9519973Y106774021D01*
X9522510Y106776034D01*
X9977769Y107149656D01*
X9980239Y107151752D01*
X9989611Y107159971D01*
X9992012Y107162146D01*
X10421861Y107564743D01*
X10424189Y107566996D01*
X10433004Y107575811D01*
X10435257Y107578139D01*
X10837854Y108007988D01*
X10840029Y108010389D01*
X10848248Y108019761D01*
X10850344Y108022231D01*
X11223966Y108477490D01*
X11225979Y108480027D01*
X11233568Y108489917D01*
X11235499Y108492520D01*
X11578546Y108971241D01*
X11580388Y108973903D01*
X11587314Y108984268D01*
X11589071Y108986992D01*
X11900073Y109487124D01*
X11901739Y109489903D01*
X11907972Y109500699D01*
X11909545Y109503531D01*
X12187171Y110022933D01*
X12188649Y110025810D01*
X12194163Y110036990D01*
X12195551Y110039923D01*
X12438612Y110576370D01*
X12439903Y110579349D01*
X12444673Y110590867D01*
X12445861Y110593873D01*
X12653316Y111145069D01*
X12654407Y111148119D01*
X12658414Y111159923D01*
X12659405Y111163008D01*
X12830366Y111726592D01*
X12831256Y111729710D01*
X12834482Y111741751D01*
X12835269Y111744890D01*
X12940879Y112197823D01*
X18190668Y112176039D01*
G37*
X6099683Y100363168D02*
X5987978Y100348274D01*
X5987703Y100348243D01*
X5987684Y100348234D01*
X5986916Y100348132D01*
X5986947Y100347901D01*
X5931960Y100323016D01*
X5901692Y100269842D01*
X5899652Y100249877D01*
X5876000Y13825027D01*
X5876000Y12939500D01*
X1534130Y12939501D01*
X290312Y14183318D01*
X296297Y76860500D01*
X2300000Y76860500D01*
X2304086Y76860584D01*
X2319797Y76861233D01*
X2323876Y76861486D01*
X2570788Y76881919D01*
X2578908Y76882931D01*
X2609945Y76888107D01*
X2617954Y76889785D01*
X2858134Y76950583D01*
X2865977Y76952917D01*
X2895738Y76963131D01*
X2903362Y76966105D01*
X3130258Y77065609D01*
X3137610Y77069203D01*
X3165284Y77084177D01*
X3172313Y77088365D01*
X3379735Y77223860D01*
X3386395Y77228614D01*
X3411226Y77247938D01*
X3417471Y77253226D01*
X3599760Y77421015D01*
X3605545Y77426800D01*
X3626857Y77449948D01*
X3632147Y77456193D01*
X3784331Y77651700D01*
X3789086Y77658360D01*
X3806297Y77684701D01*
X3810486Y77691730D01*
X3928412Y77909621D01*
X3932006Y77916972D01*
X3944646Y77945786D01*
X3947621Y77953409D01*
X4028073Y78187738D01*
X4030409Y78195584D01*
X4038133Y78226087D01*
X4039812Y78234093D01*
X4080594Y78478469D01*
X4081606Y78486588D01*
X4084205Y78517945D01*
X4084543Y78526122D01*
X4084543Y78773878D01*
X4084205Y78782055D01*
X4081606Y78813412D01*
X4080594Y78821531D01*
X4039812Y79065907D01*
X4038133Y79073913D01*
X4030409Y79104416D01*
X4028073Y79112262D01*
X3947621Y79346591D01*
X3944646Y79354214D01*
X3932006Y79383028D01*
X3928412Y79390379D01*
X3810486Y79608270D01*
X3806297Y79615299D01*
X3789086Y79641640D01*
X3784331Y79648300D01*
X3632147Y79843807D01*
X3626857Y79850052D01*
X3605545Y79873200D01*
X3599760Y79878985D01*
X3417471Y80046774D01*
X3411226Y80052062D01*
X3386395Y80071386D01*
X3379735Y80076140D01*
X3172313Y80211635D01*
X3165284Y80215823D01*
X3137610Y80230797D01*
X3130258Y80234391D01*
X2903362Y80333895D01*
X2895738Y80336869D01*
X2865977Y80347083D01*
X2858134Y80349417D01*
X2617954Y80410215D01*
X2609945Y80411893D01*
X2578908Y80417069D01*
X2570788Y80418081D01*
X2323876Y80438514D01*
X2319797Y80438767D01*
X2304086Y80439416D01*
X2300000Y80439500D01*
X296638Y80439501D01*
X298851Y103615222D01*
X1534130Y104850500D01*
X3860000Y104850500D01*
X3861620Y104850513D01*
X3867853Y104850615D01*
X3869472Y104850655D01*
X4458100Y104869925D01*
X4461334Y104870084D01*
X4473773Y104870899D01*
X4477004Y104871164D01*
X5063112Y104928890D01*
X5066328Y104929260D01*
X5078688Y104930887D01*
X5081895Y104931362D01*
X5662972Y105027298D01*
X5666167Y105027880D01*
X5678393Y105030313D01*
X5681552Y105030995D01*
X6100987Y105128795D01*
X6099683Y100363168D01*
G36*
X6099683Y100363168D02*
G01*
X5987978Y100348274D01*
X5987703Y100348243D01*
X5987684Y100348234D01*
X5986916Y100348132D01*
X5986947Y100347901D01*
X5931960Y100323016D01*
X5901692Y100269842D01*
X5899652Y100249877D01*
X5876000Y13825027D01*
X5876000Y12939500D01*
X1534130Y12939501D01*
X290312Y14183318D01*
X296297Y76860500D01*
X2300000Y76860500D01*
X2304086Y76860584D01*
X2319797Y76861233D01*
X2323876Y76861486D01*
X2570788Y76881919D01*
X2578908Y76882931D01*
X2609945Y76888107D01*
X2617954Y76889785D01*
X2858134Y76950583D01*
X2865977Y76952917D01*
X2895738Y76963131D01*
X2903362Y76966105D01*
X3130258Y77065609D01*
X3137610Y77069203D01*
X3165284Y77084177D01*
X3172313Y77088365D01*
X3379735Y77223860D01*
X3386395Y77228614D01*
X3411226Y77247938D01*
X3417471Y77253226D01*
X3599760Y77421015D01*
X3605545Y77426800D01*
X3626857Y77449948D01*
X3632147Y77456193D01*
X3784331Y77651700D01*
X3789086Y77658360D01*
X3806297Y77684701D01*
X3810486Y77691730D01*
X3928412Y77909621D01*
X3932006Y77916972D01*
X3944646Y77945786D01*
X3947621Y77953409D01*
X4028073Y78187738D01*
X4030409Y78195584D01*
X4038133Y78226087D01*
X4039812Y78234093D01*
X4080594Y78478469D01*
X4081606Y78486588D01*
X4084205Y78517945D01*
X4084543Y78526122D01*
X4084543Y78773878D01*
X4084205Y78782055D01*
X4081606Y78813412D01*
X4080594Y78821531D01*
X4039812Y79065907D01*
X4038133Y79073913D01*
X4030409Y79104416D01*
X4028073Y79112262D01*
X3947621Y79346591D01*
X3944646Y79354214D01*
X3932006Y79383028D01*
X3928412Y79390379D01*
X3810486Y79608270D01*
X3806297Y79615299D01*
X3789086Y79641640D01*
X3784331Y79648300D01*
X3632147Y79843807D01*
X3626857Y79850052D01*
X3605545Y79873200D01*
X3599760Y79878985D01*
X3417471Y80046774D01*
X3411226Y80052062D01*
X3386395Y80071386D01*
X3379735Y80076140D01*
X3172313Y80211635D01*
X3165284Y80215823D01*
X3137610Y80230797D01*
X3130258Y80234391D01*
X2903362Y80333895D01*
X2895738Y80336869D01*
X2865977Y80347083D01*
X2858134Y80349417D01*
X2617954Y80410215D01*
X2609945Y80411893D01*
X2578908Y80417069D01*
X2570788Y80418081D01*
X2323876Y80438514D01*
X2319797Y80438767D01*
X2304086Y80439416D01*
X2300000Y80439500D01*
X296638Y80439501D01*
X298851Y103615222D01*
X1534130Y104850500D01*
X3860000Y104850500D01*
X3861620Y104850513D01*
X3867853Y104850615D01*
X3869472Y104850655D01*
X4458100Y104869925D01*
X4461334Y104870084D01*
X4473773Y104870899D01*
X4477004Y104871164D01*
X5063112Y104928890D01*
X5066328Y104929260D01*
X5078688Y104930887D01*
X5081895Y104931362D01*
X5662972Y105027298D01*
X5666167Y105027880D01*
X5678393Y105030313D01*
X5681552Y105030995D01*
X6100987Y105128795D01*
X6099683Y100363168D01*
G37*
X149615090Y117701281D02*
X150850500Y116465871D01*
X150850500Y114140001D01*
X150850513Y114138381D01*
X150850615Y114132148D01*
X150850655Y114130529D01*
X150869925Y113541901D01*
X150870084Y113538667D01*
X150870899Y113526228D01*
X150871164Y113522997D01*
X150928890Y112936889D01*
X150929260Y112933673D01*
X150930887Y112921313D01*
X150931362Y112918106D01*
X151027298Y112337029D01*
X151027880Y112333834D01*
X151030313Y112321608D01*
X151030995Y112318449D01*
X151076000Y112125435D01*
X151076000Y112094800D01*
X151094907Y112036609D01*
X151097080Y112035031D01*
X151134627Y111874000D01*
X146317138Y111874000D01*
X146316091Y111881849D01*
X146304526Y111985933D01*
X146279309Y112041680D01*
X146226140Y112071957D01*
X146206132Y112074000D01*
X18182857Y112074000D01*
X18124666Y112055093D01*
X18088702Y112005593D01*
X18085280Y111991728D01*
X18065098Y111874000D01*
X12865374Y111874000D01*
X12969005Y112318448D01*
X12969687Y112321607D01*
X12972120Y112333833D01*
X12972702Y112337028D01*
X13068638Y112918105D01*
X13069113Y112921312D01*
X13070740Y112933672D01*
X13071110Y112936888D01*
X13128836Y113522996D01*
X13129101Y113526227D01*
X13129916Y113538666D01*
X13130075Y113541900D01*
X13149345Y114130528D01*
X13149385Y114132147D01*
X13149487Y114138380D01*
X13149500Y114140000D01*
X13149500Y116465871D01*
X14394130Y117710500D01*
X98487982Y117710500D01*
X149615090Y117701281D01*
G36*
X149615090Y117701281D02*
G01*
X150850500Y116465871D01*
X150850500Y114140001D01*
X150850513Y114138381D01*
X150850615Y114132148D01*
X150850655Y114130529D01*
X150869925Y113541901D01*
X150870084Y113538667D01*
X150870899Y113526228D01*
X150871164Y113522997D01*
X150928890Y112936889D01*
X150929260Y112933673D01*
X150930887Y112921313D01*
X150931362Y112918106D01*
X151027298Y112337029D01*
X151027880Y112333834D01*
X151030313Y112321608D01*
X151030995Y112318449D01*
X151076000Y112125435D01*
X151076000Y112094800D01*
X151094907Y112036609D01*
X151097080Y112035031D01*
X151134627Y111874000D01*
X146317138Y111874000D01*
X146316091Y111881849D01*
X146304526Y111985933D01*
X146279309Y112041680D01*
X146226140Y112071957D01*
X146206132Y112074000D01*
X18182857Y112074000D01*
X18124666Y112055093D01*
X18088702Y112005593D01*
X18085280Y111991728D01*
X18065098Y111874000D01*
X12865374Y111874000D01*
X12969005Y112318448D01*
X12969687Y112321607D01*
X12972120Y112333833D01*
X12972702Y112337028D01*
X13068638Y112918105D01*
X13069113Y112921312D01*
X13070740Y112933672D01*
X13071110Y112936888D01*
X13128836Y113522996D01*
X13129101Y113526227D01*
X13129916Y113538666D01*
X13130075Y113541900D01*
X13149345Y114130528D01*
X13149385Y114132147D01*
X13149487Y114138380D01*
X13149500Y114140000D01*
X13149500Y116465871D01*
X14394130Y117710500D01*
X98487982Y117710500D01*
X149615090Y117701281D01*
G37*
M02*
