G75*
G70*
%OFA0B0*%
%FSLAX25Y25*%
%IPPOS*%
%LPD*%
%AMOC8*
5,1,8,0,0,1.08239X$1,22.5*
%
%ADD10C,0.01969*%
%ADD119C,0.02953*%
%ADD137C,0.01500*%
%ADD154C,0.00390*%
%ADD171C,0.00472*%
%ADD180C,0.00500*%
%ADD232C,0.00591*%
%ADD243C,0.00984*%
%ADD56C,0.01200*%
%ADD65C,0.01181*%
%ADD66C,0.00787*%
X0000000Y0000000D02*
%LPD*%
G01*
D137*
X0490945Y0330709D02*
X0583071Y0330709D01*
X0583071Y0330709D02*
X0583071Y0141732D01*
X0583071Y0141732D02*
X0490945Y0141732D01*
X0490945Y0141732D02*
X0490945Y0330709D01*
G36*
X0490945Y0330709D02*
G01*
X0583071Y0330709D01*
X0583071Y0141732D01*
X0490945Y0141732D01*
X0490945Y0330709D01*
G37*
D243*
X0500250Y0093484D02*
X0500250Y0096859D01*
X0500250Y0095172D02*
X0494345Y0095172D01*
X0495188Y0095734D01*
X0495751Y0096296D01*
X0496032Y0096859D01*
X0500250Y0087860D02*
X0500250Y0091235D01*
X0500250Y0089547D02*
X0494345Y0089547D01*
X0495188Y0090110D01*
X0495751Y0090672D01*
X0496032Y0091235D01*
X0500250Y0085048D02*
X0500250Y0083923D01*
X0499969Y0083361D01*
X0499688Y0083079D01*
X0498844Y0082517D01*
X0497719Y0082236D01*
X0495470Y0082236D01*
X0494907Y0082517D01*
X0494626Y0082798D01*
X0494345Y0083361D01*
X0494345Y0084485D01*
X0494626Y0085048D01*
X0494907Y0085329D01*
X0495470Y0085610D01*
X0496876Y0085610D01*
X0497438Y0085329D01*
X0497719Y0085048D01*
X0498001Y0084485D01*
X0498001Y0083361D01*
X0497719Y0082798D01*
X0497438Y0082517D01*
X0496876Y0082236D01*
X0547750Y0093484D02*
X0547750Y0096859D01*
X0547750Y0095172D02*
X0541845Y0095172D01*
X0542688Y0095734D01*
X0543251Y0096296D01*
X0543532Y0096859D01*
X0542407Y0091235D02*
X0542126Y0090953D01*
X0541845Y0090391D01*
X0541845Y0088985D01*
X0542126Y0088422D01*
X0542407Y0088141D01*
X0542970Y0087860D01*
X0543532Y0087860D01*
X0544376Y0088141D01*
X0547750Y0091516D01*
X0547750Y0087860D01*
X0547750Y0082236D02*
X0547750Y0085610D01*
X0547750Y0083923D02*
X0541845Y0083923D01*
X0542688Y0084485D01*
X0543251Y0085048D01*
X0543532Y0085610D01*
X0547750Y0030984D02*
X0547750Y0034359D01*
X0547750Y0032672D02*
X0541845Y0032672D01*
X0542688Y0033234D01*
X0543251Y0033796D01*
X0543532Y0034359D01*
X0547750Y0025360D02*
X0547750Y0028735D01*
X0547750Y0027047D02*
X0541845Y0027047D01*
X0542688Y0027610D01*
X0543251Y0028172D01*
X0543532Y0028735D01*
X0541845Y0020298D02*
X0541845Y0021423D01*
X0542126Y0021985D01*
X0542407Y0022267D01*
X0543251Y0022829D01*
X0544376Y0023110D01*
X0546625Y0023110D01*
X0547188Y0022829D01*
X0547469Y0022548D01*
X0547750Y0021985D01*
X0547750Y0020861D01*
X0547469Y0020298D01*
X0547188Y0020017D01*
X0546625Y0019736D01*
X0545219Y0019736D01*
X0544657Y0020017D01*
X0544376Y0020298D01*
X0544094Y0020861D01*
X0544094Y0021985D01*
X0544376Y0022548D01*
X0544657Y0022829D01*
X0545219Y0023110D01*
X0525250Y0030984D02*
X0525250Y0034359D01*
X0525250Y0032672D02*
X0519345Y0032672D01*
X0520188Y0033234D01*
X0520751Y0033796D01*
X0521032Y0034359D01*
X0525250Y0025360D02*
X0525250Y0028735D01*
X0525250Y0027047D02*
X0519345Y0027047D01*
X0520188Y0027610D01*
X0520751Y0028172D01*
X0521032Y0028735D01*
X0519345Y0020017D02*
X0519345Y0022829D01*
X0522157Y0023110D01*
X0521876Y0022829D01*
X0521594Y0022267D01*
X0521594Y0020861D01*
X0521876Y0020298D01*
X0522157Y0020017D01*
X0522719Y0019736D01*
X0524125Y0019736D01*
X0524688Y0020017D01*
X0524969Y0020298D01*
X0525250Y0020861D01*
X0525250Y0022267D01*
X0524969Y0022829D01*
X0524688Y0023110D01*
X0535250Y0038484D02*
X0535250Y0041859D01*
X0535250Y0040172D02*
X0529345Y0040172D01*
X0530188Y0040734D01*
X0530751Y0041296D01*
X0531032Y0041859D01*
X0535250Y0032860D02*
X0535250Y0036235D01*
X0535250Y0034547D02*
X0529345Y0034547D01*
X0530188Y0035110D01*
X0530751Y0035672D01*
X0531032Y0036235D01*
X0531876Y0029485D02*
X0531594Y0030048D01*
X0531313Y0030329D01*
X0530751Y0030610D01*
X0530470Y0030610D01*
X0529907Y0030329D01*
X0529626Y0030048D01*
X0529345Y0029485D01*
X0529345Y0028361D01*
X0529626Y0027798D01*
X0529907Y0027517D01*
X0530470Y0027236D01*
X0530751Y0027236D01*
X0531313Y0027517D01*
X0531594Y0027798D01*
X0531876Y0028361D01*
X0531876Y0029485D01*
X0532157Y0030048D01*
X0532438Y0030329D01*
X0533001Y0030610D01*
X0534125Y0030610D01*
X0534688Y0030329D01*
X0534969Y0030048D01*
X0535250Y0029485D01*
X0535250Y0028361D01*
X0534969Y0027798D01*
X0534688Y0027517D01*
X0534125Y0027236D01*
X0533001Y0027236D01*
X0532438Y0027517D01*
X0532157Y0027798D01*
X0531876Y0028361D01*
X0522750Y0093484D02*
X0522750Y0096859D01*
X0522750Y0095172D02*
X0516845Y0095172D01*
X0517688Y0095734D01*
X0518251Y0096296D01*
X0518532Y0096859D01*
X0517407Y0091235D02*
X0517126Y0090953D01*
X0516845Y0090391D01*
X0516845Y0088985D01*
X0517126Y0088422D01*
X0517407Y0088141D01*
X0517970Y0087860D01*
X0518532Y0087860D01*
X0519376Y0088141D01*
X0522750Y0091516D01*
X0522750Y0087860D01*
X0516845Y0084204D02*
X0516845Y0083642D01*
X0517126Y0083079D01*
X0517407Y0082798D01*
X0517970Y0082517D01*
X0519094Y0082236D01*
X0520501Y0082236D01*
X0521625Y0082517D01*
X0522188Y0082798D01*
X0522469Y0083079D01*
X0522750Y0083642D01*
X0522750Y0084204D01*
X0522469Y0084767D01*
X0522188Y0085048D01*
X0521625Y0085329D01*
X0520501Y0085610D01*
X0519094Y0085610D01*
X0517970Y0085329D01*
X0517407Y0085048D01*
X0517126Y0084767D01*
X0516845Y0084204D01*
X0512750Y0038484D02*
X0512750Y0041859D01*
X0512750Y0040172D02*
X0506845Y0040172D01*
X0507688Y0040734D01*
X0508251Y0041296D01*
X0508532Y0041859D01*
X0512750Y0032860D02*
X0512750Y0036235D01*
X0512750Y0034547D02*
X0506845Y0034547D01*
X0507688Y0035110D01*
X0508251Y0035672D01*
X0508532Y0036235D01*
X0506845Y0030891D02*
X0506845Y0026954D01*
X0512750Y0029485D01*
X0500250Y0030984D02*
X0500250Y0034359D01*
X0500250Y0032672D02*
X0494345Y0032672D01*
X0495188Y0033234D01*
X0495751Y0033796D01*
X0496032Y0034359D01*
X0500250Y0025360D02*
X0500250Y0028735D01*
X0500250Y0027047D02*
X0494345Y0027047D01*
X0495188Y0027610D01*
X0495751Y0028172D01*
X0496032Y0028735D01*
X0496313Y0020298D02*
X0500250Y0020298D01*
X0494064Y0021704D02*
X0498282Y0023110D01*
X0498282Y0019454D01*
X0484578Y0030485D02*
X0485328Y0030860D01*
X0485703Y0031235D01*
X0486078Y0031984D01*
X0486078Y0032359D01*
X0485703Y0033109D01*
X0485328Y0033484D01*
X0484578Y0033859D01*
X0483078Y0033859D01*
X0482328Y0033484D01*
X0481954Y0033109D01*
X0481579Y0032359D01*
X0481579Y0031984D01*
X0481954Y0031235D01*
X0482328Y0030860D01*
X0483078Y0030485D01*
X0484578Y0030485D01*
X0485328Y0030110D01*
X0485703Y0029735D01*
X0486078Y0028985D01*
X0486078Y0027485D01*
X0485703Y0026735D01*
X0485328Y0026360D01*
X0484578Y0025985D01*
X0483078Y0025985D01*
X0482328Y0026360D01*
X0481954Y0026735D01*
X0481579Y0027485D01*
X0481579Y0028985D01*
X0481954Y0029735D01*
X0482328Y0030110D01*
X0483078Y0030485D01*
X0477829Y0025985D02*
X0476329Y0025985D01*
X0475579Y0026360D01*
X0475204Y0026735D01*
X0474454Y0027860D01*
X0474079Y0029360D01*
X0474079Y0032359D01*
X0474454Y0033109D01*
X0474829Y0033484D01*
X0475579Y0033859D01*
X0477079Y0033859D01*
X0477829Y0033484D01*
X0478204Y0033109D01*
X0478579Y0032359D01*
X0478579Y0030485D01*
X0478204Y0029735D01*
X0477829Y0029360D01*
X0477079Y0028985D01*
X0475579Y0028985D01*
X0474829Y0029360D01*
X0474454Y0029735D01*
X0474079Y0030485D01*
X0485328Y0035985D02*
X0483828Y0035985D01*
X0483078Y0036360D01*
X0482703Y0036735D01*
X0481954Y0037860D01*
X0481579Y0039360D01*
X0481579Y0042359D01*
X0481954Y0043109D01*
X0482328Y0043484D01*
X0483078Y0043859D01*
X0484578Y0043859D01*
X0485328Y0043484D01*
X0485703Y0043109D01*
X0486078Y0042359D01*
X0486078Y0040485D01*
X0485703Y0039735D01*
X0485328Y0039360D01*
X0484578Y0038985D01*
X0483078Y0038985D01*
X0482328Y0039360D01*
X0481954Y0039735D01*
X0481579Y0040485D01*
X0478954Y0043859D02*
X0473705Y0043859D01*
X0477079Y0035985D01*
X0487730Y0058544D02*
X0492229Y0058544D01*
X0489979Y0058544D02*
X0489979Y0066418D01*
X0490729Y0065293D01*
X0491479Y0064543D01*
X0492229Y0064169D01*
X0482855Y0066418D02*
X0482105Y0066418D01*
X0481355Y0066043D01*
X0480981Y0065668D01*
X0480606Y0064918D01*
X0480231Y0063419D01*
X0480231Y0061544D01*
X0480606Y0060044D01*
X0480981Y0059294D01*
X0481355Y0058919D01*
X0482105Y0058544D01*
X0482855Y0058544D01*
X0483605Y0058919D01*
X0483980Y0059294D01*
X0484355Y0060044D01*
X0484730Y0061544D01*
X0484730Y0063419D01*
X0484355Y0064918D01*
X0483980Y0065668D01*
X0483605Y0066043D01*
X0482855Y0066418D01*
X0473106Y0066418D02*
X0476856Y0066418D01*
X0477231Y0062669D01*
X0476856Y0063044D01*
X0476106Y0063419D01*
X0474231Y0063419D01*
X0473481Y0063044D01*
X0473106Y0062669D01*
X0472732Y0061919D01*
X0472732Y0060044D01*
X0473106Y0059294D01*
X0473481Y0058919D01*
X0474231Y0058544D01*
X0476106Y0058544D01*
X0476856Y0058919D01*
X0477231Y0059294D01*
X0487828Y0070985D02*
X0492328Y0070985D01*
X0490078Y0070985D02*
X0490078Y0078859D01*
X0490828Y0077734D01*
X0491578Y0076984D01*
X0492328Y0076609D01*
X0480329Y0070985D02*
X0484828Y0070985D01*
X0482579Y0070985D02*
X0482579Y0078859D01*
X0483329Y0077734D01*
X0484079Y0076984D01*
X0484828Y0076609D01*
X0477704Y0078859D02*
X0472830Y0078859D01*
X0475455Y0075860D01*
X0474330Y0075860D01*
X0473580Y0075485D01*
X0473205Y0075110D01*
X0472830Y0074360D01*
X0472830Y0072485D01*
X0473205Y0071735D01*
X0473580Y0071360D01*
X0474330Y0070985D01*
X0476579Y0070985D01*
X0477329Y0071360D01*
X0477704Y0071735D01*
X0389578Y0030485D02*
X0390328Y0030860D01*
X0390703Y0031235D01*
X0391078Y0031984D01*
X0391078Y0032359D01*
X0390703Y0033109D01*
X0390328Y0033484D01*
X0389578Y0033859D01*
X0388078Y0033859D01*
X0387328Y0033484D01*
X0386954Y0033109D01*
X0386579Y0032359D01*
X0386579Y0031984D01*
X0386954Y0031235D01*
X0387328Y0030860D01*
X0388078Y0030485D01*
X0389578Y0030485D01*
X0390328Y0030110D01*
X0390703Y0029735D01*
X0391078Y0028985D01*
X0391078Y0027485D01*
X0390703Y0026735D01*
X0390328Y0026360D01*
X0389578Y0025985D01*
X0388078Y0025985D01*
X0387328Y0026360D01*
X0386954Y0026735D01*
X0386579Y0027485D01*
X0386579Y0028985D01*
X0386954Y0029735D01*
X0387328Y0030110D01*
X0388078Y0030485D01*
X0383579Y0033109D02*
X0383204Y0033484D01*
X0382454Y0033859D01*
X0380579Y0033859D01*
X0379829Y0033484D01*
X0379454Y0033109D01*
X0379079Y0032359D01*
X0379079Y0031609D01*
X0379454Y0030485D01*
X0383954Y0025985D01*
X0379079Y0025985D01*
X0390328Y0035985D02*
X0388828Y0035985D01*
X0388078Y0036360D01*
X0387703Y0036735D01*
X0386954Y0037860D01*
X0386579Y0039360D01*
X0386579Y0042359D01*
X0386954Y0043109D01*
X0387328Y0043484D01*
X0388078Y0043859D01*
X0389578Y0043859D01*
X0390328Y0043484D01*
X0390703Y0043109D01*
X0391078Y0042359D01*
X0391078Y0040485D01*
X0390703Y0039735D01*
X0390328Y0039360D01*
X0389578Y0038985D01*
X0388078Y0038985D01*
X0387328Y0039360D01*
X0386954Y0039735D01*
X0386579Y0040485D01*
X0381704Y0043859D02*
X0380954Y0043859D01*
X0380204Y0043484D01*
X0379829Y0043109D01*
X0379454Y0042359D01*
X0379079Y0040860D01*
X0379079Y0038985D01*
X0379454Y0037485D01*
X0379829Y0036735D01*
X0380204Y0036360D01*
X0380954Y0035985D01*
X0381704Y0035985D01*
X0382454Y0036360D01*
X0382829Y0036735D01*
X0383204Y0037485D01*
X0383579Y0038985D01*
X0383579Y0040860D01*
X0383204Y0042359D01*
X0382829Y0043109D01*
X0382454Y0043484D01*
X0381704Y0043859D01*
X0388753Y0057698D02*
X0387253Y0057698D01*
X0386504Y0058073D01*
X0386129Y0058448D01*
X0385379Y0059573D01*
X0385004Y0061072D01*
X0385004Y0064072D01*
X0385379Y0064822D01*
X0385754Y0065197D01*
X0386504Y0065572D01*
X0388003Y0065572D01*
X0388753Y0065197D01*
X0389128Y0064822D01*
X0389503Y0064072D01*
X0389503Y0062197D01*
X0389128Y0061447D01*
X0388753Y0061072D01*
X0388003Y0060697D01*
X0386504Y0060697D01*
X0385754Y0061072D01*
X0385379Y0061447D01*
X0385004Y0062197D01*
X0380504Y0062197D02*
X0381254Y0062572D01*
X0381629Y0062947D01*
X0382004Y0063697D01*
X0382004Y0064072D01*
X0381629Y0064822D01*
X0381254Y0065197D01*
X0380504Y0065572D01*
X0379004Y0065572D01*
X0378255Y0065197D01*
X0377880Y0064822D01*
X0377505Y0064072D01*
X0377505Y0063697D01*
X0377880Y0062947D01*
X0378255Y0062572D01*
X0379004Y0062197D01*
X0380504Y0062197D01*
X0381254Y0061822D01*
X0381629Y0061447D01*
X0382004Y0060697D01*
X0382004Y0059198D01*
X0381629Y0058448D01*
X0381254Y0058073D01*
X0380504Y0057698D01*
X0379004Y0057698D01*
X0378255Y0058073D01*
X0377880Y0058448D01*
X0377505Y0059198D01*
X0377505Y0060697D01*
X0377880Y0061447D01*
X0378255Y0061822D01*
X0379004Y0062197D01*
X0387828Y0070985D02*
X0392328Y0070985D01*
X0390078Y0070985D02*
X0390078Y0078859D01*
X0390828Y0077734D01*
X0391578Y0076984D01*
X0392328Y0076609D01*
X0382954Y0078859D02*
X0382204Y0078859D01*
X0381454Y0078484D01*
X0381079Y0078109D01*
X0380704Y0077359D01*
X0380329Y0075860D01*
X0380329Y0073985D01*
X0380704Y0072485D01*
X0381079Y0071735D01*
X0381454Y0071360D01*
X0382204Y0070985D01*
X0382954Y0070985D01*
X0383704Y0071360D01*
X0384079Y0071735D01*
X0384454Y0072485D01*
X0384828Y0073985D01*
X0384828Y0075860D01*
X0384454Y0077359D01*
X0384079Y0078109D01*
X0383704Y0078484D01*
X0382954Y0078859D01*
X0373580Y0078859D02*
X0375080Y0078859D01*
X0375830Y0078484D01*
X0376205Y0078109D01*
X0376954Y0076984D01*
X0377329Y0075485D01*
X0377329Y0072485D01*
X0376954Y0071735D01*
X0376579Y0071360D01*
X0375830Y0070985D01*
X0374330Y0070985D01*
X0373580Y0071360D01*
X0373205Y0071735D01*
X0372830Y0072485D01*
X0372830Y0074360D01*
X0373205Y0075110D01*
X0373580Y0075485D01*
X0374330Y0075860D01*
X0375830Y0075860D01*
X0376579Y0075485D01*
X0376954Y0075110D01*
X0377329Y0074360D01*
X0349828Y0033859D02*
X0351328Y0033859D01*
X0352078Y0033484D01*
X0352453Y0033109D01*
X0353203Y0031984D01*
X0353578Y0030485D01*
X0353578Y0027485D01*
X0353203Y0026735D01*
X0352828Y0026360D01*
X0352078Y0025985D01*
X0350578Y0025985D01*
X0349828Y0026360D01*
X0349454Y0026735D01*
X0349079Y0027485D01*
X0349079Y0029360D01*
X0349454Y0030110D01*
X0349828Y0030485D01*
X0350578Y0030860D01*
X0352078Y0030860D01*
X0352828Y0030485D01*
X0353203Y0030110D01*
X0353578Y0029360D01*
X0346454Y0033859D02*
X0341579Y0033859D01*
X0344204Y0030860D01*
X0343079Y0030860D01*
X0342329Y0030485D01*
X0341954Y0030110D01*
X0341579Y0029360D01*
X0341579Y0027485D01*
X0341954Y0026735D01*
X0342329Y0026360D01*
X0343079Y0025985D01*
X0345329Y0025985D01*
X0346079Y0026360D01*
X0346454Y0026735D01*
X0349828Y0041235D02*
X0349828Y0035985D01*
X0351703Y0044234D02*
X0353578Y0038610D01*
X0348704Y0038610D01*
X0342329Y0041235D02*
X0342329Y0035985D01*
X0344204Y0044234D02*
X0346079Y0038610D01*
X0341205Y0038610D01*
X0353578Y0065609D02*
X0353203Y0065984D01*
X0352453Y0066359D01*
X0350578Y0066359D01*
X0349828Y0065984D01*
X0349454Y0065609D01*
X0349079Y0064859D01*
X0349079Y0064109D01*
X0349454Y0062985D01*
X0353953Y0058485D01*
X0349079Y0058485D01*
X0341954Y0066359D02*
X0345704Y0066359D01*
X0346079Y0062610D01*
X0345704Y0062985D01*
X0344954Y0063360D01*
X0343079Y0063360D01*
X0342329Y0062985D01*
X0341954Y0062610D01*
X0341579Y0061860D01*
X0341579Y0059985D01*
X0341954Y0059235D01*
X0342329Y0058860D01*
X0343079Y0058485D01*
X0344954Y0058485D01*
X0345704Y0058860D01*
X0346079Y0059235D01*
X0343579Y0078859D02*
X0345079Y0078859D01*
X0345829Y0078484D01*
X0346204Y0078109D01*
X0346954Y0076984D01*
X0347328Y0075485D01*
X0347328Y0072485D01*
X0346954Y0071735D01*
X0346579Y0071360D01*
X0345829Y0070985D01*
X0344329Y0070985D01*
X0343579Y0071360D01*
X0343204Y0071735D01*
X0342829Y0072485D01*
X0342829Y0074360D01*
X0343204Y0075110D01*
X0343579Y0075485D01*
X0344329Y0075860D01*
X0345829Y0075860D01*
X0346579Y0075485D01*
X0346954Y0075110D01*
X0347328Y0074360D01*
X0128204Y0086359D02*
X0131954Y0086359D01*
X0132328Y0082610D01*
X0131954Y0082985D01*
X0131204Y0083360D01*
X0129329Y0083360D01*
X0128579Y0082985D01*
X0128204Y0082610D01*
X0127829Y0081860D01*
X0127829Y0079985D01*
X0128204Y0079235D01*
X0128579Y0078860D01*
X0129329Y0078485D01*
X0131204Y0078485D01*
X0131954Y0078860D01*
X0132328Y0079235D01*
X0093579Y0083735D02*
X0093579Y0078485D01*
X0095454Y0086734D02*
X0097328Y0081110D01*
X0092454Y0081110D01*
X0115203Y0066359D02*
X0110329Y0066359D01*
X0112954Y0063360D01*
X0111829Y0063360D01*
X0111079Y0062985D01*
X0110704Y0062610D01*
X0110329Y0061860D01*
X0110329Y0059985D01*
X0110704Y0059235D01*
X0111079Y0058860D01*
X0111829Y0058485D01*
X0114079Y0058485D01*
X0114828Y0058860D01*
X0115203Y0059235D01*
X0132328Y0055609D02*
X0131954Y0055984D01*
X0131204Y0056359D01*
X0129329Y0056359D01*
X0128579Y0055984D01*
X0128204Y0055609D01*
X0127829Y0054859D01*
X0127829Y0054109D01*
X0128204Y0052985D01*
X0132703Y0048485D01*
X0127829Y0048485D01*
X0092829Y0048485D02*
X0097328Y0048485D01*
X0095079Y0048485D02*
X0095079Y0056359D01*
X0095829Y0055234D01*
X0096579Y0054484D01*
X0097328Y0054109D01*
X0149578Y0030485D02*
X0150328Y0030860D01*
X0150703Y0031235D01*
X0151078Y0031984D01*
X0151078Y0032359D01*
X0150703Y0033109D01*
X0150328Y0033484D01*
X0149578Y0033859D01*
X0148078Y0033859D01*
X0147328Y0033484D01*
X0146954Y0033109D01*
X0146579Y0032359D01*
X0146579Y0031984D01*
X0146954Y0031235D01*
X0147328Y0030860D01*
X0148078Y0030485D01*
X0149578Y0030485D01*
X0150328Y0030110D01*
X0150703Y0029735D01*
X0151078Y0028985D01*
X0151078Y0027485D01*
X0150703Y0026735D01*
X0150328Y0026360D01*
X0149578Y0025985D01*
X0148078Y0025985D01*
X0147328Y0026360D01*
X0146954Y0026735D01*
X0146579Y0027485D01*
X0146579Y0028985D01*
X0146954Y0029735D01*
X0147328Y0030110D01*
X0148078Y0030485D01*
X0139079Y0025985D02*
X0143579Y0025985D01*
X0141329Y0025985D02*
X0141329Y0033859D01*
X0142079Y0032734D01*
X0142829Y0031984D01*
X0143579Y0031609D01*
X0147328Y0043859D02*
X0148828Y0043859D01*
X0149578Y0043484D01*
X0149953Y0043109D01*
X0150703Y0041984D01*
X0151078Y0040485D01*
X0151078Y0037485D01*
X0150703Y0036735D01*
X0150328Y0036360D01*
X0149578Y0035985D01*
X0148078Y0035985D01*
X0147328Y0036360D01*
X0146954Y0036735D01*
X0146579Y0037485D01*
X0146579Y0039360D01*
X0146954Y0040110D01*
X0147328Y0040485D01*
X0148078Y0040860D01*
X0149578Y0040860D01*
X0150328Y0040485D01*
X0150703Y0040110D01*
X0151078Y0039360D01*
X0143579Y0043109D02*
X0143204Y0043484D01*
X0142454Y0043859D01*
X0140579Y0043859D01*
X0139829Y0043484D01*
X0139454Y0043109D01*
X0139079Y0042359D01*
X0139079Y0041609D01*
X0139454Y0040485D01*
X0143954Y0035985D01*
X0139079Y0035985D01*
X0146982Y0064203D02*
X0146982Y0058954D01*
X0148857Y0067203D02*
X0150732Y0061578D01*
X0145857Y0061578D01*
X0143607Y0066828D02*
X0138733Y0066828D01*
X0141358Y0063828D01*
X0140233Y0063828D01*
X0139483Y0063453D01*
X0139108Y0063078D01*
X0138733Y0062328D01*
X0138733Y0060454D01*
X0139108Y0059704D01*
X0139483Y0059329D01*
X0140233Y0058954D01*
X0142483Y0058954D01*
X0143232Y0059329D01*
X0143607Y0059704D01*
X0151078Y0078109D02*
X0150703Y0078484D01*
X0149953Y0078859D01*
X0148078Y0078859D01*
X0147328Y0078484D01*
X0146954Y0078109D01*
X0146579Y0077359D01*
X0146579Y0076609D01*
X0146954Y0075485D01*
X0151453Y0070985D01*
X0146579Y0070985D01*
X0139829Y0076235D02*
X0139829Y0070985D01*
X0141704Y0079234D02*
X0143579Y0073610D01*
X0138705Y0073610D01*
D66*
X0209773Y0059250D02*
X0209773Y0056813D01*
X0211273Y0058125D01*
X0211273Y0057563D01*
X0211460Y0057188D01*
X0211648Y0057000D01*
X0212023Y0056813D01*
X0212960Y0056813D01*
X0213335Y0057000D01*
X0213523Y0057188D01*
X0213710Y0057563D01*
X0213710Y0058688D01*
X0213523Y0059063D01*
X0213335Y0059250D01*
X0209773Y0055501D02*
X0209773Y0052876D01*
X0213710Y0054563D01*
X0207537Y0082557D02*
X0207537Y0084807D01*
X0207537Y0083682D02*
X0203600Y0083682D01*
X0204162Y0084057D01*
X0204537Y0084432D01*
X0204725Y0084807D01*
X0207537Y0080682D02*
X0207537Y0079932D01*
X0207349Y0079557D01*
X0207162Y0079370D01*
X0206600Y0078995D01*
X0205850Y0078807D01*
X0204350Y0078807D01*
X0203975Y0078995D01*
X0203787Y0079182D01*
X0203600Y0079557D01*
X0203600Y0080307D01*
X0203787Y0080682D01*
X0203975Y0080870D01*
X0204350Y0081057D01*
X0205287Y0081057D01*
X0205662Y0080870D01*
X0205850Y0080682D01*
X0206037Y0080307D01*
X0206037Y0079557D01*
X0205850Y0079182D01*
X0205662Y0078995D01*
X0205287Y0078807D01*
X0455049Y0057900D02*
X0455049Y0060150D01*
X0455049Y0059025D02*
X0451112Y0059025D01*
X0451674Y0059400D01*
X0452049Y0059775D01*
X0452237Y0060150D01*
X0451112Y0055463D02*
X0451112Y0055088D01*
X0451299Y0054713D01*
X0451487Y0054526D01*
X0451862Y0054338D01*
X0452612Y0054151D01*
X0453549Y0054151D01*
X0454299Y0054338D01*
X0454674Y0054526D01*
X0454861Y0054713D01*
X0455049Y0055088D01*
X0455049Y0055463D01*
X0454861Y0055838D01*
X0454674Y0056026D01*
X0454299Y0056213D01*
X0453549Y0056400D01*
X0452612Y0056400D01*
X0451862Y0056213D01*
X0451487Y0056026D01*
X0451299Y0055838D01*
X0451112Y0055463D01*
X0452424Y0050776D02*
X0455049Y0050776D01*
X0450924Y0051714D02*
X0453736Y0052651D01*
X0453736Y0050214D01*
X0171448Y0056948D02*
X0174072Y0056948D01*
X0169948Y0057885D02*
X0172760Y0058822D01*
X0172760Y0056385D01*
X0174072Y0052823D02*
X0174072Y0055073D01*
X0174072Y0053948D02*
X0170135Y0053948D01*
X0170698Y0054323D01*
X0171073Y0054698D01*
X0171260Y0055073D01*
X0420529Y0086007D02*
X0420529Y0088256D01*
X0420529Y0087131D02*
X0416592Y0087131D01*
X0417154Y0087506D01*
X0417529Y0087881D01*
X0417717Y0088256D01*
X0416592Y0083569D02*
X0416592Y0083194D01*
X0416780Y0082819D01*
X0416967Y0082632D01*
X0417342Y0082445D01*
X0418092Y0082257D01*
X0419029Y0082257D01*
X0419779Y0082445D01*
X0420154Y0082632D01*
X0420342Y0082819D01*
X0420529Y0083194D01*
X0420529Y0083569D01*
X0420342Y0083944D01*
X0420154Y0084132D01*
X0419779Y0084319D01*
X0419029Y0084507D01*
X0418092Y0084507D01*
X0417342Y0084319D01*
X0416967Y0084132D01*
X0416780Y0083944D01*
X0416592Y0083569D01*
X0418279Y0080007D02*
X0418092Y0080382D01*
X0417904Y0080570D01*
X0417529Y0080757D01*
X0417342Y0080757D01*
X0416967Y0080570D01*
X0416780Y0080382D01*
X0416592Y0080007D01*
X0416592Y0079257D01*
X0416780Y0078882D01*
X0416967Y0078695D01*
X0417342Y0078508D01*
X0417529Y0078508D01*
X0417904Y0078695D01*
X0418092Y0078882D01*
X0418279Y0079257D01*
X0418279Y0080007D01*
X0418467Y0080382D01*
X0418654Y0080570D01*
X0419029Y0080757D01*
X0419779Y0080757D01*
X0420154Y0080570D01*
X0420342Y0080382D01*
X0420529Y0080007D01*
X0420529Y0079257D01*
X0420342Y0078882D01*
X0420154Y0078695D01*
X0419779Y0078508D01*
X0419029Y0078508D01*
X0418654Y0078695D01*
X0418467Y0078882D01*
X0418279Y0079257D01*
D65*
X0190570Y0418780D02*
X0190570Y0424030D01*
X0190570Y0422530D02*
X0190195Y0423280D01*
X0189820Y0423655D01*
X0189070Y0424030D01*
X0188320Y0424030D01*
X0182696Y0419155D02*
X0183446Y0418780D01*
X0184946Y0418780D01*
X0185696Y0419155D01*
X0186070Y0419905D01*
X0186070Y0422905D01*
X0185696Y0423655D01*
X0184946Y0424030D01*
X0183446Y0424030D01*
X0182696Y0423655D01*
X0182321Y0422905D01*
X0182321Y0422155D01*
X0186070Y0421405D01*
X0179696Y0424030D02*
X0177822Y0418780D01*
X0175947Y0424030D01*
X0172947Y0419530D02*
X0172572Y0419155D01*
X0172947Y0418780D01*
X0173322Y0419155D01*
X0172947Y0419530D01*
X0172947Y0418780D01*
X0163198Y0418780D02*
X0163198Y0426654D01*
X0163198Y0423655D02*
X0162448Y0424030D01*
X0160949Y0424030D01*
X0160199Y0423655D01*
X0159824Y0423280D01*
X0159449Y0422530D01*
X0159449Y0420280D01*
X0159824Y0419530D01*
X0160199Y0419155D01*
X0160949Y0418780D01*
X0162448Y0418780D01*
X0163198Y0419155D01*
D66*
X0458311Y0023273D02*
X0458123Y0023648D01*
X0457936Y0023836D01*
X0457561Y0024023D01*
X0457373Y0024023D01*
X0456999Y0023836D01*
X0456811Y0023648D01*
X0456624Y0023273D01*
X0456624Y0022523D01*
X0456811Y0022148D01*
X0456999Y0021961D01*
X0457373Y0021774D01*
X0457561Y0021774D01*
X0457936Y0021961D01*
X0458123Y0022148D01*
X0458311Y0022523D01*
X0458311Y0023273D01*
X0458498Y0023648D01*
X0458686Y0023836D01*
X0459061Y0024023D01*
X0459811Y0024023D01*
X0460186Y0023836D01*
X0460373Y0023648D01*
X0460561Y0023273D01*
X0460561Y0022523D01*
X0460373Y0022148D01*
X0460186Y0021961D01*
X0459811Y0021774D01*
X0459061Y0021774D01*
X0458686Y0021961D01*
X0458498Y0022148D01*
X0458311Y0022523D01*
X0458311Y0019524D02*
X0458123Y0019899D01*
X0457936Y0020086D01*
X0457561Y0020274D01*
X0457373Y0020274D01*
X0456999Y0020086D01*
X0456811Y0019899D01*
X0456624Y0019524D01*
X0456624Y0018774D01*
X0456811Y0018399D01*
X0456999Y0018211D01*
X0457373Y0018024D01*
X0457561Y0018024D01*
X0457936Y0018211D01*
X0458123Y0018399D01*
X0458311Y0018774D01*
X0458311Y0019524D01*
X0458498Y0019899D01*
X0458686Y0020086D01*
X0459061Y0020274D01*
X0459811Y0020274D01*
X0460186Y0020086D01*
X0460373Y0019899D01*
X0460561Y0019524D01*
X0460561Y0018774D01*
X0460373Y0018399D01*
X0460186Y0018211D01*
X0459811Y0018024D01*
X0459061Y0018024D01*
X0458686Y0018211D01*
X0458498Y0018399D01*
X0458311Y0018774D01*
X0173660Y0084807D02*
X0173472Y0084619D01*
X0173285Y0084244D01*
X0173285Y0083307D01*
X0173472Y0082932D01*
X0173660Y0082744D01*
X0174035Y0082557D01*
X0174410Y0082557D01*
X0174972Y0082744D01*
X0177222Y0084994D01*
X0177222Y0082557D01*
X0173660Y0081057D02*
X0173472Y0080870D01*
X0173285Y0080495D01*
X0173285Y0079557D01*
X0173472Y0079182D01*
X0173660Y0078995D01*
X0174035Y0078807D01*
X0174410Y0078807D01*
X0174972Y0078995D01*
X0177222Y0081245D01*
X0177222Y0078807D01*
X0233915Y0048493D02*
X0233915Y0050367D01*
X0235790Y0050555D01*
X0235602Y0050367D01*
X0235415Y0049992D01*
X0235415Y0049055D01*
X0235602Y0048680D01*
X0235790Y0048493D01*
X0236165Y0048305D01*
X0237102Y0048305D01*
X0237477Y0048493D01*
X0237664Y0048680D01*
X0237852Y0049055D01*
X0237852Y0049992D01*
X0237664Y0050367D01*
X0237477Y0050555D01*
X0235227Y0044930D02*
X0237852Y0044930D01*
X0233727Y0045868D02*
X0236540Y0046805D01*
X0236540Y0044368D01*
X0400450Y0049392D02*
X0400450Y0048642D01*
X0400263Y0048268D01*
X0400075Y0048080D01*
X0399513Y0047705D01*
X0398763Y0047518D01*
X0397263Y0047518D01*
X0396888Y0047705D01*
X0396701Y0047893D01*
X0396513Y0048268D01*
X0396513Y0049017D01*
X0396701Y0049392D01*
X0396888Y0049580D01*
X0397263Y0049767D01*
X0398201Y0049767D01*
X0398576Y0049580D01*
X0398763Y0049392D01*
X0398951Y0049017D01*
X0398951Y0048268D01*
X0398763Y0047893D01*
X0398576Y0047705D01*
X0398201Y0047518D01*
X0396513Y0045080D02*
X0396513Y0044705D01*
X0396701Y0044331D01*
X0396888Y0044143D01*
X0397263Y0043956D01*
X0398013Y0043768D01*
X0398951Y0043768D01*
X0399700Y0043956D01*
X0400075Y0044143D01*
X0400263Y0044331D01*
X0400450Y0044705D01*
X0400450Y0045080D01*
X0400263Y0045455D01*
X0400075Y0045643D01*
X0399700Y0045830D01*
X0398951Y0046018D01*
X0398013Y0046018D01*
X0397263Y0045830D01*
X0396888Y0045643D01*
X0396701Y0045455D01*
X0396513Y0045080D01*
X0294676Y0048680D02*
X0297301Y0048680D01*
X0293176Y0049617D02*
X0295988Y0050555D01*
X0295988Y0048118D01*
X0295051Y0046055D02*
X0294864Y0046430D01*
X0294676Y0046618D01*
X0294301Y0046805D01*
X0294114Y0046805D01*
X0293739Y0046618D01*
X0293551Y0046430D01*
X0293364Y0046055D01*
X0293364Y0045305D01*
X0293551Y0044930D01*
X0293739Y0044743D01*
X0294114Y0044555D01*
X0294301Y0044555D01*
X0294676Y0044743D01*
X0294864Y0044930D01*
X0295051Y0045305D01*
X0295051Y0046055D01*
X0295238Y0046430D01*
X0295426Y0046618D01*
X0295801Y0046805D01*
X0296551Y0046805D01*
X0296926Y0046618D01*
X0297113Y0046430D01*
X0297301Y0046055D01*
X0297301Y0045305D01*
X0297113Y0044930D01*
X0296926Y0044743D01*
X0296551Y0044555D01*
X0295801Y0044555D01*
X0295426Y0044743D01*
X0295238Y0044930D01*
X0295051Y0045305D01*
X0441001Y0049392D02*
X0441001Y0048642D01*
X0440814Y0048268D01*
X0440627Y0048080D01*
X0440064Y0047705D01*
X0439314Y0047518D01*
X0437814Y0047518D01*
X0437439Y0047705D01*
X0437252Y0047893D01*
X0437064Y0048268D01*
X0437064Y0049017D01*
X0437252Y0049392D01*
X0437439Y0049580D01*
X0437814Y0049767D01*
X0438752Y0049767D01*
X0439127Y0049580D01*
X0439314Y0049392D01*
X0439502Y0049017D01*
X0439502Y0048268D01*
X0439314Y0047893D01*
X0439127Y0047705D01*
X0438752Y0047518D01*
X0438377Y0044143D02*
X0441001Y0044143D01*
X0436877Y0045080D02*
X0439689Y0046018D01*
X0439689Y0043581D01*
D119*
X0190059Y0429588D02*
X0190059Y0445337D01*
X0190059Y0437837D02*
X0183310Y0437837D01*
X0183310Y0429588D02*
X0183310Y0445337D01*
X0173186Y0430338D02*
X0174311Y0429588D01*
X0176561Y0429588D01*
X0177686Y0430338D01*
X0178248Y0431838D01*
X0178248Y0437837D01*
X0177686Y0439337D01*
X0176561Y0440087D01*
X0174311Y0440087D01*
X0173186Y0439337D01*
X0172624Y0437837D01*
X0172624Y0436338D01*
X0178248Y0434838D01*
X0165875Y0429588D02*
X0166999Y0430338D01*
X0167562Y0431838D01*
X0167562Y0445337D01*
X0159688Y0429588D02*
X0160813Y0430338D01*
X0161375Y0431838D01*
X0161375Y0445337D01*
X0150689Y0430338D02*
X0151814Y0429588D01*
X0154064Y0429588D01*
X0155188Y0430338D01*
X0155751Y0431838D01*
X0155751Y0437837D01*
X0155188Y0439337D01*
X0154064Y0440087D01*
X0151814Y0440087D01*
X0150689Y0439337D01*
X0150127Y0437837D01*
X0150127Y0436338D01*
X0155751Y0434838D01*
X0145065Y0440087D02*
X0145065Y0429588D01*
X0145065Y0438587D02*
X0144502Y0439337D01*
X0143377Y0440087D01*
X0141690Y0440087D01*
X0140565Y0439337D01*
X0140003Y0437837D01*
X0140003Y0429588D01*
X0128192Y0429588D02*
X0134941Y0429588D01*
X0131566Y0429588D02*
X0131566Y0445337D01*
X0132691Y0443087D01*
X0133816Y0441587D01*
X0134941Y0440837D01*
X0123692Y0443837D02*
X0123130Y0444587D01*
X0122005Y0445337D01*
X0119193Y0445337D01*
X0118068Y0444587D01*
X0117506Y0443837D01*
X0116943Y0442337D01*
X0116943Y0440837D01*
X0117506Y0438587D01*
X0124255Y0429588D01*
X0116943Y0429588D01*
X0105695Y0429588D02*
X0112444Y0429588D01*
X0109069Y0429588D02*
X0109069Y0445337D01*
X0110194Y0443087D01*
X0111319Y0441587D01*
X0112444Y0440837D01*
X0101758Y0440087D02*
X0098945Y0429588D01*
X0096133Y0440087D01*
X0086572Y0429588D02*
X0086572Y0437837D01*
X0087134Y0439337D01*
X0088259Y0440087D01*
X0090509Y0440087D01*
X0091634Y0439337D01*
X0086572Y0430338D02*
X0087697Y0429588D01*
X0090509Y0429588D01*
X0091634Y0430338D01*
X0092196Y0431838D01*
X0092196Y0433338D01*
X0091634Y0434838D01*
X0090509Y0435588D01*
X0087697Y0435588D01*
X0086572Y0436338D01*
X0075886Y0440087D02*
X0075886Y0427339D01*
X0076448Y0425839D01*
X0077011Y0425089D01*
X0078136Y0424339D01*
X0079823Y0424339D01*
X0080948Y0425089D01*
X0075886Y0430338D02*
X0077011Y0429588D01*
X0079260Y0429588D01*
X0080385Y0430338D01*
X0080948Y0431088D01*
X0081510Y0432588D01*
X0081510Y0437088D01*
X0080948Y0438587D01*
X0080385Y0439337D01*
X0079260Y0440087D01*
X0077011Y0440087D01*
X0075886Y0439337D01*
D65*
X0059787Y0279839D02*
X0060537Y0280214D01*
X0061661Y0280214D01*
X0062786Y0279839D01*
X0063536Y0279089D01*
X0063911Y0278339D01*
X0064286Y0276839D01*
X0064286Y0275714D01*
X0063911Y0274214D01*
X0063536Y0273464D01*
X0062786Y0272714D01*
X0061661Y0272340D01*
X0060912Y0272340D01*
X0059787Y0272714D01*
X0059412Y0273089D01*
X0059412Y0275714D01*
X0060912Y0275714D01*
X0056037Y0272340D02*
X0056037Y0280214D01*
X0051538Y0272340D01*
X0051538Y0280214D01*
X0047788Y0272340D02*
X0047788Y0280214D01*
X0045913Y0280214D01*
X0044789Y0279839D01*
X0044039Y0279089D01*
X0043664Y0278339D01*
X0043289Y0276839D01*
X0043289Y0275714D01*
X0043664Y0274214D01*
X0044039Y0273464D01*
X0044789Y0272714D01*
X0045913Y0272340D01*
X0047788Y0272340D01*
D243*
X0022510Y0376856D02*
X0022510Y0374044D01*
X0024197Y0377418D02*
X0018292Y0375450D01*
X0024197Y0373481D01*
X0024197Y0370669D02*
X0023916Y0371232D01*
X0023353Y0371513D01*
X0018292Y0371513D01*
X0020260Y0368982D02*
X0024197Y0367857D01*
X0021385Y0366732D01*
X0024197Y0365607D01*
X0020260Y0364483D01*
X0024197Y0359702D02*
X0021104Y0359702D01*
X0020541Y0359983D01*
X0020260Y0360546D01*
X0020260Y0361670D01*
X0020541Y0362233D01*
X0023916Y0359702D02*
X0024197Y0360264D01*
X0024197Y0361670D01*
X0023916Y0362233D01*
X0023353Y0362514D01*
X0022791Y0362514D01*
X0022229Y0362233D01*
X0021947Y0361670D01*
X0021947Y0360264D01*
X0021666Y0359702D01*
X0020260Y0357452D02*
X0024197Y0356046D01*
X0020260Y0354640D02*
X0024197Y0356046D01*
X0025603Y0356609D01*
X0025884Y0356890D01*
X0026166Y0357452D01*
X0023916Y0352672D02*
X0024197Y0352109D01*
X0024197Y0350984D01*
X0023916Y0350422D01*
X0023353Y0350141D01*
X0023072Y0350141D01*
X0022510Y0350422D01*
X0022229Y0350984D01*
X0022229Y0351828D01*
X0021947Y0352390D01*
X0021385Y0352672D01*
X0021104Y0352672D01*
X0020541Y0352390D01*
X0020260Y0351828D01*
X0020260Y0350984D01*
X0020541Y0350422D01*
X0024197Y0342267D02*
X0023916Y0342829D01*
X0023353Y0343110D01*
X0018292Y0343110D01*
X0024197Y0339173D02*
X0023916Y0339736D01*
X0023635Y0340017D01*
X0023072Y0340298D01*
X0021385Y0340298D01*
X0020823Y0340017D01*
X0020541Y0339736D01*
X0020260Y0339173D01*
X0020260Y0338330D01*
X0020541Y0337767D01*
X0020823Y0337486D01*
X0021385Y0337205D01*
X0023072Y0337205D01*
X0023635Y0337486D01*
X0023916Y0337767D01*
X0024197Y0338330D01*
X0024197Y0339173D01*
X0024197Y0333830D02*
X0023916Y0334393D01*
X0023635Y0334674D01*
X0023072Y0334955D01*
X0021385Y0334955D01*
X0020823Y0334674D01*
X0020541Y0334393D01*
X0020260Y0333830D01*
X0020260Y0332987D01*
X0020541Y0332424D01*
X0020823Y0332143D01*
X0021385Y0331862D01*
X0023072Y0331862D01*
X0023635Y0332143D01*
X0023916Y0332424D01*
X0024197Y0332987D01*
X0024197Y0333830D01*
X0024197Y0329331D02*
X0018292Y0329331D01*
X0021947Y0328768D02*
X0024197Y0327081D01*
X0020260Y0327081D02*
X0022510Y0329331D01*
X0024197Y0324550D02*
X0020260Y0324550D01*
X0018292Y0324550D02*
X0018573Y0324831D01*
X0018854Y0324550D01*
X0018573Y0324269D01*
X0018292Y0324550D01*
X0018854Y0324550D01*
X0020260Y0321738D02*
X0024197Y0321738D01*
X0020823Y0321738D02*
X0020541Y0321457D01*
X0020260Y0320894D01*
X0020260Y0320051D01*
X0020541Y0319488D01*
X0021104Y0319207D01*
X0024197Y0319207D01*
X0020260Y0313864D02*
X0025041Y0313864D01*
X0025603Y0314145D01*
X0025884Y0314426D01*
X0026166Y0314989D01*
X0026166Y0315832D01*
X0025884Y0316395D01*
X0023916Y0313864D02*
X0024197Y0314426D01*
X0024197Y0315551D01*
X0023916Y0316114D01*
X0023635Y0316395D01*
X0023072Y0316676D01*
X0021385Y0316676D01*
X0020823Y0316395D01*
X0020541Y0316114D01*
X0020260Y0315551D01*
X0020260Y0314426D01*
X0020541Y0313864D01*
X0020260Y0307396D02*
X0020260Y0305146D01*
X0024197Y0306552D02*
X0019135Y0306552D01*
X0018573Y0306271D01*
X0018292Y0305709D01*
X0018292Y0305146D01*
X0024197Y0302334D02*
X0023916Y0302897D01*
X0023635Y0303178D01*
X0023072Y0303459D01*
X0021385Y0303459D01*
X0020823Y0303178D01*
X0020541Y0302897D01*
X0020260Y0302334D01*
X0020260Y0301490D01*
X0020541Y0300928D01*
X0020823Y0300647D01*
X0021385Y0300366D01*
X0023072Y0300366D01*
X0023635Y0300647D01*
X0023916Y0300928D01*
X0024197Y0301490D01*
X0024197Y0302334D01*
X0024197Y0297835D02*
X0020260Y0297835D01*
X0021385Y0297835D02*
X0020823Y0297553D01*
X0020541Y0297272D01*
X0020260Y0296710D01*
X0020260Y0296147D01*
X0023635Y0286305D02*
X0023916Y0286586D01*
X0024197Y0287430D01*
X0024197Y0287992D01*
X0023916Y0288836D01*
X0023353Y0289398D01*
X0022791Y0289679D01*
X0021666Y0289961D01*
X0020823Y0289961D01*
X0019698Y0289679D01*
X0019135Y0289398D01*
X0018573Y0288836D01*
X0018292Y0287992D01*
X0018292Y0287430D01*
X0018573Y0286586D01*
X0018854Y0286305D01*
X0018010Y0279556D02*
X0025603Y0284618D01*
X0023635Y0274213D02*
X0023916Y0274494D01*
X0024197Y0275337D01*
X0024197Y0275900D01*
X0023916Y0276744D01*
X0023353Y0277306D01*
X0022791Y0277587D01*
X0021666Y0277868D01*
X0020823Y0277868D01*
X0019698Y0277587D01*
X0019135Y0277306D01*
X0018573Y0276744D01*
X0018292Y0275900D01*
X0018292Y0275337D01*
X0018573Y0274494D01*
X0018854Y0274213D01*
X0021947Y0271682D02*
X0021947Y0267182D01*
X0024197Y0269432D02*
X0019698Y0269432D01*
X0021947Y0264370D02*
X0021947Y0259871D01*
X0024197Y0262120D02*
X0019698Y0262120D01*
X0018010Y0252840D02*
X0025603Y0257902D01*
X0024197Y0250872D02*
X0018292Y0250872D01*
X0018292Y0248622D01*
X0018573Y0248060D01*
X0018854Y0247778D01*
X0019416Y0247497D01*
X0020260Y0247497D01*
X0020823Y0247778D01*
X0021104Y0248060D01*
X0021385Y0248622D01*
X0021385Y0250872D01*
X0024197Y0244966D02*
X0018292Y0244966D01*
X0021104Y0244966D02*
X0021104Y0241592D01*
X0024197Y0241592D02*
X0018292Y0241592D01*
X0024197Y0238780D02*
X0018292Y0238780D01*
X0018292Y0236530D01*
X0018573Y0235967D01*
X0018854Y0235686D01*
X0019416Y0235405D01*
X0020260Y0235405D01*
X0020823Y0235686D01*
X0021104Y0235967D01*
X0021385Y0236530D01*
X0021385Y0238780D01*
X0018010Y0228656D02*
X0025603Y0233718D01*
X0018292Y0225000D02*
X0022510Y0225000D01*
X0023353Y0225281D01*
X0023916Y0225844D01*
X0024197Y0226687D01*
X0024197Y0227250D01*
X0024197Y0219657D02*
X0021104Y0219657D01*
X0020541Y0219938D01*
X0020260Y0220501D01*
X0020260Y0221625D01*
X0020541Y0222188D01*
X0023916Y0219657D02*
X0024197Y0220219D01*
X0024197Y0221625D01*
X0023916Y0222188D01*
X0023353Y0222469D01*
X0022791Y0222469D01*
X0022229Y0222188D01*
X0021947Y0221625D01*
X0021947Y0220219D01*
X0021666Y0219657D01*
X0020260Y0217407D02*
X0024197Y0216001D01*
X0020260Y0214595D01*
X0024197Y0209814D02*
X0021104Y0209814D01*
X0020541Y0210096D01*
X0020260Y0210658D01*
X0020260Y0211783D01*
X0020541Y0212345D01*
X0023916Y0209814D02*
X0024197Y0210377D01*
X0024197Y0211783D01*
X0023916Y0212345D01*
X0023353Y0212627D01*
X0022791Y0212627D01*
X0022229Y0212345D01*
X0021947Y0211783D01*
X0021947Y0210377D01*
X0021666Y0209814D01*
X0024197Y0199972D02*
X0018292Y0199972D01*
X0023916Y0199972D02*
X0024197Y0200534D01*
X0024197Y0201659D01*
X0023916Y0202222D01*
X0023635Y0202503D01*
X0023072Y0202784D01*
X0021385Y0202784D01*
X0020823Y0202503D01*
X0020541Y0202222D01*
X0020260Y0201659D01*
X0020260Y0200534D01*
X0020541Y0199972D01*
X0023916Y0194910D02*
X0024197Y0195472D01*
X0024197Y0196597D01*
X0023916Y0197160D01*
X0023353Y0197441D01*
X0021104Y0197441D01*
X0020541Y0197160D01*
X0020260Y0196597D01*
X0020260Y0195472D01*
X0020541Y0194910D01*
X0021104Y0194629D01*
X0021666Y0194629D01*
X0022229Y0197441D01*
X0020260Y0192660D02*
X0024197Y0191254D01*
X0020260Y0189848D01*
X0023916Y0185349D02*
X0024197Y0185911D01*
X0024197Y0187036D01*
X0023916Y0187598D01*
X0023353Y0187880D01*
X0021104Y0187880D01*
X0020541Y0187598D01*
X0020260Y0187036D01*
X0020260Y0185911D01*
X0020541Y0185349D01*
X0021104Y0185067D01*
X0021666Y0185067D01*
X0022229Y0187880D01*
X0024197Y0181693D02*
X0023916Y0182255D01*
X0023353Y0182537D01*
X0018292Y0182537D01*
X0024197Y0178600D02*
X0023916Y0179162D01*
X0023635Y0179443D01*
X0023072Y0179724D01*
X0021385Y0179724D01*
X0020823Y0179443D01*
X0020541Y0179162D01*
X0020260Y0178600D01*
X0020260Y0177756D01*
X0020541Y0177193D01*
X0020823Y0176912D01*
X0021385Y0176631D01*
X0023072Y0176631D01*
X0023635Y0176912D01*
X0023916Y0177193D01*
X0024197Y0177756D01*
X0024197Y0178600D01*
X0020260Y0174100D02*
X0026166Y0174100D01*
X0020541Y0174100D02*
X0020260Y0173538D01*
X0020260Y0172413D01*
X0020541Y0171850D01*
X0020823Y0171569D01*
X0021385Y0171288D01*
X0023072Y0171288D01*
X0023635Y0171569D01*
X0023916Y0171850D01*
X0024197Y0172413D01*
X0024197Y0173538D01*
X0023916Y0174100D01*
X0023916Y0166507D02*
X0024197Y0167070D01*
X0024197Y0168195D01*
X0023916Y0168757D01*
X0023353Y0169038D01*
X0021104Y0169038D01*
X0020541Y0168757D01*
X0020260Y0168195D01*
X0020260Y0167070D01*
X0020541Y0166507D01*
X0021104Y0166226D01*
X0021666Y0166226D01*
X0022229Y0169038D01*
X0024197Y0163695D02*
X0020260Y0163695D01*
X0021385Y0163695D02*
X0020823Y0163414D01*
X0020541Y0163133D01*
X0020260Y0162570D01*
X0020260Y0162008D01*
X0023916Y0160321D02*
X0024197Y0159758D01*
X0024197Y0158633D01*
X0023916Y0158071D01*
X0023353Y0157790D01*
X0023072Y0157790D01*
X0022510Y0158071D01*
X0022229Y0158633D01*
X0022229Y0159477D01*
X0021947Y0160039D01*
X0021385Y0160321D01*
X0021104Y0160321D01*
X0020541Y0160039D01*
X0020260Y0159477D01*
X0020260Y0158633D01*
X0020541Y0158071D01*
X0033705Y0333127D02*
X0027799Y0333127D01*
X0033705Y0330596D02*
X0030612Y0330596D01*
X0030049Y0330877D01*
X0029768Y0331440D01*
X0029768Y0332283D01*
X0030049Y0332846D01*
X0030330Y0333127D01*
X0029768Y0328628D02*
X0029768Y0326378D01*
X0027799Y0327784D02*
X0032861Y0327784D01*
X0033424Y0327503D01*
X0033705Y0326940D01*
X0033705Y0326378D01*
X0029768Y0325253D02*
X0029768Y0323003D01*
X0027799Y0324409D02*
X0032861Y0324409D01*
X0033424Y0324128D01*
X0033705Y0323566D01*
X0033705Y0323003D01*
X0029768Y0321035D02*
X0035674Y0321035D01*
X0030049Y0321035D02*
X0029768Y0320472D01*
X0029768Y0319348D01*
X0030049Y0318785D01*
X0030330Y0318504D01*
X0030893Y0318223D01*
X0032580Y0318223D01*
X0033143Y0318504D01*
X0033424Y0318785D01*
X0033705Y0319348D01*
X0033705Y0320472D01*
X0033424Y0321035D01*
X0033424Y0315973D02*
X0033705Y0315411D01*
X0033705Y0314286D01*
X0033424Y0313723D01*
X0032861Y0313442D01*
X0032580Y0313442D01*
X0032018Y0313723D01*
X0031737Y0314286D01*
X0031737Y0315129D01*
X0031455Y0315692D01*
X0030893Y0315973D01*
X0030612Y0315973D01*
X0030049Y0315692D01*
X0029768Y0315129D01*
X0029768Y0314286D01*
X0030049Y0313723D01*
X0033143Y0310911D02*
X0033424Y0310630D01*
X0033705Y0310911D01*
X0033424Y0311192D01*
X0033143Y0310911D01*
X0033705Y0310911D01*
X0030049Y0310911D02*
X0030330Y0310630D01*
X0030612Y0310911D01*
X0030330Y0311192D01*
X0030049Y0310911D01*
X0030612Y0310911D01*
X0027518Y0303881D02*
X0035111Y0308943D01*
X0027518Y0297694D02*
X0035111Y0302756D01*
X0033705Y0295726D02*
X0029768Y0295726D01*
X0030893Y0295726D02*
X0030330Y0295444D01*
X0030049Y0295163D01*
X0029768Y0294601D01*
X0029768Y0294038D01*
X0029768Y0289539D02*
X0033705Y0289539D01*
X0029768Y0292070D02*
X0032861Y0292070D01*
X0033424Y0291789D01*
X0033705Y0291226D01*
X0033705Y0290382D01*
X0033424Y0289820D01*
X0033143Y0289539D01*
X0033424Y0287008D02*
X0033705Y0286445D01*
X0033705Y0285321D01*
X0033424Y0284758D01*
X0032861Y0284477D01*
X0032580Y0284477D01*
X0032018Y0284758D01*
X0031737Y0285321D01*
X0031737Y0286164D01*
X0031455Y0286727D01*
X0030893Y0287008D01*
X0030612Y0287008D01*
X0030049Y0286727D01*
X0029768Y0286164D01*
X0029768Y0285321D01*
X0030049Y0284758D01*
X0033424Y0279696D02*
X0033705Y0280259D01*
X0033705Y0281384D01*
X0033424Y0281946D01*
X0032861Y0282227D01*
X0030612Y0282227D01*
X0030049Y0281946D01*
X0029768Y0281384D01*
X0029768Y0280259D01*
X0030049Y0279696D01*
X0030612Y0279415D01*
X0031174Y0279415D01*
X0031737Y0282227D01*
X0029768Y0277728D02*
X0029768Y0275478D01*
X0033705Y0276884D02*
X0028643Y0276884D01*
X0028081Y0276603D01*
X0027799Y0276040D01*
X0027799Y0275478D01*
X0033705Y0273510D02*
X0029768Y0273510D01*
X0027799Y0273510D02*
X0028081Y0273791D01*
X0028362Y0273510D01*
X0028081Y0273228D01*
X0027799Y0273510D01*
X0028362Y0273510D01*
X0033143Y0270697D02*
X0033424Y0270416D01*
X0033705Y0270697D01*
X0033424Y0270979D01*
X0033143Y0270697D01*
X0033705Y0270697D01*
X0033424Y0265354D02*
X0033705Y0265917D01*
X0033705Y0267042D01*
X0033424Y0267604D01*
X0033143Y0267885D01*
X0032580Y0268166D01*
X0030893Y0268166D01*
X0030330Y0267885D01*
X0030049Y0267604D01*
X0029768Y0267042D01*
X0029768Y0265917D01*
X0030049Y0265354D01*
X0033705Y0261980D02*
X0033424Y0262542D01*
X0033143Y0262823D01*
X0032580Y0263105D01*
X0030893Y0263105D01*
X0030330Y0262823D01*
X0030049Y0262542D01*
X0029768Y0261980D01*
X0029768Y0261136D01*
X0030049Y0260574D01*
X0030330Y0260292D01*
X0030893Y0260011D01*
X0032580Y0260011D01*
X0033143Y0260292D01*
X0033424Y0260574D01*
X0033705Y0261136D01*
X0033705Y0261980D01*
X0033705Y0257480D02*
X0029768Y0257480D01*
X0030330Y0257480D02*
X0030049Y0257199D01*
X0029768Y0256637D01*
X0029768Y0255793D01*
X0030049Y0255231D01*
X0030612Y0254949D01*
X0033705Y0254949D01*
X0030612Y0254949D02*
X0030049Y0254668D01*
X0029768Y0254106D01*
X0029768Y0253262D01*
X0030049Y0252700D01*
X0030612Y0252418D01*
X0033705Y0252418D01*
X0027518Y0245388D02*
X0035111Y0250450D01*
X0033424Y0243701D02*
X0033705Y0243138D01*
X0033705Y0242014D01*
X0033424Y0241451D01*
X0032861Y0241170D01*
X0032580Y0241170D01*
X0032018Y0241451D01*
X0031737Y0242014D01*
X0031737Y0242857D01*
X0031455Y0243420D01*
X0030893Y0243701D01*
X0030612Y0243701D01*
X0030049Y0243420D01*
X0029768Y0242857D01*
X0029768Y0242014D01*
X0030049Y0241451D01*
X0027518Y0234421D02*
X0035111Y0239483D01*
X0033705Y0232452D02*
X0029768Y0232452D01*
X0030330Y0232452D02*
X0030049Y0232171D01*
X0029768Y0231609D01*
X0029768Y0230765D01*
X0030049Y0230202D01*
X0030612Y0229921D01*
X0033705Y0229921D01*
X0030612Y0229921D02*
X0030049Y0229640D01*
X0029768Y0229078D01*
X0029768Y0228234D01*
X0030049Y0227672D01*
X0030612Y0227390D01*
X0033705Y0227390D01*
X0033705Y0224578D02*
X0029768Y0224578D01*
X0027799Y0224578D02*
X0028081Y0224859D01*
X0028362Y0224578D01*
X0028081Y0224297D01*
X0027799Y0224578D01*
X0028362Y0224578D01*
X0033424Y0222047D02*
X0033705Y0221485D01*
X0033705Y0220360D01*
X0033424Y0219798D01*
X0032861Y0219516D01*
X0032580Y0219516D01*
X0032018Y0219798D01*
X0031737Y0220360D01*
X0031737Y0221204D01*
X0031455Y0221766D01*
X0030893Y0222047D01*
X0030612Y0222047D01*
X0030049Y0221766D01*
X0029768Y0221204D01*
X0029768Y0220360D01*
X0030049Y0219798D01*
X0033424Y0217267D02*
X0033705Y0216704D01*
X0033705Y0215579D01*
X0033424Y0215017D01*
X0032861Y0214736D01*
X0032580Y0214736D01*
X0032018Y0215017D01*
X0031737Y0215579D01*
X0031737Y0216423D01*
X0031455Y0216985D01*
X0030893Y0217267D01*
X0030612Y0217267D01*
X0030049Y0216985D01*
X0029768Y0216423D01*
X0029768Y0215579D01*
X0030049Y0215017D01*
X0033705Y0212205D02*
X0029768Y0212205D01*
X0027799Y0212205D02*
X0028081Y0212486D01*
X0028362Y0212205D01*
X0028081Y0211924D01*
X0027799Y0212205D01*
X0028362Y0212205D01*
X0033705Y0208549D02*
X0033424Y0209111D01*
X0033143Y0209393D01*
X0032580Y0209674D01*
X0030893Y0209674D01*
X0030330Y0209393D01*
X0030049Y0209111D01*
X0029768Y0208549D01*
X0029768Y0207705D01*
X0030049Y0207143D01*
X0030330Y0206862D01*
X0030893Y0206580D01*
X0032580Y0206580D01*
X0033143Y0206862D01*
X0033424Y0207143D01*
X0033705Y0207705D01*
X0033705Y0208549D01*
X0029768Y0204049D02*
X0033705Y0204049D01*
X0030330Y0204049D02*
X0030049Y0203768D01*
X0029768Y0203206D01*
X0029768Y0202362D01*
X0030049Y0201800D01*
X0030612Y0201519D01*
X0033705Y0201519D01*
D66*
X0296907Y0082951D02*
X0296907Y0085200D01*
X0296907Y0084076D02*
X0292970Y0084076D01*
X0293532Y0084451D01*
X0293907Y0084825D01*
X0294095Y0085200D01*
X0292970Y0080514D02*
X0292970Y0080139D01*
X0293157Y0079764D01*
X0293345Y0079576D01*
X0293720Y0079389D01*
X0294470Y0079201D01*
X0295407Y0079201D01*
X0296157Y0079389D01*
X0296532Y0079576D01*
X0296720Y0079764D01*
X0296907Y0080139D01*
X0296907Y0080514D01*
X0296720Y0080888D01*
X0296532Y0081076D01*
X0296157Y0081263D01*
X0295407Y0081451D01*
X0294470Y0081451D01*
X0293720Y0081263D01*
X0293345Y0081076D01*
X0293157Y0080888D01*
X0292970Y0080514D01*
X0151369Y0056948D02*
X0153994Y0056948D01*
X0149869Y0057885D02*
X0152681Y0058822D01*
X0152681Y0056385D01*
X0150057Y0055260D02*
X0150057Y0052823D01*
X0151556Y0054136D01*
X0151556Y0053573D01*
X0151744Y0053198D01*
X0151931Y0053011D01*
X0152306Y0052823D01*
X0153244Y0052823D01*
X0153619Y0053011D01*
X0153806Y0053198D01*
X0153994Y0053573D01*
X0153994Y0054698D01*
X0153806Y0055073D01*
X0153619Y0055260D01*
X0323285Y0083513D02*
X0323285Y0080888D01*
X0327222Y0082576D01*
X0183915Y0048099D02*
X0183915Y0049974D01*
X0185790Y0050161D01*
X0185602Y0049974D01*
X0185415Y0049599D01*
X0185415Y0048661D01*
X0185602Y0048286D01*
X0185790Y0048099D01*
X0186165Y0047911D01*
X0187102Y0047911D01*
X0187477Y0048099D01*
X0187664Y0048286D01*
X0187852Y0048661D01*
X0187852Y0049599D01*
X0187664Y0049974D01*
X0187477Y0050161D01*
X0187852Y0046037D02*
X0187852Y0045287D01*
X0187664Y0044912D01*
X0187477Y0044724D01*
X0186915Y0044349D01*
X0186165Y0044162D01*
X0184665Y0044162D01*
X0184290Y0044349D01*
X0184102Y0044537D01*
X0183915Y0044912D01*
X0183915Y0045662D01*
X0184102Y0046037D01*
X0184290Y0046224D01*
X0184665Y0046412D01*
X0185602Y0046412D01*
X0185977Y0046224D01*
X0186165Y0046037D01*
X0186352Y0045662D01*
X0186352Y0044912D01*
X0186165Y0044537D01*
X0185977Y0044349D01*
X0185602Y0044162D01*
X0226828Y0082951D02*
X0226828Y0085200D01*
X0226828Y0084076D02*
X0222891Y0084076D01*
X0223454Y0084451D01*
X0223829Y0084825D01*
X0224016Y0085200D01*
X0222891Y0081638D02*
X0222891Y0079014D01*
X0226828Y0080701D01*
X0285227Y0048680D02*
X0287852Y0048680D01*
X0283727Y0049617D02*
X0286540Y0050555D01*
X0286540Y0048118D01*
X0287852Y0046430D02*
X0287852Y0045680D01*
X0287664Y0045305D01*
X0287477Y0045118D01*
X0286915Y0044743D01*
X0286165Y0044555D01*
X0284665Y0044555D01*
X0284290Y0044743D01*
X0284102Y0044930D01*
X0283915Y0045305D01*
X0283915Y0046055D01*
X0284102Y0046430D01*
X0284290Y0046618D01*
X0284665Y0046805D01*
X0285602Y0046805D01*
X0285977Y0046618D01*
X0286165Y0046430D01*
X0286352Y0046055D01*
X0286352Y0045305D01*
X0286165Y0044930D01*
X0285977Y0044743D01*
X0285602Y0044555D01*
X0246907Y0082951D02*
X0246907Y0085200D01*
X0246907Y0084076D02*
X0242970Y0084076D01*
X0243532Y0084451D01*
X0243907Y0084825D01*
X0244095Y0085200D01*
X0242970Y0079389D02*
X0242970Y0081263D01*
X0244845Y0081451D01*
X0244657Y0081263D01*
X0244470Y0080888D01*
X0244470Y0079951D01*
X0244657Y0079576D01*
X0244845Y0079389D01*
X0245220Y0079201D01*
X0246157Y0079201D01*
X0246532Y0079389D01*
X0246720Y0079576D01*
X0246907Y0079951D01*
X0246907Y0080888D01*
X0246720Y0081263D01*
X0246532Y0081451D01*
X0460167Y0049633D02*
X0460167Y0048883D01*
X0459979Y0048508D01*
X0459792Y0048320D01*
X0459229Y0047945D01*
X0458480Y0047758D01*
X0456980Y0047758D01*
X0456605Y0047945D01*
X0456417Y0048133D01*
X0456230Y0048508D01*
X0456230Y0049258D01*
X0456417Y0049633D01*
X0456605Y0049820D01*
X0456980Y0050008D01*
X0457917Y0050008D01*
X0458292Y0049820D01*
X0458480Y0049633D01*
X0458667Y0049258D01*
X0458667Y0048508D01*
X0458480Y0048133D01*
X0458292Y0047945D01*
X0457917Y0047758D01*
X0456230Y0044383D02*
X0456230Y0045133D01*
X0456417Y0045508D01*
X0456605Y0045696D01*
X0457167Y0046070D01*
X0457917Y0046258D01*
X0459417Y0046258D01*
X0459792Y0046070D01*
X0459979Y0045883D01*
X0460167Y0045508D01*
X0460167Y0044758D01*
X0459979Y0044383D01*
X0459792Y0044196D01*
X0459417Y0044008D01*
X0458480Y0044008D01*
X0458105Y0044196D01*
X0457917Y0044383D01*
X0457730Y0044758D01*
X0457730Y0045508D01*
X0457917Y0045883D01*
X0458105Y0046070D01*
X0458480Y0046258D01*
X0300432Y0059216D02*
X0300244Y0059029D01*
X0300057Y0058654D01*
X0300057Y0057716D01*
X0300244Y0057341D01*
X0300432Y0057154D01*
X0300807Y0056966D01*
X0301181Y0056966D01*
X0301744Y0057154D01*
X0303994Y0059404D01*
X0303994Y0056966D01*
X0301744Y0054717D02*
X0301556Y0055092D01*
X0301369Y0055279D01*
X0300994Y0055467D01*
X0300807Y0055467D01*
X0300432Y0055279D01*
X0300244Y0055092D01*
X0300057Y0054717D01*
X0300057Y0053967D01*
X0300244Y0053592D01*
X0300432Y0053404D01*
X0300807Y0053217D01*
X0300994Y0053217D01*
X0301369Y0053404D01*
X0301556Y0053592D01*
X0301744Y0053967D01*
X0301744Y0054717D01*
X0301931Y0055092D01*
X0302119Y0055279D01*
X0302494Y0055467D01*
X0303244Y0055467D01*
X0303619Y0055279D01*
X0303806Y0055092D01*
X0303994Y0054717D01*
X0303994Y0053967D01*
X0303806Y0053592D01*
X0303619Y0053404D01*
X0303244Y0053217D01*
X0302494Y0053217D01*
X0302119Y0053404D01*
X0301931Y0053592D01*
X0301744Y0053967D01*
X0200450Y0059010D02*
X0200450Y0056573D01*
X0201950Y0057885D01*
X0201950Y0057323D01*
X0202138Y0056948D01*
X0202325Y0056760D01*
X0202700Y0056573D01*
X0203637Y0056573D01*
X0204012Y0056760D01*
X0204200Y0056948D01*
X0204387Y0057323D01*
X0204387Y0058448D01*
X0204200Y0058822D01*
X0204012Y0059010D01*
X0202138Y0054323D02*
X0201950Y0054698D01*
X0201763Y0054885D01*
X0201388Y0055073D01*
X0201200Y0055073D01*
X0200825Y0054885D01*
X0200638Y0054698D01*
X0200450Y0054323D01*
X0200450Y0053573D01*
X0200638Y0053198D01*
X0200825Y0053011D01*
X0201200Y0052823D01*
X0201388Y0052823D01*
X0201763Y0053011D01*
X0201950Y0053198D01*
X0202138Y0053573D01*
X0202138Y0054323D01*
X0202325Y0054698D01*
X0202513Y0054885D01*
X0202888Y0055073D01*
X0203637Y0055073D01*
X0204012Y0054885D01*
X0204200Y0054698D01*
X0204387Y0054323D01*
X0204387Y0053573D01*
X0204200Y0053198D01*
X0204012Y0053011D01*
X0203637Y0052823D01*
X0202888Y0052823D01*
X0202513Y0053011D01*
X0202325Y0053198D01*
X0202138Y0053573D01*
X0273316Y0048339D02*
X0273316Y0050214D01*
X0275191Y0050401D01*
X0275004Y0050214D01*
X0274816Y0049839D01*
X0274816Y0048901D01*
X0275004Y0048526D01*
X0275191Y0048339D01*
X0275566Y0048151D01*
X0276504Y0048151D01*
X0276879Y0048339D01*
X0277066Y0048526D01*
X0277253Y0048901D01*
X0277253Y0049839D01*
X0277066Y0050214D01*
X0276879Y0050401D01*
X0273316Y0045714D02*
X0273316Y0045339D01*
X0273504Y0044964D01*
X0273691Y0044777D01*
X0274066Y0044589D01*
X0274816Y0044402D01*
X0275754Y0044402D01*
X0276504Y0044589D01*
X0276879Y0044777D01*
X0277066Y0044964D01*
X0277253Y0045339D01*
X0277253Y0045714D01*
X0277066Y0046089D01*
X0276879Y0046277D01*
X0276504Y0046464D01*
X0275754Y0046652D01*
X0274816Y0046652D01*
X0274066Y0046464D01*
X0273691Y0046277D01*
X0273504Y0046089D01*
X0273316Y0045714D01*
X0450844Y0049392D02*
X0450844Y0048642D01*
X0450657Y0048268D01*
X0450469Y0048080D01*
X0449907Y0047705D01*
X0449157Y0047518D01*
X0447657Y0047518D01*
X0447282Y0047705D01*
X0447094Y0047893D01*
X0446907Y0048268D01*
X0446907Y0049017D01*
X0447094Y0049392D01*
X0447282Y0049580D01*
X0447657Y0049767D01*
X0448594Y0049767D01*
X0448969Y0049580D01*
X0449157Y0049392D01*
X0449344Y0049017D01*
X0449344Y0048268D01*
X0449157Y0047893D01*
X0448969Y0047705D01*
X0448594Y0047518D01*
X0446907Y0043956D02*
X0446907Y0045830D01*
X0448782Y0046018D01*
X0448594Y0045830D01*
X0448407Y0045455D01*
X0448407Y0044518D01*
X0448594Y0044143D01*
X0448782Y0043956D01*
X0449157Y0043768D01*
X0450094Y0043768D01*
X0450469Y0043956D01*
X0450657Y0044143D01*
X0450844Y0044518D01*
X0450844Y0045455D01*
X0450657Y0045830D01*
X0450469Y0046018D01*
X0435883Y0057660D02*
X0435883Y0059910D01*
X0435883Y0058785D02*
X0431946Y0058785D01*
X0432509Y0059160D01*
X0432884Y0059535D01*
X0433071Y0059910D01*
X0431946Y0055223D02*
X0431946Y0054848D01*
X0432134Y0054473D01*
X0432321Y0054286D01*
X0432696Y0054098D01*
X0433446Y0053911D01*
X0434384Y0053911D01*
X0435133Y0054098D01*
X0435508Y0054286D01*
X0435696Y0054473D01*
X0435883Y0054848D01*
X0435883Y0055223D01*
X0435696Y0055598D01*
X0435508Y0055785D01*
X0435133Y0055973D01*
X0434384Y0056160D01*
X0433446Y0056160D01*
X0432696Y0055973D01*
X0432321Y0055785D01*
X0432134Y0055598D01*
X0431946Y0055223D01*
X0432321Y0052411D02*
X0432134Y0052223D01*
X0431946Y0051848D01*
X0431946Y0050911D01*
X0432134Y0050536D01*
X0432321Y0050349D01*
X0432696Y0050161D01*
X0433071Y0050161D01*
X0433634Y0050349D01*
X0435883Y0052598D01*
X0435883Y0050161D01*
D56*
X0501177Y0409169D02*
X0501748Y0409550D01*
X0502891Y0409550D01*
X0503462Y0409169D01*
X0504034Y0408407D01*
X0504319Y0407645D01*
X0504319Y0406121D01*
X0504034Y0405360D01*
X0503462Y0404598D01*
X0502891Y0404217D01*
X0501748Y0404217D01*
X0501177Y0404598D01*
X0502319Y0412217D02*
X0503748Y0411836D01*
X0505177Y0410693D01*
X0506034Y0408788D01*
X0506319Y0406883D01*
X0506034Y0404979D01*
X0505177Y0403074D01*
X0503748Y0401931D01*
X0502319Y0401550D01*
X0500891Y0401931D01*
X0499462Y0403074D01*
X0498605Y0404979D01*
X0498319Y0406883D01*
X0498605Y0408788D01*
X0499462Y0410693D01*
X0500891Y0411836D01*
X0502319Y0412217D01*
X0488605Y0403074D02*
X0488605Y0407264D01*
X0488891Y0408026D01*
X0489462Y0408407D01*
X0490605Y0408407D01*
X0491177Y0408026D01*
X0488605Y0403455D02*
X0489177Y0403074D01*
X0490605Y0403074D01*
X0491177Y0403455D01*
X0491462Y0404217D01*
X0491462Y0404979D01*
X0491177Y0405741D01*
X0490605Y0406121D01*
X0489177Y0406121D01*
X0488605Y0406502D01*
X0485748Y0408407D02*
X0485748Y0403074D01*
X0485748Y0407645D02*
X0485462Y0408026D01*
X0484891Y0408407D01*
X0484034Y0408407D01*
X0483462Y0408026D01*
X0483177Y0407264D01*
X0483177Y0403074D01*
X0477748Y0403074D02*
X0477748Y0411074D01*
X0477748Y0403455D02*
X0478319Y0403074D01*
X0479462Y0403074D01*
X0480034Y0403455D01*
X0480319Y0403836D01*
X0480605Y0404598D01*
X0480605Y0406883D01*
X0480319Y0407645D01*
X0480034Y0408026D01*
X0479462Y0408407D01*
X0478319Y0408407D01*
X0477748Y0408026D01*
X0474891Y0403074D02*
X0474891Y0408407D01*
X0474891Y0406883D02*
X0474605Y0407645D01*
X0474319Y0408026D01*
X0473748Y0408407D01*
X0473177Y0408407D01*
X0468891Y0403455D02*
X0469462Y0403074D01*
X0470605Y0403074D01*
X0471177Y0403455D01*
X0471462Y0404217D01*
X0471462Y0407264D01*
X0471177Y0408026D01*
X0470605Y0408407D01*
X0469462Y0408407D01*
X0468891Y0408026D01*
X0468605Y0407264D01*
X0468605Y0406502D01*
X0471462Y0405741D01*
X0466034Y0403074D02*
X0466034Y0408407D01*
X0466034Y0411074D02*
X0466319Y0410693D01*
X0466034Y0410312D01*
X0465748Y0410693D01*
X0466034Y0411074D01*
X0466034Y0410312D01*
X0463177Y0403074D02*
X0463177Y0411074D01*
X0462605Y0406121D02*
X0460891Y0403074D01*
X0460891Y0408407D02*
X0463177Y0405360D01*
X0455748Y0403074D02*
X0455748Y0407264D01*
X0456034Y0408026D01*
X0456605Y0408407D01*
X0457748Y0408407D01*
X0458319Y0408026D01*
X0455748Y0403455D02*
X0456319Y0403074D01*
X0457748Y0403074D01*
X0458319Y0403455D01*
X0458605Y0404217D01*
X0458605Y0404979D01*
X0458319Y0405741D01*
X0457748Y0406121D01*
X0456319Y0406121D01*
X0455748Y0406502D01*
X0452605Y0403455D02*
X0452605Y0403074D01*
X0452891Y0402312D01*
X0453177Y0401931D01*
X0445748Y0410312D02*
X0445462Y0410693D01*
X0444891Y0411074D01*
X0443462Y0411074D01*
X0442891Y0410693D01*
X0442605Y0410312D01*
X0442319Y0409550D01*
X0442319Y0408788D01*
X0442605Y0407645D01*
X0446034Y0403074D01*
X0442319Y0403074D01*
X0438605Y0411074D02*
X0438034Y0411074D01*
X0437462Y0410693D01*
X0437177Y0410312D01*
X0436891Y0409550D01*
X0436605Y0408026D01*
X0436605Y0406121D01*
X0436891Y0404598D01*
X0437177Y0403836D01*
X0437462Y0403455D01*
X0438034Y0403074D01*
X0438605Y0403074D01*
X0439177Y0403455D01*
X0439462Y0403836D01*
X0439748Y0404598D01*
X0440034Y0406121D01*
X0440034Y0408026D01*
X0439748Y0409550D01*
X0439462Y0410312D01*
X0439177Y0410693D01*
X0438605Y0411074D01*
X0434319Y0410312D02*
X0434034Y0410693D01*
X0433462Y0411074D01*
X0432034Y0411074D01*
X0431462Y0410693D01*
X0431177Y0410312D01*
X0430891Y0409550D01*
X0430891Y0408788D01*
X0431177Y0407645D01*
X0434605Y0403074D01*
X0430891Y0403074D01*
X0425177Y0403074D02*
X0428605Y0403074D01*
X0426891Y0403074D02*
X0426891Y0411074D01*
X0427462Y0409931D01*
X0428034Y0409169D01*
X0428605Y0408788D01*
D66*
X0237458Y0082951D02*
X0237458Y0085200D01*
X0237458Y0084076D02*
X0233521Y0084076D01*
X0234084Y0084451D01*
X0234459Y0084825D01*
X0234646Y0085200D01*
X0233521Y0079576D02*
X0233521Y0080326D01*
X0233709Y0080701D01*
X0233896Y0080888D01*
X0234459Y0081263D01*
X0235208Y0081451D01*
X0236708Y0081451D01*
X0237083Y0081263D01*
X0237271Y0081076D01*
X0237458Y0080701D01*
X0237458Y0079951D01*
X0237271Y0079576D01*
X0237083Y0079389D01*
X0236708Y0079201D01*
X0235771Y0079201D01*
X0235396Y0079389D01*
X0235208Y0079576D01*
X0235021Y0079951D01*
X0235021Y0080701D01*
X0235208Y0081076D01*
X0235396Y0081263D01*
X0235771Y0081451D01*
X0324072Y0022302D02*
X0324072Y0023052D01*
X0324260Y0023427D01*
X0324447Y0023614D01*
X0325010Y0023989D01*
X0325760Y0024177D01*
X0327259Y0024177D01*
X0327634Y0023989D01*
X0327822Y0023802D01*
X0328009Y0023427D01*
X0328009Y0022677D01*
X0327822Y0022302D01*
X0327634Y0022115D01*
X0327259Y0021927D01*
X0326322Y0021927D01*
X0325947Y0022115D01*
X0325760Y0022302D01*
X0325572Y0022677D01*
X0325572Y0023427D01*
X0325760Y0023802D01*
X0325947Y0023989D01*
X0326322Y0024177D01*
X0325385Y0018552D02*
X0328009Y0018552D01*
X0323885Y0019490D02*
X0326697Y0020427D01*
X0326697Y0017990D01*
X0439145Y0023033D02*
X0438958Y0023408D01*
X0438771Y0023596D01*
X0438396Y0023783D01*
X0438208Y0023783D01*
X0437833Y0023596D01*
X0437646Y0023408D01*
X0437458Y0023033D01*
X0437458Y0022283D01*
X0437646Y0021908D01*
X0437833Y0021721D01*
X0438208Y0021533D01*
X0438396Y0021533D01*
X0438771Y0021721D01*
X0438958Y0021908D01*
X0439145Y0022283D01*
X0439145Y0023033D01*
X0439333Y0023408D01*
X0439520Y0023596D01*
X0439895Y0023783D01*
X0440645Y0023783D01*
X0441020Y0023596D01*
X0441208Y0023408D01*
X0441395Y0023033D01*
X0441395Y0022283D01*
X0441208Y0021908D01*
X0441020Y0021721D01*
X0440645Y0021533D01*
X0439895Y0021533D01*
X0439520Y0021721D01*
X0439333Y0021908D01*
X0439145Y0022283D01*
X0437458Y0018159D02*
X0437458Y0018909D01*
X0437646Y0019284D01*
X0437833Y0019471D01*
X0438396Y0019846D01*
X0439145Y0020034D01*
X0440645Y0020034D01*
X0441020Y0019846D01*
X0441208Y0019659D01*
X0441395Y0019284D01*
X0441395Y0018534D01*
X0441208Y0018159D01*
X0441020Y0017971D01*
X0440645Y0017784D01*
X0439708Y0017784D01*
X0439333Y0017971D01*
X0439145Y0018159D01*
X0438958Y0018534D01*
X0438958Y0019284D01*
X0439145Y0019659D01*
X0439333Y0019846D01*
X0439708Y0020034D01*
X0410687Y0049392D02*
X0410687Y0048642D01*
X0410499Y0048268D01*
X0410312Y0048080D01*
X0409749Y0047705D01*
X0408999Y0047518D01*
X0407499Y0047518D01*
X0407124Y0047705D01*
X0406937Y0047893D01*
X0406750Y0048268D01*
X0406750Y0049017D01*
X0406937Y0049392D01*
X0407124Y0049580D01*
X0407499Y0049767D01*
X0408437Y0049767D01*
X0408812Y0049580D01*
X0408999Y0049392D01*
X0409187Y0049017D01*
X0409187Y0048268D01*
X0408999Y0047893D01*
X0408812Y0047705D01*
X0408437Y0047518D01*
X0410687Y0043768D02*
X0410687Y0046018D01*
X0410687Y0044893D02*
X0406750Y0044893D01*
X0407312Y0045268D01*
X0407687Y0045643D01*
X0407874Y0046018D01*
X0465017Y0058054D02*
X0465017Y0060304D01*
X0465017Y0059179D02*
X0461080Y0059179D01*
X0461643Y0059554D01*
X0462018Y0059929D01*
X0462205Y0060304D01*
X0461080Y0055617D02*
X0461080Y0055242D01*
X0461268Y0054867D01*
X0461455Y0054679D01*
X0461830Y0054492D01*
X0462580Y0054304D01*
X0463517Y0054304D01*
X0464267Y0054492D01*
X0464642Y0054679D01*
X0464830Y0054867D01*
X0465017Y0055242D01*
X0465017Y0055617D01*
X0464830Y0055992D01*
X0464642Y0056179D01*
X0464267Y0056367D01*
X0463517Y0056554D01*
X0462580Y0056554D01*
X0461830Y0056367D01*
X0461455Y0056179D01*
X0461268Y0055992D01*
X0461080Y0055617D01*
X0461080Y0050742D02*
X0461080Y0052617D01*
X0462955Y0052804D01*
X0462768Y0052617D01*
X0462580Y0052242D01*
X0462580Y0051305D01*
X0462768Y0050930D01*
X0462955Y0050742D01*
X0463330Y0050555D01*
X0464267Y0050555D01*
X0464642Y0050742D01*
X0464830Y0050930D01*
X0465017Y0051305D01*
X0465017Y0052242D01*
X0464830Y0052617D01*
X0464642Y0052804D01*
X0470135Y0086400D02*
X0470135Y0088650D01*
X0470135Y0087525D02*
X0466198Y0087525D01*
X0466761Y0087900D01*
X0467136Y0088275D01*
X0467323Y0088650D01*
X0470135Y0082651D02*
X0470135Y0084900D01*
X0470135Y0083776D02*
X0466198Y0083776D01*
X0466761Y0084151D01*
X0467136Y0084526D01*
X0467323Y0084900D01*
X0466198Y0081338D02*
X0466198Y0078901D01*
X0467698Y0080214D01*
X0467698Y0079651D01*
X0467886Y0079276D01*
X0468073Y0079089D01*
X0468448Y0078901D01*
X0469385Y0078901D01*
X0469760Y0079089D01*
X0469948Y0079276D01*
X0470135Y0079651D01*
X0470135Y0080776D01*
X0469948Y0081151D01*
X0469760Y0081338D01*
X0425647Y0057660D02*
X0425647Y0059910D01*
X0425647Y0058785D02*
X0421710Y0058785D01*
X0422273Y0059160D01*
X0422648Y0059535D01*
X0422835Y0059910D01*
X0421710Y0055223D02*
X0421710Y0054848D01*
X0421898Y0054473D01*
X0422085Y0054286D01*
X0422460Y0054098D01*
X0423210Y0053911D01*
X0424147Y0053911D01*
X0424897Y0054098D01*
X0425272Y0054286D01*
X0425460Y0054473D01*
X0425647Y0054848D01*
X0425647Y0055223D01*
X0425460Y0055598D01*
X0425272Y0055785D01*
X0424897Y0055973D01*
X0424147Y0056160D01*
X0423210Y0056160D01*
X0422460Y0055973D01*
X0422085Y0055785D01*
X0421898Y0055598D01*
X0421710Y0055223D01*
X0425647Y0050161D02*
X0425647Y0052411D01*
X0425647Y0051286D02*
X0421710Y0051286D01*
X0422273Y0051661D01*
X0422648Y0052036D01*
X0422835Y0052411D01*
X0204387Y0023971D02*
X0204387Y0021346D01*
X0208324Y0023033D01*
X0204387Y0018159D02*
X0204387Y0018909D01*
X0204575Y0019284D01*
X0204762Y0019471D01*
X0205325Y0019846D01*
X0206075Y0020034D01*
X0207574Y0020034D01*
X0207949Y0019846D01*
X0208137Y0019659D01*
X0208324Y0019284D01*
X0208324Y0018534D01*
X0208137Y0018159D01*
X0207949Y0017971D01*
X0207574Y0017784D01*
X0206637Y0017784D01*
X0206262Y0017971D01*
X0206075Y0018159D01*
X0205887Y0018534D01*
X0205887Y0019284D01*
X0206075Y0019659D01*
X0206262Y0019846D01*
X0206637Y0020034D01*
X0165917Y0023033D02*
X0165730Y0023408D01*
X0165542Y0023596D01*
X0165167Y0023783D01*
X0164980Y0023783D01*
X0164605Y0023596D01*
X0164417Y0023408D01*
X0164230Y0023033D01*
X0164230Y0022283D01*
X0164417Y0021908D01*
X0164605Y0021721D01*
X0164980Y0021533D01*
X0165167Y0021533D01*
X0165542Y0021721D01*
X0165730Y0021908D01*
X0165917Y0022283D01*
X0165917Y0023033D01*
X0166105Y0023408D01*
X0166292Y0023596D01*
X0166667Y0023783D01*
X0167417Y0023783D01*
X0167792Y0023596D01*
X0167979Y0023408D01*
X0168167Y0023033D01*
X0168167Y0022283D01*
X0167979Y0021908D01*
X0167792Y0021721D01*
X0167417Y0021533D01*
X0166667Y0021533D01*
X0166292Y0021721D01*
X0166105Y0021908D01*
X0165917Y0022283D01*
X0164230Y0019096D02*
X0164230Y0018721D01*
X0164417Y0018346D01*
X0164605Y0018159D01*
X0164980Y0017971D01*
X0165730Y0017784D01*
X0166667Y0017784D01*
X0167417Y0017971D01*
X0167792Y0018159D01*
X0167979Y0018346D01*
X0168167Y0018721D01*
X0168167Y0019096D01*
X0167979Y0019471D01*
X0167792Y0019659D01*
X0167417Y0019846D01*
X0166667Y0020034D01*
X0165730Y0020034D01*
X0164980Y0019846D01*
X0164605Y0019659D01*
X0164417Y0019471D01*
X0164230Y0019096D01*
X0468279Y0023427D02*
X0468092Y0023802D01*
X0467904Y0023989D01*
X0467529Y0024177D01*
X0467342Y0024177D01*
X0466967Y0023989D01*
X0466780Y0023802D01*
X0466592Y0023427D01*
X0466592Y0022677D01*
X0466780Y0022302D01*
X0466967Y0022115D01*
X0467342Y0021927D01*
X0467529Y0021927D01*
X0467904Y0022115D01*
X0468092Y0022302D01*
X0468279Y0022677D01*
X0468279Y0023427D01*
X0468467Y0023802D01*
X0468654Y0023989D01*
X0469029Y0024177D01*
X0469779Y0024177D01*
X0470154Y0023989D01*
X0470342Y0023802D01*
X0470529Y0023427D01*
X0470529Y0022677D01*
X0470342Y0022302D01*
X0470154Y0022115D01*
X0469779Y0021927D01*
X0469029Y0021927D01*
X0468654Y0022115D01*
X0468467Y0022302D01*
X0468279Y0022677D01*
X0470529Y0020052D02*
X0470529Y0019302D01*
X0470342Y0018927D01*
X0470154Y0018740D01*
X0469592Y0018365D01*
X0468842Y0018178D01*
X0467342Y0018178D01*
X0466967Y0018365D01*
X0466780Y0018552D01*
X0466592Y0018927D01*
X0466592Y0019677D01*
X0466780Y0020052D01*
X0466967Y0020240D01*
X0467342Y0020427D01*
X0468279Y0020427D01*
X0468654Y0020240D01*
X0468842Y0020052D01*
X0469029Y0019677D01*
X0469029Y0018927D01*
X0468842Y0018552D01*
X0468654Y0018365D01*
X0468279Y0018178D01*
X0315130Y0082576D02*
X0314942Y0082951D01*
X0314755Y0083138D01*
X0314380Y0083326D01*
X0314192Y0083326D01*
X0313817Y0083138D01*
X0313630Y0082951D01*
X0313442Y0082576D01*
X0313442Y0081826D01*
X0313630Y0081451D01*
X0313817Y0081263D01*
X0314192Y0081076D01*
X0314380Y0081076D01*
X0314755Y0081263D01*
X0314942Y0081451D01*
X0315130Y0081826D01*
X0315130Y0082576D01*
X0315317Y0082951D01*
X0315505Y0083138D01*
X0315880Y0083326D01*
X0316630Y0083326D01*
X0317004Y0083138D01*
X0317192Y0082951D01*
X0317379Y0082576D01*
X0317379Y0081826D01*
X0317192Y0081451D01*
X0317004Y0081263D01*
X0316630Y0081076D01*
X0315880Y0081076D01*
X0315505Y0081263D01*
X0315317Y0081451D01*
X0315130Y0081826D01*
X0320510Y0059216D02*
X0320323Y0059029D01*
X0320135Y0058654D01*
X0320135Y0057716D01*
X0320323Y0057341D01*
X0320510Y0057154D01*
X0320885Y0056966D01*
X0321260Y0056966D01*
X0321823Y0057154D01*
X0324072Y0059404D01*
X0324072Y0056966D01*
X0320135Y0053592D02*
X0320135Y0054342D01*
X0320323Y0054717D01*
X0320510Y0054904D01*
X0321073Y0055279D01*
X0321823Y0055467D01*
X0323322Y0055467D01*
X0323697Y0055279D01*
X0323885Y0055092D01*
X0324072Y0054717D01*
X0324072Y0053967D01*
X0323885Y0053592D01*
X0323697Y0053404D01*
X0323322Y0053217D01*
X0322385Y0053217D01*
X0322010Y0053404D01*
X0321823Y0053592D01*
X0321635Y0053967D01*
X0321635Y0054717D01*
X0321823Y0055092D01*
X0322010Y0055279D01*
X0322385Y0055467D01*
X0174072Y0023971D02*
X0174072Y0021346D01*
X0178009Y0023033D01*
X0178009Y0019659D02*
X0178009Y0018909D01*
X0177822Y0018534D01*
X0177634Y0018346D01*
X0177072Y0017971D01*
X0176322Y0017784D01*
X0174822Y0017784D01*
X0174447Y0017971D01*
X0174260Y0018159D01*
X0174072Y0018534D01*
X0174072Y0019284D01*
X0174260Y0019659D01*
X0174447Y0019846D01*
X0174822Y0020034D01*
X0175760Y0020034D01*
X0176135Y0019846D01*
X0176322Y0019659D01*
X0176510Y0019284D01*
X0176510Y0018534D01*
X0176322Y0018159D01*
X0176135Y0017971D01*
X0175760Y0017784D01*
X0420529Y0049392D02*
X0420529Y0048642D01*
X0420342Y0048268D01*
X0420154Y0048080D01*
X0419592Y0047705D01*
X0418842Y0047518D01*
X0417342Y0047518D01*
X0416967Y0047705D01*
X0416780Y0047893D01*
X0416592Y0048268D01*
X0416592Y0049017D01*
X0416780Y0049392D01*
X0416967Y0049580D01*
X0417342Y0049767D01*
X0418279Y0049767D01*
X0418654Y0049580D01*
X0418842Y0049392D01*
X0419029Y0049017D01*
X0419029Y0048268D01*
X0418842Y0047893D01*
X0418654Y0047705D01*
X0418279Y0047518D01*
X0416967Y0046018D02*
X0416780Y0045830D01*
X0416592Y0045455D01*
X0416592Y0044518D01*
X0416780Y0044143D01*
X0416967Y0043956D01*
X0417342Y0043768D01*
X0417717Y0043768D01*
X0418279Y0043956D01*
X0420529Y0046205D01*
X0420529Y0043768D01*
X0223285Y0048493D02*
X0223285Y0050367D01*
X0225160Y0050555D01*
X0224972Y0050367D01*
X0224785Y0049992D01*
X0224785Y0049055D01*
X0224972Y0048680D01*
X0225160Y0048493D01*
X0225535Y0048305D01*
X0226472Y0048305D01*
X0226847Y0048493D01*
X0227034Y0048680D01*
X0227222Y0049055D01*
X0227222Y0049992D01*
X0227034Y0050367D01*
X0226847Y0050555D01*
X0223285Y0044743D02*
X0223285Y0046618D01*
X0225160Y0046805D01*
X0224972Y0046618D01*
X0224785Y0046243D01*
X0224785Y0045305D01*
X0224972Y0044930D01*
X0225160Y0044743D01*
X0225535Y0044555D01*
X0226472Y0044555D01*
X0226847Y0044743D01*
X0227034Y0044930D01*
X0227222Y0045305D01*
X0227222Y0046243D01*
X0227034Y0046618D01*
X0226847Y0046805D01*
X0280372Y0059404D02*
X0280372Y0056966D01*
X0281871Y0058279D01*
X0281871Y0057716D01*
X0282059Y0057341D01*
X0282246Y0057154D01*
X0282621Y0056966D01*
X0283559Y0056966D01*
X0283934Y0057154D01*
X0284121Y0057341D01*
X0284309Y0057716D01*
X0284309Y0058841D01*
X0284121Y0059216D01*
X0283934Y0059404D01*
X0280372Y0054529D02*
X0280372Y0054154D01*
X0280559Y0053779D01*
X0280747Y0053592D01*
X0281121Y0053404D01*
X0281871Y0053217D01*
X0282809Y0053217D01*
X0283559Y0053404D01*
X0283934Y0053592D01*
X0284121Y0053779D01*
X0284309Y0054154D01*
X0284309Y0054529D01*
X0284121Y0054904D01*
X0283934Y0055092D01*
X0283559Y0055279D01*
X0282809Y0055467D01*
X0281871Y0055467D01*
X0281121Y0055279D01*
X0280747Y0055092D01*
X0280559Y0054904D01*
X0280372Y0054529D01*
X0190608Y0059010D02*
X0190608Y0056573D01*
X0192108Y0057885D01*
X0192108Y0057323D01*
X0192295Y0056948D01*
X0192483Y0056760D01*
X0192858Y0056573D01*
X0193795Y0056573D01*
X0194170Y0056760D01*
X0194357Y0056948D01*
X0194545Y0057323D01*
X0194545Y0058448D01*
X0194357Y0058822D01*
X0194170Y0059010D01*
X0194545Y0054698D02*
X0194545Y0053948D01*
X0194357Y0053573D01*
X0194170Y0053386D01*
X0193607Y0053011D01*
X0192858Y0052823D01*
X0191358Y0052823D01*
X0190983Y0053011D01*
X0190795Y0053198D01*
X0190608Y0053573D01*
X0190608Y0054323D01*
X0190795Y0054698D01*
X0190983Y0054885D01*
X0191358Y0055073D01*
X0192295Y0055073D01*
X0192670Y0054885D01*
X0192858Y0054698D01*
X0193045Y0054323D01*
X0193045Y0053573D01*
X0192858Y0053198D01*
X0192670Y0053011D01*
X0192295Y0052823D01*
X0203994Y0048099D02*
X0203994Y0049974D01*
X0205868Y0050161D01*
X0205681Y0049974D01*
X0205493Y0049599D01*
X0205493Y0048661D01*
X0205681Y0048286D01*
X0205868Y0048099D01*
X0206243Y0047911D01*
X0207181Y0047911D01*
X0207556Y0048099D01*
X0207743Y0048286D01*
X0207931Y0048661D01*
X0207931Y0049599D01*
X0207743Y0049974D01*
X0207556Y0050161D01*
X0203994Y0046599D02*
X0203994Y0043974D01*
X0207931Y0045662D01*
X0266986Y0082951D02*
X0266986Y0085200D01*
X0266986Y0084076D02*
X0263049Y0084076D01*
X0263611Y0084451D01*
X0263986Y0084825D01*
X0264174Y0085200D01*
X0263049Y0081638D02*
X0263049Y0079201D01*
X0264549Y0080514D01*
X0264549Y0079951D01*
X0264736Y0079576D01*
X0264924Y0079389D01*
X0265298Y0079201D01*
X0266236Y0079201D01*
X0266611Y0079389D01*
X0266798Y0079576D01*
X0266986Y0079951D01*
X0266986Y0081076D01*
X0266798Y0081451D01*
X0266611Y0081638D01*
X0398594Y0023033D02*
X0398407Y0023408D01*
X0398219Y0023596D01*
X0397844Y0023783D01*
X0397657Y0023783D01*
X0397282Y0023596D01*
X0397094Y0023408D01*
X0396907Y0023033D01*
X0396907Y0022283D01*
X0397094Y0021908D01*
X0397282Y0021721D01*
X0397657Y0021533D01*
X0397844Y0021533D01*
X0398219Y0021721D01*
X0398407Y0021908D01*
X0398594Y0022283D01*
X0398594Y0023033D01*
X0398782Y0023408D01*
X0398969Y0023596D01*
X0399344Y0023783D01*
X0400094Y0023783D01*
X0400469Y0023596D01*
X0400657Y0023408D01*
X0400844Y0023033D01*
X0400844Y0022283D01*
X0400657Y0021908D01*
X0400469Y0021721D01*
X0400094Y0021533D01*
X0399344Y0021533D01*
X0398969Y0021721D01*
X0398782Y0021908D01*
X0398594Y0022283D01*
X0397282Y0020034D02*
X0397094Y0019846D01*
X0396907Y0019471D01*
X0396907Y0018534D01*
X0397094Y0018159D01*
X0397282Y0017971D01*
X0397657Y0017784D01*
X0398032Y0017784D01*
X0398594Y0017971D01*
X0400844Y0020221D01*
X0400844Y0017784D01*
X0410687Y0086007D02*
X0410687Y0088256D01*
X0410687Y0087131D02*
X0406750Y0087131D01*
X0407312Y0087506D01*
X0407687Y0087881D01*
X0407874Y0088256D01*
X0406750Y0083569D02*
X0406750Y0083194D01*
X0406937Y0082819D01*
X0407124Y0082632D01*
X0407499Y0082445D01*
X0408249Y0082257D01*
X0409187Y0082257D01*
X0409937Y0082445D01*
X0410312Y0082632D01*
X0410499Y0082819D01*
X0410687Y0083194D01*
X0410687Y0083569D01*
X0410499Y0083944D01*
X0410312Y0084132D01*
X0409937Y0084319D01*
X0409187Y0084507D01*
X0408249Y0084507D01*
X0407499Y0084319D01*
X0407124Y0084132D01*
X0406937Y0083944D01*
X0406750Y0083569D01*
X0406750Y0080945D02*
X0406750Y0078320D01*
X0410687Y0080007D01*
X0194132Y0084807D02*
X0193945Y0084619D01*
X0193757Y0084244D01*
X0193757Y0083307D01*
X0193945Y0082932D01*
X0194132Y0082744D01*
X0194507Y0082557D01*
X0194882Y0082557D01*
X0195445Y0082744D01*
X0197694Y0084994D01*
X0197694Y0082557D01*
X0193757Y0080120D02*
X0193757Y0079745D01*
X0193945Y0079370D01*
X0194132Y0079182D01*
X0194507Y0078995D01*
X0195257Y0078807D01*
X0196195Y0078807D01*
X0196945Y0078995D01*
X0197319Y0079182D01*
X0197507Y0079370D01*
X0197694Y0079745D01*
X0197694Y0080120D01*
X0197507Y0080495D01*
X0197319Y0080682D01*
X0196945Y0080870D01*
X0196195Y0081057D01*
X0195257Y0081057D01*
X0194507Y0080870D01*
X0194132Y0080682D01*
X0193945Y0080495D01*
X0193757Y0080120D01*
X0428909Y0023033D02*
X0428722Y0023408D01*
X0428534Y0023596D01*
X0428159Y0023783D01*
X0427972Y0023783D01*
X0427597Y0023596D01*
X0427409Y0023408D01*
X0427222Y0023033D01*
X0427222Y0022283D01*
X0427409Y0021908D01*
X0427597Y0021721D01*
X0427972Y0021533D01*
X0428159Y0021533D01*
X0428534Y0021721D01*
X0428722Y0021908D01*
X0428909Y0022283D01*
X0428909Y0023033D01*
X0429097Y0023408D01*
X0429284Y0023596D01*
X0429659Y0023783D01*
X0430409Y0023783D01*
X0430784Y0023596D01*
X0430972Y0023408D01*
X0431159Y0023033D01*
X0431159Y0022283D01*
X0430972Y0021908D01*
X0430784Y0021721D01*
X0430409Y0021533D01*
X0429659Y0021533D01*
X0429284Y0021721D01*
X0429097Y0021908D01*
X0428909Y0022283D01*
X0427222Y0017971D02*
X0427222Y0019846D01*
X0429097Y0020034D01*
X0428909Y0019846D01*
X0428722Y0019471D01*
X0428722Y0018534D01*
X0428909Y0018159D01*
X0429097Y0017971D01*
X0429472Y0017784D01*
X0430409Y0017784D01*
X0430784Y0017971D01*
X0430972Y0018159D01*
X0431159Y0018534D01*
X0431159Y0019471D01*
X0430972Y0019846D01*
X0430784Y0020034D01*
X0460167Y0086247D02*
X0460167Y0088496D01*
X0460167Y0087372D02*
X0456230Y0087372D01*
X0456792Y0087747D01*
X0457167Y0088121D01*
X0457355Y0088496D01*
X0460167Y0082497D02*
X0460167Y0084747D01*
X0460167Y0083622D02*
X0456230Y0083622D01*
X0456792Y0083997D01*
X0457167Y0084372D01*
X0457355Y0084747D01*
X0456605Y0080997D02*
X0456417Y0080810D01*
X0456230Y0080435D01*
X0456230Y0079498D01*
X0456417Y0079123D01*
X0456605Y0078935D01*
X0456980Y0078748D01*
X0457355Y0078748D01*
X0457917Y0078935D01*
X0460167Y0081185D01*
X0460167Y0078748D01*
X0441001Y0086007D02*
X0441001Y0088256D01*
X0441001Y0087131D02*
X0437064Y0087131D01*
X0437627Y0087506D01*
X0438002Y0087881D01*
X0438189Y0088256D01*
X0441001Y0082257D02*
X0441001Y0084507D01*
X0441001Y0083382D02*
X0437064Y0083382D01*
X0437627Y0083757D01*
X0438002Y0084132D01*
X0438189Y0084507D01*
X0437064Y0079820D02*
X0437064Y0079445D01*
X0437252Y0079070D01*
X0437439Y0078882D01*
X0437814Y0078695D01*
X0438564Y0078508D01*
X0439502Y0078508D01*
X0440252Y0078695D01*
X0440627Y0078882D01*
X0440814Y0079070D01*
X0441001Y0079445D01*
X0441001Y0079820D01*
X0440814Y0080195D01*
X0440627Y0080382D01*
X0440252Y0080570D01*
X0439502Y0080757D01*
X0438564Y0080757D01*
X0437814Y0080570D01*
X0437439Y0080382D01*
X0437252Y0080195D01*
X0437064Y0079820D01*
X0287458Y0082951D02*
X0287458Y0085200D01*
X0287458Y0084076D02*
X0283521Y0084076D01*
X0284084Y0084451D01*
X0284459Y0084825D01*
X0284646Y0085200D01*
X0287458Y0079201D02*
X0287458Y0081451D01*
X0287458Y0080326D02*
X0283521Y0080326D01*
X0284084Y0080701D01*
X0284459Y0081076D01*
X0284646Y0081451D01*
X0304912Y0048680D02*
X0307537Y0048680D01*
X0303412Y0049617D02*
X0306225Y0050555D01*
X0306225Y0048118D01*
X0303600Y0046993D02*
X0303600Y0044368D01*
X0307537Y0046055D01*
X0310668Y0059216D02*
X0310480Y0059029D01*
X0310293Y0058654D01*
X0310293Y0057716D01*
X0310480Y0057341D01*
X0310668Y0057154D01*
X0311043Y0056966D01*
X0311418Y0056966D01*
X0311980Y0057154D01*
X0314230Y0059404D01*
X0314230Y0056966D01*
X0310293Y0055654D02*
X0310293Y0053029D01*
X0314230Y0054717D01*
X0273710Y0022148D02*
X0273710Y0022898D01*
X0273898Y0023273D01*
X0274085Y0023461D01*
X0274648Y0023836D01*
X0275397Y0024023D01*
X0276897Y0024023D01*
X0277272Y0023836D01*
X0277460Y0023648D01*
X0277647Y0023273D01*
X0277647Y0022523D01*
X0277460Y0022148D01*
X0277272Y0021961D01*
X0276897Y0021774D01*
X0275960Y0021774D01*
X0275585Y0021961D01*
X0275397Y0022148D01*
X0275210Y0022523D01*
X0275210Y0023273D01*
X0275397Y0023648D01*
X0275585Y0023836D01*
X0275960Y0024023D01*
X0277647Y0019899D02*
X0277647Y0019149D01*
X0277460Y0018774D01*
X0277272Y0018586D01*
X0276710Y0018211D01*
X0275960Y0018024D01*
X0274460Y0018024D01*
X0274085Y0018211D01*
X0273898Y0018399D01*
X0273710Y0018774D01*
X0273710Y0019524D01*
X0273898Y0019899D01*
X0274085Y0020086D01*
X0274460Y0020274D01*
X0275397Y0020274D01*
X0275772Y0020086D01*
X0275960Y0019899D01*
X0276147Y0019524D01*
X0276147Y0018774D01*
X0275960Y0018399D01*
X0275772Y0018211D01*
X0275397Y0018024D01*
X0230372Y0059404D02*
X0230372Y0056966D01*
X0231871Y0058279D01*
X0231871Y0057716D01*
X0232059Y0057341D01*
X0232246Y0057154D01*
X0232621Y0056966D01*
X0233559Y0056966D01*
X0233934Y0057154D01*
X0234121Y0057341D01*
X0234309Y0057716D01*
X0234309Y0058841D01*
X0234121Y0059216D01*
X0233934Y0059404D01*
X0230372Y0053404D02*
X0230372Y0055279D01*
X0232246Y0055467D01*
X0232059Y0055279D01*
X0231871Y0054904D01*
X0231871Y0053967D01*
X0232059Y0053592D01*
X0232246Y0053404D01*
X0232621Y0053217D01*
X0233559Y0053217D01*
X0233934Y0053404D01*
X0234121Y0053592D01*
X0234309Y0053967D01*
X0234309Y0054904D01*
X0234121Y0055279D01*
X0233934Y0055467D01*
X0253600Y0048493D02*
X0253600Y0050367D01*
X0255475Y0050555D01*
X0255287Y0050367D01*
X0255100Y0049992D01*
X0255100Y0049055D01*
X0255287Y0048680D01*
X0255475Y0048493D01*
X0255850Y0048305D01*
X0256787Y0048305D01*
X0257162Y0048493D01*
X0257349Y0048680D01*
X0257537Y0049055D01*
X0257537Y0049992D01*
X0257349Y0050367D01*
X0257162Y0050555D01*
X0253975Y0046805D02*
X0253787Y0046618D01*
X0253600Y0046243D01*
X0253600Y0045305D01*
X0253787Y0044930D01*
X0253975Y0044743D01*
X0254350Y0044555D01*
X0254725Y0044555D01*
X0255287Y0044743D01*
X0257537Y0046993D01*
X0257537Y0044555D01*
X0400450Y0086007D02*
X0400450Y0088256D01*
X0400450Y0087131D02*
X0396513Y0087131D01*
X0397076Y0087506D01*
X0397451Y0087881D01*
X0397638Y0088256D01*
X0396513Y0083569D02*
X0396513Y0083194D01*
X0396701Y0082819D01*
X0396888Y0082632D01*
X0397263Y0082445D01*
X0398013Y0082257D01*
X0398951Y0082257D01*
X0399700Y0082445D01*
X0400075Y0082632D01*
X0400263Y0082819D01*
X0400450Y0083194D01*
X0400450Y0083569D01*
X0400263Y0083944D01*
X0400075Y0084132D01*
X0399700Y0084319D01*
X0398951Y0084507D01*
X0398013Y0084507D01*
X0397263Y0084319D01*
X0396888Y0084132D01*
X0396701Y0083944D01*
X0396513Y0083569D01*
X0396513Y0078882D02*
X0396513Y0079632D01*
X0396701Y0080007D01*
X0396888Y0080195D01*
X0397451Y0080570D01*
X0398201Y0080757D01*
X0399700Y0080757D01*
X0400075Y0080570D01*
X0400263Y0080382D01*
X0400450Y0080007D01*
X0400450Y0079257D01*
X0400263Y0078882D01*
X0400075Y0078695D01*
X0399700Y0078508D01*
X0398763Y0078508D01*
X0398388Y0078695D01*
X0398201Y0078882D01*
X0398013Y0079257D01*
X0398013Y0080007D01*
X0398201Y0080382D01*
X0398388Y0080570D01*
X0398763Y0080757D01*
X0173679Y0048286D02*
X0173679Y0049036D01*
X0173866Y0049411D01*
X0174054Y0049599D01*
X0174616Y0049974D01*
X0175366Y0050161D01*
X0176866Y0050161D01*
X0177241Y0049974D01*
X0177428Y0049786D01*
X0177616Y0049411D01*
X0177616Y0048661D01*
X0177428Y0048286D01*
X0177241Y0048099D01*
X0176866Y0047911D01*
X0175928Y0047911D01*
X0175553Y0048099D01*
X0175366Y0048286D01*
X0175178Y0048661D01*
X0175178Y0049411D01*
X0175366Y0049786D01*
X0175553Y0049974D01*
X0175928Y0050161D01*
X0173679Y0045474D02*
X0173679Y0045099D01*
X0173866Y0044724D01*
X0174054Y0044537D01*
X0174429Y0044349D01*
X0175178Y0044162D01*
X0176116Y0044162D01*
X0176866Y0044349D01*
X0177241Y0044537D01*
X0177428Y0044724D01*
X0177616Y0045099D01*
X0177616Y0045474D01*
X0177428Y0045849D01*
X0177241Y0046037D01*
X0176866Y0046224D01*
X0176116Y0046412D01*
X0175178Y0046412D01*
X0174429Y0046224D01*
X0174054Y0046037D01*
X0173866Y0045849D01*
X0173679Y0045474D01*
X0194545Y0023971D02*
X0194545Y0021346D01*
X0198482Y0023033D01*
X0194545Y0020221D02*
X0194545Y0017596D01*
X0198482Y0019284D01*
X0243757Y0024364D02*
X0243757Y0021740D01*
X0247694Y0023427D01*
X0244132Y0020427D02*
X0243945Y0020240D01*
X0243757Y0019865D01*
X0243757Y0018927D01*
X0243945Y0018552D01*
X0244132Y0018365D01*
X0244507Y0018178D01*
X0244882Y0018178D01*
X0245445Y0018365D01*
X0247694Y0020615D01*
X0247694Y0018178D01*
X0181684Y0056948D02*
X0184309Y0056948D01*
X0180184Y0057885D02*
X0182996Y0058822D01*
X0182996Y0056385D01*
X0180372Y0054136D02*
X0180372Y0053761D01*
X0180559Y0053386D01*
X0180747Y0053198D01*
X0181121Y0053011D01*
X0181871Y0052823D01*
X0182809Y0052823D01*
X0183559Y0053011D01*
X0183934Y0053198D01*
X0184121Y0053386D01*
X0184309Y0053761D01*
X0184309Y0054136D01*
X0184121Y0054511D01*
X0183934Y0054698D01*
X0183559Y0054885D01*
X0182809Y0055073D01*
X0181871Y0055073D01*
X0181121Y0054885D01*
X0180747Y0054698D01*
X0180559Y0054511D01*
X0180372Y0054136D01*
X0330353Y0059216D02*
X0330165Y0059029D01*
X0329978Y0058654D01*
X0329978Y0057716D01*
X0330165Y0057341D01*
X0330353Y0057154D01*
X0330728Y0056966D01*
X0331103Y0056966D01*
X0331665Y0057154D01*
X0333915Y0059404D01*
X0333915Y0056966D01*
X0329978Y0053404D02*
X0329978Y0055279D01*
X0331853Y0055467D01*
X0331665Y0055279D01*
X0331478Y0054904D01*
X0331478Y0053967D01*
X0331665Y0053592D01*
X0331853Y0053404D01*
X0332228Y0053217D01*
X0333165Y0053217D01*
X0333540Y0053404D01*
X0333727Y0053592D01*
X0333915Y0053967D01*
X0333915Y0054904D01*
X0333727Y0055279D01*
X0333540Y0055467D01*
X0314230Y0022302D02*
X0314230Y0023052D01*
X0314417Y0023427D01*
X0314605Y0023614D01*
X0315167Y0023989D01*
X0315917Y0024177D01*
X0317417Y0024177D01*
X0317792Y0023989D01*
X0317979Y0023802D01*
X0318167Y0023427D01*
X0318167Y0022677D01*
X0317979Y0022302D01*
X0317792Y0022115D01*
X0317417Y0021927D01*
X0316480Y0021927D01*
X0316105Y0022115D01*
X0315917Y0022302D01*
X0315730Y0022677D01*
X0315730Y0023427D01*
X0315917Y0023802D01*
X0316105Y0023989D01*
X0316480Y0024177D01*
X0314230Y0018365D02*
X0314230Y0020240D01*
X0316105Y0020427D01*
X0315917Y0020240D01*
X0315730Y0019865D01*
X0315730Y0018927D01*
X0315917Y0018552D01*
X0316105Y0018365D01*
X0316480Y0018178D01*
X0317417Y0018178D01*
X0317792Y0018365D01*
X0317979Y0018552D01*
X0318167Y0018927D01*
X0318167Y0019865D01*
X0317979Y0020240D01*
X0317792Y0020427D01*
X0276860Y0082797D02*
X0276860Y0085047D01*
X0276860Y0083922D02*
X0272923Y0083922D01*
X0273485Y0084297D01*
X0273860Y0084672D01*
X0274048Y0085047D01*
X0273298Y0081297D02*
X0273110Y0081110D01*
X0272923Y0080735D01*
X0272923Y0079798D01*
X0273110Y0079423D01*
X0273298Y0079235D01*
X0273673Y0079048D01*
X0274048Y0079048D01*
X0274610Y0079235D01*
X0276860Y0081485D01*
X0276860Y0079048D01*
X0333915Y0022302D02*
X0333915Y0023052D01*
X0334102Y0023427D01*
X0334290Y0023614D01*
X0334852Y0023989D01*
X0335602Y0024177D01*
X0337102Y0024177D01*
X0337477Y0023989D01*
X0337664Y0023802D01*
X0337852Y0023427D01*
X0337852Y0022677D01*
X0337664Y0022302D01*
X0337477Y0022115D01*
X0337102Y0021927D01*
X0336165Y0021927D01*
X0335790Y0022115D01*
X0335602Y0022302D01*
X0335415Y0022677D01*
X0335415Y0023427D01*
X0335602Y0023802D01*
X0335790Y0023989D01*
X0336165Y0024177D01*
X0333915Y0020615D02*
X0333915Y0018178D01*
X0335415Y0019490D01*
X0335415Y0018927D01*
X0335602Y0018552D01*
X0335790Y0018365D01*
X0336165Y0018178D01*
X0337102Y0018178D01*
X0337477Y0018365D01*
X0337664Y0018552D01*
X0337852Y0018927D01*
X0337852Y0020052D01*
X0337664Y0020427D01*
X0337477Y0020615D01*
X0223679Y0024364D02*
X0223679Y0021740D01*
X0227616Y0023427D01*
X0224991Y0018552D02*
X0227616Y0018552D01*
X0223491Y0019490D02*
X0226303Y0020427D01*
X0226303Y0017990D01*
X0213316Y0048339D02*
X0213316Y0050214D01*
X0215191Y0050401D01*
X0215004Y0050214D01*
X0214816Y0049839D01*
X0214816Y0048901D01*
X0215004Y0048526D01*
X0215191Y0048339D01*
X0215566Y0048151D01*
X0216504Y0048151D01*
X0216879Y0048339D01*
X0217066Y0048526D01*
X0217253Y0048901D01*
X0217253Y0049839D01*
X0217066Y0050214D01*
X0216879Y0050401D01*
X0213316Y0044777D02*
X0213316Y0045527D01*
X0213504Y0045902D01*
X0213691Y0046089D01*
X0214254Y0046464D01*
X0215004Y0046652D01*
X0216504Y0046652D01*
X0216879Y0046464D01*
X0217066Y0046277D01*
X0217253Y0045902D01*
X0217253Y0045152D01*
X0217066Y0044777D01*
X0216879Y0044589D01*
X0216504Y0044402D01*
X0215566Y0044402D01*
X0215191Y0044589D01*
X0215004Y0044777D01*
X0214816Y0045152D01*
X0214816Y0045902D01*
X0215004Y0046277D01*
X0215191Y0046464D01*
X0215566Y0046652D01*
X0293757Y0022302D02*
X0293757Y0023052D01*
X0293945Y0023427D01*
X0294132Y0023614D01*
X0294695Y0023989D01*
X0295445Y0024177D01*
X0296945Y0024177D01*
X0297319Y0023989D01*
X0297507Y0023802D01*
X0297694Y0023427D01*
X0297694Y0022677D01*
X0297507Y0022302D01*
X0297319Y0022115D01*
X0296945Y0021927D01*
X0296007Y0021927D01*
X0295632Y0022115D01*
X0295445Y0022302D01*
X0295257Y0022677D01*
X0295257Y0023427D01*
X0295445Y0023802D01*
X0295632Y0023989D01*
X0296007Y0024177D01*
X0293757Y0020615D02*
X0293757Y0017990D01*
X0297694Y0019677D01*
X0307143Y0082951D02*
X0307143Y0082201D01*
X0306956Y0081826D01*
X0306768Y0081638D01*
X0306206Y0081263D01*
X0305456Y0081076D01*
X0303956Y0081076D01*
X0303581Y0081263D01*
X0303394Y0081451D01*
X0303206Y0081826D01*
X0303206Y0082576D01*
X0303394Y0082951D01*
X0303581Y0083138D01*
X0303956Y0083326D01*
X0304894Y0083326D01*
X0305268Y0083138D01*
X0305456Y0082951D01*
X0305643Y0082576D01*
X0305643Y0081826D01*
X0305456Y0081451D01*
X0305268Y0081263D01*
X0304894Y0081076D01*
X0184309Y0023971D02*
X0184309Y0021346D01*
X0188246Y0023033D01*
X0185996Y0019284D02*
X0185808Y0019659D01*
X0185621Y0019846D01*
X0185246Y0020034D01*
X0185058Y0020034D01*
X0184684Y0019846D01*
X0184496Y0019659D01*
X0184309Y0019284D01*
X0184309Y0018534D01*
X0184496Y0018159D01*
X0184684Y0017971D01*
X0185058Y0017784D01*
X0185246Y0017784D01*
X0185621Y0017971D01*
X0185808Y0018159D01*
X0185996Y0018534D01*
X0185996Y0019284D01*
X0186183Y0019659D01*
X0186371Y0019846D01*
X0186746Y0020034D01*
X0187496Y0020034D01*
X0187871Y0019846D01*
X0188058Y0019659D01*
X0188246Y0019284D01*
X0188246Y0018534D01*
X0188058Y0018159D01*
X0187871Y0017971D01*
X0187496Y0017784D01*
X0186746Y0017784D01*
X0186371Y0017971D01*
X0186183Y0018159D01*
X0185996Y0018534D01*
X0263836Y0024364D02*
X0263836Y0021740D01*
X0267773Y0023427D01*
X0263836Y0019490D02*
X0263836Y0019115D01*
X0264024Y0018740D01*
X0264211Y0018552D01*
X0264586Y0018365D01*
X0265336Y0018178D01*
X0266273Y0018178D01*
X0267023Y0018365D01*
X0267398Y0018552D01*
X0267586Y0018740D01*
X0267773Y0019115D01*
X0267773Y0019490D01*
X0267586Y0019865D01*
X0267398Y0020052D01*
X0267023Y0020240D01*
X0266273Y0020427D01*
X0265336Y0020427D01*
X0264586Y0020240D01*
X0264211Y0020052D01*
X0264024Y0019865D01*
X0263836Y0019490D01*
X0213710Y0024211D02*
X0213710Y0021586D01*
X0217647Y0023273D01*
X0213710Y0018211D02*
X0213710Y0020086D01*
X0215585Y0020274D01*
X0215397Y0020086D01*
X0215210Y0019711D01*
X0215210Y0018774D01*
X0215397Y0018399D01*
X0215585Y0018211D01*
X0215960Y0018024D01*
X0216897Y0018024D01*
X0217272Y0018211D01*
X0217460Y0018399D01*
X0217647Y0018774D01*
X0217647Y0019711D01*
X0217460Y0020086D01*
X0217272Y0020274D01*
X0194151Y0048099D02*
X0194151Y0049974D01*
X0196026Y0050161D01*
X0195838Y0049974D01*
X0195651Y0049599D01*
X0195651Y0048661D01*
X0195838Y0048286D01*
X0196026Y0048099D01*
X0196401Y0047911D01*
X0197338Y0047911D01*
X0197713Y0048099D01*
X0197901Y0048286D01*
X0198088Y0048661D01*
X0198088Y0049599D01*
X0197901Y0049974D01*
X0197713Y0050161D01*
X0195838Y0045662D02*
X0195651Y0046037D01*
X0195463Y0046224D01*
X0195088Y0046412D01*
X0194901Y0046412D01*
X0194526Y0046224D01*
X0194339Y0046037D01*
X0194151Y0045662D01*
X0194151Y0044912D01*
X0194339Y0044537D01*
X0194526Y0044349D01*
X0194901Y0044162D01*
X0195088Y0044162D01*
X0195463Y0044349D01*
X0195651Y0044537D01*
X0195838Y0044912D01*
X0195838Y0045662D01*
X0196026Y0046037D01*
X0196213Y0046224D01*
X0196588Y0046412D01*
X0197338Y0046412D01*
X0197713Y0046224D01*
X0197901Y0046037D01*
X0198088Y0045662D01*
X0198088Y0044912D01*
X0197901Y0044537D01*
X0197713Y0044349D01*
X0197338Y0044162D01*
X0196588Y0044162D01*
X0196213Y0044349D01*
X0196026Y0044537D01*
X0195838Y0044912D01*
X0216860Y0082797D02*
X0216860Y0085047D01*
X0216860Y0083922D02*
X0212923Y0083922D01*
X0213485Y0084297D01*
X0213860Y0084672D01*
X0214048Y0085047D01*
X0214610Y0080547D02*
X0214423Y0080922D01*
X0214235Y0081110D01*
X0213860Y0081297D01*
X0213673Y0081297D01*
X0213298Y0081110D01*
X0213110Y0080922D01*
X0212923Y0080547D01*
X0212923Y0079798D01*
X0213110Y0079423D01*
X0213298Y0079235D01*
X0213673Y0079048D01*
X0213860Y0079048D01*
X0214235Y0079235D01*
X0214423Y0079423D01*
X0214610Y0079798D01*
X0214610Y0080547D01*
X0214798Y0080922D01*
X0214985Y0081110D01*
X0215360Y0081297D01*
X0216110Y0081297D01*
X0216485Y0081110D01*
X0216672Y0080922D01*
X0216860Y0080547D01*
X0216860Y0079798D01*
X0216672Y0079423D01*
X0216485Y0079235D01*
X0216110Y0079048D01*
X0215360Y0079048D01*
X0214985Y0079235D01*
X0214798Y0079423D01*
X0214610Y0079798D01*
X0253994Y0024364D02*
X0253994Y0021740D01*
X0257931Y0023427D01*
X0257931Y0018178D02*
X0257931Y0020427D01*
X0257931Y0019302D02*
X0253994Y0019302D01*
X0254556Y0019677D01*
X0254931Y0020052D01*
X0255118Y0020427D01*
X0470135Y0049786D02*
X0470135Y0049036D01*
X0469948Y0048661D01*
X0469760Y0048474D01*
X0469198Y0048099D01*
X0468448Y0047911D01*
X0466948Y0047911D01*
X0466573Y0048099D01*
X0466386Y0048286D01*
X0466198Y0048661D01*
X0466198Y0049411D01*
X0466386Y0049786D01*
X0466573Y0049974D01*
X0466948Y0050161D01*
X0467886Y0050161D01*
X0468261Y0049974D01*
X0468448Y0049786D01*
X0468636Y0049411D01*
X0468636Y0048661D01*
X0468448Y0048286D01*
X0468261Y0048099D01*
X0467886Y0047911D01*
X0466198Y0046599D02*
X0466198Y0043974D01*
X0470135Y0045662D01*
X0395726Y0059629D02*
X0395726Y0058879D01*
X0395538Y0058504D01*
X0395351Y0058316D01*
X0394789Y0057941D01*
X0394039Y0057754D01*
X0392539Y0057754D01*
X0392164Y0057941D01*
X0391976Y0058129D01*
X0391789Y0058504D01*
X0391789Y0059254D01*
X0391976Y0059629D01*
X0392164Y0059816D01*
X0392539Y0060004D01*
X0393476Y0060004D01*
X0393851Y0059816D01*
X0394039Y0059629D01*
X0394226Y0059254D01*
X0394226Y0058504D01*
X0394039Y0058129D01*
X0393851Y0057941D01*
X0393476Y0057754D01*
X0393476Y0055504D02*
X0393289Y0055879D01*
X0393101Y0056067D01*
X0392726Y0056254D01*
X0392539Y0056254D01*
X0392164Y0056067D01*
X0391976Y0055879D01*
X0391789Y0055504D01*
X0391789Y0054754D01*
X0391976Y0054379D01*
X0392164Y0054192D01*
X0392539Y0054004D01*
X0392726Y0054004D01*
X0393101Y0054192D01*
X0393289Y0054379D01*
X0393476Y0054754D01*
X0393476Y0055504D01*
X0393664Y0055879D01*
X0393851Y0056067D01*
X0394226Y0056254D01*
X0394976Y0056254D01*
X0395351Y0056067D01*
X0395538Y0055879D01*
X0395726Y0055504D01*
X0395726Y0054754D01*
X0395538Y0054379D01*
X0395351Y0054192D01*
X0394976Y0054004D01*
X0394226Y0054004D01*
X0393851Y0054192D01*
X0393664Y0054379D01*
X0393476Y0054754D01*
X0153600Y0048286D02*
X0153600Y0049036D01*
X0153787Y0049411D01*
X0153975Y0049599D01*
X0154537Y0049974D01*
X0155287Y0050161D01*
X0156787Y0050161D01*
X0157162Y0049974D01*
X0157349Y0049786D01*
X0157537Y0049411D01*
X0157537Y0048661D01*
X0157349Y0048286D01*
X0157162Y0048099D01*
X0156787Y0047911D01*
X0155850Y0047911D01*
X0155475Y0048099D01*
X0155287Y0048286D01*
X0155100Y0048661D01*
X0155100Y0049411D01*
X0155287Y0049786D01*
X0155475Y0049974D01*
X0155850Y0050161D01*
X0153975Y0046412D02*
X0153787Y0046224D01*
X0153600Y0045849D01*
X0153600Y0044912D01*
X0153787Y0044537D01*
X0153975Y0044349D01*
X0154350Y0044162D01*
X0154725Y0044162D01*
X0155287Y0044349D01*
X0157537Y0046599D01*
X0157537Y0044162D01*
X0239820Y0059404D02*
X0239820Y0056966D01*
X0241320Y0058279D01*
X0241320Y0057716D01*
X0241508Y0057341D01*
X0241695Y0057154D01*
X0242070Y0056966D01*
X0243007Y0056966D01*
X0243382Y0057154D01*
X0243570Y0057341D01*
X0243757Y0057716D01*
X0243757Y0058841D01*
X0243570Y0059216D01*
X0243382Y0059404D01*
X0241133Y0053592D02*
X0243757Y0053592D01*
X0239633Y0054529D02*
X0242445Y0055467D01*
X0242445Y0053029D01*
D10*
X0558905Y0426340D02*
X0558905Y0442088D01*
X0555531Y0426340D02*
X0555531Y0434589D01*
X0555906Y0436089D01*
X0556655Y0436839D01*
X0557780Y0436839D01*
X0558530Y0436089D01*
X0558905Y0435339D01*
X0552906Y0436839D02*
X0549906Y0436839D01*
X0551781Y0442088D02*
X0551781Y0428590D01*
X0551406Y0427090D01*
X0550656Y0426340D01*
X0549906Y0426340D01*
X0548406Y0436839D02*
X0545407Y0436839D01*
X0547282Y0442088D02*
X0547282Y0428590D01*
X0546907Y0427090D01*
X0546157Y0426340D01*
X0545407Y0426340D01*
X0542782Y0436839D02*
X0542782Y0421091D01*
X0542782Y0436089D02*
X0542032Y0436839D01*
X0540532Y0436839D01*
X0539783Y0436089D01*
X0539408Y0435339D01*
X0539033Y0433840D01*
X0539033Y0429340D01*
X0539408Y0427840D01*
X0539783Y0427090D01*
X0540532Y0426340D01*
X0542032Y0426340D01*
X0542782Y0427090D01*
X0535658Y0427840D02*
X0535283Y0427090D01*
X0535658Y0426340D01*
X0536033Y0427090D01*
X0535658Y0427840D01*
X0535658Y0426340D01*
X0535658Y0436089D02*
X0535283Y0435339D01*
X0535658Y0434589D01*
X0536033Y0435339D01*
X0535658Y0436089D01*
X0535658Y0434589D01*
X0526284Y0442838D02*
X0533033Y0422591D01*
X0518035Y0442838D02*
X0524784Y0422591D01*
X0515411Y0426340D02*
X0515411Y0436839D01*
X0515411Y0433840D02*
X0515036Y0435339D01*
X0514661Y0436089D01*
X0513911Y0436839D01*
X0513161Y0436839D01*
X0507162Y0436839D02*
X0507162Y0426340D01*
X0510536Y0436839D02*
X0510536Y0428590D01*
X0510161Y0427090D01*
X0509411Y0426340D01*
X0508286Y0426340D01*
X0507537Y0427090D01*
X0507162Y0427840D01*
X0503787Y0427090D02*
X0503037Y0426340D01*
X0501537Y0426340D01*
X0500787Y0427090D01*
X0500412Y0428590D01*
X0500412Y0429340D01*
X0500787Y0430840D01*
X0501537Y0431590D01*
X0502662Y0431590D01*
X0503412Y0432340D01*
X0503787Y0433840D01*
X0503787Y0434589D01*
X0503412Y0436089D01*
X0502662Y0436839D01*
X0501537Y0436839D01*
X0500787Y0436089D01*
X0494038Y0427090D02*
X0494788Y0426340D01*
X0496288Y0426340D01*
X0497038Y0427090D01*
X0497413Y0428590D01*
X0497413Y0434589D01*
X0497038Y0436089D01*
X0496288Y0436839D01*
X0494788Y0436839D01*
X0494038Y0436089D01*
X0493663Y0434589D01*
X0493663Y0433090D01*
X0497413Y0431590D01*
X0491414Y0436839D02*
X0488414Y0436839D01*
X0490289Y0426340D02*
X0490289Y0439839D01*
X0489914Y0441339D01*
X0489164Y0442088D01*
X0488414Y0442088D01*
X0485789Y0426340D02*
X0485789Y0436839D01*
X0485789Y0442088D02*
X0486164Y0441339D01*
X0485789Y0440589D01*
X0485414Y0441339D01*
X0485789Y0442088D01*
X0485789Y0440589D01*
X0482040Y0427840D02*
X0481665Y0427090D01*
X0482040Y0426340D01*
X0482415Y0427090D01*
X0482040Y0427840D01*
X0482040Y0426340D01*
X0474916Y0427090D02*
X0475666Y0426340D01*
X0477165Y0426340D01*
X0477915Y0427090D01*
X0478290Y0427840D01*
X0478665Y0429340D01*
X0478665Y0433840D01*
X0478290Y0435339D01*
X0477915Y0436089D01*
X0477165Y0436839D01*
X0475666Y0436839D01*
X0474916Y0436089D01*
X0470416Y0426340D02*
X0471166Y0427090D01*
X0471541Y0427840D01*
X0471916Y0429340D01*
X0471916Y0433840D01*
X0471541Y0435339D01*
X0471166Y0436089D01*
X0470416Y0436839D01*
X0469291Y0436839D01*
X0468541Y0436089D01*
X0468166Y0435339D01*
X0467792Y0433840D01*
X0467792Y0429340D01*
X0468166Y0427840D01*
X0468541Y0427090D01*
X0469291Y0426340D01*
X0470416Y0426340D01*
X0464417Y0426340D02*
X0464417Y0436839D01*
X0464417Y0435339D02*
X0464042Y0436089D01*
X0463292Y0436839D01*
X0462167Y0436839D01*
X0461417Y0436089D01*
X0461042Y0434589D01*
X0461042Y0426340D01*
X0461042Y0434589D02*
X0460667Y0436089D01*
X0459918Y0436839D01*
X0458793Y0436839D01*
X0458043Y0436089D01*
X0457668Y0434589D01*
X0457668Y0426340D01*
X0448294Y0442838D02*
X0455043Y0422591D01*
X0446044Y0427090D02*
X0445294Y0426340D01*
X0443795Y0426340D01*
X0443045Y0427090D01*
X0442670Y0428590D01*
X0442670Y0429340D01*
X0443045Y0430840D01*
X0443795Y0431590D01*
X0444919Y0431590D01*
X0445669Y0432340D01*
X0446044Y0433840D01*
X0446044Y0434589D01*
X0445669Y0436089D01*
X0444919Y0436839D01*
X0443795Y0436839D01*
X0443045Y0436089D01*
X0433671Y0442838D02*
X0440420Y0422591D01*
X0431046Y0426340D02*
X0431046Y0442088D01*
X0427672Y0426340D02*
X0427672Y0434589D01*
X0428046Y0436089D01*
X0428796Y0436839D01*
X0429921Y0436839D01*
X0430671Y0436089D01*
X0431046Y0435339D01*
X0420922Y0427090D02*
X0421672Y0426340D01*
X0423172Y0426340D01*
X0423922Y0427090D01*
X0424297Y0428590D01*
X0424297Y0434589D01*
X0423922Y0436089D01*
X0423172Y0436839D01*
X0421672Y0436839D01*
X0420922Y0436089D01*
X0420547Y0434589D01*
X0420547Y0433090D01*
X0424297Y0431590D01*
X0416048Y0426340D02*
X0416798Y0427090D01*
X0417173Y0428590D01*
X0417173Y0442088D01*
X0411924Y0426340D02*
X0412673Y0427090D01*
X0413048Y0428590D01*
X0413048Y0442088D01*
X0405924Y0427090D02*
X0406674Y0426340D01*
X0408174Y0426340D01*
X0408924Y0427090D01*
X0409299Y0428590D01*
X0409299Y0434589D01*
X0408924Y0436089D01*
X0408174Y0436839D01*
X0406674Y0436839D01*
X0405924Y0436089D01*
X0405549Y0434589D01*
X0405549Y0433090D01*
X0409299Y0431590D01*
X0402175Y0436839D02*
X0402175Y0426340D01*
X0402175Y0435339D02*
X0401800Y0436089D01*
X0401050Y0436839D01*
X0399925Y0436839D01*
X0399175Y0436089D01*
X0398800Y0434589D01*
X0398800Y0426340D01*
X0390926Y0426340D02*
X0395426Y0426340D01*
X0393176Y0426340D02*
X0393176Y0442088D01*
X0393926Y0439839D01*
X0394676Y0438339D01*
X0395426Y0437589D01*
X0387927Y0440589D02*
X0387552Y0441339D01*
X0386802Y0442088D01*
X0384927Y0442088D01*
X0384177Y0441339D01*
X0383802Y0440589D01*
X0383427Y0439089D01*
X0383427Y0437589D01*
X0383802Y0435339D01*
X0388301Y0426340D01*
X0383427Y0426340D01*
X0375928Y0426340D02*
X0380427Y0426340D01*
X0378178Y0426340D02*
X0378178Y0442088D01*
X0378928Y0439839D01*
X0379678Y0438339D01*
X0380427Y0437589D01*
X0373303Y0436839D02*
X0371429Y0426340D01*
X0369554Y0436839D01*
X0363180Y0426340D02*
X0363180Y0434589D01*
X0363555Y0436089D01*
X0364304Y0436839D01*
X0365804Y0436839D01*
X0366554Y0436089D01*
X0363180Y0427090D02*
X0363930Y0426340D01*
X0365804Y0426340D01*
X0366554Y0427090D01*
X0366929Y0428590D01*
X0366929Y0430090D01*
X0366554Y0431590D01*
X0365804Y0432340D01*
X0363930Y0432340D01*
X0363180Y0433090D01*
X0356055Y0436839D02*
X0356055Y0424091D01*
X0356430Y0422591D01*
X0356805Y0421841D01*
X0357555Y0421091D01*
X0358680Y0421091D01*
X0359430Y0421841D01*
X0356055Y0427090D02*
X0356805Y0426340D01*
X0358305Y0426340D01*
X0359055Y0427090D01*
X0359430Y0427840D01*
X0359805Y0429340D01*
X0359805Y0433840D01*
X0359430Y0435339D01*
X0359055Y0436089D01*
X0358305Y0436839D01*
X0356805Y0436839D01*
X0356055Y0436089D01*
D66*
X0415411Y0057660D02*
X0415411Y0059910D01*
X0415411Y0058785D02*
X0411474Y0058785D01*
X0412036Y0059160D01*
X0412411Y0059535D01*
X0412599Y0059910D01*
X0411474Y0055223D02*
X0411474Y0054848D01*
X0411661Y0054473D01*
X0411849Y0054286D01*
X0412224Y0054098D01*
X0412974Y0053911D01*
X0413911Y0053911D01*
X0414661Y0054098D01*
X0415036Y0054286D01*
X0415223Y0054473D01*
X0415411Y0054848D01*
X0415411Y0055223D01*
X0415223Y0055598D01*
X0415036Y0055785D01*
X0414661Y0055973D01*
X0413911Y0056160D01*
X0412974Y0056160D01*
X0412224Y0055973D01*
X0411849Y0055785D01*
X0411661Y0055598D01*
X0411474Y0055223D01*
X0411474Y0051473D02*
X0411474Y0051098D01*
X0411661Y0050723D01*
X0411849Y0050536D01*
X0412224Y0050349D01*
X0412974Y0050161D01*
X0413911Y0050161D01*
X0414661Y0050349D01*
X0415036Y0050536D01*
X0415223Y0050723D01*
X0415411Y0051098D01*
X0415411Y0051473D01*
X0415223Y0051848D01*
X0415036Y0052036D01*
X0414661Y0052223D01*
X0413911Y0052411D01*
X0412974Y0052411D01*
X0412224Y0052223D01*
X0411849Y0052036D01*
X0411661Y0051848D01*
X0411474Y0051473D01*
X0445726Y0057660D02*
X0445726Y0059910D01*
X0445726Y0058785D02*
X0441789Y0058785D01*
X0442351Y0059160D01*
X0442726Y0059535D01*
X0442914Y0059910D01*
X0441789Y0055223D02*
X0441789Y0054848D01*
X0441976Y0054473D01*
X0442164Y0054286D01*
X0442539Y0054098D01*
X0443289Y0053911D01*
X0444226Y0053911D01*
X0444976Y0054098D01*
X0445351Y0054286D01*
X0445538Y0054473D01*
X0445726Y0054848D01*
X0445726Y0055223D01*
X0445538Y0055598D01*
X0445351Y0055785D01*
X0444976Y0055973D01*
X0444226Y0056160D01*
X0443289Y0056160D01*
X0442539Y0055973D01*
X0442164Y0055785D01*
X0441976Y0055598D01*
X0441789Y0055223D01*
X0441789Y0052598D02*
X0441789Y0050161D01*
X0443289Y0051473D01*
X0443289Y0050911D01*
X0443476Y0050536D01*
X0443664Y0050349D01*
X0444039Y0050161D01*
X0444976Y0050161D01*
X0445351Y0050349D01*
X0445538Y0050536D01*
X0445726Y0050911D01*
X0445726Y0052036D01*
X0445538Y0052411D01*
X0445351Y0052598D01*
X0408831Y0023033D02*
X0408643Y0023408D01*
X0408456Y0023596D01*
X0408081Y0023783D01*
X0407893Y0023783D01*
X0407518Y0023596D01*
X0407331Y0023408D01*
X0407143Y0023033D01*
X0407143Y0022283D01*
X0407331Y0021908D01*
X0407518Y0021721D01*
X0407893Y0021533D01*
X0408081Y0021533D01*
X0408456Y0021721D01*
X0408643Y0021908D01*
X0408831Y0022283D01*
X0408831Y0023033D01*
X0409018Y0023408D01*
X0409205Y0023596D01*
X0409580Y0023783D01*
X0410330Y0023783D01*
X0410705Y0023596D01*
X0410893Y0023408D01*
X0411080Y0023033D01*
X0411080Y0022283D01*
X0410893Y0021908D01*
X0410705Y0021721D01*
X0410330Y0021533D01*
X0409580Y0021533D01*
X0409205Y0021721D01*
X0409018Y0021908D01*
X0408831Y0022283D01*
X0407143Y0020221D02*
X0407143Y0017784D01*
X0408643Y0019096D01*
X0408643Y0018534D01*
X0408831Y0018159D01*
X0409018Y0017971D01*
X0409393Y0017784D01*
X0410330Y0017784D01*
X0410705Y0017971D01*
X0410893Y0018159D01*
X0411080Y0018534D01*
X0411080Y0019659D01*
X0410893Y0020034D01*
X0410705Y0020221D01*
X0315148Y0048680D02*
X0317773Y0048680D01*
X0313649Y0049617D02*
X0316461Y0050555D01*
X0316461Y0048118D01*
X0313836Y0044930D02*
X0313836Y0045680D01*
X0314024Y0046055D01*
X0314211Y0046243D01*
X0314774Y0046618D01*
X0315523Y0046805D01*
X0317023Y0046805D01*
X0317398Y0046618D01*
X0317586Y0046430D01*
X0317773Y0046055D01*
X0317773Y0045305D01*
X0317586Y0044930D01*
X0317398Y0044743D01*
X0317023Y0044555D01*
X0316086Y0044555D01*
X0315711Y0044743D01*
X0315523Y0044930D01*
X0315336Y0045305D01*
X0315336Y0046055D01*
X0315523Y0046430D01*
X0315711Y0046618D01*
X0316086Y0046805D01*
X0333127Y0081451D02*
X0333127Y0082201D01*
X0333315Y0082576D01*
X0333502Y0082763D01*
X0334065Y0083138D01*
X0334815Y0083326D01*
X0336315Y0083326D01*
X0336690Y0083138D01*
X0336877Y0082951D01*
X0337064Y0082576D01*
X0337064Y0081826D01*
X0336877Y0081451D01*
X0336690Y0081263D01*
X0336315Y0081076D01*
X0335377Y0081076D01*
X0335002Y0081263D01*
X0334815Y0081451D01*
X0334627Y0081826D01*
X0334627Y0082576D01*
X0334815Y0082951D01*
X0335002Y0083138D01*
X0335377Y0083326D01*
X0284309Y0022302D02*
X0284309Y0023052D01*
X0284496Y0023427D01*
X0284684Y0023614D01*
X0285246Y0023989D01*
X0285996Y0024177D01*
X0287496Y0024177D01*
X0287871Y0023989D01*
X0288058Y0023802D01*
X0288246Y0023427D01*
X0288246Y0022677D01*
X0288058Y0022302D01*
X0287871Y0022115D01*
X0287496Y0021927D01*
X0286558Y0021927D01*
X0286183Y0022115D01*
X0285996Y0022302D01*
X0285808Y0022677D01*
X0285808Y0023427D01*
X0285996Y0023802D01*
X0286183Y0023989D01*
X0286558Y0024177D01*
X0285996Y0019677D02*
X0285808Y0020052D01*
X0285621Y0020240D01*
X0285246Y0020427D01*
X0285058Y0020427D01*
X0284684Y0020240D01*
X0284496Y0020052D01*
X0284309Y0019677D01*
X0284309Y0018927D01*
X0284496Y0018552D01*
X0284684Y0018365D01*
X0285058Y0018178D01*
X0285246Y0018178D01*
X0285621Y0018365D01*
X0285808Y0018552D01*
X0285996Y0018927D01*
X0285996Y0019677D01*
X0286183Y0020052D01*
X0286371Y0020240D01*
X0286746Y0020427D01*
X0287496Y0020427D01*
X0287871Y0020240D01*
X0288058Y0020052D01*
X0288246Y0019677D01*
X0288246Y0018927D01*
X0288058Y0018552D01*
X0287871Y0018365D01*
X0287496Y0018178D01*
X0286746Y0018178D01*
X0286371Y0018365D01*
X0286183Y0018552D01*
X0285996Y0018927D01*
X0259899Y0059404D02*
X0259899Y0056966D01*
X0261399Y0058279D01*
X0261399Y0057716D01*
X0261586Y0057341D01*
X0261774Y0057154D01*
X0262149Y0056966D01*
X0263086Y0056966D01*
X0263461Y0057154D01*
X0263649Y0057341D01*
X0263836Y0057716D01*
X0263836Y0058841D01*
X0263649Y0059216D01*
X0263461Y0059404D01*
X0260274Y0055467D02*
X0260087Y0055279D01*
X0259899Y0054904D01*
X0259899Y0053967D01*
X0260087Y0053592D01*
X0260274Y0053404D01*
X0260649Y0053217D01*
X0261024Y0053217D01*
X0261586Y0053404D01*
X0263836Y0055654D01*
X0263836Y0053217D01*
X0263442Y0048493D02*
X0263442Y0050367D01*
X0265317Y0050555D01*
X0265130Y0050367D01*
X0264942Y0049992D01*
X0264942Y0049055D01*
X0265130Y0048680D01*
X0265317Y0048493D01*
X0265692Y0048305D01*
X0266630Y0048305D01*
X0267004Y0048493D01*
X0267192Y0048680D01*
X0267379Y0049055D01*
X0267379Y0049992D01*
X0267192Y0050367D01*
X0267004Y0050555D01*
X0267379Y0044555D02*
X0267379Y0046805D01*
X0267379Y0045680D02*
X0263442Y0045680D01*
X0264005Y0046055D01*
X0264380Y0046430D01*
X0264567Y0046805D01*
X0303994Y0022302D02*
X0303994Y0023052D01*
X0304181Y0023427D01*
X0304369Y0023614D01*
X0304931Y0023989D01*
X0305681Y0024177D01*
X0307181Y0024177D01*
X0307556Y0023989D01*
X0307743Y0023802D01*
X0307931Y0023427D01*
X0307931Y0022677D01*
X0307743Y0022302D01*
X0307556Y0022115D01*
X0307181Y0021927D01*
X0306243Y0021927D01*
X0305868Y0022115D01*
X0305681Y0022302D01*
X0305493Y0022677D01*
X0305493Y0023427D01*
X0305681Y0023802D01*
X0305868Y0023989D01*
X0306243Y0024177D01*
X0303994Y0018552D02*
X0303994Y0019302D01*
X0304181Y0019677D01*
X0304369Y0019865D01*
X0304931Y0020240D01*
X0305681Y0020427D01*
X0307181Y0020427D01*
X0307556Y0020240D01*
X0307743Y0020052D01*
X0307931Y0019677D01*
X0307931Y0018927D01*
X0307743Y0018552D01*
X0307556Y0018365D01*
X0307181Y0018178D01*
X0306243Y0018178D01*
X0305868Y0018365D01*
X0305681Y0018552D01*
X0305493Y0018927D01*
X0305493Y0019677D01*
X0305681Y0020052D01*
X0305868Y0020240D01*
X0306243Y0020427D01*
X0183896Y0084807D02*
X0183709Y0084619D01*
X0183521Y0084244D01*
X0183521Y0083307D01*
X0183709Y0082932D01*
X0183896Y0082744D01*
X0184271Y0082557D01*
X0184646Y0082557D01*
X0185208Y0082744D01*
X0187458Y0084994D01*
X0187458Y0082557D01*
X0187458Y0078807D02*
X0187458Y0081057D01*
X0187458Y0079932D02*
X0183521Y0079932D01*
X0184084Y0080307D01*
X0184459Y0080682D01*
X0184646Y0081057D01*
X0448988Y0023033D02*
X0448801Y0023408D01*
X0448613Y0023596D01*
X0448238Y0023783D01*
X0448051Y0023783D01*
X0447676Y0023596D01*
X0447488Y0023408D01*
X0447301Y0023033D01*
X0447301Y0022283D01*
X0447488Y0021908D01*
X0447676Y0021721D01*
X0448051Y0021533D01*
X0448238Y0021533D01*
X0448613Y0021721D01*
X0448801Y0021908D01*
X0448988Y0022283D01*
X0448988Y0023033D01*
X0449175Y0023408D01*
X0449363Y0023596D01*
X0449738Y0023783D01*
X0450488Y0023783D01*
X0450863Y0023596D01*
X0451050Y0023408D01*
X0451238Y0023033D01*
X0451238Y0022283D01*
X0451050Y0021908D01*
X0450863Y0021721D01*
X0450488Y0021533D01*
X0449738Y0021533D01*
X0449363Y0021721D01*
X0449175Y0021908D01*
X0448988Y0022283D01*
X0447301Y0020221D02*
X0447301Y0017596D01*
X0451238Y0019284D01*
X0269773Y0059250D02*
X0269773Y0056813D01*
X0271273Y0058125D01*
X0271273Y0057563D01*
X0271460Y0057188D01*
X0271648Y0057000D01*
X0272023Y0056813D01*
X0272960Y0056813D01*
X0273335Y0057000D01*
X0273523Y0057188D01*
X0273710Y0057563D01*
X0273710Y0058688D01*
X0273523Y0059063D01*
X0273335Y0059250D01*
X0273710Y0053063D02*
X0273710Y0055313D01*
X0273710Y0054188D02*
X0269773Y0054188D01*
X0270336Y0054563D01*
X0270711Y0054938D01*
X0270898Y0055313D01*
X0450844Y0086007D02*
X0450844Y0088256D01*
X0450844Y0087131D02*
X0446907Y0087131D01*
X0447469Y0087506D01*
X0447844Y0087881D01*
X0448032Y0088256D01*
X0450844Y0082257D02*
X0450844Y0084507D01*
X0450844Y0083382D02*
X0446907Y0083382D01*
X0447469Y0083757D01*
X0447844Y0084132D01*
X0448032Y0084507D01*
X0450844Y0078508D02*
X0450844Y0080757D01*
X0450844Y0079632D02*
X0446907Y0079632D01*
X0447469Y0080007D01*
X0447844Y0080382D01*
X0448032Y0080757D01*
X0243364Y0048493D02*
X0243364Y0050367D01*
X0245238Y0050555D01*
X0245051Y0050367D01*
X0244864Y0049992D01*
X0244864Y0049055D01*
X0245051Y0048680D01*
X0245238Y0048493D01*
X0245613Y0048305D01*
X0246551Y0048305D01*
X0246926Y0048493D01*
X0247113Y0048680D01*
X0247301Y0049055D01*
X0247301Y0049992D01*
X0247113Y0050367D01*
X0246926Y0050555D01*
X0243364Y0046993D02*
X0243364Y0044555D01*
X0244864Y0045868D01*
X0244864Y0045305D01*
X0245051Y0044930D01*
X0245238Y0044743D01*
X0245613Y0044555D01*
X0246551Y0044555D01*
X0246926Y0044743D01*
X0247113Y0044930D01*
X0247301Y0045305D01*
X0247301Y0046430D01*
X0247113Y0046805D01*
X0246926Y0046993D01*
X0430765Y0049392D02*
X0430765Y0048642D01*
X0430578Y0048268D01*
X0430390Y0048080D01*
X0429828Y0047705D01*
X0429078Y0047518D01*
X0427578Y0047518D01*
X0427203Y0047705D01*
X0427016Y0047893D01*
X0426828Y0048268D01*
X0426828Y0049017D01*
X0427016Y0049392D01*
X0427203Y0049580D01*
X0427578Y0049767D01*
X0428516Y0049767D01*
X0428891Y0049580D01*
X0429078Y0049392D01*
X0429265Y0049017D01*
X0429265Y0048268D01*
X0429078Y0047893D01*
X0428891Y0047705D01*
X0428516Y0047518D01*
X0426828Y0046205D02*
X0426828Y0043768D01*
X0428328Y0045080D01*
X0428328Y0044518D01*
X0428516Y0044143D01*
X0428703Y0043956D01*
X0429078Y0043768D01*
X0430015Y0043768D01*
X0430390Y0043956D01*
X0430578Y0044143D01*
X0430765Y0044518D01*
X0430765Y0045643D01*
X0430578Y0046018D01*
X0430390Y0046205D01*
X0161605Y0056948D02*
X0164230Y0056948D01*
X0160105Y0057885D02*
X0162918Y0058822D01*
X0162918Y0056385D01*
X0160668Y0055073D02*
X0160480Y0054885D01*
X0160293Y0054511D01*
X0160293Y0053573D01*
X0160480Y0053198D01*
X0160668Y0053011D01*
X0161043Y0052823D01*
X0161418Y0052823D01*
X0161980Y0053011D01*
X0164230Y0055260D01*
X0164230Y0052823D01*
X0430765Y0086007D02*
X0430765Y0088256D01*
X0430765Y0087131D02*
X0426828Y0087131D01*
X0427391Y0087506D01*
X0427766Y0087881D01*
X0427953Y0088256D01*
X0426828Y0083569D02*
X0426828Y0083194D01*
X0427016Y0082819D01*
X0427203Y0082632D01*
X0427578Y0082445D01*
X0428328Y0082257D01*
X0429265Y0082257D01*
X0430015Y0082445D01*
X0430390Y0082632D01*
X0430578Y0082819D01*
X0430765Y0083194D01*
X0430765Y0083569D01*
X0430578Y0083944D01*
X0430390Y0084132D01*
X0430015Y0084319D01*
X0429265Y0084507D01*
X0428328Y0084507D01*
X0427578Y0084319D01*
X0427203Y0084132D01*
X0427016Y0083944D01*
X0426828Y0083569D01*
X0430765Y0080382D02*
X0430765Y0079632D01*
X0430578Y0079257D01*
X0430390Y0079070D01*
X0429828Y0078695D01*
X0429078Y0078508D01*
X0427578Y0078508D01*
X0427203Y0078695D01*
X0427016Y0078882D01*
X0426828Y0079257D01*
X0426828Y0080007D01*
X0427016Y0080382D01*
X0427203Y0080570D01*
X0427578Y0080757D01*
X0428516Y0080757D01*
X0428891Y0080570D01*
X0429078Y0080382D01*
X0429265Y0080007D01*
X0429265Y0079257D01*
X0429078Y0078882D01*
X0428891Y0078695D01*
X0428516Y0078508D01*
X0290195Y0059216D02*
X0290008Y0059029D01*
X0289820Y0058654D01*
X0289820Y0057716D01*
X0290008Y0057341D01*
X0290195Y0057154D01*
X0290570Y0056966D01*
X0290945Y0056966D01*
X0291508Y0057154D01*
X0293757Y0059404D01*
X0293757Y0056966D01*
X0293757Y0055092D02*
X0293757Y0054342D01*
X0293570Y0053967D01*
X0293382Y0053779D01*
X0292820Y0053404D01*
X0292070Y0053217D01*
X0290570Y0053217D01*
X0290195Y0053404D01*
X0290008Y0053592D01*
X0289820Y0053967D01*
X0289820Y0054717D01*
X0290008Y0055092D01*
X0290195Y0055279D01*
X0290570Y0055467D01*
X0291508Y0055467D01*
X0291883Y0055279D01*
X0292070Y0055092D01*
X0292258Y0054717D01*
X0292258Y0053967D01*
X0292070Y0053592D01*
X0291883Y0053404D01*
X0291508Y0053217D01*
X0250057Y0059404D02*
X0250057Y0056966D01*
X0251556Y0058279D01*
X0251556Y0057716D01*
X0251744Y0057341D01*
X0251931Y0057154D01*
X0252306Y0056966D01*
X0253244Y0056966D01*
X0253619Y0057154D01*
X0253806Y0057341D01*
X0253994Y0057716D01*
X0253994Y0058841D01*
X0253806Y0059216D01*
X0253619Y0059404D01*
X0250057Y0055654D02*
X0250057Y0053217D01*
X0251556Y0054529D01*
X0251556Y0053967D01*
X0251744Y0053592D01*
X0251931Y0053404D01*
X0252306Y0053217D01*
X0253244Y0053217D01*
X0253619Y0053404D01*
X0253806Y0053592D01*
X0253994Y0053967D01*
X0253994Y0055092D01*
X0253806Y0055467D01*
X0253619Y0055654D01*
X0324991Y0048680D02*
X0327616Y0048680D01*
X0323491Y0049617D02*
X0326303Y0050555D01*
X0326303Y0048118D01*
X0323679Y0044743D02*
X0323679Y0046618D01*
X0325553Y0046805D01*
X0325366Y0046618D01*
X0325178Y0046243D01*
X0325178Y0045305D01*
X0325366Y0044930D01*
X0325553Y0044743D01*
X0325928Y0044555D01*
X0326866Y0044555D01*
X0327241Y0044743D01*
X0327428Y0044930D01*
X0327616Y0045305D01*
X0327616Y0046243D01*
X0327428Y0046618D01*
X0327241Y0046805D01*
X0219742Y0059404D02*
X0219742Y0056966D01*
X0221241Y0058279D01*
X0221241Y0057716D01*
X0221429Y0057341D01*
X0221616Y0057154D01*
X0221991Y0056966D01*
X0222929Y0056966D01*
X0223304Y0057154D01*
X0223491Y0057341D01*
X0223679Y0057716D01*
X0223679Y0058841D01*
X0223491Y0059216D01*
X0223304Y0059404D01*
X0219742Y0053592D02*
X0219742Y0054342D01*
X0219929Y0054717D01*
X0220117Y0054904D01*
X0220679Y0055279D01*
X0221429Y0055467D01*
X0222929Y0055467D01*
X0223304Y0055279D01*
X0223491Y0055092D01*
X0223679Y0054717D01*
X0223679Y0053967D01*
X0223491Y0053592D01*
X0223304Y0053404D01*
X0222929Y0053217D01*
X0221991Y0053217D01*
X0221616Y0053404D01*
X0221429Y0053592D01*
X0221241Y0053967D01*
X0221241Y0054717D01*
X0221429Y0055092D01*
X0221616Y0055279D01*
X0221991Y0055467D01*
X0405962Y0059629D02*
X0405962Y0058879D01*
X0405775Y0058504D01*
X0405587Y0058316D01*
X0405025Y0057941D01*
X0404275Y0057754D01*
X0402775Y0057754D01*
X0402400Y0057941D01*
X0402213Y0058129D01*
X0402025Y0058504D01*
X0402025Y0059254D01*
X0402213Y0059629D01*
X0402400Y0059816D01*
X0402775Y0060004D01*
X0403712Y0060004D01*
X0404087Y0059816D01*
X0404275Y0059629D01*
X0404462Y0059254D01*
X0404462Y0058504D01*
X0404275Y0058129D01*
X0404087Y0057941D01*
X0403712Y0057754D01*
X0405962Y0055879D02*
X0405962Y0055129D01*
X0405775Y0054754D01*
X0405587Y0054567D01*
X0405025Y0054192D01*
X0404275Y0054004D01*
X0402775Y0054004D01*
X0402400Y0054192D01*
X0402213Y0054379D01*
X0402025Y0054754D01*
X0402025Y0055504D01*
X0402213Y0055879D01*
X0402400Y0056067D01*
X0402775Y0056254D01*
X0403712Y0056254D01*
X0404087Y0056067D01*
X0404275Y0055879D01*
X0404462Y0055504D01*
X0404462Y0054754D01*
X0404275Y0054379D01*
X0404087Y0054192D01*
X0403712Y0054004D01*
X0153581Y0084807D02*
X0153394Y0084619D01*
X0153206Y0084244D01*
X0153206Y0083307D01*
X0153394Y0082932D01*
X0153581Y0082744D01*
X0153956Y0082557D01*
X0154331Y0082557D01*
X0154894Y0082744D01*
X0157143Y0084994D01*
X0157143Y0082557D01*
X0154519Y0079182D02*
X0157143Y0079182D01*
X0153019Y0080120D02*
X0155831Y0081057D01*
X0155831Y0078620D01*
X0155681Y0023033D02*
X0155493Y0023408D01*
X0155306Y0023596D01*
X0154931Y0023783D01*
X0154744Y0023783D01*
X0154369Y0023596D01*
X0154181Y0023408D01*
X0153994Y0023033D01*
X0153994Y0022283D01*
X0154181Y0021908D01*
X0154369Y0021721D01*
X0154744Y0021533D01*
X0154931Y0021533D01*
X0155306Y0021721D01*
X0155493Y0021908D01*
X0155681Y0022283D01*
X0155681Y0023033D01*
X0155868Y0023408D01*
X0156056Y0023596D01*
X0156431Y0023783D01*
X0157181Y0023783D01*
X0157556Y0023596D01*
X0157743Y0023408D01*
X0157931Y0023033D01*
X0157931Y0022283D01*
X0157743Y0021908D01*
X0157556Y0021721D01*
X0157181Y0021533D01*
X0156431Y0021533D01*
X0156056Y0021721D01*
X0155868Y0021908D01*
X0155681Y0022283D01*
X0157931Y0017784D02*
X0157931Y0020034D01*
X0157931Y0018909D02*
X0153994Y0018909D01*
X0154556Y0019284D01*
X0154931Y0019659D01*
X0155118Y0020034D01*
X0418673Y0023033D02*
X0418486Y0023408D01*
X0418298Y0023596D01*
X0417923Y0023783D01*
X0417736Y0023783D01*
X0417361Y0023596D01*
X0417173Y0023408D01*
X0416986Y0023033D01*
X0416986Y0022283D01*
X0417173Y0021908D01*
X0417361Y0021721D01*
X0417736Y0021533D01*
X0417923Y0021533D01*
X0418298Y0021721D01*
X0418486Y0021908D01*
X0418673Y0022283D01*
X0418673Y0023033D01*
X0418861Y0023408D01*
X0419048Y0023596D01*
X0419423Y0023783D01*
X0420173Y0023783D01*
X0420548Y0023596D01*
X0420735Y0023408D01*
X0420923Y0023033D01*
X0420923Y0022283D01*
X0420735Y0021908D01*
X0420548Y0021721D01*
X0420173Y0021533D01*
X0419423Y0021533D01*
X0419048Y0021721D01*
X0418861Y0021908D01*
X0418673Y0022283D01*
X0418298Y0018159D02*
X0420923Y0018159D01*
X0416798Y0019096D02*
X0419610Y0020034D01*
X0419610Y0017596D01*
X0163836Y0048286D02*
X0163836Y0049036D01*
X0164024Y0049411D01*
X0164211Y0049599D01*
X0164774Y0049974D01*
X0165523Y0050161D01*
X0167023Y0050161D01*
X0167398Y0049974D01*
X0167586Y0049786D01*
X0167773Y0049411D01*
X0167773Y0048661D01*
X0167586Y0048286D01*
X0167398Y0048099D01*
X0167023Y0047911D01*
X0166086Y0047911D01*
X0165711Y0048099D01*
X0165523Y0048286D01*
X0165336Y0048661D01*
X0165336Y0049411D01*
X0165523Y0049786D01*
X0165711Y0049974D01*
X0166086Y0050161D01*
X0167773Y0044162D02*
X0167773Y0046412D01*
X0167773Y0045287D02*
X0163836Y0045287D01*
X0164399Y0045662D01*
X0164774Y0046037D01*
X0164961Y0046412D01*
X0257143Y0082951D02*
X0257143Y0085200D01*
X0257143Y0084076D02*
X0253206Y0084076D01*
X0253769Y0084451D01*
X0254144Y0084825D01*
X0254331Y0085200D01*
X0254519Y0079576D02*
X0257143Y0079576D01*
X0253019Y0080514D02*
X0255831Y0081451D01*
X0255831Y0079014D01*
X0234309Y0024364D02*
X0234309Y0021740D01*
X0238246Y0023427D01*
X0234309Y0020615D02*
X0234309Y0018178D01*
X0235808Y0019490D01*
X0235808Y0018927D01*
X0235996Y0018552D01*
X0236183Y0018365D01*
X0236558Y0018178D01*
X0237496Y0018178D01*
X0237871Y0018365D01*
X0238058Y0018552D01*
X0238246Y0018927D01*
X0238246Y0020052D01*
X0238058Y0020427D01*
X0237871Y0020615D01*
X0163817Y0084807D02*
X0163630Y0084619D01*
X0163442Y0084244D01*
X0163442Y0083307D01*
X0163630Y0082932D01*
X0163817Y0082744D01*
X0164192Y0082557D01*
X0164567Y0082557D01*
X0165130Y0082744D01*
X0167379Y0084994D01*
X0167379Y0082557D01*
X0163442Y0081245D02*
X0163442Y0078807D01*
X0164942Y0080120D01*
X0164942Y0079557D01*
X0165130Y0079182D01*
X0165317Y0078995D01*
X0165692Y0078807D01*
X0166630Y0078807D01*
X0167004Y0078995D01*
X0167192Y0079182D01*
X0167379Y0079557D01*
X0167379Y0080682D01*
X0167192Y0081057D01*
X0167004Y0081245D01*
X0334834Y0048680D02*
X0337458Y0048680D01*
X0333334Y0049617D02*
X0336146Y0050555D01*
X0336146Y0048118D01*
X0334834Y0044930D02*
X0337458Y0044930D01*
X0333334Y0045868D02*
X0336146Y0046805D01*
X0336146Y0044368D01*
D232*
X0177906Y0152943D02*
X0177906Y0156880D01*
X0176406Y0156880D01*
X0176031Y0156693D01*
X0175844Y0156505D01*
X0175656Y0156130D01*
X0175656Y0155568D01*
X0175844Y0155193D01*
X0176031Y0155006D01*
X0176406Y0154818D01*
X0177906Y0154818D01*
X0174156Y0156505D02*
X0173969Y0156693D01*
X0173594Y0156880D01*
X0172657Y0156880D01*
X0172282Y0156693D01*
X0172094Y0156505D01*
X0171907Y0156130D01*
X0171907Y0155756D01*
X0172094Y0155193D01*
X0174344Y0152943D01*
X0171907Y0152943D01*
X0229837Y0102810D02*
X0227053Y0105594D01*
X0225992Y0104533D01*
X0225860Y0104136D01*
X0225860Y0103871D01*
X0225992Y0103473D01*
X0226390Y0103075D01*
X0226788Y0102943D01*
X0227053Y0102943D01*
X0227450Y0103075D01*
X0228511Y0104136D01*
X0225595Y0098568D02*
X0227185Y0100159D01*
X0226390Y0099363D02*
X0223606Y0102147D01*
X0224269Y0102015D01*
X0224799Y0102015D01*
X0225197Y0102147D01*
X0221883Y0100424D02*
X0220027Y0098568D01*
X0224004Y0096977D01*
X0202414Y0152845D02*
X0202414Y0156782D01*
X0200914Y0156782D01*
X0200539Y0156594D01*
X0200352Y0156407D01*
X0200164Y0156032D01*
X0200164Y0155470D01*
X0200352Y0155095D01*
X0200539Y0154907D01*
X0200914Y0154720D01*
X0202414Y0154720D01*
X0196602Y0156782D02*
X0198477Y0156782D01*
X0198664Y0154907D01*
X0198477Y0155095D01*
X0198102Y0155282D01*
X0197164Y0155282D01*
X0196789Y0155095D01*
X0196602Y0154907D01*
X0196415Y0154532D01*
X0196415Y0153595D01*
X0196602Y0153220D01*
X0196789Y0153032D01*
X0197164Y0152845D01*
X0198102Y0152845D01*
X0198477Y0153032D01*
X0198664Y0153220D01*
X0164482Y0140999D02*
X0161698Y0143783D01*
X0160638Y0142722D01*
X0160505Y0142325D01*
X0160505Y0142060D01*
X0160638Y0141662D01*
X0161036Y0141264D01*
X0161433Y0141132D01*
X0161698Y0141132D01*
X0162096Y0141264D01*
X0163157Y0142325D01*
X0157721Y0139806D02*
X0158252Y0140336D01*
X0158649Y0140469D01*
X0158915Y0140469D01*
X0159577Y0140336D01*
X0160240Y0139938D01*
X0161301Y0138878D01*
X0161433Y0138480D01*
X0161433Y0138215D01*
X0161301Y0137817D01*
X0160770Y0137287D01*
X0160373Y0137155D01*
X0160108Y0137155D01*
X0159710Y0137287D01*
X0159047Y0137950D01*
X0158915Y0138348D01*
X0158915Y0138613D01*
X0159047Y0139011D01*
X0159577Y0139541D01*
X0159975Y0139673D01*
X0160240Y0139673D01*
X0160638Y0139541D01*
X0157589Y0134106D02*
X0159180Y0135696D01*
X0158384Y0134901D02*
X0155600Y0137685D01*
X0156263Y0137552D01*
X0156794Y0137552D01*
X0157191Y0137685D01*
X0317238Y0113046D02*
X0314454Y0115830D01*
X0313394Y0114770D01*
X0313261Y0114372D01*
X0313261Y0114107D01*
X0313394Y0113709D01*
X0313792Y0113311D01*
X0314189Y0113179D01*
X0314454Y0113179D01*
X0314852Y0113311D01*
X0315913Y0114372D01*
X0311405Y0110925D02*
X0313261Y0109069D01*
X0311008Y0112649D02*
X0313659Y0111323D01*
X0311936Y0109600D01*
X0308754Y0108274D02*
X0310610Y0106418D01*
X0308356Y0109997D02*
X0311008Y0108672D01*
X0309284Y0106948D01*
X0419244Y0148121D02*
X0419244Y0152058D01*
X0417745Y0152058D01*
X0417370Y0151870D01*
X0417182Y0151683D01*
X0416995Y0151308D01*
X0416995Y0150745D01*
X0417182Y0150370D01*
X0417370Y0150183D01*
X0417745Y0149995D01*
X0419244Y0149995D01*
X0413620Y0152058D02*
X0414370Y0152058D01*
X0414745Y0151870D01*
X0414933Y0151683D01*
X0415307Y0151120D01*
X0415495Y0150370D01*
X0415495Y0148870D01*
X0415307Y0148496D01*
X0415120Y0148308D01*
X0414745Y0148121D01*
X0413995Y0148121D01*
X0413620Y0148308D01*
X0413433Y0148496D01*
X0413245Y0148870D01*
X0413245Y0149808D01*
X0413433Y0150183D01*
X0413620Y0150370D01*
X0413995Y0150558D01*
X0414745Y0150558D01*
X0415120Y0150370D01*
X0415307Y0150183D01*
X0415495Y0149808D01*
X0328262Y0112751D02*
X0325478Y0115535D01*
X0324417Y0114474D01*
X0324285Y0114077D01*
X0324285Y0113812D01*
X0324417Y0113414D01*
X0324815Y0113016D01*
X0325213Y0112884D01*
X0325478Y0112884D01*
X0325876Y0113016D01*
X0326936Y0114077D01*
X0321501Y0111558D02*
X0322031Y0112088D01*
X0322429Y0112221D01*
X0322694Y0112221D01*
X0323357Y0112088D01*
X0324020Y0111690D01*
X0325080Y0110630D01*
X0325213Y0110232D01*
X0325213Y0109967D01*
X0325080Y0109569D01*
X0324550Y0109039D01*
X0324152Y0108907D01*
X0323887Y0108907D01*
X0323489Y0109039D01*
X0322827Y0109702D01*
X0322694Y0110100D01*
X0322694Y0110365D01*
X0322827Y0110762D01*
X0323357Y0111293D01*
X0323755Y0111425D01*
X0324020Y0111425D01*
X0324417Y0111293D01*
X0318850Y0108907D02*
X0319380Y0109437D01*
X0319778Y0109569D01*
X0320043Y0109569D01*
X0320706Y0109437D01*
X0321368Y0109039D01*
X0322429Y0107979D01*
X0322562Y0107581D01*
X0322562Y0107316D01*
X0322429Y0106918D01*
X0321899Y0106388D01*
X0321501Y0106255D01*
X0321236Y0106255D01*
X0320838Y0106388D01*
X0320175Y0107051D01*
X0320043Y0107448D01*
X0320043Y0107713D01*
X0320175Y0108111D01*
X0320706Y0108641D01*
X0321103Y0108774D01*
X0321368Y0108774D01*
X0321766Y0108641D01*
X0277081Y0092180D02*
X0274297Y0094964D01*
X0273236Y0093903D01*
X0273104Y0093506D01*
X0273104Y0093241D01*
X0273236Y0092843D01*
X0273634Y0092445D01*
X0274032Y0092313D01*
X0274297Y0092313D01*
X0274695Y0092445D01*
X0275755Y0093506D01*
X0272839Y0087938D02*
X0274429Y0089529D01*
X0273634Y0088733D02*
X0270850Y0091517D01*
X0271513Y0091385D01*
X0272043Y0091385D01*
X0272441Y0091517D01*
X0269259Y0089396D02*
X0268994Y0089396D01*
X0268597Y0089264D01*
X0267934Y0088601D01*
X0267801Y0088203D01*
X0267801Y0087938D01*
X0267934Y0087540D01*
X0268199Y0087275D01*
X0268729Y0087010D01*
X0271911Y0087010D01*
X0270187Y0085287D01*
X0266057Y0092180D02*
X0263273Y0094964D01*
X0262213Y0093903D01*
X0262080Y0093506D01*
X0262080Y0093241D01*
X0262213Y0092843D01*
X0262610Y0092445D01*
X0263008Y0092313D01*
X0263273Y0092313D01*
X0263671Y0092445D01*
X0264731Y0093506D01*
X0261815Y0087938D02*
X0263406Y0089529D01*
X0262610Y0088733D02*
X0259827Y0091517D01*
X0260489Y0091385D01*
X0261020Y0091385D01*
X0261417Y0091517D01*
X0258103Y0089794D02*
X0256380Y0088071D01*
X0258368Y0087938D01*
X0257971Y0087540D01*
X0257838Y0087143D01*
X0257838Y0086877D01*
X0257971Y0086480D01*
X0258633Y0085817D01*
X0259031Y0085684D01*
X0259296Y0085684D01*
X0259694Y0085817D01*
X0260489Y0086612D01*
X0260622Y0087010D01*
X0260622Y0087275D01*
D180*
X0035609Y0136476D02*
X0034181Y0137476D01*
X0035609Y0138190D02*
X0032609Y0138190D01*
X0032609Y0137047D01*
X0032752Y0136762D01*
X0032895Y0136619D01*
X0033181Y0136476D01*
X0033609Y0136476D01*
X0033895Y0136619D01*
X0034038Y0136762D01*
X0034181Y0137047D01*
X0034181Y0138190D01*
X0035609Y0133619D02*
X0035609Y0135333D01*
X0035609Y0134476D02*
X0032609Y0134476D01*
X0033038Y0134762D01*
X0033323Y0135047D01*
X0033466Y0135333D01*
X0032609Y0132619D02*
X0032609Y0130762D01*
X0033752Y0131762D01*
X0033752Y0131333D01*
X0033895Y0131047D01*
X0034038Y0130904D01*
X0034323Y0130762D01*
X0035038Y0130762D01*
X0035323Y0130904D01*
X0035466Y0131047D01*
X0035609Y0131333D01*
X0035609Y0132190D01*
X0035466Y0132476D01*
X0035323Y0132619D01*
X0216810Y0096366D02*
X0215381Y0097366D01*
X0216810Y0098080D02*
X0213810Y0098080D01*
X0213810Y0096938D01*
X0213953Y0096652D01*
X0214096Y0096509D01*
X0214381Y0096366D01*
X0214810Y0096366D01*
X0215096Y0096509D01*
X0215238Y0096652D01*
X0215381Y0096938D01*
X0215381Y0098080D01*
X0214810Y0093795D02*
X0216810Y0093795D01*
X0213667Y0094509D02*
X0215810Y0095223D01*
X0215810Y0093366D01*
D232*
X0346274Y0091786D02*
X0343490Y0094570D01*
X0342429Y0093510D01*
X0342297Y0093112D01*
X0342297Y0092847D01*
X0342429Y0092449D01*
X0342827Y0092052D01*
X0343225Y0091919D01*
X0343490Y0091919D01*
X0343887Y0092052D01*
X0344948Y0093112D01*
X0339513Y0090593D02*
X0340043Y0091124D01*
X0340441Y0091256D01*
X0340706Y0091256D01*
X0341369Y0091124D01*
X0342032Y0090726D01*
X0343092Y0089665D01*
X0343225Y0089268D01*
X0343225Y0089003D01*
X0343092Y0088605D01*
X0342562Y0088075D01*
X0342164Y0087942D01*
X0341899Y0087942D01*
X0341501Y0088075D01*
X0340838Y0088737D01*
X0340706Y0089135D01*
X0340706Y0089400D01*
X0340838Y0089798D01*
X0341369Y0090328D01*
X0341766Y0090461D01*
X0342032Y0090461D01*
X0342429Y0090328D01*
X0338320Y0089400D02*
X0336596Y0087677D01*
X0338585Y0087544D01*
X0338187Y0087147D01*
X0338055Y0086749D01*
X0338055Y0086484D01*
X0338187Y0086086D01*
X0338850Y0085423D01*
X0339248Y0085291D01*
X0339513Y0085291D01*
X0339911Y0085423D01*
X0340706Y0086219D01*
X0340838Y0086616D01*
X0340838Y0086881D01*
X0213536Y0152845D02*
X0213536Y0156782D01*
X0212036Y0156782D01*
X0211661Y0156594D01*
X0211474Y0156407D01*
X0211286Y0156032D01*
X0211286Y0155470D01*
X0211474Y0155095D01*
X0211661Y0154907D01*
X0212036Y0154720D01*
X0213536Y0154720D01*
X0207912Y0155470D02*
X0207912Y0152845D01*
X0208849Y0156969D02*
X0209786Y0154157D01*
X0207349Y0154157D01*
X0306608Y0112653D02*
X0303824Y0115436D01*
X0302764Y0114376D01*
X0302631Y0113978D01*
X0302631Y0113713D01*
X0302764Y0113315D01*
X0303162Y0112918D01*
X0303559Y0112785D01*
X0303824Y0112785D01*
X0304222Y0112918D01*
X0305283Y0113978D01*
X0301438Y0112520D02*
X0301173Y0112520D01*
X0300775Y0112387D01*
X0300113Y0111725D01*
X0299980Y0111327D01*
X0299980Y0111062D01*
X0300113Y0110664D01*
X0300378Y0110399D01*
X0300908Y0110134D01*
X0304090Y0110134D01*
X0302366Y0108410D01*
X0299185Y0108410D02*
X0299317Y0108808D01*
X0299317Y0109073D01*
X0299185Y0109471D01*
X0299052Y0109604D01*
X0298654Y0109736D01*
X0298389Y0109736D01*
X0297992Y0109604D01*
X0297461Y0109073D01*
X0297329Y0108676D01*
X0297329Y0108410D01*
X0297461Y0108013D01*
X0297594Y0107880D01*
X0297992Y0107748D01*
X0298257Y0107748D01*
X0298654Y0107880D01*
X0299185Y0108410D01*
X0299582Y0108543D01*
X0299847Y0108543D01*
X0300245Y0108410D01*
X0300775Y0107880D01*
X0300908Y0107482D01*
X0300908Y0107217D01*
X0300775Y0106820D01*
X0300245Y0106289D01*
X0299847Y0106157D01*
X0299582Y0106157D01*
X0299185Y0106289D01*
X0298654Y0106820D01*
X0298522Y0107217D01*
X0298522Y0107482D01*
X0298654Y0107880D01*
X0184955Y0140999D02*
X0182171Y0143783D01*
X0181110Y0142722D01*
X0180978Y0142325D01*
X0180978Y0142060D01*
X0181110Y0141662D01*
X0181508Y0141264D01*
X0181906Y0141132D01*
X0182171Y0141132D01*
X0182569Y0141264D01*
X0183629Y0142325D01*
X0179652Y0141264D02*
X0177796Y0139408D01*
X0181773Y0137817D01*
X0176471Y0136227D02*
X0178326Y0134371D01*
X0176073Y0137950D02*
X0178724Y0136624D01*
X0177001Y0134901D01*
D180*
X0192105Y0096268D02*
X0190677Y0097268D01*
X0192105Y0097982D02*
X0189105Y0097982D01*
X0189105Y0096839D01*
X0189248Y0096553D01*
X0189391Y0096411D01*
X0189677Y0096268D01*
X0190105Y0096268D01*
X0190391Y0096411D01*
X0190534Y0096553D01*
X0190677Y0096839D01*
X0190677Y0097982D01*
X0190391Y0094553D02*
X0190248Y0094839D01*
X0190105Y0094982D01*
X0189819Y0095125D01*
X0189677Y0095125D01*
X0189391Y0094982D01*
X0189248Y0094839D01*
X0189105Y0094553D01*
X0189105Y0093982D01*
X0189248Y0093696D01*
X0189391Y0093553D01*
X0189677Y0093411D01*
X0189819Y0093411D01*
X0190105Y0093553D01*
X0190248Y0093696D01*
X0190391Y0093982D01*
X0190391Y0094553D01*
X0190534Y0094839D01*
X0190677Y0094982D01*
X0190962Y0095125D01*
X0191534Y0095125D01*
X0191819Y0094982D01*
X0191962Y0094839D01*
X0192105Y0094553D01*
X0192105Y0093982D01*
X0191962Y0093696D01*
X0191819Y0093553D01*
X0191534Y0093411D01*
X0190962Y0093411D01*
X0190677Y0093553D01*
X0190534Y0093696D01*
X0190391Y0093982D01*
D232*
X0357002Y0091786D02*
X0354218Y0094570D01*
X0353158Y0093510D01*
X0353025Y0093112D01*
X0353025Y0092847D01*
X0353158Y0092449D01*
X0353555Y0092052D01*
X0353953Y0091919D01*
X0354218Y0091919D01*
X0354616Y0092052D01*
X0355676Y0093112D01*
X0350241Y0090593D02*
X0350771Y0091124D01*
X0351169Y0091256D01*
X0351434Y0091256D01*
X0352097Y0091124D01*
X0352760Y0090726D01*
X0353820Y0089665D01*
X0353953Y0089268D01*
X0353953Y0089003D01*
X0353820Y0088605D01*
X0353290Y0088075D01*
X0352892Y0087942D01*
X0352627Y0087942D01*
X0352230Y0088075D01*
X0351567Y0088737D01*
X0351434Y0089135D01*
X0351434Y0089400D01*
X0351567Y0089798D01*
X0352097Y0090328D01*
X0352495Y0090461D01*
X0352760Y0090461D01*
X0353158Y0090328D01*
X0349048Y0089400D02*
X0347192Y0087544D01*
X0351169Y0085954D01*
X0296621Y0111721D02*
X0293837Y0114504D01*
X0292777Y0113444D01*
X0292644Y0113046D01*
X0292644Y0112781D01*
X0292777Y0112383D01*
X0293175Y0111986D01*
X0293572Y0111853D01*
X0293837Y0111853D01*
X0294235Y0111986D01*
X0295296Y0113046D01*
X0293705Y0108804D02*
X0293175Y0108274D01*
X0292777Y0108141D01*
X0292512Y0108141D01*
X0291849Y0108274D01*
X0291186Y0108672D01*
X0290126Y0109732D01*
X0289993Y0110130D01*
X0289993Y0110395D01*
X0290126Y0110793D01*
X0290656Y0111323D01*
X0291053Y0111455D01*
X0291319Y0111455D01*
X0291716Y0111323D01*
X0292379Y0110660D01*
X0292512Y0110262D01*
X0292512Y0109997D01*
X0292379Y0109600D01*
X0291849Y0109069D01*
X0291451Y0108937D01*
X0291186Y0108937D01*
X0290788Y0109069D01*
X0359205Y0148121D02*
X0359205Y0152058D01*
X0357705Y0152058D01*
X0357330Y0151870D01*
X0357143Y0151683D01*
X0356955Y0151308D01*
X0356955Y0150745D01*
X0357143Y0150370D01*
X0357330Y0150183D01*
X0357705Y0149995D01*
X0359205Y0149995D01*
X0355643Y0152058D02*
X0353018Y0152058D01*
X0354706Y0148121D01*
X0290397Y0091786D02*
X0287613Y0094570D01*
X0286553Y0093510D01*
X0286420Y0093112D01*
X0286420Y0092847D01*
X0286553Y0092449D01*
X0286950Y0092052D01*
X0287348Y0091919D01*
X0287613Y0091919D01*
X0288011Y0092052D01*
X0289071Y0093112D01*
X0284564Y0089665D02*
X0286420Y0087809D01*
X0284166Y0091389D02*
X0286818Y0090063D01*
X0285094Y0088340D01*
X0284829Y0086219D02*
X0284299Y0085688D01*
X0283901Y0085556D01*
X0283636Y0085556D01*
X0282973Y0085688D01*
X0282310Y0086086D01*
X0281250Y0087147D01*
X0281117Y0087544D01*
X0281117Y0087809D01*
X0281250Y0088207D01*
X0281780Y0088737D01*
X0282178Y0088870D01*
X0282443Y0088870D01*
X0282841Y0088737D01*
X0283504Y0088075D01*
X0283636Y0087677D01*
X0283636Y0087412D01*
X0283504Y0087014D01*
X0282973Y0086484D01*
X0282576Y0086351D01*
X0282310Y0086351D01*
X0281913Y0086484D01*
D180*
X0053719Y0136870D02*
X0052291Y0137870D01*
X0053719Y0138584D02*
X0050719Y0138584D01*
X0050719Y0137441D01*
X0050862Y0137155D01*
X0051005Y0137012D01*
X0051291Y0136870D01*
X0051719Y0136870D01*
X0052005Y0137012D01*
X0052148Y0137155D01*
X0052291Y0137441D01*
X0052291Y0138584D01*
X0053719Y0134012D02*
X0053719Y0135727D01*
X0053719Y0134870D02*
X0050719Y0134870D01*
X0051148Y0135155D01*
X0051434Y0135441D01*
X0051576Y0135727D01*
X0050719Y0132155D02*
X0050719Y0131870D01*
X0050862Y0131584D01*
X0051005Y0131441D01*
X0051291Y0131298D01*
X0051862Y0131155D01*
X0052576Y0131155D01*
X0053148Y0131298D01*
X0053434Y0131441D01*
X0053576Y0131584D01*
X0053719Y0131870D01*
X0053719Y0132155D01*
X0053576Y0132441D01*
X0053434Y0132584D01*
X0053148Y0132727D01*
X0052576Y0132870D01*
X0051862Y0132870D01*
X0051291Y0132727D01*
X0051005Y0132584D01*
X0050862Y0132441D01*
X0050719Y0132155D01*
D232*
X0255427Y0092968D02*
X0252643Y0095751D01*
X0251583Y0094691D01*
X0251450Y0094293D01*
X0251450Y0094028D01*
X0251583Y0093630D01*
X0251980Y0093233D01*
X0252378Y0093100D01*
X0252643Y0093100D01*
X0253041Y0093233D01*
X0254102Y0094293D01*
X0251185Y0088725D02*
X0252776Y0090316D01*
X0251980Y0089521D02*
X0249197Y0092305D01*
X0249859Y0092172D01*
X0250390Y0092172D01*
X0250787Y0092305D01*
X0246943Y0088195D02*
X0248799Y0086339D01*
X0246545Y0089918D02*
X0249197Y0088593D01*
X0247473Y0086869D01*
D180*
X0204802Y0096366D02*
X0203373Y0097366D01*
X0204802Y0098080D02*
X0201802Y0098080D01*
X0201802Y0096938D01*
X0201945Y0096652D01*
X0202088Y0096509D01*
X0202373Y0096366D01*
X0202802Y0096366D01*
X0203088Y0096509D01*
X0203231Y0096652D01*
X0203373Y0096938D01*
X0203373Y0098080D01*
X0204802Y0094938D02*
X0204802Y0094366D01*
X0204659Y0094080D01*
X0204516Y0093938D01*
X0204088Y0093652D01*
X0203516Y0093509D01*
X0202373Y0093509D01*
X0202088Y0093652D01*
X0201945Y0093795D01*
X0201802Y0094080D01*
X0201802Y0094652D01*
X0201945Y0094938D01*
X0202088Y0095080D01*
X0202373Y0095223D01*
X0203088Y0095223D01*
X0203373Y0095080D01*
X0203516Y0094938D01*
X0203659Y0094652D01*
X0203659Y0094080D01*
X0203516Y0093795D01*
X0203373Y0093652D01*
X0203088Y0093509D01*
D232*
X0224325Y0140999D02*
X0221541Y0143783D01*
X0220480Y0142722D01*
X0220348Y0142325D01*
X0220348Y0142060D01*
X0220480Y0141662D01*
X0220878Y0141264D01*
X0221276Y0141132D01*
X0221541Y0141132D01*
X0221939Y0141264D01*
X0222999Y0142325D01*
X0217431Y0139673D02*
X0218757Y0140999D01*
X0220215Y0139806D01*
X0219950Y0139806D01*
X0219552Y0139673D01*
X0218890Y0139011D01*
X0218757Y0138613D01*
X0218757Y0138348D01*
X0218890Y0137950D01*
X0219552Y0137287D01*
X0219950Y0137155D01*
X0220215Y0137155D01*
X0220613Y0137287D01*
X0221276Y0137950D01*
X0221408Y0138348D01*
X0221408Y0138613D01*
X0214913Y0137155D02*
X0215443Y0137685D01*
X0215841Y0137817D01*
X0216106Y0137817D01*
X0216769Y0137685D01*
X0217431Y0137287D01*
X0218492Y0136227D01*
X0218625Y0135829D01*
X0218625Y0135564D01*
X0218492Y0135166D01*
X0217962Y0134636D01*
X0217564Y0134503D01*
X0217299Y0134503D01*
X0216901Y0134636D01*
X0216238Y0135299D01*
X0216106Y0135696D01*
X0216106Y0135962D01*
X0216238Y0136359D01*
X0216769Y0136889D01*
X0217166Y0137022D01*
X0217431Y0137022D01*
X0217829Y0136889D01*
X0286923Y0112653D02*
X0284139Y0115436D01*
X0283079Y0114376D01*
X0282946Y0113978D01*
X0282946Y0113713D01*
X0283079Y0113315D01*
X0283477Y0112918D01*
X0283874Y0112785D01*
X0284139Y0112785D01*
X0284537Y0112918D01*
X0285598Y0113978D01*
X0282681Y0108410D02*
X0284272Y0110001D01*
X0283477Y0109206D02*
X0280693Y0111990D01*
X0281356Y0111857D01*
X0281886Y0111857D01*
X0282283Y0111990D01*
X0278174Y0109471D02*
X0277909Y0109206D01*
X0277776Y0108808D01*
X0277776Y0108543D01*
X0277909Y0108145D01*
X0278306Y0107482D01*
X0278969Y0106820D01*
X0279632Y0106422D01*
X0280030Y0106289D01*
X0280295Y0106289D01*
X0280693Y0106422D01*
X0280958Y0106687D01*
X0281090Y0107085D01*
X0281090Y0107350D01*
X0280958Y0107748D01*
X0280560Y0108410D01*
X0279897Y0109073D01*
X0279234Y0109471D01*
X0278837Y0109604D01*
X0278572Y0109604D01*
X0278174Y0109471D01*
X0335742Y0091786D02*
X0332958Y0094570D01*
X0331898Y0093510D01*
X0331765Y0093112D01*
X0331765Y0092847D01*
X0331898Y0092449D01*
X0332295Y0092052D01*
X0332693Y0091919D01*
X0332958Y0091919D01*
X0333356Y0092052D01*
X0334417Y0093112D01*
X0328981Y0090593D02*
X0329512Y0091124D01*
X0329909Y0091256D01*
X0330174Y0091256D01*
X0330837Y0091124D01*
X0331500Y0090726D01*
X0332561Y0089665D01*
X0332693Y0089268D01*
X0332693Y0089003D01*
X0332561Y0088605D01*
X0332030Y0088075D01*
X0331633Y0087942D01*
X0331367Y0087942D01*
X0330970Y0088075D01*
X0330307Y0088737D01*
X0330174Y0089135D01*
X0330174Y0089400D01*
X0330307Y0089798D01*
X0330837Y0090328D01*
X0331235Y0090461D01*
X0331500Y0090461D01*
X0331898Y0090328D01*
X0327258Y0087014D02*
X0329114Y0085158D01*
X0326860Y0088737D02*
X0329512Y0087412D01*
X0327788Y0085688D01*
X0367829Y0092180D02*
X0365045Y0094964D01*
X0363984Y0093903D01*
X0363852Y0093506D01*
X0363852Y0093241D01*
X0363984Y0092843D01*
X0364382Y0092445D01*
X0364780Y0092313D01*
X0365045Y0092313D01*
X0365443Y0092445D01*
X0366503Y0093506D01*
X0361068Y0090987D02*
X0361598Y0091517D01*
X0361996Y0091650D01*
X0362261Y0091650D01*
X0362924Y0091517D01*
X0363587Y0091120D01*
X0364647Y0090059D01*
X0364780Y0089661D01*
X0364780Y0089396D01*
X0364647Y0088999D01*
X0364117Y0088468D01*
X0363719Y0088336D01*
X0363454Y0088336D01*
X0363056Y0088468D01*
X0362394Y0089131D01*
X0362261Y0089529D01*
X0362261Y0089794D01*
X0362394Y0090192D01*
X0362924Y0090722D01*
X0363322Y0090854D01*
X0363587Y0090854D01*
X0363984Y0090722D01*
X0362261Y0086612D02*
X0361731Y0086082D01*
X0361333Y0085950D01*
X0361068Y0085950D01*
X0360405Y0086082D01*
X0359742Y0086480D01*
X0358682Y0087540D01*
X0358549Y0087938D01*
X0358549Y0088203D01*
X0358682Y0088601D01*
X0359212Y0089131D01*
X0359610Y0089264D01*
X0359875Y0089264D01*
X0360273Y0089131D01*
X0360935Y0088468D01*
X0361068Y0088071D01*
X0361068Y0087805D01*
X0360935Y0087408D01*
X0360405Y0086877D01*
X0360007Y0086745D01*
X0359742Y0086745D01*
X0359345Y0086877D01*
X0144010Y0140999D02*
X0141226Y0143783D01*
X0140165Y0142722D01*
X0140033Y0142325D01*
X0140033Y0142060D01*
X0140165Y0141662D01*
X0140563Y0141264D01*
X0140961Y0141132D01*
X0141226Y0141132D01*
X0141624Y0141264D01*
X0142684Y0142325D01*
X0139238Y0139408D02*
X0139370Y0139806D01*
X0139370Y0140071D01*
X0139238Y0140469D01*
X0139105Y0140601D01*
X0138707Y0140734D01*
X0138442Y0140734D01*
X0138044Y0140601D01*
X0137514Y0140071D01*
X0137382Y0139673D01*
X0137382Y0139408D01*
X0137514Y0139011D01*
X0137647Y0138878D01*
X0138044Y0138745D01*
X0138310Y0138745D01*
X0138707Y0138878D01*
X0139238Y0139408D01*
X0139635Y0139541D01*
X0139900Y0139541D01*
X0140298Y0139408D01*
X0140828Y0138878D01*
X0140961Y0138480D01*
X0140961Y0138215D01*
X0140828Y0137817D01*
X0140298Y0137287D01*
X0139900Y0137155D01*
X0139635Y0137155D01*
X0139238Y0137287D01*
X0138707Y0137817D01*
X0138575Y0138215D01*
X0138575Y0138480D01*
X0138707Y0138878D01*
X0135261Y0137817D02*
X0134995Y0137552D01*
X0134863Y0137155D01*
X0134863Y0136889D01*
X0134995Y0136492D01*
X0135393Y0135829D01*
X0136056Y0135166D01*
X0136719Y0134768D01*
X0137116Y0134636D01*
X0137382Y0134636D01*
X0137779Y0134768D01*
X0138044Y0135034D01*
X0138177Y0135431D01*
X0138177Y0135696D01*
X0138044Y0136094D01*
X0137647Y0136757D01*
X0136984Y0137420D01*
X0136321Y0137817D01*
X0135923Y0137950D01*
X0135658Y0137950D01*
X0135261Y0137817D01*
X0191292Y0152845D02*
X0191292Y0156782D01*
X0189792Y0156782D01*
X0189417Y0156594D01*
X0189229Y0156407D01*
X0189042Y0156032D01*
X0189042Y0155470D01*
X0189229Y0155095D01*
X0189417Y0154907D01*
X0189792Y0154720D01*
X0191292Y0154720D01*
X0187730Y0156782D02*
X0185292Y0156782D01*
X0186605Y0155282D01*
X0186042Y0155282D01*
X0185667Y0155095D01*
X0185480Y0154907D01*
X0185292Y0154532D01*
X0185292Y0153595D01*
X0185480Y0153220D01*
X0185667Y0153032D01*
X0186042Y0152845D01*
X0187167Y0152845D01*
X0187542Y0153032D01*
X0187730Y0153220D01*
D180*
X0183739Y0096366D02*
X0182310Y0097366D01*
X0183739Y0098080D02*
X0180739Y0098080D01*
X0180739Y0096938D01*
X0180882Y0096652D01*
X0181025Y0096509D01*
X0181310Y0096366D01*
X0181739Y0096366D01*
X0182025Y0096509D01*
X0182168Y0096652D01*
X0182310Y0096938D01*
X0182310Y0098080D01*
X0181025Y0095223D02*
X0180882Y0095080D01*
X0180739Y0094795D01*
X0180739Y0094080D01*
X0180882Y0093795D01*
X0181025Y0093652D01*
X0181310Y0093509D01*
X0181596Y0093509D01*
X0182025Y0093652D01*
X0183739Y0095366D01*
X0183739Y0093509D01*
D232*
X0174325Y0140999D02*
X0171541Y0143783D01*
X0170480Y0142722D01*
X0170348Y0142325D01*
X0170348Y0142060D01*
X0170480Y0141662D01*
X0170878Y0141264D01*
X0171276Y0141132D01*
X0171541Y0141132D01*
X0171939Y0141264D01*
X0172999Y0142325D01*
X0168492Y0138878D02*
X0170348Y0137022D01*
X0168094Y0140601D02*
X0170746Y0139276D01*
X0169022Y0137552D01*
X0167431Y0134106D02*
X0169022Y0135696D01*
X0168227Y0134901D02*
X0165443Y0137685D01*
X0166106Y0137552D01*
X0166636Y0137552D01*
X0167034Y0137685D01*
D180*
X0063168Y0136870D02*
X0061740Y0137870D01*
X0063168Y0138584D02*
X0060168Y0138584D01*
X0060168Y0137441D01*
X0060311Y0137155D01*
X0060454Y0137012D01*
X0060740Y0136870D01*
X0061168Y0136870D01*
X0061454Y0137012D01*
X0061597Y0137155D01*
X0061740Y0137441D01*
X0061740Y0138584D01*
X0063168Y0134012D02*
X0063168Y0135727D01*
X0063168Y0134870D02*
X0060168Y0134870D01*
X0060597Y0135155D01*
X0060882Y0135441D01*
X0061025Y0135727D01*
X0060454Y0132870D02*
X0060311Y0132727D01*
X0060168Y0132441D01*
X0060168Y0131727D01*
X0060311Y0131441D01*
X0060454Y0131298D01*
X0060740Y0131155D01*
X0061025Y0131155D01*
X0061454Y0131298D01*
X0063168Y0133012D01*
X0063168Y0131155D01*
D232*
X0315270Y0091393D02*
X0312486Y0094177D01*
X0311425Y0093116D01*
X0311293Y0092718D01*
X0311293Y0092453D01*
X0311425Y0092056D01*
X0311823Y0091658D01*
X0312221Y0091525D01*
X0312486Y0091525D01*
X0312884Y0091658D01*
X0313944Y0092718D01*
X0309437Y0089272D02*
X0311293Y0087416D01*
X0309039Y0090995D02*
X0311690Y0089669D01*
X0309967Y0087946D01*
X0305858Y0087548D02*
X0306388Y0088079D01*
X0306786Y0088211D01*
X0307051Y0088211D01*
X0307713Y0088079D01*
X0308376Y0087681D01*
X0309437Y0086620D01*
X0309569Y0086223D01*
X0309569Y0085958D01*
X0309437Y0085560D01*
X0308907Y0085030D01*
X0308509Y0084897D01*
X0308244Y0084897D01*
X0307846Y0085030D01*
X0307183Y0085692D01*
X0307051Y0086090D01*
X0307051Y0086355D01*
X0307183Y0086753D01*
X0307713Y0087283D01*
X0308111Y0087416D01*
X0308376Y0087416D01*
X0308774Y0087283D01*
X0206215Y0140999D02*
X0203431Y0143783D01*
X0202370Y0142722D01*
X0202238Y0142325D01*
X0202238Y0142060D01*
X0202370Y0141662D01*
X0202768Y0141264D01*
X0203166Y0141132D01*
X0203431Y0141132D01*
X0203828Y0141264D01*
X0204889Y0142325D01*
X0201045Y0140866D02*
X0200779Y0140866D01*
X0200382Y0140734D01*
X0199719Y0140071D01*
X0199586Y0139673D01*
X0199586Y0139408D01*
X0199719Y0139011D01*
X0199984Y0138745D01*
X0200514Y0138480D01*
X0203696Y0138480D01*
X0201973Y0136757D01*
X0197465Y0137817D02*
X0197200Y0137552D01*
X0197068Y0137155D01*
X0197068Y0136889D01*
X0197200Y0136492D01*
X0197598Y0135829D01*
X0198261Y0135166D01*
X0198923Y0134768D01*
X0199321Y0134636D01*
X0199586Y0134636D01*
X0199984Y0134768D01*
X0200249Y0135034D01*
X0200382Y0135431D01*
X0200382Y0135696D01*
X0200249Y0136094D01*
X0199851Y0136757D01*
X0199189Y0137420D01*
X0198526Y0137817D01*
X0198128Y0137950D01*
X0197863Y0137950D01*
X0197465Y0137817D01*
X0195471Y0141025D02*
X0192688Y0143809D01*
X0191627Y0142748D01*
X0191494Y0142351D01*
X0191494Y0142085D01*
X0191627Y0141688D01*
X0192025Y0141290D01*
X0192422Y0141158D01*
X0192688Y0141158D01*
X0193085Y0141290D01*
X0194146Y0142351D01*
X0189639Y0138904D02*
X0191494Y0137048D01*
X0189241Y0140627D02*
X0191892Y0139302D01*
X0190169Y0137578D01*
X0186722Y0137843D02*
X0186457Y0137578D01*
X0186324Y0137181D01*
X0186324Y0136915D01*
X0186457Y0136518D01*
X0186855Y0135855D01*
X0187517Y0135192D01*
X0188180Y0134794D01*
X0188578Y0134662D01*
X0188843Y0134662D01*
X0189241Y0134794D01*
X0189506Y0135059D01*
X0189639Y0135457D01*
X0189639Y0135722D01*
X0189506Y0136120D01*
X0189108Y0136783D01*
X0188445Y0137446D01*
X0187783Y0137843D01*
X0187385Y0137976D01*
X0187120Y0137976D01*
X0186722Y0137843D01*
X0338892Y0112259D02*
X0336108Y0115043D01*
X0335047Y0113982D01*
X0334915Y0113585D01*
X0334915Y0113319D01*
X0335047Y0112922D01*
X0335445Y0112524D01*
X0335843Y0112391D01*
X0336108Y0112391D01*
X0336506Y0112524D01*
X0337566Y0113585D01*
X0332131Y0111066D02*
X0332661Y0111596D01*
X0333059Y0111729D01*
X0333324Y0111729D01*
X0333987Y0111596D01*
X0334650Y0111198D01*
X0335710Y0110138D01*
X0335843Y0109740D01*
X0335843Y0109475D01*
X0335710Y0109077D01*
X0335180Y0108547D01*
X0334782Y0108414D01*
X0334517Y0108414D01*
X0334119Y0108547D01*
X0333457Y0109210D01*
X0333324Y0109608D01*
X0333324Y0109873D01*
X0333457Y0110270D01*
X0333987Y0110801D01*
X0334385Y0110933D01*
X0334650Y0110933D01*
X0335047Y0110801D01*
X0331468Y0108017D02*
X0331601Y0108414D01*
X0331601Y0108680D01*
X0331468Y0109077D01*
X0331336Y0109210D01*
X0330938Y0109342D01*
X0330673Y0109342D01*
X0330275Y0109210D01*
X0329745Y0108680D01*
X0329612Y0108282D01*
X0329612Y0108017D01*
X0329745Y0107619D01*
X0329877Y0107486D01*
X0330275Y0107354D01*
X0330540Y0107354D01*
X0330938Y0107486D01*
X0331468Y0108017D01*
X0331866Y0108149D01*
X0332131Y0108149D01*
X0332529Y0108017D01*
X0333059Y0107486D01*
X0333191Y0107089D01*
X0333191Y0106824D01*
X0333059Y0106426D01*
X0332529Y0105896D01*
X0332131Y0105763D01*
X0331866Y0105763D01*
X0331468Y0105896D01*
X0330938Y0106426D01*
X0330805Y0106824D01*
X0330805Y0107089D01*
X0330938Y0107486D01*
D180*
X0166219Y0096268D02*
X0164791Y0097268D01*
X0166219Y0097982D02*
X0163219Y0097982D01*
X0163219Y0096839D01*
X0163362Y0096553D01*
X0163505Y0096411D01*
X0163791Y0096268D01*
X0164219Y0096268D01*
X0164505Y0096411D01*
X0164648Y0096553D01*
X0164791Y0096839D01*
X0164791Y0097982D01*
X0163219Y0095268D02*
X0163219Y0093411D01*
X0164362Y0094411D01*
X0164362Y0093982D01*
X0164505Y0093696D01*
X0164648Y0093553D01*
X0164934Y0093411D01*
X0165648Y0093411D01*
X0165934Y0093553D01*
X0166076Y0093696D01*
X0166219Y0093982D01*
X0166219Y0094839D01*
X0166076Y0095125D01*
X0165934Y0095268D01*
D232*
X0408024Y0148121D02*
X0408024Y0152058D01*
X0406524Y0152058D01*
X0406149Y0151870D01*
X0405962Y0151683D01*
X0405774Y0151308D01*
X0405774Y0150745D01*
X0405962Y0150370D01*
X0406149Y0150183D01*
X0406524Y0149995D01*
X0408024Y0149995D01*
X0403525Y0150370D02*
X0403900Y0150558D01*
X0404087Y0150745D01*
X0404274Y0151120D01*
X0404274Y0151308D01*
X0404087Y0151683D01*
X0403900Y0151870D01*
X0403525Y0152058D01*
X0402775Y0152058D01*
X0402400Y0151870D01*
X0402212Y0151683D01*
X0402025Y0151308D01*
X0402025Y0151120D01*
X0402212Y0150745D01*
X0402400Y0150558D01*
X0402775Y0150370D01*
X0403525Y0150370D01*
X0403900Y0150183D01*
X0404087Y0149995D01*
X0404274Y0149620D01*
X0404274Y0148870D01*
X0404087Y0148496D01*
X0403900Y0148308D01*
X0403525Y0148121D01*
X0402775Y0148121D01*
X0402400Y0148308D01*
X0402212Y0148496D01*
X0402025Y0148870D01*
X0402025Y0149620D01*
X0402212Y0149995D01*
X0402400Y0150183D01*
X0402775Y0150370D01*
X0301392Y0091393D02*
X0298608Y0094177D01*
X0297547Y0093116D01*
X0297415Y0092718D01*
X0297415Y0092453D01*
X0297547Y0092056D01*
X0297945Y0091658D01*
X0298343Y0091525D01*
X0298608Y0091525D01*
X0299006Y0091658D01*
X0300066Y0092718D01*
X0295559Y0089272D02*
X0297415Y0087416D01*
X0295161Y0090995D02*
X0297812Y0089669D01*
X0296089Y0087946D01*
X0293968Y0087151D02*
X0294101Y0087548D01*
X0294101Y0087813D01*
X0293968Y0088211D01*
X0293836Y0088344D01*
X0293438Y0088476D01*
X0293173Y0088476D01*
X0292775Y0088344D01*
X0292245Y0087813D01*
X0292112Y0087416D01*
X0292112Y0087151D01*
X0292245Y0086753D01*
X0292377Y0086620D01*
X0292775Y0086488D01*
X0293040Y0086488D01*
X0293438Y0086620D01*
X0293968Y0087151D01*
X0294366Y0087283D01*
X0294631Y0087283D01*
X0295029Y0087151D01*
X0295559Y0086620D01*
X0295691Y0086223D01*
X0295691Y0085958D01*
X0295559Y0085560D01*
X0295029Y0085030D01*
X0294631Y0084897D01*
X0294366Y0084897D01*
X0293968Y0085030D01*
X0293438Y0085560D01*
X0293305Y0085958D01*
X0293305Y0086223D01*
X0293438Y0086620D01*
X0325900Y0091786D02*
X0323116Y0094570D01*
X0322055Y0093510D01*
X0321923Y0093112D01*
X0321923Y0092847D01*
X0322055Y0092449D01*
X0322453Y0092052D01*
X0322851Y0091919D01*
X0323116Y0091919D01*
X0323513Y0092052D01*
X0324574Y0093112D01*
X0320067Y0089665D02*
X0321923Y0087809D01*
X0319669Y0091389D02*
X0322320Y0090063D01*
X0320597Y0088340D01*
X0316355Y0087809D02*
X0317681Y0089135D01*
X0319139Y0087942D01*
X0318874Y0087942D01*
X0318476Y0087809D01*
X0317813Y0087147D01*
X0317681Y0086749D01*
X0317681Y0086484D01*
X0317813Y0086086D01*
X0318476Y0085423D01*
X0318874Y0085291D01*
X0319139Y0085291D01*
X0319536Y0085423D01*
X0320199Y0086086D01*
X0320332Y0086484D01*
X0320332Y0086749D01*
X0277081Y0112653D02*
X0274297Y0115436D01*
X0273236Y0114376D01*
X0273104Y0113978D01*
X0273104Y0113713D01*
X0273236Y0113315D01*
X0273634Y0112918D01*
X0274032Y0112785D01*
X0274297Y0112785D01*
X0274695Y0112918D01*
X0275755Y0113978D01*
X0272839Y0108410D02*
X0274429Y0110001D01*
X0273634Y0109206D02*
X0270850Y0111990D01*
X0271513Y0111857D01*
X0272043Y0111857D01*
X0272441Y0111990D01*
X0270187Y0105759D02*
X0271778Y0107350D01*
X0270983Y0106555D02*
X0268199Y0109338D01*
X0268862Y0109206D01*
X0269392Y0109206D01*
X0269790Y0109338D01*
X0154246Y0140999D02*
X0151462Y0143783D01*
X0150402Y0142722D01*
X0150269Y0142325D01*
X0150269Y0142060D01*
X0150402Y0141662D01*
X0150799Y0141264D01*
X0151197Y0141132D01*
X0151462Y0141132D01*
X0151860Y0141264D01*
X0152920Y0142325D01*
X0148413Y0138878D02*
X0150269Y0137022D01*
X0148016Y0140601D02*
X0150667Y0139276D01*
X0148943Y0137552D01*
X0146292Y0138613D02*
X0144569Y0136889D01*
X0146557Y0136757D01*
X0146160Y0136359D01*
X0146027Y0135962D01*
X0146027Y0135696D01*
X0146160Y0135299D01*
X0146822Y0134636D01*
X0147220Y0134503D01*
X0147485Y0134503D01*
X0147883Y0134636D01*
X0148678Y0135431D01*
X0148811Y0135829D01*
X0148811Y0136094D01*
D180*
X0044664Y0136476D02*
X0043236Y0137476D01*
X0044664Y0138190D02*
X0041664Y0138190D01*
X0041664Y0137047D01*
X0041807Y0136762D01*
X0041950Y0136619D01*
X0042236Y0136476D01*
X0042664Y0136476D01*
X0042950Y0136619D01*
X0043093Y0136762D01*
X0043236Y0137047D01*
X0043236Y0138190D01*
X0044664Y0133619D02*
X0044664Y0135333D01*
X0044664Y0134476D02*
X0041664Y0134476D01*
X0042093Y0134762D01*
X0042379Y0135047D01*
X0042521Y0135333D01*
X0044664Y0130762D02*
X0044664Y0132476D01*
X0044664Y0131619D02*
X0041664Y0131619D01*
X0042093Y0131904D01*
X0042379Y0132190D01*
X0042521Y0132476D01*
X0298269Y0437391D02*
X0296555Y0437391D01*
X0297412Y0434391D02*
X0297412Y0437391D01*
X0295555Y0434391D02*
X0295555Y0437391D01*
X0294269Y0434391D02*
X0294269Y0435962D01*
X0294412Y0436248D01*
X0294698Y0436391D01*
X0295127Y0436391D01*
X0295412Y0436248D01*
X0295555Y0436105D01*
X0292841Y0434391D02*
X0292841Y0436391D01*
X0292841Y0437391D02*
X0292984Y0437248D01*
X0292841Y0437105D01*
X0292698Y0437248D01*
X0292841Y0437391D01*
X0292841Y0437105D01*
X0291555Y0434534D02*
X0291269Y0434391D01*
X0290698Y0434391D01*
X0290412Y0434534D01*
X0290269Y0434820D01*
X0290269Y0434962D01*
X0290412Y0435248D01*
X0290698Y0435391D01*
X0291127Y0435391D01*
X0291412Y0435534D01*
X0291555Y0435820D01*
X0291555Y0435962D01*
X0291412Y0436248D01*
X0291127Y0436391D01*
X0290698Y0436391D01*
X0290412Y0436248D01*
X0286698Y0434391D02*
X0286698Y0436391D01*
X0286698Y0437391D02*
X0286841Y0437248D01*
X0286698Y0437105D01*
X0286555Y0437248D01*
X0286698Y0437391D01*
X0286698Y0437105D01*
X0285412Y0434534D02*
X0285127Y0434391D01*
X0284555Y0434391D01*
X0284269Y0434534D01*
X0284127Y0434820D01*
X0284127Y0434962D01*
X0284269Y0435248D01*
X0284555Y0435391D01*
X0284984Y0435391D01*
X0285269Y0435534D01*
X0285412Y0435820D01*
X0285412Y0435962D01*
X0285269Y0436248D01*
X0284984Y0436391D01*
X0284555Y0436391D01*
X0284269Y0436248D01*
X0280555Y0436391D02*
X0280555Y0434391D01*
X0280555Y0436105D02*
X0280412Y0436248D01*
X0280127Y0436391D01*
X0279698Y0436391D01*
X0279412Y0436248D01*
X0279269Y0435962D01*
X0279269Y0434391D01*
X0277412Y0434391D02*
X0277698Y0434534D01*
X0277841Y0434677D01*
X0277984Y0434962D01*
X0277984Y0435820D01*
X0277841Y0436105D01*
X0277698Y0436248D01*
X0277412Y0436391D01*
X0276984Y0436391D01*
X0276698Y0436248D01*
X0276555Y0436105D01*
X0276412Y0435820D01*
X0276412Y0434962D01*
X0276555Y0434677D01*
X0276698Y0434534D01*
X0276984Y0434391D01*
X0277412Y0434391D01*
X0275555Y0436391D02*
X0274412Y0436391D01*
X0275127Y0437391D02*
X0275127Y0434820D01*
X0274984Y0434534D01*
X0274698Y0434391D01*
X0274412Y0434391D01*
X0271555Y0436391D02*
X0270412Y0436391D01*
X0271127Y0434391D02*
X0271127Y0436962D01*
X0270984Y0437248D01*
X0270698Y0437391D01*
X0270412Y0437391D01*
X0268984Y0434391D02*
X0269269Y0434534D01*
X0269412Y0434677D01*
X0269555Y0434962D01*
X0269555Y0435820D01*
X0269412Y0436105D01*
X0269269Y0436248D01*
X0268984Y0436391D01*
X0268555Y0436391D01*
X0268269Y0436248D01*
X0268127Y0436105D01*
X0267984Y0435820D01*
X0267984Y0434962D01*
X0268127Y0434677D01*
X0268269Y0434534D01*
X0268555Y0434391D01*
X0268984Y0434391D01*
X0266698Y0434391D02*
X0266698Y0436391D01*
X0266698Y0435820D02*
X0266555Y0436105D01*
X0266412Y0436248D01*
X0266127Y0436391D01*
X0265841Y0436391D01*
X0261269Y0434391D02*
X0261269Y0435962D01*
X0261412Y0436248D01*
X0261698Y0436391D01*
X0262269Y0436391D01*
X0262555Y0436248D01*
X0261269Y0434534D02*
X0261555Y0434391D01*
X0262269Y0434391D01*
X0262555Y0434534D01*
X0262698Y0434820D01*
X0262698Y0435105D01*
X0262555Y0435391D01*
X0262269Y0435534D01*
X0261555Y0435534D01*
X0261269Y0435677D01*
X0259841Y0436391D02*
X0259841Y0433391D01*
X0259841Y0436248D02*
X0259555Y0436391D01*
X0258984Y0436391D01*
X0258698Y0436248D01*
X0258555Y0436105D01*
X0258412Y0435820D01*
X0258412Y0434962D01*
X0258555Y0434677D01*
X0258698Y0434534D01*
X0258984Y0434391D01*
X0259555Y0434391D01*
X0259841Y0434534D01*
X0257127Y0436391D02*
X0257127Y0433391D01*
X0257127Y0436248D02*
X0256841Y0436391D01*
X0256269Y0436391D01*
X0255984Y0436248D01*
X0255841Y0436105D01*
X0255698Y0435820D01*
X0255698Y0434962D01*
X0255841Y0434677D01*
X0255984Y0434534D01*
X0256269Y0434391D01*
X0256841Y0434391D01*
X0257127Y0434534D01*
X0253984Y0434391D02*
X0254269Y0434534D01*
X0254412Y0434820D01*
X0254412Y0437391D01*
X0252841Y0434391D02*
X0252841Y0436391D01*
X0252841Y0437391D02*
X0252984Y0437248D01*
X0252841Y0437105D01*
X0252698Y0437248D01*
X0252841Y0437391D01*
X0252841Y0437105D01*
X0250127Y0434534D02*
X0250412Y0434391D01*
X0250984Y0434391D01*
X0251269Y0434534D01*
X0251412Y0434677D01*
X0251555Y0434962D01*
X0251555Y0435820D01*
X0251412Y0436105D01*
X0251269Y0436248D01*
X0250984Y0436391D01*
X0250412Y0436391D01*
X0250127Y0436248D01*
X0247555Y0434391D02*
X0247555Y0435962D01*
X0247698Y0436248D01*
X0247984Y0436391D01*
X0248555Y0436391D01*
X0248841Y0436248D01*
X0247555Y0434534D02*
X0247841Y0434391D01*
X0248555Y0434391D01*
X0248841Y0434534D01*
X0248984Y0434820D01*
X0248984Y0435105D01*
X0248841Y0435391D01*
X0248555Y0435534D01*
X0247841Y0435534D01*
X0247555Y0435677D01*
X0246555Y0436391D02*
X0245412Y0436391D01*
X0246127Y0437391D02*
X0246127Y0434820D01*
X0245984Y0434534D01*
X0245698Y0434391D01*
X0245412Y0434391D01*
X0244412Y0434391D02*
X0244412Y0436391D01*
X0244412Y0437391D02*
X0244555Y0437248D01*
X0244412Y0437105D01*
X0244269Y0437248D01*
X0244412Y0437391D01*
X0244412Y0437105D01*
X0242555Y0434391D02*
X0242841Y0434534D01*
X0242984Y0434677D01*
X0243127Y0434962D01*
X0243127Y0435820D01*
X0242984Y0436105D01*
X0242841Y0436248D01*
X0242555Y0436391D01*
X0242127Y0436391D01*
X0241841Y0436248D01*
X0241698Y0436105D01*
X0241555Y0435820D01*
X0241555Y0434962D01*
X0241698Y0434677D01*
X0241841Y0434534D01*
X0242127Y0434391D01*
X0242555Y0434391D01*
X0240269Y0436391D02*
X0240269Y0434391D01*
X0240269Y0436105D02*
X0240127Y0436248D01*
X0239841Y0436391D01*
X0239412Y0436391D01*
X0239127Y0436248D01*
X0238984Y0435962D01*
X0238984Y0434391D01*
X0237698Y0434534D02*
X0237412Y0434391D01*
X0236841Y0434391D01*
X0236555Y0434534D01*
X0236412Y0434820D01*
X0236412Y0434962D01*
X0236555Y0435248D01*
X0236841Y0435391D01*
X0237269Y0435391D01*
X0237555Y0435534D01*
X0237698Y0435820D01*
X0237698Y0435962D01*
X0237555Y0436248D01*
X0237269Y0436391D01*
X0236841Y0436391D01*
X0236555Y0436248D01*
X0233127Y0436391D02*
X0232555Y0434391D01*
X0231984Y0435820D01*
X0231412Y0434391D01*
X0230841Y0436391D01*
X0229698Y0434391D02*
X0229698Y0436391D01*
X0229698Y0437391D02*
X0229841Y0437248D01*
X0229698Y0437105D01*
X0229555Y0437248D01*
X0229698Y0437391D01*
X0229698Y0437105D01*
X0228698Y0436391D02*
X0227555Y0436391D01*
X0228269Y0437391D02*
X0228269Y0434820D01*
X0228127Y0434534D01*
X0227841Y0434391D01*
X0227555Y0434391D01*
X0226555Y0434391D02*
X0226555Y0437391D01*
X0225269Y0434391D02*
X0225269Y0435962D01*
X0225412Y0436248D01*
X0225698Y0436391D01*
X0226127Y0436391D01*
X0226412Y0436248D01*
X0226555Y0436105D01*
X0288769Y0421391D02*
X0287627Y0421391D01*
X0288341Y0419391D02*
X0288341Y0421962D01*
X0288198Y0422248D01*
X0287912Y0422391D01*
X0287627Y0422391D01*
X0286198Y0419391D02*
X0286484Y0419534D01*
X0286627Y0419677D01*
X0286769Y0419962D01*
X0286769Y0420820D01*
X0286627Y0421105D01*
X0286484Y0421248D01*
X0286198Y0421391D01*
X0285769Y0421391D01*
X0285484Y0421248D01*
X0285341Y0421105D01*
X0285198Y0420820D01*
X0285198Y0419962D01*
X0285341Y0419677D01*
X0285484Y0419534D01*
X0285769Y0419391D01*
X0286198Y0419391D01*
X0283912Y0419391D02*
X0283912Y0421391D01*
X0283912Y0420820D02*
X0283769Y0421105D01*
X0283627Y0421248D01*
X0283341Y0421391D01*
X0283055Y0421391D01*
X0278484Y0419534D02*
X0278769Y0419391D01*
X0279341Y0419391D01*
X0279627Y0419534D01*
X0279769Y0419677D01*
X0279912Y0419962D01*
X0279912Y0420820D01*
X0279769Y0421105D01*
X0279627Y0421248D01*
X0279341Y0421391D01*
X0278769Y0421391D01*
X0278484Y0421248D01*
X0276769Y0419391D02*
X0277055Y0419534D01*
X0277198Y0419820D01*
X0277198Y0422391D01*
X0275198Y0419391D02*
X0275484Y0419534D01*
X0275627Y0419677D01*
X0275769Y0419962D01*
X0275769Y0420820D01*
X0275627Y0421105D01*
X0275484Y0421248D01*
X0275198Y0421391D01*
X0274769Y0421391D01*
X0274484Y0421248D01*
X0274341Y0421105D01*
X0274198Y0420820D01*
X0274198Y0419962D01*
X0274341Y0419677D01*
X0274484Y0419534D01*
X0274769Y0419391D01*
X0275198Y0419391D01*
X0273055Y0419534D02*
X0272769Y0419391D01*
X0272198Y0419391D01*
X0271912Y0419534D01*
X0271769Y0419820D01*
X0271769Y0419962D01*
X0271912Y0420248D01*
X0272198Y0420391D01*
X0272627Y0420391D01*
X0272912Y0420534D01*
X0273055Y0420820D01*
X0273055Y0420962D01*
X0272912Y0421248D01*
X0272627Y0421391D01*
X0272198Y0421391D01*
X0271912Y0421248D01*
X0269341Y0419534D02*
X0269627Y0419391D01*
X0270198Y0419391D01*
X0270484Y0419534D01*
X0270627Y0419820D01*
X0270627Y0420962D01*
X0270484Y0421248D01*
X0270198Y0421391D01*
X0269627Y0421391D01*
X0269341Y0421248D01*
X0269198Y0420962D01*
X0269198Y0420677D01*
X0270627Y0420391D01*
X0266627Y0419391D02*
X0266627Y0422391D01*
X0266627Y0419534D02*
X0266912Y0419391D01*
X0267484Y0419391D01*
X0267769Y0419534D01*
X0267912Y0419677D01*
X0268055Y0419962D01*
X0268055Y0420820D01*
X0267912Y0421105D01*
X0267769Y0421248D01*
X0267484Y0421391D01*
X0266912Y0421391D01*
X0266627Y0421248D01*
X0263055Y0419534D02*
X0262769Y0419391D01*
X0262198Y0419391D01*
X0261912Y0419534D01*
X0261769Y0419820D01*
X0261769Y0419962D01*
X0261912Y0420248D01*
X0262198Y0420391D01*
X0262627Y0420391D01*
X0262912Y0420534D01*
X0263055Y0420820D01*
X0263055Y0420962D01*
X0262912Y0421248D01*
X0262627Y0421391D01*
X0262198Y0421391D01*
X0261912Y0421248D01*
X0260912Y0421391D02*
X0259769Y0421391D01*
X0260484Y0422391D02*
X0260484Y0419820D01*
X0260341Y0419534D01*
X0260055Y0419391D01*
X0259769Y0419391D01*
X0257484Y0419391D02*
X0257484Y0420962D01*
X0257627Y0421248D01*
X0257912Y0421391D01*
X0258484Y0421391D01*
X0258769Y0421248D01*
X0257484Y0419534D02*
X0257769Y0419391D01*
X0258484Y0419391D01*
X0258769Y0419534D01*
X0258912Y0419820D01*
X0258912Y0420105D01*
X0258769Y0420391D01*
X0258484Y0420534D01*
X0257769Y0420534D01*
X0257484Y0420677D01*
X0254769Y0421391D02*
X0254769Y0418962D01*
X0254912Y0418677D01*
X0255055Y0418534D01*
X0255341Y0418391D01*
X0255769Y0418391D01*
X0256055Y0418534D01*
X0254769Y0419534D02*
X0255055Y0419391D01*
X0255627Y0419391D01*
X0255912Y0419534D01*
X0256055Y0419677D01*
X0256198Y0419962D01*
X0256198Y0420820D01*
X0256055Y0421105D01*
X0255912Y0421248D01*
X0255627Y0421391D01*
X0255055Y0421391D01*
X0254769Y0421248D01*
X0252198Y0419534D02*
X0252484Y0419391D01*
X0253055Y0419391D01*
X0253341Y0419534D01*
X0253484Y0419820D01*
X0253484Y0420962D01*
X0253341Y0421248D01*
X0253055Y0421391D01*
X0252484Y0421391D01*
X0252198Y0421248D01*
X0252055Y0420962D01*
X0252055Y0420677D01*
X0253484Y0420391D01*
X0250912Y0419534D02*
X0250627Y0419391D01*
X0250055Y0419391D01*
X0249769Y0419534D01*
X0249627Y0419820D01*
X0249627Y0419962D01*
X0249769Y0420248D01*
X0250055Y0420391D01*
X0250484Y0420391D01*
X0250769Y0420534D01*
X0250912Y0420820D01*
X0250912Y0420962D01*
X0250769Y0421248D01*
X0250484Y0421391D01*
X0250055Y0421391D01*
X0249769Y0421248D01*
X0248198Y0419534D02*
X0248198Y0419391D01*
X0248341Y0419105D01*
X0248484Y0418962D01*
X0245055Y0421391D02*
X0243912Y0421391D01*
X0244627Y0422391D02*
X0244627Y0419820D01*
X0244484Y0419534D01*
X0244198Y0419391D01*
X0243912Y0419391D01*
X0242912Y0419391D02*
X0242912Y0421391D01*
X0242912Y0420820D02*
X0242769Y0421105D01*
X0242627Y0421248D01*
X0242341Y0421391D01*
X0242055Y0421391D01*
X0239769Y0419391D02*
X0239769Y0420962D01*
X0239912Y0421248D01*
X0240198Y0421391D01*
X0240769Y0421391D01*
X0241055Y0421248D01*
X0239769Y0419534D02*
X0240055Y0419391D01*
X0240769Y0419391D01*
X0241055Y0419534D01*
X0241198Y0419820D01*
X0241198Y0420105D01*
X0241055Y0420391D01*
X0240769Y0420534D01*
X0240055Y0420534D01*
X0239769Y0420677D01*
X0237055Y0419534D02*
X0237341Y0419391D01*
X0237912Y0419391D01*
X0238198Y0419534D01*
X0238341Y0419677D01*
X0238484Y0419962D01*
X0238484Y0420820D01*
X0238341Y0421105D01*
X0238198Y0421248D01*
X0237912Y0421391D01*
X0237341Y0421391D01*
X0237055Y0421248D01*
X0235769Y0419391D02*
X0235769Y0422391D01*
X0235484Y0420534D02*
X0234627Y0419391D01*
X0234627Y0421391D02*
X0235769Y0420248D01*
X0277055Y0414391D02*
X0277055Y0415962D01*
X0277198Y0416248D01*
X0277484Y0416391D01*
X0278055Y0416391D01*
X0278341Y0416248D01*
X0277055Y0414534D02*
X0277341Y0414391D01*
X0278055Y0414391D01*
X0278341Y0414534D01*
X0278484Y0414820D01*
X0278484Y0415105D01*
X0278341Y0415391D01*
X0278055Y0415534D01*
X0277341Y0415534D01*
X0277055Y0415677D01*
X0275627Y0416391D02*
X0275627Y0414391D01*
X0275627Y0416105D02*
X0275484Y0416248D01*
X0275198Y0416391D01*
X0274769Y0416391D01*
X0274484Y0416248D01*
X0274341Y0415962D01*
X0274341Y0414391D01*
X0271627Y0414391D02*
X0271627Y0417391D01*
X0271627Y0414534D02*
X0271912Y0414391D01*
X0272484Y0414391D01*
X0272769Y0414534D01*
X0272912Y0414677D01*
X0273055Y0414962D01*
X0273055Y0415820D01*
X0272912Y0416105D01*
X0272769Y0416248D01*
X0272484Y0416391D01*
X0271912Y0416391D01*
X0271627Y0416248D01*
X0266769Y0414534D02*
X0267055Y0414391D01*
X0267627Y0414391D01*
X0267912Y0414534D01*
X0268055Y0414820D01*
X0268055Y0415962D01*
X0267912Y0416248D01*
X0267627Y0416391D01*
X0267055Y0416391D01*
X0266769Y0416248D01*
X0266627Y0415962D01*
X0266627Y0415677D01*
X0268055Y0415391D01*
X0264055Y0416391D02*
X0264055Y0413391D01*
X0264055Y0414534D02*
X0264341Y0414391D01*
X0264912Y0414391D01*
X0265198Y0414534D01*
X0265341Y0414677D01*
X0265484Y0414962D01*
X0265484Y0415820D01*
X0265341Y0416105D01*
X0265198Y0416248D01*
X0264912Y0416391D01*
X0264341Y0416391D01*
X0264055Y0416248D01*
X0261341Y0416391D02*
X0261341Y0414391D01*
X0262627Y0416391D02*
X0262627Y0414820D01*
X0262484Y0414534D01*
X0262198Y0414391D01*
X0261769Y0414391D01*
X0261484Y0414534D01*
X0261341Y0414677D01*
X0259912Y0414391D02*
X0259912Y0416391D01*
X0259912Y0417391D02*
X0260055Y0417248D01*
X0259912Y0417105D01*
X0259769Y0417248D01*
X0259912Y0417391D01*
X0259912Y0417105D01*
X0258484Y0416391D02*
X0258484Y0413391D01*
X0258484Y0416248D02*
X0258198Y0416391D01*
X0257627Y0416391D01*
X0257341Y0416248D01*
X0257198Y0416105D01*
X0257055Y0415820D01*
X0257055Y0414962D01*
X0257198Y0414677D01*
X0257341Y0414534D01*
X0257627Y0414391D01*
X0258198Y0414391D01*
X0258484Y0414534D01*
X0255769Y0414391D02*
X0255769Y0416391D01*
X0255769Y0416105D02*
X0255627Y0416248D01*
X0255341Y0416391D01*
X0254912Y0416391D01*
X0254627Y0416248D01*
X0254484Y0415962D01*
X0254484Y0414391D01*
X0254484Y0415962D02*
X0254341Y0416248D01*
X0254055Y0416391D01*
X0253627Y0416391D01*
X0253341Y0416248D01*
X0253198Y0415962D01*
X0253198Y0414391D01*
X0250627Y0414534D02*
X0250912Y0414391D01*
X0251484Y0414391D01*
X0251769Y0414534D01*
X0251912Y0414820D01*
X0251912Y0415962D01*
X0251769Y0416248D01*
X0251484Y0416391D01*
X0250912Y0416391D01*
X0250627Y0416248D01*
X0250484Y0415962D01*
X0250484Y0415677D01*
X0251912Y0415391D01*
X0249198Y0416391D02*
X0249198Y0414391D01*
X0249198Y0416105D02*
X0249055Y0416248D01*
X0248769Y0416391D01*
X0248341Y0416391D01*
X0248055Y0416248D01*
X0247912Y0415962D01*
X0247912Y0414391D01*
X0246912Y0416391D02*
X0245769Y0416391D01*
X0246484Y0417391D02*
X0246484Y0414820D01*
X0246341Y0414534D01*
X0246055Y0414391D01*
X0245769Y0414391D01*
X0244769Y0414677D02*
X0244627Y0414534D01*
X0244769Y0414391D01*
X0244912Y0414534D01*
X0244769Y0414677D01*
X0244769Y0414391D01*
D232*
X0307112Y0441029D02*
X0308424Y0441029D01*
X0308424Y0438967D02*
X0308424Y0442904D01*
X0306549Y0442904D01*
X0304300Y0442904D02*
X0303550Y0442904D01*
X0303175Y0442717D01*
X0302800Y0442342D01*
X0302612Y0441592D01*
X0302612Y0440279D01*
X0302800Y0439529D01*
X0303175Y0439155D01*
X0303550Y0438967D01*
X0304300Y0438967D01*
X0304675Y0439155D01*
X0305050Y0439529D01*
X0305237Y0440279D01*
X0305237Y0441592D01*
X0305050Y0442342D01*
X0304675Y0442717D01*
X0304300Y0442904D01*
X0298675Y0438967D02*
X0299988Y0440842D01*
X0300925Y0438967D02*
X0300925Y0442904D01*
X0299425Y0442904D01*
X0299050Y0442717D01*
X0298863Y0442529D01*
X0298675Y0442154D01*
X0298675Y0441592D01*
X0298863Y0441217D01*
X0299050Y0441029D01*
X0299425Y0440842D01*
X0300925Y0440842D01*
X0293239Y0442904D02*
X0292489Y0442904D01*
X0292114Y0442717D01*
X0291739Y0442342D01*
X0291551Y0441592D01*
X0291551Y0440279D01*
X0291739Y0439529D01*
X0292114Y0439155D01*
X0292489Y0438967D01*
X0293239Y0438967D01*
X0293614Y0439155D01*
X0293989Y0439529D01*
X0294176Y0440279D01*
X0294176Y0441592D01*
X0293989Y0442342D01*
X0293614Y0442717D01*
X0293239Y0442904D01*
X0288552Y0441029D02*
X0289864Y0441029D01*
X0289864Y0438967D02*
X0289864Y0442904D01*
X0287989Y0442904D01*
X0285177Y0441029D02*
X0286489Y0441029D01*
X0286489Y0438967D02*
X0286489Y0442904D01*
X0284615Y0442904D01*
X0277866Y0438967D02*
X0279178Y0440842D01*
X0280115Y0438967D02*
X0280115Y0442904D01*
X0278615Y0442904D01*
X0278241Y0442717D01*
X0278053Y0442529D01*
X0277866Y0442154D01*
X0277866Y0441592D01*
X0278053Y0441217D01*
X0278241Y0441029D01*
X0278615Y0440842D01*
X0280115Y0440842D01*
X0275428Y0442904D02*
X0274678Y0442904D01*
X0274304Y0442717D01*
X0273929Y0442342D01*
X0273741Y0441592D01*
X0273741Y0440279D01*
X0273929Y0439529D01*
X0274304Y0439155D01*
X0274678Y0438967D01*
X0275428Y0438967D01*
X0275803Y0439155D01*
X0276178Y0439529D01*
X0276366Y0440279D01*
X0276366Y0441592D01*
X0276178Y0442342D01*
X0275803Y0442717D01*
X0275428Y0442904D01*
X0272241Y0440092D02*
X0270367Y0440092D01*
X0272616Y0438967D02*
X0271304Y0442904D01*
X0269992Y0438967D01*
X0268679Y0438967D02*
X0268679Y0442904D01*
X0267742Y0442904D01*
X0267179Y0442717D01*
X0266804Y0442342D01*
X0266617Y0441967D01*
X0266430Y0441217D01*
X0266430Y0440654D01*
X0266617Y0439904D01*
X0266804Y0439529D01*
X0267179Y0439155D01*
X0267742Y0438967D01*
X0268679Y0438967D01*
X0261743Y0438967D02*
X0261743Y0442904D01*
X0260243Y0442904D01*
X0259868Y0442717D01*
X0259680Y0442529D01*
X0259493Y0442154D01*
X0259493Y0441592D01*
X0259680Y0441217D01*
X0259868Y0441029D01*
X0260243Y0440842D01*
X0261743Y0440842D01*
X0257806Y0442904D02*
X0257806Y0439717D01*
X0257618Y0439342D01*
X0257431Y0439155D01*
X0257056Y0438967D01*
X0256306Y0438967D01*
X0255931Y0439155D01*
X0255743Y0439342D01*
X0255556Y0439717D01*
X0255556Y0442904D01*
X0251431Y0438967D02*
X0252744Y0440842D01*
X0253681Y0438967D02*
X0253681Y0442904D01*
X0252181Y0442904D01*
X0251806Y0442717D01*
X0251619Y0442529D01*
X0251431Y0442154D01*
X0251431Y0441592D01*
X0251619Y0441217D01*
X0251806Y0441029D01*
X0252181Y0440842D01*
X0253681Y0440842D01*
X0249744Y0438967D02*
X0249744Y0442904D01*
X0248244Y0442904D01*
X0247869Y0442717D01*
X0247682Y0442529D01*
X0247494Y0442154D01*
X0247494Y0441592D01*
X0247682Y0441217D01*
X0247869Y0441029D01*
X0248244Y0440842D01*
X0249744Y0440842D01*
X0245057Y0442904D02*
X0244307Y0442904D01*
X0243932Y0442717D01*
X0243557Y0442342D01*
X0243370Y0441592D01*
X0243370Y0440279D01*
X0243557Y0439529D01*
X0243932Y0439155D01*
X0244307Y0438967D01*
X0245057Y0438967D01*
X0245432Y0439155D01*
X0245807Y0439529D01*
X0245995Y0440279D01*
X0245995Y0441592D01*
X0245807Y0442342D01*
X0245432Y0442717D01*
X0245057Y0442904D01*
X0241870Y0439155D02*
X0241308Y0438967D01*
X0240370Y0438967D01*
X0239995Y0439155D01*
X0239808Y0439342D01*
X0239620Y0439717D01*
X0239620Y0440092D01*
X0239808Y0440467D01*
X0239995Y0440654D01*
X0240370Y0440842D01*
X0241120Y0441029D01*
X0241495Y0441217D01*
X0241683Y0441404D01*
X0241870Y0441779D01*
X0241870Y0442154D01*
X0241683Y0442529D01*
X0241495Y0442717D01*
X0241120Y0442904D01*
X0240183Y0442904D01*
X0239620Y0442717D01*
X0237933Y0441029D02*
X0236621Y0441029D01*
X0236058Y0438967D02*
X0237933Y0438967D01*
X0237933Y0442904D01*
X0236058Y0442904D01*
X0234558Y0439155D02*
X0233996Y0438967D01*
X0233059Y0438967D01*
X0232684Y0439155D01*
X0232496Y0439342D01*
X0232309Y0439717D01*
X0232309Y0440092D01*
X0232496Y0440467D01*
X0232684Y0440654D01*
X0233059Y0440842D01*
X0233809Y0441029D01*
X0234184Y0441217D01*
X0234371Y0441404D01*
X0234558Y0441779D01*
X0234558Y0442154D01*
X0234371Y0442529D01*
X0234184Y0442717D01*
X0233809Y0442904D01*
X0232871Y0442904D01*
X0232309Y0442717D01*
X0226872Y0442904D02*
X0226122Y0442904D01*
X0225747Y0442717D01*
X0225372Y0442342D01*
X0225185Y0441592D01*
X0225185Y0440279D01*
X0225372Y0439529D01*
X0225747Y0439155D01*
X0226122Y0438967D01*
X0226872Y0438967D01*
X0227247Y0439155D01*
X0227622Y0439529D01*
X0227809Y0440279D01*
X0227809Y0441592D01*
X0227622Y0442342D01*
X0227247Y0442717D01*
X0226872Y0442904D01*
X0223497Y0438967D02*
X0223497Y0442904D01*
X0221248Y0438967D01*
X0221248Y0442904D01*
X0217498Y0438967D02*
X0219373Y0438967D01*
X0219373Y0442904D01*
X0215436Y0440842D02*
X0215436Y0438967D01*
X0216748Y0442904D02*
X0215436Y0440842D01*
X0214124Y0442904D01*
D180*
X0298627Y0423248D02*
X0298769Y0423391D01*
X0299055Y0423820D01*
X0299198Y0424105D01*
X0299341Y0424534D01*
X0299484Y0425248D01*
X0299484Y0425820D01*
X0299341Y0426534D01*
X0299198Y0426962D01*
X0299055Y0427248D01*
X0298769Y0427677D01*
X0298627Y0427820D01*
X0297627Y0425248D02*
X0296198Y0425248D01*
X0297912Y0424391D02*
X0296912Y0427391D01*
X0295912Y0424391D01*
X0294912Y0424391D02*
X0294912Y0427391D01*
X0293198Y0424391D02*
X0294484Y0426105D01*
X0293198Y0427391D02*
X0294912Y0425677D01*
X0292055Y0425248D02*
X0290627Y0425248D01*
X0292341Y0424391D02*
X0291341Y0427391D01*
X0290341Y0424391D01*
X0287055Y0426391D02*
X0287055Y0424391D01*
X0287055Y0426105D02*
X0286912Y0426248D01*
X0286627Y0426391D01*
X0286198Y0426391D01*
X0285912Y0426248D01*
X0285769Y0425962D01*
X0285769Y0424391D01*
X0283912Y0424391D02*
X0284198Y0424534D01*
X0284341Y0424677D01*
X0284484Y0424962D01*
X0284484Y0425820D01*
X0284341Y0426105D01*
X0284198Y0426248D01*
X0283912Y0426391D01*
X0283484Y0426391D01*
X0283198Y0426248D01*
X0283055Y0426105D01*
X0282912Y0425820D01*
X0282912Y0424962D01*
X0283055Y0424677D01*
X0283198Y0424534D01*
X0283484Y0424391D01*
X0283912Y0424391D01*
X0282055Y0426391D02*
X0280912Y0426391D01*
X0281627Y0427391D02*
X0281627Y0424820D01*
X0281484Y0424534D01*
X0281198Y0424391D01*
X0280912Y0424391D01*
X0278055Y0426391D02*
X0276912Y0426391D01*
X0277627Y0424391D02*
X0277627Y0426962D01*
X0277484Y0427248D01*
X0277198Y0427391D01*
X0276912Y0427391D01*
X0275484Y0424391D02*
X0275769Y0424534D01*
X0275912Y0424677D01*
X0276055Y0424962D01*
X0276055Y0425820D01*
X0275912Y0426105D01*
X0275769Y0426248D01*
X0275484Y0426391D01*
X0275055Y0426391D01*
X0274769Y0426248D01*
X0274627Y0426105D01*
X0274484Y0425820D01*
X0274484Y0424962D01*
X0274627Y0424677D01*
X0274769Y0424534D01*
X0275055Y0424391D01*
X0275484Y0424391D01*
X0273198Y0424391D02*
X0273198Y0426391D01*
X0273198Y0425820D02*
X0273055Y0426105D01*
X0272912Y0426248D01*
X0272627Y0426391D01*
X0272341Y0426391D01*
X0269198Y0424534D02*
X0268912Y0424391D01*
X0268341Y0424391D01*
X0268055Y0424534D01*
X0267912Y0424820D01*
X0267912Y0424962D01*
X0268055Y0425248D01*
X0268341Y0425391D01*
X0268769Y0425391D01*
X0269055Y0425534D01*
X0269198Y0425820D01*
X0269198Y0425962D01*
X0269055Y0426248D01*
X0268769Y0426391D01*
X0268341Y0426391D01*
X0268055Y0426248D01*
X0267055Y0426391D02*
X0265912Y0426391D01*
X0266627Y0427391D02*
X0266627Y0424820D01*
X0266484Y0424534D01*
X0266198Y0424391D01*
X0265912Y0424391D01*
X0264912Y0424391D02*
X0264912Y0426391D01*
X0264912Y0425820D02*
X0264769Y0426105D01*
X0264627Y0426248D01*
X0264341Y0426391D01*
X0264055Y0426391D01*
X0261912Y0424534D02*
X0262198Y0424391D01*
X0262769Y0424391D01*
X0263055Y0424534D01*
X0263198Y0424820D01*
X0263198Y0425962D01*
X0263055Y0426248D01*
X0262769Y0426391D01*
X0262198Y0426391D01*
X0261912Y0426248D01*
X0261769Y0425962D01*
X0261769Y0425677D01*
X0263198Y0425391D01*
X0259341Y0424534D02*
X0259627Y0424391D01*
X0260198Y0424391D01*
X0260484Y0424534D01*
X0260627Y0424820D01*
X0260627Y0425962D01*
X0260484Y0426248D01*
X0260198Y0426391D01*
X0259627Y0426391D01*
X0259341Y0426248D01*
X0259198Y0425962D01*
X0259198Y0425677D01*
X0260627Y0425391D01*
X0258341Y0426391D02*
X0257198Y0426391D01*
X0257912Y0427391D02*
X0257912Y0424820D01*
X0257769Y0424534D01*
X0257484Y0424391D01*
X0257198Y0424391D01*
X0252627Y0426391D02*
X0252627Y0424391D01*
X0253912Y0426391D02*
X0253912Y0424820D01*
X0253769Y0424534D01*
X0253484Y0424391D01*
X0253055Y0424391D01*
X0252769Y0424534D01*
X0252627Y0424677D01*
X0251341Y0424534D02*
X0251055Y0424391D01*
X0250484Y0424391D01*
X0250198Y0424534D01*
X0250055Y0424820D01*
X0250055Y0424962D01*
X0250198Y0425248D01*
X0250484Y0425391D01*
X0250912Y0425391D01*
X0251198Y0425534D01*
X0251341Y0425820D01*
X0251341Y0425962D01*
X0251198Y0426248D01*
X0250912Y0426391D01*
X0250484Y0426391D01*
X0250198Y0426248D01*
X0247627Y0424534D02*
X0247912Y0424391D01*
X0248484Y0424391D01*
X0248769Y0424534D01*
X0248912Y0424820D01*
X0248912Y0425962D01*
X0248769Y0426248D01*
X0248484Y0426391D01*
X0247912Y0426391D01*
X0247627Y0426248D01*
X0247484Y0425962D01*
X0247484Y0425677D01*
X0248912Y0425391D01*
X0246484Y0423248D02*
X0246341Y0423391D01*
X0246055Y0423820D01*
X0245912Y0424105D01*
X0245769Y0424534D01*
X0245627Y0425248D01*
X0245627Y0425820D01*
X0245769Y0426534D01*
X0245912Y0426962D01*
X0246055Y0427248D01*
X0246341Y0427677D01*
X0246484Y0427820D01*
X0244198Y0424677D02*
X0244055Y0424534D01*
X0244198Y0424391D01*
X0244341Y0424534D01*
X0244198Y0424677D01*
X0244198Y0424391D01*
X0240912Y0427391D02*
X0239198Y0427391D01*
X0240055Y0424391D02*
X0240055Y0427391D01*
X0238198Y0424391D02*
X0238198Y0427391D01*
X0236912Y0424391D02*
X0236912Y0425962D01*
X0237055Y0426248D01*
X0237341Y0426391D01*
X0237769Y0426391D01*
X0238055Y0426248D01*
X0238198Y0426105D01*
X0235484Y0424391D02*
X0235484Y0426391D01*
X0235484Y0427391D02*
X0235627Y0427248D01*
X0235484Y0427105D01*
X0235341Y0427248D01*
X0235484Y0427391D01*
X0235484Y0427105D01*
X0234198Y0424534D02*
X0233912Y0424391D01*
X0233341Y0424391D01*
X0233055Y0424534D01*
X0232912Y0424820D01*
X0232912Y0424962D01*
X0233055Y0425248D01*
X0233341Y0425391D01*
X0233769Y0425391D01*
X0234055Y0425534D01*
X0234198Y0425820D01*
X0234198Y0425962D01*
X0234055Y0426248D01*
X0233769Y0426391D01*
X0233341Y0426391D01*
X0233055Y0426248D01*
X0229341Y0424391D02*
X0229341Y0426391D01*
X0229341Y0427391D02*
X0229484Y0427248D01*
X0229341Y0427105D01*
X0229198Y0427248D01*
X0229341Y0427391D01*
X0229341Y0427105D01*
X0228055Y0424534D02*
X0227769Y0424391D01*
X0227198Y0424391D01*
X0226912Y0424534D01*
X0226769Y0424820D01*
X0226769Y0424962D01*
X0226912Y0425248D01*
X0227198Y0425391D01*
X0227627Y0425391D01*
X0227912Y0425534D01*
X0228055Y0425820D01*
X0228055Y0425962D01*
X0227912Y0426248D01*
X0227627Y0426391D01*
X0227198Y0426391D01*
X0226912Y0426248D01*
X0295769Y0429534D02*
X0296055Y0429391D01*
X0296627Y0429391D01*
X0296912Y0429534D01*
X0297055Y0429820D01*
X0297055Y0430962D01*
X0296912Y0431248D01*
X0296627Y0431391D01*
X0296055Y0431391D01*
X0295769Y0431248D01*
X0295627Y0430962D01*
X0295627Y0430677D01*
X0297055Y0430391D01*
X0294341Y0429391D02*
X0294341Y0431391D01*
X0294341Y0431105D02*
X0294198Y0431248D01*
X0293912Y0431391D01*
X0293484Y0431391D01*
X0293198Y0431248D01*
X0293055Y0430962D01*
X0293055Y0429391D01*
X0293055Y0430962D02*
X0292912Y0431248D01*
X0292627Y0431391D01*
X0292198Y0431391D01*
X0291912Y0431248D01*
X0291769Y0430962D01*
X0291769Y0429391D01*
X0290341Y0429391D02*
X0290341Y0431391D01*
X0290341Y0432391D02*
X0290484Y0432248D01*
X0290341Y0432105D01*
X0290198Y0432248D01*
X0290341Y0432391D01*
X0290341Y0432105D01*
X0289055Y0429534D02*
X0288769Y0429391D01*
X0288198Y0429391D01*
X0287912Y0429534D01*
X0287769Y0429820D01*
X0287769Y0429962D01*
X0287912Y0430248D01*
X0288198Y0430391D01*
X0288627Y0430391D01*
X0288912Y0430534D01*
X0289055Y0430820D01*
X0289055Y0430962D01*
X0288912Y0431248D01*
X0288627Y0431391D01*
X0288198Y0431391D01*
X0287912Y0431248D01*
X0286627Y0429534D02*
X0286341Y0429391D01*
X0285769Y0429391D01*
X0285484Y0429534D01*
X0285341Y0429820D01*
X0285341Y0429962D01*
X0285484Y0430248D01*
X0285769Y0430391D01*
X0286198Y0430391D01*
X0286484Y0430534D01*
X0286627Y0430820D01*
X0286627Y0430962D01*
X0286484Y0431248D01*
X0286198Y0431391D01*
X0285769Y0431391D01*
X0285484Y0431248D01*
X0284055Y0429391D02*
X0284055Y0431391D01*
X0284055Y0432391D02*
X0284198Y0432248D01*
X0284055Y0432105D01*
X0283912Y0432248D01*
X0284055Y0432391D01*
X0284055Y0432105D01*
X0282198Y0429391D02*
X0282484Y0429534D01*
X0282627Y0429677D01*
X0282769Y0429962D01*
X0282769Y0430820D01*
X0282627Y0431105D01*
X0282484Y0431248D01*
X0282198Y0431391D01*
X0281769Y0431391D01*
X0281484Y0431248D01*
X0281341Y0431105D01*
X0281198Y0430820D01*
X0281198Y0429962D01*
X0281341Y0429677D01*
X0281484Y0429534D01*
X0281769Y0429391D01*
X0282198Y0429391D01*
X0279912Y0431391D02*
X0279912Y0429391D01*
X0279912Y0431105D02*
X0279769Y0431248D01*
X0279484Y0431391D01*
X0279055Y0431391D01*
X0278769Y0431248D01*
X0278627Y0430962D01*
X0278627Y0429391D01*
X0277341Y0429534D02*
X0277055Y0429391D01*
X0276484Y0429391D01*
X0276198Y0429534D01*
X0276055Y0429820D01*
X0276055Y0429962D01*
X0276198Y0430248D01*
X0276484Y0430391D01*
X0276912Y0430391D01*
X0277198Y0430534D01*
X0277341Y0430820D01*
X0277341Y0430962D01*
X0277198Y0431248D01*
X0276912Y0431391D01*
X0276484Y0431391D01*
X0276198Y0431248D01*
X0272055Y0429391D02*
X0272341Y0429534D01*
X0272484Y0429677D01*
X0272627Y0429962D01*
X0272627Y0430820D01*
X0272484Y0431105D01*
X0272341Y0431248D01*
X0272055Y0431391D01*
X0271627Y0431391D01*
X0271341Y0431248D01*
X0271198Y0431105D01*
X0271055Y0430820D01*
X0271055Y0429962D01*
X0271198Y0429677D01*
X0271341Y0429534D01*
X0271627Y0429391D01*
X0272055Y0429391D01*
X0269769Y0429391D02*
X0269769Y0431391D01*
X0269769Y0430820D02*
X0269627Y0431105D01*
X0269484Y0431248D01*
X0269198Y0431391D01*
X0268912Y0431391D01*
X0265769Y0429534D02*
X0265484Y0429391D01*
X0264912Y0429391D01*
X0264627Y0429534D01*
X0264484Y0429820D01*
X0264484Y0429962D01*
X0264627Y0430248D01*
X0264912Y0430391D01*
X0265341Y0430391D01*
X0265627Y0430534D01*
X0265769Y0430820D01*
X0265769Y0430962D01*
X0265627Y0431248D01*
X0265341Y0431391D01*
X0264912Y0431391D01*
X0264627Y0431248D01*
X0261912Y0429391D02*
X0261912Y0430962D01*
X0262055Y0431248D01*
X0262341Y0431391D01*
X0262912Y0431391D01*
X0263198Y0431248D01*
X0261912Y0429534D02*
X0262198Y0429391D01*
X0262912Y0429391D01*
X0263198Y0429534D01*
X0263341Y0429820D01*
X0263341Y0430105D01*
X0263198Y0430391D01*
X0262912Y0430534D01*
X0262198Y0430534D01*
X0261912Y0430677D01*
X0260912Y0431391D02*
X0259769Y0431391D01*
X0260484Y0429391D02*
X0260484Y0431962D01*
X0260341Y0432248D01*
X0260055Y0432391D01*
X0259769Y0432391D01*
X0257627Y0429534D02*
X0257912Y0429391D01*
X0258484Y0429391D01*
X0258769Y0429534D01*
X0258912Y0429820D01*
X0258912Y0430962D01*
X0258769Y0431248D01*
X0258484Y0431391D01*
X0257912Y0431391D01*
X0257627Y0431248D01*
X0257484Y0430962D01*
X0257484Y0430677D01*
X0258912Y0430391D01*
X0256627Y0431391D02*
X0255484Y0431391D01*
X0256198Y0432391D02*
X0256198Y0429820D01*
X0256055Y0429534D01*
X0255769Y0429391D01*
X0255484Y0429391D01*
X0254769Y0431391D02*
X0254055Y0429391D01*
X0253341Y0431391D02*
X0254055Y0429391D01*
X0254341Y0428677D01*
X0254484Y0428534D01*
X0254769Y0428391D01*
X0249912Y0429391D02*
X0249912Y0431391D01*
X0249912Y0430820D02*
X0249769Y0431105D01*
X0249627Y0431248D01*
X0249341Y0431391D01*
X0249055Y0431391D01*
X0246912Y0429534D02*
X0247198Y0429391D01*
X0247769Y0429391D01*
X0248055Y0429534D01*
X0248198Y0429820D01*
X0248198Y0430962D01*
X0248055Y0431248D01*
X0247769Y0431391D01*
X0247198Y0431391D01*
X0246912Y0431248D01*
X0246769Y0430962D01*
X0246769Y0430677D01*
X0248198Y0430391D01*
X0244198Y0431391D02*
X0244198Y0428962D01*
X0244341Y0428677D01*
X0244484Y0428534D01*
X0244769Y0428391D01*
X0245198Y0428391D01*
X0245484Y0428534D01*
X0244198Y0429534D02*
X0244484Y0429391D01*
X0245055Y0429391D01*
X0245341Y0429534D01*
X0245484Y0429677D01*
X0245627Y0429962D01*
X0245627Y0430820D01*
X0245484Y0431105D01*
X0245341Y0431248D01*
X0245055Y0431391D01*
X0244484Y0431391D01*
X0244198Y0431248D01*
X0241484Y0431391D02*
X0241484Y0429391D01*
X0242769Y0431391D02*
X0242769Y0429820D01*
X0242627Y0429534D01*
X0242341Y0429391D01*
X0241912Y0429391D01*
X0241627Y0429534D01*
X0241484Y0429677D01*
X0239627Y0429391D02*
X0239912Y0429534D01*
X0240055Y0429820D01*
X0240055Y0432391D01*
X0237198Y0429391D02*
X0237198Y0430962D01*
X0237341Y0431248D01*
X0237627Y0431391D01*
X0238198Y0431391D01*
X0238484Y0431248D01*
X0237198Y0429534D02*
X0237484Y0429391D01*
X0238198Y0429391D01*
X0238484Y0429534D01*
X0238627Y0429820D01*
X0238627Y0430105D01*
X0238484Y0430391D01*
X0238198Y0430534D01*
X0237484Y0430534D01*
X0237198Y0430677D01*
X0236198Y0431391D02*
X0235055Y0431391D01*
X0235769Y0432391D02*
X0235769Y0429820D01*
X0235627Y0429534D01*
X0235341Y0429391D01*
X0235055Y0429391D01*
X0234055Y0429391D02*
X0234055Y0431391D01*
X0234055Y0432391D02*
X0234198Y0432248D01*
X0234055Y0432105D01*
X0233912Y0432248D01*
X0234055Y0432391D01*
X0234055Y0432105D01*
X0232198Y0429391D02*
X0232484Y0429534D01*
X0232627Y0429677D01*
X0232769Y0429962D01*
X0232769Y0430820D01*
X0232627Y0431105D01*
X0232484Y0431248D01*
X0232198Y0431391D01*
X0231769Y0431391D01*
X0231484Y0431248D01*
X0231341Y0431105D01*
X0231198Y0430820D01*
X0231198Y0429962D01*
X0231341Y0429677D01*
X0231484Y0429534D01*
X0231769Y0429391D01*
X0232198Y0429391D01*
X0229912Y0431391D02*
X0229912Y0429391D01*
X0229912Y0431105D02*
X0229769Y0431248D01*
X0229484Y0431391D01*
X0229055Y0431391D01*
X0228769Y0431248D01*
X0228627Y0430962D01*
X0228627Y0429391D01*
X0227341Y0429534D02*
X0227055Y0429391D01*
X0226484Y0429391D01*
X0226198Y0429534D01*
X0226055Y0429820D01*
X0226055Y0429962D01*
X0226198Y0430248D01*
X0226484Y0430391D01*
X0226912Y0430391D01*
X0227198Y0430534D01*
X0227341Y0430820D01*
X0227341Y0430962D01*
X0227198Y0431248D01*
X0226912Y0431391D01*
X0226484Y0431391D01*
X0226198Y0431248D01*
D66*
X0156693Y0378824D02*
X0327510Y0378824D01*
X0337152Y0375186D02*
X0337152Y0233917D01*
X0154774Y0376904D02*
X0154774Y0234809D01*
X0157014Y0232568D02*
X0335804Y0232568D01*
X0154774Y0234809D02*
X0157014Y0232568D01*
X0335804Y0232568D02*
X0337152Y0233917D01*
X0154774Y0376904D02*
X0156693Y0378824D01*
X0330266Y0376068D02*
X0336270Y0376068D01*
X0336270Y0376068D02*
X0337152Y0375186D01*
X0327510Y0378824D02*
X0330266Y0376068D01*
D171*
X0179033Y0168819D02*
X0180236Y0168819D01*
X0180236Y0168819D02*
X0180236Y0158346D01*
X0169764Y0158346D02*
X0169764Y0168819D01*
X0179077Y0158346D02*
X0180236Y0158346D01*
X0170923Y0168819D02*
X0169764Y0168819D01*
X0170967Y0158346D02*
X0169764Y0158346D01*
X0586000Y0331598D02*
X0614000Y0331598D01*
X0614000Y0331598D02*
X0614000Y0283598D01*
X0614000Y0283598D02*
X0586000Y0283598D01*
X0586000Y0283598D02*
X0586000Y0331598D01*
D66*
X0200049Y0383270D02*
X0200049Y0410407D01*
X0157357Y0383294D02*
X0200049Y0383294D01*
X0156053Y0410254D02*
X0200049Y0410407D01*
X0156053Y0387822D02*
X0156053Y0410254D01*
X0157136Y0383491D02*
X0157357Y0383294D01*
X0157136Y0383491D02*
X0157136Y0386739D01*
X0156053Y0387822D02*
X0157136Y0386739D01*
D171*
X0229274Y0106083D02*
X0230433Y0106083D01*
X0221120Y0116555D02*
X0219961Y0116555D01*
X0219961Y0106083D02*
X0219961Y0116555D01*
X0229230Y0116555D02*
X0230433Y0116555D01*
X0221164Y0106083D02*
X0219961Y0106083D01*
X0230433Y0116555D02*
X0230433Y0106083D01*
D66*
X0129399Y0380765D02*
X0129399Y0383122D01*
X0135306Y0329290D02*
X0136289Y0330272D01*
X0106807Y0383122D02*
X0129399Y0383122D01*
X0129399Y0380765D02*
X0132352Y0377812D01*
X0105383Y0330274D02*
X0105383Y0381698D01*
X0105383Y0330274D02*
X0106368Y0329290D01*
X0105383Y0381698D02*
X0106807Y0383122D01*
X0132352Y0377812D02*
X0136289Y0377812D01*
X0136289Y0330272D02*
X0136289Y0377812D01*
X0106368Y0329290D02*
X0135306Y0329290D01*
X0155167Y0227643D02*
X0156742Y0229218D01*
X0276427Y0175872D02*
X0276427Y0227250D01*
X0274459Y0229218D02*
X0276427Y0227250D01*
X0155167Y0178332D02*
X0155167Y0227643D01*
X0155167Y0178332D02*
X0161270Y0172230D01*
X0272785Y0172230D02*
X0276427Y0175872D01*
X0161270Y0172230D02*
X0272805Y0172230D01*
X0156742Y0229218D02*
X0274459Y0229218D01*
X0375105Y0336127D02*
X0381305Y0342328D01*
X0381305Y0342328D02*
X0483372Y0342328D01*
X0483372Y0342328D02*
X0485242Y0340458D01*
X0375105Y0238686D02*
X0375105Y0336127D01*
X0375530Y0173694D02*
X0483735Y0173694D01*
X0374571Y0238152D02*
X0375105Y0238686D01*
X0374571Y0174653D02*
X0375530Y0173694D01*
X0483735Y0173694D02*
X0485242Y0175202D01*
X0485242Y0175202D02*
X0485242Y0340458D01*
X0374571Y0174653D02*
X0374571Y0238152D01*
D171*
X0195475Y0158248D02*
X0194272Y0158248D01*
X0194272Y0158248D02*
X0194272Y0168720D01*
X0203541Y0168720D02*
X0204744Y0168720D01*
X0203585Y0158248D02*
X0204744Y0158248D01*
X0195431Y0168720D02*
X0194272Y0168720D01*
X0204744Y0168720D02*
X0204744Y0158248D01*
X0154902Y0123406D02*
X0154902Y0133878D01*
X0156061Y0133878D02*
X0154902Y0133878D01*
X0165374Y0133878D02*
X0165374Y0123406D01*
X0164215Y0123406D02*
X0165374Y0123406D01*
X0156105Y0123406D02*
X0154902Y0123406D01*
X0164171Y0133878D02*
X0165374Y0133878D01*
X0317856Y0114252D02*
X0319016Y0114252D01*
X0308543Y0114252D02*
X0308543Y0124724D01*
X0317812Y0124724D02*
X0319016Y0124724D01*
X0309747Y0114252D02*
X0308543Y0114252D01*
X0309703Y0124724D02*
X0308543Y0124724D01*
X0319016Y0124724D02*
X0319016Y0114252D01*
X0411102Y0153524D02*
X0411102Y0163996D01*
X0421575Y0163996D02*
X0421575Y0153524D01*
X0412262Y0163996D02*
X0411102Y0163996D01*
X0412306Y0153524D02*
X0411102Y0153524D01*
X0420416Y0153524D02*
X0421575Y0153524D01*
X0420372Y0163996D02*
X0421575Y0163996D01*
X0319075Y0114252D02*
X0319075Y0124724D01*
X0329547Y0124724D02*
X0329547Y0114252D01*
X0320278Y0114252D02*
X0319075Y0114252D01*
X0328388Y0114252D02*
X0329547Y0114252D01*
X0328344Y0124724D02*
X0329547Y0124724D01*
X0320234Y0124724D02*
X0319075Y0124724D01*
X0278071Y0106122D02*
X0278071Y0095650D01*
X0267598Y0095650D02*
X0267598Y0106122D01*
X0276912Y0095650D02*
X0278071Y0095650D01*
X0268802Y0095650D02*
X0267598Y0095650D01*
X0268758Y0106122D02*
X0267598Y0106122D01*
X0276868Y0106122D02*
X0278071Y0106122D01*
X0266183Y0095354D02*
X0267343Y0095354D01*
X0258029Y0105827D02*
X0256870Y0105827D01*
X0267343Y0105827D02*
X0267343Y0095354D01*
X0258073Y0095354D02*
X0256870Y0095354D01*
X0266139Y0105827D02*
X0267343Y0105827D01*
X0256870Y0095354D02*
X0256870Y0105827D01*
D154*
X0031102Y0123815D02*
X0031102Y0119815D01*
X0031102Y0115815D02*
X0031102Y0111815D01*
X0037402Y0119815D02*
X0037402Y0123815D01*
X0037402Y0111815D02*
X0037402Y0115815D01*
D171*
X0031089Y0111580D02*
G75*
G03*
X0037402Y0111614I0003163J-001265D01*
G01*
X0031096Y0124031D02*
G75*
G02*
X0037402Y0124016I0003156J0001283D01*
G01*
X0586000Y0384000D02*
X0614000Y0384000D01*
X0614000Y0384000D02*
X0614000Y0336000D01*
X0614000Y0336000D02*
X0586000Y0336000D01*
X0586000Y0336000D02*
X0586000Y0384000D01*
D154*
X0211811Y0109024D02*
X0211811Y0105024D01*
X0211811Y0117024D02*
X0211811Y0113024D01*
X0218110Y0105024D02*
X0218110Y0109024D01*
X0218110Y0113024D02*
X0218110Y0117024D01*
D171*
X0218124Y0117258D02*
G75*
G03*
X0211811Y0117224I-003163J0001265D01*
G01*
X0218117Y0104807D02*
G75*
G02*
X0211811Y0104823I-003156J-001283D01*
G01*
X0345711Y0095453D02*
X0346870Y0095453D01*
X0337557Y0105925D02*
X0336398Y0105925D01*
X0336398Y0095453D02*
X0336398Y0105925D01*
X0337601Y0095453D02*
X0336398Y0095453D01*
X0345667Y0105925D02*
X0346870Y0105925D01*
X0346870Y0105925D02*
X0346870Y0095453D01*
X0205394Y0158248D02*
X0205394Y0168720D01*
X0206553Y0168720D02*
X0205394Y0168720D01*
X0214707Y0158248D02*
X0215866Y0158248D01*
X0214663Y0168720D02*
X0215866Y0168720D01*
X0215866Y0168720D02*
X0215866Y0158248D01*
X0206597Y0158248D02*
X0205394Y0158248D01*
D66*
X0135581Y0199317D02*
X0132726Y0202172D01*
X0132726Y0202172D02*
X0132726Y0224219D01*
X0149656Y0172742D02*
X0149656Y0244691D01*
X0132726Y0224219D02*
X0135581Y0227073D01*
X0135581Y0227073D02*
X0135581Y0244691D01*
X0149656Y0244691D02*
X0135581Y0244691D01*
X0149656Y0172742D02*
X0135581Y0172742D01*
X0135581Y0172742D02*
X0135581Y0199317D01*
D171*
X0298110Y0114252D02*
X0298110Y0124724D01*
X0307379Y0124724D02*
X0308583Y0124724D01*
X0307423Y0114252D02*
X0308583Y0114252D01*
X0299313Y0114252D02*
X0298110Y0114252D01*
X0308583Y0124724D02*
X0308583Y0114252D01*
X0299270Y0124724D02*
X0298110Y0124724D01*
X0184884Y0123406D02*
X0186043Y0123406D01*
X0186043Y0133878D02*
X0186043Y0123406D01*
X0175571Y0123406D02*
X0175571Y0133878D01*
X0176730Y0133878D02*
X0175571Y0133878D01*
X0184840Y0133878D02*
X0186043Y0133878D01*
X0176774Y0123406D02*
X0175571Y0123406D01*
D154*
X0187205Y0116433D02*
X0187205Y0112433D01*
X0193504Y0104433D02*
X0193504Y0108433D01*
X0187205Y0108433D02*
X0187205Y0104433D01*
X0193504Y0112433D02*
X0193504Y0116433D01*
D171*
X0187191Y0104198D02*
G75*
G03*
X0193504Y0104232I0003163J-001265D01*
G01*
X0187198Y0116650D02*
G75*
G02*
X0193504Y0116634I0003156J0001283D01*
G01*
D66*
X0126161Y0106122D02*
X0067500Y0106122D01*
X0067500Y0106122D02*
X0067500Y0260256D01*
X0067500Y0260256D02*
X0126161Y0260256D01*
X0126161Y0260256D02*
X0126161Y0106122D01*
X0124508Y0290453D02*
X0124508Y0268020D01*
X0123425Y0294783D02*
X0123425Y0291535D01*
X0080512Y0295005D02*
X0080512Y0267867D01*
X0123204Y0294980D02*
X0080512Y0294980D01*
X0124508Y0268020D02*
X0080512Y0267867D01*
X0123425Y0294783D02*
X0123204Y0294980D01*
X0124508Y0290453D02*
X0123425Y0291535D01*
D171*
X0348329Y0095453D02*
X0347126Y0095453D01*
X0356439Y0095453D02*
X0357598Y0095453D01*
X0347126Y0095453D02*
X0347126Y0105925D01*
X0356395Y0105925D02*
X0357598Y0105925D01*
X0348285Y0105925D02*
X0347126Y0105925D01*
X0357598Y0105925D02*
X0357598Y0095453D01*
X0287677Y0114252D02*
X0287677Y0124724D01*
X0298150Y0124724D02*
X0298150Y0114252D01*
X0296990Y0114252D02*
X0298150Y0114252D01*
X0288836Y0124724D02*
X0287677Y0124724D01*
X0288880Y0114252D02*
X0287677Y0114252D01*
X0296946Y0124724D02*
X0298150Y0124724D01*
X0352222Y0163996D02*
X0351063Y0163996D01*
X0360376Y0153524D02*
X0361535Y0153524D01*
X0351063Y0153524D02*
X0351063Y0163996D01*
X0361535Y0163996D02*
X0361535Y0153524D01*
X0360332Y0163996D02*
X0361535Y0163996D01*
X0352266Y0153524D02*
X0351063Y0153524D01*
X0290002Y0095453D02*
X0291161Y0095453D01*
X0281892Y0095453D02*
X0280689Y0095453D01*
X0291161Y0105925D02*
X0291161Y0095453D01*
X0281848Y0105925D02*
X0280689Y0105925D01*
X0289958Y0105925D02*
X0291161Y0105925D01*
X0280689Y0095453D02*
X0280689Y0105925D01*
D154*
X0049213Y0124012D02*
X0049213Y0120012D01*
X0055512Y0112012D02*
X0055512Y0116012D01*
X0055512Y0120012D02*
X0055512Y0124012D01*
X0049213Y0116012D02*
X0049213Y0112012D01*
D171*
X0049199Y0111777D02*
G75*
G03*
X0055512Y0111811I0003163J-001265D01*
G01*
X0049206Y0124228D02*
G75*
G02*
X0055512Y0124213I0003156J0001283D01*
G01*
X0247006Y0106122D02*
X0245846Y0106122D01*
X0256319Y0106122D02*
X0256319Y0095650D01*
X0255116Y0106122D02*
X0256319Y0106122D01*
X0247050Y0095650D02*
X0245846Y0095650D01*
X0245846Y0095650D02*
X0245846Y0106122D01*
X0255160Y0095650D02*
X0256319Y0095650D01*
D154*
X0200000Y0108433D02*
X0200000Y0104433D01*
X0206299Y0112433D02*
X0206299Y0116433D01*
X0200000Y0116433D02*
X0200000Y0112433D01*
X0206299Y0104433D02*
X0206299Y0108433D01*
D171*
X0206306Y0104217D02*
G75*
G02*
X0200000Y0104232I-003156J-001283D01*
G01*
X0206313Y0116668D02*
G75*
G03*
X0200000Y0116634I-003163J0001265D01*
G01*
X0225709Y0133583D02*
X0225709Y0123110D01*
X0215236Y0123110D02*
X0215236Y0133583D01*
X0216439Y0123110D02*
X0215236Y0123110D01*
X0224505Y0133583D02*
X0225709Y0133583D01*
X0216396Y0133583D02*
X0215236Y0133583D01*
X0224549Y0123110D02*
X0225709Y0123110D01*
X0278403Y0124724D02*
X0277244Y0124724D01*
X0278447Y0114252D02*
X0277244Y0114252D01*
X0286557Y0114252D02*
X0287717Y0114252D01*
X0277244Y0114252D02*
X0277244Y0124724D01*
X0287717Y0124724D02*
X0287717Y0114252D01*
X0286513Y0124724D02*
X0287717Y0124724D01*
X0336831Y0105925D02*
X0336831Y0095453D01*
X0326358Y0095453D02*
X0326358Y0105925D01*
X0335671Y0095453D02*
X0336831Y0095453D01*
X0327562Y0095453D02*
X0326358Y0095453D01*
X0335627Y0105925D02*
X0336831Y0105925D01*
X0327518Y0105925D02*
X0326358Y0105925D01*
X0359112Y0105925D02*
X0357953Y0105925D01*
X0359156Y0095453D02*
X0357953Y0095453D01*
X0357953Y0095453D02*
X0357953Y0105925D01*
X0368425Y0105925D02*
X0368425Y0095453D01*
X0367222Y0105925D02*
X0368425Y0105925D01*
X0367266Y0095453D02*
X0368425Y0095453D01*
X0145492Y0133878D02*
X0145492Y0123406D01*
X0136179Y0133878D02*
X0135020Y0133878D01*
X0135020Y0123406D02*
X0135020Y0133878D01*
X0144333Y0123406D02*
X0145492Y0123406D01*
X0136223Y0123406D02*
X0135020Y0123406D01*
X0144289Y0133878D02*
X0145492Y0133878D01*
X0574472Y0367811D02*
X0546472Y0367811D01*
X0546472Y0367811D02*
X0546472Y0415811D01*
X0546472Y0415811D02*
X0574472Y0415811D01*
X0574472Y0415811D02*
X0574472Y0367811D01*
D66*
X0282035Y0226642D02*
X0282035Y0180382D01*
X0282035Y0180382D02*
X0301327Y0180382D01*
X0282035Y0226642D02*
X0301327Y0226642D01*
X0301720Y0226642D02*
X0301720Y0180382D01*
D171*
X0192463Y0158248D02*
X0193622Y0158248D01*
X0193622Y0168720D02*
X0193622Y0158248D01*
X0192419Y0168720D02*
X0193622Y0168720D01*
X0184353Y0158248D02*
X0183150Y0158248D01*
X0184309Y0168720D02*
X0183150Y0168720D01*
X0183150Y0158248D02*
X0183150Y0168720D01*
D154*
X0179232Y0116512D02*
X0179232Y0112512D01*
X0185531Y0104512D02*
X0185531Y0108512D01*
X0179232Y0108512D02*
X0179232Y0104512D01*
X0185531Y0112512D02*
X0185531Y0116512D01*
D171*
X0185545Y0116746D02*
G75*
G03*
X0179232Y0116713I-003163J0001265D01*
G01*
X0185538Y0104295D02*
G75*
G02*
X0179232Y0104311I-003156J-001283D01*
G01*
X0166002Y0133878D02*
X0164843Y0133878D01*
X0164843Y0123406D02*
X0164843Y0133878D01*
X0175315Y0133878D02*
X0175315Y0123406D01*
X0174112Y0133878D02*
X0175315Y0133878D01*
X0174156Y0123406D02*
X0175315Y0123406D01*
X0166046Y0123406D02*
X0164843Y0123406D01*
D154*
X0058268Y0124012D02*
X0058268Y0120012D01*
X0064567Y0112012D02*
X0064567Y0116012D01*
X0064567Y0120012D02*
X0064567Y0124012D01*
X0058268Y0116012D02*
X0058268Y0112012D01*
D171*
X0058261Y0124228D02*
G75*
G02*
X0064567Y0124213I0003156J0001283D01*
G01*
X0058254Y0111777D02*
G75*
G03*
X0064567Y0111811I0003163J-001265D01*
G01*
X0586000Y0278803D02*
X0614000Y0278803D01*
X0614000Y0278803D02*
X0614000Y0230803D01*
X0614000Y0230803D02*
X0586000Y0230803D01*
X0586000Y0230803D02*
X0586000Y0278803D01*
X0314564Y0105925D02*
X0315768Y0105925D01*
X0315768Y0105925D02*
X0315768Y0095453D01*
X0306455Y0105925D02*
X0305295Y0105925D01*
X0306499Y0095453D02*
X0305295Y0095453D01*
X0305295Y0095453D02*
X0305295Y0105925D01*
X0314608Y0095453D02*
X0315768Y0095453D01*
X0206198Y0133780D02*
X0207402Y0133780D01*
X0206242Y0123307D02*
X0207402Y0123307D01*
X0198132Y0123307D02*
X0196929Y0123307D01*
X0207402Y0133780D02*
X0207402Y0123307D01*
X0196929Y0123307D02*
X0196929Y0133780D01*
X0198088Y0133780D02*
X0196929Y0133780D01*
X0196772Y0133780D02*
X0196772Y0123307D01*
X0187502Y0123307D02*
X0186299Y0123307D01*
X0195568Y0133780D02*
X0196772Y0133780D01*
X0187459Y0133780D02*
X0186299Y0133780D01*
X0186299Y0123307D02*
X0186299Y0133780D01*
X0195612Y0123307D02*
X0196772Y0123307D01*
X0330766Y0124724D02*
X0329606Y0124724D01*
X0338919Y0114252D02*
X0340079Y0114252D01*
X0340079Y0124724D02*
X0340079Y0114252D01*
X0329606Y0114252D02*
X0329606Y0124724D01*
X0330810Y0114252D02*
X0329606Y0114252D01*
X0338875Y0124724D02*
X0340079Y0124724D01*
D66*
X0347195Y0389763D02*
X0502411Y0389470D01*
X0497785Y0363583D02*
X0499852Y0363583D01*
X0468356Y0383760D02*
X0478691Y0383760D01*
X0499852Y0363583D02*
X0502411Y0366142D01*
X0495423Y0361220D02*
X0497785Y0363583D01*
X0347195Y0361220D02*
X0495423Y0361220D01*
X0347195Y0361220D02*
X0347195Y0389763D01*
X0502411Y0366142D02*
X0502411Y0389470D01*
D154*
X0167717Y0112256D02*
X0167717Y0116256D01*
X0161417Y0116256D02*
X0161417Y0112256D01*
X0167717Y0104256D02*
X0167717Y0108256D01*
X0161417Y0108256D02*
X0161417Y0104256D01*
D171*
X0161411Y0116472D02*
G75*
G02*
X0167717Y0116457I0003156J0001283D01*
G01*
X0161404Y0104021D02*
G75*
G03*
X0167717Y0104055I0003163J-001265D01*
G01*
X0409151Y0163996D02*
X0410354Y0163996D01*
X0401085Y0153524D02*
X0399882Y0153524D01*
X0401041Y0163996D02*
X0399882Y0163996D01*
X0410354Y0163996D02*
X0410354Y0153524D01*
X0409195Y0153524D02*
X0410354Y0153524D01*
X0399882Y0153524D02*
X0399882Y0163996D01*
X0300829Y0095453D02*
X0301988Y0095453D01*
X0301988Y0105925D02*
X0301988Y0095453D01*
X0292675Y0105925D02*
X0291516Y0105925D01*
X0292719Y0095453D02*
X0291516Y0095453D01*
X0291516Y0095453D02*
X0291516Y0105925D01*
X0300785Y0105925D02*
X0301988Y0105925D01*
X0317084Y0105925D02*
X0315925Y0105925D01*
X0326398Y0105925D02*
X0326398Y0095453D01*
X0317128Y0095453D02*
X0315925Y0095453D01*
X0325238Y0095453D02*
X0326398Y0095453D01*
X0325194Y0105925D02*
X0326398Y0105925D01*
X0315925Y0095453D02*
X0315925Y0105925D01*
X0276080Y0124724D02*
X0277283Y0124724D01*
X0267970Y0124724D02*
X0266811Y0124724D01*
X0277283Y0124724D02*
X0277283Y0114252D01*
X0266811Y0114252D02*
X0266811Y0124724D01*
X0268014Y0114252D02*
X0266811Y0114252D01*
X0276124Y0114252D02*
X0277283Y0114252D01*
X0144961Y0123406D02*
X0144961Y0133878D01*
X0155433Y0133878D02*
X0155433Y0123406D01*
X0154274Y0123406D02*
X0155433Y0123406D01*
X0146164Y0123406D02*
X0144961Y0123406D01*
X0154230Y0133878D02*
X0155433Y0133878D01*
X0146120Y0133878D02*
X0144961Y0133878D01*
D66*
X0304984Y0229674D02*
X0368665Y0229674D01*
X0325752Y0193059D02*
X0328705Y0190107D01*
X0328705Y0172784D02*
X0332937Y0168552D01*
X0328705Y0172784D02*
X0328705Y0190107D01*
X0304984Y0193552D02*
X0305476Y0193059D01*
X0304984Y0193552D02*
X0304984Y0229674D01*
X0332937Y0168552D02*
X0368665Y0168552D01*
X0305476Y0193059D02*
X0325752Y0193059D01*
X0368665Y0168552D02*
X0368665Y0229674D01*
D154*
X0040157Y0124012D02*
X0040157Y0120012D01*
X0046457Y0120012D02*
X0046457Y0124012D01*
X0046457Y0112012D02*
X0046457Y0116012D01*
X0040157Y0116012D02*
X0040157Y0112012D01*
D171*
X0040151Y0124228D02*
G75*
G02*
X0046457Y0124213I0003156J0001283D01*
G01*
X0040144Y0111777D02*
G75*
G03*
X0046457Y0111811I0003163J-001265D01*
G01*
X0058512Y0287713D02*
G75*
G03*
X0058512Y0287713I-004724J0000000D01*
G01*
X0155659Y0382900D02*
G01*
G75*
D66*
X0157135Y0383491D02*
X0157357Y0383294D01*
X0157135Y0383491D02*
X0157135Y0386739D01*
X0156053Y0387821D02*
X0157135Y0386739D01*
X0200049Y0383269D02*
X0200049Y0410407D01*
X0156053Y0410254D02*
X0200049Y0410407D01*
X0157357Y0383294D02*
X0200049Y0383294D01*
X0156053Y0387821D02*
X0156053Y0410254D01*
X0346801Y0360827D02*
G01*
G75*
D66*
X0347195Y0361221D02*
X0495423Y0361221D01*
X0497785Y0363583D01*
X0499852Y0363583D01*
X0502411Y0366142D01*
X0468356Y0383760D02*
X0478691Y0383760D01*
X0347195Y0389763D02*
X0502411Y0389470D01*
X0347195Y0361221D02*
X0347195Y0389763D01*
X0502411Y0366142D02*
X0502411Y0389470D01*
X0154380Y0232171D02*
G01*
G75*
D66*
X0156694Y0378824D02*
X0327510Y0378824D01*
X0330266Y0376069D01*
X0336270Y0376069D01*
X0154774Y0234809D02*
X0157014Y0232569D01*
X0337153Y0375186D02*
X0337153Y0233917D01*
X0154774Y0376905D02*
X0154774Y0234809D01*
X0154774Y0376905D02*
X0156694Y0378824D01*
X0157014Y0232569D02*
X0335804Y0232569D01*
X0337153Y0233917D01*
X0336270Y0376069D02*
X0337153Y0375186D01*
X0154774Y0171836D02*
G01*
G75*
D66*
X0156743Y0229218D02*
X0274459Y0229218D01*
X0276427Y0227249D01*
X0276427Y0175871D02*
X0276427Y0227249D01*
X0272786Y0172230D02*
X0276427Y0175871D01*
X0161270Y0172230D02*
X0272806Y0172230D01*
X0155168Y0178332D02*
X0161270Y0172230D01*
X0155168Y0178332D02*
X0155168Y0227643D01*
X0156743Y0229218D01*
X0150049Y0172349D02*
G01*
G75*
D66*
X0135580Y0227073D02*
X0135580Y0244691D01*
X0132726Y0224219D02*
X0135580Y0227073D01*
X0135580Y0172743D02*
X0135580Y0199318D01*
X0132726Y0202172D01*
X0132726Y0224219D01*
X0149655Y0244691D02*
X0135580Y0244691D01*
X0149655Y0172743D02*
X0149655Y0244691D01*
X0149655Y0172743D02*
X0135580Y0172743D01*
X0374311Y0173278D02*
G01*
G75*
D66*
X0374571Y0238153D02*
X0375104Y0238686D01*
X0374571Y0174653D02*
X0374571Y0238153D01*
X0374571Y0174653D02*
X0375530Y0173694D01*
X0483734Y0173694D01*
X0375104Y0238686D02*
X0375104Y0336127D01*
X0381305Y0342328D02*
X0483372Y0342328D01*
X0375104Y0336127D02*
X0381305Y0342328D01*
X0483372Y0342328D02*
X0485242Y0340458D01*
X0483734Y0173694D02*
X0485242Y0175202D01*
X0485242Y0340458D01*
X0105285Y0328895D02*
G01*
G75*
D66*
X0132057Y0377812D02*
X0135994Y0377812D01*
X0129104Y0380765D02*
X0129104Y0383122D01*
X0105285Y0381895D02*
X0106512Y0383122D01*
X0105285Y0330077D02*
X0106073Y0329290D01*
X0135011Y0329290D01*
X0135994Y0330273D01*
X0135994Y0377812D01*
X0129104Y0380765D02*
X0132057Y0377812D01*
X0106512Y0383122D02*
X0129104Y0383122D01*
X0304590Y0168158D02*
G01*
G75*
D66*
X0328704Y0172784D02*
X0332936Y0168552D01*
X0328704Y0172784D02*
X0328704Y0190107D01*
X0304984Y0193552D02*
X0305476Y0193059D01*
X0325752Y0193059D01*
X0304984Y0193552D02*
X0304984Y0229674D01*
X0325752Y0193059D02*
X0328704Y0190107D01*
X0332936Y0168552D02*
X0368665Y0168552D01*
X0304984Y0229674D02*
X0368665Y0229674D01*
X0368665Y0168552D02*
X0368665Y0229674D01*
X0067106Y0260650D02*
%LPD*%
G01*
D66*
X0126161Y0106122D02*
X0126161Y0260256D01*
X0126161Y0260256D02*
X0067500Y0260256D01*
X0067500Y0260256D02*
X0067500Y0106122D01*
X0067500Y0106122D02*
X0126161Y0106122D01*
X0124902Y0295374D02*
G01*
G75*
D66*
X0123426Y0294783D02*
X0123204Y0294980D01*
X0123426Y0294783D02*
X0123426Y0291535D01*
X0124508Y0290453D02*
X0123426Y0291535D01*
X0080512Y0295005D02*
X0080512Y0267867D01*
X0124508Y0268020D02*
X0080512Y0267867D01*
X0123204Y0294980D02*
X0080512Y0294980D01*
X0124508Y0290453D02*
X0124508Y0268020D01*
X0244882Y0127264D02*
G01*
G75*
X0281543Y0227035D02*
G01*
G75*
D66*
X0282035Y0226641D02*
X0282035Y0180381D01*
X0301326Y0180381D01*
X0301720Y0226641D02*
X0301720Y0180381D01*
X0282035Y0226641D02*
X0301326Y0226641D01*
M02*
