M48
INCH,TZ
T01C0.013750
T02C0.027600
T03C0.032000
T04C0.039200
T05C0.043300
T06C0.078700
T07C0.086600
T08C0.145700
%
T01
X53843Y12433
X53843Y11606
X53843Y10779
X54394Y23378
X54394Y22551
X54394Y21724
X55467Y21021
X55467Y20706
X55467Y13540
X55467Y13225
X57930Y20784
X57930Y20430
X57938Y13816
X57938Y13461
X7360Y10789
X7754Y10789
X8148Y10789
X8541Y10789
X8974Y25848
X9368Y25848
X10766Y25848
X11159Y25848
X28479Y19298
X28479Y22605
X28814Y19298
X29030Y22605
X29148Y19298
X29244Y22162
X29454Y22605
X29483Y19298
X29724Y18728
X30005Y22605
X3583Y39026
X3583Y33514
X3583Y28789
X3583Y24065
X3583Y18947
X3583Y14616
X4370Y8317
X4370Y5955
X5157Y30472
X5930Y37078
X5945Y16978
X5945Y15404
X5945Y13829
X6009Y30070
X6339Y39419
X6339Y3593
X6496Y24764
X6496Y23189
X6496Y21614
X6496Y20039
X6496Y18465
X6732Y8711
X6732Y7530
X6732Y6348
X6757Y37472
X6988Y32490
X7126Y42175
X7520Y27215
X7894Y32372
X8056Y30385
X8130Y31841
X8135Y29716
X8307Y9104
X8307Y837
X8337Y32648
X8593Y31841
X8701Y7530
X8701Y6348
X8986Y31919
X9094Y37844
X9094Y34695
X9094Y4380
X9272Y32392
X9449Y33219
X9528Y30551
X9724Y26220
X9882Y39026
X9882Y35482
X9882Y33907
X9882Y5167
X9882Y3199
X9941Y37372
X9980Y33199
X10197Y9734
X10276Y40600
X10276Y26575
X10295Y30443
X10342Y33535
X10512Y9734
X10669Y443
X10846Y9734
X11063Y29685
X11181Y9734
X11280Y32628
X11516Y41732
X11516Y40010
X11575Y26220
X11929Y29764
X12244Y10285
X12244Y443
X12343Y29764
X12559Y26575
X12638Y30758
X12638Y29183
X12677Y27913
X12717Y27598
X12717Y27283
X12785Y25866
X12785Y24016
X12785Y22874
X12785Y20669
X12785Y18268
X12785Y15787
X12785Y14331
X12785Y12913
X12785Y10748
X13031Y29961
X13287Y5502
X13297Y32608
X13307Y38100
X13425Y41781
X13425Y3199
X13563Y6722
X13612Y384
X13898Y30354
X13986Y4311
X14045Y9675
X14080Y25070
X14134Y29252
X14183Y16407
X14213Y2018
X14222Y11398
X14276Y34637
X14291Y31260
X14291Y24754
X14331Y29803
X14370Y32953
X14409Y38297
X14567Y40069
X14724Y17078
X14724Y16211
X14843Y26575
X14882Y27126
X14921Y28543
X14980Y5758
X15079Y32008
X15079Y30827
X15079Y29646
X15157Y38100
X15177Y34902
X15182Y33643
X15197Y16447
X15236Y25197
X15413Y40030
X15472Y10030
X15472Y9144
X15519Y38019
X15709Y41811
X15787Y2018
X16014Y12205
X16457Y41496
X16575Y2411
X17106Y15453
X17539Y7982
X17874Y41496
X17943Y5837
X17953Y3435
X17977Y14047
X17992Y15000
X18002Y15817
X18435Y15413
X19016Y2766
X19291Y8789
X19331Y7884
X19488Y41378
X19547Y38081
X19626Y15236
X19764Y4892
X20157Y8789
X20157Y7884
X20217Y39065
X20325Y38140
X20551Y40591
X20581Y9734
X20610Y14941
X20728Y4902
X21063Y5906
X21280Y7953
X21535Y38091
X21742Y38504
X22047Y2746
X22077Y16496
X22087Y41850
X22087Y40118
X22116Y14626
X22441Y40472
X22461Y16486
X22913Y8002
X23228Y13593
X23268Y40207
X23278Y16752
X23386Y15876
X23484Y41762
X23593Y7933
X23661Y41260
X23868Y8219
X24055Y3415
X24154Y2254
X24173Y15719
X24420Y15364
X24420Y14630
X24528Y2254
X24685Y11033
X24961Y40079
X25000Y1345
X25039Y12215
X25315Y17057
X25315Y11309
X25472Y41220
X25551Y1345
X25630Y9813
X25669Y11624
X26014Y16722
X26024Y8317
X26053Y3711
X26299Y40197
X26299Y11545
X26378Y16093
X26417Y41781
X26535Y38079
X26575Y12096
X26575Y1703
X26693Y16781
X26732Y10364
X26811Y8317
X26929Y5600
X26929Y1703
X26969Y11191
X27205Y1230
X27520Y41181
X27598Y23060
X27717Y16841
X27717Y16093
X27795Y21014
X27795Y20197
X27795Y18612
X27795Y17864
X28016Y21880
X28022Y5049
X28031Y4144
X28421Y17023
X28583Y10915
X28740Y16742
X28752Y17553
X28780Y16112
X29084Y17570
X29173Y41781
X29331Y17077
X29449Y5010
X29567Y10955
X29567Y1230
X29685Y5797
X29764Y16722
X29921Y23140
X30039Y17077
X30079Y41693
X30079Y40039
X30236Y5876
X30276Y11309
X30394Y38858
X30512Y5010
X30551Y41378
X30787Y17943
X30787Y16191
X30876Y3533
X30945Y38898
X31043Y39331
X31073Y7884
X31378Y16112
X31535Y1230
X31880Y19134
X31929Y41654
X32057Y17096
X32421Y7943
X32559Y5325
X32677Y14144
X33209Y38907
X33307Y38022
X33386Y15600
X33386Y14813
X33504Y1230
X33543Y15955
X33583Y5285
X33622Y14026
X33922Y28148
X33986Y33091
X34075Y23612
X34094Y33898
X34094Y24478
X34114Y32244
X34114Y29724
X34124Y35404
X34134Y14852
X34134Y14065
X34173Y25955
X34173Y10955
X34272Y28150
X34321Y33130
X34331Y30531
X34331Y30197
X34370Y14577
X34449Y38071
X34547Y24006
X34567Y35079
X34606Y1762
X34646Y14341
X34764Y10994
X34882Y35935
X34892Y24272
X34892Y23967
X34892Y23238
X35010Y1329
X35039Y41732
X35059Y16142
X35059Y15886
X35187Y32569
X35187Y29362
X35236Y25659
X35236Y24636
X35305Y43435
X35339Y33850
X35354Y34646
X35354Y11663
X35423Y29952
X35473Y29231
X35709Y16644
X35709Y16407
X35827Y35758
X35866Y39419
X36142Y8356
X36142Y7333
X36142Y6309
X36166Y31252
X36181Y25541
X36245Y23850
X36299Y10876
X36402Y31527
X36535Y24281
X36565Y11496
X36638Y31803
X36693Y13632
X36722Y14252
X36850Y7096
X36929Y8150
X36969Y10837
X37028Y3396
X37087Y24596
X37087Y4222
X37096Y9075
X37126Y33780
X37165Y35827
X37165Y25581
X37195Y23740
X37323Y12923
X37520Y14301
X37559Y7923
X37638Y11860
X37638Y11388
X37699Y14113
X37854Y13484
X37933Y15177
X37933Y14941
X37953Y1742
X37982Y14094
X37992Y3396
X38031Y4931
X38031Y4262
X38110Y7372
X38228Y39419
X38307Y35079
X38346Y10443
X38376Y14144
X38396Y15482
X38396Y15226
X38484Y6329
X38612Y14144
X38622Y34606
X38898Y41732
X38937Y16161
X38937Y15915
X39016Y1230
X39488Y5522
X39675Y12579
X39801Y11321
X39951Y12579
X40044Y11901
X40148Y4823
X40177Y11348
X40187Y12589
X40536Y10799
X40719Y9154
X40984Y41781
X40984Y39419
X41378Y1230
X41772Y34567
X41954Y11035
X42293Y17165
X42367Y8948
X42402Y15246
X42461Y17018
X42628Y16850
X42874Y14774
X43346Y39419
X43430Y7826
X43947Y4990
X44134Y41781
X44134Y2018
X44281Y13287
X44528Y16585
X44774Y15502
X44906Y8023
X45157Y34567
X45630Y1329
X45709Y39419
X45709Y16585
X45738Y5394
X46102Y2018
X46132Y14350
X46171Y13386
X46348Y13209
X46496Y41781
X46526Y13031
X46835Y16881
X46835Y16606
X46835Y16330
X47037Y14370
X47037Y453
X47269Y15563
X48174Y11212
X48253Y13299
X48465Y39419
X48465Y2018
X48543Y35079
X48573Y41693
X48725Y14106
X48745Y16153
X48976Y34370
X49016Y43287
X49434Y35582
X49646Y33120
X49646Y31545
X49646Y29970
X49646Y28396
X49646Y26821
X49646Y25246
X49646Y23671
X49646Y22096
X49646Y20522
X49646Y18947
X49646Y17372
X49783Y13327
X49961Y35354
X50300Y36370
X50305Y37293
X50315Y34803
X50354Y35354
X50497Y38732
X50576Y40070
X50807Y17510
X50827Y39419
X50866Y25256
X50930Y15425
X50930Y14165
X50945Y31417
X51102Y28346
X51220Y1624
X51461Y21783
X51560Y19047
X51599Y23515
X51732Y36496
X51816Y15700
X51929Y33583
X52643Y10385
X52662Y11606
X52662Y11114
X52717Y20669
X52721Y18378
X52741Y15897
X52761Y13594
X52780Y14480
X52800Y19834
X52918Y21271
X53154Y23771
X53174Y22964
X53189Y29370
X53194Y22137
X53272Y3279
X53568Y8102
X54055Y24370
X54173Y26378
X54370Y1624
X54680Y13186
X54882Y36220
X55339Y23141
X55633Y21965
X55674Y4244
X55733Y8476
X55768Y1496
X55812Y22433
X56220Y34331
X56345Y21379
X56351Y13461
X56457Y26890
X56538Y20391
X56580Y9500
X56649Y13855
X56654Y22756
X56835Y13279
X56835Y11350
X56954Y21507
X56954Y20391
X57047Y23701
X57050Y13816
X57126Y35394
X57244Y29882
X57643Y6133
X58031Y3878
X58071Y21693
X58509Y7944
X60103Y19893
X60143Y18378
X60162Y17000
X60280Y14322
X61024Y22323
X61225Y11921
X9341Y28494
X9370Y27096
X9459Y28996
X9803Y28789
X11188Y37840
X12714Y36590
X12792Y37722
X12798Y36246
X12798Y36974
X12828Y35911
X13005Y35271
X13521Y36807
X13521Y35783
X13521Y35015
X18253Y39038
X18597Y38831
X18686Y40731
X18716Y39333
X30804Y19582
X32949Y22278
X32956Y20218
X33697Y20024
X34931Y38799
X35477Y37303
X36187Y22800
X39759Y38799
X45349Y38799
X49641Y38799
X18253Y39038
X18597Y38831
X18716Y39333
X18686Y40731
X35477Y37303
X34931Y38800
X39759Y38800
X45349Y38800
X49641Y38800
X16412Y23758
X16786Y23739
X17229Y24319
X17751Y24516
X17721Y24831
X17387Y25461
X16560Y25333
X16225Y24821
X16235Y24270
X18253Y24260
X18942Y24250
X19188Y24044
X19601Y23719
X20035Y23709
X19847Y24231
X19375Y24713
X18981Y24762
X19090Y25254
X19562Y25176
X20261Y24811
X20477Y25628
X21029Y25540
X21019Y26022
X20606Y26514
X20379Y27182
X20901Y27144
X21137Y27361
X21285Y27056
X21767Y26977
X21895Y27321
X22210Y27203
X22347Y27577
X22682Y27351
X22840Y26997
X23145Y27095
X24011Y27636
X23538Y28365
X24179Y28877
X24473Y29044
X24759Y28817
X26029Y28748
X25980Y27833
X25989Y27518
X25989Y27203
X25812Y26071
X25192Y26071
X26078Y25579
X26698Y25648
X26668Y25993
X27279Y25776
X27475Y26042
X27427Y27056
X27269Y27331
X27190Y27636
X26964Y27863
X26816Y28168
X28155Y27469
X28450Y27351
X28647Y26032
X28853Y25097
X29110Y24880
X29414Y25018
X29769Y25048
X29927Y25520
X30251Y25523
X30567Y25540
X29562Y25520
X29632Y26623
X29956Y26623
X30271Y26632
X30625Y26623
X29857Y23739
X29139Y24408
X27308Y24556
X27023Y24703
X26629Y24772
X26314Y24782
X26117Y24132
X24927Y24123
X24916Y23808
X24897Y24674
X24621Y25225
X24129Y25628
X23332Y25589
X23637Y25166
X23509Y24871
X22692Y25107
X22230Y25245
X21983Y25008
X21540Y25077
X21678Y25638
X22338Y25983
X21836Y24506
X21078Y24516
X21993Y23827
X24021Y23965
X24247Y24191
X27653Y23561
X28666Y29684
X28666Y30003
X28489Y30402
X28209Y30194
X27958Y30402
X28047Y30875
X28292Y31150
X28105Y31937
X28410Y32026
X28725Y32056
X29056Y32095
X27810Y32311
X28017Y32568
X27978Y33058
X28263Y33198
X28647Y33483
X29031Y33680
X29611Y34014
X29778Y34487
X29788Y36140
X30497Y36199
X30842Y36977
X29269Y36514
X28496Y36490
X28204Y35570
X28184Y35245
X28047Y34960
X28086Y34487
X27820Y34304
X27160Y33906
X26871Y33389
X26816Y32400
X26836Y32075
X27180Y31790
X27309Y32263
X27771Y31751
X26107Y31829
X26127Y32184
X26295Y32479
X26097Y32774
X25221Y32646
X24572Y32941
X24257Y32922
X23391Y32843
X23181Y31928
X23696Y31790
X24257Y31426
X24434Y31140
X24385Y30737
X23972Y30481
X24198Y29861
X24601Y30126
X25192Y30432
X25744Y31052
X26078Y31042
X26417Y31039
X25832Y31357
X24897Y31642
X22525Y31682
X22200Y31613
X22584Y31091
X23342Y30786
X22997Y30363
X23469Y30028
X22269Y29871
X22417Y29359
X21777Y29408
X21304Y29221
X21216Y28602
X20684Y28266
X20349Y27932
X20340Y29004
X20428Y29920
X20743Y29910
X20842Y29605
X20743Y30393
X20655Y30697
X20340Y30727
X21009Y30569
X20576Y33178
X20349Y33571
X20527Y34063
X20468Y34437
X20507Y34871
X19149Y34910
X18696Y35156
X18492Y35449
X18007Y35766
X18027Y36081
X17219Y36288
X16954Y36465
X17032Y37046
X17288Y36859
X18164Y37085
X18440Y36859
X18735Y36573
X19129Y36209
X19149Y37213
X19885Y37030
X20192Y37420
X20507Y37371
X20763Y36416
X20891Y36121
X21206Y36160
X21275Y35540
X22032Y36229
X22239Y36475
X23391Y35796
X23214Y35521
X23305Y35211
X23578Y34880
X23844Y34703
X24149Y34615
X24313Y35087
X24060Y35294
X24656Y35637
X24365Y36396
X25084Y36424
X24946Y37331
X25281Y37311
X25999Y37331
X27003Y37331
X28667Y35386
X25242Y34202
X24572Y34260
X21068Y34024
X22210Y32636
X18962Y32981
X18701Y32470
X17899Y32193
X17662Y31977
X17810Y32705
X17298Y32577
X16983Y32213
X16029Y32449
X16363Y33247
X17377Y33414
X17584Y34191
X18204Y34152
X16668Y34191
X16058Y34172
X15743Y34880
X17082Y34782
X16816Y37745
X16471Y37607
X15979Y31337
X15674Y31416
X16265Y30500
X16366Y30186
X16688Y30067
X16658Y29467
X17190Y29684
X18007Y30009
X18108Y29408
X18903Y29595
X18946Y28762
X17495Y28778
X17013Y28699
X16934Y28384
X16147Y28227
X16235Y27715
X17180Y27567
X17810Y27695
X17849Y28217
X18824Y27321
X19178Y27331
X19710Y27203
X20064Y26878
X18597Y26160
X21796Y28266
X22042Y28532
X22279Y28207
X26225Y30072
X27013Y30205
X28962Y29576
X29317Y29713
X29454Y29998
X29769Y30028
X30910Y30195
X30990Y31495
X16708Y30845
X15792Y29487
X31256Y27942
X31747Y28099
X32142Y27892
X32525Y27892
X33017Y28099
X32938Y28453
X33223Y27843
X33194Y26317
X33105Y25097
X32783Y25097
X32554Y24605
X31934Y24369
X31938Y23926
X31432Y25146
X31481Y26199
X31826Y26199
X31653Y26790
X32071Y30530
X32309Y30530
X32751Y30884
X32977Y30382
X31531Y30963
X31176Y33109
X31107Y34054
X32131Y33896
X32204Y33424
X33253Y33581
X33272Y34162
X33155Y35313
X32968Y35609
X32672Y35491
X32347Y35495
X32387Y34861
X32004Y35826
X31687Y35806
X31201Y36470
X31599Y37272
X31973Y36918
X32485Y36346
X32840Y36593
X33056Y37065
X33430Y36947
X33282Y35825
X15733Y17912
X15989Y18966
X16146Y19241
X15827Y20201
X15818Y21123
X16856Y21118
X17308Y21495
X17689Y21437
X18243Y21465
X18627Y21403
X18981Y21507
X19365Y21403
X20064Y21357
X20418Y21446
X20861Y21475
X21284Y21328
X21501Y21076
X21747Y21357
X22170Y21465
X22583Y21554
X23046Y21515
X23174Y21072
X23479Y21357
X23873Y21495
X24247Y21406
X24749Y21406
X25162Y21357
X24886Y21062
X24552Y20717
X25014Y20343
X25605Y19458
X25930Y19458
X25516Y19142
X25487Y18749
X25172Y18759
X24810Y18744
X24483Y18690
X23939Y18387
X23922Y19477
X23598Y19477
X23331Y20324
X22879Y20649
X21638Y20324
X21176Y20658
X19906Y20324
X19512Y20649
X19799Y21073
X18243Y20719
X17948Y20345
X18117Y20078
X17455Y19674
X17446Y19359
X17455Y19044
X17396Y18464
X17829Y18759
X18164Y18788
X18486Y18781
X18823Y18765
X19316Y18769
X19631Y18780
X20125Y18764
X20447Y18769
X20969Y18847
X21285Y18770
X22386Y18616
X22852Y18769
X22328Y19469
X21934Y19477
X26333Y18808
X26648Y18788
X26963Y18710
X27249Y18158
X27289Y19331
X27208Y19792
X26717Y20275
X26334Y20591
X26579Y21023
X26471Y21436
X26855Y21357
X27347Y21367
X25871Y21357
X25556Y21561
X16363Y21958
X16865Y20265
X17593Y17666
X37697Y21970
X39252Y22122
X39311Y22564
X39340Y21472
X39134Y21232
X40620Y21301
X40403Y20724
X40167Y23131
X40167Y23338
X40167Y23574
X39537Y23519
X39390Y23854
X39065Y23489
X38199Y23235
X37805Y24273
X37864Y25261
X37864Y25517
X37707Y25818
X37707Y26133
X37726Y26497
X37728Y26824
X37738Y27139
X37777Y27454
X37756Y27777
X38100Y27584
X38337Y27594
X38484Y28102
X38484Y28348
X38720Y28353
X38976Y29027
X39281Y28948
X39665Y29499
X39951Y29804
X39941Y31005
X40817Y30966
X41041Y32056
X41447Y32048
X41545Y32354
X41309Y32570
X40986Y32572
X40786Y32291
X40494Y32454
X40482Y32135
X40177Y32275
X40138Y31960
X38346Y32678
X38274Y30867
X38140Y30554
X38140Y30239
X38880Y30288
X39508Y27541
X39754Y27541
X40006Y27541
X40336Y27051
X40817Y27014
X41122Y26905
X41378Y27938
X41378Y28155
X41171Y28198
X41171Y28513
X41101Y28960
X42766Y29552
X42716Y29946
X42274Y30143
X42175Y31111
X42549Y31088
X42618Y31409
X43120Y31241
X43627Y31364
X44118Y31399
X44508Y31399
X44941Y31399
X45634Y31079
X46073Y31048
X46466Y30576
X46545Y29444
X46033Y29050
X45876Y29701
X45463Y30321
X45394Y30793
X45010Y29464
X43563Y29165
X43396Y27781
X43396Y27564
X43189Y27495
X42972Y27728
X43081Y25743
X44105Y26748
X45925Y27220
X46222Y27591
X46663Y28332
X46668Y28575
X47490Y27860
X47352Y26812
X47018Y26974
X46240Y26381
X46053Y25326
X46250Y24873
X45718Y24470
X45974Y24047
X46053Y23476
X45441Y23106
X45709Y21698
X45866Y21383
X45679Y20871
X45587Y20378
X45581Y19513
X45620Y18863
X46053Y19287
X46516Y19562
X46508Y20167
X46488Y20386
X46589Y21354
X47037Y21639
X47569Y21836
X47972Y21379
X47972Y21133
X47972Y20887
X47697Y20395
X47687Y20149
X47687Y19883
X46565Y18224
X45138Y18234
X43740Y17629
X43445Y17629
X43760Y19789
X44094Y19808
X44085Y20763
X44212Y21196
X43888Y21157
X43279Y21331
X44203Y21708
X44026Y21974
X43799Y22915
X43791Y24167
X42766Y23672
X42766Y23436
X42766Y23200
X42451Y23348
X42451Y23584
X42451Y23820
X42136Y23922
X42136Y23584
X42136Y23348
X42136Y23111
X39596Y24405
X39734Y24691
X39744Y25015
X40236Y25608
X40236Y25938
X40571Y25980
X39931Y26541
X41900Y32728
X42962Y32383
X45935Y32216
X47037Y32239
X46939Y32555
X47057Y32938
X47805Y32348
X48327Y32491
X48327Y32747
X47208Y31101
X47461Y30261
X47293Y24194
X47293Y23948
X47293Y23702
X47293Y23456
X47293Y23210
X46902Y24225
X47854Y33103
X48327Y32984
X45935Y33180
X45120Y33104
X44618Y33104
X44126Y33104
X43592Y33200
X43100Y33200
X41525Y33230
X38789Y33938
X38297Y33948
X12975Y35272
X13491Y35016
X13491Y35784
X12798Y35912
X12769Y36246
X12684Y36591
X12769Y36975
X12763Y37723
X13491Y36807
X11158Y37841
X30803Y19582
X32956Y20219
X33697Y20025
X32949Y22279
X36187Y22800
X11160Y25848
X10766Y25848
X9368Y25848
X8975Y25848
X8542Y10789
X8148Y10789
X7754Y10789
X7361Y10789
X12459Y25888
X11514Y25868
X9723Y25829
X10412Y25809
X6987Y25789
X8725Y25648
X8457Y25500
X11967Y25415
X7242Y25199
X8227Y24963
X7262Y24884
X9694Y24658
X8955Y24648
X11557Y24632
X10648Y24628
X12006Y24451
X7065Y24077
X8994Y23683
X11022Y23624
X9845Y23585
X6947Y23388
X12400Y23329
X7479Y23073
X8522Y23053
X12026Y23014
X9688Y22699
X9368Y22620
X10038Y22443
X12262Y22404
X9093Y22207
X6947Y22069
X11042Y21931
X9624Y21656
X8837Y21321
X12203Y21301
X7026Y20888
X11122Y20756
X9762Y20691
X9392Y20459
X10142Y20436
X11081Y20435
X10766Y20435
X8365Y20081
X8030Y20081
X7223Y19825
X11632Y19785
X9388Y19352
X6928Y19333
X11180Y19274
X7513Y18959
X9882Y18956
X7813Y18821
X11928Y18762
X8365Y17837
X8935Y17679
X9959Y17600
X9644Y17443
X11337Y17423
X12105Y17305
X11809Y17226
X6928Y16892
X10865Y16793
X7518Y16774
X8620Y16656
X9487Y16498
X9132Y16498
X9979Y16400
X11770Y16360
X10865Y16065
X10182Y15756
X7420Y15730
X11219Y15534
X8622Y15346
X12124Y14805
X8972Y14616
X9920Y14608
X9282Y14606
X8212Y14606
X10963Y14530
X6928Y14018
X11868Y13683
X11435Y13683
X11868Y13368
X11435Y13368
X10924Y13211
X7400Y12404
X12400Y12345
X10825Y12148
X11947Y11734
X11573Y11734
X11947Y11282
X11573Y11282
X12420Y10829
X11593Y10789
X6928Y10770
X9803Y28789
X9459Y28996
X9340Y28494
X9370Y27096
X28479Y22606
X29030Y22606
X29453Y22606
X30004Y22606
X29244Y22163
X29148Y19298
X28813Y19298
X28479Y19298
X29483Y19298
X29723Y18728
T02
X32067Y40276
X32382Y40965
X32697Y40276
X33012Y40965
X33327Y40276
X31260Y40876G85X31260Y40364
X34134Y40876G85X34134Y40364
T03
X3425Y12531
X3425Y11031
X4331Y12551
X4331Y11051
X5236Y12551
X5236Y11051
X6142Y12551
X6142Y11051
X16457Y11776
X16457Y10276
X18238Y11801
X18238Y10301
X19035Y11793
X19035Y10293
X20315Y11793
X20315Y10293
X21496Y11852
X21496Y10352
X48848Y12470
X48848Y10541
X49990Y12470
X49990Y10541
T04
X1024Y38031
X1024Y33750
X1024Y28406
X1024Y24094
X1024Y20197
X1024Y16053
X1024Y12106
X1024Y8406
X1083Y5719
X6280Y45266
X10561Y45266
X14744Y45266
X19242Y45266
X23888Y45266
X27933Y45266
X32215Y45276
X36398Y45276
X40896Y45276
X45039Y45256
X49587Y45276
X53730Y45256
X58278Y45276
X63346Y38612
X63346Y34331
X63346Y28986
X63346Y24675
X63346Y20778
X63346Y16634
X63346Y12687
X63346Y8986
X63346Y5846
X5197Y26083
X5197Y25083
X5197Y24083
X5197Y23083
X5197Y22083
X5197Y21083
X14026Y12854
X15020Y12854
X16014Y12854
X17008Y12854
X17500Y16358
X18081Y12854
X18839Y16348
X19154Y12854
X19951Y16348
X20217Y12854
X21063Y16348
X21850Y39173
X22047Y12835
X22510Y11142
X22850Y39173
X23850Y39173
X24850Y39173
X25108Y10089
X26181Y10089
X26449Y39173
X27205Y11949
X27283Y10089
X27449Y39173
X28248Y11949
X28449Y39173
X28563Y10069
X29291Y11949
X29449Y39173
X29646Y10079
X30335Y11949
X31053Y10069
X31378Y11949
X32116Y10069
X32431Y11949
X33159Y10069
X33484Y11939
X34163Y10069
X35236Y10069
X35630Y15866
X36319Y10069
X40512Y15876
X41634Y15876
X55047Y41181
X55047Y40181
X55047Y39181
X55047Y38181
X55047Y37181
X56047Y41181
X56047Y40181
X56047Y39181
X56047Y38181
X56047Y37181
X57047Y41181
X57047Y40181
X57047Y39181
X57047Y38181
X57047Y37181
X59000Y38000
X59000Y37000
X59000Y36000
X59000Y35000
X59000Y34000
X59000Y32760
X59000Y31760
X59000Y30760
X59000Y29760
X59000Y28760
X59000Y27480
X59000Y26480
X59000Y25480
X59000Y24480
X59000Y23480
X60000Y38000
X60000Y37000
X60000Y36000
X60000Y35000
X60000Y34000
X60000Y32760
X60000Y31760
X60000Y30760
X60000Y29760
X60000Y28760
X60000Y27480
X60000Y26480
X60000Y25480
X60000Y24480
X60000Y23480
X61000Y38000
X61000Y37000
X61000Y36000
X61000Y35000
X61000Y34000
X61000Y32760
X61000Y31760
X61000Y30760
X61000Y29760
X61000Y28760
X61000Y27480
X61000Y26480
X61000Y25480
X61000Y24480
X61000Y23480
X32381Y32709
X33181Y32709
X32781Y34709
X7794Y25648
X8194Y23648
X7394Y23648
T05
X15531Y7331
X15531Y6331
X15531Y3950
X15531Y2950
X16531Y7331
X16531Y6331
X16531Y3950
X16531Y2950
X17531Y7331
X17531Y6331
X17531Y3950
X17531Y2950
X18531Y7331
X18531Y6331
X18531Y3950
X18531Y2950
X19531Y7331
X19531Y6331
X19531Y3950
X19531Y2950
X20531Y7331
X20531Y6331
X20531Y3950
X20531Y2950
X21531Y7331
X21531Y6331
X21531Y3950
X21531Y2950
X22531Y7331
X22531Y6331
X22531Y3950
X22531Y2950
X23531Y7331
X23531Y6331
X23531Y3950
X23531Y2950
X24531Y7331
X24531Y6331
X24531Y3950
X24531Y2950
X25531Y7331
X25531Y6331
X25531Y3950
X25531Y2950
X26531Y7331
X26531Y6331
X26531Y3950
X26531Y2950
X27531Y7331
X27531Y6331
X27531Y3950
X27531Y2950
X28531Y7331
X28531Y6331
X28531Y3950
X28531Y2950
X29531Y7331
X29531Y6331
X29531Y3950
X29531Y2950
X30531Y7331
X30531Y6331
X30531Y3950
X30531Y2950
X31531Y7331
X31531Y6331
X31531Y3950
X31531Y2950
X32531Y7331
X32531Y6331
X32531Y3950
X32531Y2950
X33531Y7331
X33531Y6331
X33531Y3950
X33531Y2950
X39818Y7331
X39818Y6331
X39818Y3950
X39818Y2950
X40818Y7331
X40818Y6331
X40818Y3950
X40818Y2950
X41818Y7331
X41818Y6331
X41818Y3950
X41818Y2950
X42818Y7331
X42818Y6331
X42818Y3950
X42818Y2950
X43818Y7331
X43818Y6331
X43818Y3950
X43818Y2950
X44818Y7331
X44818Y6331
X44818Y3950
X44818Y2950
X45818Y7331
X45818Y6331
X45818Y3950
X45818Y2950
X46818Y7331
X46818Y6331
X46818Y3950
X46818Y2950
T06
X35709Y41142
X37165Y40276
X37913Y41142
X39370Y40276
X40354Y41142
T07
X8306Y5233
X10137Y7331
X10137Y4131
X11279Y5048
X12420Y7331
X12420Y4131
X49901Y7331
X49901Y4131
X51043Y5048
X52184Y7331
X52184Y4131
X53365Y5048
X54507Y7331
X54507Y4131
X56259Y5233
T08
X7342Y2162
X36672Y2162
X57224Y2162
M30
