G75*
G70*
%OFA0B0*%
%FSLAX25Y25*%
%IPPOS*%
%LPD*%
%AMOC8*
5,1,8,0,0,1.08239X$1,22.5*
%
%ADD10C,0.00787*%
%ADD11C,0.02756*%
%ADD115C,0.11024*%
%ADD12C,0.11811*%
%ADD20C,0.14567*%
%ADD21C,0.08661*%
%ADD22C,0.10236*%
%ADD23C,0.05906*%
%ADD24C,0.06693*%
%ADD25C,0.02362*%
%ADD52C,0.06000*%
%ADD55C,0.07874*%
%ADD61R,0.06693X0.06693*%
%ADD62O,0.06693X0.06693*%
%ADD74R,0.04331X0.04331*%
%ADD75C,0.04331*%
%ADD76O,0.04331X0.09449*%
%ADD84C,0.03150*%
%ADD85C,0.01000*%
%ADD86C,0.01575*%
%ADD87C,0.01969*%
%ADD88C,0.01181*%
%ADD90C,0.03937*%
X0000000Y0000000D02*
%LPD*%
G01*
D11*
X0073602Y0107894D03*
X0077539Y0107894D03*
X0081476Y0107894D03*
X0085413Y0107894D03*
X0111594Y0258484D03*
X0107657Y0258484D03*
X0093681Y0258484D03*
X0089744Y0258484D03*
D20*
X0572236Y0021622D03*
X0073417Y0021622D03*
X0366724Y0021622D03*
D21*
X0562591Y0052331D03*
X0083063Y0052331D03*
D22*
X0101370Y0041307D03*
X0124205Y0041307D03*
X0112787Y0050480D03*
X0101370Y0073315D03*
X0124205Y0073315D03*
D23*
X0335307Y0073315D03*
X0325307Y0073315D03*
X0315307Y0073315D03*
X0305307Y0073315D03*
X0295307Y0073315D03*
X0285307Y0073315D03*
X0275307Y0073315D03*
X0265307Y0073315D03*
X0255307Y0073315D03*
X0245307Y0073315D03*
X0235307Y0073315D03*
X0225307Y0073315D03*
X0215307Y0073315D03*
X0205307Y0073315D03*
X0195307Y0073315D03*
X0185307Y0073315D03*
X0175307Y0073315D03*
X0165307Y0073315D03*
X0155307Y0073315D03*
X0335307Y0063315D03*
X0325307Y0063315D03*
X0315307Y0063315D03*
X0305307Y0063315D03*
X0295307Y0063315D03*
X0285307Y0063315D03*
X0275307Y0063315D03*
X0265307Y0063315D03*
X0255307Y0063315D03*
X0245307Y0063315D03*
X0235307Y0063315D03*
X0225307Y0063315D03*
X0215307Y0063315D03*
X0205307Y0063315D03*
X0195307Y0063315D03*
X0185307Y0063315D03*
X0175307Y0063315D03*
X0165307Y0063315D03*
X0155307Y0063315D03*
X0335307Y0039496D03*
X0325307Y0039496D03*
X0315307Y0039496D03*
X0305307Y0039496D03*
X0295307Y0039496D03*
X0285307Y0039496D03*
X0275307Y0039496D03*
X0265307Y0039496D03*
X0255307Y0039496D03*
X0245307Y0039496D03*
X0235307Y0039496D03*
X0225307Y0039496D03*
X0215307Y0039496D03*
X0205307Y0039496D03*
X0195307Y0039496D03*
X0185307Y0039496D03*
X0175307Y0039496D03*
X0165307Y0039496D03*
X0155307Y0039496D03*
X0335307Y0029496D03*
X0325307Y0029496D03*
X0315307Y0029496D03*
X0305307Y0029496D03*
X0295307Y0029496D03*
X0285307Y0029496D03*
X0275307Y0029496D03*
X0265307Y0029496D03*
X0255307Y0029496D03*
X0245307Y0029496D03*
X0235307Y0029496D03*
X0225307Y0029496D03*
X0215307Y0029496D03*
X0205307Y0029496D03*
X0195307Y0029496D03*
X0185307Y0029496D03*
X0175307Y0029496D03*
X0165307Y0029496D03*
X0155307Y0029496D03*
X0398181Y0029496D03*
X0408181Y0029496D03*
X0418181Y0029496D03*
X0428181Y0029496D03*
X0438181Y0029496D03*
X0448181Y0029496D03*
X0458181Y0029496D03*
X0468181Y0029496D03*
X0398181Y0039496D03*
X0408181Y0039496D03*
X0418181Y0039496D03*
X0428181Y0039496D03*
X0438181Y0039496D03*
X0448181Y0039496D03*
X0458181Y0039496D03*
X0468181Y0039496D03*
X0398181Y0063315D03*
X0408181Y0063315D03*
X0418181Y0063315D03*
X0428181Y0063315D03*
X0438181Y0063315D03*
X0448181Y0063315D03*
X0458181Y0063315D03*
X0468181Y0063315D03*
X0398181Y0073315D03*
X0408181Y0073315D03*
X0418181Y0073315D03*
X0428181Y0073315D03*
X0438181Y0073315D03*
X0448181Y0073315D03*
X0458181Y0073315D03*
X0468181Y0073315D03*
D22*
X0499008Y0041307D03*
X0521843Y0041307D03*
X0545071Y0041307D03*
X0510425Y0050480D03*
X0533654Y0050480D03*
X0499008Y0073315D03*
X0521843Y0073315D03*
X0545071Y0073315D03*
D24*
X0175000Y0163583D03*
D25*
X0381139Y0141876D03*
X0381139Y0112349D03*
X0381139Y0109199D03*
X0381139Y0106050D03*
X0450135Y0134396D03*
X0450135Y0138333D03*
D24*
X0590000Y0287598D03*
X0590000Y0297598D03*
X0590000Y0307598D03*
X0590000Y0317598D03*
X0590000Y0327598D03*
X0600000Y0287598D03*
X0600000Y0297598D03*
X0600000Y0307598D03*
X0600000Y0317598D03*
X0600000Y0327598D03*
X0610000Y0287598D03*
X0610000Y0297598D03*
X0610000Y0307598D03*
X0610000Y0317598D03*
X0610000Y0327598D03*
D25*
X0185974Y0388314D03*
X0182530Y0390381D03*
X0187156Y0393333D03*
X0186860Y0407310D03*
D24*
X0225197Y0111319D03*
D25*
X0127982Y0369741D03*
X0135206Y0368068D03*
X0127135Y0365902D03*
X0127982Y0362458D03*
X0128277Y0359111D03*
X0135206Y0357831D03*
X0130049Y0352713D03*
X0135206Y0350154D03*
X0111879Y0378402D03*
X0127923Y0377221D03*
D24*
X0199508Y0163484D03*
X0160138Y0128642D03*
X0302145Y0118947D03*
X0262079Y0154647D03*
X0460379Y0134747D03*
X0312676Y0118947D03*
X0272835Y0100886D03*
X0262106Y0100591D03*
D52*
X0034252Y0125315D03*
X0034252Y0110315D03*
D24*
X0590000Y0340000D03*
X0590000Y0350000D03*
X0590000Y0360000D03*
X0590000Y0370000D03*
X0590000Y0380000D03*
X0600000Y0340000D03*
X0600000Y0350000D03*
X0600000Y0360000D03*
X0600000Y0370000D03*
X0600000Y0380000D03*
X0610000Y0340000D03*
X0610000Y0350000D03*
X0610000Y0360000D03*
X0610000Y0370000D03*
X0610000Y0380000D03*
D52*
X0214961Y0103524D03*
X0214961Y0118524D03*
D24*
X0341634Y0100689D03*
X0210630Y0163484D03*
X0291712Y0118947D03*
X0180807Y0128642D03*
D52*
X0190354Y0117933D03*
X0190354Y0102933D03*
X0488484Y0105413D03*
X0488484Y0124705D03*
D25*
X0094587Y0289961D03*
X0098032Y0287894D03*
X0093406Y0284941D03*
X0093701Y0270965D03*
D24*
X0323279Y0118947D03*
X0281279Y0118947D03*
X0356299Y0158760D03*
X0285925Y0100689D03*
D52*
X0052362Y0125512D03*
X0052362Y0110512D03*
D24*
X0251083Y0100886D03*
D52*
X0203150Y0102933D03*
X0203150Y0117933D03*
D24*
X0215679Y0128647D03*
X0270846Y0118947D03*
X0331594Y0100689D03*
X0344279Y0118947D03*
X0140256Y0128642D03*
D61*
X0051969Y0210827D03*
D62*
X0051969Y0220827D03*
X0051969Y0230827D03*
X0051969Y0240827D03*
X0051969Y0250827D03*
X0051969Y0260827D03*
D24*
X0570472Y0411811D03*
X0570472Y0401811D03*
X0570472Y0391811D03*
X0570472Y0381811D03*
X0570472Y0371811D03*
X0560472Y0411811D03*
X0560472Y0401811D03*
X0560472Y0391811D03*
X0560472Y0381811D03*
X0560472Y0371811D03*
X0550472Y0411811D03*
X0550472Y0401811D03*
X0550472Y0391811D03*
X0550472Y0381811D03*
X0550472Y0371811D03*
D25*
X0292441Y0221622D03*
X0294831Y0192980D03*
X0291484Y0192980D03*
X0288138Y0192980D03*
X0284791Y0192980D03*
X0297238Y0187275D03*
X0284791Y0226051D03*
X0290303Y0226051D03*
X0294535Y0226051D03*
X0300047Y0226051D03*
D24*
X0188386Y0163484D03*
D52*
X0182382Y0103012D03*
X0182382Y0118012D03*
D24*
X0170079Y0128642D03*
D52*
X0061417Y0125512D03*
X0061417Y0110512D03*
X0499902Y0105413D03*
X0499902Y0124705D03*
D24*
X0590000Y0234803D03*
X0590000Y0244803D03*
X0590000Y0254803D03*
X0590000Y0264803D03*
X0590000Y0274803D03*
X0600000Y0234803D03*
X0600000Y0244803D03*
X0600000Y0254803D03*
X0600000Y0264803D03*
X0600000Y0274803D03*
X0610000Y0234803D03*
X0610000Y0244803D03*
X0610000Y0254803D03*
X0610000Y0264803D03*
X0610000Y0274803D03*
X0304479Y0162847D03*
G36*
G01*
X0367478Y0406932D02*
X0367478Y0406932D01*
G75*
G02*
X0374159Y0406932I0003341J-003341D01*
G01*
X0375829Y0405261D01*
G75*
G02*
X0375829Y0398580I-003341J-003341D01*
G01*
X0375829Y0398580D01*
G75*
G02*
X0369148Y0398580I-003341J0003341D01*
G01*
X0367478Y0400250D01*
G75*
G02*
X0367478Y0406932I0003341J0003341D01*
G01*
G37*
G36*
G01*
X0374958Y0415593D02*
X0374958Y0415593D01*
G75*
G02*
X0381639Y0415593I0003341J-003341D01*
G01*
X0383310Y0413923D01*
G75*
G02*
X0383310Y0407241I-003341J-003341D01*
G01*
X0383310Y0407241D01*
G75*
G02*
X0376628Y0407241I-003341J0003341D01*
G01*
X0374958Y0408912D01*
G75*
G02*
X0374958Y0415593I0003341J0003341D01*
G01*
G37*
G36*
G01*
X0399367Y0415593D02*
X0399367Y0415593D01*
G75*
G02*
X0406049Y0415593I0003341J-003341D01*
G01*
X0407719Y0413923D01*
G75*
G02*
X0407719Y0407241I-003341J-003341D01*
G01*
X0407719Y0407241D01*
G75*
G02*
X0401038Y0407241I-003341J0003341D01*
G01*
X0399367Y0408912D01*
G75*
G02*
X0399367Y0415593I0003341J0003341D01*
G01*
G37*
G36*
G01*
X0389525Y0406932D02*
X0389525Y0406932D01*
G75*
G02*
X0396206Y0406932I0003341J-003341D01*
G01*
X0397877Y0405261D01*
G75*
G02*
X0397877Y0398580I-003341J-003341D01*
G01*
X0397877Y0398580D01*
G75*
G02*
X0391195Y0398580I-003341J0003341D01*
G01*
X0389525Y0400250D01*
G75*
G02*
X0389525Y0406932I0003341J0003341D01*
G01*
G37*
G36*
G01*
X0352911Y0415593D02*
X0352911Y0415593D01*
G75*
G02*
X0359592Y0415593I0003341J-003341D01*
G01*
X0361262Y0413923D01*
G75*
G02*
X0361262Y0407241I-003341J-003341D01*
G01*
X0361262Y0407241D01*
G75*
G02*
X0354581Y0407241I-003341J0003341D01*
G01*
X0352911Y0408912D01*
G75*
G02*
X0352911Y0415593I0003341J0003341D01*
G01*
G37*
X0310531Y0100689D03*
X0202165Y0128543D03*
X0191535Y0128543D03*
D61*
X0288504Y0391732D03*
D62*
X0278504Y0391732D03*
X0268504Y0391732D03*
X0258504Y0391732D03*
X0248504Y0391732D03*
X0238504Y0391732D03*
X0228504Y0391732D03*
X0218504Y0391732D03*
D24*
X0333679Y0118947D03*
D25*
X0349308Y0387992D03*
X0496407Y0387992D03*
X0453494Y0387992D03*
X0397589Y0387992D03*
X0354774Y0373032D03*
D52*
X0164567Y0117756D03*
X0164567Y0102756D03*
D24*
X0317879Y0168447D03*
X0296752Y0100689D03*
X0321161Y0100689D03*
D74*
X0320669Y0402756D03*
D75*
X0323819Y0409646D03*
X0326969Y0402756D03*
X0330118Y0409646D03*
X0333268Y0402756D03*
D76*
X0341339Y0406201D03*
X0312598Y0406201D03*
D24*
X0260413Y0118947D03*
X0150197Y0128642D03*
D25*
X0361874Y0228000D03*
X0329492Y0222784D03*
X0329561Y0202184D03*
X0336972Y0200245D03*
X0308035Y0195815D03*
D52*
X0043307Y0125512D03*
X0043307Y0110512D03*
D25*
X0127165Y0275984D03*
X0275460Y0167554D03*
X0365153Y0242721D03*
X0099479Y0335747D03*
X0079147Y0311516D03*
X0232779Y0416347D03*
X0232879Y0401047D03*
X0260728Y0381004D03*
D55*
X0010236Y0121063D03*
D25*
X0100669Y0264038D03*
X0526622Y0111319D03*
X0220866Y0418504D03*
D55*
X0010236Y0084055D03*
D25*
X0455118Y0088878D03*
X0065948Y0107717D03*
D55*
X0010236Y0337500D03*
D25*
X0150394Y0251870D03*
X0172047Y0380610D03*
X0602803Y0143224D03*
X0418504Y0147539D03*
X0318799Y0191339D03*
X0377813Y0127113D03*
X0454589Y0105557D03*
X0511811Y0092815D03*
X0340551Y0343209D03*
X0489764Y0343701D03*
D55*
X0010236Y0284055D03*
D25*
X0377716Y0091384D03*
X0518679Y0171147D03*
X0569535Y0215075D03*
X0531543Y0237713D03*
X0259449Y0231398D03*
D55*
X0010236Y0380315D03*
D25*
X0203937Y0381791D03*
X0557087Y0232579D03*
X0111811Y0023524D03*
X0531937Y0221374D03*
X0526425Y0099114D03*
X0571506Y0133447D03*
D55*
X0450394Y0452559D03*
D25*
X0029079Y0318547D03*
X0529181Y0212713D03*
D55*
X0010827Y0057185D03*
X0408957Y0452756D03*
D25*
X0375197Y0341240D03*
X0097244Y0060138D03*
X0304823Y0388976D03*
D55*
X0633465Y0126870D03*
D25*
X0504136Y0373524D03*
X0111811Y0097343D03*
D55*
X0010236Y0160531D03*
D25*
X0537402Y0006201D03*
X0527606Y0132577D03*
X0527803Y0144799D03*
D55*
X0633465Y0166339D03*
D25*
X0600779Y0171747D03*
X0355118Y0392815D03*
X0339764Y0236516D03*
X0219679Y0409047D03*
X0127848Y0183247D03*
X0492913Y0393996D03*
X0197779Y0415547D03*
X0490157Y0193996D03*
X0447244Y0015650D03*
X0353937Y0340453D03*
X0120079Y0262847D03*
D55*
X0105610Y0452657D03*
D25*
X0496457Y0168406D03*
D55*
X0279331Y0452657D03*
D25*
X0336614Y0390059D03*
D55*
X0192421Y0452657D03*
X0582776Y0452756D03*
D25*
X0531740Y0229642D03*
X0277953Y0201969D03*
D55*
X0633465Y0343307D03*
D25*
X0526622Y0106398D03*
X0280163Y0207382D03*
X0439079Y0171465D03*
D55*
X0495866Y0452756D03*
X0633465Y0207776D03*
D25*
X0051969Y0186516D03*
X0029079Y0328547D03*
X0046079Y0293547D03*
D55*
X0633465Y0058465D03*
D25*
X0601575Y0216043D03*
X0583071Y0010138D03*
X0555906Y0336122D03*
D55*
X0633465Y0386122D03*
D25*
X0343701Y0387697D03*
X0150079Y0286547D03*
D55*
X0633465Y0246752D03*
D25*
X0028083Y0365551D03*
X0487401Y0226270D03*
X0191339Y0380610D03*
X0324016Y0181004D03*
X0523479Y0171147D03*
X0079134Y0083760D03*
D55*
X0062795Y0452657D03*
D25*
X0605779Y0171247D03*
X0105118Y0097343D03*
X0052362Y0153051D03*
D55*
X0238878Y0452657D03*
D25*
X0118504Y0004626D03*
X0601031Y0198933D03*
X0454379Y0143147D03*
X0359843Y0347539D03*
X0289779Y0417347D03*
X0340157Y0251870D03*
X0457695Y0171373D03*
X0072079Y0295547D03*
X0107165Y0103161D03*
X0492520Y0277067D03*
D55*
X0010236Y0201969D03*
X0633465Y0089862D03*
D25*
X0154134Y0400295D03*
D55*
X0322146Y0452756D03*
X0537303Y0452559D03*
X0363976Y0452756D03*
D25*
X0117979Y0384947D03*
X0371949Y0237402D03*
X0528045Y0197213D03*
X0149079Y0266547D03*
X0350394Y0253839D03*
X0365354Y0251870D03*
X0299213Y0231396D03*
X0432185Y0344741D03*
D55*
X0010236Y0240945D03*
X0147441Y0452657D03*
D25*
X0028122Y0375591D03*
X0371879Y0200047D03*
D55*
X0633465Y0289862D03*
D25*
X0487722Y0259104D03*
X0142913Y0247539D03*
X0141079Y0291547D03*
X0108465Y0097343D03*
X0300787Y0400394D03*
X0310433Y0393307D03*
X0140453Y0096752D03*
X0138976Y0303543D03*
X0150602Y0381421D03*
X0123425Y0297638D03*
X0137779Y0324147D03*
X0425879Y0022447D03*
X0367979Y0036247D03*
X0229134Y0080020D03*
X0305279Y0184547D03*
X0281779Y0228747D03*
X0345669Y0350787D03*
X0379979Y0354147D03*
X0345472Y0240059D03*
X0265354Y0380791D03*
X0426181Y0166339D03*
X0422244Y0170276D03*
X0424213Y0168307D03*
X0481379Y0047647D03*
X0342717Y0281496D03*
X0343307Y0301969D03*
X0273539Y0156947D03*
X0546801Y0127119D03*
X0556327Y0219654D03*
X0260138Y0167224D03*
X0253150Y0170571D03*
X0244279Y0158347D03*
X0282479Y0153047D03*
X0239579Y0080347D03*
X0234439Y0158760D03*
X0371179Y0060947D03*
X0296079Y0152607D03*
X0232776Y0167520D03*
X0223707Y0165345D03*
X0300129Y0142235D03*
X0219978Y0165354D03*
X0252579Y0144087D03*
X0431279Y0014747D03*
X0387579Y0013747D03*
X0292379Y0142235D03*
X0232479Y0135747D03*
X0235925Y0079331D03*
X0225079Y0134947D03*
X0259579Y0012847D03*
X0194979Y0153647D03*
X0149803Y0057579D03*
X0180020Y0158169D03*
X0184350Y0154134D03*
X0147244Y0170776D03*
X0147244Y0162106D03*
X0469685Y0166437D03*
X0469685Y0162894D03*
X0469685Y0169587D03*
X0343579Y0015520D03*
X0429134Y0168998D03*
X0467179Y0015847D03*
X0404259Y0165967D03*
X0397919Y0166212D03*
X0378979Y0150947D03*
X0376379Y0150847D03*
X0389079Y0162147D03*
X0389079Y0164947D03*
X0381779Y0161147D03*
X0381779Y0158147D03*
X0379132Y0155413D03*
X0377279Y0160947D03*
X0422279Y0053547D03*
X0432179Y0053547D03*
X0426779Y0053547D03*
X0372441Y0151870D03*
X0372279Y0161247D03*
X0246979Y0126847D03*
X0248679Y0117647D03*
X0357087Y0164075D03*
X0357087Y0166437D03*
X0347579Y0162347D03*
X0347579Y0158947D03*
X0205807Y0097343D03*
X0278279Y0229187D03*
X0354228Y0299524D03*
X0354732Y0292313D03*
X0351868Y0293618D03*
X0351868Y0325689D03*
X0341142Y0297244D03*
X0339479Y0281247D03*
X0563453Y0213788D03*
X0563510Y0134615D03*
X0212795Y0079528D03*
X0175394Y0079823D03*
X0114579Y0297347D03*
X0153839Y0380474D03*
X0158779Y0135847D03*
X0134779Y0321947D03*
X0128277Y0324049D03*
X0383896Y0053065D03*
X0447279Y0046147D03*
X0123651Y0323553D03*
X0117379Y0319347D03*
X0116679Y0325047D03*
X0383179Y0067947D03*
X0112795Y0326280D03*
X0107979Y0323247D03*
X0543945Y0217240D03*
X0538433Y0119587D03*
X0507379Y0393247D03*
X0500879Y0335647D03*
X0538433Y0111319D03*
X0543945Y0233776D03*
X0543945Y0225508D03*
X0538433Y0103051D03*
X0366380Y0318028D03*
X0287279Y0173047D03*
X0246579Y0131847D03*
X0290432Y0175701D03*
X0273998Y0160728D03*
X0252379Y0113847D03*
X0284679Y0175701D03*
X0280217Y0050492D03*
X0296279Y0172847D03*
X0283379Y0168647D03*
X0269291Y0017028D03*
X0250000Y0013453D03*
X0265748Y0017028D03*
X0255512Y0013453D03*
X0457079Y0049147D03*
X0364020Y0315272D03*
X0570500Y0138158D03*
X0565382Y0203906D03*
X0569535Y0203906D03*
X0566489Y0138552D03*
X0361659Y0312516D03*
X0238079Y0153647D03*
X0140795Y0250705D03*
X0269379Y0168747D03*
X0229035Y0164173D03*
D84*
X0554673Y0127512D03*
X0554673Y0130662D03*
X0554673Y0207056D03*
X0554673Y0210205D03*
X0579378Y0138158D03*
X0579299Y0207843D03*
X0579378Y0134615D03*
X0579299Y0204300D03*
D25*
X0409579Y0150447D03*
X0362379Y0150147D03*
X0295379Y0403847D03*
X0299707Y0390157D03*
X0341142Y0322441D03*
X0339979Y0331047D03*
X0413179Y0148247D03*
X0362079Y0049147D03*
X0372479Y0143647D03*
X0305479Y0092947D03*
X0348379Y0289547D03*
X0348379Y0330614D03*
X0361579Y0303147D03*
X0361279Y0237947D03*
D87*
X0189234Y0385054D02*
X0185974Y0388314D01*
X0111594Y0258484D02*
X0111594Y0269232D01*
D90*
X0346879Y0358247D02*
X0340479Y0364647D01*
X0510779Y0358247D02*
X0368979Y0358247D01*
X0202579Y0409847D02*
X0200814Y0411612D01*
X0333913Y0384939D02*
X0214518Y0384939D01*
X0370315Y0247884D02*
X0370315Y0356911D01*
D87*
X0368942Y0113384D02*
X0368942Y0121868D01*
D90*
X0295116Y0218947D02*
X0292441Y0221622D01*
X0365079Y0242647D02*
X0357879Y0242647D01*
D87*
X0127165Y0275984D02*
X0118347Y0275984D01*
X0118347Y0275984D02*
X0099479Y0294853D01*
D90*
X0354774Y0362952D02*
X0354774Y0373032D01*
D87*
X0275460Y0167628D02*
X0275460Y0167554D01*
X0099479Y0294853D02*
X0094587Y0289961D01*
D90*
X0202579Y0396879D02*
X0202579Y0409847D01*
X0550472Y0401811D02*
X0576215Y0401811D01*
X0340479Y0364647D02*
X0340479Y0378374D01*
X0117679Y0397347D02*
X0099479Y0379147D01*
X0357879Y0242647D02*
X0343479Y0228247D01*
D87*
X0099479Y0335747D02*
X0099479Y0294853D01*
D90*
X0370315Y0356911D02*
X0368979Y0358247D01*
X0359479Y0358247D02*
X0346879Y0358247D01*
X0099479Y0379147D02*
X0099479Y0335747D01*
X0368979Y0358247D02*
X0359479Y0358247D01*
X0343479Y0228247D02*
X0313779Y0228247D01*
D87*
X0214404Y0385054D02*
X0189234Y0385054D01*
D90*
X0365079Y0242647D02*
X0370315Y0247884D01*
D87*
X0275479Y0167647D02*
X0275460Y0167628D01*
X0288379Y0165447D02*
X0282979Y0165447D01*
D90*
X0340479Y0378374D02*
X0333913Y0384939D01*
X0304479Y0218947D02*
X0295116Y0218947D01*
X0580379Y0397647D02*
X0580379Y0365647D01*
X0576215Y0401811D02*
X0580379Y0397647D01*
X0214518Y0384939D02*
X0214404Y0385054D01*
D87*
X0277679Y0165447D02*
X0275479Y0167647D01*
X0368942Y0121868D02*
X0335299Y0155511D01*
X0282979Y0165447D02*
X0277679Y0165447D01*
X0381139Y0106050D02*
X0376276Y0106050D01*
X0282979Y0165447D02*
X0279479Y0165447D01*
D90*
X0154944Y0411612D02*
X0140679Y0397347D01*
X0512679Y0356347D02*
X0510779Y0358247D01*
X0313779Y0228247D02*
X0304479Y0218947D01*
X0580379Y0365647D02*
X0571079Y0356347D01*
D87*
X0298315Y0155511D02*
X0288379Y0165447D01*
X0335299Y0155511D02*
X0298315Y0155511D01*
D90*
X0140679Y0397347D02*
X0117679Y0397347D01*
X0359479Y0358247D02*
X0354774Y0362952D01*
X0200814Y0411612D02*
X0154944Y0411612D01*
X0214404Y0385054D02*
X0202579Y0396879D01*
D87*
X0376276Y0106050D02*
X0368942Y0113384D01*
D90*
X0571079Y0356347D02*
X0512679Y0356347D01*
D87*
X0111594Y0269232D02*
X0118347Y0275984D01*
X0139779Y0404975D02*
X0119507Y0404975D01*
X0492379Y0426447D02*
X0527015Y0391811D01*
X0233979Y0426447D02*
X0232879Y0425347D01*
X0233979Y0426447D02*
X0161251Y0426447D01*
X0232879Y0400747D02*
X0232879Y0401047D01*
X0079779Y0365247D02*
X0079779Y0312147D01*
X0119507Y0404975D02*
X0079779Y0365247D01*
X0079779Y0312147D02*
X0079147Y0311516D01*
X0161251Y0426447D02*
X0139779Y0404975D01*
X0233979Y0426447D02*
X0492379Y0426447D01*
X0527015Y0391811D02*
X0570472Y0391811D01*
X0232879Y0425347D02*
X0232879Y0400747D01*
D10*
X0145403Y0320420D02*
X0144290Y0319307D01*
X0144290Y0317636D02*
X0152756Y0309170D01*
X0139279Y0320977D02*
X0138165Y0319863D01*
X0166304Y0150122D02*
X0337629Y0150122D01*
X0139836Y0318193D02*
X0143733Y0322090D01*
X0337629Y0150122D02*
X0361979Y0125772D01*
X0145403Y0320420D02*
X0145403Y0320420D01*
X0443079Y0075547D02*
X0443079Y0044598D01*
X0369679Y0078047D02*
X0440579Y0078047D01*
X0137779Y0324147D02*
X0139279Y0322647D01*
X0361979Y0085747D02*
X0369679Y0078047D01*
X0152756Y0163670D02*
X0166304Y0150122D01*
X0440579Y0078047D02*
X0443079Y0075547D01*
X0443079Y0044598D02*
X0448181Y0039496D01*
X0361979Y0125772D02*
X0361979Y0085747D01*
X0139836Y0318193D02*
X0139836Y0318193D01*
X0152756Y0309170D02*
X0152756Y0163670D01*
X0139279Y0320977D02*
G75*
G03*
X0139279Y0322647I-000835J0000835D01*
G01*
X0139836Y0318193D02*
G75*
G02*
X0138165Y0318193I-000835J0000835D01*
G01*
X0138165Y0318193D02*
G75*
G02*
X0138165Y0319863I0000835J0000835D01*
G01*
X0145403Y0322090D02*
G75*
G03*
X0143733Y0322090I-000835J-000835D01*
G01*
X0144290Y0317636D02*
G75*
G02*
X0144290Y0319307I0000835J0000835D01*
G01*
X0145403Y0320420D02*
G75*
G03*
X0145403Y0322090I-000835J0000835D01*
G01*
D86*
X0225307Y0058019D02*
X0225307Y0063315D01*
X0255779Y0055247D02*
X0228079Y0055247D01*
X0255307Y0055719D02*
X0255779Y0055247D01*
X0307239Y0055247D02*
X0275979Y0055247D01*
X0275307Y0039496D02*
X0275307Y0054576D01*
X0275307Y0054576D02*
X0275979Y0055247D01*
X0315307Y0063315D02*
X0307239Y0055247D01*
X0255307Y0063315D02*
X0255307Y0055719D01*
X0275979Y0055247D02*
X0255779Y0055247D01*
X0228079Y0055247D02*
X0225307Y0058019D01*
D87*
X0477479Y0092326D02*
X0483920Y0085885D01*
X0422244Y0170276D02*
X0426181Y0166339D01*
X0426472Y0166047D02*
X0455479Y0166047D01*
X0477479Y0144047D02*
X0477479Y0092326D01*
X0483920Y0050188D02*
X0481379Y0047647D01*
X0455479Y0166047D02*
X0477479Y0144047D01*
X0483920Y0085885D02*
X0483920Y0050188D01*
X0426181Y0166339D02*
X0426472Y0166047D01*
D10*
X0381139Y0109199D02*
X0380327Y0109199D01*
X0317806Y0157674D02*
X0309652Y0157674D01*
X0380327Y0109199D02*
X0371106Y0118420D01*
X0371106Y0118420D02*
X0371106Y0122764D01*
X0371106Y0122764D02*
X0336195Y0157674D01*
X0309652Y0157674D02*
X0304479Y0162847D01*
X0336195Y0157674D02*
X0317806Y0157674D01*
X0371379Y0060747D02*
X0382079Y0060747D01*
X0389779Y0068447D02*
X0423049Y0068447D01*
X0371179Y0060947D02*
X0371379Y0060747D01*
X0423049Y0068447D02*
X0428181Y0063315D01*
X0382079Y0060747D02*
X0389779Y0068447D01*
X0310479Y0048487D02*
X0325307Y0063315D01*
X0381545Y0007714D02*
X0321712Y0007714D01*
X0387579Y0013747D02*
X0381545Y0007714D01*
X0431279Y0014747D02*
X0431279Y0026398D01*
X0431279Y0026398D02*
X0428181Y0029496D01*
X0321712Y0007714D02*
X0310479Y0018947D01*
X0310479Y0018947D02*
X0310479Y0048487D01*
X0225079Y0134947D02*
X0225079Y0134547D01*
X0232379Y0127247D02*
X0232379Y0108247D01*
X0210379Y0051047D02*
X0210379Y0022647D01*
X0200379Y0061047D02*
X0210379Y0051047D01*
X0210379Y0022647D02*
X0215679Y0017347D01*
X0232379Y0108247D02*
X0200379Y0076247D01*
X0200379Y0076247D02*
X0200379Y0061047D01*
X0255079Y0017347D02*
X0259579Y0012847D01*
X0215679Y0017347D02*
X0255079Y0017347D01*
X0225079Y0134547D02*
X0232379Y0127247D01*
X0161103Y0148247D02*
X0147244Y0162106D01*
X0372187Y0073315D02*
X0360406Y0085096D01*
X0337279Y0148247D02*
X0161103Y0148247D01*
X0360406Y0085096D02*
X0360406Y0125120D01*
X0398181Y0073315D02*
X0372187Y0073315D01*
X0360406Y0125120D02*
X0337279Y0148247D01*
D85*
X0480279Y0145747D02*
X0480279Y0093747D01*
X0483679Y0031147D02*
X0468379Y0015847D01*
X0480279Y0093747D02*
X0486379Y0087647D01*
X0486379Y0045947D02*
X0483679Y0043247D01*
X0429134Y0168998D02*
X0457028Y0168998D01*
X0483679Y0043247D02*
X0483679Y0031147D01*
X0486379Y0087647D02*
X0486379Y0045947D01*
X0457028Y0168998D02*
X0480279Y0145747D01*
X0468379Y0015847D02*
X0467179Y0015847D01*
D88*
X0399279Y0170947D02*
X0320379Y0170947D01*
X0320379Y0170947D02*
X0317879Y0168447D01*
X0404259Y0165967D02*
X0399279Y0170947D01*
D87*
X0471633Y0141393D02*
X0471633Y0090383D01*
X0391379Y0159847D02*
X0453179Y0159847D01*
X0453179Y0159847D02*
X0471633Y0141393D01*
X0389079Y0162147D02*
X0391379Y0159847D01*
X0472904Y0034219D02*
X0468181Y0029496D01*
X0478412Y0083604D02*
X0478412Y0055280D01*
X0478412Y0055280D02*
X0472904Y0049772D01*
X0471633Y0090383D02*
X0478412Y0083604D01*
X0472904Y0049772D02*
X0472904Y0034219D01*
X0389079Y0162147D02*
X0389079Y0164947D01*
X0475658Y0082463D02*
X0475658Y0056526D01*
X0468181Y0049050D02*
X0468181Y0039496D01*
X0468879Y0089242D02*
X0475658Y0082463D01*
X0475658Y0056526D02*
X0468181Y0049050D01*
X0383633Y0156293D02*
X0452533Y0156293D01*
X0468879Y0139947D02*
X0468879Y0089242D01*
X0381779Y0161147D02*
X0381779Y0158147D01*
X0381779Y0158147D02*
X0383633Y0156293D01*
X0452533Y0156293D02*
X0468879Y0139947D01*
X0379132Y0155413D02*
X0377279Y0157267D01*
X0472904Y0081322D02*
X0472904Y0057872D01*
X0379132Y0155413D02*
X0381006Y0153539D01*
X0472904Y0057872D02*
X0458181Y0043150D01*
X0377279Y0157267D02*
X0377279Y0160947D01*
X0451087Y0153539D02*
X0466079Y0138547D01*
X0458181Y0043150D02*
X0458181Y0039496D01*
X0381006Y0153539D02*
X0451087Y0153539D01*
X0466079Y0138547D02*
X0466079Y0088147D01*
X0466079Y0088147D02*
X0472904Y0081322D01*
X0481166Y0053234D02*
X0481166Y0084745D01*
X0454274Y0162647D02*
X0454228Y0162601D01*
X0474387Y0091524D02*
X0474387Y0142534D01*
X0394781Y0162601D02*
X0392030Y0165352D01*
X0463930Y0023747D02*
X0472879Y0023747D01*
X0458181Y0029496D02*
X0463930Y0023747D01*
X0474387Y0142534D02*
X0454274Y0162647D01*
X0389612Y0168587D02*
X0359237Y0168587D01*
X0477329Y0028197D02*
X0477329Y0049397D01*
X0392030Y0165352D02*
X0392030Y0166170D01*
X0359237Y0168587D02*
X0357087Y0166437D01*
X0481166Y0084745D02*
X0474387Y0091524D01*
X0454228Y0162601D02*
X0394781Y0162601D01*
X0477329Y0049397D02*
X0481166Y0053234D01*
X0472879Y0023747D02*
X0477329Y0028197D01*
X0392030Y0166170D02*
X0389612Y0168587D01*
X0357087Y0164075D02*
X0357087Y0166437D01*
D10*
X0281079Y0175547D02*
X0281079Y0202547D01*
X0277803Y0228711D02*
X0278279Y0229187D01*
X0372679Y0123415D02*
X0336847Y0159247D01*
X0372679Y0120809D02*
X0372679Y0123415D01*
X0278019Y0229187D02*
X0278279Y0229187D01*
X0286579Y0170047D02*
X0281079Y0175547D01*
X0305679Y0170047D02*
X0286579Y0170047D01*
X0281079Y0202547D02*
X0277803Y0205823D01*
X0381139Y0112349D02*
X0372679Y0120809D01*
X0277803Y0205823D02*
X0277803Y0228711D01*
X0336847Y0159247D02*
X0316479Y0159247D01*
X0316479Y0159247D02*
X0305679Y0170047D01*
X0277803Y0228972D02*
X0278019Y0229187D01*
X0300779Y0078547D02*
X0291712Y0087614D01*
X0291712Y0087614D02*
X0291712Y0118947D01*
X0305307Y0063315D02*
X0300779Y0067843D01*
X0300779Y0067843D02*
X0300779Y0078547D01*
D85*
X0325307Y0039776D02*
X0330079Y0044547D01*
X0330079Y0044547D02*
X0330079Y0077992D01*
X0321457Y0100394D02*
X0321161Y0100689D01*
X0325307Y0039496D02*
X0325307Y0039776D01*
X0321457Y0086614D02*
X0321457Y0100394D01*
X0330079Y0077992D02*
X0321457Y0086614D01*
D10*
X0128277Y0305338D02*
X0128277Y0303298D01*
X0432313Y0060182D02*
X0432313Y0068682D01*
X0432313Y0068682D02*
X0436946Y0073315D01*
X0346873Y0134201D02*
X0356797Y0124277D01*
X0127096Y0311243D02*
X0126505Y0311243D01*
X0265227Y0144874D02*
X0310052Y0144874D01*
X0128277Y0314196D02*
X0128277Y0312425D01*
X0261487Y0143693D02*
X0261487Y0142709D01*
X0128868Y0316558D02*
X0128868Y0314787D01*
X0370302Y0057597D02*
X0429729Y0057597D01*
X0356797Y0071102D02*
X0370302Y0057597D01*
X0135033Y0296542D02*
X0135033Y0163269D01*
X0336201Y0144874D02*
X0347753Y0133322D01*
X0250479Y0141447D02*
X0255979Y0141447D01*
X0436946Y0073315D02*
X0438181Y0073315D01*
X0128277Y0324049D02*
X0128277Y0317149D01*
X0131033Y0306519D02*
X0129458Y0306519D01*
X0126505Y0308881D02*
X0131033Y0308881D01*
X0356797Y0124277D02*
X0356797Y0071102D01*
X0312576Y0144874D02*
X0336201Y0144874D01*
X0128652Y0314490D02*
X0128493Y0314493D01*
X0429729Y0057597D02*
X0432313Y0060182D01*
X0255979Y0141447D02*
X0259406Y0144874D01*
X0247052Y0144874D02*
X0250479Y0141447D01*
X0128493Y0316852D02*
X0128652Y0316855D01*
X0128277Y0303298D02*
X0135033Y0296542D01*
X0263849Y0142709D02*
X0263849Y0143693D01*
X0310052Y0144874D02*
X0312576Y0144874D01*
X0135033Y0163269D02*
X0153427Y0144874D01*
X0153427Y0144874D02*
X0247052Y0144874D01*
X0259406Y0144874D02*
X0260306Y0144874D01*
X0265030Y0144874D02*
X0265227Y0144874D01*
X0132214Y0307700D02*
G75*
G03*
X0131033Y0308881I-001181J0000000D01*
G01*
X0128652Y0314490D02*
G75*
G03*
X0128868Y0314787I-000111J0000308D01*
G01*
X0128493Y0316852D02*
G75*
G02*
X0128277Y0317149I0000111J0000308D01*
G01*
X0265030Y0144874D02*
G75*
G03*
X0263849Y0143693I0000000J-001181D01*
G01*
X0128277Y0305338D02*
G75*
G02*
X0129458Y0306519I0001181J0000000D01*
G01*
X0128868Y0316558D02*
G75*
G03*
X0128652Y0316855I-000279J0000024D01*
G01*
X0125324Y0310062D02*
G75*
G02*
X0126505Y0311243I0001181J0000000D01*
G01*
X0131033Y0306519D02*
G75*
G03*
X0132214Y0307700I0000000J0001181D01*
G01*
X0263849Y0142709D02*
G75*
G02*
X0262668Y0141528I-001181J0000000D01*
G01*
X0262668Y0141528D02*
G75*
G02*
X0261487Y0142709I0000000J0001181D01*
G01*
X0126505Y0308881D02*
G75*
G02*
X0125324Y0310062I0000000J0001181D01*
G01*
X0127096Y0311243D02*
G75*
G03*
X0128277Y0312425I0000000J0001181D01*
G01*
X0261487Y0143693D02*
G75*
G03*
X0260306Y0144874I-001181J0000000D01*
G01*
X0128277Y0314196D02*
G75*
G02*
X0128493Y0314493I0000279J0000024D01*
G01*
X0273919Y0142040D02*
X0273919Y0141055D01*
X0355225Y0123626D02*
X0355225Y0070450D01*
X0346222Y0132629D02*
X0355225Y0123626D01*
X0383714Y0053247D02*
X0383896Y0053065D01*
X0336771Y0132629D02*
X0346222Y0132629D01*
X0302326Y0140869D02*
X0302335Y0141242D01*
X0125423Y0317632D02*
X0124832Y0317632D01*
X0266833Y0141055D02*
X0266833Y0142040D01*
X0299968Y0139874D02*
X0301149Y0139874D01*
X0335590Y0135384D02*
X0335590Y0133810D01*
X0319806Y0139318D02*
X0318692Y0138204D01*
X0289274Y0139874D02*
X0296427Y0139874D01*
X0372428Y0053247D02*
X0383714Y0053247D01*
X0133460Y0295890D02*
X0133460Y0162617D01*
X0448181Y0047050D02*
X0447279Y0046147D01*
X0125423Y0312907D02*
X0124832Y0312907D01*
X0304688Y0141242D02*
X0304697Y0140869D01*
X0319806Y0139318D02*
X0319806Y0139318D01*
X0317022Y0139874D02*
X0318136Y0140988D01*
X0330865Y0135384D02*
X0330865Y0133810D01*
X0288093Y0142040D02*
X0288093Y0141055D01*
X0309417Y0142040D02*
X0309417Y0141055D01*
X0152776Y0143301D02*
X0246400Y0143301D01*
X0278644Y0142040D02*
X0278644Y0141055D01*
X0123651Y0311726D02*
X0123651Y0305699D01*
X0285730Y0141055D02*
X0285730Y0142040D01*
X0271557Y0141055D02*
X0271557Y0142040D01*
X0328503Y0133810D02*
X0328503Y0135384D01*
X0323779Y0133810D02*
X0323779Y0135384D01*
X0310598Y0139874D02*
X0315352Y0139874D01*
X0124832Y0315269D02*
X0125423Y0315269D01*
X0246400Y0143301D02*
X0249827Y0139874D01*
X0296568Y0139733D02*
X0299827Y0139733D01*
X0318692Y0136534D02*
X0322597Y0132629D01*
X0355225Y0070450D02*
X0372428Y0053247D01*
X0296427Y0139874D02*
X0296568Y0139733D01*
X0281006Y0141055D02*
X0281006Y0142040D01*
X0307055Y0141055D02*
X0307055Y0142040D01*
X0123651Y0323553D02*
X0123651Y0321175D01*
X0299827Y0139733D02*
X0299968Y0139874D01*
X0269195Y0142040D02*
X0269195Y0141055D01*
X0124832Y0319994D02*
X0125423Y0319994D01*
X0326141Y0135384D02*
X0326141Y0133810D01*
X0283368Y0142040D02*
X0283368Y0141055D01*
X0448181Y0063315D02*
X0448181Y0047050D01*
X0133460Y0162617D02*
X0152776Y0143301D01*
X0249827Y0139874D02*
X0265652Y0139874D01*
X0333227Y0133810D02*
X0333227Y0135384D01*
X0276282Y0141055D02*
X0276282Y0142040D01*
X0123651Y0305699D02*
X0133460Y0295890D01*
X0285730Y0141055D02*
G75*
G02*
X0284549Y0139874I-001181J0000000D01*
G01*
X0318692Y0136534D02*
G75*
G02*
X0318692Y0138204I0000835J0000835D01*
G01*
X0319806Y0140988D02*
G75*
G03*
X0318136Y0140988I-000835J-000835D01*
G01*
X0307055Y0141055D02*
G75*
G02*
X0305874Y0139874I-001181J0000000D01*
G01*
X0330865Y0135384D02*
G75*
G03*
X0329684Y0136566I-001181J0000000D01*
G01*
X0284549Y0139874D02*
G75*
G02*
X0283368Y0141055I0000000J0001181D01*
G01*
X0268014Y0143221D02*
G75*
G03*
X0266833Y0142040I0000000J-001181D01*
G01*
X0333227Y0133810D02*
G75*
G02*
X0332046Y0132629I-001181J0000000D01*
G01*
X0270376Y0139874D02*
G75*
G02*
X0269195Y0141055I0000000J0001181D01*
G01*
X0125423Y0317632D02*
G75*
G03*
X0126604Y0318813I0000000J0001181D01*
G01*
X0310598Y0139874D02*
G75*
G02*
X0309417Y0141055I0000000J0001181D01*
G01*
X0328503Y0133810D02*
G75*
G02*
X0327322Y0132629I-001181J0000000D01*
G01*
X0309417Y0142040D02*
G75*
G03*
X0308236Y0143221I-001181J0000000D01*
G01*
X0327322Y0132629D02*
G75*
G02*
X0326141Y0133810I0000000J0001181D01*
G01*
X0324960Y0136566D02*
G75*
G03*
X0323779Y0135384I0000000J-001181D01*
G01*
X0317022Y0139874D02*
G75*
G02*
X0315352Y0139874I-000835J0000835D01*
G01*
X0271557Y0141055D02*
G75*
G02*
X0270376Y0139874I-001181J0000000D01*
G01*
X0308236Y0143221D02*
G75*
G03*
X0307055Y0142040I0000000J-001181D01*
G01*
X0276282Y0141055D02*
G75*
G02*
X0275100Y0139874I-001181J0000000D01*
G01*
X0266833Y0141055D02*
G75*
G02*
X0265652Y0139874I-001181J0000000D01*
G01*
X0329684Y0136566D02*
G75*
G03*
X0328503Y0135384I0000000J-001181D01*
G01*
X0303512Y0142237D02*
G75*
G03*
X0302335Y0141242I-000019J-001171D01*
G01*
X0277463Y0143221D02*
G75*
G03*
X0276282Y0142040I0000000J-001181D01*
G01*
X0323779Y0133810D02*
G75*
G02*
X0322597Y0132629I-001181J0000000D01*
G01*
X0288093Y0142040D02*
G75*
G03*
X0286911Y0143221I-001181J0000000D01*
G01*
X0336771Y0132629D02*
G75*
G02*
X0335590Y0133810I0000000J0001181D01*
G01*
X0304688Y0141242D02*
G75*
G03*
X0303512Y0142237I-001184J-000207D01*
G01*
X0126604Y0314088D02*
G75*
G03*
X0125423Y0315269I-001181J0000000D01*
G01*
X0334408Y0136566D02*
G75*
G03*
X0333227Y0135384I0000000J-001181D01*
G01*
X0283368Y0142040D02*
G75*
G03*
X0282187Y0143221I-001181J0000000D01*
G01*
X0335590Y0135384D02*
G75*
G03*
X0334408Y0136566I-001181J0000000D01*
G01*
X0305874Y0139874D02*
G75*
G02*
X0304697Y0140869I-000019J0001171D01*
G01*
X0326141Y0135384D02*
G75*
G03*
X0324960Y0136566I-001181J0000000D01*
G01*
X0269195Y0142040D02*
G75*
G03*
X0268014Y0143221I-001181J0000000D01*
G01*
X0124832Y0315269D02*
G75*
G02*
X0123651Y0316450I0000000J0001181D01*
G01*
X0124832Y0319994D02*
G75*
G02*
X0123651Y0321175I0000000J0001181D01*
G01*
X0332046Y0132629D02*
G75*
G02*
X0330865Y0133810I0000000J0001181D01*
G01*
X0123651Y0311726D02*
G75*
G02*
X0124832Y0312907I0001181J0000000D01*
G01*
X0302326Y0140869D02*
G75*
G02*
X0301149Y0139874I-001184J0000207D01*
G01*
X0282187Y0143221D02*
G75*
G03*
X0281006Y0142040I0000000J-001181D01*
G01*
X0123651Y0316450D02*
G75*
G02*
X0124832Y0317632I0001181J0000000D01*
G01*
X0279825Y0139874D02*
G75*
G02*
X0278644Y0141055I0000000J0001181D01*
G01*
X0281006Y0141055D02*
G75*
G02*
X0279825Y0139874I-001181J0000000D01*
G01*
X0286911Y0143221D02*
G75*
G03*
X0285730Y0142040I0000000J-001181D01*
G01*
X0289274Y0139874D02*
G75*
G02*
X0288093Y0141055I0000000J0001181D01*
G01*
X0275100Y0139874D02*
G75*
G02*
X0273919Y0141055I0000000J0001181D01*
G01*
X0278644Y0142040D02*
G75*
G03*
X0277463Y0143221I-001181J0000000D01*
G01*
X0273919Y0142040D02*
G75*
G03*
X0272738Y0143221I-001181J0000000D01*
G01*
X0272738Y0143221D02*
G75*
G03*
X0271557Y0142040I0000000J-001181D01*
G01*
X0126604Y0318813D02*
G75*
G03*
X0125423Y0319994I-001181J0000000D01*
G01*
X0319806Y0139318D02*
G75*
G03*
X0319806Y0140988I-000835J0000835D01*
G01*
X0125423Y0312907D02*
G75*
G03*
X0126604Y0314088I0000000J0001181D01*
G01*
X0313297Y0136729D02*
X0320697Y0129329D01*
X0151379Y0139847D02*
X0244779Y0139847D01*
X0295124Y0136729D02*
X0295265Y0136587D01*
X0114902Y0315399D02*
X0115017Y0315044D01*
X0117374Y0313409D02*
X0117379Y0313223D01*
X0117040Y0314065D02*
X0117259Y0313764D01*
X0115017Y0315044D02*
X0115236Y0314743D01*
X0135219Y0156007D02*
X0151379Y0139847D01*
X0301271Y0136729D02*
X0313297Y0136729D01*
X0115236Y0316427D02*
X0115017Y0316126D01*
X0117379Y0319347D02*
X0117379Y0317947D01*
X0301130Y0136587D02*
X0301271Y0136729D01*
X0131879Y0157677D02*
X0131580Y0157379D01*
X0115892Y0314409D02*
X0116078Y0314404D01*
X0117040Y0317105D02*
X0116738Y0316886D01*
X0130279Y0294147D02*
X0130279Y0160947D01*
X0244779Y0139847D02*
X0247897Y0136729D01*
X0115537Y0314524D02*
X0115892Y0314409D01*
X0133251Y0155708D02*
X0133251Y0155708D01*
X0352079Y0069147D02*
X0372853Y0048373D01*
X0344997Y0129329D02*
X0352079Y0122247D01*
X0116198Y0314404D02*
X0116384Y0314399D01*
X0320697Y0129329D02*
X0344997Y0129329D01*
X0115236Y0314743D02*
X0115537Y0314524D01*
X0116078Y0316766D02*
X0115892Y0316761D01*
X0130279Y0160947D02*
X0131879Y0159347D01*
X0114897Y0315585D02*
X0114902Y0315399D01*
X0372853Y0048373D02*
X0429304Y0048373D01*
X0117379Y0307047D02*
X0130279Y0294147D01*
X0116078Y0314404D02*
X0116198Y0314404D01*
X0295265Y0136587D02*
X0301130Y0136587D01*
X0117379Y0317947D02*
X0117374Y0317761D01*
X0114902Y0315771D02*
X0114897Y0315585D01*
X0115017Y0316126D02*
X0114902Y0315771D01*
X0116738Y0314284D02*
X0117040Y0314065D01*
X0352079Y0122247D02*
X0352079Y0069147D01*
X0429304Y0048373D02*
X0438181Y0039496D01*
X0117374Y0317761D02*
X0117259Y0317407D01*
X0117259Y0317407D02*
X0117040Y0317105D01*
X0133251Y0155708D02*
X0133549Y0156007D01*
X0247897Y0136729D02*
X0295124Y0136729D01*
X0116738Y0316886D02*
X0116384Y0316771D01*
X0116384Y0316771D02*
X0116198Y0316766D01*
X0116384Y0314399D02*
X0116738Y0314284D01*
X0131879Y0157677D02*
X0131879Y0157677D01*
X0117259Y0313764D02*
X0117374Y0313409D01*
X0116198Y0316766D02*
X0116078Y0316766D01*
X0135219Y0156007D02*
X0135219Y0156007D01*
X0115537Y0316646D02*
X0115236Y0316427D01*
X0117379Y0313223D02*
X0117379Y0307047D01*
X0115892Y0316761D02*
X0115537Y0316646D01*
X0135219Y0156007D02*
G75*
G03*
X0133549Y0156007I-000835J-000835D01*
G01*
X0131879Y0157677D02*
G75*
G03*
X0131879Y0159347I-000835J0000835D01*
G01*
X0133251Y0155708D02*
G75*
G02*
X0131580Y0155708I-000835J0000835D01*
G01*
X0131580Y0155708D02*
G75*
G02*
X0131580Y0157379I0000835J0000835D01*
G01*
X0137787Y0214444D02*
X0139337Y0214444D01*
X0139337Y0240428D02*
X0137787Y0240428D01*
X0336852Y0146447D02*
X0358370Y0124929D01*
X0139337Y0193184D02*
X0137787Y0193184D01*
X0154079Y0146447D02*
X0336852Y0146447D01*
X0138276Y0163920D02*
X0139372Y0165016D01*
X0139337Y0197908D02*
X0137787Y0197908D01*
X0141043Y0163346D02*
X0141043Y0163346D01*
X0136606Y0225074D02*
X0136606Y0225074D01*
X0137787Y0233341D02*
X0139337Y0233341D01*
X0137787Y0190822D02*
X0139337Y0190822D01*
X0130390Y0314028D02*
X0130385Y0313842D01*
X0137787Y0209719D02*
X0139337Y0209719D01*
X0137787Y0223893D02*
X0139337Y0223893D01*
X0139337Y0169562D02*
X0137787Y0169562D01*
X0136606Y0206176D02*
X0136606Y0206176D01*
X0139337Y0202633D02*
X0137787Y0202633D01*
X0137787Y0228617D02*
X0139337Y0228617D01*
X0136606Y0239247D02*
X0136606Y0239247D01*
X0139337Y0230979D02*
X0137787Y0230979D01*
X0139337Y0216806D02*
X0137787Y0216806D01*
X0139337Y0174286D02*
X0137787Y0174286D01*
X0132079Y0318447D02*
X0134322Y0316204D01*
X0130389Y0313655D02*
X0130504Y0313301D01*
X0134317Y0316018D02*
X0134202Y0315663D01*
X0136606Y0215625D02*
X0136606Y0215625D01*
X0137479Y0252547D02*
X0137479Y0252547D01*
X0139337Y0245152D02*
X0137787Y0245152D01*
X0136606Y0182554D02*
X0136606Y0182554D01*
X0139337Y0183735D02*
X0137787Y0183735D01*
X0133983Y0315362D02*
X0133682Y0315143D01*
X0137787Y0204995D02*
X0139337Y0204995D01*
X0133327Y0315028D02*
X0133141Y0315023D01*
X0139337Y0221530D02*
X0137787Y0221530D01*
X0137787Y0242790D02*
X0139337Y0242790D01*
X0139337Y0179011D02*
X0137787Y0179011D01*
X0137787Y0176649D02*
X0139337Y0176649D01*
X0137479Y0250184D02*
X0137479Y0250184D01*
X0139946Y0160580D02*
X0154079Y0146447D01*
X0136606Y0173105D02*
X0136606Y0173105D01*
X0137787Y0181373D02*
X0139337Y0181373D01*
X0138353Y0251673D02*
X0138353Y0251058D01*
X0137787Y0247515D02*
X0139337Y0247515D01*
X0131026Y0314903D02*
X0130724Y0314684D01*
X0136606Y0234523D02*
X0136606Y0234523D01*
X0139337Y0212082D02*
X0137787Y0212082D01*
X0139337Y0207357D02*
X0137787Y0207357D01*
X0136606Y0210900D02*
X0136606Y0210900D01*
X0136606Y0196727D02*
X0136606Y0196727D01*
X0136606Y0243971D02*
X0136606Y0243971D01*
X0139337Y0226255D02*
X0137787Y0226255D01*
X0136606Y0220349D02*
X0136606Y0220349D01*
X0137787Y0238066D02*
X0139337Y0238066D01*
X0130505Y0314382D02*
X0130390Y0314028D01*
X0358370Y0124929D02*
X0358370Y0080456D01*
X0141043Y0163346D02*
X0139946Y0162250D01*
X0131380Y0315018D02*
X0131026Y0314903D01*
X0137787Y0195546D02*
X0139337Y0195546D01*
X0136606Y0187278D02*
X0136606Y0187278D01*
X0136606Y0206176D02*
X0136606Y0206176D01*
X0130504Y0313301D02*
X0134322Y0309483D01*
X0134322Y0309483D02*
X0134322Y0300979D01*
X0129779Y0326747D02*
X0132079Y0324447D01*
X0136606Y0192003D02*
X0136606Y0192003D01*
X0130385Y0313842D02*
X0130389Y0313655D01*
X0137787Y0186097D02*
X0139337Y0186097D01*
X0134322Y0300979D02*
X0136606Y0298696D01*
X0136606Y0229798D02*
X0136606Y0229798D01*
X0132079Y0324447D02*
X0132079Y0318447D01*
X0358370Y0080456D02*
X0370879Y0067947D01*
X0137787Y0200271D02*
X0139337Y0200271D01*
X0136606Y0168381D02*
X0136606Y0163920D01*
X0131566Y0315023D02*
X0131380Y0315018D01*
X0136606Y0201452D02*
X0136606Y0201452D01*
X0134202Y0315663D02*
X0133983Y0315362D01*
X0118379Y0326747D02*
X0129779Y0326747D01*
X0136606Y0249311D02*
X0136606Y0248696D01*
X0137787Y0219168D02*
X0139337Y0219168D01*
X0139337Y0235704D02*
X0137787Y0235704D01*
X0134322Y0316204D02*
X0134317Y0316018D01*
X0116679Y0325047D02*
X0118379Y0326747D01*
X0133682Y0315143D02*
X0133327Y0315028D01*
X0137787Y0171924D02*
X0139337Y0171924D01*
X0136606Y0177830D02*
X0136606Y0177830D01*
X0370879Y0067947D02*
X0383179Y0067947D01*
X0139337Y0188460D02*
X0137787Y0188460D01*
X0136606Y0298696D02*
X0136606Y0253420D01*
X0133141Y0315023D02*
X0131566Y0315023D01*
X0130724Y0314684D02*
X0130505Y0314382D01*
X0137787Y0176649D02*
G75*
G02*
X0136606Y0177830I0000000J0001181D01*
G01*
X0140518Y0199089D02*
G75*
G03*
X0139337Y0200271I-001181J0000000D01*
G01*
X0139337Y0221530D02*
G75*
G03*
X0140518Y0222712I0000000J0001181D01*
G01*
X0139337Y0183735D02*
G75*
G03*
X0140518Y0184916I0000000J0001181D01*
G01*
X0139337Y0207357D02*
G75*
G03*
X0140518Y0208538I0000000J0001181D01*
G01*
X0139337Y0169562D02*
G75*
G03*
X0140518Y0170743I0000000J0001181D01*
G01*
X0137787Y0204995D02*
G75*
G02*
X0136606Y0206176I0000000J0001181D01*
G01*
X0141043Y0165016D02*
G75*
G03*
X0139372Y0165016I-000835J-000835D01*
G01*
X0138276Y0163920D02*
G75*
G02*
X0136606Y0163920I-000835J0000835D01*
G01*
X0136606Y0206176D02*
G75*
G02*
X0137787Y0207357I0001181J0000000D01*
G01*
X0137787Y0181373D02*
G75*
G02*
X0136606Y0182554I0000000J0001181D01*
G01*
X0136606Y0173105D02*
G75*
G02*
X0137787Y0174286I0001181J0000000D01*
G01*
X0137787Y0186097D02*
G75*
G02*
X0136606Y0187278I0000000J0001181D01*
G01*
X0137787Y0214444D02*
G75*
G02*
X0136606Y0215625I0000000J0001181D01*
G01*
X0140518Y0232160D02*
G75*
G03*
X0139337Y0233341I-001181J0000000D01*
G01*
X0136606Y0234523D02*
G75*
G02*
X0137787Y0235704I0001181J0000000D01*
G01*
X0137479Y0252547D02*
G75*
G02*
X0136606Y0253420I0000000J0000874D01*
G01*
X0140518Y0194365D02*
G75*
G03*
X0139337Y0195546I-001181J0000000D01*
G01*
X0136606Y0196727D02*
G75*
G02*
X0137787Y0197908I0001181J0000000D01*
G01*
X0140518Y0208538D02*
G75*
G03*
X0139337Y0209719I-001181J0000000D01*
G01*
X0136606Y0192003D02*
G75*
G02*
X0137787Y0193184I0001181J0000000D01*
G01*
X0136606Y0168381D02*
G75*
G02*
X0137787Y0169562I0001181J0000000D01*
G01*
X0137787Y0190822D02*
G75*
G02*
X0136606Y0192003I0000000J0001181D01*
G01*
X0136606Y0249311D02*
G75*
G02*
X0137479Y0250184I0000874J0000000D01*
G01*
X0139337Y0179011D02*
G75*
G03*
X0140518Y0180192I0000000J0001181D01*
G01*
X0137787Y0233341D02*
G75*
G02*
X0136606Y0234523I0000000J0001181D01*
G01*
X0140518Y0184916D02*
G75*
G03*
X0139337Y0186097I-001181J0000000D01*
G01*
X0136606Y0239247D02*
G75*
G02*
X0137787Y0240428I0001181J0000000D01*
G01*
X0140518Y0189641D02*
G75*
G03*
X0139337Y0190822I-001181J0000000D01*
G01*
X0137787Y0238066D02*
G75*
G02*
X0136606Y0239247I0000000J0001181D01*
G01*
X0137479Y0250184D02*
G75*
G03*
X0138353Y0251058I0000000J0000874D01*
G01*
X0139337Y0240428D02*
G75*
G03*
X0140518Y0241609I0000000J0001181D01*
G01*
X0140518Y0246334D02*
G75*
G03*
X0139337Y0247515I-001181J0000000D01*
G01*
X0140518Y0180192D02*
G75*
G03*
X0139337Y0181373I-001181J0000000D01*
G01*
X0136606Y0201452D02*
G75*
G02*
X0137787Y0202633I0001181J0000000D01*
G01*
X0140518Y0236885D02*
G75*
G03*
X0139337Y0238066I-001181J0000000D01*
G01*
X0140518Y0222712D02*
G75*
G03*
X0139337Y0223893I-001181J0000000D01*
G01*
X0139946Y0160580D02*
G75*
G02*
X0139946Y0162250I0000835J0000835D01*
G01*
X0137787Y0171924D02*
G75*
G02*
X0136606Y0173105I0000000J0001181D01*
G01*
X0139337Y0216806D02*
G75*
G03*
X0140518Y0217987I0000000J0001181D01*
G01*
X0136606Y0243971D02*
G75*
G02*
X0137787Y0245152I0001181J0000000D01*
G01*
X0139337Y0174286D02*
G75*
G03*
X0140518Y0175467I0000000J0001181D01*
G01*
X0140518Y0170743D02*
G75*
G03*
X0139337Y0171924I-001181J0000000D01*
G01*
X0137787Y0247515D02*
G75*
G02*
X0136606Y0248696I0000000J0001181D01*
G01*
X0140518Y0217987D02*
G75*
G03*
X0139337Y0219168I-001181J0000000D01*
G01*
X0140518Y0241609D02*
G75*
G03*
X0139337Y0242790I-001181J0000000D01*
G01*
X0139337Y0202633D02*
G75*
G03*
X0140518Y0203814I0000000J0001181D01*
G01*
X0137787Y0219168D02*
G75*
G02*
X0136606Y0220349I0000000J0001181D01*
G01*
X0139337Y0197908D02*
G75*
G03*
X0140518Y0199089I0000000J0001181D01*
G01*
X0139337Y0188460D02*
G75*
G03*
X0140518Y0189641I0000000J0001181D01*
G01*
X0140518Y0227436D02*
G75*
G03*
X0139337Y0228617I-001181J0000000D01*
G01*
X0140518Y0175467D02*
G75*
G03*
X0139337Y0176649I-001181J0000000D01*
G01*
X0139337Y0230979D02*
G75*
G03*
X0140518Y0232160I0000000J0001181D01*
G01*
X0137787Y0195546D02*
G75*
G02*
X0136606Y0196727I0000000J0001181D01*
G01*
X0140518Y0203814D02*
G75*
G03*
X0139337Y0204995I-001181J0000000D01*
G01*
X0137787Y0228617D02*
G75*
G02*
X0136606Y0229798I0000000J0001181D01*
G01*
X0136606Y0177830D02*
G75*
G02*
X0137787Y0179011I0001181J0000000D01*
G01*
X0136606Y0225074D02*
G75*
G02*
X0137787Y0226255I0001181J0000000D01*
G01*
X0136606Y0215625D02*
G75*
G02*
X0137787Y0216806I0001181J0000000D01*
G01*
X0137787Y0209719D02*
G75*
G02*
X0136606Y0210900I0000000J0001181D01*
G01*
X0137787Y0242790D02*
G75*
G02*
X0136606Y0243971I0000000J0001181D01*
G01*
X0141043Y0163346D02*
G75*
G03*
X0141043Y0165016I-000835J0000835D01*
G01*
X0136606Y0210900D02*
G75*
G02*
X0137787Y0212082I0001181J0000000D01*
G01*
X0136606Y0220349D02*
G75*
G02*
X0137787Y0221530I0001181J0000000D01*
G01*
X0136606Y0229798D02*
G75*
G02*
X0137787Y0230979I0001181J0000000D01*
G01*
X0140518Y0213263D02*
G75*
G03*
X0139337Y0214444I-001181J0000000D01*
G01*
X0139337Y0193184D02*
G75*
G03*
X0140518Y0194365I0000000J0001181D01*
G01*
X0139337Y0245152D02*
G75*
G03*
X0140518Y0246334I0000000J0001181D01*
G01*
X0139337Y0226255D02*
G75*
G03*
X0140518Y0227436I0000000J0001181D01*
G01*
X0137787Y0223893D02*
G75*
G02*
X0136606Y0225074I0000000J0001181D01*
G01*
X0138353Y0251673D02*
G75*
G03*
X0137479Y0252547I-000874J0000000D01*
G01*
X0137787Y0200271D02*
G75*
G02*
X0136606Y0201452I0000000J0001181D01*
G01*
X0136606Y0182554D02*
G75*
G02*
X0137787Y0183735I0001181J0000000D01*
G01*
X0139337Y0212082D02*
G75*
G03*
X0140518Y0213263I0000000J0001181D01*
G01*
X0139337Y0235704D02*
G75*
G03*
X0140518Y0236885I0000000J0001181D01*
G01*
X0136606Y0187278D02*
G75*
G02*
X0137787Y0188460I0001181J0000000D01*
G01*
X0118679Y0322247D02*
X0108979Y0322247D01*
X0353652Y0069799D02*
X0353652Y0122899D01*
X0314697Y0138301D02*
X0300620Y0138301D01*
X0353652Y0122899D02*
X0345495Y0131056D01*
X0245497Y0141728D02*
X0152124Y0141728D01*
X0108979Y0322247D02*
X0107979Y0323247D01*
X0295776Y0138301D02*
X0248925Y0138301D01*
X0373503Y0049947D02*
X0353652Y0069799D01*
X0152124Y0141728D02*
X0131887Y0161966D01*
X0248925Y0138301D02*
X0245497Y0141728D01*
X0122078Y0318848D02*
X0118679Y0322247D01*
X0300620Y0138301D02*
X0300478Y0138160D01*
X0321943Y0131056D02*
X0314697Y0138301D01*
X0438181Y0052550D02*
X0435579Y0049947D01*
X0438181Y0063315D02*
X0438181Y0052550D01*
X0345495Y0131056D02*
X0321943Y0131056D01*
X0131887Y0295168D02*
X0122078Y0304977D01*
X0122078Y0304977D02*
X0122078Y0318848D01*
X0300478Y0138160D02*
X0295917Y0138160D01*
X0435579Y0049947D02*
X0373503Y0049947D01*
X0295917Y0138160D02*
X0295776Y0138301D01*
X0131887Y0161966D02*
X0131887Y0295168D01*
X0190079Y0081347D02*
X0195579Y0086847D01*
X0199439Y0035364D02*
X0199439Y0046587D01*
X0195579Y0086847D02*
X0208754Y0086847D01*
X0205307Y0029496D02*
X0199439Y0035364D01*
X0190079Y0055947D02*
X0190079Y0081347D01*
X0245067Y0137335D02*
X0246579Y0135823D01*
X0224206Y0138274D02*
X0244127Y0138274D01*
X0199439Y0046587D02*
X0190079Y0055947D01*
X0246579Y0135823D02*
X0246579Y0131847D01*
X0208754Y0086847D02*
X0230479Y0108572D01*
X0230479Y0108572D02*
X0230479Y0123947D01*
X0244127Y0138274D02*
X0245067Y0137335D01*
X0221879Y0135947D02*
X0224206Y0138274D01*
X0230479Y0123947D02*
X0221879Y0132547D01*
X0221879Y0132547D02*
X0221879Y0135947D01*
X0220079Y0034268D02*
X0220079Y0052468D01*
X0209439Y0063108D02*
X0209439Y0081908D01*
X0241379Y0113847D02*
X0252379Y0113847D01*
X0209439Y0081908D02*
X0241379Y0113847D01*
X0220079Y0052468D02*
X0209439Y0063108D01*
X0215307Y0029496D02*
X0220079Y0034268D01*
X0463379Y0082447D02*
X0460549Y0085277D01*
X0460549Y0105995D02*
X0455149Y0111395D01*
X0460549Y0085277D02*
X0460549Y0105995D01*
X0455149Y0135577D02*
X0452393Y0138333D01*
X0452393Y0138333D02*
X0450135Y0138333D01*
X0457079Y0049147D02*
X0463379Y0055447D01*
X0455149Y0111395D02*
X0455149Y0135577D01*
X0463379Y0055447D02*
X0463379Y0082447D01*
X0452428Y0134396D02*
X0453379Y0133445D01*
X0453379Y0110662D02*
X0458779Y0105262D01*
X0458779Y0105262D02*
X0458779Y0082947D01*
X0458779Y0082947D02*
X0452979Y0077147D01*
X0398181Y0039496D02*
X0402707Y0034970D01*
X0451402Y0034970D02*
X0452979Y0036547D01*
X0453379Y0133445D02*
X0453379Y0110662D01*
X0452979Y0077147D02*
X0452979Y0036547D01*
X0402707Y0034970D02*
X0451402Y0034970D01*
X0450135Y0134396D02*
X0452428Y0134396D01*
D86*
X0408181Y0017750D02*
X0396179Y0005747D01*
X0408181Y0029496D02*
X0408181Y0017750D01*
X0271679Y0005747D02*
X0254179Y0023247D01*
X0251556Y0023247D02*
X0245307Y0029496D01*
X0254179Y0023247D02*
X0251556Y0023247D01*
X0396179Y0005747D02*
X0271679Y0005747D01*
D115*
X0521841Y0061896D02*
X0510425Y0050480D01*
D12*
X0553337Y0061506D02*
X0563379Y0071547D01*
X0563379Y0071547D02*
X0563379Y0098907D01*
X0554673Y0107613D02*
X0554673Y0130662D01*
X0563379Y0098907D02*
X0554673Y0107613D01*
D115*
X0510425Y0050480D02*
X0521451Y0061506D01*
X0552948Y0061896D02*
X0521841Y0061896D01*
D86*
X0409579Y0150447D02*
X0406979Y0147847D01*
X0364679Y0147847D02*
X0362379Y0150147D01*
X0406979Y0147847D02*
X0364679Y0147847D01*
X0362079Y0049147D02*
X0362079Y0043847D01*
X0317579Y0023147D02*
X0315307Y0025419D01*
X0362079Y0043847D02*
X0341379Y0023147D01*
X0315307Y0025419D02*
X0315307Y0029496D01*
X0341379Y0023147D02*
X0317579Y0023147D01*
D10*
X0313979Y0173247D02*
X0366979Y0173247D01*
X0369379Y0175647D02*
X0369379Y0230647D01*
X0373179Y0138847D02*
X0359479Y0138847D01*
X0359479Y0138847D02*
X0337379Y0160947D01*
X0337379Y0160947D02*
X0337252Y0160820D01*
X0362079Y0237947D02*
X0361279Y0237947D01*
X0366979Y0173247D02*
X0369379Y0175647D01*
X0312679Y0171947D02*
X0313979Y0173247D01*
X0381139Y0141876D02*
X0376208Y0141876D01*
X0363379Y0236647D02*
X0362079Y0237947D01*
X0337252Y0160820D02*
X0317130Y0160820D01*
X0312679Y0165272D02*
X0312679Y0171947D01*
X0369379Y0230647D02*
X0363379Y0236647D01*
X0317130Y0160820D02*
X0312679Y0165272D01*
X0376208Y0141876D02*
X0373179Y0138847D01*
M02*
