M48
INCH,TZ
T01C0.013750
T02C0.027600
T03C0.032000
T04C0.039200
T05C0.043300
T06C0.078700
T07C0.086600
T08C0.145700
%
T01
X9341Y28494
X9370Y27096
X9459Y28996
X9803Y28789
X11188Y37840
X12714Y36590
X12792Y37722
X12798Y36246
X12798Y36974
X12828Y35911
X13005Y35271
X13521Y36807
X13521Y35783
X13521Y35015
X18253Y39038
X18597Y38831
X18686Y40731
X18716Y39333
X30804Y19582
X32949Y22278
X32956Y20218
X33697Y20024
X34931Y38799
X35477Y37303
X36187Y22800
X38114Y14188
X38114Y11235
X38114Y10920
X38114Y10605
X39759Y38799
X45014Y13833
X45014Y13440
X45349Y38799
X49641Y38799
X2808Y36555
X2812Y37559
X2908Y32855
X2908Y31855
X4608Y29355
X5197Y18652
X5236Y15305
X6595Y10772
X7208Y29555
X7913Y8376
X7915Y31152
X9724Y6014
X9948Y33575
X10067Y26404
X10512Y9734
X10717Y10316
X10798Y32325
X10846Y9734
X11181Y9734
X11181Y2352
X11280Y32628
X11458Y29735
X11668Y32505
X11738Y31935
X11798Y38495
X11850Y463
X12008Y26285
X12343Y29764
X12365Y32355
X12717Y27598
X12785Y18325
X12828Y32405
X13478Y32195
X13778Y32415
X13898Y30354
X14045Y9675
X14080Y25070
X14108Y29155
X14291Y24754
X14724Y17078
X14724Y16211
X14908Y26655
X14980Y5758
X15008Y28655
X15039Y25187
X15060Y38142
X15384Y38047
X15413Y40030
X15878Y13585
X17205Y38061
X17539Y7982
X18002Y15817
X18435Y15413
X19134Y38061
X19498Y15365
X19778Y41555
X20394Y38179
X20581Y9734
X21280Y7953
X21968Y40905
X21998Y16535
X22087Y41850
X22371Y16535
X22508Y13495
X22904Y16417
X22913Y8002
X23248Y13575
X23278Y16752
X23278Y41635
X23288Y40105
X23444Y15876
X23593Y7933
X23808Y15365
X23958Y8035
X24428Y15835
X24658Y13185
X24698Y12685
X24868Y11765
X25000Y1345
X25238Y11385
X25258Y14409
X25315Y17057
X25551Y1345
X25945Y23140
X25958Y1285
X26014Y16722
X26073Y38100
X26535Y38079
X26575Y1703
X26929Y1703
X26938Y16875
X27354Y15695
X27400Y16073
X27546Y16755
X27795Y20197
X27828Y22919
X28016Y20738
X28022Y5049
X28178Y22875
X28248Y15305
X28338Y16865
X28468Y17570
X28728Y17305
X28978Y41735
X29043Y17570
X29238Y14223
X29538Y40385
X29608Y15261
X29628Y17285
X29921Y23140
X29971Y39016
X30013Y14223
X30079Y40039
X30482Y38898
X30528Y18455
X30548Y9295
X31043Y39331
X31880Y19134
X32402Y18100
X33661Y39006
X33948Y28125
X33976Y23652
X33998Y33105
X34016Y25187
X34055Y34321
X34114Y32244
X34114Y29724
X34272Y28150
X34331Y30197
X34358Y1552
X34370Y38770
X34547Y24006
X34567Y35079
X34758Y16235
X34758Y15895
X34838Y33061
X34838Y28955
X35039Y25384
X35187Y32569
X35187Y29362
X35394Y34045
X35423Y29952
X35473Y29231
X35512Y39281
X35709Y16644
X35709Y16407
X35984Y34754
X36128Y23795
X36158Y30315
X36166Y31252
X36208Y4915
X36238Y15015
X36402Y31527
X36515Y24272
X36535Y25187
X36638Y31803
X36798Y3625
X37118Y6095
X37188Y20005
X37195Y23740
X37228Y16125
X37244Y15187
X37248Y14365
X37520Y34124
X37638Y15085
X37728Y16095
X37772Y9138
X37781Y12711
X37898Y15095
X37913Y15541
X37998Y35415
X38178Y16115
X38178Y15815
X38318Y6795
X38390Y5306
X38758Y1375
X38908Y16495
X38908Y16215
X39792Y16621
X40426Y16597
X40958Y15045
X41318Y14825
X41850Y14754
X42224Y17028
X42228Y5355
X42421Y16831
X42588Y2245
X42618Y16634
X42678Y5355
X42913Y16900
X43128Y1475
X43218Y5355
X43219Y34474
X43908Y17146
X44724Y1565
X44728Y4615
X45438Y14315
X45459Y10556
X45512Y8888
X45708Y4915
X45769Y17137
X46718Y1585
X46969Y16959
X46969Y16644
X46969Y16289
X48138Y4765
X48740Y22627
X48772Y25910
X48976Y34370
X49016Y19400
X49252Y27707
X49291Y39400
X49646Y16841
X50088Y33565
X50414Y37352
X50738Y39325
X51181Y9281
X51868Y17115
X52348Y17115
X52643Y9911
X52662Y11132
X52662Y10640
X52761Y13258
X52780Y14480
X52804Y19721
X52918Y21271
X53154Y23771
X53174Y22964
X53194Y22137
X53740Y620
X53843Y11959
X53843Y11132
X53843Y10305
X54394Y23378
X54394Y22551
X54394Y21724
X54680Y12712
X55591Y33612
X55633Y21965
X55709Y23258
X56345Y21379
X56351Y13461
X56538Y20391
X56649Y13855
X56954Y21507
X56954Y20391
X57050Y13816
X57151Y13345
X58307Y1014
X60078Y17175
X60103Y19893
X60157Y21604
X60280Y14322
X60578Y17125
X7360Y10789
X7754Y10789
X8148Y10789
X8541Y10789
X8974Y25848
X9368Y25848
X10766Y25848
X11159Y25848
X28479Y19298
X28479Y22605
X28814Y19298
X29030Y22605
X29148Y19298
X29244Y22162
X29454Y22605
X29483Y19298
X29724Y18728
X30005Y22605
X55467Y21021
X55467Y20706
X55467Y13066
X55467Y12751
X57930Y20784
X57930Y20430
X57938Y13816
X57938Y13461
X18253Y39038
X18597Y38831
X18716Y39333
X18686Y40731
X35477Y37303
X34931Y38800
X39759Y38800
X45349Y38800
X49641Y38800
X16412Y23758
X16786Y23739
X17229Y24319
X17751Y24516
X17721Y24831
X17387Y25461
X16560Y25333
X16225Y24821
X16235Y24270
X18253Y24260
X18942Y24250
X19188Y24044
X19601Y23719
X20035Y23709
X19847Y24231
X19375Y24713
X18981Y24762
X19090Y25254
X19562Y25176
X20261Y24811
X20477Y25628
X21029Y25540
X21019Y26022
X20606Y26514
X20379Y27182
X20901Y27144
X21137Y27361
X21285Y27056
X21767Y26977
X21895Y27321
X22210Y27203
X22347Y27577
X22682Y27351
X22840Y26997
X23145Y27095
X24011Y27636
X23538Y28365
X24179Y28877
X24473Y29044
X24759Y28817
X26029Y28748
X25980Y27833
X25989Y27518
X25989Y27203
X25812Y26071
X25192Y26071
X26078Y25579
X26698Y25648
X26668Y25993
X27288Y25776
X27475Y26042
X27427Y27056
X27269Y27331
X27190Y27636
X26964Y27863
X26816Y28168
X28155Y27469
X28450Y27351
X28647Y26032
X28853Y25097
X29110Y24880
X29414Y25018
X29769Y25048
X29927Y25520
X30251Y25523
X30567Y25540
X29562Y25520
X29632Y26623
X29956Y26623
X30271Y26632
X30625Y26623
X29857Y23739
X29139Y24408
X27308Y24556
X27023Y24703
X26629Y24772
X26312Y24585
X26145Y23994
X24927Y24123
X24916Y23808
X24897Y24674
X24621Y25225
X24129Y25628
X23332Y25589
X23637Y25166
X23509Y24871
X22692Y25107
X22230Y25245
X21983Y25008
X21540Y25077
X21678Y25638
X22338Y25983
X21836Y24506
X21078Y24516
X21993Y23827
X24021Y23965
X24247Y24191
X27653Y23561
X28666Y29684
X28666Y30003
X28489Y30402
X28209Y30194
X27958Y30402
X28047Y30875
X28292Y31150
X28105Y31937
X28410Y32026
X28725Y32056
X29056Y32095
X27810Y32311
X28017Y32568
X27978Y33058
X28263Y33198
X28647Y33483
X29031Y33680
X29611Y34014
X29778Y34487
X29788Y36140
X30497Y36199
X30842Y36977
X29269Y36514
X28496Y36490
X28204Y35570
X28184Y35245
X28047Y34960
X28086Y34487
X27820Y34304
X27160Y33906
X26871Y33389
X26816Y32400
X26836Y32075
X27180Y31790
X27309Y32263
X27771Y31751
X26107Y31829
X26127Y32184
X26295Y32479
X26097Y32774
X25221Y32646
X24572Y32941
X24257Y32922
X23391Y32843
X23181Y31928
X23696Y31790
X24257Y31426
X24434Y31140
X24385Y30737
X23972Y30481
X24198Y29861
X24601Y30126
X25192Y30432
X25744Y31052
X26078Y31042
X26417Y31039
X25832Y31357
X24897Y31642
X22525Y31682
X22200Y31613
X22584Y31091
X23342Y30786
X22997Y30363
X23469Y30028
X22269Y29871
X22417Y29359
X21777Y29408
X21304Y29221
X21216Y28602
X20684Y28266
X20349Y27932
X20340Y29004
X20428Y29920
X20743Y29910
X20842Y29605
X20743Y30393
X20655Y30697
X20340Y30727
X21009Y30569
X20576Y33178
X20349Y33571
X20527Y34063
X20468Y34437
X20507Y34871
X19149Y34910
X18696Y35156
X18492Y35449
X18007Y35766
X18027Y36081
X17219Y36288
X16954Y36465
X17032Y37046
X17288Y36859
X18164Y37085
X18440Y36859
X18735Y36573
X19129Y36209
X19149Y37213
X19885Y37030
X20192Y37420
X20507Y37371
X20763Y36416
X20891Y36121
X21206Y36160
X21275Y35540
X22032Y36229
X22239Y36475
X23391Y35796
X23214Y35521
X23305Y35211
X23578Y34880
X23844Y34703
X24149Y34615
X24313Y35087
X24060Y35294
X24656Y35637
X24365Y36396
X25084Y36424
X24946Y37331
X25281Y37311
X25999Y37331
X27003Y37331
X28667Y35386
X25242Y34202
X24572Y34260
X21068Y34024
X22210Y32636
X18962Y32981
X18701Y32470
X17899Y32193
X17662Y31977
X17810Y32705
X17298Y32577
X16983Y32213
X16029Y32449
X16363Y33247
X17377Y33414
X17584Y34191
X18204Y34152
X16668Y34191
X16058Y34172
X15743Y34880
X17082Y34782
X16816Y37745
X16471Y37607
X15979Y31337
X15674Y31416
X16265Y30500
X16366Y30186
X16688Y30067
X16658Y29467
X17190Y29684
X18007Y30009
X18108Y29408
X18903Y29595
X18946Y28762
X17495Y28778
X17013Y28699
X16934Y28384
X16147Y28227
X16235Y27715
X17180Y27567
X17810Y27695
X17849Y28217
X18824Y27321
X19178Y27331
X19710Y27203
X20064Y26878
X18597Y26160
X21796Y28266
X22042Y28532
X22279Y28207
X26225Y30072
X27013Y30205
X28962Y29576
X29317Y29713
X29454Y29998
X29769Y30028
X30910Y30195
X30990Y31495
X16708Y30845
X15792Y29487
X31256Y27942
X31747Y28099
X32142Y27892
X32525Y27892
X33017Y28099
X32938Y28453
X33223Y27843
X33194Y26317
X33105Y25097
X32783Y25097
X32554Y24605
X31934Y24369
X31938Y23926
X31432Y25146
X31481Y26199
X31826Y26199
X31653Y26790
X32071Y30530
X32309Y30530
X32751Y30884
X32977Y30382
X31531Y30963
X31176Y33109
X31107Y34054
X32131Y33896
X32204Y33424
X33253Y33581
X33272Y34162
X33155Y35313
X32968Y35609
X32672Y35491
X32347Y35495
X32387Y34861
X32004Y35826
X31687Y35806
X31201Y36470
X31599Y37272
X31973Y36918
X32485Y36346
X32840Y36593
X33056Y37065
X33430Y36947
X33282Y35825
X15733Y17912
X15989Y18966
X16146Y19241
X15827Y20201
X15818Y21123
X16856Y21118
X17308Y21495
X17689Y21437
X18243Y21465
X18627Y21403
X18981Y21507
X19365Y21403
X20064Y21357
X20418Y21446
X20861Y21475
X21284Y21328
X21501Y21076
X21747Y21357
X22170Y21465
X22583Y21554
X23046Y21515
X23174Y21072
X23479Y21357
X23873Y21495
X24247Y21406
X24749Y21406
X25162Y21357
X24886Y21062
X24552Y20717
X25014Y20343
X25605Y19458
X25930Y19458
X25516Y19142
X25487Y18749
X25172Y18759
X24810Y18744
X24483Y18690
X23939Y18387
X23922Y19477
X23598Y19477
X23331Y20324
X22879Y20649
X21638Y20324
X21176Y20658
X19906Y20324
X19512Y20649
X19799Y21073
X18243Y20719
X17948Y20345
X18117Y20078
X17455Y19674
X17446Y19359
X17455Y19044
X17396Y18464
X17829Y18759
X18164Y18788
X18486Y18781
X18823Y18765
X19316Y18769
X19631Y18780
X20125Y18764
X20447Y18769
X20969Y18847
X21285Y18770
X22386Y18616
X22852Y18769
X22328Y19469
X21934Y19477
X26333Y18808
X26648Y18788
X26963Y18710
X27249Y18158
X27289Y19331
X27208Y19792
X26717Y20275
X26334Y20591
X26579Y21023
X26471Y21436
X26855Y21357
X27347Y21367
X25871Y21357
X25556Y21561
X16363Y21958
X16865Y20265
X17593Y17666
X37697Y21970
X39252Y22122
X39262Y22564
X39065Y23489
X39537Y23519
X39390Y23854
X39596Y24405
X39734Y24691
X39744Y25015
X40236Y25608
X40236Y25938
X40571Y25980
X39931Y26541
X40336Y27051
X40817Y27014
X41122Y26905
X41378Y27938
X41378Y28155
X41171Y28198
X41171Y28513
X41101Y28960
X39281Y28948
X38976Y29027
X38720Y28353
X38484Y28348
X38484Y28102
X38337Y27594
X38100Y27584
X37777Y27454
X37756Y27777
X37738Y27139
X37728Y26824
X37726Y26497
X37707Y26133
X37707Y25818
X37864Y25517
X37864Y25261
X37805Y24273
X38199Y23235
X40167Y23338
X40167Y23131
X40167Y23574
X42136Y23584
X42136Y23348
X42136Y23111
X42451Y23348
X42451Y23584
X42451Y23820
X42136Y23922
X42766Y23672
X42766Y23436
X42766Y23200
X43799Y22915
X44046Y22033
X44321Y21856
X44272Y21501
X44153Y20911
X44356Y20259
X45587Y20378
X45679Y20881
X45905Y21383
X45709Y21698
X46589Y21354
X47037Y21639
X47569Y21836
X47972Y21379
X47972Y21133
X47972Y20887
X47697Y20395
X47687Y20149
X47687Y19883
X46557Y20167
X46488Y20386
X46555Y19454
X46053Y19287
X45699Y18863
X45138Y18234
X46506Y18204
X43740Y17629
X43445Y17629
X42687Y19985
X42687Y21432
X43348Y21479
X40620Y21301
X40403Y20724
X39134Y21232
X39340Y21472
X39508Y27541
X39754Y27541
X40006Y27541
X39665Y29499
X39951Y29804
X39941Y31005
X40817Y30966
X41041Y32056
X41447Y32048
X41545Y32354
X41309Y32570
X40986Y32572
X40786Y32291
X40494Y32454
X40482Y32135
X40177Y32275
X40138Y31960
X38346Y32678
X38274Y30867
X38140Y30554
X38140Y30239
X38880Y30288
X42274Y30143
X42716Y29946
X42766Y29552
X43563Y29165
X43396Y27781
X43396Y27564
X43189Y27495
X42972Y27728
X43081Y25743
X44105Y26748
X45925Y27220
X46222Y27591
X46663Y28332
X46668Y28575
X46545Y29444
X46033Y29050
X45876Y29701
X45463Y30321
X45394Y30793
X45634Y31079
X46073Y31048
X46466Y30576
X47208Y31101
X47461Y30261
X47037Y32239
X46939Y32555
X47057Y32938
X47805Y32348
X48327Y32491
X48327Y32747
X45935Y32216
X44941Y31399
X44508Y31399
X44118Y31399
X43627Y31364
X43120Y31241
X42618Y31409
X42549Y31088
X42175Y31111
X41900Y32728
X42962Y32383
X45010Y29464
X47490Y27860
X47352Y26812
X47018Y26974
X46240Y26381
X46053Y25326
X46250Y24873
X45718Y24470
X45974Y24047
X46053Y23476
X45441Y23106
X47293Y23210
X47293Y23456
X47293Y23702
X47293Y23948
X47293Y24194
X46902Y24225
X43791Y24167
X43592Y33200
X43100Y33200
X44126Y33104
X44618Y33104
X45120Y33104
X45935Y33180
X47854Y33103
X48327Y32984
X41525Y33230
X38789Y33938
X38297Y33948
X12975Y35272
X13491Y35016
X13491Y35784
X12798Y35912
X12769Y36246
X12684Y36591
X12769Y36975
X12763Y37723
X13491Y36807
X11158Y37841
X30803Y19582
X32956Y20219
X33697Y20025
X32949Y22279
X36187Y22800
X12459Y25888
X11514Y25868
X9723Y25829
X10412Y25809
X6987Y25789
X8725Y25648
X8457Y25500
X11967Y25415
X7242Y25199
X8227Y24963
X7262Y24884
X9694Y24658
X8955Y24648
X11557Y24632
X10648Y24628
X12006Y24451
X7065Y24077
X8994Y23683
X11022Y23624
X9845Y23585
X6947Y23388
X12400Y23329
X7479Y23073
X8522Y23053
X12026Y23014
X9688Y22699
X9368Y22620
X10038Y22443
X12223Y22364
X9093Y22207
X10727Y22128
X6947Y22069
X9624Y21656
X10648Y21419
X8837Y21321
X12203Y21301
X7026Y20888
X11122Y20756
X9762Y20691
X9392Y20459
X10142Y20436
X11081Y20435
X10766Y20435
X8365Y20081
X8030Y20081
X7223Y19825
X11632Y19785
X9388Y19352
X6928Y19333
X11180Y19274
X7513Y18959
X9882Y18956
X7813Y18821
X11928Y18762
X8365Y17837
X8935Y17679
X9959Y17600
X9644Y17443
X11337Y17423
X12105Y17305
X11809Y17226
X6928Y16892
X10865Y16793
X7518Y16774
X8620Y16656
X9487Y16498
X9132Y16498
X9979Y16400
X11770Y16360
X10865Y16065
X10182Y15756
X7420Y15730
X11219Y15534
X8622Y15346
X7223Y15238
X12124Y14805
X10924Y14805
X12420Y14608
X9920Y14608
X9282Y14606
X8325Y14606
X8903Y14595
X7695Y14569
X6987Y14569
X10294Y13624
X12445Y11931
X7656Y11813
X7026Y11813
X11120Y11656
X10727Y11656
X11120Y11262
X10727Y11262
X7656Y11222
X8561Y11183
X12420Y10829
X6928Y10770
X11160Y25848
X10766Y25848
X9368Y25848
X8975Y25848
X8542Y10789
X8148Y10789
X7754Y10789
X7361Y10789
X9803Y28789
X9459Y28996
X9340Y28494
X9370Y27096
X45013Y13439
X45013Y13833
X38114Y10605
X38114Y10920
X38114Y11235
X38114Y14188
X45004Y11737
X44885Y8548
X44846Y8154
X44767Y8941
X44334Y12839
X44334Y13626
X44334Y14375
X44255Y8115
X44216Y8587
X44120Y10034
X44098Y9650
X44098Y10359
X43980Y9020
X43941Y11737
X43783Y12485
X43685Y13626
X43612Y10516
X43429Y9611
X43429Y11343
X43389Y12288
X43232Y9138
X43174Y11028
X43153Y8154
X43035Y12918
X42878Y9493
X42759Y13666
X42720Y8694
X42444Y10674
X42366Y12997
X42326Y8154
X42051Y9414
X42028Y10048
X42011Y11894
X41803Y10662
X41662Y12313
X41460Y8390
X41401Y8804
X41303Y10516
X41303Y10831
X41145Y9650
X41145Y11422
X41067Y8075
X41064Y12232
X41055Y12760
X40970Y13461
X40909Y13784
X40752Y9847
X40712Y9453
X40697Y10492
X40636Y14387
X40636Y14077
X40603Y12311
X40555Y11264
X40555Y11579
X40496Y8725
X40358Y12079
X40200Y11422
X40065Y8092
X39863Y9060
X39774Y12295
X39689Y11067
X39689Y11382
X39216Y11776
X39177Y8154
X39177Y13705
X39157Y13134
X39098Y11343
X38901Y9099
X38621Y10109
X38576Y12322
X38468Y11815
X38311Y8745
X38311Y11540
X38271Y8154
X38267Y13873
X38153Y13587
X28479Y22606
X29030Y22606
X29453Y22606
X30004Y22606
X29244Y22163
X29148Y19298
X28813Y19298
X28479Y19298
X29483Y19298
X29723Y18728
T02
X32067Y40276
X32382Y40965
X32697Y40276
X33012Y40965
X33327Y40276
X31260Y40876G85X31260Y40364
X34134Y40876G85X34134Y40364
T03
X3425Y12531
X3425Y11031
X4331Y12551
X4331Y11051
X5236Y12551
X5236Y11051
X6142Y12551
X6142Y11051
X16457Y11776
X16457Y10276
X18238Y11801
X18238Y10301
X19035Y11793
X19035Y10293
X20315Y11793
X20315Y10293
X21496Y11852
X21496Y10352
X48848Y12470
X48848Y10541
X49990Y12470
X49990Y10541
T04
X1024Y38031
X1024Y33750
X1024Y28406
X1024Y24094
X1024Y20197
X1024Y16053
X1024Y12106
X1024Y8406
X1083Y5719
X6280Y45266
X10561Y45266
X14744Y45266
X19242Y45266
X23888Y45266
X27933Y45266
X32215Y45276
X36398Y45276
X40896Y45276
X45039Y45256
X49587Y45276
X53730Y45256
X58278Y45276
X63346Y38612
X63346Y34331
X63346Y28986
X63346Y24675
X63346Y20778
X63346Y16634
X63346Y12687
X63346Y8986
X63346Y5846
X5197Y26083
X5197Y25083
X5197Y24083
X5197Y23083
X5197Y22083
X5197Y21083
X14026Y12864
X15020Y12864
X16014Y12864
X17008Y12864
X17500Y16358
X18081Y12864
X18839Y16348
X19154Y12854
X19951Y16348
X20217Y12854
X21063Y16348
X21568Y12865
X21850Y39173
X22520Y11132
X22850Y39173
X23850Y39173
X24850Y39173
X25108Y10089
X25850Y39173
X26041Y11895
X26208Y15465
X26211Y10059
X26850Y39173
X27085Y11895
X27283Y10089
X27850Y39173
X28128Y11895
X28593Y10069
X28850Y39173
X29171Y11895
X29675Y10069
X30214Y11895
X30448Y16285
X31053Y10069
X31268Y11895
X31788Y16845
X32116Y10069
X32328Y11895
X33159Y10069
X33368Y11895
X34163Y10069
X34428Y11895
X35630Y15876
X46038Y13475
X55047Y41181
X55047Y40181
X55047Y39181
X55047Y38181
X55047Y37181
X56047Y41181
X56047Y40181
X56047Y39181
X56047Y38181
X56047Y37181
X57047Y41181
X57047Y40181
X57047Y39181
X57047Y38181
X57047Y37181
X59000Y38000
X59000Y37000
X59000Y36000
X59000Y35000
X59000Y34000
X59000Y32760
X59000Y31760
X59000Y30760
X59000Y29760
X59000Y28760
X59000Y27480
X59000Y26480
X59000Y25480
X59000Y24480
X59000Y23480
X60000Y38000
X60000Y37000
X60000Y36000
X60000Y35000
X60000Y34000
X60000Y32760
X60000Y31760
X60000Y30760
X60000Y29760
X60000Y28760
X60000Y27480
X60000Y26480
X60000Y25480
X60000Y24480
X60000Y23480
X61000Y38000
X61000Y37000
X61000Y36000
X61000Y35000
X61000Y34000
X61000Y32760
X61000Y31760
X61000Y30760
X61000Y29760
X61000Y28760
X61000Y27480
X61000Y26480
X61000Y25480
X61000Y24480
X61000Y23480
X32381Y32709
X33181Y32709
X32781Y34709
X7971Y13978
X9152Y13191
X7971Y12404
X7794Y25648
X8194Y23648
X7394Y23648
T05
X15531Y7331
X15531Y6331
X15531Y3950
X15531Y2950
X16531Y7331
X16531Y6331
X16531Y3950
X16531Y2950
X17531Y7331
X17531Y6331
X17531Y3950
X17531Y2950
X18531Y7331
X18531Y6331
X18531Y3950
X18531Y2950
X19531Y7331
X19531Y6331
X19531Y3950
X19531Y2950
X20531Y7331
X20531Y6331
X20531Y3950
X20531Y2950
X21531Y7331
X21531Y6331
X21531Y3950
X21531Y2950
X22531Y7331
X22531Y6331
X22531Y3950
X22531Y2950
X23531Y7331
X23531Y6331
X23531Y3950
X23531Y2950
X24531Y7331
X24531Y6331
X24531Y3950
X24531Y2950
X25531Y7331
X25531Y6331
X25531Y3950
X25531Y2950
X26531Y7331
X26531Y6331
X26531Y3950
X26531Y2950
X27531Y7331
X27531Y6331
X27531Y3950
X27531Y2950
X28531Y7331
X28531Y6331
X28531Y3950
X28531Y2950
X29531Y7331
X29531Y6331
X29531Y3950
X29531Y2950
X30531Y7331
X30531Y6331
X30531Y3950
X30531Y2950
X31531Y7331
X31531Y6331
X31531Y3950
X31531Y2950
X32531Y7331
X32531Y6331
X32531Y3950
X32531Y2950
X33531Y7331
X33531Y6331
X33531Y3950
X33531Y2950
X39818Y7331
X39818Y6331
X39818Y3950
X39818Y2950
X40818Y7331
X40818Y6331
X40818Y3950
X40818Y2950
X41818Y7331
X41818Y6331
X41818Y3950
X41818Y2950
X42818Y7331
X42818Y6331
X42818Y3950
X42818Y2950
X43818Y7331
X43818Y6331
X43818Y3950
X43818Y2950
X44818Y7331
X44818Y6331
X44818Y3950
X44818Y2950
X45818Y7331
X45818Y6331
X45818Y3950
X45818Y2950
X46818Y7331
X46818Y6331
X46818Y3950
X46818Y2950
X11868Y13994
X11868Y12994
X11868Y11994
T06
X35709Y41142
X37165Y40276
X37913Y41142
X39370Y40276
X40354Y41142
T07
X8306Y5233
X10137Y7331
X10137Y4131
X11279Y5048
X12420Y7331
X12420Y4131
X49901Y7331
X49901Y4131
X51043Y5048
X52184Y7331
X52184Y4131
X53365Y5048
X54507Y7331
X54507Y4131
X56259Y5233
T08
X7342Y2162
X36672Y2162
X57224Y2162
M30
