G75*
G70*
%OFA0B0*%
%FSLAX25Y25*%
%IPPOS*%
%LPD*%
%AMOC8*
5,1,8,0,0,1.08239X$1,22.5*
%
%ADD10C,0.00787*%
%ADD310C,0.00079*%
X0000000Y0000000D02*
%LPD*%
G01*
D10*
X0543150Y0000000D02*
X0587855Y0007874D01*
X0050630Y0449370D02*
X0050630Y0458999D01*
X0009055Y0315551D02*
G75*
G02*
X0009055Y0303740I0000001J-005906D01*
G01*
X0630472Y0413937D02*
G75*
G02*
X0595039Y0449370I0000000J0035433D01*
G01*
X0057874Y0007874D02*
X0057874Y0032315D01*
X0040157Y0049803D02*
G75*
G02*
X0057874Y0032315I-000185J-017905D01*
G01*
X0636614Y0315551D02*
X0645669Y0315551D01*
X0587795Y0031843D02*
G75*
G02*
X0605855Y0049803I0017989J-000028D01*
G01*
X0000000Y0055371D02*
X0000000Y0303740D01*
X0015197Y0413937D02*
X0005568Y0413937D01*
X0589472Y0464567D02*
X0056198Y0464567D01*
X0640102Y0049803D02*
X0605855Y0049803D01*
X0009055Y0303740D02*
X0000000Y0303740D01*
X0587855Y0007874D02*
X0587795Y0031843D01*
X0543150Y0000000D02*
X0102520Y0000000D01*
X0645669Y0055371D02*
X0645669Y0303740D01*
X0050630Y0458999D02*
X0056198Y0464567D01*
X0645669Y0315551D02*
X0645669Y0408369D01*
X0595039Y0458999D02*
X0589472Y0464567D01*
X0009055Y0315551D02*
X0000000Y0315551D01*
X0102520Y0000000D02*
X0057874Y0007874D01*
X0645669Y0408369D02*
X0640102Y0413937D01*
X0630472Y0413937D02*
X0640102Y0413937D01*
X0636614Y0303740D02*
X0645669Y0303740D01*
X0645669Y0055371D02*
X0640102Y0049803D01*
X0050630Y0449370D02*
G75*
G02*
X0015197Y0413937I-035433J0000000D01*
G01*
X0000000Y0408369D02*
X0005568Y0413937D01*
X0595039Y0449370D02*
X0595039Y0458999D01*
X0636614Y0303740D02*
G75*
G02*
X0636614Y0315551I0000000J0005906D01*
G01*
X0000000Y0315551D02*
X0000000Y0408369D01*
X0000000Y0055371D02*
X0005568Y0049803D01*
X0005568Y0049803D02*
X0040157Y0049803D01*
X0155659Y0382900D02*
G01*
G75*
X0346801Y0360827D02*
G01*
G75*
X0154380Y0232171D02*
G01*
G75*
X0154774Y0171836D02*
G01*
G75*
X0150049Y0172349D02*
G01*
G75*
X0374311Y0173278D02*
G01*
G75*
X0105285Y0328895D02*
G01*
G75*
X0304590Y0168158D02*
G01*
G75*
X0067106Y0260650D02*
%LPD*%
G01*
D310*
X0067106Y0260650D02*
X0067106Y0105729D01*
X0067106Y0105729D02*
X0126555Y0105729D01*
X0126555Y0105729D02*
X0126555Y0260650D01*
X0126555Y0260650D02*
X0067106Y0260650D01*
X0124902Y0295374D02*
G01*
G75*
X0451612Y0145321D02*
G01*
G75*
X0281543Y0227035D02*
G01*
G75*
M02*
