M48
; DRILL file {KiCad (5.99.0-10192-g8d0191151d)} date Sat May  1 21:22:01 2021
; FORMAT={2:4/ absolute / inch / suppress leading zeros}
; #@! TF.CreationDate,2021-05-01T21:22:01+03:00
; #@! TF.GenerationSoftware,Kicad,Pcbnew,(5.99.0-10192-g8d0191151d)
; #@! TF.FileFunction,MixedPlating,1,2
FMAT,2
INCH,TZ
; #@! TA.AperFunction,Plated,PTH,ComponentDrill
T1C0.0118
; #@! TA.AperFunction,Plated,PTH,ViaDrill
T2C0.0118
; #@! TA.AperFunction,Plated,PTH,ComponentDrill
T3C0.0118
; #@! TA.AperFunction,Plated,PTH,ViaDrill
T4C0.0157
; #@! TA.AperFunction,Plated,PTH,ComponentDrill
T5C0.0276
; #@! TA.AperFunction,Plated,PTH,ComponentDrill
T6C0.0320
; #@! TA.AperFunction,Plated,PTH,ViaDrill
T7C0.0394
; #@! TA.AperFunction,Plated,PTH,ComponentDrill
T8C0.0394
; #@! TA.AperFunction,Plated,PTH,ComponentDrill
T9C0.0433
; #@! TA.AperFunction,Plated,PTH,ComponentDrill
T10C0.0787
; #@! TA.AperFunction,Plated,PTH,ComponentDrill
T11C0.0866
; #@! TA.AperFunction,Plated,PTH,ComponentDrill
T12C0.1457
%
G90
G05
T1
X9341Y28494
X9370Y27096
X9459Y28996
X9803Y28789
X11188Y37840
X12714Y36590
X12792Y37722
X12798Y36246
X12798Y36974
X12828Y35911
X13005Y35271
X13521Y36807
X13521Y35783
X13521Y35015
X18253Y39038
X18597Y38831
X18686Y40731
X18716Y39333
X30804Y19582
X32949Y22278
X32956Y20218
X33697Y20024
X34931Y38799
X35477Y37303
X36187Y22800
X39759Y38799
X45349Y38799
X49641Y38799
T2
X3583Y39026
X3583Y33514
X3583Y28789
X3583Y24065
X3583Y18947
X3583Y14616
X4370Y8317
X4370Y5955
X5157Y30472
X5930Y37078
X5945Y16978
X5945Y15404
X5945Y13829
X6009Y30070
X6339Y39419
X6339Y3593
X6496Y24764
X6496Y23189
X6496Y21614
X6496Y20039
X6496Y18465
X6732Y8711
X6732Y7530
X6732Y6348
X6757Y37472
X6988Y32490
X7126Y42175
X7520Y27215
X7894Y32372
X8056Y30385
X8130Y31841
X8135Y29716
X8307Y9104
X8307Y837
X8337Y32648
X8593Y31841
X8701Y7530
X8701Y6348
X8986Y31919
X9094Y37844
X9094Y34695
X9094Y4380
X9272Y32392
X9449Y33219
X9528Y30551
X9724Y26220
X9882Y39026
X9882Y35482
X9882Y33907
X9882Y5167
X9882Y3199
X9941Y37372
X9980Y33199
X10197Y9734
X10276Y40600
X10276Y26575
X10295Y30443
X10342Y33535
X10512Y9734
X10669Y443
X10846Y9734
X11063Y29685
X11181Y9734
X11280Y32628
X11516Y41732
X11516Y40010
X11575Y26220
X11929Y29764
X12244Y10285
X12244Y443
X12343Y29764
X12559Y26575
X12638Y30758
X12638Y29183
X12677Y27913
X12717Y27598
X12717Y27283
X12785Y25866
X12785Y24016
X12785Y22874
X12785Y20669
X12785Y18268
X12785Y15787
X12785Y14331
X12785Y12913
X12785Y10748
X13031Y29961
X13287Y5502
X13297Y32608
X13307Y38100
X13425Y41781
X13425Y3199
X13563Y6722
X13612Y384
X13898Y30354
X13986Y4311
X14045Y9675
X14080Y25070
X14134Y29252
X14183Y16407
X14213Y2018
X14222Y11398
X14276Y34637
X14291Y31260
X14291Y24754
X14331Y29803
X14370Y32953
X14409Y38297
X14567Y40069
X14724Y17078
X14724Y16211
X14843Y26575
X14882Y27126
X14921Y28543
X14980Y5758
X15079Y32008
X15079Y30827
X15079Y29646
X15157Y38100
X15177Y34902
X15182Y33643
X15197Y16447
X15236Y25197
X15413Y40030
X15472Y10030
X15472Y9144
X15519Y38019
X15709Y41811
X15787Y2018
X16014Y12205
X16457Y41496
X16575Y2411
X17106Y15453
X17539Y7982
X17874Y41496
X17943Y5837
X17953Y3435
X17977Y14047
X17992Y15000
X18002Y15817
X18435Y15413
X19016Y2766
X19291Y8789
X19331Y7884
X19488Y41378
X19547Y38081
X19626Y15236
X19764Y4892
X20157Y8789
X20157Y7884
X20217Y39065
X20325Y38140
X20551Y40591
X20581Y9734
X20610Y14941
X20728Y4902
X21063Y5906
X21280Y7953
X21535Y38091
X21742Y38504
X22047Y2746
X22077Y16496
X22087Y41850
X22087Y40118
X22116Y14626
X22441Y40472
X22461Y16486
X22913Y8002
X23228Y13593
X23268Y40207
X23278Y16752
X23386Y15876
X23484Y41762
X23593Y7933
X23661Y41260
X23868Y8219
X24055Y3415
X24154Y2254
X24173Y15719
X24420Y15364
X24420Y14630
X24528Y2254
X24685Y11033
X24961Y40079
X25000Y1345
X25039Y12215
X25315Y17057
X25315Y11309
X25472Y41220
X25551Y1345
X25630Y9813
X25669Y11624
X26014Y16722
X26024Y8317
X26053Y3711
X26299Y40197
X26299Y11545
X26378Y16093
X26417Y41781
X26535Y38079
X26575Y12096
X26575Y1703
X26693Y16781
X26732Y10364
X26811Y8317
X26929Y5600
X26929Y1703
X26969Y11191
X27205Y1230
X27520Y41181
X27598Y23060
X27717Y16841
X27717Y16093
X27795Y21014
X27795Y20197
X27795Y18612
X27795Y17864
X28016Y21880
X28022Y5049
X28031Y4144
X28421Y17023
X28583Y10915
X28740Y16742
X28752Y17553
X28780Y16112
X29084Y17570
X29173Y41781
X29331Y17077
X29449Y5010
X29567Y10955
X29567Y1230
X29685Y5797
X29764Y16722
X29921Y23140
X30039Y17077
X30079Y41693
X30079Y40039
X30236Y5876
X30276Y11309
X30394Y38858
X30512Y5010
X30551Y41378
X30787Y17943
X30787Y16191
X30876Y3533
X30945Y38898
X31043Y39331
X31073Y7884
X31378Y16112
X31535Y1230
X31880Y19134
X31929Y41654
X32057Y17096
X32421Y7943
X32559Y5325
X32677Y14144
X33209Y38907
X33307Y38022
X33386Y15600
X33386Y14813
X33504Y1230
X33543Y15955
X33583Y5285
X33622Y14026
X33922Y28148
X33986Y33091
X34075Y23612
X34094Y33898
X34094Y24478
X34114Y32244
X34114Y29724
X34124Y35404
X34134Y14852
X34134Y14065
X34173Y25955
X34173Y10955
X34272Y28150
X34321Y33130
X34331Y30531
X34331Y30197
X34370Y14577
X34449Y38071
X34547Y24006
X34567Y35079
X34606Y1762
X34646Y14341
X34764Y10994
X34882Y35935
X34892Y24272
X34892Y23967
X34892Y23238
X35010Y1329
X35039Y41732
X35059Y16142
X35059Y15886
X35187Y32569
X35187Y29362
X35236Y25659
X35236Y24636
X35305Y43435
X35339Y33850
X35354Y34646
X35354Y11663
X35423Y29952
X35473Y29231
X35709Y16644
X35709Y16407
X35827Y35758
X35866Y39419
X36142Y8356
X36142Y7333
X36142Y6309
X36166Y31252
X36181Y25541
X36245Y23850
X36299Y10876
X36402Y31527
X36535Y24281
X36565Y11496
X36638Y31803
X36693Y13632
X36722Y14252
X36850Y7096
X36929Y8150
X36969Y10837
X37028Y3396
X37087Y24596
X37087Y4222
X37096Y9075
X37126Y33780
X37165Y35827
X37165Y25581
X37195Y23740
X37323Y12923
X37520Y14301
X37559Y7923
X37638Y11860
X37638Y11388
X37699Y14113
X37854Y13484
X37933Y15177
X37933Y14941
X37953Y1742
X37982Y14094
X37992Y3396
X38031Y4931
X38031Y4262
X38110Y7372
X38228Y39419
X38307Y35079
X38346Y10443
X38376Y14144
X38396Y15482
X38396Y15226
X38484Y6329
X38612Y14144
X38622Y34606
X38898Y41732
X38937Y16161
X38937Y15915
X39016Y1230
X39488Y5522
X39675Y12579
X39801Y11321
X39951Y12579
X40044Y11901
X40148Y4823
X40177Y11348
X40187Y12589
X40536Y10799
X40719Y9154
X40984Y41781
X40984Y39419
X41378Y1230
X41772Y34567
X41954Y11035
X42293Y17165
X42367Y8948
X42402Y15246
X42461Y17018
X42628Y16850
X42874Y14774
X43346Y39419
X43430Y7826
X43947Y4990
X44134Y41781
X44134Y2018
X44281Y13287
X44528Y16585
X44774Y15502
X44906Y8023
X45157Y34567
X45630Y1329
X45709Y39419
X45709Y16585
X45738Y5394
X46102Y2018
X46132Y14350
X46171Y13386
X46348Y13209
X46496Y41781
X46526Y13031
X46835Y16881
X46835Y16606
X46835Y16330
X47037Y14370
X47037Y453
X47269Y15563
X48174Y11212
X48253Y13299
X48465Y39419
X48465Y2018
X48543Y35079
X48573Y41693
X48725Y14106
X48745Y16153
X48976Y34370
X49016Y43287
X49434Y35582
X49646Y33120
X49646Y31545
X49646Y29970
X49646Y28396
X49646Y26821
X49646Y25246
X49646Y23671
X49646Y22096
X49646Y20522
X49646Y18947
X49646Y17372
X49783Y13327
X49961Y35354
X50300Y36370
X50305Y37293
X50315Y34803
X50354Y35354
X50497Y38732
X50576Y40070
X50807Y17510
X50827Y39419
X50866Y25256
X50930Y15425
X50930Y14165
X50945Y31417
X51102Y28346
X51220Y1624
X51461Y21783
X51560Y19047
X51599Y23515
X51732Y36496
X51816Y15700
X51929Y33583
X52643Y10385
X52662Y11606
X52662Y11114
X52717Y20669
X52721Y18378
X52741Y15897
X52761Y13594
X52780Y14480
X52800Y19834
X52918Y21271
X53154Y23771
X53174Y22964
X53189Y29370
X53194Y22137
X53272Y3279
X53568Y8102
X54055Y24370
X54173Y26378
X54370Y1624
X54680Y13186
X54882Y36220
X55339Y23141
X55633Y21965
X55674Y4244
X55733Y8476
X55768Y1496
X55812Y22433
X56220Y34331
X56345Y21379
X56351Y13461
X56457Y26890
X56538Y20391
X56580Y9500
X56649Y13855
X56654Y22756
X56835Y13279
X56835Y11350
X56954Y21507
X56954Y20391
X57047Y23701
X57050Y13816
X57126Y35394
X57244Y29882
X57643Y6133
X58031Y3878
X58071Y21693
X58509Y7944
X60103Y19893
X60143Y18378
X60162Y17000
X60280Y14322
X61024Y22323
X61225Y11921
T3
X7360Y10789
X7754Y10789
X8148Y10789
X8541Y10789
X8974Y25848
X9368Y25848
X10766Y25848
X11159Y25848
X28479Y19298
X28479Y22605
X28814Y19298
X29030Y22605
X29148Y19298
X29244Y22162
X29454Y22605
X29483Y19298
X29724Y18728
X30005Y22605
T4
X53843Y12433
X53843Y11606
X53843Y10779
X54394Y23378
X54394Y22551
X54394Y21724
X55467Y21021
X55467Y20706
X55467Y13540
X55467Y13225
X57930Y20784
X57930Y20430
X57938Y13816
X57938Y13461
T5
X32067Y40276
X32382Y40965
X32697Y40276
X33012Y40965
X33327Y40276
T6
X3425Y12531
X3425Y11031
X4331Y12551
X4331Y11051
X5236Y12551
X5236Y11051
X6142Y12551
X6142Y11051
X16457Y11776
X16457Y10276
X18238Y11801
X18238Y10301
X19035Y11793
X19035Y10293
X20315Y11793
X20315Y10293
X21496Y11852
X21496Y10352
X48848Y12470
X48848Y10541
X49990Y12470
X49990Y10541
T7
X1024Y38031
X1024Y33750
X1024Y28406
X1024Y24094
X1024Y20197
X1024Y16053
X1024Y12106
X1024Y8406
X1083Y5719
X6280Y45266
X10561Y45266
X14744Y45266
X19242Y45266
X23888Y45266
X27933Y45266
X32215Y45276
X36398Y45276
X40896Y45276
X45039Y45256
X49587Y45276
X53730Y45256
X58278Y45276
X63346Y38612
X63346Y34331
X63346Y28986
X63346Y24675
X63346Y20778
X63346Y16634
X63346Y12687
X63346Y8986
X63346Y5846
T8
X5197Y26083
X5197Y25083
X5197Y24083
X5197Y23083
X5197Y22083
X5197Y21083
X14026Y12854
X15020Y12854
X16014Y12854
X17008Y12854
X17500Y16358
X18081Y12854
X18839Y16348
X19154Y12854
X19951Y16348
X20217Y12854
X21063Y16348
X21850Y39173
X22047Y12835
X22510Y11142
X22850Y39173
X23850Y39173
X24850Y39173
X25108Y10089
X26181Y10089
X26449Y39173
X27205Y11949
X27283Y10089
X27449Y39173
X28248Y11949
X28449Y39173
X28563Y10069
X29291Y11949
X29449Y39173
X29646Y10079
X30335Y11949
X31053Y10069
X31378Y11949
X32116Y10069
X32431Y11949
X33159Y10069
X33484Y11939
X34163Y10069
X35236Y10069
X35630Y15866
X36319Y10069
X40512Y15876
X41634Y15876
X55047Y41181
X55047Y40181
X55047Y39181
X55047Y38181
X55047Y37181
X56047Y41181
X56047Y40181
X56047Y39181
X56047Y38181
X56047Y37181
X57047Y41181
X57047Y40181
X57047Y39181
X57047Y38181
X57047Y37181
X59000Y38000
X59000Y37000
X59000Y36000
X59000Y35000
X59000Y34000
X59000Y32760
X59000Y31760
X59000Y30760
X59000Y29760
X59000Y28760
X59000Y27480
X59000Y26480
X59000Y25480
X59000Y24480
X59000Y23480
X60000Y38000
X60000Y37000
X60000Y36000
X60000Y35000
X60000Y34000
X60000Y32760
X60000Y31760
X60000Y30760
X60000Y29760
X60000Y28760
X60000Y27480
X60000Y26480
X60000Y25480
X60000Y24480
X60000Y23480
X61000Y38000
X61000Y37000
X61000Y36000
X61000Y35000
X61000Y34000
X61000Y32760
X61000Y31760
X61000Y30760
X61000Y29760
X61000Y28760
X61000Y27480
X61000Y26480
X61000Y25480
X61000Y24480
X61000Y23480
T9
X15531Y7331
X15531Y6331
X15531Y3950
X15531Y2950
X16531Y7331
X16531Y6331
X16531Y3950
X16531Y2950
X17531Y7331
X17531Y6331
X17531Y3950
X17531Y2950
X18531Y7331
X18531Y6331
X18531Y3950
X18531Y2950
X19531Y7331
X19531Y6331
X19531Y3950
X19531Y2950
X20531Y7331
X20531Y6331
X20531Y3950
X20531Y2950
X21531Y7331
X21531Y6331
X21531Y3950
X21531Y2950
X22531Y7331
X22531Y6331
X22531Y3950
X22531Y2950
X23531Y7331
X23531Y6331
X23531Y3950
X23531Y2950
X24531Y7331
X24531Y6331
X24531Y3950
X24531Y2950
X25531Y7331
X25531Y6331
X25531Y3950
X25531Y2950
X26531Y7331
X26531Y6331
X26531Y3950
X26531Y2950
X27531Y7331
X27531Y6331
X27531Y3950
X27531Y2950
X28531Y7331
X28531Y6331
X28531Y3950
X28531Y2950
X29531Y7331
X29531Y6331
X29531Y3950
X29531Y2950
X30531Y7331
X30531Y6331
X30531Y3950
X30531Y2950
X31531Y7331
X31531Y6331
X31531Y3950
X31531Y2950
X32531Y7331
X32531Y6331
X32531Y3950
X32531Y2950
X33531Y7331
X33531Y6331
X33531Y3950
X33531Y2950
X39818Y7331
X39818Y6331
X39818Y3950
X39818Y2950
X40818Y7331
X40818Y6331
X40818Y3950
X40818Y2950
X41818Y7331
X41818Y6331
X41818Y3950
X41818Y2950
X42818Y7331
X42818Y6331
X42818Y3950
X42818Y2950
X43818Y7331
X43818Y6331
X43818Y3950
X43818Y2950
X44818Y7331
X44818Y6331
X44818Y3950
X44818Y2950
X45818Y7331
X45818Y6331
X45818Y3950
X45818Y2950
X46818Y7331
X46818Y6331
X46818Y3950
X46818Y2950
T10
X35709Y41142
X37165Y40276
X37913Y41142
X39370Y40276
X40354Y41142
T11
X8306Y5233
X10137Y7331
X10137Y4131
X11279Y5048
X12420Y7331
X12420Y4131
X49901Y7331
X49901Y4131
X51043Y5048
X52184Y7331
X52184Y4131
X53365Y5048
X54507Y7331
X54507Y4131
X56259Y5233
T12
X7342Y2162
X36672Y2162
X57224Y2162
T5
X31260Y40876G85X31260Y40364
G05
X34134Y40876G85X34134Y40364
G05
T0
M30
