M48
; DRILL file {KiCad (5.99.0-9206-g896188ca5e)} date 02/20/21 22:34:12
; FORMAT={2:4/ absolute / inch / suppress leading zeros}
; #@! TF.CreationDate,2021-02-20T22:34:12+02:00
; #@! TF.GenerationSoftware,Kicad,Pcbnew,(5.99.0-9206-g896188ca5e)
FMAT,2
INCH,TZ
T1C0.0118
T2C0.0118
T3C0.0276
T4C0.0320
T5C0.0394
T6C0.0433
T7C0.0866
T8C0.1457
%
G90
G05
T1
X11188Y37840
X12714Y36590
X12792Y37722
X12798Y36246
X12798Y36974
X12828Y35911
X13005Y35271
X13521Y36807
X13521Y35783
X13521Y35015
X18253Y39038
X18597Y38831
X18686Y40731
X18716Y39333
X29895Y19582
X32041Y22278
X32048Y20218
X32789Y20024
X34690Y38799
X35236Y37303
X35279Y22800
X39518Y38799
X45108Y38799
X49400Y38799
T2
X7480Y32411
X7707Y21663
X7894Y31555
X8130Y30876
X8337Y32028
X8593Y31270
X8986Y31309
X9291Y31791
X9419Y23632
X9439Y32402
X9528Y30551
X10295Y30443
X10394Y37431
X10423Y32461
X10620Y8504
X11014Y17884
X11093Y20207
X11329Y32028
X11516Y41732
X12057Y8612
X12510Y16388
X12539Y17313
X12972Y23996
X13297Y32087
X13612Y384
X13967Y32726
X13986Y4311
X14045Y9675
X14144Y17333
X14173Y5837
X14183Y16407
X14222Y11398
X14616Y21594
X14833Y38799
X14921Y22490
X14980Y5758
X15059Y22943
X15157Y38100
X15177Y34902
X15472Y10030
X15472Y9144
X15519Y38019
X15630Y17313
X16014Y12205
X16594Y1289
X17106Y15453
X17539Y7982
X17943Y5837
X17992Y15000
X18002Y15817
X18435Y15413
X19547Y38081
X19626Y15236
X20325Y38140
X20384Y38858
X20581Y9734
X20610Y14941
X20728Y4902
X21063Y5906
X21280Y7953
X21535Y38091
X21988Y1811
X21998Y2480
X22077Y16496
X22116Y14626
X22461Y16486
X22628Y7923
X23278Y16752
X23455Y14665
X23484Y41762
X23593Y7933
X23868Y8219
X24055Y3415
X24203Y16014
X24931Y3386
X25150Y16971
X25571Y13287
X25630Y38730
X25689Y1841
X25787Y38081
X26014Y16722
X26053Y3711
X26078Y39592
X26211Y16161
X26486Y5610
X26575Y38209
X27736Y16565
X27854Y20197
X28022Y5049
X28041Y38740
X28110Y19793
X28209Y16939
X28632Y17490
X28917Y38839
X29198Y18735
X29227Y17741
X29257Y18214
X29262Y20236
X29331Y19724
X29341Y11634
X29439Y13278
X29852Y17234
X29862Y18711
X29931Y38878
X30000Y14065
X30728Y17087
X30778Y15167
X30876Y3533
X31043Y38829
X31073Y7884
X31280Y16781
X31604Y15974
X31673Y14843
X31880Y19134
X31939Y15866
X32057Y17096
X32244Y15640
X32421Y7943
X32520Y14843
X32677Y15128
X32904Y38750
X32982Y15404
X33248Y14931
X33307Y38022
X33922Y28148
X33986Y33091
X34075Y23612
X34094Y33898
X34114Y32244
X34114Y29724
X34124Y35404
X34173Y25955
X34272Y28150
X34321Y33130
X34331Y30531
X34331Y30197
X34498Y36112
X34547Y24006
X34892Y24272
X34892Y23967
X34892Y23238
X35010Y1329
X35059Y16142
X35059Y15886
X35305Y43435
X35335Y35837
X35364Y41673
X35709Y16644
X35709Y16407
X35728Y29380
X35787Y32569
X36083Y29990
X36112Y29242
X36398Y24272
X36722Y14252
X36929Y8150
X37028Y3396
X37096Y9075
X37175Y33750
X37185Y25177
X37195Y23740
X37520Y14301
X37699Y14113
X37746Y7362
X37854Y13484
X37933Y15177
X37933Y14941
X37982Y14094
X38376Y14144
X38396Y15482
X38396Y15226
X38455Y10443
X38514Y6161
X38612Y14144
X38937Y16161
X38937Y15915
X39321Y5758
X39675Y12579
X39801Y11321
X39951Y12579
X40148Y4823
X40177Y11348
X40187Y12589
X40463Y7785
X40719Y9154
X40925Y11447
X42293Y17165
X42461Y17018
X42628Y16850
X43947Y4990
X44281Y13287
X44774Y15502
X45630Y15551
X45630Y1329
X45738Y5394
X46132Y14350
X46171Y13386
X46329Y15561
X46348Y13209
X46526Y13031
X46969Y13366
X47037Y14370
X47037Y453
X48105Y14961
X48238Y9203
X48391Y14961
X48573Y41693
X48656Y14961
X49016Y43287
X49301Y34419
X49783Y13327
X49843Y35472
X50305Y37293
X50325Y38543
X50807Y17510
X50866Y25256
X50935Y34390
X51043Y3002
X51634Y8120
X51870Y13337
X52736Y39705
X52963Y18258
X53002Y34390
X53031Y25256
X55108Y13327
X55768Y1496
X56289Y6043
X58031Y3878
X58110Y12874
T3
X32067Y40276
X32382Y40965
X32697Y40276
X33012Y40965
X33327Y40276
T4
X16457Y11776
X16457Y10276
X18238Y11801
X18238Y10301
X19035Y11793
X19035Y10293
X20315Y11793
X20315Y10293
X21496Y11852
X21496Y10352
X48848Y12470
X48848Y10541
X49990Y12470
X49990Y10541
T5
X1024Y38031
X1024Y33750
X1024Y28406
X1024Y24094
X1024Y20197
X1024Y16053
X1024Y12106
X1024Y8406
X1083Y5719
X6280Y45266
X10561Y45266
X14026Y12854
X14744Y45266
X15020Y12854
X16014Y12854
X17008Y12854
X17500Y16358
X18081Y12854
X18839Y16348
X19154Y12854
X19242Y45266
X19951Y16348
X20217Y12854
X21063Y16348
X22047Y12835
X22510Y11142
X23888Y45266
X25079Y12746
X25138Y11033
X26122Y12746
X26211Y11033
X27205Y12746
X27313Y11033
X27933Y45266
X28248Y12746
X28593Y11014
X29291Y12746
X29675Y11024
X30335Y12746
X31083Y11014
X31378Y12746
X32146Y11014
X32215Y45276
X32431Y12746
X33189Y11014
X33484Y12736
X34193Y11014
X34528Y12736
X35266Y11014
X35630Y15866
X36348Y11014
X36398Y45276
X37431Y11014
X40512Y15876
X40896Y45276
X41634Y15876
X45039Y45256
X49587Y45276
X53730Y45256
X58278Y45276
X63346Y38612
X63346Y34331
X63346Y28986
X63346Y24675
X63346Y20778
X63346Y16634
X63346Y12687
X63346Y8986
X63346Y5846
T6
X15531Y7331
X15531Y6331
X15531Y3950
X15531Y2950
X16531Y7331
X16531Y6331
X16531Y3950
X16531Y2950
X17531Y7331
X17531Y6331
X17531Y3950
X17531Y2950
X18531Y7331
X18531Y6331
X18531Y3950
X18531Y2950
X19531Y7331
X19531Y6331
X19531Y3950
X19531Y2950
X20531Y7331
X20531Y6331
X20531Y3950
X20531Y2950
X21531Y7331
X21531Y6331
X21531Y3950
X21531Y2950
X22531Y7331
X22531Y6331
X22531Y3950
X22531Y2950
X23531Y7331
X23531Y6331
X23531Y3950
X23531Y2950
X24531Y7331
X24531Y6331
X24531Y3950
X24531Y2950
X25531Y7331
X25531Y6331
X25531Y3950
X25531Y2950
X26531Y7331
X26531Y6331
X26531Y3950
X26531Y2950
X27531Y7331
X27531Y6331
X27531Y3950
X27531Y2950
X28531Y7331
X28531Y6331
X28531Y3950
X28531Y2950
X29531Y7331
X29531Y6331
X29531Y3950
X29531Y2950
X30531Y7331
X30531Y6331
X30531Y3950
X30531Y2950
X31531Y7331
X31531Y6331
X31531Y3950
X31531Y2950
X32531Y7331
X32531Y6331
X32531Y3950
X32531Y2950
X33531Y7331
X33531Y6331
X33531Y3950
X33531Y2950
X39818Y7331
X39818Y6331
X39818Y3950
X39818Y2950
X40818Y7331
X40818Y6331
X40818Y3950
X40818Y2950
X41818Y7331
X41818Y6331
X41818Y3950
X41818Y2950
X42818Y7331
X42818Y6331
X42818Y3950
X42818Y2950
X43818Y7331
X43818Y6331
X43818Y3950
X43818Y2950
X44818Y7331
X44818Y6331
X44818Y3950
X44818Y2950
X45818Y7331
X45818Y6331
X45818Y3950
X45818Y2950
X46818Y7331
X46818Y6331
X46818Y3950
X46818Y2950
T7
X8306Y5233
X10137Y7331
X10137Y4131
X11279Y5048
X12420Y7331
X12420Y4131
X49901Y7331
X49901Y4131
X51043Y5048
X52184Y7331
X52184Y4131
X53365Y5048
X54507Y7331
X54507Y4131
X56259Y5233
T8
X7342Y2162
X36672Y2162
X57224Y2162
T3
X31260Y40876G85X31260Y40364
G05
X34134Y40876G85X34134Y40364
G05
T0
M30
