G75*
G70*
%OFA0B0*%
%FSLAX25Y25*%
%IPPOS*%
%LPD*%
%AMOC8*
5,1,8,0,0,1.08239X$1,22.5*
%
%AMM1*
21,1,0.070870,0.036220,0.000000,0.000000,180.000000*
21,1,0.061810,0.045280,0.000000,0.000000,180.000000*
1,1,0.009060,-0.030910,0.018110*
1,1,0.009060,0.030910,0.018110*
1,1,0.009060,0.030910,-0.018110*
1,1,0.009060,-0.030910,-0.018110*
%
%AMM10*
21,1,0.017720,0.027950,0.000000,0.000000,90.000000*
21,1,0.014170,0.031500,0.000000,0.000000,90.000000*
1,1,0.003540,0.013980,0.007090*
1,1,0.003540,0.013980,-0.007090*
1,1,0.003540,-0.013980,-0.007090*
1,1,0.003540,-0.013980,0.007090*
%
%AMM11*
21,1,0.039370,0.049210,0.000000,0.000000,0.000000*
21,1,0.031500,0.057090,0.000000,0.000000,0.000000*
1,1,0.007870,0.015750,-0.024610*
1,1,0.007870,-0.015750,-0.024610*
1,1,0.007870,-0.015750,0.024610*
1,1,0.007870,0.015750,0.024610*
%
%AMM112*
21,1,0.070870,0.036220,0.000000,0.000000,90.000000*
21,1,0.061810,0.045280,0.000000,0.000000,90.000000*
1,1,0.009060,0.018110,0.030910*
1,1,0.009060,0.018110,-0.030910*
1,1,0.009060,-0.018110,-0.030910*
1,1,0.009060,-0.018110,0.030910*
%
%AMM113*
21,1,0.086610,0.073230,0.000000,0.000000,90.000000*
21,1,0.069290,0.090550,0.000000,0.000000,90.000000*
1,1,0.017320,0.036610,0.034650*
1,1,0.017320,0.036610,-0.034650*
1,1,0.017320,-0.036610,-0.034650*
1,1,0.017320,-0.036610,0.034650*
%
%AMM114*
21,1,0.021650,0.038980,0.000000,0.000000,0.000000*
21,1,0.017320,0.043310,0.000000,0.000000,0.000000*
1,1,0.004330,0.008660,-0.019490*
1,1,0.004330,-0.008660,-0.019490*
1,1,0.004330,-0.008660,0.019490*
1,1,0.004330,0.008660,0.019490*
%
%AMM115*
21,1,0.092520,0.119290,0.000000,0.000000,180.000000*
21,1,0.074020,0.137800,0.000000,0.000000,180.000000*
1,1,0.018500,-0.037010,0.059650*
1,1,0.018500,0.037010,0.059650*
1,1,0.018500,0.037010,-0.059650*
1,1,0.018500,-0.037010,-0.059650*
%
%AMM12*
21,1,0.033470,0.026770,0.000000,0.000000,180.000000*
21,1,0.026770,0.033470,0.000000,0.000000,180.000000*
1,1,0.006690,-0.013390,0.013390*
1,1,0.006690,0.013390,0.013390*
1,1,0.006690,0.013390,-0.013390*
1,1,0.006690,-0.013390,-0.013390*
%
%AMM13*
21,1,0.039370,0.049210,0.000000,0.000000,90.000000*
21,1,0.031500,0.057090,0.000000,0.000000,90.000000*
1,1,0.007870,0.024610,0.015750*
1,1,0.007870,0.024610,-0.015750*
1,1,0.007870,-0.024610,-0.015750*
1,1,0.007870,-0.024610,0.015750*
%
%AMM14*
21,1,0.035830,0.026770,0.000000,0.000000,90.000000*
21,1,0.029130,0.033470,0.000000,0.000000,90.000000*
1,1,0.006690,0.013390,0.014570*
1,1,0.006690,0.013390,-0.014570*
1,1,0.006690,-0.013390,-0.014570*
1,1,0.006690,-0.013390,0.014570*
%
%AMM15*
21,1,0.027560,0.030710,0.000000,0.000000,180.000000*
21,1,0.022050,0.036220,0.000000,0.000000,180.000000*
1,1,0.005510,-0.011020,0.015350*
1,1,0.005510,0.011020,0.015350*
1,1,0.005510,0.011020,-0.015350*
1,1,0.005510,-0.011020,-0.015350*
%
%AMM2*
21,1,0.070870,0.036220,0.000000,0.000000,270.000000*
21,1,0.061810,0.045280,0.000000,0.000000,270.000000*
1,1,0.009060,-0.018110,-0.030910*
1,1,0.009060,-0.018110,0.030910*
1,1,0.009060,0.018110,0.030910*
1,1,0.009060,0.018110,-0.030910*
%
%AMM3*
21,1,0.035430,0.030320,0.000000,0.000000,90.000000*
21,1,0.028350,0.037400,0.000000,0.000000,90.000000*
1,1,0.007090,0.015160,0.014170*
1,1,0.007090,0.015160,-0.014170*
1,1,0.007090,-0.015160,-0.014170*
1,1,0.007090,-0.015160,0.014170*
%
%AMM35*
21,1,0.094490,0.111020,0.000000,0.000000,180.000000*
21,1,0.075590,0.129920,0.000000,0.000000,180.000000*
1,1,0.018900,-0.037800,0.055510*
1,1,0.018900,0.037800,0.055510*
1,1,0.018900,0.037800,-0.055510*
1,1,0.018900,-0.037800,-0.055510*
%
%AMM36*
21,1,0.023620,0.018900,0.000000,0.000000,270.000000*
21,1,0.018900,0.023620,0.000000,0.000000,270.000000*
1,1,0.004720,-0.009450,-0.009450*
1,1,0.004720,-0.009450,0.009450*
1,1,0.004720,0.009450,0.009450*
1,1,0.004720,0.009450,-0.009450*
%
%AMM37*
21,1,0.035830,0.026770,0.000000,0.000000,0.000000*
21,1,0.029130,0.033470,0.000000,0.000000,0.000000*
1,1,0.006690,0.014570,-0.013390*
1,1,0.006690,-0.014570,-0.013390*
1,1,0.006690,-0.014570,0.013390*
1,1,0.006690,0.014570,0.013390*
%
%AMM38*
21,1,0.023620,0.018900,0.000000,0.000000,180.000000*
21,1,0.018900,0.023620,0.000000,0.000000,180.000000*
1,1,0.004720,-0.009450,0.009450*
1,1,0.004720,0.009450,0.009450*
1,1,0.004720,0.009450,-0.009450*
1,1,0.004720,-0.009450,-0.009450*
%
%AMM39*
21,1,0.027560,0.030710,0.000000,0.000000,0.000000*
21,1,0.022050,0.036220,0.000000,0.000000,0.000000*
1,1,0.005510,0.011020,-0.015350*
1,1,0.005510,-0.011020,-0.015350*
1,1,0.005510,-0.011020,0.015350*
1,1,0.005510,0.011020,0.015350*
%
%AMM4*
21,1,0.027560,0.030710,0.000000,0.000000,90.000000*
21,1,0.022050,0.036220,0.000000,0.000000,90.000000*
1,1,0.005510,0.015350,0.011020*
1,1,0.005510,0.015350,-0.011020*
1,1,0.005510,-0.015350,-0.011020*
1,1,0.005510,-0.015350,0.011020*
%
%AMM40*
21,1,0.035430,0.030320,0.000000,0.000000,270.000000*
21,1,0.028350,0.037400,0.000000,0.000000,270.000000*
1,1,0.007090,-0.015160,-0.014170*
1,1,0.007090,-0.015160,0.014170*
1,1,0.007090,0.015160,0.014170*
1,1,0.007090,0.015160,-0.014170*
%
%AMM41*
21,1,0.035430,0.030320,0.000000,0.000000,0.000000*
21,1,0.028350,0.037400,0.000000,0.000000,0.000000*
1,1,0.007090,0.014170,-0.015160*
1,1,0.007090,-0.014170,-0.015160*
1,1,0.007090,-0.014170,0.015160*
1,1,0.007090,0.014170,0.015160*
%
%AMM42*
21,1,0.078740,0.070870,0.000000,0.000000,270.000000*
21,1,0.062990,0.086610,0.000000,0.000000,270.000000*
1,1,0.015750,-0.035430,-0.031500*
1,1,0.015750,-0.035430,0.031500*
1,1,0.015750,0.035430,0.031500*
1,1,0.015750,0.035430,-0.031500*
%
%AMM43*
21,1,0.051180,0.068500,0.000000,0.000000,180.000000*
21,1,0.040950,0.078740,0.000000,0.000000,180.000000*
1,1,0.010240,-0.020470,0.034250*
1,1,0.010240,0.020470,0.034250*
1,1,0.010240,0.020470,-0.034250*
1,1,0.010240,-0.020470,-0.034250*
%
%AMM44*
21,1,0.033470,0.026770,0.000000,0.000000,90.000000*
21,1,0.026770,0.033470,0.000000,0.000000,90.000000*
1,1,0.006690,0.013390,0.013390*
1,1,0.006690,0.013390,-0.013390*
1,1,0.006690,-0.013390,-0.013390*
1,1,0.006690,-0.013390,0.013390*
%
%AMM5*
21,1,0.043310,0.075980,0.000000,0.000000,180.000000*
21,1,0.034650,0.084650,0.000000,0.000000,180.000000*
1,1,0.008660,-0.017320,0.037990*
1,1,0.008660,0.017320,0.037990*
1,1,0.008660,0.017320,-0.037990*
1,1,0.008660,-0.017320,-0.037990*
%
%AMM56*
21,1,0.033470,0.026770,0.000000,0.000000,0.000000*
21,1,0.026770,0.033470,0.000000,0.000000,0.000000*
1,1,0.006690,0.013390,-0.013390*
1,1,0.006690,-0.013390,-0.013390*
1,1,0.006690,-0.013390,0.013390*
1,1,0.006690,0.013390,0.013390*
%
%AMM57*
21,1,0.027560,0.030710,0.000000,0.000000,270.000000*
21,1,0.022050,0.036220,0.000000,0.000000,270.000000*
1,1,0.005510,-0.015350,-0.011020*
1,1,0.005510,-0.015350,0.011020*
1,1,0.005510,0.015350,0.011020*
1,1,0.005510,0.015350,-0.011020*
%
%AMM6*
21,1,0.043310,0.075990,0.000000,0.000000,180.000000*
21,1,0.034650,0.084650,0.000000,0.000000,180.000000*
1,1,0.008660,-0.017320,0.037990*
1,1,0.008660,0.017320,0.037990*
1,1,0.008660,0.017320,-0.037990*
1,1,0.008660,-0.017320,-0.037990*
%
%AMM61*
21,1,0.033470,0.026770,0.000000,0.000000,270.000000*
21,1,0.026770,0.033470,0.000000,0.000000,270.000000*
1,1,0.006690,-0.013390,-0.013390*
1,1,0.006690,-0.013390,0.013390*
1,1,0.006690,0.013390,0.013390*
1,1,0.006690,0.013390,-0.013390*
%
%AMM62*
21,1,0.021650,0.052760,0.000000,0.000000,270.000000*
21,1,0.017320,0.057090,0.000000,0.000000,270.000000*
1,1,0.004330,-0.026380,-0.008660*
1,1,0.004330,-0.026380,0.008660*
1,1,0.004330,0.026380,0.008660*
1,1,0.004330,0.026380,-0.008660*
%
%AMM65*
21,1,0.035430,0.050000,0.000000,0.000000,270.000000*
21,1,0.028350,0.057090,0.000000,0.000000,270.000000*
1,1,0.007090,-0.025000,-0.014170*
1,1,0.007090,-0.025000,0.014170*
1,1,0.007090,0.025000,0.014170*
1,1,0.007090,0.025000,-0.014170*
%
%AMM66*
21,1,0.086610,0.073230,0.000000,0.000000,270.000000*
21,1,0.069290,0.090550,0.000000,0.000000,270.000000*
1,1,0.017320,-0.036610,-0.034650*
1,1,0.017320,-0.036610,0.034650*
1,1,0.017320,0.036610,0.034650*
1,1,0.017320,0.036610,-0.034650*
%
%AMM67*
21,1,0.039370,0.049210,0.000000,0.000000,180.000000*
21,1,0.031500,0.057090,0.000000,0.000000,180.000000*
1,1,0.007870,-0.015750,0.024610*
1,1,0.007870,0.015750,0.024610*
1,1,0.007870,0.015750,-0.024610*
1,1,0.007870,-0.015750,-0.024610*
%
%AMM68*
21,1,0.023620,0.030710,0.000000,0.000000,90.000000*
21,1,0.018900,0.035430,0.000000,0.000000,90.000000*
1,1,0.004720,0.015350,0.009450*
1,1,0.004720,0.015350,-0.009450*
1,1,0.004720,-0.015350,-0.009450*
1,1,0.004720,-0.015350,0.009450*
%
%AMM69*
21,1,0.025590,0.026380,0.000000,0.000000,0.000000*
21,1,0.020470,0.031500,0.000000,0.000000,0.000000*
1,1,0.005120,0.010240,-0.013190*
1,1,0.005120,-0.010240,-0.013190*
1,1,0.005120,-0.010240,0.013190*
1,1,0.005120,0.010240,0.013190*
%
%AMM7*
21,1,0.137800,0.067720,0.000000,0.000000,180.000000*
21,1,0.120870,0.084650,0.000000,0.000000,180.000000*
1,1,0.016930,-0.060430,0.033860*
1,1,0.016930,0.060430,0.033860*
1,1,0.016930,0.060430,-0.033860*
1,1,0.016930,-0.060430,-0.033860*
%
%AMM70*
21,1,0.017720,0.027950,0.000000,0.000000,0.000000*
21,1,0.014170,0.031500,0.000000,0.000000,0.000000*
1,1,0.003540,0.007090,-0.013980*
1,1,0.003540,-0.007090,-0.013980*
1,1,0.003540,-0.007090,0.013980*
1,1,0.003540,0.007090,0.013980*
%
%AMM8*
21,1,0.035430,0.030320,0.000000,0.000000,180.000000*
21,1,0.028350,0.037400,0.000000,0.000000,180.000000*
1,1,0.007090,-0.014170,0.015160*
1,1,0.007090,0.014170,0.015160*
1,1,0.007090,0.014170,-0.015160*
1,1,0.007090,-0.014170,-0.015160*
%
%AMM84*
21,1,0.043310,0.075980,0.000000,0.000000,0.000000*
21,1,0.034650,0.084650,0.000000,0.000000,0.000000*
1,1,0.008660,0.017320,-0.037990*
1,1,0.008660,-0.017320,-0.037990*
1,1,0.008660,-0.017320,0.037990*
1,1,0.008660,0.017320,0.037990*
%
%AMM85*
21,1,0.043310,0.075990,0.000000,0.000000,0.000000*
21,1,0.034650,0.084650,0.000000,0.000000,0.000000*
1,1,0.008660,0.017320,-0.037990*
1,1,0.008660,-0.017320,-0.037990*
1,1,0.008660,-0.017320,0.037990*
1,1,0.008660,0.017320,0.037990*
%
%AMM86*
21,1,0.137800,0.067720,0.000000,0.000000,0.000000*
21,1,0.120870,0.084650,0.000000,0.000000,0.000000*
1,1,0.016930,0.060430,-0.033860*
1,1,0.016930,-0.060430,-0.033860*
1,1,0.016930,-0.060430,0.033860*
1,1,0.016930,0.060430,0.033860*
%
%AMM87*
21,1,0.039370,0.035430,0.000000,0.000000,270.000000*
21,1,0.031500,0.043310,0.000000,0.000000,270.000000*
1,1,0.007870,-0.017720,-0.015750*
1,1,0.007870,-0.017720,0.015750*
1,1,0.007870,0.017720,0.015750*
1,1,0.007870,0.017720,-0.015750*
%
%AMM88*
21,1,0.023620,0.030710,0.000000,0.000000,180.000000*
21,1,0.018900,0.035430,0.000000,0.000000,180.000000*
1,1,0.004720,-0.009450,0.015350*
1,1,0.004720,0.009450,0.015350*
1,1,0.004720,0.009450,-0.015350*
1,1,0.004720,-0.009450,-0.015350*
%
%AMM89*
21,1,0.035830,0.026770,0.000000,0.000000,270.000000*
21,1,0.029130,0.033470,0.000000,0.000000,270.000000*
1,1,0.006690,-0.013390,-0.014570*
1,1,0.006690,-0.013390,0.014570*
1,1,0.006690,0.013390,0.014570*
1,1,0.006690,0.013390,-0.014570*
%
%AMM9*
21,1,0.025590,0.026380,0.000000,0.000000,90.000000*
21,1,0.020470,0.031500,0.000000,0.000000,90.000000*
1,1,0.005120,0.013190,0.010240*
1,1,0.005120,0.013190,-0.010240*
1,1,0.005120,-0.013190,-0.010240*
1,1,0.005120,-0.013190,0.010240*
%
%AMM90*
21,1,0.027560,0.049610,0.000000,0.000000,270.000000*
21,1,0.022050,0.055120,0.000000,0.000000,270.000000*
1,1,0.005510,-0.024800,-0.011020*
1,1,0.005510,-0.024800,0.011020*
1,1,0.005510,0.024800,0.011020*
1,1,0.005510,0.024800,-0.011020*
%
%AMM91*
21,1,0.035830,0.026770,0.000000,0.000000,180.000000*
21,1,0.029130,0.033470,0.000000,0.000000,180.000000*
1,1,0.006690,-0.014570,0.013390*
1,1,0.006690,0.014570,0.013390*
1,1,0.006690,0.014570,-0.013390*
1,1,0.006690,-0.014570,-0.013390*
%
%ADD100M67*%
%ADD101M40*%
%ADD102M84*%
%ADD103M43*%
%ADD107M70*%
%ADD111C,0.02362*%
%ADD113O,0.02362X0.08661*%
%ADD115M1*%
%ADD118M114*%
%ADD122M14*%
%ADD128M87*%
%ADD131M38*%
%ADD132O,0.00000X0.00000*%
%ADD138M42*%
%ADD139M86*%
%ADD146M90*%
%ADD149R,0.06693X0.09449*%
%ADD152M15*%
%ADD153M9*%
%ADD156M39*%
%ADD157M65*%
%ADD159M3*%
%ADD17M61*%
%ADD174M113*%
%ADD176M7*%
%ADD182M12*%
%ADD185M8*%
%ADD202M85*%
%ADD205M6*%
%ADD206C,0.03150*%
%ADD207O,0.04961X0.00984*%
%ADD21O,0.05118X0.00866*%
%ADD211M13*%
%ADD213M44*%
%ADD221O,0.01968X0.03937*%
%ADD223M62*%
%ADD23M112*%
%ADD233M66*%
%ADD236O,0.08661X0.02362*%
%ADD244O,0.00866X0.05118*%
%ADD246M10*%
%ADD253M57*%
%ADD28M89*%
%ADD30M5*%
%ADD34M35*%
%ADD35M69*%
%ADD37O,0.04331X0.01181*%
%ADD38M11*%
%ADD42M91*%
%ADD47M115*%
%ADD64M4*%
%ADD68M36*%
%ADD70M56*%
%ADD71M68*%
%ADD73M41*%
%ADD80M2*%
%ADD97M88*%
%ADD98M37*%
%ADD99R,0.05906X0.05118*%
X0000000Y0000000D02*
%LPD*%
G01*
D132*
X0181516Y0376232D03*
X0407388Y0161508D03*
X0518800Y0373772D03*
X0425020Y0389323D03*
X0366457Y0375914D03*
X0518800Y0381252D03*
X0373150Y0368033D03*
X0360453Y0163043D03*
X0360118Y0141380D03*
X0323740Y0135779D03*
G36*
G01*
X0325709Y0123968D02*
X0325709Y0123968D01*
X0325709Y0123968D01*
X0325709Y0123968D01*
X0325709Y0123968D01*
G37*
X0405512Y0144390D02*
G01*
G75*
D115*
X0481890Y0148918D02*
D03*
X0481890Y0160335D02*
D03*
D80*
X0476181Y0162303D02*
D03*
X0464764Y0162303D02*
D03*
D159*
X0478662Y0181792D02*
D03*
X0469410Y0185532D02*
D03*
X0476063Y0172441D02*
D03*
X0466811Y0176181D02*
D03*
D159*
X0478662Y0189272D02*
D03*
X0466811Y0168701D02*
D03*
D64*
X0480709Y0170768D02*
D03*
X0480709Y0177067D02*
D03*
X0512303Y0274863D02*
D03*
X0512303Y0281162D02*
D03*
X0514370Y0291989D02*
D03*
X0514370Y0285689D02*
D03*
X0462992Y0270729D02*
D03*
X0462992Y0264429D02*
D03*
X0512303Y0271122D02*
D03*
X0512303Y0264823D02*
D03*
D30*
X0484252Y0255177D02*
D03*
X0466142Y0255177D02*
D03*
X0484252Y0196910D02*
D03*
X0466142Y0196910D02*
D03*
X0493504Y0196910D02*
D03*
X0511614Y0196910D02*
D03*
X0493504Y0255177D02*
D03*
X0511614Y0255177D02*
D03*
X0456890Y0255177D02*
D03*
X0438780Y0255177D02*
D03*
X0411418Y0255177D02*
D03*
X0429528Y0255177D02*
D03*
X0438386Y0196910D02*
D03*
X0456496Y0196910D02*
D03*
X0428740Y0196910D02*
D03*
X0410630Y0196910D02*
D03*
D205*
X0475197Y0255177D02*
D03*
X0475197Y0196910D02*
D03*
X0502559Y0196910D02*
D03*
X0502559Y0255177D02*
D03*
X0447835Y0255177D02*
D03*
X0420473Y0255177D02*
D03*
X0447441Y0196910D02*
D03*
X0419685Y0196910D02*
D03*
D176*
X0475197Y0230768D02*
D03*
X0475197Y0221319D02*
D03*
X0502559Y0221319D02*
D03*
X0502559Y0230768D02*
D03*
X0447835Y0230768D02*
D03*
X0420473Y0230768D02*
D03*
X0447441Y0221319D02*
D03*
X0419685Y0221319D02*
D03*
D185*
X0433169Y0157067D02*
D03*
X0429429Y0147815D02*
D03*
X0415453Y0147815D02*
D03*
X0419193Y0157067D02*
D03*
X0443012Y0147815D02*
D03*
X0446752Y0157067D02*
D03*
X0455512Y0180552D02*
D03*
X0459252Y0189804D02*
D03*
X0422540Y0175768D02*
D03*
X0426280Y0185020D02*
D03*
D185*
X0425689Y0157067D02*
D03*
X0411713Y0157067D02*
D03*
X0439272Y0157067D02*
D03*
X0462992Y0180552D02*
D03*
X0418799Y0185020D02*
D03*
D153*
X0437106Y0221319D02*
D03*
X0430020Y0221319D02*
D03*
X0430020Y0231359D02*
D03*
X0437106Y0231359D02*
D03*
X0416142Y0267973D02*
D03*
X0409055Y0267973D02*
D03*
X0409055Y0278012D02*
D03*
X0416142Y0278012D02*
D03*
X0492815Y0230965D02*
D03*
X0485728Y0230965D02*
D03*
X0485728Y0220925D02*
D03*
X0492815Y0220925D02*
D03*
D246*
X0437106Y0224764D02*
D03*
X0437106Y0227914D02*
D03*
X0430020Y0227914D02*
D03*
X0430020Y0224764D02*
D03*
X0416142Y0271418D02*
D03*
X0416142Y0274567D02*
D03*
X0409055Y0274567D02*
D03*
X0409055Y0271418D02*
D03*
X0485728Y0224370D02*
D03*
X0485728Y0227520D02*
D03*
X0492815Y0227520D02*
D03*
X0492815Y0224370D02*
D03*
D113*
X0410945Y0288051D02*
D03*
X0415945Y0288051D02*
D03*
X0420945Y0288051D02*
D03*
X0425945Y0288051D02*
D03*
X0430945Y0288051D02*
D03*
X0435945Y0288051D02*
D03*
X0440945Y0288051D02*
D03*
X0445945Y0288051D02*
D03*
X0410945Y0306949D02*
D03*
X0415945Y0306949D02*
D03*
X0420945Y0306949D02*
D03*
X0425945Y0306949D02*
D03*
X0430945Y0306949D02*
D03*
X0435945Y0306949D02*
D03*
X0440945Y0306949D02*
D03*
X0445945Y0306949D02*
D03*
X0487382Y0307146D02*
D03*
X0482382Y0307146D02*
D03*
X0477382Y0307146D02*
D03*
X0472382Y0307146D02*
D03*
X0467382Y0307146D02*
D03*
X0462382Y0307146D02*
D03*
X0457382Y0307146D02*
D03*
X0452382Y0307146D02*
D03*
X0487382Y0288248D02*
D03*
X0482382Y0288248D02*
D03*
X0477382Y0288248D02*
D03*
X0472382Y0288248D02*
D03*
X0467382Y0288248D02*
D03*
X0462382Y0288248D02*
D03*
X0457382Y0288248D02*
D03*
X0452382Y0288248D02*
D03*
X0493977Y0288248D02*
D03*
X0498977Y0288248D02*
D03*
X0503977Y0288248D02*
D03*
X0508977Y0288248D02*
D03*
X0493977Y0307146D02*
D03*
X0498977Y0307146D02*
D03*
X0503977Y0307146D02*
D03*
X0508977Y0307146D02*
D03*
D236*
X0492520Y0263524D02*
D03*
X0492520Y0268524D02*
D03*
X0492520Y0273524D02*
D03*
X0492520Y0278524D02*
D03*
X0473622Y0263524D02*
D03*
X0473622Y0268524D02*
D03*
X0473622Y0273524D02*
D03*
X0473622Y0278524D02*
D03*
X0490749Y0163071D02*
D03*
X0490749Y0158071D02*
D03*
X0490749Y0153071D02*
D03*
X0490749Y0148071D02*
D03*
X0509646Y0163071D02*
D03*
X0509646Y0158071D02*
D03*
X0509646Y0153071D02*
D03*
X0509646Y0148071D02*
D03*
X0507875Y0169922D02*
D03*
X0507875Y0174921D02*
D03*
X0507875Y0179921D02*
D03*
X0507875Y0184922D02*
D03*
X0488977Y0169922D02*
D03*
X0488977Y0174921D02*
D03*
X0488977Y0179921D02*
D03*
X0488977Y0184922D02*
D03*
D38*
X0507481Y0263248D02*
D03*
X0500000Y0263248D02*
D03*
X0499902Y0279882D02*
D03*
X0507382Y0279882D02*
D03*
D182*
X0452599Y0280965D02*
D03*
X0458819Y0280965D02*
D03*
X0433032Y0281063D02*
D03*
X0426811Y0281063D02*
D03*
D211*
X0410433Y0169449D02*
D03*
X0410433Y0161969D02*
D03*
X0417323Y0161969D02*
D03*
X0417323Y0169449D02*
D03*
X0424213Y0169449D02*
D03*
X0424213Y0161969D02*
D03*
X0431103Y0161969D02*
D03*
X0431103Y0169449D02*
D03*
X0437992Y0169449D02*
D03*
X0437992Y0161969D02*
D03*
X0444882Y0161969D02*
D03*
X0444882Y0169449D02*
D03*
X0451772Y0169449D02*
D03*
X0451772Y0161969D02*
D03*
X0458662Y0161969D02*
D03*
X0458662Y0169449D02*
D03*
X0471162Y0148484D02*
D03*
X0471162Y0155965D02*
D03*
X0463977Y0155768D02*
D03*
X0463977Y0148288D02*
D03*
D122*
X0448918Y0175748D02*
D03*
X0448918Y0188740D02*
D03*
X0411713Y0188347D02*
D03*
X0411713Y0175355D02*
D03*
X0432874Y0175748D02*
D03*
X0432874Y0188740D02*
D03*
X0441043Y0188740D02*
D03*
X0441043Y0175748D02*
D03*
D152*
X0458465Y0155374D02*
D03*
X0452166Y0155374D02*
D03*
X0452067Y0149764D02*
D03*
X0458366Y0149764D02*
D03*
X0456004Y0175847D02*
D03*
X0462303Y0175847D02*
D03*
X0426870Y0189725D02*
D03*
X0420571Y0189725D02*
D03*
X0500492Y0269351D02*
D03*
X0506791Y0269351D02*
D03*
X0500492Y0274272D02*
D03*
X0506791Y0274272D02*
D03*
X0298524Y0120866D02*
G01*
G75*
D34*
X0356004Y0133957D02*
D03*
X0328642Y0133957D02*
D03*
D68*
X0314469Y0149016D02*
D03*
X0305807Y0149016D02*
D03*
X0306103Y0159055D02*
D03*
X0314764Y0159055D02*
D03*
D98*
X0343603Y0178642D02*
D03*
X0356595Y0178642D02*
D03*
D131*
X0358563Y0162992D02*
D03*
X0358563Y0171653D02*
D03*
X0328445Y0151279D02*
D03*
X0328445Y0159941D02*
D03*
D156*
X0318111Y0149212D02*
D03*
X0324410Y0149212D02*
D03*
X0318209Y0154035D02*
D03*
X0311910Y0154035D02*
D03*
X0339370Y0162008D02*
D03*
X0333071Y0162008D02*
D03*
D101*
X0350965Y0158563D02*
D03*
X0360217Y0154823D02*
D03*
X0336989Y0157283D02*
D03*
X0346241Y0153543D02*
D03*
D101*
X0350965Y0151083D02*
D03*
X0336988Y0149803D02*
D03*
D73*
X0348327Y0172618D02*
D03*
X0344587Y0163366D02*
D03*
D73*
X0352067Y0163366D02*
D03*
D138*
X0305020Y0165157D02*
D03*
X0305020Y0176968D02*
D03*
D103*
X0313681Y0176968D02*
D03*
X0328248Y0176968D02*
D03*
D64*
X0313977Y0163583D02*
D03*
X0313977Y0169882D02*
D03*
D213*
X0302166Y0152362D02*
D03*
X0302166Y0158582D02*
D03*
D122*
X0320965Y0171555D02*
D03*
X0320965Y0158563D02*
D03*
D115*
X0336811Y0178543D02*
D03*
X0336811Y0167126D02*
D03*
X0100295Y0290157D02*
G01*
G75*
D207*
X0127343Y0308858D02*
D03*
X0127343Y0311417D02*
D03*
X0127343Y0313976D02*
D03*
X0127343Y0316535D02*
D03*
X0127343Y0319094D02*
D03*
X0127343Y0321653D02*
D03*
X0127343Y0324212D02*
D03*
X0127343Y0326771D02*
D03*
X0127343Y0329330D02*
D03*
X0127343Y0331889D02*
D03*
X0127343Y0334448D02*
D03*
X0127343Y0337007D02*
D03*
X0104350Y0308858D02*
D03*
X0104350Y0311417D02*
D03*
X0104350Y0313976D02*
D03*
X0104350Y0316535D02*
D03*
X0104350Y0319094D02*
D03*
X0104350Y0321653D02*
D03*
X0104350Y0324212D02*
D03*
X0104350Y0326771D02*
D03*
X0104350Y0329330D02*
D03*
X0104350Y0331889D02*
D03*
X0104350Y0334448D02*
D03*
X0104350Y0337007D02*
D03*
D70*
X0104370Y0340944D02*
D03*
X0110591Y0340944D02*
D03*
X0121122Y0340944D02*
D03*
X0114901Y0340944D02*
D03*
D156*
X0123130Y0303740D02*
D03*
X0129429Y0303740D02*
D03*
X0110138Y0303346D02*
D03*
X0116437Y0303346D02*
D03*
D253*
X0118213Y0292716D02*
D03*
X0118213Y0299015D02*
D03*
X0111890Y0299015D02*
D03*
X0111890Y0292716D02*
D03*
X0107264Y0292716D02*
D03*
X0107264Y0299015D02*
D03*
X0127441Y0298917D02*
D03*
X0127441Y0292618D02*
D03*
X0102638Y0299015D02*
D03*
X0102638Y0292716D02*
D03*
X0122835Y0299015D02*
D03*
X0122835Y0292716D02*
D03*
X0067028Y0127461D02*
G01*
G75*
D17*
X0114371Y0135788D02*
D03*
X0114371Y0129567D02*
D03*
X0119686Y0131437D02*
D03*
X0119686Y0137658D02*
D03*
X0109843Y0129567D02*
D03*
X0109843Y0135788D02*
D03*
X0069981Y0136575D02*
D03*
X0069981Y0130355D02*
D03*
X0100886Y0129863D02*
D03*
X0100886Y0136083D02*
D03*
D223*
X0133662Y0137992D02*
D03*
X0133662Y0130512D02*
D03*
X0125197Y0130512D02*
D03*
X0125197Y0134252D02*
D03*
X0090296Y0138485D02*
D03*
X0090296Y0131004D02*
D03*
X0081831Y0131004D02*
D03*
X0081831Y0134744D02*
D03*
D223*
X0125197Y0137992D02*
D03*
X0081831Y0138485D02*
D03*
D152*
X0117914Y0140552D02*
D03*
X0111615Y0140552D02*
D03*
X0107875Y0141339D02*
D03*
X0101575Y0141339D02*
D03*
D253*
X0105414Y0137205D02*
D03*
X0105414Y0130906D02*
D03*
X0076083Y0137205D02*
D03*
X0076083Y0130906D02*
D03*
X0095965Y0137205D02*
D03*
X0095965Y0130906D02*
D03*
X0154232Y0134843D02*
G01*
G75*
D157*
X0172539Y0151378D02*
D03*
X0172539Y0143898D02*
D03*
D233*
X0162893Y0187501D02*
D03*
X0162893Y0169784D02*
D03*
D64*
X0254527Y0141142D02*
D03*
X0254527Y0147441D02*
D03*
D100*
X0171260Y0138386D02*
D03*
X0163779Y0138386D02*
D03*
D206*
X0167027Y0150197D02*
D03*
X0167027Y0143898D02*
D03*
D71*
X0268996Y0165847D02*
D03*
X0268996Y0169587D02*
D03*
X0268996Y0173327D02*
D03*
X0259547Y0173327D02*
D03*
X0259547Y0169587D02*
D03*
X0259547Y0165847D02*
D03*
X0191830Y0165847D02*
D03*
X0191830Y0169587D02*
D03*
X0191830Y0173327D02*
D03*
X0201279Y0173327D02*
D03*
X0201279Y0169587D02*
D03*
X0201279Y0165847D02*
D03*
X0184350Y0165847D02*
D03*
X0184350Y0169587D02*
D03*
X0184350Y0173327D02*
D03*
X0174901Y0173327D02*
D03*
X0174901Y0169587D02*
D03*
X0174901Y0165847D02*
D03*
X0208760Y0165847D02*
D03*
X0208760Y0169587D02*
D03*
X0208760Y0173327D02*
D03*
X0218208Y0173327D02*
D03*
X0218208Y0169587D02*
D03*
X0218208Y0165847D02*
D03*
X0235137Y0165847D02*
D03*
X0235137Y0169587D02*
D03*
X0235137Y0173327D02*
D03*
X0225689Y0173327D02*
D03*
X0225689Y0169587D02*
D03*
X0225689Y0165847D02*
D03*
X0242618Y0165847D02*
D03*
X0242618Y0169587D02*
D03*
X0242618Y0173327D02*
D03*
X0252067Y0173327D02*
D03*
X0252067Y0169587D02*
D03*
X0252067Y0165847D02*
D03*
D35*
X0268701Y0140453D02*
D03*
X0268701Y0147540D02*
D03*
X0258661Y0147540D02*
D03*
X0258661Y0140453D02*
D03*
X0193602Y0140453D02*
D03*
X0193602Y0147540D02*
D03*
X0203641Y0147540D02*
D03*
X0203641Y0140453D02*
D03*
X0189075Y0140453D02*
D03*
X0189075Y0147540D02*
D03*
X0179035Y0147540D02*
D03*
X0179035Y0140453D02*
D03*
X0208661Y0140453D02*
D03*
X0208661Y0147540D02*
D03*
X0218700Y0147540D02*
D03*
X0218700Y0140453D02*
D03*
X0235531Y0140453D02*
D03*
X0235531Y0147540D02*
D03*
X0225492Y0147540D02*
D03*
X0225492Y0140453D02*
D03*
X0240453Y0140453D02*
D03*
X0240453Y0147540D02*
D03*
X0250492Y0147540D02*
D03*
X0250492Y0140453D02*
D03*
X0203543Y0154233D02*
D03*
X0203543Y0161319D02*
D03*
X0193504Y0161319D02*
D03*
X0193504Y0154233D02*
D03*
X0177559Y0154233D02*
D03*
X0177559Y0161319D02*
D03*
X0187598Y0161319D02*
D03*
X0187598Y0154233D02*
D03*
X0218799Y0154233D02*
D03*
X0218799Y0161319D02*
D03*
X0208760Y0161319D02*
D03*
X0208760Y0154233D02*
D03*
X0225492Y0154233D02*
D03*
X0225492Y0161319D02*
D03*
X0235531Y0161319D02*
D03*
X0235531Y0154233D02*
D03*
X0250787Y0154233D02*
D03*
X0250787Y0161319D02*
D03*
X0240748Y0161319D02*
D03*
X0240748Y0154233D02*
D03*
X0258169Y0154331D02*
D03*
X0258169Y0161418D02*
D03*
X0268208Y0161418D02*
D03*
X0268208Y0154331D02*
D03*
D107*
X0262106Y0147540D02*
D03*
X0265256Y0147540D02*
D03*
X0265256Y0140453D02*
D03*
X0262106Y0140453D02*
D03*
X0197047Y0140453D02*
D03*
X0200197Y0140453D02*
D03*
X0200197Y0147540D02*
D03*
X0197047Y0147540D02*
D03*
X0182480Y0147540D02*
D03*
X0185630Y0147540D02*
D03*
X0185630Y0140453D02*
D03*
X0182480Y0140453D02*
D03*
X0212106Y0140453D02*
D03*
X0215256Y0140453D02*
D03*
X0215256Y0147540D02*
D03*
X0212106Y0147540D02*
D03*
X0228937Y0147540D02*
D03*
X0232086Y0147540D02*
D03*
X0232086Y0140453D02*
D03*
X0228937Y0140453D02*
D03*
X0243897Y0140453D02*
D03*
X0247047Y0140453D02*
D03*
X0247047Y0147540D02*
D03*
X0243897Y0147540D02*
D03*
X0196949Y0161319D02*
D03*
X0200098Y0161319D02*
D03*
X0200098Y0154233D02*
D03*
X0196949Y0154233D02*
D03*
X0181004Y0154233D02*
D03*
X0184153Y0154233D02*
D03*
X0184153Y0161319D02*
D03*
X0181004Y0161319D02*
D03*
X0212205Y0161319D02*
D03*
X0215354Y0161319D02*
D03*
X0215354Y0154233D02*
D03*
X0212205Y0154233D02*
D03*
X0228937Y0154233D02*
D03*
X0232086Y0154233D02*
D03*
X0232086Y0161319D02*
D03*
X0228937Y0161319D02*
D03*
X0244193Y0161319D02*
D03*
X0247342Y0161319D02*
D03*
X0247342Y0154233D02*
D03*
X0244193Y0154233D02*
D03*
X0261614Y0154331D02*
D03*
X0264763Y0154331D02*
D03*
X0264763Y0161418D02*
D03*
X0261614Y0161418D02*
D03*
D17*
X0272736Y0140591D02*
D03*
X0272736Y0146812D02*
D03*
X0238189Y0182028D02*
D03*
X0238189Y0188249D02*
D03*
X0233858Y0188249D02*
D03*
X0233858Y0182028D02*
D03*
X0229527Y0182028D02*
D03*
X0229527Y0188249D02*
D03*
X0225197Y0188249D02*
D03*
X0225197Y0182028D02*
D03*
X0242519Y0182028D02*
D03*
X0242519Y0188249D02*
D03*
X0246850Y0188249D02*
D03*
X0246850Y0182028D02*
D03*
X0251181Y0182028D02*
D03*
X0251181Y0188249D02*
D03*
X0255511Y0188249D02*
D03*
X0255511Y0182028D02*
D03*
X0207874Y0182028D02*
D03*
X0207874Y0188249D02*
D03*
X0212205Y0188249D02*
D03*
X0212205Y0182028D02*
D03*
X0216535Y0182028D02*
D03*
X0216535Y0188249D02*
D03*
X0220866Y0188249D02*
D03*
X0220866Y0182028D02*
D03*
X0173228Y0182028D02*
D03*
X0173228Y0188249D02*
D03*
X0177559Y0188249D02*
D03*
X0177559Y0182028D02*
D03*
X0181889Y0182028D02*
D03*
X0181889Y0188249D02*
D03*
X0186220Y0188249D02*
D03*
X0186220Y0182028D02*
D03*
X0190551Y0182028D02*
D03*
X0190551Y0188249D02*
D03*
X0194882Y0188249D02*
D03*
X0194882Y0182028D02*
D03*
X0199212Y0182028D02*
D03*
X0199212Y0188249D02*
D03*
X0203543Y0188249D02*
D03*
X0203543Y0182028D02*
D03*
X0272736Y0153977D02*
D03*
X0272736Y0160197D02*
D03*
X0259842Y0182028D02*
D03*
X0259842Y0188249D02*
D03*
X0264173Y0188249D02*
D03*
X0264173Y0182028D02*
D03*
X0268504Y0182028D02*
D03*
X0268504Y0188249D02*
D03*
X0272834Y0188249D02*
D03*
X0272834Y0182028D02*
D03*
D156*
X0156791Y0149115D02*
D03*
X0163090Y0149115D02*
D03*
X0163090Y0144587D02*
D03*
X0156791Y0144587D02*
D03*
X0164075Y0158071D02*
D03*
X0157775Y0158071D02*
D03*
X0164075Y0162697D02*
D03*
X0157775Y0162697D02*
D03*
D211*
X0169389Y0163583D02*
D03*
X0169389Y0156103D02*
D03*
D182*
X0157027Y0153642D02*
D03*
X0163248Y0153642D02*
D03*
X0152756Y0198524D02*
G01*
G75*
D102*
X0311614Y0237107D02*
D03*
X0329725Y0237107D02*
D03*
D202*
X0320669Y0237107D02*
D03*
D139*
X0320669Y0261516D02*
D03*
D153*
X0165650Y0337205D02*
D03*
X0158563Y0337205D02*
D03*
X0158563Y0327166D02*
D03*
X0165650Y0327166D02*
D03*
X0181260Y0327441D02*
D03*
X0174173Y0327441D02*
D03*
X0174173Y0317401D02*
D03*
X0181260Y0317401D02*
D03*
X0257973Y0212796D02*
D03*
X0265059Y0212796D02*
D03*
X0265059Y0202756D02*
D03*
X0257973Y0202756D02*
D03*
X0267618Y0226674D02*
D03*
X0274705Y0226674D02*
D03*
X0274705Y0216634D02*
D03*
X0267618Y0216634D02*
D03*
D246*
X0158563Y0330611D02*
D03*
X0158563Y0333760D02*
D03*
X0165650Y0333760D02*
D03*
X0165650Y0330611D02*
D03*
X0174173Y0320846D02*
D03*
X0174173Y0323996D02*
D03*
X0181260Y0323996D02*
D03*
X0181260Y0320846D02*
D03*
X0257973Y0209351D02*
D03*
X0257973Y0206201D02*
D03*
X0265059Y0206201D02*
D03*
X0265059Y0209351D02*
D03*
X0267618Y0223229D02*
D03*
X0267618Y0220079D02*
D03*
X0274705Y0220079D02*
D03*
X0274705Y0223229D02*
D03*
D37*
X0281299Y0219193D02*
D03*
X0281299Y0216634D02*
D03*
X0281299Y0214075D02*
D03*
X0281299Y0211516D02*
D03*
X0281299Y0208957D02*
D03*
X0281299Y0206398D02*
D03*
X0281299Y0203839D02*
D03*
X0303740Y0219193D02*
D03*
X0303740Y0216634D02*
D03*
X0303740Y0214075D02*
D03*
X0303740Y0211516D02*
D03*
X0303740Y0208957D02*
D03*
X0303740Y0206398D02*
D03*
X0303740Y0203839D02*
D03*
X0157283Y0253544D02*
D03*
X0157283Y0250985D02*
D03*
X0157283Y0248426D02*
D03*
X0157283Y0245867D02*
D03*
X0157283Y0243307D02*
D03*
X0157283Y0240748D02*
D03*
X0157283Y0238189D02*
D03*
X0179725Y0253544D02*
D03*
X0179725Y0250985D02*
D03*
X0179725Y0248426D02*
D03*
X0179725Y0245867D02*
D03*
X0179725Y0243307D02*
D03*
X0179725Y0240748D02*
D03*
X0179725Y0238189D02*
D03*
X0156791Y0298524D02*
D03*
X0156791Y0295965D02*
D03*
X0156791Y0293406D02*
D03*
X0156791Y0290847D02*
D03*
X0156791Y0288288D02*
D03*
X0156791Y0285729D02*
D03*
X0156791Y0283170D02*
D03*
X0179232Y0298524D02*
D03*
X0179232Y0295965D02*
D03*
X0179232Y0293406D02*
D03*
X0179232Y0290847D02*
D03*
X0179232Y0288288D02*
D03*
X0179232Y0285729D02*
D03*
X0179232Y0283170D02*
D03*
X0207480Y0203839D02*
D03*
X0207480Y0206398D02*
D03*
X0207480Y0208957D02*
D03*
X0207480Y0211516D02*
D03*
X0207480Y0214075D02*
D03*
X0207480Y0216634D02*
D03*
X0207480Y0219193D02*
D03*
X0185040Y0203839D02*
D03*
X0185040Y0206398D02*
D03*
X0185040Y0208957D02*
D03*
X0185040Y0211516D02*
D03*
X0185040Y0214075D02*
D03*
X0185040Y0216634D02*
D03*
X0185040Y0219193D02*
D03*
X0251772Y0203839D02*
D03*
X0251772Y0206398D02*
D03*
X0251772Y0208957D02*
D03*
X0251772Y0211516D02*
D03*
X0251772Y0214075D02*
D03*
X0251772Y0216634D02*
D03*
X0251772Y0219193D02*
D03*
X0229331Y0203839D02*
D03*
X0229331Y0206398D02*
D03*
X0229331Y0208957D02*
D03*
X0229331Y0211516D02*
D03*
X0229331Y0214075D02*
D03*
X0229331Y0216634D02*
D03*
X0229331Y0219193D02*
D03*
X0156988Y0219193D02*
D03*
X0156988Y0216634D02*
D03*
X0156988Y0214075D02*
D03*
X0156988Y0211516D02*
D03*
X0156988Y0208957D02*
D03*
X0156988Y0206398D02*
D03*
X0156988Y0203839D02*
D03*
X0179429Y0219193D02*
D03*
X0179429Y0216634D02*
D03*
X0179429Y0214075D02*
D03*
X0179429Y0211516D02*
D03*
X0179429Y0208957D02*
D03*
X0179429Y0206398D02*
D03*
X0179429Y0203839D02*
D03*
D21*
X0197047Y0325689D02*
D03*
X0197047Y0323721D02*
D03*
X0197047Y0321752D02*
D03*
X0197047Y0319784D02*
D03*
X0197047Y0317815D02*
D03*
X0197047Y0315847D02*
D03*
X0197047Y0313878D02*
D03*
X0197047Y0311910D02*
D03*
X0197047Y0309941D02*
D03*
X0197047Y0307973D02*
D03*
X0197047Y0306004D02*
D03*
X0197047Y0304036D02*
D03*
X0197047Y0302067D02*
D03*
X0197047Y0300099D02*
D03*
X0197047Y0298130D02*
D03*
X0197047Y0296162D02*
D03*
X0197047Y0294193D02*
D03*
X0197047Y0292225D02*
D03*
X0197047Y0290256D02*
D03*
X0197047Y0288288D02*
D03*
X0197047Y0286319D02*
D03*
X0197047Y0284351D02*
D03*
X0197047Y0282382D02*
D03*
X0197047Y0280414D02*
D03*
X0197047Y0278445D02*
D03*
X0197047Y0276477D02*
D03*
X0197047Y0274508D02*
D03*
X0197047Y0272540D02*
D03*
X0197047Y0270571D02*
D03*
X0197047Y0268603D02*
D03*
X0197047Y0266634D02*
D03*
X0197047Y0264666D02*
D03*
X0197047Y0262697D02*
D03*
X0197047Y0260729D02*
D03*
X0197047Y0258760D02*
D03*
X0197047Y0256792D02*
D03*
X0197047Y0254823D02*
D03*
X0197047Y0252855D02*
D03*
X0197047Y0250886D02*
D03*
X0197047Y0248918D02*
D03*
X0197047Y0246949D02*
D03*
X0197047Y0244981D02*
D03*
X0197047Y0243012D02*
D03*
X0197047Y0241044D02*
D03*
X0300591Y0241044D02*
D03*
X0300591Y0243012D02*
D03*
X0300591Y0244981D02*
D03*
X0300591Y0246949D02*
D03*
X0300591Y0248918D02*
D03*
X0300591Y0250886D02*
D03*
X0300591Y0252855D02*
D03*
X0300591Y0254823D02*
D03*
X0300591Y0256792D02*
D03*
X0300591Y0258760D02*
D03*
X0300591Y0260729D02*
D03*
X0300591Y0262697D02*
D03*
X0300591Y0264666D02*
D03*
X0300591Y0266634D02*
D03*
X0300591Y0268603D02*
D03*
X0300591Y0270571D02*
D03*
X0300591Y0272540D02*
D03*
X0300591Y0274508D02*
D03*
X0300591Y0276477D02*
D03*
X0300591Y0278445D02*
D03*
X0300591Y0280414D02*
D03*
X0300591Y0282382D02*
D03*
X0300591Y0284351D02*
D03*
X0300591Y0286319D02*
D03*
X0300591Y0288288D02*
D03*
X0300591Y0290256D02*
D03*
X0300591Y0292225D02*
D03*
X0300591Y0294193D02*
D03*
X0300591Y0296162D02*
D03*
X0300591Y0298130D02*
D03*
X0300591Y0300099D02*
D03*
X0300591Y0302067D02*
D03*
X0300591Y0304036D02*
D03*
X0300591Y0306004D02*
D03*
X0300591Y0307973D02*
D03*
X0300591Y0309941D02*
D03*
X0300591Y0311910D02*
D03*
X0300591Y0313878D02*
D03*
X0300591Y0315847D02*
D03*
X0300591Y0317815D02*
D03*
X0300591Y0319784D02*
D03*
X0300591Y0321752D02*
D03*
X0300591Y0323721D02*
D03*
X0300591Y0325689D02*
D03*
D244*
X0206496Y0231595D02*
D03*
X0208465Y0231595D02*
D03*
X0210433Y0231595D02*
D03*
X0212402Y0231595D02*
D03*
X0214370Y0231595D02*
D03*
X0216339Y0231595D02*
D03*
X0218307Y0231595D02*
D03*
X0220276Y0231595D02*
D03*
X0222244Y0231595D02*
D03*
X0224213Y0231595D02*
D03*
X0226181Y0231595D02*
D03*
X0228150Y0231595D02*
D03*
X0230118Y0231595D02*
D03*
X0232087Y0231595D02*
D03*
X0234055Y0231595D02*
D03*
X0236024Y0231595D02*
D03*
X0237992Y0231595D02*
D03*
X0239961Y0231595D02*
D03*
X0241929Y0231595D02*
D03*
X0243898Y0231595D02*
D03*
X0245866Y0231595D02*
D03*
X0247835Y0231595D02*
D03*
X0249803Y0231595D02*
D03*
X0251772Y0231595D02*
D03*
X0253740Y0231595D02*
D03*
X0255709Y0231595D02*
D03*
X0257677Y0231595D02*
D03*
X0259646Y0231595D02*
D03*
X0261614Y0231595D02*
D03*
X0263583Y0231595D02*
D03*
X0265551Y0231595D02*
D03*
X0267520Y0231595D02*
D03*
X0269488Y0231595D02*
D03*
X0271457Y0231595D02*
D03*
X0273425Y0231595D02*
D03*
X0275394Y0231595D02*
D03*
X0277362Y0231595D02*
D03*
X0279331Y0231595D02*
D03*
X0281299Y0231595D02*
D03*
X0283268Y0231595D02*
D03*
X0285236Y0231595D02*
D03*
X0287205Y0231595D02*
D03*
X0289173Y0231595D02*
D03*
X0291142Y0231595D02*
D03*
X0291142Y0335138D02*
D03*
X0289173Y0335138D02*
D03*
X0287205Y0335138D02*
D03*
X0285236Y0335138D02*
D03*
X0283268Y0335138D02*
D03*
X0281299Y0335138D02*
D03*
X0279331Y0335138D02*
D03*
X0277362Y0335138D02*
D03*
X0275394Y0335138D02*
D03*
X0273425Y0335138D02*
D03*
X0271457Y0335138D02*
D03*
X0269488Y0335138D02*
D03*
X0267520Y0335138D02*
D03*
X0265551Y0335138D02*
D03*
X0263583Y0335138D02*
D03*
X0261614Y0335138D02*
D03*
X0259646Y0335138D02*
D03*
X0257677Y0335138D02*
D03*
X0255709Y0335138D02*
D03*
X0253740Y0335138D02*
D03*
X0251772Y0335138D02*
D03*
X0249803Y0335138D02*
D03*
X0247835Y0335138D02*
D03*
X0245866Y0335138D02*
D03*
X0243898Y0335138D02*
D03*
X0241929Y0335138D02*
D03*
X0239961Y0335138D02*
D03*
X0237992Y0335138D02*
D03*
X0236024Y0335138D02*
D03*
X0234055Y0335138D02*
D03*
X0232087Y0335138D02*
D03*
X0230118Y0335138D02*
D03*
X0228150Y0335138D02*
D03*
X0226181Y0335138D02*
D03*
X0224213Y0335138D02*
D03*
X0222244Y0335138D02*
D03*
X0220276Y0335138D02*
D03*
X0218307Y0335138D02*
D03*
X0216339Y0335138D02*
D03*
X0214370Y0335138D02*
D03*
X0212402Y0335138D02*
D03*
X0210433Y0335138D02*
D03*
X0208465Y0335138D02*
D03*
X0206496Y0335138D02*
D03*
D182*
X0308701Y0218603D02*
D03*
X0314921Y0218603D02*
D03*
X0305945Y0327264D02*
D03*
X0312165Y0327264D02*
D03*
X0315295Y0268406D02*
D03*
X0321516Y0268406D02*
D03*
X0217559Y0226280D02*
D03*
X0223780Y0226280D02*
D03*
X0288701Y0340335D02*
D03*
X0282480Y0340335D02*
D03*
X0280650Y0225689D02*
D03*
X0286870Y0225689D02*
D03*
X0194823Y0334351D02*
D03*
X0201043Y0334351D02*
D03*
X0311063Y0293701D02*
D03*
X0317283Y0293701D02*
D03*
X0206043Y0226280D02*
D03*
X0212264Y0226280D02*
D03*
X0256929Y0221555D02*
D03*
X0263150Y0221555D02*
D03*
X0190512Y0292717D02*
D03*
X0184292Y0292717D02*
D03*
X0219252Y0340453D02*
D03*
X0213032Y0340453D02*
D03*
X0238721Y0340355D02*
D03*
X0244941Y0340355D02*
D03*
X0255847Y0340355D02*
D03*
X0262067Y0340355D02*
D03*
X0306358Y0237796D02*
D03*
X0300138Y0237796D02*
D03*
X0244547Y0225886D02*
D03*
X0238327Y0225886D02*
D03*
X0260197Y0225985D02*
D03*
X0253977Y0225985D02*
D03*
X0190413Y0297047D02*
D03*
X0184193Y0297047D02*
D03*
X0185374Y0252756D02*
D03*
X0191595Y0252756D02*
D03*
D17*
X0318406Y0339233D02*
D03*
X0318406Y0333012D02*
D03*
X0332185Y0221792D02*
D03*
X0332185Y0228012D02*
D03*
X0306004Y0316477D02*
D03*
X0306004Y0322697D02*
D03*
X0190059Y0282126D02*
D03*
X0190059Y0288347D02*
D03*
X0310532Y0315689D02*
D03*
X0310532Y0321910D02*
D03*
X0275099Y0206044D02*
D03*
X0275099Y0212264D02*
D03*
X0309547Y0207520D02*
D03*
X0309547Y0213741D02*
D03*
X0313977Y0213740D02*
D03*
X0313977Y0207520D02*
D03*
X0165256Y0277225D02*
D03*
X0165256Y0271004D02*
D03*
X0185532Y0282126D02*
D03*
X0185532Y0288347D02*
D03*
X0190158Y0237441D02*
D03*
X0190158Y0243662D02*
D03*
X0185335Y0237343D02*
D03*
X0185335Y0243563D02*
D03*
X0171752Y0224941D02*
D03*
X0171752Y0231162D02*
D03*
X0158169Y0270906D02*
D03*
X0158169Y0277126D02*
D03*
X0306299Y0287835D02*
D03*
X0306299Y0294055D02*
D03*
X0306398Y0273091D02*
D03*
X0306398Y0266871D02*
D03*
X0186516Y0258209D02*
D03*
X0186516Y0264429D02*
D03*
X0310925Y0270926D02*
D03*
X0310925Y0264705D02*
D03*
X0191240Y0317481D02*
D03*
X0191240Y0311260D02*
D03*
D128*
X0331201Y0286910D02*
D03*
X0331201Y0280217D02*
D03*
X0318701Y0280315D02*
D03*
X0318701Y0287008D02*
D03*
X0324902Y0286910D02*
D03*
X0324902Y0280217D02*
D03*
X0312776Y0280906D02*
D03*
X0312776Y0287599D02*
D03*
D99*
X0325984Y0221851D02*
D03*
X0325984Y0229331D02*
D03*
D152*
X0227953Y0226083D02*
D03*
X0234252Y0226083D02*
D03*
X0311614Y0275492D02*
D03*
X0317913Y0275492D02*
D03*
X0272540Y0340552D02*
D03*
X0266240Y0340552D02*
D03*
X0330118Y0275296D02*
D03*
X0323819Y0275296D02*
D03*
X0331988Y0269784D02*
D03*
X0325689Y0269784D02*
D03*
X0185335Y0248229D02*
D03*
X0191634Y0248229D02*
D03*
X0325000Y0318701D02*
D03*
X0331299Y0318701D02*
D03*
D64*
X0300000Y0329331D02*
D03*
X0300000Y0335630D02*
D03*
X0295276Y0334154D02*
D03*
X0295276Y0340453D02*
D03*
X0306398Y0283662D02*
D03*
X0306398Y0277363D02*
D03*
X0322933Y0340059D02*
D03*
X0322933Y0333760D02*
D03*
X0331988Y0329233D02*
D03*
X0331988Y0322933D02*
D03*
X0331988Y0339370D02*
D03*
X0331988Y0333071D02*
D03*
X0327362Y0330807D02*
D03*
X0327362Y0324508D02*
D03*
X0191339Y0258268D02*
D03*
X0191339Y0264567D02*
D03*
D101*
X0313858Y0336123D02*
D03*
X0304606Y0339863D02*
D03*
D101*
X0304606Y0332382D02*
D03*
D149*
X0171358Y0273623D02*
D03*
X0185925Y0273623D02*
D03*
D97*
X0313287Y0299508D02*
D03*
X0309547Y0299508D02*
D03*
X0305807Y0299508D02*
D03*
X0305807Y0308957D02*
D03*
X0309547Y0308957D02*
D03*
X0313287Y0308957D02*
D03*
D35*
X0331791Y0206693D02*
D03*
X0331791Y0213780D02*
D03*
X0321752Y0213780D02*
D03*
X0321752Y0206693D02*
D03*
X0310335Y0223229D02*
D03*
X0310335Y0230315D02*
D03*
X0320374Y0230315D02*
D03*
X0320374Y0223229D02*
D03*
X0182185Y0257677D02*
D03*
X0182185Y0264764D02*
D03*
X0172146Y0264764D02*
D03*
X0172146Y0257677D02*
D03*
X0156890Y0257678D02*
D03*
X0156890Y0264764D02*
D03*
X0166929Y0264764D02*
D03*
X0166929Y0257678D02*
D03*
X0186122Y0224311D02*
D03*
X0186122Y0231398D02*
D03*
X0176083Y0231398D02*
D03*
X0176083Y0224311D02*
D03*
X0157382Y0224311D02*
D03*
X0157382Y0231398D02*
D03*
X0167421Y0231398D02*
D03*
X0167421Y0224311D02*
D03*
X0182382Y0302855D02*
D03*
X0182382Y0309941D02*
D03*
X0172343Y0309941D02*
D03*
X0172343Y0302855D02*
D03*
X0294488Y0223524D02*
D03*
X0294488Y0230611D02*
D03*
X0304528Y0230611D02*
D03*
X0304528Y0223524D02*
D03*
X0167028Y0302855D02*
D03*
X0167028Y0309941D02*
D03*
X0156988Y0309941D02*
D03*
X0156988Y0302855D02*
D03*
X0222343Y0222048D02*
D03*
X0222343Y0214961D02*
D03*
X0212303Y0214961D02*
D03*
X0212303Y0222048D02*
D03*
X0213091Y0203741D02*
D03*
X0213091Y0210827D02*
D03*
X0223130Y0210827D02*
D03*
X0223130Y0203741D02*
D03*
D107*
X0325197Y0213780D02*
D03*
X0328347Y0213780D02*
D03*
X0328347Y0206693D02*
D03*
X0325197Y0206693D02*
D03*
X0313780Y0223229D02*
D03*
X0316929Y0223229D02*
D03*
X0316929Y0230315D02*
D03*
X0313780Y0230315D02*
D03*
X0175591Y0264764D02*
D03*
X0178740Y0264764D02*
D03*
X0178740Y0257677D02*
D03*
X0175591Y0257677D02*
D03*
X0160335Y0257678D02*
D03*
X0163484Y0257678D02*
D03*
X0163484Y0264764D02*
D03*
X0160335Y0264764D02*
D03*
X0179528Y0231398D02*
D03*
X0182677Y0231398D02*
D03*
X0182677Y0224311D02*
D03*
X0179528Y0224311D02*
D03*
X0160827Y0224311D02*
D03*
X0163977Y0224311D02*
D03*
X0163977Y0231398D02*
D03*
X0160827Y0231398D02*
D03*
X0175788Y0309941D02*
D03*
X0178937Y0309941D02*
D03*
X0178937Y0302855D02*
D03*
X0175788Y0302855D02*
D03*
X0297933Y0223524D02*
D03*
X0301083Y0223524D02*
D03*
X0301083Y0230611D02*
D03*
X0297933Y0230611D02*
D03*
X0160433Y0309941D02*
D03*
X0163583Y0309941D02*
D03*
X0163583Y0302855D02*
D03*
X0160433Y0302855D02*
D03*
X0218898Y0222048D02*
D03*
X0215748Y0222048D02*
D03*
X0215748Y0214961D02*
D03*
X0218898Y0214961D02*
D03*
X0216536Y0203741D02*
D03*
X0219685Y0203741D02*
D03*
X0219685Y0210827D02*
D03*
X0216536Y0210827D02*
D03*
D28*
X0319488Y0315453D02*
D03*
X0319488Y0328445D02*
D03*
D185*
X0199114Y0232855D02*
D03*
X0195374Y0223603D02*
D03*
D185*
X0191634Y0232855D02*
D03*
D146*
X0189370Y0307185D02*
D03*
X0189370Y0301280D02*
D03*
D42*
X0208071Y0340355D02*
D03*
X0195079Y0340355D02*
D03*
X0156398Y0375098D02*
G01*
G75*
D185*
X0167815Y0388110D02*
D03*
X0164075Y0378858D02*
D03*
D185*
X0160335Y0388110D02*
D03*
D236*
X0175374Y0399724D02*
D03*
X0175374Y0394724D02*
D03*
X0175374Y0389724D02*
D03*
X0175374Y0384724D02*
D03*
X0194272Y0399724D02*
D03*
X0194272Y0394724D02*
D03*
X0194272Y0389724D02*
D03*
X0194272Y0384724D02*
D03*
D70*
X0191083Y0379429D02*
D03*
X0197303Y0379429D02*
D03*
X0182737Y0379429D02*
D03*
X0176516Y0379429D02*
D03*
D152*
X0160925Y0393011D02*
D03*
X0167225Y0393011D02*
D03*
D111*
X0171555Y0376968D02*
D03*
X0365157Y0361220D02*
G01*
G75*
D213*
X0435728Y0383818D02*
D03*
X0435728Y0377598D02*
D03*
X0492421Y0375649D02*
D03*
X0492421Y0369429D02*
D03*
D115*
X0450885Y0387696D02*
D03*
X0450885Y0376279D02*
D03*
X0442421Y0376279D02*
D03*
X0442421Y0387696D02*
D03*
X0511318Y0380413D02*
D03*
X0511318Y0368996D02*
D03*
X0385925Y0386909D02*
D03*
X0385925Y0375492D02*
D03*
X0394586Y0375492D02*
D03*
X0394586Y0386909D02*
D03*
D23*
X0447342Y0369389D02*
D03*
X0435925Y0369389D02*
D03*
X0396161Y0368307D02*
D03*
X0384744Y0368307D02*
D03*
D174*
X0373228Y0384645D02*
D03*
X0373228Y0366929D02*
D03*
D118*
X0497637Y0380610D02*
D03*
X0501378Y0380610D02*
D03*
X0505118Y0380610D02*
D03*
X0505118Y0370374D02*
D03*
X0501378Y0370374D02*
D03*
X0497637Y0370374D02*
D03*
D47*
X0460039Y0375885D02*
D03*
X0483858Y0375885D02*
D03*
X0427854Y0375885D02*
D03*
X0404035Y0375885D02*
D03*
D42*
X0512795Y0386220D02*
D03*
X0499803Y0386220D02*
D03*
D64*
X0517642Y0377657D02*
D03*
X0517642Y0383956D02*
D03*
X0517618Y0367618D02*
D03*
X0517618Y0373917D02*
D03*
X0452460Y0365354D02*
D03*
X0452460Y0371653D02*
D03*
D221*
X0373228Y0387106D02*
D03*
M02*
