G75*
G70*
%OFA0B0*%
%FSLAX25Y25*%
%IPPOS*%
%LPD*%
%AMOC8*
5,1,8,0,0,1.08239X$1,22.5*
%
%AMM1*
21,1,0.035430,0.030320,0.000000,0.000000,180.000000*
21,1,0.028350,0.037400,0.000000,0.000000,180.000000*
1,1,0.007090,-0.014170,0.015160*
1,1,0.007090,0.014170,0.015160*
1,1,0.007090,0.014170,-0.015160*
1,1,0.007090,-0.014170,-0.015160*
%
%AMM10*
21,1,0.033470,0.026770,0.000000,0.000000,180.000000*
21,1,0.026770,0.033470,0.000000,0.000000,180.000000*
1,1,0.006690,-0.013390,0.013390*
1,1,0.006690,0.013390,0.013390*
1,1,0.006690,0.013390,-0.013390*
1,1,0.006690,-0.013390,-0.013390*
%
%AMM11*
21,1,0.033470,0.026770,0.000000,0.000000,270.000000*
21,1,0.026770,0.033470,0.000000,0.000000,270.000000*
1,1,0.006690,-0.013390,-0.013390*
1,1,0.006690,-0.013390,0.013390*
1,1,0.006690,0.013390,0.013390*
1,1,0.006690,0.013390,-0.013390*
%
%AMM111*
21,1,0.094490,0.111020,0.000000,0.000000,180.000000*
21,1,0.075590,0.129920,0.000000,0.000000,180.000000*
1,1,0.018900,-0.037800,0.055510*
1,1,0.018900,0.037800,0.055510*
1,1,0.018900,0.037800,-0.055510*
1,1,0.018900,-0.037800,-0.055510*
%
%AMM112*
21,1,0.023620,0.018900,0.000000,0.000000,270.000000*
21,1,0.018900,0.023620,0.000000,0.000000,270.000000*
1,1,0.004720,-0.009450,-0.009450*
1,1,0.004720,-0.009450,0.009450*
1,1,0.004720,0.009450,0.009450*
1,1,0.004720,0.009450,-0.009450*
%
%AMM113*
21,1,0.035830,0.026770,0.000000,0.000000,0.000000*
21,1,0.029130,0.033470,0.000000,0.000000,0.000000*
1,1,0.006690,0.014570,-0.013390*
1,1,0.006690,-0.014570,-0.013390*
1,1,0.006690,-0.014570,0.013390*
1,1,0.006690,0.014570,0.013390*
%
%AMM114*
21,1,0.023620,0.018900,0.000000,0.000000,180.000000*
21,1,0.018900,0.023620,0.000000,0.000000,180.000000*
1,1,0.004720,-0.009450,0.009450*
1,1,0.004720,0.009450,0.009450*
1,1,0.004720,0.009450,-0.009450*
1,1,0.004720,-0.009450,-0.009450*
%
%AMM115*
21,1,0.035430,0.030320,0.000000,0.000000,0.000000*
21,1,0.028350,0.037400,0.000000,0.000000,0.000000*
1,1,0.007090,0.014170,-0.015160*
1,1,0.007090,-0.014170,-0.015160*
1,1,0.007090,-0.014170,0.015160*
1,1,0.007090,0.014170,0.015160*
%
%AMM116*
21,1,0.078740,0.070870,0.000000,0.000000,270.000000*
21,1,0.062990,0.086610,0.000000,0.000000,270.000000*
1,1,0.015750,-0.035430,-0.031500*
1,1,0.015750,-0.035430,0.031500*
1,1,0.015750,0.035430,0.031500*
1,1,0.015750,0.035430,-0.031500*
%
%AMM117*
21,1,0.051180,0.068500,0.000000,0.000000,180.000000*
21,1,0.040950,0.078740,0.000000,0.000000,180.000000*
1,1,0.010240,-0.020470,0.034250*
1,1,0.010240,0.020470,0.034250*
1,1,0.010240,0.020470,-0.034250*
1,1,0.010240,-0.020470,-0.034250*
%
%AMM118*
21,1,0.033470,0.026770,0.000000,0.000000,90.000000*
21,1,0.026770,0.033470,0.000000,0.000000,90.000000*
1,1,0.006690,0.013390,0.013390*
1,1,0.006690,0.013390,-0.013390*
1,1,0.006690,-0.013390,-0.013390*
1,1,0.006690,-0.013390,0.013390*
%
%AMM12*
21,1,0.122050,0.075590,0.000000,0.000000,270.000000*
21,1,0.103150,0.094490,0.000000,0.000000,270.000000*
1,1,0.018900,-0.037800,-0.051580*
1,1,0.018900,-0.037800,0.051580*
1,1,0.018900,0.037800,0.051580*
1,1,0.018900,0.037800,-0.051580*
%
%AMM128*
21,1,0.039370,0.049210,0.000000,0.000000,0.000000*
21,1,0.031500,0.057090,0.000000,0.000000,0.000000*
1,1,0.007870,0.015750,-0.024610*
1,1,0.007870,-0.015750,-0.024610*
1,1,0.007870,-0.015750,0.024610*
1,1,0.007870,0.015750,0.024610*
%
%AMM13*
21,1,0.078740,0.053540,0.000000,0.000000,180.000000*
21,1,0.065350,0.066930,0.000000,0.000000,180.000000*
1,1,0.013390,-0.032680,0.026770*
1,1,0.013390,0.032680,0.026770*
1,1,0.013390,0.032680,-0.026770*
1,1,0.013390,-0.032680,-0.026770*
%
%AMM132*
21,1,0.021650,0.052760,-0.000000,0.000000,0.000000*
21,1,0.017320,0.057090,-0.000000,0.000000,0.000000*
1,1,0.004330,0.008660,-0.026380*
1,1,0.004330,-0.008660,-0.026380*
1,1,0.004330,-0.008660,0.026380*
1,1,0.004330,0.008660,0.026380*
%
%AMM133*
21,1,0.027560,0.030710,-0.000000,0.000000,270.000000*
21,1,0.022050,0.036220,-0.000000,0.000000,270.000000*
1,1,0.005510,-0.015350,-0.011020*
1,1,0.005510,-0.015350,0.011020*
1,1,0.005510,0.015350,0.011020*
1,1,0.005510,0.015350,-0.011020*
%
%AMM134*
21,1,0.027560,0.030710,-0.000000,0.000000,0.000000*
21,1,0.022050,0.036220,-0.000000,0.000000,0.000000*
1,1,0.005510,0.011020,-0.015350*
1,1,0.005510,-0.011020,-0.015350*
1,1,0.005510,-0.011020,0.015350*
1,1,0.005510,0.011020,0.015350*
%
%AMM135*
21,1,0.033470,0.026770,-0.000000,0.000000,0.000000*
21,1,0.026770,0.033470,-0.000000,0.000000,0.000000*
1,1,0.006690,0.013390,-0.013390*
1,1,0.006690,-0.013390,-0.013390*
1,1,0.006690,-0.013390,0.013390*
1,1,0.006690,0.013390,0.013390*
%
%AMM14*
21,1,0.070870,0.036220,0.000000,0.000000,180.000000*
21,1,0.061810,0.045280,0.000000,0.000000,180.000000*
1,1,0.009060,-0.030910,0.018110*
1,1,0.009060,0.030910,0.018110*
1,1,0.009060,0.030910,-0.018110*
1,1,0.009060,-0.030910,-0.018110*
%
%AMM144*
21,1,0.035430,0.030320,-0.000000,-0.000000,0.000000*
21,1,0.028350,0.037400,-0.000000,-0.000000,0.000000*
1,1,0.007090,0.014170,-0.015160*
1,1,0.007090,-0.014170,-0.015160*
1,1,0.007090,-0.014170,0.015160*
1,1,0.007090,0.014170,0.015160*
%
%AMM145*
21,1,0.033470,0.026770,-0.000000,-0.000000,180.000000*
21,1,0.026770,0.033470,-0.000000,-0.000000,180.000000*
1,1,0.006690,-0.013390,0.013390*
1,1,0.006690,0.013390,0.013390*
1,1,0.006690,0.013390,-0.013390*
1,1,0.006690,-0.013390,-0.013390*
%
%AMM146*
21,1,0.027560,0.030710,-0.000000,-0.000000,0.000000*
21,1,0.022050,0.036220,-0.000000,-0.000000,0.000000*
1,1,0.005510,0.011020,-0.015350*
1,1,0.005510,-0.011020,-0.015350*
1,1,0.005510,-0.011020,0.015350*
1,1,0.005510,0.011020,0.015350*
%
%AMM15*
21,1,0.086610,0.073230,0.000000,0.000000,90.000000*
21,1,0.069290,0.090550,0.000000,0.000000,90.000000*
1,1,0.017320,0.036610,0.034650*
1,1,0.017320,0.036610,-0.034650*
1,1,0.017320,-0.036610,-0.034650*
1,1,0.017320,-0.036610,0.034650*
%
%AMM16*
21,1,0.027560,0.030710,0.000000,0.000000,90.000000*
21,1,0.022050,0.036220,0.000000,0.000000,90.000000*
1,1,0.005510,0.015350,0.011020*
1,1,0.005510,0.015350,-0.011020*
1,1,0.005510,-0.015350,-0.011020*
1,1,0.005510,-0.015350,0.011020*
%
%AMM168*
21,1,0.033470,0.026770,0.000000,-0.000000,180.000000*
21,1,0.026770,0.033470,0.000000,-0.000000,180.000000*
1,1,0.006690,-0.013390,0.013390*
1,1,0.006690,0.013390,0.013390*
1,1,0.006690,0.013390,-0.013390*
1,1,0.006690,-0.013390,-0.013390*
%
%AMM169*
21,1,0.025590,0.026380,0.000000,-0.000000,0.000000*
21,1,0.020470,0.031500,0.000000,-0.000000,0.000000*
1,1,0.005120,0.010240,-0.013190*
1,1,0.005120,-0.010240,-0.013190*
1,1,0.005120,-0.010240,0.013190*
1,1,0.005120,0.010240,0.013190*
%
%AMM170*
21,1,0.017720,0.027950,0.000000,-0.000000,0.000000*
21,1,0.014170,0.031500,0.000000,-0.000000,0.000000*
1,1,0.003540,0.007090,-0.013980*
1,1,0.003540,-0.007090,-0.013980*
1,1,0.003540,-0.007090,0.013980*
1,1,0.003540,0.007090,0.013980*
%
%AMM171*
21,1,0.012600,0.028980,0.000000,-0.000000,180.000000*
21,1,0.010080,0.031500,0.000000,-0.000000,180.000000*
1,1,0.002520,-0.005040,0.014490*
1,1,0.002520,0.005040,0.014490*
1,1,0.002520,0.005040,-0.014490*
1,1,0.002520,-0.005040,-0.014490*
%
%AMM172*
21,1,0.033470,0.026770,0.000000,-0.000000,90.000000*
21,1,0.026770,0.033470,0.000000,-0.000000,90.000000*
1,1,0.006690,0.013390,0.013390*
1,1,0.006690,0.013390,-0.013390*
1,1,0.006690,-0.013390,-0.013390*
1,1,0.006690,-0.013390,0.013390*
%
%AMM2*
21,1,0.033470,0.026770,0.000000,0.000000,0.000000*
21,1,0.026770,0.033470,0.000000,0.000000,0.000000*
1,1,0.006690,0.013390,-0.013390*
1,1,0.006690,-0.013390,-0.013390*
1,1,0.006690,-0.013390,0.013390*
1,1,0.006690,0.013390,0.013390*
%
%AMM27*
21,1,0.027560,0.018900,0.000000,0.000000,180.000000*
21,1,0.022840,0.023620,0.000000,0.000000,180.000000*
1,1,0.004720,-0.011420,0.009450*
1,1,0.004720,0.011420,0.009450*
1,1,0.004720,0.011420,-0.009450*
1,1,0.004720,-0.011420,-0.009450*
%
%AMM28*
21,1,0.137800,0.067720,0.000000,0.000000,0.000000*
21,1,0.120870,0.084650,0.000000,0.000000,0.000000*
1,1,0.016930,0.060430,-0.033860*
1,1,0.016930,-0.060430,-0.033860*
1,1,0.016930,-0.060430,0.033860*
1,1,0.016930,0.060430,0.033860*
%
%AMM29*
21,1,0.043310,0.075980,0.000000,0.000000,0.000000*
21,1,0.034650,0.084650,0.000000,0.000000,0.000000*
1,1,0.008660,0.017320,-0.037990*
1,1,0.008660,-0.017320,-0.037990*
1,1,0.008660,-0.017320,0.037990*
1,1,0.008660,0.017320,0.037990*
%
%AMM3*
21,1,0.027560,0.030710,0.000000,0.000000,180.000000*
21,1,0.022050,0.036220,0.000000,0.000000,180.000000*
1,1,0.005510,-0.011020,0.015350*
1,1,0.005510,0.011020,0.015350*
1,1,0.005510,0.011020,-0.015350*
1,1,0.005510,-0.011020,-0.015350*
%
%AMM30*
21,1,0.043310,0.075990,0.000000,0.000000,0.000000*
21,1,0.034650,0.084650,0.000000,0.000000,0.000000*
1,1,0.008660,0.017320,-0.037990*
1,1,0.008660,-0.017320,-0.037990*
1,1,0.008660,-0.017320,0.037990*
1,1,0.008660,0.017320,0.037990*
%
%AMM31*
21,1,0.039370,0.035430,0.000000,0.000000,270.000000*
21,1,0.031500,0.043310,0.000000,0.000000,270.000000*
1,1,0.007870,-0.017720,-0.015750*
1,1,0.007870,-0.017720,0.015750*
1,1,0.007870,0.017720,0.015750*
1,1,0.007870,0.017720,-0.015750*
%
%AMM32*
21,1,0.035430,0.030320,0.000000,0.000000,270.000000*
21,1,0.028350,0.037400,0.000000,0.000000,270.000000*
1,1,0.007090,-0.015160,-0.014170*
1,1,0.007090,-0.015160,0.014170*
1,1,0.007090,0.015160,0.014170*
1,1,0.007090,0.015160,-0.014170*
%
%AMM33*
21,1,0.023620,0.030710,0.000000,0.000000,180.000000*
21,1,0.018900,0.035430,0.000000,0.000000,180.000000*
1,1,0.004720,-0.009450,0.015350*
1,1,0.004720,0.009450,0.015350*
1,1,0.004720,0.009450,-0.015350*
1,1,0.004720,-0.009450,-0.015350*
%
%AMM34*
21,1,0.025590,0.026380,0.000000,0.000000,0.000000*
21,1,0.020470,0.031500,0.000000,0.000000,0.000000*
1,1,0.005120,0.010240,-0.013190*
1,1,0.005120,-0.010240,-0.013190*
1,1,0.005120,-0.010240,0.013190*
1,1,0.005120,0.010240,0.013190*
%
%AMM35*
21,1,0.017720,0.027950,0.000000,0.000000,0.000000*
21,1,0.014170,0.031500,0.000000,0.000000,0.000000*
1,1,0.003540,0.007090,-0.013980*
1,1,0.003540,-0.007090,-0.013980*
1,1,0.003540,-0.007090,0.013980*
1,1,0.003540,0.007090,0.013980*
%
%AMM36*
21,1,0.035830,0.026770,0.000000,0.000000,270.000000*
21,1,0.029130,0.033470,0.000000,0.000000,270.000000*
1,1,0.006690,-0.013390,-0.014570*
1,1,0.006690,-0.013390,0.014570*
1,1,0.006690,0.013390,0.014570*
1,1,0.006690,0.013390,-0.014570*
%
%AMM37*
21,1,0.025590,0.026380,0.000000,0.000000,270.000000*
21,1,0.020470,0.031500,0.000000,0.000000,270.000000*
1,1,0.005120,-0.013190,-0.010240*
1,1,0.005120,-0.013190,0.010240*
1,1,0.005120,0.013190,0.010240*
1,1,0.005120,0.013190,-0.010240*
%
%AMM38*
21,1,0.017720,0.027950,0.000000,0.000000,270.000000*
21,1,0.014170,0.031500,0.000000,0.000000,270.000000*
1,1,0.003540,-0.013980,-0.007090*
1,1,0.003540,-0.013980,0.007090*
1,1,0.003540,0.013980,0.007090*
1,1,0.003540,0.013980,-0.007090*
%
%AMM39*
21,1,0.027560,0.049610,0.000000,0.000000,270.000000*
21,1,0.022050,0.055120,0.000000,0.000000,270.000000*
1,1,0.005510,-0.024800,-0.011020*
1,1,0.005510,-0.024800,0.011020*
1,1,0.005510,0.024800,0.011020*
1,1,0.005510,0.024800,-0.011020*
%
%AMM40*
21,1,0.035830,0.026770,0.000000,0.000000,180.000000*
21,1,0.029130,0.033470,0.000000,0.000000,180.000000*
1,1,0.006690,-0.014570,0.013390*
1,1,0.006690,0.014570,0.013390*
1,1,0.006690,0.014570,-0.013390*
1,1,0.006690,-0.014570,-0.013390*
%
%AMM7*
21,1,0.039370,0.049210,0.000000,0.000000,90.000000*
21,1,0.031500,0.057090,0.000000,0.000000,90.000000*
1,1,0.007870,0.024610,0.015750*
1,1,0.007870,0.024610,-0.015750*
1,1,0.007870,-0.024610,-0.015750*
1,1,0.007870,-0.024610,0.015750*
%
%AMM71*
21,1,0.035430,0.050000,0.000000,0.000000,270.000000*
21,1,0.028350,0.057090,0.000000,0.000000,270.000000*
1,1,0.007090,-0.025000,-0.014170*
1,1,0.007090,-0.025000,0.014170*
1,1,0.007090,0.025000,0.014170*
1,1,0.007090,0.025000,-0.014170*
%
%AMM72*
21,1,0.086610,0.073230,0.000000,0.000000,270.000000*
21,1,0.069290,0.090550,0.000000,0.000000,270.000000*
1,1,0.017320,-0.036610,-0.034650*
1,1,0.017320,-0.036610,0.034650*
1,1,0.017320,0.036610,0.034650*
1,1,0.017320,0.036610,-0.034650*
%
%AMM73*
21,1,0.039370,0.049210,0.000000,0.000000,180.000000*
21,1,0.031500,0.057090,0.000000,0.000000,180.000000*
1,1,0.007870,-0.015750,0.024610*
1,1,0.007870,0.015750,0.024610*
1,1,0.007870,0.015750,-0.024610*
1,1,0.007870,-0.015750,-0.024610*
%
%AMM74*
21,1,0.023620,0.030710,0.000000,0.000000,90.000000*
21,1,0.018900,0.035430,0.000000,0.000000,90.000000*
1,1,0.004720,0.015350,0.009450*
1,1,0.004720,0.015350,-0.009450*
1,1,0.004720,-0.015350,-0.009450*
1,1,0.004720,-0.015350,0.009450*
%
%AMM75*
21,1,0.027560,0.030710,0.000000,0.000000,0.000000*
21,1,0.022050,0.036220,0.000000,0.000000,0.000000*
1,1,0.005510,0.011020,-0.015350*
1,1,0.005510,-0.011020,-0.015350*
1,1,0.005510,-0.011020,0.015350*
1,1,0.005510,0.011020,0.015350*
%
%AMM8*
21,1,0.106300,0.050390,0.000000,0.000000,0.000000*
21,1,0.093700,0.062990,0.000000,0.000000,0.000000*
1,1,0.012600,0.046850,-0.025200*
1,1,0.012600,-0.046850,-0.025200*
1,1,0.012600,-0.046850,0.025200*
1,1,0.012600,0.046850,0.025200*
%
%AMM87*
21,1,0.027560,0.030710,0.000000,0.000000,270.000000*
21,1,0.022050,0.036220,0.000000,0.000000,270.000000*
1,1,0.005510,-0.015350,-0.011020*
1,1,0.005510,-0.015350,0.011020*
1,1,0.005510,0.015350,0.011020*
1,1,0.005510,0.015350,-0.011020*
%
%AMM9*
21,1,0.074800,0.083460,0.000000,0.000000,180.000000*
21,1,0.059840,0.098430,0.000000,0.000000,180.000000*
1,1,0.014960,-0.029920,0.041730*
1,1,0.014960,0.029920,0.041730*
1,1,0.014960,0.029920,-0.041730*
1,1,0.014960,-0.029920,-0.041730*
%
%AMM90*
21,1,0.070870,0.036220,0.000000,0.000000,270.000000*
21,1,0.061810,0.045280,0.000000,0.000000,270.000000*
1,1,0.009060,-0.018110,-0.030910*
1,1,0.009060,-0.018110,0.030910*
1,1,0.009060,0.018110,0.030910*
1,1,0.009060,0.018110,-0.030910*
%
%AMM91*
21,1,0.035430,0.030320,0.000000,0.000000,90.000000*
21,1,0.028350,0.037400,0.000000,0.000000,90.000000*
1,1,0.007090,0.015160,0.014170*
1,1,0.007090,0.015160,-0.014170*
1,1,0.007090,-0.015160,-0.014170*
1,1,0.007090,-0.015160,0.014170*
%
%AMM92*
21,1,0.043310,0.075980,0.000000,0.000000,180.000000*
21,1,0.034650,0.084650,0.000000,0.000000,180.000000*
1,1,0.008660,-0.017320,0.037990*
1,1,0.008660,0.017320,0.037990*
1,1,0.008660,0.017320,-0.037990*
1,1,0.008660,-0.017320,-0.037990*
%
%AMM93*
21,1,0.043310,0.075990,0.000000,0.000000,180.000000*
21,1,0.034650,0.084650,0.000000,0.000000,180.000000*
1,1,0.008660,-0.017320,0.037990*
1,1,0.008660,0.017320,0.037990*
1,1,0.008660,0.017320,-0.037990*
1,1,0.008660,-0.017320,-0.037990*
%
%AMM94*
21,1,0.137800,0.067720,0.000000,0.000000,180.000000*
21,1,0.120870,0.084650,0.000000,0.000000,180.000000*
1,1,0.016930,-0.060430,0.033860*
1,1,0.016930,0.060430,0.033860*
1,1,0.016930,0.060430,-0.033860*
1,1,0.016930,-0.060430,-0.033860*
%
%AMM95*
21,1,0.025590,0.026380,0.000000,0.000000,90.000000*
21,1,0.020470,0.031500,0.000000,0.000000,90.000000*
1,1,0.005120,0.013190,0.010240*
1,1,0.005120,0.013190,-0.010240*
1,1,0.005120,-0.013190,-0.010240*
1,1,0.005120,-0.013190,0.010240*
%
%AMM96*
21,1,0.017720,0.027950,0.000000,0.000000,90.000000*
21,1,0.014170,0.031500,0.000000,0.000000,90.000000*
1,1,0.003540,0.013980,0.007090*
1,1,0.003540,0.013980,-0.007090*
1,1,0.003540,-0.013980,-0.007090*
1,1,0.003540,-0.013980,0.007090*
%
%AMM97*
21,1,0.035830,0.026770,0.000000,0.000000,90.000000*
21,1,0.029130,0.033470,0.000000,0.000000,90.000000*
1,1,0.006690,0.013390,0.014570*
1,1,0.006690,0.013390,-0.014570*
1,1,0.006690,-0.013390,-0.014570*
1,1,0.006690,-0.013390,0.014570*
%
%ADD102R,0.03543X0.03150*%
%ADD106O,0.01969X0.00984*%
%ADD112M27*%
%ADD115M116*%
%ADD116M7*%
%ADD117M37*%
%ADD118R,0.05906X0.05118*%
%ADD12O,0.05118X0.00866*%
%ADD121M40*%
%ADD13M33*%
%ADD131C,0.02362*%
%ADD137M1*%
%ADD141M114*%
%ADD142M30*%
%ADD154O,0.01968X0.00984*%
%ADD158M38*%
%ADD159O,0.00000X0.00000*%
%ADD160M93*%
%ADD164M71*%
%ADD167M113*%
%ADD174O,0.08661X0.01968*%
%ADD176M90*%
%ADD178M92*%
%ADD181M31*%
%ADD184M15*%
%ADD185M9*%
%ADD189R,0.08000X0.20000*%
%ADD192R,0.45000X0.30000*%
%ADD193M39*%
%ADD194O,0.02362X0.08661*%
%ADD196M91*%
%ADD197M3*%
%ADD200O,0.00984X0.01969*%
%ADD203M72*%
%ADD205M11*%
%ADD212M14*%
%ADD215M2*%
%ADD217M32*%
%ADD221M12*%
%ADD223M8*%
%ADD227M128*%
%ADD230M29*%
%ADD235R,0.06693X0.09449*%
%ADD236O,0.00984X0.01968*%
%ADD238M96*%
%ADD24M112*%
%ADD241M73*%
%ADD249C,0.03150*%
%ADD251O,0.04961X0.00984*%
%ADD254O,0.07087X0.01378*%
%ADD257M13*%
%ADD269O,0.01968X0.03937*%
%ADD285O,0.08661X0.02362*%
%ADD288M118*%
%ADD294R,0.03150X0.08661*%
%ADD297O,0.00866X0.05118*%
%ADD298M34*%
%ADD299R,0.00800X0.06000*%
%ADD300M10*%
%ADD306M74*%
%ADD308M111*%
%ADD311M132*%
%ADD312M133*%
%ADD313M134*%
%ADD314M135*%
%ADD319R,0.02559X0.04803*%
%ADD320R,0.01772X0.05709*%
%ADD321R,0.08661X0.04724*%
%ADD323R,0.12008X0.10827*%
%ADD331M144*%
%ADD332M145*%
%ADD333M146*%
%ADD355M168*%
%ADD356M169*%
%ADD357M170*%
%ADD358M171*%
%ADD359M172*%
%ADD37M87*%
%ADD38M35*%
%ADD41O,0.04331X0.01181*%
%ADD43M75*%
%ADD50R,0.14173X0.10236*%
%ADD52M28*%
%ADD53M115*%
%ADD56M94*%
%ADD58R,0.03150X0.03543*%
%ADD60M16*%
%ADD80M36*%
%ADD87M97*%
%ADD95M95*%
%ADD96M117*%
X0000000Y0000000D02*
%LPD*%
G01*
D189*
X0589839Y0171229D03*
D192*
X0561839Y0171229D03*
D189*
X0533839Y0171229D03*
D294*
X0539339Y0197213D03*
X0544339Y0197213D03*
X0549339Y0197213D03*
X0554339Y0197213D03*
X0559339Y0197213D03*
X0564339Y0197213D03*
X0569339Y0197213D03*
X0574339Y0197213D03*
X0579339Y0197213D03*
X0584339Y0197213D03*
X0584339Y0145245D03*
X0579339Y0145245D03*
X0574339Y0145245D03*
X0569339Y0145245D03*
X0564339Y0145245D03*
X0559339Y0145245D03*
X0554339Y0145245D03*
X0549339Y0145245D03*
X0544339Y0145245D03*
X0539339Y0145245D03*
G36*
G01*
X0134429Y0255315D02*
X0133248Y0255315D01*
G75*
G02*
X0132657Y0255906I0000000J0000591D01*
G01*
X0132657Y0262402D01*
G75*
G02*
X0133248Y0262992I0000591J0000000D01*
G01*
X0134429Y0262992D01*
G75*
G02*
X0135020Y0262402I0000000J-000591D01*
G01*
X0135020Y0255906D01*
G75*
G02*
X0134429Y0255315I-000591J0000000D01*
G01*
G37*
G36*
G01*
X0139429Y0255315D02*
X0138248Y0255315D01*
G75*
G02*
X0137657Y0255906I0000000J0000591D01*
G01*
X0137657Y0262402D01*
G75*
G02*
X0138248Y0262992I0000591J0000000D01*
G01*
X0139429Y0262992D01*
G75*
G02*
X0140020Y0262402I0000000J-000591D01*
G01*
X0140020Y0255906D01*
G75*
G02*
X0139429Y0255315I-000591J0000000D01*
G01*
G37*
G36*
G01*
X0144429Y0255315D02*
X0143248Y0255315D01*
G75*
G02*
X0142657Y0255906I0000000J0000591D01*
G01*
X0142657Y0262402D01*
G75*
G02*
X0143248Y0262992I0000591J0000000D01*
G01*
X0144429Y0262992D01*
G75*
G02*
X0145020Y0262402I0000000J-000591D01*
G01*
X0145020Y0255906D01*
G75*
G02*
X0144429Y0255315I-000591J0000000D01*
G01*
G37*
G36*
G01*
X0149429Y0255315D02*
X0148248Y0255315D01*
G75*
G02*
X0147657Y0255906I0000000J0000591D01*
G01*
X0147657Y0262402D01*
G75*
G02*
X0148248Y0262992I0000591J0000000D01*
G01*
X0149429Y0262992D01*
G75*
G02*
X0150020Y0262402I0000000J-000591D01*
G01*
X0150020Y0255906D01*
G75*
G02*
X0149429Y0255315I-000591J0000000D01*
G01*
G37*
G36*
G01*
X0149429Y0274803D02*
X0148248Y0274803D01*
G75*
G02*
X0147657Y0275394I0000000J0000591D01*
G01*
X0147657Y0281890D01*
G75*
G02*
X0148248Y0282480I0000591J0000000D01*
G01*
X0149429Y0282480D01*
G75*
G02*
X0150020Y0281890I0000000J-000591D01*
G01*
X0150020Y0275394D01*
G75*
G02*
X0149429Y0274803I-000591J0000000D01*
G01*
G37*
G36*
G01*
X0144429Y0274803D02*
X0143248Y0274803D01*
G75*
G02*
X0142657Y0275394I0000000J0000591D01*
G01*
X0142657Y0281890D01*
G75*
G02*
X0143248Y0282480I0000591J0000000D01*
G01*
X0144429Y0282480D01*
G75*
G02*
X0145020Y0281890I0000000J-000591D01*
G01*
X0145020Y0275394D01*
G75*
G02*
X0144429Y0274803I-000591J0000000D01*
G01*
G37*
G36*
G01*
X0139429Y0274803D02*
X0138248Y0274803D01*
G75*
G02*
X0137657Y0275394I0000000J0000591D01*
G01*
X0137657Y0281890D01*
G75*
G02*
X0138248Y0282480I0000591J0000000D01*
G01*
X0139429Y0282480D01*
G75*
G02*
X0140020Y0281890I0000000J-000591D01*
G01*
X0140020Y0275394D01*
G75*
G02*
X0139429Y0274803I-000591J0000000D01*
G01*
G37*
G36*
G01*
X0134429Y0274803D02*
X0133248Y0274803D01*
G75*
G02*
X0132657Y0275394I0000000J0000591D01*
G01*
X0132657Y0281890D01*
G75*
G02*
X0133248Y0282480I0000591J0000000D01*
G01*
X0134429Y0282480D01*
G75*
G02*
X0135020Y0281890I0000000J-000591D01*
G01*
X0135020Y0275394D01*
G75*
G02*
X0134429Y0274803I-000591J0000000D01*
G01*
G37*
G36*
G01*
X0202205Y0420925D02*
X0204882Y0420925D01*
G75*
G02*
X0205217Y0420591I0000000J-000335D01*
G01*
X0205217Y0417913D01*
G75*
G02*
X0204882Y0417579I-000335J0000000D01*
G01*
X0202205Y0417579D01*
G75*
G02*
X0201870Y0417913I0000000J0000335D01*
G01*
X0201870Y0420591D01*
G75*
G02*
X0202205Y0420925I0000335J0000000D01*
G01*
G37*
G36*
G01*
X0202205Y0414705D02*
X0204882Y0414705D01*
G75*
G02*
X0205217Y0414370I0000000J-000335D01*
G01*
X0205217Y0411693D01*
G75*
G02*
X0204882Y0411358I-000335J0000000D01*
G01*
X0202205Y0411358D01*
G75*
G02*
X0201870Y0411693I0000000J0000335D01*
G01*
X0201870Y0414370D01*
G75*
G02*
X0202205Y0414705I0000335J0000000D01*
G01*
G37*
G36*
G01*
X0305276Y0392067D02*
X0302598Y0392067D01*
G75*
G02*
X0302264Y0392402I0000000J0000335D01*
G01*
X0302264Y0395079D01*
G75*
G02*
X0302598Y0395413I0000335J0000000D01*
G01*
X0305276Y0395413D01*
G75*
G02*
X0305610Y0395079I0000000J-000335D01*
G01*
X0305610Y0392402D01*
G75*
G02*
X0305276Y0392067I-000335J0000000D01*
G01*
G37*
G36*
G01*
X0305276Y0398287D02*
X0302598Y0398287D01*
G75*
G02*
X0302264Y0398622I0000000J0000335D01*
G01*
X0302264Y0401299D01*
G75*
G02*
X0302598Y0401634I0000335J0000000D01*
G01*
X0305276Y0401634D01*
G75*
G02*
X0305610Y0401299I0000000J-000335D01*
G01*
X0305610Y0398622D01*
G75*
G02*
X0305276Y0398287I-000335J0000000D01*
G01*
G37*
D159*
X0180758Y0383983D03*
X0376167Y0190345D03*
G36*
G01*
X0056346Y0356319D02*
X0056346Y0361201D01*
G75*
G02*
X0056858Y0361713I0000512J0000000D01*
G01*
X0060953Y0361713D01*
G75*
G02*
X0061465Y0361201I0000000J-000512D01*
G01*
X0061465Y0356319D01*
G75*
G02*
X0060953Y0355807I-000512J0000000D01*
G01*
X0056858Y0355807D01*
G75*
G02*
X0056346Y0356319I0000000J0000512D01*
G01*
G37*
G36*
G01*
X0048866Y0356319D02*
X0048866Y0361201D01*
G75*
G02*
X0049378Y0361713I0000512J0000000D01*
G01*
X0053472Y0361713D01*
G75*
G02*
X0053984Y0361201I0000000J-000512D01*
G01*
X0053984Y0356319D01*
G75*
G02*
X0053472Y0355807I-000512J0000000D01*
G01*
X0049378Y0355807D01*
G75*
G02*
X0048866Y0356319I0000000J0000512D01*
G01*
G37*
G36*
G01*
X0031791Y0123524D02*
X0036713Y0123524D01*
G75*
G02*
X0037106Y0123130I0000000J-000394D01*
G01*
X0037106Y0119980D01*
G75*
G02*
X0036713Y0119587I-000394J0000000D01*
G01*
X0031791Y0119587D01*
G75*
G02*
X0031398Y0119980I0000000J0000394D01*
G01*
X0031398Y0123130D01*
G75*
G02*
X0031791Y0123524I0000394J0000000D01*
G01*
G37*
D299*
X0034252Y0122815D03*
X0034252Y0112815D03*
G36*
G01*
X0031791Y0116043D02*
X0036713Y0116043D01*
G75*
G02*
X0037106Y0115650I0000000J-000394D01*
G01*
X0037106Y0112500D01*
G75*
G02*
X0036713Y0112106I-000394J0000000D01*
G01*
X0031791Y0112106D01*
G75*
G02*
X0031398Y0112500I0000000J0000394D01*
G01*
X0031398Y0115650D01*
G75*
G02*
X0031791Y0116043I0000394J0000000D01*
G01*
G37*
G36*
G01*
X0217421Y0105315D02*
X0212500Y0105315D01*
G75*
G02*
X0212106Y0105709I0000000J0000394D01*
G01*
X0212106Y0108858D01*
G75*
G02*
X0212500Y0109252I0000394J0000000D01*
G01*
X0217421Y0109252D01*
G75*
G02*
X0217815Y0108858I0000000J-000394D01*
G01*
X0217815Y0105709D01*
G75*
G02*
X0217421Y0105315I-000394J0000000D01*
G01*
G37*
X0214961Y0106024D03*
G36*
G01*
X0217421Y0112795D02*
X0212500Y0112795D01*
G75*
G02*
X0212106Y0113189I0000000J0000394D01*
G01*
X0212106Y0116339D01*
G75*
G02*
X0212500Y0116732I0000394J0000000D01*
G01*
X0217421Y0116732D01*
G75*
G02*
X0217815Y0116339I0000000J-000394D01*
G01*
X0217815Y0113189D01*
G75*
G02*
X0217421Y0112795I-000394J0000000D01*
G01*
G37*
X0214961Y0116024D03*
G36*
G01*
X0030421Y0376870D02*
X0033059Y0376870D01*
G75*
G02*
X0033315Y0376614I0000000J-000256D01*
G01*
X0033315Y0374567D01*
G75*
G02*
X0033059Y0374311I-000256J0000000D01*
G01*
X0030421Y0374311D01*
G75*
G02*
X0030165Y0374567I0000000J0000256D01*
G01*
X0030165Y0376614D01*
G75*
G02*
X0030421Y0376870I0000256J0000000D01*
G01*
G37*
G36*
G01*
X0030343Y0373031D02*
X0033138Y0373031D01*
G75*
G02*
X0033315Y0372854I0000000J-000177D01*
G01*
X0033315Y0371437D01*
G75*
G02*
X0033138Y0371260I-000177J0000000D01*
G01*
X0030343Y0371260D01*
G75*
G02*
X0030165Y0371437I0000000J0000177D01*
G01*
X0030165Y0372854D01*
G75*
G02*
X0030343Y0373031I0000177J0000000D01*
G01*
G37*
G36*
G01*
X0030343Y0369882D02*
X0033138Y0369882D01*
G75*
G02*
X0033315Y0369705I0000000J-000177D01*
G01*
X0033315Y0368287D01*
G75*
G02*
X0033138Y0368110I-000177J0000000D01*
G01*
X0030343Y0368110D01*
G75*
G02*
X0030165Y0368287I0000000J0000177D01*
G01*
X0030165Y0369705D01*
G75*
G02*
X0030343Y0369882I0000177J0000000D01*
G01*
G37*
G36*
G01*
X0030421Y0366831D02*
X0033059Y0366831D01*
G75*
G02*
X0033315Y0366575I0000000J-000256D01*
G01*
X0033315Y0364528D01*
G75*
G02*
X0033059Y0364272I-000256J0000000D01*
G01*
X0030421Y0364272D01*
G75*
G02*
X0030165Y0364528I0000000J0000256D01*
G01*
X0030165Y0366575D01*
G75*
G02*
X0030421Y0366831I0000256J0000000D01*
G01*
G37*
G36*
G01*
X0037508Y0366831D02*
X0040146Y0366831D01*
G75*
G02*
X0040402Y0366575I0000000J-000256D01*
G01*
X0040402Y0364528D01*
G75*
G02*
X0040146Y0364272I-000256J0000000D01*
G01*
X0037508Y0364272D01*
G75*
G02*
X0037252Y0364528I0000000J0000256D01*
G01*
X0037252Y0366575D01*
G75*
G02*
X0037508Y0366831I0000256J0000000D01*
G01*
G37*
G36*
G01*
X0037429Y0369882D02*
X0040224Y0369882D01*
G75*
G02*
X0040402Y0369705I0000000J-000177D01*
G01*
X0040402Y0368287D01*
G75*
G02*
X0040224Y0368110I-000177J0000000D01*
G01*
X0037429Y0368110D01*
G75*
G02*
X0037252Y0368287I0000000J0000177D01*
G01*
X0037252Y0369705D01*
G75*
G02*
X0037429Y0369882I0000177J0000000D01*
G01*
G37*
G36*
G01*
X0037429Y0373031D02*
X0040224Y0373031D01*
G75*
G02*
X0040402Y0372854I0000000J-000177D01*
G01*
X0040402Y0371437D01*
G75*
G02*
X0040224Y0371260I-000177J0000000D01*
G01*
X0037429Y0371260D01*
G75*
G02*
X0037252Y0371437I0000000J0000177D01*
G01*
X0037252Y0372854D01*
G75*
G02*
X0037429Y0373031I0000177J0000000D01*
G01*
G37*
G36*
G01*
X0037508Y0376870D02*
X0040146Y0376870D01*
G75*
G02*
X0040402Y0376614I0000000J-000256D01*
G01*
X0040402Y0374567D01*
G75*
G02*
X0040146Y0374311I-000256J0000000D01*
G01*
X0037508Y0374311D01*
G75*
G02*
X0037252Y0374567I0000000J0000256D01*
G01*
X0037252Y0376614D01*
G75*
G02*
X0037508Y0376870I0000256J0000000D01*
G01*
G37*
G36*
G01*
X0571346Y0212331D02*
X0571346Y0209654D01*
G75*
G02*
X0571012Y0209320I-000335J0000000D01*
G01*
X0568335Y0209320D01*
G75*
G02*
X0568000Y0209654I0000000J0000335D01*
G01*
X0568000Y0212331D01*
G75*
G02*
X0568335Y0212666I0000335J0000000D01*
G01*
X0571012Y0212666D01*
G75*
G02*
X0571346Y0212331I0000000J-000335D01*
G01*
G37*
G36*
G01*
X0565126Y0212331D02*
X0565126Y0209654D01*
G75*
G02*
X0564791Y0209320I-000335J0000000D01*
G01*
X0562114Y0209320D01*
G75*
G02*
X0561780Y0209654I0000000J0000335D01*
G01*
X0561780Y0212331D01*
G75*
G02*
X0562114Y0212666I0000335J0000000D01*
G01*
X0564791Y0212666D01*
G75*
G02*
X0565126Y0212331I0000000J-000335D01*
G01*
G37*
G36*
G01*
X0528984Y0126394D02*
X0528984Y0130134D01*
G75*
G02*
X0529969Y0131118I0000984J0000000D01*
G01*
X0531937Y0131118D01*
G75*
G02*
X0532921Y0130134I0000000J-000984D01*
G01*
X0532921Y0126394D01*
G75*
G02*
X0531937Y0125409I-000984J0000000D01*
G01*
X0529969Y0125409D01*
G75*
G02*
X0528984Y0126394I0000000J0000984D01*
G01*
G37*
G36*
G01*
X0536465Y0126394D02*
X0536465Y0130134D01*
G75*
G02*
X0537449Y0131118I0000984J0000000D01*
G01*
X0539417Y0131118D01*
G75*
G02*
X0540402Y0130134I0000000J-000984D01*
G01*
X0540402Y0126394D01*
G75*
G02*
X0539417Y0125409I-000984J0000000D01*
G01*
X0537449Y0125409D01*
G75*
G02*
X0536465Y0126394I0000000J0000984D01*
G01*
G37*
G36*
G01*
X0192815Y0104724D02*
X0187894Y0104724D01*
G75*
G02*
X0187500Y0105118I0000000J0000394D01*
G01*
X0187500Y0108268D01*
G75*
G02*
X0187894Y0108661I0000394J0000000D01*
G01*
X0192815Y0108661D01*
G75*
G02*
X0193209Y0108268I0000000J-000394D01*
G01*
X0193209Y0105118D01*
G75*
G02*
X0192815Y0104724I-000394J0000000D01*
G01*
G37*
X0190354Y0105433D03*
X0190354Y0115433D03*
G36*
G01*
X0192815Y0112205D02*
X0187894Y0112205D01*
G75*
G02*
X0187500Y0112599I0000000J0000394D01*
G01*
X0187500Y0115748D01*
G75*
G02*
X0187894Y0116142I0000394J0000000D01*
G01*
X0192815Y0116142D01*
G75*
G02*
X0193209Y0115748I0000000J-000394D01*
G01*
X0193209Y0112599D01*
G75*
G02*
X0192815Y0112205I-000394J0000000D01*
G01*
G37*
X0488484Y0107283D03*
X0488484Y0123032D03*
D159*
X0099803Y0294291D03*
G36*
G01*
X0056346Y0379941D02*
X0056346Y0384823D01*
G75*
G02*
X0056858Y0385335I0000512J0000000D01*
G01*
X0060953Y0385335D01*
G75*
G02*
X0061465Y0384823I0000000J-000512D01*
G01*
X0061465Y0379941D01*
G75*
G02*
X0060953Y0379429I-000512J0000000D01*
G01*
X0056858Y0379429D01*
G75*
G02*
X0056346Y0379941I0000000J0000512D01*
G01*
G37*
G36*
G01*
X0048866Y0379941D02*
X0048866Y0384823D01*
G75*
G02*
X0049378Y0385335I0000512J0000000D01*
G01*
X0053472Y0385335D01*
G75*
G02*
X0053984Y0384823I0000000J-000512D01*
G01*
X0053984Y0379941D01*
G75*
G02*
X0053472Y0379429I-000512J0000000D01*
G01*
X0049378Y0379429D01*
G75*
G02*
X0048866Y0379941I0000000J0000512D01*
G01*
G37*
G36*
G01*
X0141791Y0289134D02*
X0141791Y0286457D01*
G75*
G02*
X0141457Y0286122I-000335J0000000D01*
G01*
X0138780Y0286122D01*
G75*
G02*
X0138445Y0286457I0000000J0000335D01*
G01*
X0138445Y0289134D01*
G75*
G02*
X0138780Y0289469I0000335J0000000D01*
G01*
X0141457Y0289469D01*
G75*
G02*
X0141791Y0289134I0000000J-000335D01*
G01*
G37*
G36*
G01*
X0135571Y0289134D02*
X0135571Y0286457D01*
G75*
G02*
X0135236Y0286122I-000335J0000000D01*
G01*
X0132559Y0286122D01*
G75*
G02*
X0132224Y0286457I0000000J0000335D01*
G01*
X0132224Y0289134D01*
G75*
G02*
X0132559Y0289469I0000335J0000000D01*
G01*
X0135236Y0289469D01*
G75*
G02*
X0135571Y0289134I0000000J-000335D01*
G01*
G37*
G36*
G01*
X0238354Y0418898D02*
X0245598Y0418898D01*
G75*
G02*
X0245913Y0418583I0000000J-000315D01*
G01*
X0245913Y0416063D01*
G75*
G02*
X0245598Y0415748I-000315J0000000D01*
G01*
X0238354Y0415748D01*
G75*
G02*
X0238039Y0416063I0000000J0000315D01*
G01*
X0238039Y0418583D01*
G75*
G02*
X0238354Y0418898I0000315J0000000D01*
G01*
G37*
G36*
G01*
X0238354Y0402362D02*
X0245598Y0402362D01*
G75*
G02*
X0245913Y0402047I0000000J-000315D01*
G01*
X0245913Y0399528D01*
G75*
G02*
X0245598Y0399213I-000315J0000000D01*
G01*
X0238354Y0399213D01*
G75*
G02*
X0238039Y0399528I0000000J0000315D01*
G01*
X0238039Y0402047D01*
G75*
G02*
X0238354Y0402362I0000315J0000000D01*
G01*
G37*
D50*
X0529921Y0364961D03*
X0529921Y0249606D03*
G36*
G01*
X0561878Y0224182D02*
X0564949Y0224182D01*
G75*
G02*
X0565224Y0223906I0000000J-000276D01*
G01*
X0565224Y0221701D01*
G75*
G02*
X0564949Y0221426I-000276J0000000D01*
G01*
X0561878Y0221426D01*
G75*
G02*
X0561602Y0221701I0000000J0000276D01*
G01*
X0561602Y0223906D01*
G75*
G02*
X0561878Y0224182I0000276J0000000D01*
G01*
G37*
G36*
G01*
X0561878Y0217883D02*
X0564949Y0217883D01*
G75*
G02*
X0565224Y0217607I0000000J-000276D01*
G01*
X0565224Y0215402D01*
G75*
G02*
X0564949Y0215127I-000276J0000000D01*
G01*
X0561878Y0215127D01*
G75*
G02*
X0561602Y0215402I0000000J0000276D01*
G01*
X0561602Y0217607D01*
G75*
G02*
X0561878Y0217883I0000276J0000000D01*
G01*
G37*
G36*
G01*
X0213386Y0410630D02*
X0212598Y0410630D01*
G75*
G02*
X0212205Y0411024I0000000J0000394D01*
G01*
X0212205Y0412402D01*
G75*
G02*
X0212598Y0412795I0000394J0000000D01*
G01*
X0213386Y0412795D01*
G75*
G02*
X0213780Y0412402I0000000J-000394D01*
G01*
X0213780Y0411024D01*
G75*
G02*
X0213386Y0410630I-000394J0000000D01*
G01*
G37*
G36*
G01*
X0215748Y0410630D02*
X0214961Y0410630D01*
G75*
G02*
X0214567Y0411024I0000000J0000394D01*
G01*
X0214567Y0412402D01*
G75*
G02*
X0214961Y0412795I0000394J0000000D01*
G01*
X0215748Y0412795D01*
G75*
G02*
X0216142Y0412402I0000000J-000394D01*
G01*
X0216142Y0411024D01*
G75*
G02*
X0215748Y0410630I-000394J0000000D01*
G01*
G37*
G36*
G01*
X0218504Y0412205D02*
X0217126Y0412205D01*
G75*
G02*
X0216732Y0412598I0000000J0000394D01*
G01*
X0216732Y0413386D01*
G75*
G02*
X0217126Y0413780I0000394J0000000D01*
G01*
X0218504Y0413780D01*
G75*
G02*
X0218898Y0413386I0000000J-000394D01*
G01*
X0218898Y0412598D01*
G75*
G02*
X0218504Y0412205I-000394J0000000D01*
G01*
G37*
G36*
G01*
X0218504Y0414567D02*
X0217126Y0414567D01*
G75*
G02*
X0216732Y0414961I0000000J0000394D01*
G01*
X0216732Y0415748D01*
G75*
G02*
X0217126Y0416142I0000394J0000000D01*
G01*
X0218504Y0416142D01*
G75*
G02*
X0218898Y0415748I0000000J-000394D01*
G01*
X0218898Y0414961D01*
G75*
G02*
X0218504Y0414567I-000394J0000000D01*
G01*
G37*
G36*
G01*
X0218504Y0416929D02*
X0217126Y0416929D01*
G75*
G02*
X0216732Y0417323I0000000J0000394D01*
G01*
X0216732Y0418110D01*
G75*
G02*
X0217126Y0418504I0000394J0000000D01*
G01*
X0218504Y0418504D01*
G75*
G02*
X0218898Y0418110I0000000J-000394D01*
G01*
X0218898Y0417323D01*
G75*
G02*
X0218504Y0416929I-000394J0000000D01*
G01*
G37*
G36*
G01*
X0215748Y0417913D02*
X0214961Y0417913D01*
G75*
G02*
X0214567Y0418307I0000000J0000394D01*
G01*
X0214567Y0419685D01*
G75*
G02*
X0214961Y0420079I0000394J0000000D01*
G01*
X0215748Y0420079D01*
G75*
G02*
X0216142Y0419685I0000000J-000394D01*
G01*
X0216142Y0418307D01*
G75*
G02*
X0215748Y0417913I-000394J0000000D01*
G01*
G37*
G36*
G01*
X0213386Y0417913D02*
X0212598Y0417913D01*
G75*
G02*
X0212205Y0418307I0000000J0000394D01*
G01*
X0212205Y0419685D01*
G75*
G02*
X0212598Y0420079I0000394J0000000D01*
G01*
X0213386Y0420079D01*
G75*
G02*
X0213780Y0419685I0000000J-000394D01*
G01*
X0213780Y0418307D01*
G75*
G02*
X0213386Y0417913I-000394J0000000D01*
G01*
G37*
G36*
G01*
X0211220Y0416929D02*
X0209843Y0416929D01*
G75*
G02*
X0209449Y0417323I0000000J0000394D01*
G01*
X0209449Y0418110D01*
G75*
G02*
X0209843Y0418504I0000394J0000000D01*
G01*
X0211220Y0418504D01*
G75*
G02*
X0211614Y0418110I0000000J-000394D01*
G01*
X0211614Y0417323D01*
G75*
G02*
X0211220Y0416929I-000394J0000000D01*
G01*
G37*
G36*
G01*
X0211220Y0414567D02*
X0209843Y0414567D01*
G75*
G02*
X0209449Y0414961I0000000J0000394D01*
G01*
X0209449Y0415748D01*
G75*
G02*
X0209843Y0416142I0000394J0000000D01*
G01*
X0211220Y0416142D01*
G75*
G02*
X0211614Y0415748I0000000J-000394D01*
G01*
X0211614Y0414961D01*
G75*
G02*
X0211220Y0414567I-000394J0000000D01*
G01*
G37*
G36*
G01*
X0211220Y0412205D02*
X0209843Y0412205D01*
G75*
G02*
X0209449Y0412598I0000000J0000394D01*
G01*
X0209449Y0413386D01*
G75*
G02*
X0209843Y0413780I0000394J0000000D01*
G01*
X0211220Y0413780D01*
G75*
G02*
X0211614Y0413386I0000000J-000394D01*
G01*
X0211614Y0412598D01*
G75*
G02*
X0211220Y0412205I-000394J0000000D01*
G01*
G37*
G36*
G01*
X0060244Y0365453D02*
X0058354Y0365453D01*
G75*
G02*
X0058118Y0365689I0000000J0000236D01*
G01*
X0058118Y0367579D01*
G75*
G02*
X0058354Y0367815I0000236J0000000D01*
G01*
X0060244Y0367815D01*
G75*
G02*
X0060480Y0367579I0000000J-000236D01*
G01*
X0060480Y0365689D01*
G75*
G02*
X0060244Y0365453I-000236J0000000D01*
G01*
G37*
G36*
G01*
X0051583Y0365453D02*
X0049693Y0365453D01*
G75*
G02*
X0049457Y0365689I0000000J0000236D01*
G01*
X0049457Y0367579D01*
G75*
G02*
X0049693Y0367815I0000236J0000000D01*
G01*
X0051583Y0367815D01*
G75*
G02*
X0051819Y0367579I0000000J-000236D01*
G01*
X0051819Y0365689D01*
G75*
G02*
X0051583Y0365453I-000236J0000000D01*
G01*
G37*
G36*
G01*
X0209744Y0399803D02*
X0209744Y0402874D01*
G75*
G02*
X0210020Y0403150I0000276J0000000D01*
G01*
X0212224Y0403150D01*
G75*
G02*
X0212500Y0402874I0000000J-000276D01*
G01*
X0212500Y0399803D01*
G75*
G02*
X0212224Y0399528I-000276J0000000D01*
G01*
X0210020Y0399528D01*
G75*
G02*
X0209744Y0399803I0000000J0000276D01*
G01*
G37*
G36*
G01*
X0216043Y0399803D02*
X0216043Y0402874D01*
G75*
G02*
X0216319Y0403150I0000276J0000000D01*
G01*
X0218524Y0403150D01*
G75*
G02*
X0218799Y0402874I0000000J-000276D01*
G01*
X0218799Y0399803D01*
G75*
G02*
X0218524Y0399528I-000276J0000000D01*
G01*
X0216319Y0399528D01*
G75*
G02*
X0216043Y0399803I0000000J0000276D01*
G01*
G37*
G36*
G01*
X0049902Y0123720D02*
X0054823Y0123720D01*
G75*
G02*
X0055217Y0123327I0000000J-000394D01*
G01*
X0055217Y0120177D01*
G75*
G02*
X0054823Y0119783I-000394J0000000D01*
G01*
X0049902Y0119783D01*
G75*
G02*
X0049508Y0120177I0000000J0000394D01*
G01*
X0049508Y0123327D01*
G75*
G02*
X0049902Y0123720I0000394J0000000D01*
G01*
G37*
D299*
X0052362Y0123012D03*
G36*
G01*
X0049902Y0116240D02*
X0054823Y0116240D01*
G75*
G02*
X0055217Y0115846I0000000J-000394D01*
G01*
X0055217Y0112697D01*
G75*
G02*
X0054823Y0112303I-000394J0000000D01*
G01*
X0049902Y0112303D01*
G75*
G02*
X0049508Y0112697I0000000J0000394D01*
G01*
X0049508Y0115846D01*
G75*
G02*
X0049902Y0116240I0000394J0000000D01*
G01*
G37*
X0052362Y0113012D03*
G36*
G01*
X0060244Y0373327D02*
X0058354Y0373327D01*
G75*
G02*
X0058118Y0373563I0000000J0000236D01*
G01*
X0058118Y0375453D01*
G75*
G02*
X0058354Y0375689I0000236J0000000D01*
G01*
X0060244Y0375689D01*
G75*
G02*
X0060480Y0375453I0000000J-000236D01*
G01*
X0060480Y0373563D01*
G75*
G02*
X0060244Y0373327I-000236J0000000D01*
G01*
G37*
G36*
G01*
X0051583Y0373327D02*
X0049693Y0373327D01*
G75*
G02*
X0049457Y0373563I0000000J0000236D01*
G01*
X0049457Y0375453D01*
G75*
G02*
X0049693Y0375689I0000236J0000000D01*
G01*
X0051583Y0375689D01*
G75*
G02*
X0051819Y0375453I0000000J-000236D01*
G01*
X0051819Y0373563D01*
G75*
G02*
X0051583Y0373327I-000236J0000000D01*
G01*
G37*
G36*
G01*
X0205610Y0104724D02*
X0200689Y0104724D01*
G75*
G02*
X0200295Y0105118I0000000J0000394D01*
G01*
X0200295Y0108268D01*
G75*
G02*
X0200689Y0108661I0000394J0000000D01*
G01*
X0205610Y0108661D01*
G75*
G02*
X0206004Y0108268I0000000J-000394D01*
G01*
X0206004Y0105118D01*
G75*
G02*
X0205610Y0104724I-000394J0000000D01*
G01*
G37*
X0203150Y0105433D03*
G36*
G01*
X0205610Y0112205D02*
X0200689Y0112205D01*
G75*
G02*
X0200295Y0112599I0000000J0000394D01*
G01*
X0200295Y0115748D01*
G75*
G02*
X0200689Y0116142I0000394J0000000D01*
G01*
X0205610Y0116142D01*
G75*
G02*
X0206004Y0115748I0000000J-000394D01*
G01*
X0206004Y0112599D01*
G75*
G02*
X0205610Y0112205I-000394J0000000D01*
G01*
G37*
X0203150Y0115433D03*
D106*
X0321457Y0152362D03*
X0321457Y0145571D03*
X0321457Y0138780D03*
X0321457Y0132087D03*
D200*
X0269488Y0158169D03*
D106*
X0246827Y0134463D03*
X0246850Y0148720D03*
G36*
G01*
X0534496Y0227575D02*
X0534496Y0231315D01*
G75*
G02*
X0535480Y0232299I0000984J0000000D01*
G01*
X0537449Y0232299D01*
G75*
G02*
X0538433Y0231315I0000000J-000984D01*
G01*
X0538433Y0227575D01*
G75*
G02*
X0537449Y0226591I-000984J0000000D01*
G01*
X0535480Y0226591D01*
G75*
G02*
X0534496Y0227575I0000000J0000984D01*
G01*
G37*
G36*
G01*
X0541976Y0227575D02*
X0541976Y0231315D01*
G75*
G02*
X0542961Y0232299I0000984J0000000D01*
G01*
X0544929Y0232299D01*
G75*
G02*
X0545913Y0231315I0000000J-000984D01*
G01*
X0545913Y0227575D01*
G75*
G02*
X0544929Y0226591I-000984J0000000D01*
G01*
X0542961Y0226591D01*
G75*
G02*
X0541976Y0227575I0000000J0000984D01*
G01*
G37*
G36*
G01*
X0519921Y0375591D02*
X0521811Y0375591D01*
G75*
G02*
X0522047Y0375354I0000000J-000236D01*
G01*
X0522047Y0373465D01*
G75*
G02*
X0521811Y0373228I-000236J0000000D01*
G01*
X0519921Y0373228D01*
G75*
G02*
X0519685Y0373465I0000000J0000236D01*
G01*
X0519685Y0375354D01*
G75*
G02*
X0519921Y0375591I0000236J0000000D01*
G01*
G37*
G36*
G01*
X0528583Y0375591D02*
X0530472Y0375591D01*
G75*
G02*
X0530709Y0375354I0000000J-000236D01*
G01*
X0530709Y0373465D01*
G75*
G02*
X0530472Y0373228I-000236J0000000D01*
G01*
X0528583Y0373228D01*
G75*
G02*
X0528346Y0373465I0000000J0000236D01*
G01*
X0528346Y0375354D01*
G75*
G02*
X0528583Y0375591I0000236J0000000D01*
G01*
G37*
G36*
G01*
X0224843Y0163780D02*
X0227913Y0163780D01*
G75*
G02*
X0228189Y0163504I0000000J-000276D01*
G01*
X0228189Y0161299D01*
G75*
G02*
X0227913Y0161024I-000276J0000000D01*
G01*
X0224843Y0161024D01*
G75*
G02*
X0224567Y0161299I0000000J0000276D01*
G01*
X0224567Y0163504D01*
G75*
G02*
X0224843Y0163780I0000276J0000000D01*
G01*
G37*
G36*
G01*
X0224843Y0157480D02*
X0227913Y0157480D01*
G75*
G02*
X0228189Y0157205I0000000J-000276D01*
G01*
X0228189Y0155000D01*
G75*
G02*
X0227913Y0154724I-000276J0000000D01*
G01*
X0224843Y0154724D01*
G75*
G02*
X0224567Y0155000I0000000J0000276D01*
G01*
X0224567Y0157205D01*
G75*
G02*
X0224843Y0157480I0000276J0000000D01*
G01*
G37*
G36*
G01*
X0222480Y0423031D02*
X0225551Y0423031D01*
G75*
G02*
X0225827Y0422756I0000000J-000276D01*
G01*
X0225827Y0420551D01*
G75*
G02*
X0225551Y0420276I-000276J0000000D01*
G01*
X0222480Y0420276D01*
G75*
G02*
X0222205Y0420551I0000000J0000276D01*
G01*
X0222205Y0422756D01*
G75*
G02*
X0222480Y0423031I0000276J0000000D01*
G01*
G37*
G36*
G01*
X0222480Y0416732D02*
X0225551Y0416732D01*
G75*
G02*
X0225827Y0416457I0000000J-000276D01*
G01*
X0225827Y0414252D01*
G75*
G02*
X0225551Y0413976I-000276J0000000D01*
G01*
X0222480Y0413976D01*
G75*
G02*
X0222205Y0414252I0000000J0000276D01*
G01*
X0222205Y0416457D01*
G75*
G02*
X0222480Y0416732I0000276J0000000D01*
G01*
G37*
G36*
G01*
X0534496Y0211039D02*
X0534496Y0214780D01*
G75*
G02*
X0535480Y0215764I0000984J0000000D01*
G01*
X0537449Y0215764D01*
G75*
G02*
X0538433Y0214780I0000000J-000984D01*
G01*
X0538433Y0211039D01*
G75*
G02*
X0537449Y0210055I-000984J0000000D01*
G01*
X0535480Y0210055D01*
G75*
G02*
X0534496Y0211039I0000000J0000984D01*
G01*
G37*
G36*
G01*
X0541976Y0211039D02*
X0541976Y0214780D01*
G75*
G02*
X0542961Y0215764I0000984J0000000D01*
G01*
X0544929Y0215764D01*
G75*
G02*
X0545913Y0214780I0000000J-000984D01*
G01*
X0545913Y0211039D01*
G75*
G02*
X0544929Y0210055I-000984J0000000D01*
G01*
X0542961Y0210055D01*
G75*
G02*
X0541976Y0211039I0000000J0000984D01*
G01*
G37*
G36*
G01*
X0184843Y0104803D02*
X0179921Y0104803D01*
G75*
G02*
X0179528Y0105197I0000000J0000394D01*
G01*
X0179528Y0108346D01*
G75*
G02*
X0179921Y0108740I0000394J0000000D01*
G01*
X0184843Y0108740D01*
G75*
G02*
X0185236Y0108346I0000000J-000394D01*
G01*
X0185236Y0105197D01*
G75*
G02*
X0184843Y0104803I-000394J0000000D01*
G01*
G37*
D299*
X0182382Y0105512D03*
G36*
G01*
X0184843Y0112284D02*
X0179921Y0112284D01*
G75*
G02*
X0179528Y0112677I0000000J0000394D01*
G01*
X0179528Y0115827D01*
G75*
G02*
X0179921Y0116221I0000394J0000000D01*
G01*
X0184843Y0116221D01*
G75*
G02*
X0185236Y0115827I0000000J-000394D01*
G01*
X0185236Y0112677D01*
G75*
G02*
X0184843Y0112284I-000394J0000000D01*
G01*
G37*
X0182382Y0115512D03*
X0061417Y0123012D03*
G36*
G01*
X0058957Y0123721D02*
X0063878Y0123721D01*
G75*
G02*
X0064272Y0123327I0000000J-000394D01*
G01*
X0064272Y0120177D01*
G75*
G02*
X0063878Y0119784I-000394J0000000D01*
G01*
X0058957Y0119784D01*
G75*
G02*
X0058563Y0120177I0000000J0000394D01*
G01*
X0058563Y0123327D01*
G75*
G02*
X0058957Y0123721I0000394J0000000D01*
G01*
G37*
X0061417Y0113012D03*
G36*
G01*
X0058957Y0116240D02*
X0063878Y0116240D01*
G75*
G02*
X0064272Y0115846I0000000J-000394D01*
G01*
X0064272Y0112697D01*
G75*
G02*
X0063878Y0112303I-000394J0000000D01*
G01*
X0058957Y0112303D01*
G75*
G02*
X0058563Y0112697I0000000J0000394D01*
G01*
X0058563Y0115846D01*
G75*
G02*
X0058957Y0116240I0000394J0000000D01*
G01*
G37*
X0499902Y0107283D03*
X0499902Y0123032D03*
G36*
G01*
X0528984Y0118126D02*
X0528984Y0121866D01*
G75*
G02*
X0529969Y0122850I0000984J0000000D01*
G01*
X0531937Y0122850D01*
G75*
G02*
X0532921Y0121866I0000000J-000984D01*
G01*
X0532921Y0118126D01*
G75*
G02*
X0531937Y0117142I-000984J0000000D01*
G01*
X0529969Y0117142D01*
G75*
G02*
X0528984Y0118126I0000000J0000984D01*
G01*
G37*
G36*
G01*
X0536465Y0118126D02*
X0536465Y0121866D01*
G75*
G02*
X0537449Y0122850I0000984J0000000D01*
G01*
X0539417Y0122850D01*
G75*
G02*
X0540402Y0121866I0000000J-000984D01*
G01*
X0540402Y0118126D01*
G75*
G02*
X0539417Y0117142I-000984J0000000D01*
G01*
X0537449Y0117142D01*
G75*
G02*
X0536465Y0118126I0000000J0000984D01*
G01*
G37*
G36*
G01*
X0557961Y0217056D02*
X0557961Y0214379D01*
G75*
G02*
X0557626Y0214044I-000335J0000000D01*
G01*
X0554949Y0214044D01*
G75*
G02*
X0554614Y0214379I0000000J0000335D01*
G01*
X0554614Y0217056D01*
G75*
G02*
X0554949Y0217390I0000335J0000000D01*
G01*
X0557626Y0217390D01*
G75*
G02*
X0557961Y0217056I0000000J-000335D01*
G01*
G37*
G36*
G01*
X0551740Y0217056D02*
X0551740Y0214379D01*
G75*
G02*
X0551406Y0214044I-000335J0000000D01*
G01*
X0548728Y0214044D01*
G75*
G02*
X0548394Y0214379I0000000J0000335D01*
G01*
X0548394Y0217056D01*
G75*
G02*
X0548728Y0217390I0000335J0000000D01*
G01*
X0551406Y0217390D01*
G75*
G02*
X0551740Y0217056I0000000J-000335D01*
G01*
G37*
G36*
G01*
X0530933Y0134012D02*
X0530933Y0136689D01*
G75*
G02*
X0531268Y0137024I0000335J0000000D01*
G01*
X0533945Y0137024D01*
G75*
G02*
X0534280Y0136689I0000000J-000335D01*
G01*
X0534280Y0134012D01*
G75*
G02*
X0533945Y0133677I-000335J0000000D01*
G01*
X0531268Y0133677D01*
G75*
G02*
X0530933Y0134012I0000000J0000335D01*
G01*
G37*
G36*
G01*
X0537154Y0134012D02*
X0537154Y0136689D01*
G75*
G02*
X0537488Y0137024I0000335J0000000D01*
G01*
X0540165Y0137024D01*
G75*
G02*
X0540500Y0136689I0000000J-000335D01*
G01*
X0540500Y0134012D01*
G75*
G02*
X0540165Y0133677I-000335J0000000D01*
G01*
X0537488Y0133677D01*
G75*
G02*
X0537154Y0134012I0000000J0000335D01*
G01*
G37*
G36*
G01*
X0528984Y0109858D02*
X0528984Y0113598D01*
G75*
G02*
X0529969Y0114583I0000984J0000000D01*
G01*
X0531937Y0114583D01*
G75*
G02*
X0532921Y0113598I0000000J-000984D01*
G01*
X0532921Y0109858D01*
G75*
G02*
X0531937Y0108874I-000984J0000000D01*
G01*
X0529969Y0108874D01*
G75*
G02*
X0528984Y0109858I0000000J0000984D01*
G01*
G37*
G36*
G01*
X0536465Y0109858D02*
X0536465Y0113598D01*
G75*
G02*
X0537449Y0114583I0000984J0000000D01*
G01*
X0539417Y0114583D01*
G75*
G02*
X0540402Y0113598I0000000J-000984D01*
G01*
X0540402Y0109858D01*
G75*
G02*
X0539417Y0108874I-000984J0000000D01*
G01*
X0537449Y0108874D01*
G75*
G02*
X0536465Y0109858I0000000J0000984D01*
G01*
G37*
G36*
G01*
X0534496Y0235843D02*
X0534496Y0239583D01*
G75*
G02*
X0535480Y0240567I0000984J0000000D01*
G01*
X0537449Y0240567D01*
G75*
G02*
X0538433Y0239583I0000000J-000984D01*
G01*
X0538433Y0235843D01*
G75*
G02*
X0537449Y0234858I-000984J0000000D01*
G01*
X0535480Y0234858D01*
G75*
G02*
X0534496Y0235843I0000000J0000984D01*
G01*
G37*
G36*
G01*
X0541976Y0235843D02*
X0541976Y0239583D01*
G75*
G02*
X0542961Y0240567I0000984J0000000D01*
G01*
X0544929Y0240567D01*
G75*
G02*
X0545913Y0239583I0000000J-000984D01*
G01*
X0545913Y0235843D01*
G75*
G02*
X0544929Y0234858I-000984J0000000D01*
G01*
X0542961Y0234858D01*
G75*
G02*
X0541976Y0235843I0000000J0000984D01*
G01*
G37*
G36*
G01*
X0534496Y0219307D02*
X0534496Y0223047D01*
G75*
G02*
X0535480Y0224031I0000984J0000000D01*
G01*
X0537449Y0224031D01*
G75*
G02*
X0538433Y0223047I0000000J-000984D01*
G01*
X0538433Y0219307D01*
G75*
G02*
X0537449Y0218323I-000984J0000000D01*
G01*
X0535480Y0218323D01*
G75*
G02*
X0534496Y0219307I0000000J0000984D01*
G01*
G37*
G36*
G01*
X0541976Y0219307D02*
X0541976Y0223047D01*
G75*
G02*
X0542961Y0224031I0000984J0000000D01*
G01*
X0544929Y0224031D01*
G75*
G02*
X0545913Y0223047I0000000J-000984D01*
G01*
X0545913Y0219307D01*
G75*
G02*
X0544929Y0218323I-000984J0000000D01*
G01*
X0542961Y0218323D01*
G75*
G02*
X0541976Y0219307I0000000J0000984D01*
G01*
G37*
D159*
X0500423Y0373327D03*
X0348081Y0375470D03*
X0406644Y0388878D03*
X0500423Y0380807D03*
X0354774Y0367588D03*
G36*
G01*
X0030421Y0329626D02*
X0033059Y0329626D01*
G75*
G02*
X0033315Y0329370I0000000J-000256D01*
G01*
X0033315Y0327323D01*
G75*
G02*
X0033059Y0327067I-000256J0000000D01*
G01*
X0030421Y0327067D01*
G75*
G02*
X0030165Y0327323I0000000J0000256D01*
G01*
X0030165Y0329370D01*
G75*
G02*
X0030421Y0329626I0000256J0000000D01*
G01*
G37*
G36*
G01*
X0030343Y0325787D02*
X0033138Y0325787D01*
G75*
G02*
X0033315Y0325610I0000000J-000177D01*
G01*
X0033315Y0324193D01*
G75*
G02*
X0033138Y0324016I-000177J0000000D01*
G01*
X0030343Y0324016D01*
G75*
G02*
X0030165Y0324193I0000000J0000177D01*
G01*
X0030165Y0325610D01*
G75*
G02*
X0030343Y0325787I0000177J0000000D01*
G01*
G37*
G36*
G01*
X0030343Y0322638D02*
X0033138Y0322638D01*
G75*
G02*
X0033315Y0322461I0000000J-000177D01*
G01*
X0033315Y0321043D01*
G75*
G02*
X0033138Y0320866I-000177J0000000D01*
G01*
X0030343Y0320866D01*
G75*
G02*
X0030165Y0321043I0000000J0000177D01*
G01*
X0030165Y0322461D01*
G75*
G02*
X0030343Y0322638I0000177J0000000D01*
G01*
G37*
G36*
G01*
X0030421Y0319587D02*
X0033059Y0319587D01*
G75*
G02*
X0033315Y0319331I0000000J-000256D01*
G01*
X0033315Y0317283D01*
G75*
G02*
X0033059Y0317028I-000256J0000000D01*
G01*
X0030421Y0317028D01*
G75*
G02*
X0030165Y0317283I0000000J0000256D01*
G01*
X0030165Y0319331D01*
G75*
G02*
X0030421Y0319587I0000256J0000000D01*
G01*
G37*
G36*
G01*
X0037508Y0319587D02*
X0040146Y0319587D01*
G75*
G02*
X0040402Y0319331I0000000J-000256D01*
G01*
X0040402Y0317283D01*
G75*
G02*
X0040146Y0317028I-000256J0000000D01*
G01*
X0037508Y0317028D01*
G75*
G02*
X0037252Y0317283I0000000J0000256D01*
G01*
X0037252Y0319331D01*
G75*
G02*
X0037508Y0319587I0000256J0000000D01*
G01*
G37*
G36*
G01*
X0037429Y0322638D02*
X0040224Y0322638D01*
G75*
G02*
X0040402Y0322461I0000000J-000177D01*
G01*
X0040402Y0321043D01*
G75*
G02*
X0040224Y0320866I-000177J0000000D01*
G01*
X0037429Y0320866D01*
G75*
G02*
X0037252Y0321043I0000000J0000177D01*
G01*
X0037252Y0322461D01*
G75*
G02*
X0037429Y0322638I0000177J0000000D01*
G01*
G37*
G36*
G01*
X0037429Y0325787D02*
X0040224Y0325787D01*
G75*
G02*
X0040402Y0325610I0000000J-000177D01*
G01*
X0040402Y0324193D01*
G75*
G02*
X0040224Y0324016I-000177J0000000D01*
G01*
X0037429Y0324016D01*
G75*
G02*
X0037252Y0324193I0000000J0000177D01*
G01*
X0037252Y0325610D01*
G75*
G02*
X0037429Y0325787I0000177J0000000D01*
G01*
G37*
G36*
G01*
X0037508Y0329626D02*
X0040146Y0329626D01*
G75*
G02*
X0040402Y0329370I0000000J-000256D01*
G01*
X0040402Y0327323D01*
G75*
G02*
X0040146Y0327067I-000256J0000000D01*
G01*
X0037508Y0327067D01*
G75*
G02*
X0037252Y0327323I0000000J0000256D01*
G01*
X0037252Y0329370D01*
G75*
G02*
X0037508Y0329626I0000256J0000000D01*
G01*
G37*
D299*
X0164567Y0105256D03*
G36*
G01*
X0167028Y0104547D02*
X0162106Y0104547D01*
G75*
G02*
X0161713Y0104941I0000000J0000394D01*
G01*
X0161713Y0108091D01*
G75*
G02*
X0162106Y0108484I0000394J0000000D01*
G01*
X0167028Y0108484D01*
G75*
G02*
X0167421Y0108091I0000000J-000394D01*
G01*
X0167421Y0104941D01*
G75*
G02*
X0167028Y0104547I-000394J0000000D01*
G01*
G37*
X0164567Y0115256D03*
G36*
G01*
X0167028Y0112028D02*
X0162106Y0112028D01*
G75*
G02*
X0161713Y0112421I0000000J0000394D01*
G01*
X0161713Y0115571D01*
G75*
G02*
X0162106Y0115965I0000394J0000000D01*
G01*
X0167028Y0115965D01*
G75*
G02*
X0167421Y0115571I0000000J-000394D01*
G01*
X0167421Y0112421D01*
G75*
G02*
X0167028Y0112028I-000394J0000000D01*
G01*
G37*
G36*
G01*
X0285610Y0399213D02*
X0278366Y0399213D01*
G75*
G02*
X0278051Y0399528I0000000J0000315D01*
G01*
X0278051Y0402047D01*
G75*
G02*
X0278366Y0402362I0000315J0000000D01*
G01*
X0285610Y0402362D01*
G75*
G02*
X0285925Y0402047I0000000J-000315D01*
G01*
X0285925Y0399528D01*
G75*
G02*
X0285610Y0399213I-000315J0000000D01*
G01*
G37*
G36*
G01*
X0285610Y0415748D02*
X0278366Y0415748D01*
G75*
G02*
X0278051Y0416063I0000000J0000315D01*
G01*
X0278051Y0418583D01*
G75*
G02*
X0278366Y0418898I0000315J0000000D01*
G01*
X0285610Y0418898D01*
G75*
G02*
X0285925Y0418583I0000000J-000315D01*
G01*
X0285925Y0416063D01*
G75*
G02*
X0285610Y0415748I-000315J0000000D01*
G01*
G37*
G36*
G01*
X0056346Y0309075D02*
X0056346Y0313957D01*
G75*
G02*
X0056858Y0314469I0000512J0000000D01*
G01*
X0060953Y0314469D01*
G75*
G02*
X0061465Y0313957I0000000J-000512D01*
G01*
X0061465Y0309075D01*
G75*
G02*
X0060953Y0308563I-000512J0000000D01*
G01*
X0056858Y0308563D01*
G75*
G02*
X0056346Y0309075I0000000J0000512D01*
G01*
G37*
G36*
G01*
X0048866Y0309075D02*
X0048866Y0313957D01*
G75*
G02*
X0049378Y0314469I0000512J0000000D01*
G01*
X0053472Y0314469D01*
G75*
G02*
X0053984Y0313957I0000000J-000512D01*
G01*
X0053984Y0309075D01*
G75*
G02*
X0053472Y0308563I-000512J0000000D01*
G01*
X0049378Y0308563D01*
G75*
G02*
X0048866Y0309075I0000000J0000512D01*
G01*
G37*
G36*
G01*
X0528984Y0101591D02*
X0528984Y0105331D01*
G75*
G02*
X0529969Y0106315I0000984J0000000D01*
G01*
X0531937Y0106315D01*
G75*
G02*
X0532921Y0105331I0000000J-000984D01*
G01*
X0532921Y0101591D01*
G75*
G02*
X0531937Y0100606I-000984J0000000D01*
G01*
X0529969Y0100606D01*
G75*
G02*
X0528984Y0101591I0000000J0000984D01*
G01*
G37*
G36*
G01*
X0536465Y0101591D02*
X0536465Y0105331D01*
G75*
G02*
X0537449Y0106315I0000984J0000000D01*
G01*
X0539417Y0106315D01*
G75*
G02*
X0540402Y0105331I0000000J-000984D01*
G01*
X0540402Y0101591D01*
G75*
G02*
X0539417Y0100606I-000984J0000000D01*
G01*
X0537449Y0100606D01*
G75*
G02*
X0536465Y0101591I0000000J0000984D01*
G01*
G37*
G36*
G01*
X0552193Y0120875D02*
X0552193Y0123946D01*
G75*
G02*
X0552469Y0124221I0000276J0000000D01*
G01*
X0554673Y0124221D01*
G75*
G02*
X0554949Y0123946I0000000J-000276D01*
G01*
X0554949Y0120875D01*
G75*
G02*
X0554673Y0120599I-000276J0000000D01*
G01*
X0552469Y0120599D01*
G75*
G02*
X0552193Y0120875I0000000J0000276D01*
G01*
G37*
G36*
G01*
X0558492Y0120875D02*
X0558492Y0123946D01*
G75*
G02*
X0558768Y0124221I0000276J0000000D01*
G01*
X0560972Y0124221D01*
G75*
G02*
X0561248Y0123946I0000000J-000276D01*
G01*
X0561248Y0120875D01*
G75*
G02*
X0560972Y0120599I-000276J0000000D01*
G01*
X0558768Y0120599D01*
G75*
G02*
X0558492Y0120875I0000000J0000276D01*
G01*
G37*
G36*
G01*
X0543965Y0129103D02*
X0545854Y0129103D01*
G75*
G02*
X0546091Y0128867I0000000J-000236D01*
G01*
X0546091Y0126977D01*
G75*
G02*
X0545854Y0126741I-000236J0000000D01*
G01*
X0543965Y0126741D01*
G75*
G02*
X0543728Y0126977I0000000J0000236D01*
G01*
X0543728Y0128867D01*
G75*
G02*
X0543965Y0129103I0000236J0000000D01*
G01*
G37*
G36*
G01*
X0552626Y0129103D02*
X0554516Y0129103D01*
G75*
G02*
X0554752Y0128867I0000000J-000236D01*
G01*
X0554752Y0126977D01*
G75*
G02*
X0554516Y0126741I-000236J0000000D01*
G01*
X0552626Y0126741D01*
G75*
G02*
X0552390Y0126977I0000000J0000236D01*
G01*
X0552390Y0128867D01*
G75*
G02*
X0552626Y0129103I0000236J0000000D01*
G01*
G37*
G36*
G01*
X0056346Y0332697D02*
X0056346Y0337579D01*
G75*
G02*
X0056858Y0338091I0000512J0000000D01*
G01*
X0060953Y0338091D01*
G75*
G02*
X0061465Y0337579I0000000J-000512D01*
G01*
X0061465Y0332697D01*
G75*
G02*
X0060953Y0332185I-000512J0000000D01*
G01*
X0056858Y0332185D01*
G75*
G02*
X0056346Y0332697I0000000J0000512D01*
G01*
G37*
G36*
G01*
X0048866Y0332697D02*
X0048866Y0337579D01*
G75*
G02*
X0049378Y0338091I0000512J0000000D01*
G01*
X0053472Y0338091D01*
G75*
G02*
X0053984Y0337579I0000000J-000512D01*
G01*
X0053984Y0332697D01*
G75*
G02*
X0053472Y0332185I-000512J0000000D01*
G01*
X0049378Y0332185D01*
G75*
G02*
X0048866Y0332697I0000000J0000512D01*
G01*
G37*
G36*
G01*
X0343366Y0421417D02*
X0343366Y0418740D01*
G75*
G02*
X0343032Y0418406I-000335J0000000D01*
G01*
X0340354Y0418406D01*
G75*
G02*
X0340020Y0418740I0000000J0000335D01*
G01*
X0340020Y0421417D01*
G75*
G02*
X0340354Y0421752I0000335J0000000D01*
G01*
X0343032Y0421752D01*
G75*
G02*
X0343366Y0421417I0000000J-000335D01*
G01*
G37*
G36*
G01*
X0337146Y0421417D02*
X0337146Y0418740D01*
G75*
G02*
X0336811Y0418406I-000335J0000000D01*
G01*
X0334134Y0418406D01*
G75*
G02*
X0333799Y0418740I0000000J0000335D01*
G01*
X0333799Y0421417D01*
G75*
G02*
X0334134Y0421752I0000335J0000000D01*
G01*
X0336811Y0421752D01*
G75*
G02*
X0337146Y0421417I0000000J-000335D01*
G01*
G37*
G36*
G01*
X0549240Y0123355D02*
X0549240Y0121465D01*
G75*
G02*
X0549004Y0121229I-000236J0000000D01*
G01*
X0547114Y0121229D01*
G75*
G02*
X0546878Y0121465I0000000J0000236D01*
G01*
X0546878Y0123355D01*
G75*
G02*
X0547114Y0123591I0000236J0000000D01*
G01*
X0549004Y0123591D01*
G75*
G02*
X0549240Y0123355I0000000J-000236D01*
G01*
G37*
G36*
G01*
X0549240Y0114694D02*
X0549240Y0112804D01*
G75*
G02*
X0549004Y0112568I-000236J0000000D01*
G01*
X0547114Y0112568D01*
G75*
G02*
X0546878Y0112804I0000000J0000236D01*
G01*
X0546878Y0114694D01*
G75*
G02*
X0547114Y0114930I0000236J0000000D01*
G01*
X0549004Y0114930D01*
G75*
G02*
X0549240Y0114694I0000000J-000236D01*
G01*
G37*
G36*
G01*
X0558531Y0135894D02*
X0561209Y0135894D01*
G75*
G02*
X0561543Y0135560I0000000J-000335D01*
G01*
X0561543Y0132883D01*
G75*
G02*
X0561209Y0132548I-000335J0000000D01*
G01*
X0558531Y0132548D01*
G75*
G02*
X0558197Y0132883I0000000J0000335D01*
G01*
X0558197Y0135560D01*
G75*
G02*
X0558531Y0135894I0000335J0000000D01*
G01*
G37*
G36*
G01*
X0558531Y0129674D02*
X0561209Y0129674D01*
G75*
G02*
X0561543Y0129339I0000000J-000335D01*
G01*
X0561543Y0126662D01*
G75*
G02*
X0561209Y0126327I-000335J0000000D01*
G01*
X0558531Y0126327D01*
G75*
G02*
X0558197Y0126662I0000000J0000335D01*
G01*
X0558197Y0129339D01*
G75*
G02*
X0558531Y0129674I0000335J0000000D01*
G01*
G37*
G36*
G01*
X0536051Y0204878D02*
X0536051Y0207555D01*
G75*
G02*
X0536386Y0207890I0000335J0000000D01*
G01*
X0539063Y0207890D01*
G75*
G02*
X0539398Y0207555I0000000J-000335D01*
G01*
X0539398Y0204878D01*
G75*
G02*
X0539063Y0204543I-000335J0000000D01*
G01*
X0536386Y0204543D01*
G75*
G02*
X0536051Y0204878I0000000J0000335D01*
G01*
G37*
G36*
G01*
X0542272Y0204878D02*
X0542272Y0207555D01*
G75*
G02*
X0542606Y0207890I0000335J0000000D01*
G01*
X0545283Y0207890D01*
G75*
G02*
X0545618Y0207555I0000000J-000335D01*
G01*
X0545618Y0204878D01*
G75*
G02*
X0545283Y0204543I-000335J0000000D01*
G01*
X0542606Y0204543D01*
G75*
G02*
X0542272Y0204878I0000000J0000335D01*
G01*
G37*
G36*
G01*
X0219331Y0163780D02*
X0222402Y0163780D01*
G75*
G02*
X0222677Y0163504I0000000J-000276D01*
G01*
X0222677Y0161299D01*
G75*
G02*
X0222402Y0161024I-000276J0000000D01*
G01*
X0219331Y0161024D01*
G75*
G02*
X0219055Y0161299I0000000J0000276D01*
G01*
X0219055Y0163504D01*
G75*
G02*
X0219331Y0163780I0000276J0000000D01*
G01*
G37*
G36*
G01*
X0219331Y0157480D02*
X0222402Y0157480D01*
G75*
G02*
X0222677Y0157205I0000000J-000276D01*
G01*
X0222677Y0155000D01*
G75*
G02*
X0222402Y0154724I-000276J0000000D01*
G01*
X0219331Y0154724D01*
G75*
G02*
X0219055Y0155000I0000000J0000276D01*
G01*
X0219055Y0157205D01*
G75*
G02*
X0219331Y0157480I0000276J0000000D01*
G01*
G37*
D159*
X0366500Y0210284D03*
X0366165Y0188620D03*
X0329787Y0183020D03*
G36*
G01*
X0331756Y0171209D02*
X0331756Y0171209D01*
X0331756Y0171209D01*
X0331756Y0171209D01*
X0331756Y0171209D01*
G37*
D299*
X0043307Y0123012D03*
G36*
G01*
X0040846Y0123720D02*
X0045768Y0123720D01*
G75*
G02*
X0046161Y0123327I0000000J-000394D01*
G01*
X0046161Y0120177D01*
G75*
G02*
X0045768Y0119783I-000394J0000000D01*
G01*
X0040846Y0119783D01*
G75*
G02*
X0040453Y0120177I0000000J0000394D01*
G01*
X0040453Y0123327D01*
G75*
G02*
X0040846Y0123720I0000394J0000000D01*
G01*
G37*
G36*
G01*
X0040846Y0116240D02*
X0045768Y0116240D01*
G75*
G02*
X0046161Y0115846I0000000J-000394D01*
G01*
X0046161Y0112697D01*
G75*
G02*
X0045768Y0112303I-000394J0000000D01*
G01*
X0040846Y0112303D01*
G75*
G02*
X0040453Y0112697I0000000J0000394D01*
G01*
X0040453Y0115846D01*
G75*
G02*
X0040846Y0116240I0000394J0000000D01*
G01*
G37*
X0043307Y0113012D03*
X0155659Y0382900D02*
G01*
G75*
D137*
X0167076Y0395912D02*
D03*
X0163336Y0386660D02*
D03*
D137*
X0159596Y0395912D02*
D03*
D285*
X0174635Y0407526D02*
D03*
X0174635Y0402526D02*
D03*
X0174635Y0397526D02*
D03*
X0174635Y0392526D02*
D03*
X0193533Y0407526D02*
D03*
X0193533Y0402526D02*
D03*
X0193533Y0397526D02*
D03*
X0193533Y0392526D02*
D03*
D215*
X0190344Y0387231D02*
D03*
X0196564Y0387231D02*
D03*
X0181998Y0387231D02*
D03*
X0175777Y0387231D02*
D03*
D197*
X0160186Y0400813D02*
D03*
X0166486Y0400813D02*
D03*
D131*
X0170816Y0384770D02*
D03*
X0346801Y0360827D02*
G01*
G75*
D116*
X0366388Y0379233D02*
D03*
X0366388Y0386713D02*
D03*
X0397785Y0379036D02*
D03*
X0397785Y0386516D02*
D03*
D223*
X0495718Y0378937D02*
D03*
X0495718Y0367914D02*
D03*
D185*
X0374065Y0372933D02*
D03*
X0390207Y0372933D02*
D03*
D197*
X0499557Y0384843D02*
D03*
X0493258Y0384843D02*
D03*
X0448671Y0385433D02*
D03*
X0454970Y0385433D02*
D03*
X0409990Y0384843D02*
D03*
X0403691Y0384843D02*
D03*
D300*
X0488691Y0385729D02*
D03*
X0482470Y0385729D02*
D03*
X0403632Y0380315D02*
D03*
X0409852Y0380315D02*
D03*
X0457470Y0365256D02*
D03*
X0463691Y0365256D02*
D03*
D205*
X0414222Y0384114D02*
D03*
X0414222Y0377894D02*
D03*
D174*
X0427116Y0381221D02*
D03*
X0427116Y0376221D02*
D03*
X0427116Y0371221D02*
D03*
X0427116Y0366221D02*
D03*
X0449754Y0381221D02*
D03*
X0449754Y0376221D02*
D03*
X0449754Y0371221D02*
D03*
X0449754Y0366221D02*
D03*
D221*
X0438435Y0373721D02*
D03*
D257*
X0416585Y0370374D02*
D03*
X0400836Y0370374D02*
D03*
D212*
X0477805Y0380610D02*
D03*
X0477805Y0369193D02*
D03*
X0460876Y0386713D02*
D03*
X0460876Y0375296D02*
D03*
X0469636Y0369292D02*
D03*
X0469636Y0380709D02*
D03*
X0485876Y0369095D02*
D03*
X0485876Y0380512D02*
D03*
D184*
X0354872Y0384252D02*
D03*
X0354872Y0366536D02*
D03*
D60*
X0418651Y0384154D02*
D03*
X0418651Y0377855D02*
D03*
D269*
X0354872Y0386713D02*
D03*
X0154380Y0232171D02*
G01*
G75*
D112*
X0227215Y0256384D02*
D03*
X0227215Y0260321D02*
D03*
D52*
X0322293Y0295163D02*
D03*
D230*
X0331349Y0270754D02*
D03*
X0313238Y0270754D02*
D03*
D142*
X0322293Y0270754D02*
D03*
D41*
X0305364Y0237486D02*
D03*
X0305364Y0240045D02*
D03*
X0305364Y0242604D02*
D03*
X0305364Y0245163D02*
D03*
X0305364Y0247722D02*
D03*
X0305364Y0250281D02*
D03*
X0305364Y0252840D02*
D03*
X0282923Y0237486D02*
D03*
X0282923Y0240045D02*
D03*
X0282923Y0242604D02*
D03*
X0282923Y0245163D02*
D03*
X0282923Y0247722D02*
D03*
X0282923Y0250281D02*
D03*
X0282923Y0252840D02*
D03*
X0181349Y0271836D02*
D03*
X0181349Y0274395D02*
D03*
X0181349Y0276954D02*
D03*
X0181349Y0279514D02*
D03*
X0181349Y0282073D02*
D03*
X0181349Y0284632D02*
D03*
X0181349Y0287191D02*
D03*
X0158907Y0271836D02*
D03*
X0158907Y0274395D02*
D03*
X0158907Y0276954D02*
D03*
X0158907Y0279514D02*
D03*
X0158907Y0282073D02*
D03*
X0158907Y0284632D02*
D03*
X0158907Y0287191D02*
D03*
X0180856Y0316817D02*
D03*
X0180856Y0319376D02*
D03*
X0180856Y0321935D02*
D03*
X0180856Y0324494D02*
D03*
X0180856Y0327053D02*
D03*
X0180856Y0329612D02*
D03*
X0180856Y0332171D02*
D03*
X0158415Y0316817D02*
D03*
X0158415Y0319376D02*
D03*
X0158415Y0321935D02*
D03*
X0158415Y0324494D02*
D03*
X0158415Y0327053D02*
D03*
X0158415Y0329612D02*
D03*
X0158415Y0332171D02*
D03*
X0186664Y0252840D02*
D03*
X0186664Y0250281D02*
D03*
X0186664Y0247722D02*
D03*
X0186664Y0245163D02*
D03*
X0186664Y0242604D02*
D03*
X0186664Y0240045D02*
D03*
X0186664Y0237486D02*
D03*
X0209104Y0252840D02*
D03*
X0209104Y0250281D02*
D03*
X0209104Y0247722D02*
D03*
X0209104Y0245163D02*
D03*
X0209104Y0242604D02*
D03*
X0209104Y0240045D02*
D03*
X0209104Y0237486D02*
D03*
X0231053Y0252840D02*
D03*
X0231053Y0250281D02*
D03*
X0231053Y0247722D02*
D03*
X0231053Y0245163D02*
D03*
X0231053Y0242604D02*
D03*
X0231053Y0240045D02*
D03*
X0231053Y0237486D02*
D03*
X0253494Y0252840D02*
D03*
X0253494Y0250281D02*
D03*
X0253494Y0247722D02*
D03*
X0253494Y0245163D02*
D03*
X0253494Y0242604D02*
D03*
X0253494Y0240045D02*
D03*
X0253494Y0237486D02*
D03*
X0181053Y0237486D02*
D03*
X0181053Y0240045D02*
D03*
X0181053Y0242604D02*
D03*
X0181053Y0245163D02*
D03*
X0181053Y0247722D02*
D03*
X0181053Y0250281D02*
D03*
X0181053Y0252840D02*
D03*
X0158612Y0237486D02*
D03*
X0158612Y0240045D02*
D03*
X0158612Y0242604D02*
D03*
X0158612Y0245163D02*
D03*
X0158612Y0247722D02*
D03*
X0158612Y0250281D02*
D03*
X0158612Y0252840D02*
D03*
D297*
X0208120Y0368785D02*
D03*
X0210089Y0368785D02*
D03*
X0212057Y0368785D02*
D03*
X0214026Y0368785D02*
D03*
X0215994Y0368785D02*
D03*
X0217963Y0368785D02*
D03*
X0219931Y0368785D02*
D03*
X0221900Y0368785D02*
D03*
X0223868Y0368785D02*
D03*
X0225837Y0368785D02*
D03*
X0227805Y0368785D02*
D03*
X0229774Y0368785D02*
D03*
X0231742Y0368785D02*
D03*
X0233711Y0368785D02*
D03*
X0235679Y0368785D02*
D03*
X0237648Y0368785D02*
D03*
X0239616Y0368785D02*
D03*
X0241585Y0368785D02*
D03*
X0243553Y0368785D02*
D03*
X0245522Y0368785D02*
D03*
X0247490Y0368785D02*
D03*
X0249459Y0368785D02*
D03*
X0251427Y0368785D02*
D03*
X0253396Y0368785D02*
D03*
X0255364Y0368785D02*
D03*
X0257333Y0368785D02*
D03*
X0259301Y0368785D02*
D03*
X0261270Y0368785D02*
D03*
X0263238Y0368785D02*
D03*
X0265207Y0368785D02*
D03*
X0267175Y0368785D02*
D03*
X0269144Y0368785D02*
D03*
X0271112Y0368785D02*
D03*
X0273081Y0368785D02*
D03*
X0275049Y0368785D02*
D03*
X0277018Y0368785D02*
D03*
X0278986Y0368785D02*
D03*
X0280955Y0368785D02*
D03*
X0282923Y0368785D02*
D03*
X0284892Y0368785D02*
D03*
X0286860Y0368785D02*
D03*
X0288829Y0368785D02*
D03*
X0290797Y0368785D02*
D03*
X0292766Y0368785D02*
D03*
X0292766Y0265242D02*
D03*
X0290797Y0265242D02*
D03*
X0288829Y0265242D02*
D03*
X0286860Y0265242D02*
D03*
X0284892Y0265242D02*
D03*
X0282923Y0265242D02*
D03*
X0280955Y0265242D02*
D03*
X0278986Y0265242D02*
D03*
X0277018Y0265242D02*
D03*
X0275049Y0265242D02*
D03*
X0273081Y0265242D02*
D03*
X0271112Y0265242D02*
D03*
X0269144Y0265242D02*
D03*
X0267175Y0265242D02*
D03*
X0265207Y0265242D02*
D03*
X0263238Y0265242D02*
D03*
X0261270Y0265242D02*
D03*
X0259301Y0265242D02*
D03*
X0257333Y0265242D02*
D03*
X0255364Y0265242D02*
D03*
X0253396Y0265242D02*
D03*
X0251427Y0265242D02*
D03*
X0249459Y0265242D02*
D03*
X0247490Y0265242D02*
D03*
X0245522Y0265242D02*
D03*
X0243553Y0265242D02*
D03*
X0241585Y0265242D02*
D03*
X0239616Y0265242D02*
D03*
X0237648Y0265242D02*
D03*
X0235679Y0265242D02*
D03*
X0233711Y0265242D02*
D03*
X0231742Y0265242D02*
D03*
X0229774Y0265242D02*
D03*
X0227805Y0265242D02*
D03*
X0225837Y0265242D02*
D03*
X0223868Y0265242D02*
D03*
X0221900Y0265242D02*
D03*
X0219931Y0265242D02*
D03*
X0217963Y0265242D02*
D03*
X0215994Y0265242D02*
D03*
X0214026Y0265242D02*
D03*
X0212057Y0265242D02*
D03*
X0210089Y0265242D02*
D03*
X0208120Y0265242D02*
D03*
D12*
X0302215Y0359336D02*
D03*
X0302215Y0357368D02*
D03*
X0302215Y0355399D02*
D03*
X0302215Y0353431D02*
D03*
X0302215Y0351462D02*
D03*
X0302215Y0349494D02*
D03*
X0302215Y0347525D02*
D03*
X0302215Y0345557D02*
D03*
X0302215Y0343588D02*
D03*
X0302215Y0341620D02*
D03*
X0302215Y0339651D02*
D03*
X0302215Y0337683D02*
D03*
X0302215Y0335714D02*
D03*
X0302215Y0333746D02*
D03*
X0302215Y0331777D02*
D03*
X0302215Y0329809D02*
D03*
X0302215Y0327840D02*
D03*
X0302215Y0325872D02*
D03*
X0302215Y0323903D02*
D03*
X0302215Y0321935D02*
D03*
X0302215Y0319966D02*
D03*
X0302215Y0317998D02*
D03*
X0302215Y0316029D02*
D03*
X0302215Y0314061D02*
D03*
X0302215Y0312092D02*
D03*
X0302215Y0310124D02*
D03*
X0302215Y0308155D02*
D03*
X0302215Y0306187D02*
D03*
X0302215Y0304218D02*
D03*
X0302215Y0302250D02*
D03*
X0302215Y0300281D02*
D03*
X0302215Y0298313D02*
D03*
X0302215Y0296344D02*
D03*
X0302215Y0294376D02*
D03*
X0302215Y0292407D02*
D03*
X0302215Y0290439D02*
D03*
X0302215Y0288470D02*
D03*
X0302215Y0286502D02*
D03*
X0302215Y0284533D02*
D03*
X0302215Y0282565D02*
D03*
X0302215Y0280596D02*
D03*
X0302215Y0278628D02*
D03*
X0302215Y0276659D02*
D03*
X0302215Y0274691D02*
D03*
X0198671Y0274691D02*
D03*
X0198671Y0276659D02*
D03*
X0198671Y0278628D02*
D03*
X0198671Y0280596D02*
D03*
X0198671Y0282565D02*
D03*
X0198671Y0284533D02*
D03*
X0198671Y0286502D02*
D03*
X0198671Y0288470D02*
D03*
X0198671Y0290439D02*
D03*
X0198671Y0292407D02*
D03*
X0198671Y0294376D02*
D03*
X0198671Y0296344D02*
D03*
X0198671Y0298313D02*
D03*
X0198671Y0300281D02*
D03*
X0198671Y0302250D02*
D03*
X0198671Y0304218D02*
D03*
X0198671Y0306187D02*
D03*
X0198671Y0308155D02*
D03*
X0198671Y0310124D02*
D03*
X0198671Y0312092D02*
D03*
X0198671Y0314061D02*
D03*
X0198671Y0316029D02*
D03*
X0198671Y0317998D02*
D03*
X0198671Y0319966D02*
D03*
X0198671Y0321935D02*
D03*
X0198671Y0323903D02*
D03*
X0198671Y0325872D02*
D03*
X0198671Y0327840D02*
D03*
X0198671Y0329809D02*
D03*
X0198671Y0331777D02*
D03*
X0198671Y0333746D02*
D03*
X0198671Y0335714D02*
D03*
X0198671Y0337683D02*
D03*
X0198671Y0339651D02*
D03*
X0198671Y0341620D02*
D03*
X0198671Y0343588D02*
D03*
X0198671Y0345557D02*
D03*
X0198671Y0347525D02*
D03*
X0198671Y0349494D02*
D03*
X0198671Y0351462D02*
D03*
X0198671Y0353431D02*
D03*
X0198671Y0355399D02*
D03*
X0198671Y0357368D02*
D03*
X0198671Y0359336D02*
D03*
D300*
X0316545Y0252250D02*
D03*
X0310325Y0252250D02*
D03*
X0313789Y0360911D02*
D03*
X0307569Y0360911D02*
D03*
X0323140Y0302053D02*
D03*
X0316919Y0302053D02*
D03*
X0222766Y0260025D02*
D03*
X0216545Y0260025D02*
D03*
X0284104Y0373982D02*
D03*
X0290325Y0373982D02*
D03*
X0288494Y0259336D02*
D03*
X0282274Y0259336D02*
D03*
X0202667Y0367998D02*
D03*
X0196447Y0367998D02*
D03*
X0318907Y0327348D02*
D03*
X0312687Y0327348D02*
D03*
X0211821Y0259927D02*
D03*
X0205600Y0259927D02*
D03*
X0264774Y0255202D02*
D03*
X0258553Y0255202D02*
D03*
X0185916Y0326364D02*
D03*
X0192136Y0326364D02*
D03*
X0214656Y0374100D02*
D03*
X0220876Y0374100D02*
D03*
X0246565Y0374002D02*
D03*
X0240345Y0374002D02*
D03*
X0263691Y0374002D02*
D03*
X0257471Y0374002D02*
D03*
X0301762Y0271443D02*
D03*
X0307982Y0271443D02*
D03*
X0247845Y0259927D02*
D03*
X0241624Y0259927D02*
D03*
X0255601Y0259632D02*
D03*
X0261821Y0259632D02*
D03*
X0185817Y0330694D02*
D03*
X0192037Y0330694D02*
D03*
X0193219Y0286403D02*
D03*
X0186998Y0286403D02*
D03*
D205*
X0320030Y0366659D02*
D03*
X0320030Y0372880D02*
D03*
X0333809Y0261659D02*
D03*
X0333809Y0255439D02*
D03*
X0307628Y0356344D02*
D03*
X0307628Y0350124D02*
D03*
X0191683Y0321994D02*
D03*
X0191683Y0315773D02*
D03*
X0312156Y0355557D02*
D03*
X0312156Y0349336D02*
D03*
X0276723Y0245911D02*
D03*
X0276723Y0239691D02*
D03*
X0311171Y0247388D02*
D03*
X0311171Y0241167D02*
D03*
X0315601Y0241167D02*
D03*
X0315601Y0247387D02*
D03*
X0166880Y0304651D02*
D03*
X0166880Y0310872D02*
D03*
X0187156Y0321994D02*
D03*
X0187156Y0315773D02*
D03*
X0191782Y0277309D02*
D03*
X0191782Y0271088D02*
D03*
X0312549Y0298352D02*
D03*
X0312549Y0304573D02*
D03*
X0186959Y0277210D02*
D03*
X0186959Y0270990D02*
D03*
X0173376Y0264809D02*
D03*
X0173376Y0258588D02*
D03*
X0159793Y0310773D02*
D03*
X0159793Y0304553D02*
D03*
X0307923Y0327702D02*
D03*
X0307923Y0321482D02*
D03*
X0308022Y0300518D02*
D03*
X0308022Y0306738D02*
D03*
X0188140Y0298076D02*
D03*
X0188140Y0291856D02*
D03*
X0192864Y0344907D02*
D03*
X0192864Y0351128D02*
D03*
D181*
X0332825Y0313864D02*
D03*
X0332825Y0320557D02*
D03*
X0320325Y0320655D02*
D03*
X0320325Y0313962D02*
D03*
X0326526Y0313864D02*
D03*
X0326526Y0320557D02*
D03*
X0314400Y0321246D02*
D03*
X0314400Y0314553D02*
D03*
D118*
X0327608Y0262978D02*
D03*
X0327608Y0255498D02*
D03*
D197*
X0237254Y0259435D02*
D03*
X0230955Y0259435D02*
D03*
X0319537Y0309139D02*
D03*
X0313238Y0309139D02*
D03*
X0267864Y0374199D02*
D03*
X0274164Y0374199D02*
D03*
X0325443Y0308943D02*
D03*
X0331742Y0308943D02*
D03*
X0327313Y0303431D02*
D03*
X0333612Y0303431D02*
D03*
X0193258Y0281876D02*
D03*
X0186959Y0281876D02*
D03*
X0332923Y0352348D02*
D03*
X0326624Y0352348D02*
D03*
D60*
X0301624Y0369277D02*
D03*
X0301624Y0362978D02*
D03*
X0296900Y0374100D02*
D03*
X0296900Y0367801D02*
D03*
X0308022Y0311010D02*
D03*
X0308022Y0317309D02*
D03*
X0324557Y0367407D02*
D03*
X0324557Y0373706D02*
D03*
X0333612Y0356580D02*
D03*
X0333612Y0362880D02*
D03*
X0333612Y0366718D02*
D03*
X0333612Y0373017D02*
D03*
X0328986Y0358155D02*
D03*
X0328986Y0364454D02*
D03*
X0192963Y0298214D02*
D03*
X0192963Y0291915D02*
D03*
D217*
X0306230Y0373510D02*
D03*
X0315482Y0369770D02*
D03*
D217*
X0306230Y0366029D02*
D03*
D235*
X0187549Y0307270D02*
D03*
X0172982Y0307270D02*
D03*
D13*
X0314911Y0342604D02*
D03*
X0311171Y0342604D02*
D03*
X0307431Y0342604D02*
D03*
X0307431Y0333155D02*
D03*
X0311171Y0333155D02*
D03*
X0314911Y0333155D02*
D03*
D298*
X0323376Y0240340D02*
D03*
X0323376Y0247427D02*
D03*
X0333415Y0247427D02*
D03*
X0333415Y0240340D02*
D03*
X0321998Y0256876D02*
D03*
X0321998Y0263962D02*
D03*
X0311959Y0263962D02*
D03*
X0311959Y0256876D02*
D03*
X0173770Y0291324D02*
D03*
X0173770Y0298411D02*
D03*
X0183809Y0298411D02*
D03*
X0183809Y0291324D02*
D03*
X0168553Y0291325D02*
D03*
X0168553Y0298411D02*
D03*
X0158514Y0298411D02*
D03*
X0158514Y0291325D02*
D03*
X0177707Y0257958D02*
D03*
X0177707Y0265045D02*
D03*
X0187746Y0265045D02*
D03*
X0187746Y0257958D02*
D03*
X0169045Y0257958D02*
D03*
X0169045Y0265045D02*
D03*
X0159006Y0265045D02*
D03*
X0159006Y0257958D02*
D03*
X0173967Y0336502D02*
D03*
X0173967Y0343588D02*
D03*
X0184006Y0343588D02*
D03*
X0184006Y0336502D02*
D03*
X0306152Y0257171D02*
D03*
X0306152Y0264258D02*
D03*
X0296112Y0264258D02*
D03*
X0296112Y0257171D02*
D03*
X0158612Y0336502D02*
D03*
X0158612Y0343588D02*
D03*
X0168652Y0343588D02*
D03*
X0168652Y0336502D02*
D03*
X0213533Y0255695D02*
D03*
X0213533Y0248608D02*
D03*
X0223573Y0248608D02*
D03*
X0223573Y0255695D02*
D03*
X0224754Y0237388D02*
D03*
X0224754Y0244474D02*
D03*
X0214715Y0244474D02*
D03*
X0214715Y0237388D02*
D03*
D38*
X0326821Y0240340D02*
D03*
X0329971Y0240340D02*
D03*
X0329971Y0247427D02*
D03*
X0326821Y0247427D02*
D03*
X0315404Y0263962D02*
D03*
X0318553Y0263962D02*
D03*
X0318553Y0256876D02*
D03*
X0315404Y0256876D02*
D03*
X0177215Y0291324D02*
D03*
X0180364Y0291324D02*
D03*
X0180364Y0298411D02*
D03*
X0177215Y0298411D02*
D03*
X0161959Y0298411D02*
D03*
X0165108Y0298411D02*
D03*
X0165108Y0291325D02*
D03*
X0161959Y0291325D02*
D03*
X0181152Y0257958D02*
D03*
X0184301Y0257958D02*
D03*
X0184301Y0265045D02*
D03*
X0181152Y0265045D02*
D03*
X0162451Y0265045D02*
D03*
X0165601Y0265045D02*
D03*
X0165601Y0257958D02*
D03*
X0162451Y0257958D02*
D03*
X0177412Y0336502D02*
D03*
X0180561Y0336502D02*
D03*
X0180561Y0343588D02*
D03*
X0177412Y0343588D02*
D03*
X0299557Y0264258D02*
D03*
X0302707Y0264258D02*
D03*
X0302707Y0257171D02*
D03*
X0299557Y0257171D02*
D03*
X0162057Y0336502D02*
D03*
X0165207Y0336502D02*
D03*
X0165207Y0343588D02*
D03*
X0162057Y0343588D02*
D03*
X0220128Y0248608D02*
D03*
X0216978Y0248608D02*
D03*
X0216978Y0255695D02*
D03*
X0220128Y0255695D02*
D03*
X0218160Y0244474D02*
D03*
X0221309Y0244474D02*
D03*
X0221309Y0237388D02*
D03*
X0218160Y0237388D02*
D03*
D80*
X0321112Y0362092D02*
D03*
X0321112Y0349100D02*
D03*
D137*
X0196998Y0257250D02*
D03*
X0200738Y0266502D02*
D03*
D137*
X0193258Y0266502D02*
D03*
D117*
X0259597Y0236403D02*
D03*
X0266683Y0236403D02*
D03*
X0266683Y0246443D02*
D03*
X0259597Y0246443D02*
D03*
X0269242Y0250281D02*
D03*
X0276329Y0250281D02*
D03*
X0276329Y0260321D02*
D03*
X0269242Y0260321D02*
D03*
X0182884Y0351048D02*
D03*
X0175797Y0351048D02*
D03*
X0175797Y0361088D02*
D03*
X0182884Y0361088D02*
D03*
X0167274Y0360813D02*
D03*
X0160187Y0360813D02*
D03*
X0160187Y0370852D02*
D03*
X0167274Y0370852D02*
D03*
D158*
X0266683Y0242998D02*
D03*
X0266683Y0239848D02*
D03*
X0259597Y0239848D02*
D03*
X0259597Y0242998D02*
D03*
X0276329Y0256876D02*
D03*
X0276329Y0253726D02*
D03*
X0269242Y0253726D02*
D03*
X0269242Y0256876D02*
D03*
X0182884Y0354493D02*
D03*
X0182884Y0357643D02*
D03*
X0175797Y0357643D02*
D03*
X0175797Y0354493D02*
D03*
X0167274Y0364258D02*
D03*
X0167274Y0367407D02*
D03*
X0160187Y0367407D02*
D03*
X0160187Y0364258D02*
D03*
D193*
X0190994Y0334927D02*
D03*
X0190994Y0340832D02*
D03*
D121*
X0196703Y0374002D02*
D03*
X0209695Y0374002D02*
D03*
X0154774Y0171836D02*
G01*
G75*
D164*
X0173081Y0188371D02*
D03*
X0173081Y0180891D02*
D03*
D203*
X0163435Y0224494D02*
D03*
X0163435Y0206777D02*
D03*
D60*
X0255069Y0178135D02*
D03*
X0255069Y0184434D02*
D03*
D241*
X0171802Y0175379D02*
D03*
X0164321Y0175379D02*
D03*
D249*
X0167569Y0187190D02*
D03*
X0167569Y0180891D02*
D03*
D306*
X0269538Y0202840D02*
D03*
X0269538Y0206580D02*
D03*
X0269538Y0210320D02*
D03*
X0260089Y0210320D02*
D03*
X0260089Y0206580D02*
D03*
X0260089Y0202840D02*
D03*
X0192372Y0202840D02*
D03*
X0192372Y0206580D02*
D03*
X0192372Y0210320D02*
D03*
X0201821Y0210320D02*
D03*
X0201821Y0206580D02*
D03*
X0201821Y0202840D02*
D03*
X0184892Y0202840D02*
D03*
X0184892Y0206580D02*
D03*
X0184892Y0210320D02*
D03*
X0175443Y0210320D02*
D03*
X0175443Y0206580D02*
D03*
X0175443Y0202840D02*
D03*
X0209302Y0202840D02*
D03*
X0209302Y0206580D02*
D03*
X0209302Y0210320D02*
D03*
X0218750Y0210320D02*
D03*
X0218750Y0206580D02*
D03*
X0218750Y0202840D02*
D03*
X0235679Y0202840D02*
D03*
X0235679Y0206580D02*
D03*
X0235679Y0210320D02*
D03*
X0226231Y0210320D02*
D03*
X0226231Y0206580D02*
D03*
X0226231Y0202840D02*
D03*
X0243160Y0202840D02*
D03*
X0243160Y0206580D02*
D03*
X0243160Y0210320D02*
D03*
X0252609Y0210320D02*
D03*
X0252609Y0206580D02*
D03*
X0252609Y0202840D02*
D03*
D298*
X0269243Y0177446D02*
D03*
X0269243Y0184533D02*
D03*
X0259203Y0184533D02*
D03*
X0259203Y0177446D02*
D03*
X0194144Y0177446D02*
D03*
X0194144Y0184533D02*
D03*
X0204183Y0184533D02*
D03*
X0204183Y0177446D02*
D03*
X0189617Y0177446D02*
D03*
X0189617Y0184533D02*
D03*
X0179577Y0184533D02*
D03*
X0179577Y0177446D02*
D03*
X0209203Y0177446D02*
D03*
X0209203Y0184533D02*
D03*
X0219242Y0184533D02*
D03*
X0219242Y0177446D02*
D03*
X0236073Y0177446D02*
D03*
X0236073Y0184533D02*
D03*
X0226034Y0184533D02*
D03*
X0226034Y0177446D02*
D03*
X0240995Y0177446D02*
D03*
X0240995Y0184533D02*
D03*
X0251034Y0184533D02*
D03*
X0251034Y0177446D02*
D03*
X0204085Y0191226D02*
D03*
X0204085Y0198312D02*
D03*
X0194046Y0198312D02*
D03*
X0194046Y0191226D02*
D03*
X0178101Y0191226D02*
D03*
X0178101Y0198312D02*
D03*
X0188140Y0198312D02*
D03*
X0188140Y0191226D02*
D03*
X0219341Y0191226D02*
D03*
X0219341Y0198312D02*
D03*
X0209302Y0198312D02*
D03*
X0209302Y0191226D02*
D03*
X0226034Y0191226D02*
D03*
X0226034Y0198312D02*
D03*
X0236073Y0198312D02*
D03*
X0236073Y0191226D02*
D03*
X0251329Y0191226D02*
D03*
X0251329Y0198312D02*
D03*
X0241290Y0198312D02*
D03*
X0241290Y0191226D02*
D03*
X0258711Y0191324D02*
D03*
X0258711Y0198411D02*
D03*
X0268750Y0198411D02*
D03*
X0268750Y0191324D02*
D03*
D38*
X0262648Y0184533D02*
D03*
X0265798Y0184533D02*
D03*
X0265798Y0177446D02*
D03*
X0262648Y0177446D02*
D03*
X0197589Y0177446D02*
D03*
X0200739Y0177446D02*
D03*
X0200739Y0184533D02*
D03*
X0197589Y0184533D02*
D03*
X0183022Y0184533D02*
D03*
X0186172Y0184533D02*
D03*
X0186172Y0177446D02*
D03*
X0183022Y0177446D02*
D03*
X0212648Y0177446D02*
D03*
X0215798Y0177446D02*
D03*
X0215798Y0184533D02*
D03*
X0212648Y0184533D02*
D03*
X0229479Y0184533D02*
D03*
X0232628Y0184533D02*
D03*
X0232628Y0177446D02*
D03*
X0229479Y0177446D02*
D03*
X0244439Y0177446D02*
D03*
X0247589Y0177446D02*
D03*
X0247589Y0184533D02*
D03*
X0244439Y0184533D02*
D03*
X0197491Y0198312D02*
D03*
X0200640Y0198312D02*
D03*
X0200640Y0191226D02*
D03*
X0197491Y0191226D02*
D03*
X0181546Y0191226D02*
D03*
X0184695Y0191226D02*
D03*
X0184695Y0198312D02*
D03*
X0181546Y0198312D02*
D03*
X0212747Y0198312D02*
D03*
X0215896Y0198312D02*
D03*
X0215896Y0191226D02*
D03*
X0212747Y0191226D02*
D03*
X0229479Y0191226D02*
D03*
X0232628Y0191226D02*
D03*
X0232628Y0198312D02*
D03*
X0229479Y0198312D02*
D03*
X0244735Y0198312D02*
D03*
X0247884Y0198312D02*
D03*
X0247884Y0191226D02*
D03*
X0244735Y0191226D02*
D03*
X0262156Y0191324D02*
D03*
X0265305Y0191324D02*
D03*
X0265305Y0198411D02*
D03*
X0262156Y0198411D02*
D03*
D205*
X0273278Y0177584D02*
D03*
X0273278Y0183805D02*
D03*
X0238731Y0219021D02*
D03*
X0238731Y0225242D02*
D03*
X0234400Y0225242D02*
D03*
X0234400Y0219021D02*
D03*
X0230069Y0219021D02*
D03*
X0230069Y0225242D02*
D03*
X0225739Y0225242D02*
D03*
X0225739Y0219021D02*
D03*
X0243061Y0219021D02*
D03*
X0243061Y0225242D02*
D03*
X0247392Y0225242D02*
D03*
X0247392Y0219021D02*
D03*
X0251723Y0219021D02*
D03*
X0251723Y0225242D02*
D03*
X0256053Y0225242D02*
D03*
X0256053Y0219021D02*
D03*
X0208416Y0219021D02*
D03*
X0208416Y0225242D02*
D03*
X0212747Y0225242D02*
D03*
X0212747Y0219021D02*
D03*
X0217077Y0219021D02*
D03*
X0217077Y0225242D02*
D03*
X0221408Y0225242D02*
D03*
X0221408Y0219021D02*
D03*
X0173770Y0219021D02*
D03*
X0173770Y0225242D02*
D03*
X0178101Y0225242D02*
D03*
X0178101Y0219021D02*
D03*
X0182431Y0219021D02*
D03*
X0182431Y0225242D02*
D03*
X0186762Y0225242D02*
D03*
X0186762Y0219021D02*
D03*
X0191093Y0219021D02*
D03*
X0191093Y0225242D02*
D03*
X0195424Y0225242D02*
D03*
X0195424Y0219021D02*
D03*
X0199754Y0219021D02*
D03*
X0199754Y0225242D02*
D03*
X0204085Y0225242D02*
D03*
X0204085Y0219021D02*
D03*
X0273278Y0190970D02*
D03*
X0273278Y0197190D02*
D03*
X0260384Y0219021D02*
D03*
X0260384Y0225242D02*
D03*
X0264715Y0225242D02*
D03*
X0264715Y0219021D02*
D03*
X0269046Y0219021D02*
D03*
X0269046Y0225242D02*
D03*
X0273376Y0225242D02*
D03*
X0273376Y0219021D02*
D03*
D43*
X0157333Y0186108D02*
D03*
X0163632Y0186108D02*
D03*
X0163632Y0181580D02*
D03*
X0157333Y0181580D02*
D03*
X0164617Y0195064D02*
D03*
X0158317Y0195064D02*
D03*
X0164617Y0199690D02*
D03*
X0158317Y0199690D02*
D03*
D116*
X0169931Y0200576D02*
D03*
X0169931Y0193096D02*
D03*
D300*
X0157569Y0190635D02*
D03*
X0163790Y0190635D02*
D03*
X0150049Y0172349D02*
G01*
G75*
D314*
X0141722Y0219692D02*
D03*
X0147943Y0219692D02*
D03*
X0146073Y0225007D02*
D03*
X0139852Y0225007D02*
D03*
X0147943Y0215164D02*
D03*
X0141722Y0215164D02*
D03*
X0140935Y0175302D02*
D03*
X0147155Y0175302D02*
D03*
X0147647Y0206207D02*
D03*
X0141427Y0206207D02*
D03*
D311*
X0139518Y0238983D02*
D03*
X0146998Y0238983D02*
D03*
X0146998Y0230518D02*
D03*
X0143258Y0230518D02*
D03*
X0139025Y0195617D02*
D03*
X0146506Y0195617D02*
D03*
X0146506Y0187152D02*
D03*
X0142766Y0187152D02*
D03*
D311*
X0139518Y0230518D02*
D03*
X0139025Y0187152D02*
D03*
D312*
X0136958Y0223235D02*
D03*
X0136958Y0216936D02*
D03*
X0136171Y0213196D02*
D03*
X0136171Y0206896D02*
D03*
D313*
X0140305Y0210735D02*
D03*
X0146604Y0210735D02*
D03*
X0140305Y0181404D02*
D03*
X0146604Y0181404D02*
D03*
X0140305Y0201286D02*
D03*
X0146604Y0201286D02*
D03*
X0374311Y0173278D02*
G01*
G75*
D137*
X0445079Y0300562D02*
D03*
X0441338Y0291310D02*
D03*
X0401968Y0185955D02*
D03*
X0398228Y0176703D02*
D03*
X0384252Y0176703D02*
D03*
X0387992Y0185955D02*
D03*
X0411811Y0176703D02*
D03*
X0415551Y0185955D02*
D03*
X0424311Y0209440D02*
D03*
X0428051Y0218692D02*
D03*
X0391339Y0204656D02*
D03*
X0395079Y0213908D02*
D03*
D137*
X0437598Y0300562D02*
D03*
X0394488Y0185955D02*
D03*
X0380512Y0185955D02*
D03*
X0408071Y0185955D02*
D03*
X0431791Y0209440D02*
D03*
X0387598Y0213908D02*
D03*
D212*
X0450689Y0177806D02*
D03*
X0450689Y0189223D02*
D03*
D176*
X0444980Y0191191D02*
D03*
X0433563Y0191191D02*
D03*
D196*
X0447461Y0210680D02*
D03*
X0438209Y0214420D02*
D03*
X0444862Y0201329D02*
D03*
X0435610Y0205069D02*
D03*
D196*
X0447461Y0218160D02*
D03*
X0435610Y0197589D02*
D03*
D60*
X0449508Y0199656D02*
D03*
X0449508Y0205955D02*
D03*
X0481102Y0303751D02*
D03*
X0481102Y0310050D02*
D03*
X0460138Y0306743D02*
D03*
X0460138Y0300443D02*
D03*
X0464764Y0295621D02*
D03*
X0464764Y0301920D02*
D03*
D178*
X0453051Y0284065D02*
D03*
X0434941Y0284065D02*
D03*
X0453051Y0225798D02*
D03*
X0434941Y0225798D02*
D03*
X0462303Y0225798D02*
D03*
X0480413Y0225798D02*
D03*
X0462303Y0284065D02*
D03*
X0480413Y0284065D02*
D03*
X0425689Y0284065D02*
D03*
X0407579Y0284065D02*
D03*
X0380217Y0284065D02*
D03*
X0398327Y0284065D02*
D03*
X0407185Y0225798D02*
D03*
X0425295Y0225798D02*
D03*
X0397539Y0225798D02*
D03*
X0379429Y0225798D02*
D03*
D160*
X0443996Y0284065D02*
D03*
X0443996Y0225798D02*
D03*
X0471358Y0225798D02*
D03*
X0471358Y0284065D02*
D03*
X0416634Y0284065D02*
D03*
X0389272Y0284065D02*
D03*
X0416240Y0225798D02*
D03*
X0388484Y0225798D02*
D03*
D56*
X0443996Y0259656D02*
D03*
X0443996Y0250207D02*
D03*
X0471358Y0250207D02*
D03*
X0471358Y0259656D02*
D03*
X0416634Y0259656D02*
D03*
X0389272Y0259656D02*
D03*
X0416240Y0250207D02*
D03*
X0388484Y0250207D02*
D03*
D95*
X0405905Y0250306D02*
D03*
X0398819Y0250306D02*
D03*
X0398819Y0260345D02*
D03*
X0405905Y0260345D02*
D03*
X0384941Y0296861D02*
D03*
X0377854Y0296861D02*
D03*
X0377854Y0306900D02*
D03*
X0384941Y0306900D02*
D03*
X0461614Y0259853D02*
D03*
X0454527Y0259853D02*
D03*
X0454527Y0249813D02*
D03*
X0461614Y0249813D02*
D03*
D238*
X0405905Y0253750D02*
D03*
X0405905Y0256900D02*
D03*
X0398819Y0256900D02*
D03*
X0398819Y0253750D02*
D03*
X0384941Y0300306D02*
D03*
X0384941Y0303455D02*
D03*
X0377854Y0303455D02*
D03*
X0377854Y0300306D02*
D03*
X0454527Y0253258D02*
D03*
X0454527Y0256408D02*
D03*
X0461614Y0256408D02*
D03*
X0461614Y0253258D02*
D03*
D194*
X0379744Y0316939D02*
D03*
X0384744Y0316939D02*
D03*
X0389744Y0316939D02*
D03*
X0394744Y0316939D02*
D03*
X0399744Y0316939D02*
D03*
X0404744Y0316939D02*
D03*
X0409744Y0316939D02*
D03*
X0414744Y0316939D02*
D03*
X0379744Y0335837D02*
D03*
X0384744Y0335837D02*
D03*
X0389744Y0335837D02*
D03*
X0394744Y0335837D02*
D03*
X0399744Y0335837D02*
D03*
X0404744Y0335837D02*
D03*
X0409744Y0335837D02*
D03*
X0414744Y0335837D02*
D03*
X0456181Y0336034D02*
D03*
X0451181Y0336034D02*
D03*
X0446181Y0336034D02*
D03*
X0441181Y0336034D02*
D03*
X0436181Y0336034D02*
D03*
X0431181Y0336034D02*
D03*
X0426181Y0336034D02*
D03*
X0421181Y0336034D02*
D03*
X0456181Y0317136D02*
D03*
X0451181Y0317136D02*
D03*
X0446181Y0317136D02*
D03*
X0441181Y0317136D02*
D03*
X0436181Y0317136D02*
D03*
X0431181Y0317136D02*
D03*
X0426181Y0317136D02*
D03*
X0421181Y0317136D02*
D03*
X0462776Y0317136D02*
D03*
X0467776Y0317136D02*
D03*
X0472776Y0317136D02*
D03*
X0477776Y0317136D02*
D03*
X0462776Y0336034D02*
D03*
X0467776Y0336034D02*
D03*
X0472776Y0336034D02*
D03*
X0477776Y0336034D02*
D03*
D285*
X0459548Y0191959D02*
D03*
X0459548Y0186959D02*
D03*
X0459548Y0181959D02*
D03*
X0459548Y0176959D02*
D03*
X0478445Y0191959D02*
D03*
X0478445Y0186959D02*
D03*
X0478445Y0181959D02*
D03*
X0478445Y0176959D02*
D03*
X0476674Y0198810D02*
D03*
X0476674Y0203809D02*
D03*
X0476674Y0208809D02*
D03*
X0476674Y0213810D02*
D03*
X0457776Y0198810D02*
D03*
X0457776Y0203809D02*
D03*
X0457776Y0208809D02*
D03*
X0457776Y0213810D02*
D03*
D116*
X0379232Y0198337D02*
D03*
X0379232Y0190857D02*
D03*
X0386122Y0190857D02*
D03*
X0386122Y0198337D02*
D03*
X0393012Y0198337D02*
D03*
X0393012Y0190857D02*
D03*
X0399902Y0190857D02*
D03*
X0399902Y0198337D02*
D03*
X0406791Y0198337D02*
D03*
X0406791Y0190857D02*
D03*
X0413681Y0190857D02*
D03*
X0413681Y0198337D02*
D03*
X0420571Y0198337D02*
D03*
X0420571Y0190857D02*
D03*
X0427461Y0190857D02*
D03*
X0427461Y0198337D02*
D03*
X0439961Y0177372D02*
D03*
X0439961Y0184853D02*
D03*
X0432776Y0184656D02*
D03*
X0432776Y0177176D02*
D03*
D87*
X0417717Y0204636D02*
D03*
X0417717Y0217628D02*
D03*
X0380512Y0217235D02*
D03*
X0380512Y0204243D02*
D03*
X0401673Y0204636D02*
D03*
X0401673Y0217628D02*
D03*
X0409842Y0217628D02*
D03*
X0409842Y0204636D02*
D03*
D197*
X0427264Y0184262D02*
D03*
X0420965Y0184262D02*
D03*
X0420866Y0178652D02*
D03*
X0427165Y0178652D02*
D03*
X0424803Y0204735D02*
D03*
X0431102Y0204735D02*
D03*
X0455678Y0294298D02*
D03*
X0449379Y0294298D02*
D03*
X0395669Y0218613D02*
D03*
X0389370Y0218613D02*
D03*
D241*
X0468701Y0308770D02*
D03*
X0476181Y0308770D02*
D03*
X0105285Y0328895D02*
G01*
G75*
D251*
X0132333Y0347596D02*
D03*
X0132333Y0350155D02*
D03*
X0132333Y0352714D02*
D03*
X0132333Y0355273D02*
D03*
X0132333Y0357832D02*
D03*
X0132333Y0360391D02*
D03*
X0132333Y0362950D02*
D03*
X0132333Y0365509D02*
D03*
X0132333Y0368068D02*
D03*
X0132333Y0370627D02*
D03*
X0132333Y0373186D02*
D03*
X0132333Y0375745D02*
D03*
X0109340Y0347596D02*
D03*
X0109340Y0350155D02*
D03*
X0109340Y0352714D02*
D03*
X0109340Y0355273D02*
D03*
X0109340Y0357832D02*
D03*
X0109340Y0360391D02*
D03*
X0109340Y0362950D02*
D03*
X0109340Y0365509D02*
D03*
X0109340Y0368068D02*
D03*
X0109340Y0370627D02*
D03*
X0109340Y0373186D02*
D03*
X0109340Y0375745D02*
D03*
D215*
X0109360Y0379682D02*
D03*
X0115581Y0379682D02*
D03*
X0126112Y0379682D02*
D03*
X0119891Y0379682D02*
D03*
D43*
X0128120Y0342478D02*
D03*
X0134419Y0342478D02*
D03*
X0115128Y0342084D02*
D03*
X0121427Y0342084D02*
D03*
D37*
X0123203Y0331454D02*
D03*
X0123203Y0337753D02*
D03*
X0116880Y0337753D02*
D03*
X0116880Y0331454D02*
D03*
X0112254Y0331454D02*
D03*
X0112254Y0337753D02*
D03*
X0132431Y0337655D02*
D03*
X0132431Y0331356D02*
D03*
X0107628Y0337753D02*
D03*
X0107628Y0331454D02*
D03*
X0127825Y0337753D02*
D03*
X0127825Y0331454D02*
D03*
X0304590Y0168158D02*
G01*
G75*
D308*
X0362070Y0181249D02*
D03*
X0334708Y0181249D02*
D03*
D24*
X0320535Y0196308D02*
D03*
X0311873Y0196308D02*
D03*
X0312169Y0206347D02*
D03*
X0320830Y0206347D02*
D03*
D167*
X0349669Y0225934D02*
D03*
X0362661Y0225934D02*
D03*
D141*
X0364629Y0210284D02*
D03*
X0364629Y0218945D02*
D03*
X0334511Y0198571D02*
D03*
X0334511Y0207233D02*
D03*
D43*
X0324177Y0196504D02*
D03*
X0330476Y0196504D02*
D03*
X0324275Y0201327D02*
D03*
X0317976Y0201327D02*
D03*
X0345436Y0209300D02*
D03*
X0339137Y0209300D02*
D03*
D217*
X0357031Y0205855D02*
D03*
X0366283Y0202115D02*
D03*
X0343055Y0204575D02*
D03*
X0352307Y0200835D02*
D03*
D217*
X0357031Y0198375D02*
D03*
X0343054Y0197095D02*
D03*
D53*
X0354393Y0219910D02*
D03*
X0350653Y0210658D02*
D03*
D53*
X0358133Y0210658D02*
D03*
D115*
X0311086Y0212449D02*
D03*
X0311086Y0224260D02*
D03*
D96*
X0319747Y0224260D02*
D03*
X0334314Y0224260D02*
D03*
D60*
X0320043Y0210875D02*
D03*
X0320043Y0217174D02*
D03*
D288*
X0308232Y0199654D02*
D03*
X0308232Y0205874D02*
D03*
D87*
X0327031Y0218847D02*
D03*
X0327031Y0205855D02*
D03*
D212*
X0342877Y0225835D02*
D03*
X0342877Y0214418D02*
D03*
X0067106Y0260650D02*
%LPD*%
G01*
G36*
G01*
X0103405Y0192057D02*
X0103405Y0193416D01*
G75*
G02*
X0103986Y0193996I0000581J0000000D01*
G01*
X0105147Y0193996D01*
G75*
G02*
X0105728Y0193416I0000000J-000581D01*
G01*
X0105728Y0192057D01*
G75*
G02*
X0105147Y0191477I-000581J0000000D01*
G01*
X0103986Y0191477D01*
G75*
G02*
X0103405Y0192057I0000000J0000581D01*
G01*
G37*
G36*
G01*
X0107224Y0192057D02*
X0107224Y0193416D01*
G75*
G02*
X0107805Y0193996I0000581J0000000D01*
G01*
X0108966Y0193996D01*
G75*
G02*
X0109547Y0193416I0000000J-000581D01*
G01*
X0109547Y0192057D01*
G75*
G02*
X0108966Y0191477I-000581J0000000D01*
G01*
X0107805Y0191477D01*
G75*
G02*
X0107224Y0192057I0000000J0000581D01*
G01*
G37*
G36*
G01*
X0078748Y0157235D02*
X0077389Y0157235D01*
G75*
G02*
X0076809Y0157815I0000000J0000581D01*
G01*
X0076809Y0158977D01*
G75*
G02*
X0077389Y0159557I0000581J0000000D01*
G01*
X0078748Y0159557D01*
G75*
G02*
X0079328Y0158977I0000000J-000581D01*
G01*
X0079328Y0157815D01*
G75*
G02*
X0078748Y0157235I-000581J0000000D01*
G01*
G37*
G36*
G01*
X0078748Y0161054D02*
X0077389Y0161054D01*
G75*
G02*
X0076809Y0161634I0000000J0000581D01*
G01*
X0076809Y0162796D01*
G75*
G02*
X0077389Y0163376I0000581J0000000D01*
G01*
X0078748Y0163376D01*
G75*
G02*
X0079328Y0162796I0000000J-000581D01*
G01*
X0079328Y0161634D01*
G75*
G02*
X0078748Y0161054I-000581J0000000D01*
G01*
G37*
G36*
G01*
X0103639Y0154626D02*
X0104998Y0154626D01*
G75*
G02*
X0105578Y0154046I0000000J-000581D01*
G01*
X0105578Y0152884D01*
G75*
G02*
X0104998Y0152304I-000581J0000000D01*
G01*
X0103639Y0152304D01*
G75*
G02*
X0103059Y0152884I0000000J0000581D01*
G01*
X0103059Y0154046D01*
G75*
G02*
X0103639Y0154626I0000581J0000000D01*
G01*
G37*
G36*
G01*
X0103639Y0150807D02*
X0104998Y0150807D01*
G75*
G02*
X0105578Y0150227I0000000J-000581D01*
G01*
X0105578Y0149065D01*
G75*
G02*
X0104998Y0148485I-000581J0000000D01*
G01*
X0103639Y0148485D01*
G75*
G02*
X0103059Y0149065I0000000J0000581D01*
G01*
X0103059Y0150227D01*
G75*
G02*
X0103639Y0150807I0000581J0000000D01*
G01*
G37*
G36*
G01*
X0087258Y0254650D02*
X0088616Y0254650D01*
G75*
G02*
X0089197Y0254069I0000000J-000581D01*
G01*
X0089197Y0252908D01*
G75*
G02*
X0088616Y0252327I-000581J0000000D01*
G01*
X0087258Y0252327D01*
G75*
G02*
X0086677Y0252908I0000000J0000581D01*
G01*
X0086677Y0254069D01*
G75*
G02*
X0087258Y0254650I0000581J0000000D01*
G01*
G37*
G36*
G01*
X0087258Y0250831D02*
X0088616Y0250831D01*
G75*
G02*
X0089197Y0250250I0000000J-000581D01*
G01*
X0089197Y0249089D01*
G75*
G02*
X0088616Y0248508I-000581J0000000D01*
G01*
X0087258Y0248508D01*
G75*
G02*
X0086677Y0249089I0000000J0000581D01*
G01*
X0086677Y0250250D01*
G75*
G02*
X0087258Y0250831I0000581J0000000D01*
G01*
G37*
G36*
G01*
X0101260Y0241088D02*
X0101260Y0239070D01*
G75*
G02*
X0100398Y0238209I-000861J0000000D01*
G01*
X0098676Y0238209D01*
G75*
G02*
X0097815Y0239070I0000000J0000861D01*
G01*
X0097815Y0241088D01*
G75*
G02*
X0098676Y0241949I0000861J0000000D01*
G01*
X0100398Y0241949D01*
G75*
G02*
X0101260Y0241088I0000000J-000861D01*
G01*
G37*
G36*
G01*
X0095059Y0241088D02*
X0095059Y0239070D01*
G75*
G02*
X0094198Y0238209I-000861J0000000D01*
G01*
X0092475Y0238209D01*
G75*
G02*
X0091614Y0239070I0000000J0000861D01*
G01*
X0091614Y0241088D01*
G75*
G02*
X0092475Y0241949I0000861J0000000D01*
G01*
X0094198Y0241949D01*
G75*
G02*
X0095059Y0241088I0000000J-000861D01*
G01*
G37*
G36*
G01*
X0104310Y0170378D02*
X0106327Y0170378D01*
G75*
G02*
X0107189Y0169517I0000000J-000861D01*
G01*
X0107189Y0167795D01*
G75*
G02*
X0106327Y0166933I-000861J0000000D01*
G01*
X0104310Y0166933D01*
G75*
G02*
X0103449Y0167795I0000000J0000861D01*
G01*
X0103449Y0169517D01*
G75*
G02*
X0104310Y0170378I0000861J0000000D01*
G01*
G37*
G36*
G01*
X0104310Y0164178D02*
X0106327Y0164178D01*
G75*
G02*
X0107189Y0163316I0000000J-000861D01*
G01*
X0107189Y0161594D01*
G75*
G02*
X0106327Y0160733I-000861J0000000D01*
G01*
X0104310Y0160733D01*
G75*
G02*
X0103449Y0161594I0000000J0000861D01*
G01*
X0103449Y0163316D01*
G75*
G02*
X0104310Y0164178I0000861J0000000D01*
G01*
G37*
G36*
G01*
X0078748Y0164985D02*
X0077389Y0164985D01*
G75*
G02*
X0076809Y0165565I0000000J0000581D01*
G01*
X0076809Y0166727D01*
G75*
G02*
X0077389Y0167307I0000581J0000000D01*
G01*
X0078748Y0167307D01*
G75*
G02*
X0079328Y0166727I0000000J-000581D01*
G01*
X0079328Y0165565D01*
G75*
G02*
X0078748Y0164985I-000581J0000000D01*
G01*
G37*
G36*
G01*
X0078748Y0168804D02*
X0077389Y0168804D01*
G75*
G02*
X0076809Y0169384I0000000J0000581D01*
G01*
X0076809Y0170546D01*
G75*
G02*
X0077389Y0171126I0000581J0000000D01*
G01*
X0078748Y0171126D01*
G75*
G02*
X0079328Y0170546I0000000J-000581D01*
G01*
X0079328Y0169384D01*
G75*
G02*
X0078748Y0168804I-000581J0000000D01*
G01*
G37*
G36*
G01*
X0095248Y0152876D02*
X0095248Y0154235D01*
G75*
G02*
X0095828Y0154815I0000581J0000000D01*
G01*
X0096990Y0154815D01*
G75*
G02*
X0097571Y0154235I0000000J-000581D01*
G01*
X0097571Y0152876D01*
G75*
G02*
X0096990Y0152296I-000581J0000000D01*
G01*
X0095828Y0152296D01*
G75*
G02*
X0095248Y0152876I0000000J0000581D01*
G01*
G37*
G36*
G01*
X0099067Y0152876D02*
X0099067Y0154235D01*
G75*
G02*
X0099647Y0154815I0000581J0000000D01*
G01*
X0100809Y0154815D01*
G75*
G02*
X0101389Y0154235I0000000J-000581D01*
G01*
X0101389Y0152876D01*
G75*
G02*
X0100809Y0152296I-000581J0000000D01*
G01*
X0099647Y0152296D01*
G75*
G02*
X0099067Y0152876I0000000J0000581D01*
G01*
G37*
G36*
G01*
X0117224Y0159164D02*
X0117224Y0157806D01*
G75*
G02*
X0116643Y0157225I-000581J0000000D01*
G01*
X0115482Y0157225D01*
G75*
G02*
X0114901Y0157806I0000000J0000581D01*
G01*
X0114901Y0159164D01*
G75*
G02*
X0115482Y0159744I0000581J0000000D01*
G01*
X0116643Y0159744D01*
G75*
G02*
X0117224Y0159164I0000000J-000581D01*
G01*
G37*
G36*
G01*
X0113405Y0159164D02*
X0113405Y0157806D01*
G75*
G02*
X0112825Y0157225I-000581J0000000D01*
G01*
X0111663Y0157225D01*
G75*
G02*
X0111082Y0157806I0000000J0000581D01*
G01*
X0111082Y0159164D01*
G75*
G02*
X0111663Y0159744I0000581J0000000D01*
G01*
X0112825Y0159744D01*
G75*
G02*
X0113405Y0159164I0000000J-000581D01*
G01*
G37*
G36*
G01*
X0120561Y0163721D02*
X0121919Y0163721D01*
G75*
G02*
X0122500Y0163140I0000000J-000581D01*
G01*
X0122500Y0161979D01*
G75*
G02*
X0121919Y0161398I-000581J0000000D01*
G01*
X0120561Y0161398D01*
G75*
G02*
X0119980Y0161979I0000000J0000581D01*
G01*
X0119980Y0163140D01*
G75*
G02*
X0120561Y0163721I0000581J0000000D01*
G01*
G37*
G36*
G01*
X0120561Y0159902D02*
X0121919Y0159902D01*
G75*
G02*
X0122500Y0159321I0000000J-000581D01*
G01*
X0122500Y0158160D01*
G75*
G02*
X0121919Y0157579I-000581J0000000D01*
G01*
X0120561Y0157579D01*
G75*
G02*
X0119980Y0158160I0000000J0000581D01*
G01*
X0119980Y0159321D01*
G75*
G02*
X0120561Y0159902I0000581J0000000D01*
G01*
G37*
G36*
G01*
X0121742Y0188524D02*
X0123100Y0188524D01*
G75*
G02*
X0123681Y0187943I0000000J-000581D01*
G01*
X0123681Y0186782D01*
G75*
G02*
X0123100Y0186201I-000581J0000000D01*
G01*
X0121742Y0186201D01*
G75*
G02*
X0121161Y0186782I0000000J0000581D01*
G01*
X0121161Y0187943D01*
G75*
G02*
X0121742Y0188524I0000581J0000000D01*
G01*
G37*
G36*
G01*
X0121742Y0184705D02*
X0123100Y0184705D01*
G75*
G02*
X0123681Y0184124I0000000J-000581D01*
G01*
X0123681Y0182963D01*
G75*
G02*
X0123100Y0182382I-000581J0000000D01*
G01*
X0121742Y0182382D01*
G75*
G02*
X0121161Y0182963I0000000J0000581D01*
G01*
X0121161Y0184124D01*
G75*
G02*
X0121742Y0184705I0000581J0000000D01*
G01*
G37*
G36*
G01*
X0078748Y0172735D02*
X0077389Y0172735D01*
G75*
G02*
X0076809Y0173315I0000000J0000581D01*
G01*
X0076809Y0174477D01*
G75*
G02*
X0077389Y0175057I0000581J0000000D01*
G01*
X0078748Y0175057D01*
G75*
G02*
X0079328Y0174477I0000000J-000581D01*
G01*
X0079328Y0173315D01*
G75*
G02*
X0078748Y0172735I-000581J0000000D01*
G01*
G37*
G36*
G01*
X0078748Y0176554D02*
X0077389Y0176554D01*
G75*
G02*
X0076809Y0177134I0000000J0000581D01*
G01*
X0076809Y0178296D01*
G75*
G02*
X0077389Y0178876I0000581J0000000D01*
G01*
X0078748Y0178876D01*
G75*
G02*
X0079328Y0178296I0000000J-000581D01*
G01*
X0079328Y0177134D01*
G75*
G02*
X0078748Y0176554I-000581J0000000D01*
G01*
G37*
G36*
G01*
X0078748Y0180485D02*
X0077389Y0180485D01*
G75*
G02*
X0076809Y0181065I0000000J0000581D01*
G01*
X0076809Y0182227D01*
G75*
G02*
X0077389Y0182807I0000581J0000000D01*
G01*
X0078748Y0182807D01*
G75*
G02*
X0079328Y0182227I0000000J-000581D01*
G01*
X0079328Y0181065D01*
G75*
G02*
X0078748Y0180485I-000581J0000000D01*
G01*
G37*
G36*
G01*
X0078748Y0184304D02*
X0077389Y0184304D01*
G75*
G02*
X0076809Y0184884I0000000J0000581D01*
G01*
X0076809Y0186046D01*
G75*
G02*
X0077389Y0186626I0000581J0000000D01*
G01*
X0078748Y0186626D01*
G75*
G02*
X0079328Y0186046I0000000J-000581D01*
G01*
X0079328Y0184884D01*
G75*
G02*
X0078748Y0184304I-000581J0000000D01*
G01*
G37*
G36*
G01*
X0103248Y0156876D02*
X0103248Y0158235D01*
G75*
G02*
X0103828Y0158815I0000581J0000000D01*
G01*
X0104990Y0158815D01*
G75*
G02*
X0105571Y0158235I0000000J-000581D01*
G01*
X0105571Y0156876D01*
G75*
G02*
X0104990Y0156296I-000581J0000000D01*
G01*
X0103828Y0156296D01*
G75*
G02*
X0103248Y0156876I0000000J0000581D01*
G01*
G37*
G36*
G01*
X0107067Y0156876D02*
X0107067Y0158235D01*
G75*
G02*
X0107647Y0158815I0000581J0000000D01*
G01*
X0108809Y0158815D01*
G75*
G02*
X0109389Y0158235I0000000J-000581D01*
G01*
X0109389Y0156876D01*
G75*
G02*
X0108809Y0156296I-000581J0000000D01*
G01*
X0107647Y0156296D01*
G75*
G02*
X0107067Y0156876I0000000J0000581D01*
G01*
G37*
D58*
X0093297Y0246642D03*
X0100777Y0246642D03*
X0097037Y0254516D03*
D320*
X0098996Y0183170D03*
X0096437Y0183170D03*
X0093878Y0183170D03*
X0091319Y0183170D03*
X0088760Y0183170D03*
X0086200Y0183170D03*
X0083641Y0183170D03*
X0083641Y0159941D03*
X0086200Y0159941D03*
X0088760Y0159941D03*
X0091319Y0159941D03*
X0093878Y0159941D03*
X0096437Y0159941D03*
X0098996Y0159941D03*
G36*
G01*
X0095248Y0148876D02*
X0095248Y0150235D01*
G75*
G02*
X0095828Y0150815I0000581J0000000D01*
G01*
X0096990Y0150815D01*
G75*
G02*
X0097571Y0150235I0000000J-000581D01*
G01*
X0097571Y0148876D01*
G75*
G02*
X0096990Y0148296I-000581J0000000D01*
G01*
X0095828Y0148296D01*
G75*
G02*
X0095248Y0148876I0000000J0000581D01*
G01*
G37*
G36*
G01*
X0099067Y0148876D02*
X0099067Y0150235D01*
G75*
G02*
X0099647Y0150815I0000581J0000000D01*
G01*
X0100809Y0150815D01*
G75*
G02*
X0101389Y0150235I0000000J-000581D01*
G01*
X0101389Y0148876D01*
G75*
G02*
X0100809Y0148296I-000581J0000000D01*
G01*
X0099647Y0148296D01*
G75*
G02*
X0099067Y0148876I0000000J0000581D01*
G01*
G37*
G36*
G01*
X0118002Y0196004D02*
X0119360Y0196004D01*
G75*
G02*
X0119941Y0195424I0000000J-000581D01*
G01*
X0119941Y0194262D01*
G75*
G02*
X0119360Y0193681I-000581J0000000D01*
G01*
X0118002Y0193681D01*
G75*
G02*
X0117421Y0194262I0000000J0000581D01*
G01*
X0117421Y0195424D01*
G75*
G02*
X0118002Y0196004I0000581J0000000D01*
G01*
G37*
G36*
G01*
X0118002Y0192185D02*
X0119360Y0192185D01*
G75*
G02*
X0119941Y0191605I0000000J-000581D01*
G01*
X0119941Y0190443D01*
G75*
G02*
X0119360Y0189863I-000581J0000000D01*
G01*
X0118002Y0189863D01*
G75*
G02*
X0117421Y0190443I0000000J0000581D01*
G01*
X0117421Y0191605D01*
G75*
G02*
X0118002Y0192185I0000581J0000000D01*
G01*
G37*
G36*
G01*
X0123100Y0189863D02*
X0121742Y0189863D01*
G75*
G02*
X0121161Y0190443I0000000J0000581D01*
G01*
X0121161Y0191605D01*
G75*
G02*
X0121742Y0192185I0000581J0000000D01*
G01*
X0123100Y0192185D01*
G75*
G02*
X0123681Y0191605I0000000J-000581D01*
G01*
X0123681Y0190443D01*
G75*
G02*
X0123100Y0189863I-000581J0000000D01*
G01*
G37*
G36*
G01*
X0123100Y0193681D02*
X0121742Y0193681D01*
G75*
G02*
X0121161Y0194262I0000000J0000581D01*
G01*
X0121161Y0195424D01*
G75*
G02*
X0121742Y0196004I0000581J0000000D01*
G01*
X0123100Y0196004D01*
G75*
G02*
X0123681Y0195424I0000000J-000581D01*
G01*
X0123681Y0194262D01*
G75*
G02*
X0123100Y0193681I-000581J0000000D01*
G01*
G37*
G36*
G01*
X0102067Y0193416D02*
X0102067Y0192057D01*
G75*
G02*
X0101486Y0191477I-000581J0000000D01*
G01*
X0100325Y0191477D01*
G75*
G02*
X0099744Y0192057I0000000J0000581D01*
G01*
X0099744Y0193416D01*
G75*
G02*
X0100325Y0193996I0000581J0000000D01*
G01*
X0101486Y0193996D01*
G75*
G02*
X0102067Y0193416I0000000J-000581D01*
G01*
G37*
G36*
G01*
X0098248Y0193416D02*
X0098248Y0192057D01*
G75*
G02*
X0097667Y0191477I-000581J0000000D01*
G01*
X0096506Y0191477D01*
G75*
G02*
X0095925Y0192057I0000000J0000581D01*
G01*
X0095925Y0193416D01*
G75*
G02*
X0096506Y0193996I0000581J0000000D01*
G01*
X0097667Y0193996D01*
G75*
G02*
X0098248Y0193416I0000000J-000581D01*
G01*
G37*
G36*
G01*
X0112263Y0146979D02*
X0112263Y0148337D01*
G75*
G02*
X0112844Y0148918I0000581J0000000D01*
G01*
X0114006Y0148918D01*
G75*
G02*
X0114586Y0148337I0000000J-000581D01*
G01*
X0114586Y0146979D01*
G75*
G02*
X0114006Y0146398I-000581J0000000D01*
G01*
X0112844Y0146398D01*
G75*
G02*
X0112263Y0146979I0000000J0000581D01*
G01*
G37*
G36*
G01*
X0116082Y0146979D02*
X0116082Y0148337D01*
G75*
G02*
X0116663Y0148918I0000581J0000000D01*
G01*
X0117825Y0148918D01*
G75*
G02*
X0118405Y0148337I0000000J-000581D01*
G01*
X0118405Y0146979D01*
G75*
G02*
X0117825Y0146398I-000581J0000000D01*
G01*
X0116663Y0146398D01*
G75*
G02*
X0116082Y0146979I0000000J0000581D01*
G01*
G37*
G36*
G01*
X0121742Y0221536D02*
X0123100Y0221536D01*
G75*
G02*
X0123681Y0220955I0000000J-000581D01*
G01*
X0123681Y0219794D01*
G75*
G02*
X0123100Y0219213I-000581J0000000D01*
G01*
X0121742Y0219213D01*
G75*
G02*
X0121161Y0219794I0000000J0000581D01*
G01*
X0121161Y0220955D01*
G75*
G02*
X0121742Y0221536I0000581J0000000D01*
G01*
G37*
G36*
G01*
X0121742Y0217717D02*
X0123100Y0217717D01*
G75*
G02*
X0123681Y0217136I0000000J-000581D01*
G01*
X0123681Y0215975D01*
G75*
G02*
X0123100Y0215394I-000581J0000000D01*
G01*
X0121742Y0215394D01*
G75*
G02*
X0121161Y0215975I0000000J0000581D01*
G01*
X0121161Y0217136D01*
G75*
G02*
X0121742Y0217717I0000581J0000000D01*
G01*
G37*
G36*
G01*
X0085925Y0198140D02*
X0085925Y0196782D01*
G75*
G02*
X0085344Y0196201I-000581J0000000D01*
G01*
X0084183Y0196201D01*
G75*
G02*
X0083602Y0196782I0000000J0000581D01*
G01*
X0083602Y0198140D01*
G75*
G02*
X0084183Y0198721I0000581J0000000D01*
G01*
X0085344Y0198721D01*
G75*
G02*
X0085925Y0198140I0000000J-000581D01*
G01*
G37*
G36*
G01*
X0082106Y0198140D02*
X0082106Y0196782D01*
G75*
G02*
X0081525Y0196201I-000581J0000000D01*
G01*
X0080364Y0196201D01*
G75*
G02*
X0079783Y0196782I0000000J0000581D01*
G01*
X0079783Y0198140D01*
G75*
G02*
X0080364Y0198721I0000581J0000000D01*
G01*
X0081525Y0198721D01*
G75*
G02*
X0082106Y0198140I0000000J-000581D01*
G01*
G37*
G36*
G01*
X0115019Y0232609D02*
X0115019Y0233967D01*
G75*
G02*
X0115600Y0234548I0000581J0000000D01*
G01*
X0116762Y0234548D01*
G75*
G02*
X0117342Y0233967I0000000J-000581D01*
G01*
X0117342Y0232609D01*
G75*
G02*
X0116762Y0232028I-000581J0000000D01*
G01*
X0115600Y0232028D01*
G75*
G02*
X0115019Y0232609I0000000J0000581D01*
G01*
G37*
G36*
G01*
X0118838Y0232609D02*
X0118838Y0233967D01*
G75*
G02*
X0119419Y0234548I0000581J0000000D01*
G01*
X0120580Y0234548D01*
G75*
G02*
X0121161Y0233967I0000000J-000581D01*
G01*
X0121161Y0232609D01*
G75*
G02*
X0120580Y0232028I-000581J0000000D01*
G01*
X0119419Y0232028D01*
G75*
G02*
X0118838Y0232609I0000000J0000581D01*
G01*
G37*
D323*
X0098405Y0125906D03*
X0098405Y0137914D03*
X0085216Y0125906D03*
X0085216Y0137914D03*
D321*
X0116614Y0122933D03*
X0116614Y0140886D03*
G36*
G01*
X0074104Y0154134D02*
X0075462Y0154134D01*
G75*
G02*
X0076043Y0153554I0000000J-000581D01*
G01*
X0076043Y0152392D01*
G75*
G02*
X0075462Y0151811I-000581J0000000D01*
G01*
X0074104Y0151811D01*
G75*
G02*
X0073523Y0152392I0000000J0000581D01*
G01*
X0073523Y0153554D01*
G75*
G02*
X0074104Y0154134I0000581J0000000D01*
G01*
G37*
G36*
G01*
X0074104Y0150315D02*
X0075462Y0150315D01*
G75*
G02*
X0076043Y0149735I0000000J-000581D01*
G01*
X0076043Y0148573D01*
G75*
G02*
X0075462Y0147993I-000581J0000000D01*
G01*
X0074104Y0147993D01*
G75*
G02*
X0073523Y0148573I0000000J0000581D01*
G01*
X0073523Y0149735D01*
G75*
G02*
X0074104Y0150315I0000581J0000000D01*
G01*
G37*
G36*
G01*
X0079783Y0192254D02*
X0079783Y0193613D01*
G75*
G02*
X0080364Y0194193I0000581J0000000D01*
G01*
X0081525Y0194193D01*
G75*
G02*
X0082106Y0193613I0000000J-000581D01*
G01*
X0082106Y0192254D01*
G75*
G02*
X0081525Y0191674I-000581J0000000D01*
G01*
X0080364Y0191674D01*
G75*
G02*
X0079783Y0192254I0000000J0000581D01*
G01*
G37*
G36*
G01*
X0083602Y0192254D02*
X0083602Y0193613D01*
G75*
G02*
X0084183Y0194193I0000581J0000000D01*
G01*
X0085344Y0194193D01*
G75*
G02*
X0085925Y0193613I0000000J-000581D01*
G01*
X0085925Y0192254D01*
G75*
G02*
X0085344Y0191674I-000581J0000000D01*
G01*
X0084183Y0191674D01*
G75*
G02*
X0083602Y0192254I0000000J0000581D01*
G01*
G37*
G36*
G01*
X0120364Y0155906D02*
X0121722Y0155906D01*
G75*
G02*
X0122303Y0155325I0000000J-000581D01*
G01*
X0122303Y0154164D01*
G75*
G02*
X0121722Y0153583I-000581J0000000D01*
G01*
X0120364Y0153583D01*
G75*
G02*
X0119783Y0154164I0000000J0000581D01*
G01*
X0119783Y0155325D01*
G75*
G02*
X0120364Y0155906I0000581J0000000D01*
G01*
G37*
G36*
G01*
X0120364Y0152087D02*
X0121722Y0152087D01*
G75*
G02*
X0122303Y0151506I0000000J-000581D01*
G01*
X0122303Y0150345D01*
G75*
G02*
X0121722Y0149764I-000581J0000000D01*
G01*
X0120364Y0149764D01*
G75*
G02*
X0119783Y0150345I0000000J0000581D01*
G01*
X0119783Y0151506D01*
G75*
G02*
X0120364Y0152087I0000581J0000000D01*
G01*
G37*
G36*
G01*
X0086889Y0189735D02*
X0086889Y0188376D01*
G75*
G02*
X0086309Y0187796I-000581J0000000D01*
G01*
X0085147Y0187796D01*
G75*
G02*
X0084567Y0188376I0000000J0000581D01*
G01*
X0084567Y0189735D01*
G75*
G02*
X0085147Y0190315I0000581J0000000D01*
G01*
X0086309Y0190315D01*
G75*
G02*
X0086889Y0189735I0000000J-000581D01*
G01*
G37*
G36*
G01*
X0083071Y0189735D02*
X0083071Y0188376D01*
G75*
G02*
X0082490Y0187796I-000581J0000000D01*
G01*
X0081328Y0187796D01*
G75*
G02*
X0080748Y0188376I0000000J0000581D01*
G01*
X0080748Y0189735D01*
G75*
G02*
X0081328Y0190315I0000581J0000000D01*
G01*
X0082490Y0190315D01*
G75*
G02*
X0083071Y0189735I0000000J-000581D01*
G01*
G37*
G36*
G01*
X0087293Y0243839D02*
X0088651Y0243839D01*
G75*
G02*
X0089232Y0243258I0000000J-000581D01*
G01*
X0089232Y0242097D01*
G75*
G02*
X0088651Y0241516I-000581J0000000D01*
G01*
X0087293Y0241516D01*
G75*
G02*
X0086712Y0242097I0000000J0000581D01*
G01*
X0086712Y0243258D01*
G75*
G02*
X0087293Y0243839I0000581J0000000D01*
G01*
G37*
G36*
G01*
X0087293Y0240020D02*
X0088651Y0240020D01*
G75*
G02*
X0089232Y0239439I0000000J-000581D01*
G01*
X0089232Y0238278D01*
G75*
G02*
X0088651Y0237697I-000581J0000000D01*
G01*
X0087293Y0237697D01*
G75*
G02*
X0086712Y0238278I0000000J0000581D01*
G01*
X0086712Y0239439D01*
G75*
G02*
X0087293Y0240020I0000581J0000000D01*
G01*
G37*
G36*
G01*
X0077327Y0204733D02*
X0075310Y0204733D01*
G75*
G02*
X0074449Y0205594I0000000J0000861D01*
G01*
X0074449Y0207316D01*
G75*
G02*
X0075310Y0208178I0000861J0000000D01*
G01*
X0077327Y0208178D01*
G75*
G02*
X0078189Y0207316I0000000J-000861D01*
G01*
X0078189Y0205594D01*
G75*
G02*
X0077327Y0204733I-000861J0000000D01*
G01*
G37*
G36*
G01*
X0077327Y0210933D02*
X0075310Y0210933D01*
G75*
G02*
X0074449Y0211795I0000000J0000861D01*
G01*
X0074449Y0213517D01*
G75*
G02*
X0075310Y0214378I0000861J0000000D01*
G01*
X0077327Y0214378D01*
G75*
G02*
X0078189Y0213517I0000000J-000861D01*
G01*
X0078189Y0211795D01*
G75*
G02*
X0077327Y0210933I-000861J0000000D01*
G01*
G37*
G36*
G01*
X0076998Y0196485D02*
X0075639Y0196485D01*
G75*
G02*
X0075059Y0197065I0000000J0000581D01*
G01*
X0075059Y0198227D01*
G75*
G02*
X0075639Y0198807I0000581J0000000D01*
G01*
X0076998Y0198807D01*
G75*
G02*
X0077578Y0198227I0000000J-000581D01*
G01*
X0077578Y0197065D01*
G75*
G02*
X0076998Y0196485I-000581J0000000D01*
G01*
G37*
G36*
G01*
X0076998Y0200304D02*
X0075639Y0200304D01*
G75*
G02*
X0075059Y0200884I0000000J0000581D01*
G01*
X0075059Y0202046D01*
G75*
G02*
X0075639Y0202626I0000581J0000000D01*
G01*
X0076998Y0202626D01*
G75*
G02*
X0077578Y0202046I0000000J-000581D01*
G01*
X0077578Y0200884D01*
G75*
G02*
X0076998Y0200304I-000581J0000000D01*
G01*
G37*
G36*
G01*
X0104998Y0183985D02*
X0103639Y0183985D01*
G75*
G02*
X0103059Y0184565I0000000J0000581D01*
G01*
X0103059Y0185727D01*
G75*
G02*
X0103639Y0186307I0000581J0000000D01*
G01*
X0104998Y0186307D01*
G75*
G02*
X0105578Y0185727I0000000J-000581D01*
G01*
X0105578Y0184565D01*
G75*
G02*
X0104998Y0183985I-000581J0000000D01*
G01*
G37*
G36*
G01*
X0104998Y0187804D02*
X0103639Y0187804D01*
G75*
G02*
X0103059Y0188384I0000000J0000581D01*
G01*
X0103059Y0189546D01*
G75*
G02*
X0103639Y0190126I0000581J0000000D01*
G01*
X0104998Y0190126D01*
G75*
G02*
X0105578Y0189546I0000000J-000581D01*
G01*
X0105578Y0188384D01*
G75*
G02*
X0104998Y0187804I-000581J0000000D01*
G01*
G37*
G36*
G01*
X0109389Y0178235D02*
X0109389Y0176876D01*
G75*
G02*
X0108809Y0176296I-000581J0000000D01*
G01*
X0107647Y0176296D01*
G75*
G02*
X0107067Y0176876I0000000J0000581D01*
G01*
X0107067Y0178235D01*
G75*
G02*
X0107647Y0178815I0000581J0000000D01*
G01*
X0108809Y0178815D01*
G75*
G02*
X0109389Y0178235I0000000J-000581D01*
G01*
G37*
G36*
G01*
X0105571Y0178235D02*
X0105571Y0176876D01*
G75*
G02*
X0104990Y0176296I-000581J0000000D01*
G01*
X0103828Y0176296D01*
G75*
G02*
X0103248Y0176876I0000000J0000581D01*
G01*
X0103248Y0178235D01*
G75*
G02*
X0103828Y0178815I0000581J0000000D01*
G01*
X0104990Y0178815D01*
G75*
G02*
X0105571Y0178235I0000000J-000581D01*
G01*
G37*
G36*
G01*
X0109389Y0181998D02*
X0109389Y0180640D01*
G75*
G02*
X0108809Y0180059I-000581J0000000D01*
G01*
X0107647Y0180059D01*
G75*
G02*
X0107067Y0180640I0000000J0000581D01*
G01*
X0107067Y0181998D01*
G75*
G02*
X0107647Y0182579I0000581J0000000D01*
G01*
X0108809Y0182579D01*
G75*
G02*
X0109389Y0181998I0000000J-000581D01*
G01*
G37*
G36*
G01*
X0105571Y0181998D02*
X0105571Y0180640D01*
G75*
G02*
X0104990Y0180059I-000581J0000000D01*
G01*
X0103828Y0180059D01*
G75*
G02*
X0103248Y0180640I0000000J0000581D01*
G01*
X0103248Y0181998D01*
G75*
G02*
X0103828Y0182579I0000581J0000000D01*
G01*
X0104990Y0182579D01*
G75*
G02*
X0105571Y0181998I0000000J-000581D01*
G01*
G37*
G36*
G01*
X0108998Y0183985D02*
X0107639Y0183985D01*
G75*
G02*
X0107059Y0184565I0000000J0000581D01*
G01*
X0107059Y0185727D01*
G75*
G02*
X0107639Y0186307I0000581J0000000D01*
G01*
X0108998Y0186307D01*
G75*
G02*
X0109578Y0185727I0000000J-000581D01*
G01*
X0109578Y0184565D01*
G75*
G02*
X0108998Y0183985I-000581J0000000D01*
G01*
G37*
G36*
G01*
X0108998Y0187804D02*
X0107639Y0187804D01*
G75*
G02*
X0107059Y0188384I0000000J0000581D01*
G01*
X0107059Y0189546D01*
G75*
G02*
X0107639Y0190126I0000581J0000000D01*
G01*
X0108998Y0190126D01*
G75*
G02*
X0109578Y0189546I0000000J-000581D01*
G01*
X0109578Y0188384D01*
G75*
G02*
X0108998Y0187804I-000581J0000000D01*
G01*
G37*
D319*
X0113563Y0167894D03*
X0117303Y0167894D03*
X0121043Y0167894D03*
X0121043Y0178209D03*
X0113563Y0178209D03*
G36*
G01*
X0109389Y0174235D02*
X0109389Y0172876D01*
G75*
G02*
X0108809Y0172296I-000581J0000000D01*
G01*
X0107647Y0172296D01*
G75*
G02*
X0107067Y0172876I0000000J0000581D01*
G01*
X0107067Y0174235D01*
G75*
G02*
X0107647Y0174815I0000581J0000000D01*
G01*
X0108809Y0174815D01*
G75*
G02*
X0109389Y0174235I0000000J-000581D01*
G01*
G37*
G36*
G01*
X0105571Y0174235D02*
X0105571Y0172876D01*
G75*
G02*
X0104990Y0172296I-000581J0000000D01*
G01*
X0103828Y0172296D01*
G75*
G02*
X0103248Y0172876I0000000J0000581D01*
G01*
X0103248Y0174235D01*
G75*
G02*
X0103828Y0174815I0000581J0000000D01*
G01*
X0104990Y0174815D01*
G75*
G02*
X0105571Y0174235I0000000J-000581D01*
G01*
G37*
G36*
G01*
X0116437Y0163101D02*
X0116437Y0161743D01*
G75*
G02*
X0115856Y0161162I-000581J0000000D01*
G01*
X0114695Y0161162D01*
G75*
G02*
X0114114Y0161743I0000000J0000581D01*
G01*
X0114114Y0163101D01*
G75*
G02*
X0114695Y0163681I0000581J0000000D01*
G01*
X0115856Y0163681D01*
G75*
G02*
X0116437Y0163101I0000000J-000581D01*
G01*
G37*
G36*
G01*
X0112618Y0163101D02*
X0112618Y0161743D01*
G75*
G02*
X0112037Y0161162I-000581J0000000D01*
G01*
X0110876Y0161162D01*
G75*
G02*
X0110295Y0161743I0000000J0000581D01*
G01*
X0110295Y0163101D01*
G75*
G02*
X0110876Y0163681I0000581J0000000D01*
G01*
X0112037Y0163681D01*
G75*
G02*
X0112618Y0163101I0000000J-000581D01*
G01*
G37*
G36*
G01*
X0093889Y0149735D02*
X0093889Y0148376D01*
G75*
G02*
X0093309Y0147796I-000581J0000000D01*
G01*
X0092147Y0147796D01*
G75*
G02*
X0091567Y0148376I0000000J0000581D01*
G01*
X0091567Y0149735D01*
G75*
G02*
X0092147Y0150315I0000581J0000000D01*
G01*
X0093309Y0150315D01*
G75*
G02*
X0093889Y0149735I0000000J-000581D01*
G01*
G37*
G36*
G01*
X0090071Y0149735D02*
X0090071Y0148376D01*
G75*
G02*
X0089490Y0147796I-000581J0000000D01*
G01*
X0088328Y0147796D01*
G75*
G02*
X0087748Y0148376I0000000J0000581D01*
G01*
X0087748Y0149735D01*
G75*
G02*
X0088328Y0150315I0000581J0000000D01*
G01*
X0089490Y0150315D01*
G75*
G02*
X0090071Y0149735I0000000J-000581D01*
G01*
G37*
G36*
G01*
X0107496Y0151547D02*
X0107496Y0153564D01*
G75*
G02*
X0108357Y0154426I0000861J0000000D01*
G01*
X0110079Y0154426D01*
G75*
G02*
X0110941Y0153564I0000000J-000861D01*
G01*
X0110941Y0151547D01*
G75*
G02*
X0110079Y0150685I-000861J0000000D01*
G01*
X0108357Y0150685D01*
G75*
G02*
X0107496Y0151547I0000000J0000861D01*
G01*
G37*
G36*
G01*
X0113697Y0151547D02*
X0113697Y0153564D01*
G75*
G02*
X0114558Y0154426I0000861J0000000D01*
G01*
X0116280Y0154426D01*
G75*
G02*
X0117141Y0153564I0000000J-000861D01*
G01*
X0117141Y0151547D01*
G75*
G02*
X0116280Y0150685I-000861J0000000D01*
G01*
X0114558Y0150685D01*
G75*
G02*
X0113697Y0151547I0000000J0000861D01*
G01*
G37*
G36*
G01*
X0082372Y0154134D02*
X0083730Y0154134D01*
G75*
G02*
X0084311Y0153554I0000000J-000581D01*
G01*
X0084311Y0152392D01*
G75*
G02*
X0083730Y0151811I-000581J0000000D01*
G01*
X0082372Y0151811D01*
G75*
G02*
X0081791Y0152392I0000000J0000581D01*
G01*
X0081791Y0153554D01*
G75*
G02*
X0082372Y0154134I0000581J0000000D01*
G01*
G37*
G36*
G01*
X0082372Y0150315D02*
X0083730Y0150315D01*
G75*
G02*
X0084311Y0149735I0000000J-000581D01*
G01*
X0084311Y0148573D01*
G75*
G02*
X0083730Y0147993I-000581J0000000D01*
G01*
X0082372Y0147993D01*
G75*
G02*
X0081791Y0148573I0000000J0000581D01*
G01*
X0081791Y0149735D01*
G75*
G02*
X0082372Y0150315I0000581J0000000D01*
G01*
G37*
G36*
G01*
X0079596Y0147993D02*
X0078238Y0147993D01*
G75*
G02*
X0077657Y0148573I0000000J0000581D01*
G01*
X0077657Y0149735D01*
G75*
G02*
X0078238Y0150315I0000581J0000000D01*
G01*
X0079596Y0150315D01*
G75*
G02*
X0080177Y0149735I0000000J-000581D01*
G01*
X0080177Y0148573D01*
G75*
G02*
X0079596Y0147993I-000581J0000000D01*
G01*
G37*
G36*
G01*
X0079596Y0151811D02*
X0078238Y0151811D01*
G75*
G02*
X0077657Y0152392I0000000J0000581D01*
G01*
X0077657Y0153554D01*
G75*
G02*
X0078238Y0154134I0000581J0000000D01*
G01*
X0079596Y0154134D01*
G75*
G02*
X0080177Y0153554I0000000J-000581D01*
G01*
X0080177Y0152392D01*
G75*
G02*
X0079596Y0151811I-000581J0000000D01*
G01*
G37*
G36*
G01*
X0075310Y0226378D02*
X0077327Y0226378D01*
G75*
G02*
X0078189Y0225517I0000000J-000861D01*
G01*
X0078189Y0223795D01*
G75*
G02*
X0077327Y0222933I-000861J0000000D01*
G01*
X0075310Y0222933D01*
G75*
G02*
X0074449Y0223795I0000000J0000861D01*
G01*
X0074449Y0225517D01*
G75*
G02*
X0075310Y0226378I0000861J0000000D01*
G01*
G37*
G36*
G01*
X0075310Y0220178D02*
X0077327Y0220178D01*
G75*
G02*
X0078189Y0219316I0000000J-000861D01*
G01*
X0078189Y0217594D01*
G75*
G02*
X0077327Y0216733I-000861J0000000D01*
G01*
X0075310Y0216733D01*
G75*
G02*
X0074449Y0217594I0000000J0000861D01*
G01*
X0074449Y0219316D01*
G75*
G02*
X0075310Y0220178I0000861J0000000D01*
G01*
G37*
G36*
G01*
X0070758Y0229607D02*
X0072116Y0229607D01*
G75*
G02*
X0072697Y0229026I0000000J-000581D01*
G01*
X0072697Y0227865D01*
G75*
G02*
X0072116Y0227284I-000581J0000000D01*
G01*
X0070758Y0227284D01*
G75*
G02*
X0070177Y0227865I0000000J0000581D01*
G01*
X0070177Y0229026D01*
G75*
G02*
X0070758Y0229607I0000581J0000000D01*
G01*
G37*
G36*
G01*
X0070758Y0225788D02*
X0072116Y0225788D01*
G75*
G02*
X0072697Y0225207I0000000J-000581D01*
G01*
X0072697Y0224046D01*
G75*
G02*
X0072116Y0223465I-000581J0000000D01*
G01*
X0070758Y0223465D01*
G75*
G02*
X0070177Y0224046I0000000J0000581D01*
G01*
X0070177Y0225207D01*
G75*
G02*
X0070758Y0225788I0000581J0000000D01*
G01*
G37*
G36*
G01*
X0112864Y0182382D02*
X0111506Y0182382D01*
G75*
G02*
X0110925Y0182963I0000000J0000581D01*
G01*
X0110925Y0184124D01*
G75*
G02*
X0111506Y0184705I0000581J0000000D01*
G01*
X0112864Y0184705D01*
G75*
G02*
X0113445Y0184124I0000000J-000581D01*
G01*
X0113445Y0182963D01*
G75*
G02*
X0112864Y0182382I-000581J0000000D01*
G01*
G37*
G36*
G01*
X0112864Y0186201D02*
X0111506Y0186201D01*
G75*
G02*
X0110925Y0186782I0000000J0000581D01*
G01*
X0110925Y0187943D01*
G75*
G02*
X0111506Y0188524I0000581J0000000D01*
G01*
X0112864Y0188524D01*
G75*
G02*
X0113445Y0187943I0000000J-000581D01*
G01*
X0113445Y0186782D01*
G75*
G02*
X0112864Y0186201I-000581J0000000D01*
G01*
G37*
G36*
G01*
X0089252Y0195788D02*
X0088267Y0195788D01*
G75*
G02*
X0087775Y0196280I0000000J0000492D01*
G01*
X0087775Y0201201D01*
G75*
G02*
X0088267Y0201693I0000492J0000000D01*
G01*
X0089252Y0201693D01*
G75*
G02*
X0089744Y0201201I0000000J-000492D01*
G01*
X0089744Y0196280D01*
G75*
G02*
X0089252Y0195788I-000492J0000000D01*
G01*
G37*
G36*
G01*
X0092401Y0195788D02*
X0091417Y0195788D01*
G75*
G02*
X0090925Y0196280I0000000J0000492D01*
G01*
X0090925Y0201201D01*
G75*
G02*
X0091417Y0201693I0000492J0000000D01*
G01*
X0092401Y0201693D01*
G75*
G02*
X0092893Y0201201I0000000J-000492D01*
G01*
X0092893Y0196280D01*
G75*
G02*
X0092401Y0195788I-000492J0000000D01*
G01*
G37*
G36*
G01*
X0095551Y0195788D02*
X0094567Y0195788D01*
G75*
G02*
X0094075Y0196280I0000000J0000492D01*
G01*
X0094075Y0201201D01*
G75*
G02*
X0094567Y0201693I0000492J0000000D01*
G01*
X0095551Y0201693D01*
G75*
G02*
X0096043Y0201201I0000000J-000492D01*
G01*
X0096043Y0196280D01*
G75*
G02*
X0095551Y0195788I-000492J0000000D01*
G01*
G37*
G36*
G01*
X0098700Y0195788D02*
X0097716Y0195788D01*
G75*
G02*
X0097224Y0196280I0000000J0000492D01*
G01*
X0097224Y0201201D01*
G75*
G02*
X0097716Y0201693I0000492J0000000D01*
G01*
X0098700Y0201693D01*
G75*
G02*
X0099193Y0201201I0000000J-000492D01*
G01*
X0099193Y0196280D01*
G75*
G02*
X0098700Y0195788I-000492J0000000D01*
G01*
G37*
G36*
G01*
X0101850Y0195788D02*
X0100866Y0195788D01*
G75*
G02*
X0100374Y0196280I0000000J0000492D01*
G01*
X0100374Y0201201D01*
G75*
G02*
X0100866Y0201693I0000492J0000000D01*
G01*
X0101850Y0201693D01*
G75*
G02*
X0102342Y0201201I0000000J-000492D01*
G01*
X0102342Y0196280D01*
G75*
G02*
X0101850Y0195788I-000492J0000000D01*
G01*
G37*
G36*
G01*
X0105000Y0195788D02*
X0104015Y0195788D01*
G75*
G02*
X0103523Y0196280I0000000J0000492D01*
G01*
X0103523Y0201201D01*
G75*
G02*
X0104015Y0201693I0000492J0000000D01*
G01*
X0105000Y0201693D01*
G75*
G02*
X0105492Y0201201I0000000J-000492D01*
G01*
X0105492Y0196280D01*
G75*
G02*
X0105000Y0195788I-000492J0000000D01*
G01*
G37*
G36*
G01*
X0108149Y0195788D02*
X0107165Y0195788D01*
G75*
G02*
X0106673Y0196280I0000000J0000492D01*
G01*
X0106673Y0201201D01*
G75*
G02*
X0107165Y0201693I0000492J0000000D01*
G01*
X0108149Y0201693D01*
G75*
G02*
X0108641Y0201201I0000000J-000492D01*
G01*
X0108641Y0196280D01*
G75*
G02*
X0108149Y0195788I-000492J0000000D01*
G01*
G37*
G36*
G01*
X0111299Y0195788D02*
X0110315Y0195788D01*
G75*
G02*
X0109823Y0196280I0000000J0000492D01*
G01*
X0109823Y0201201D01*
G75*
G02*
X0110315Y0201693I0000492J0000000D01*
G01*
X0111299Y0201693D01*
G75*
G02*
X0111791Y0201201I0000000J-000492D01*
G01*
X0111791Y0196280D01*
G75*
G02*
X0111299Y0195788I-000492J0000000D01*
G01*
G37*
G36*
G01*
X0118681Y0203170D02*
X0113760Y0203170D01*
G75*
G02*
X0113267Y0203662I0000000J0000492D01*
G01*
X0113267Y0204646D01*
G75*
G02*
X0113760Y0205138I0000492J0000000D01*
G01*
X0118681Y0205138D01*
G75*
G02*
X0119173Y0204646I0000000J-000492D01*
G01*
X0119173Y0203662D01*
G75*
G02*
X0118681Y0203170I-000492J0000000D01*
G01*
G37*
G36*
G01*
X0118681Y0206319D02*
X0113760Y0206319D01*
G75*
G02*
X0113267Y0206811I0000000J0000492D01*
G01*
X0113267Y0207796D01*
G75*
G02*
X0113760Y0208288I0000492J0000000D01*
G01*
X0118681Y0208288D01*
G75*
G02*
X0119173Y0207796I0000000J-000492D01*
G01*
X0119173Y0206811D01*
G75*
G02*
X0118681Y0206319I-000492J0000000D01*
G01*
G37*
G36*
G01*
X0118681Y0209469D02*
X0113760Y0209469D01*
G75*
G02*
X0113267Y0209961I0000000J0000492D01*
G01*
X0113267Y0210945D01*
G75*
G02*
X0113760Y0211437I0000492J0000000D01*
G01*
X0118681Y0211437D01*
G75*
G02*
X0119173Y0210945I0000000J-000492D01*
G01*
X0119173Y0209961D01*
G75*
G02*
X0118681Y0209469I-000492J0000000D01*
G01*
G37*
G36*
G01*
X0118681Y0212619D02*
X0113760Y0212619D01*
G75*
G02*
X0113267Y0213111I0000000J0000492D01*
G01*
X0113267Y0214095D01*
G75*
G02*
X0113760Y0214587I0000492J0000000D01*
G01*
X0118681Y0214587D01*
G75*
G02*
X0119173Y0214095I0000000J-000492D01*
G01*
X0119173Y0213111D01*
G75*
G02*
X0118681Y0212619I-000492J0000000D01*
G01*
G37*
G36*
G01*
X0118681Y0215768D02*
X0113760Y0215768D01*
G75*
G02*
X0113267Y0216260I0000000J0000492D01*
G01*
X0113267Y0217244D01*
G75*
G02*
X0113760Y0217737I0000492J0000000D01*
G01*
X0118681Y0217737D01*
G75*
G02*
X0119173Y0217244I0000000J-000492D01*
G01*
X0119173Y0216260D01*
G75*
G02*
X0118681Y0215768I-000492J0000000D01*
G01*
G37*
G36*
G01*
X0118681Y0218918D02*
X0113760Y0218918D01*
G75*
G02*
X0113267Y0219410I0000000J0000492D01*
G01*
X0113267Y0220394D01*
G75*
G02*
X0113760Y0220886I0000492J0000000D01*
G01*
X0118681Y0220886D01*
G75*
G02*
X0119173Y0220394I0000000J-000492D01*
G01*
X0119173Y0219410D01*
G75*
G02*
X0118681Y0218918I-000492J0000000D01*
G01*
G37*
G36*
G01*
X0118681Y0222067D02*
X0113760Y0222067D01*
G75*
G02*
X0113267Y0222559I0000000J0000492D01*
G01*
X0113267Y0223544D01*
G75*
G02*
X0113760Y0224036I0000492J0000000D01*
G01*
X0118681Y0224036D01*
G75*
G02*
X0119173Y0223544I0000000J-000492D01*
G01*
X0119173Y0222559D01*
G75*
G02*
X0118681Y0222067I-000492J0000000D01*
G01*
G37*
G36*
G01*
X0118681Y0225217D02*
X0113760Y0225217D01*
G75*
G02*
X0113267Y0225709I0000000J0000492D01*
G01*
X0113267Y0226693D01*
G75*
G02*
X0113760Y0227185I0000492J0000000D01*
G01*
X0118681Y0227185D01*
G75*
G02*
X0119173Y0226693I0000000J-000492D01*
G01*
X0119173Y0225709D01*
G75*
G02*
X0118681Y0225217I-000492J0000000D01*
G01*
G37*
G36*
G01*
X0111299Y0228662D02*
X0110315Y0228662D01*
G75*
G02*
X0109823Y0229154I0000000J0000492D01*
G01*
X0109823Y0234075D01*
G75*
G02*
X0110315Y0234567I0000492J0000000D01*
G01*
X0111299Y0234567D01*
G75*
G02*
X0111791Y0234075I0000000J-000492D01*
G01*
X0111791Y0229154D01*
G75*
G02*
X0111299Y0228662I-000492J0000000D01*
G01*
G37*
G36*
G01*
X0108149Y0228662D02*
X0107165Y0228662D01*
G75*
G02*
X0106673Y0229154I0000000J0000492D01*
G01*
X0106673Y0234075D01*
G75*
G02*
X0107165Y0234567I0000492J0000000D01*
G01*
X0108149Y0234567D01*
G75*
G02*
X0108641Y0234075I0000000J-000492D01*
G01*
X0108641Y0229154D01*
G75*
G02*
X0108149Y0228662I-000492J0000000D01*
G01*
G37*
G36*
G01*
X0105000Y0228662D02*
X0104015Y0228662D01*
G75*
G02*
X0103523Y0229154I0000000J0000492D01*
G01*
X0103523Y0234075D01*
G75*
G02*
X0104015Y0234567I0000492J0000000D01*
G01*
X0105000Y0234567D01*
G75*
G02*
X0105492Y0234075I0000000J-000492D01*
G01*
X0105492Y0229154D01*
G75*
G02*
X0105000Y0228662I-000492J0000000D01*
G01*
G37*
G36*
G01*
X0101850Y0228662D02*
X0100866Y0228662D01*
G75*
G02*
X0100374Y0229154I0000000J0000492D01*
G01*
X0100374Y0234075D01*
G75*
G02*
X0100866Y0234567I0000492J0000000D01*
G01*
X0101850Y0234567D01*
G75*
G02*
X0102342Y0234075I0000000J-000492D01*
G01*
X0102342Y0229154D01*
G75*
G02*
X0101850Y0228662I-000492J0000000D01*
G01*
G37*
G36*
G01*
X0098700Y0228662D02*
X0097716Y0228662D01*
G75*
G02*
X0097224Y0229154I0000000J0000492D01*
G01*
X0097224Y0234075D01*
G75*
G02*
X0097716Y0234567I0000492J0000000D01*
G01*
X0098700Y0234567D01*
G75*
G02*
X0099193Y0234075I0000000J-000492D01*
G01*
X0099193Y0229154D01*
G75*
G02*
X0098700Y0228662I-000492J0000000D01*
G01*
G37*
G36*
G01*
X0095551Y0228662D02*
X0094567Y0228662D01*
G75*
G02*
X0094075Y0229154I0000000J0000492D01*
G01*
X0094075Y0234075D01*
G75*
G02*
X0094567Y0234567I0000492J0000000D01*
G01*
X0095551Y0234567D01*
G75*
G02*
X0096043Y0234075I0000000J-000492D01*
G01*
X0096043Y0229154D01*
G75*
G02*
X0095551Y0228662I-000492J0000000D01*
G01*
G37*
G36*
G01*
X0092401Y0228662D02*
X0091417Y0228662D01*
G75*
G02*
X0090925Y0229154I0000000J0000492D01*
G01*
X0090925Y0234075D01*
G75*
G02*
X0091417Y0234567I0000492J0000000D01*
G01*
X0092401Y0234567D01*
G75*
G02*
X0092893Y0234075I0000000J-000492D01*
G01*
X0092893Y0229154D01*
G75*
G02*
X0092401Y0228662I-000492J0000000D01*
G01*
G37*
G36*
G01*
X0089252Y0228662D02*
X0088267Y0228662D01*
G75*
G02*
X0087775Y0229154I0000000J0000492D01*
G01*
X0087775Y0234075D01*
G75*
G02*
X0088267Y0234567I0000492J0000000D01*
G01*
X0089252Y0234567D01*
G75*
G02*
X0089744Y0234075I0000000J-000492D01*
G01*
X0089744Y0229154D01*
G75*
G02*
X0089252Y0228662I-000492J0000000D01*
G01*
G37*
G36*
G01*
X0085807Y0225217D02*
X0080886Y0225217D01*
G75*
G02*
X0080393Y0225709I0000000J0000492D01*
G01*
X0080393Y0226693D01*
G75*
G02*
X0080886Y0227185I0000492J0000000D01*
G01*
X0085807Y0227185D01*
G75*
G02*
X0086299Y0226693I0000000J-000492D01*
G01*
X0086299Y0225709D01*
G75*
G02*
X0085807Y0225217I-000492J0000000D01*
G01*
G37*
G36*
G01*
X0085807Y0222067D02*
X0080886Y0222067D01*
G75*
G02*
X0080393Y0222559I0000000J0000492D01*
G01*
X0080393Y0223544D01*
G75*
G02*
X0080886Y0224036I0000492J0000000D01*
G01*
X0085807Y0224036D01*
G75*
G02*
X0086299Y0223544I0000000J-000492D01*
G01*
X0086299Y0222559D01*
G75*
G02*
X0085807Y0222067I-000492J0000000D01*
G01*
G37*
G36*
G01*
X0085807Y0218918D02*
X0080886Y0218918D01*
G75*
G02*
X0080393Y0219410I0000000J0000492D01*
G01*
X0080393Y0220394D01*
G75*
G02*
X0080886Y0220886I0000492J0000000D01*
G01*
X0085807Y0220886D01*
G75*
G02*
X0086299Y0220394I0000000J-000492D01*
G01*
X0086299Y0219410D01*
G75*
G02*
X0085807Y0218918I-000492J0000000D01*
G01*
G37*
G36*
G01*
X0085807Y0215768D02*
X0080886Y0215768D01*
G75*
G02*
X0080393Y0216260I0000000J0000492D01*
G01*
X0080393Y0217244D01*
G75*
G02*
X0080886Y0217737I0000492J0000000D01*
G01*
X0085807Y0217737D01*
G75*
G02*
X0086299Y0217244I0000000J-000492D01*
G01*
X0086299Y0216260D01*
G75*
G02*
X0085807Y0215768I-000492J0000000D01*
G01*
G37*
G36*
G01*
X0085807Y0212619D02*
X0080886Y0212619D01*
G75*
G02*
X0080393Y0213111I0000000J0000492D01*
G01*
X0080393Y0214095D01*
G75*
G02*
X0080886Y0214587I0000492J0000000D01*
G01*
X0085807Y0214587D01*
G75*
G02*
X0086299Y0214095I0000000J-000492D01*
G01*
X0086299Y0213111D01*
G75*
G02*
X0085807Y0212619I-000492J0000000D01*
G01*
G37*
G36*
G01*
X0085807Y0209469D02*
X0080886Y0209469D01*
G75*
G02*
X0080393Y0209961I0000000J0000492D01*
G01*
X0080393Y0210945D01*
G75*
G02*
X0080886Y0211437I0000492J0000000D01*
G01*
X0085807Y0211437D01*
G75*
G02*
X0086299Y0210945I0000000J-000492D01*
G01*
X0086299Y0209961D01*
G75*
G02*
X0085807Y0209469I-000492J0000000D01*
G01*
G37*
G36*
G01*
X0085807Y0206319D02*
X0080886Y0206319D01*
G75*
G02*
X0080393Y0206811I0000000J0000492D01*
G01*
X0080393Y0207796D01*
G75*
G02*
X0080886Y0208288I0000492J0000000D01*
G01*
X0085807Y0208288D01*
G75*
G02*
X0086299Y0207796I0000000J-000492D01*
G01*
X0086299Y0206811D01*
G75*
G02*
X0085807Y0206319I-000492J0000000D01*
G01*
G37*
G36*
G01*
X0085807Y0203170D02*
X0080886Y0203170D01*
G75*
G02*
X0080393Y0203662I0000000J0000492D01*
G01*
X0080393Y0204646D01*
G75*
G02*
X0080886Y0205138I0000492J0000000D01*
G01*
X0085807Y0205138D01*
G75*
G02*
X0086299Y0204646I0000000J-000492D01*
G01*
X0086299Y0203662D01*
G75*
G02*
X0085807Y0203170I-000492J0000000D01*
G01*
G37*
G36*
G01*
X0114262Y0196004D02*
X0115620Y0196004D01*
G75*
G02*
X0116200Y0195424I0000000J-000581D01*
G01*
X0116200Y0194262D01*
G75*
G02*
X0115620Y0193681I-000581J0000000D01*
G01*
X0114262Y0193681D01*
G75*
G02*
X0113681Y0194262I0000000J0000581D01*
G01*
X0113681Y0195424D01*
G75*
G02*
X0114262Y0196004I0000581J0000000D01*
G01*
G37*
G36*
G01*
X0114262Y0192185D02*
X0115620Y0192185D01*
G75*
G02*
X0116200Y0191605I0000000J-000581D01*
G01*
X0116200Y0190443D01*
G75*
G02*
X0115620Y0189863I-000581J0000000D01*
G01*
X0114262Y0189863D01*
G75*
G02*
X0113681Y0190443I0000000J0000581D01*
G01*
X0113681Y0191605D01*
G75*
G02*
X0114262Y0192185I0000581J0000000D01*
G01*
G37*
G36*
G01*
X0116801Y0182382D02*
X0115443Y0182382D01*
G75*
G02*
X0114862Y0182963I0000000J0000581D01*
G01*
X0114862Y0184124D01*
G75*
G02*
X0115443Y0184705I0000581J0000000D01*
G01*
X0116801Y0184705D01*
G75*
G02*
X0117382Y0184124I0000000J-000581D01*
G01*
X0117382Y0182963D01*
G75*
G02*
X0116801Y0182382I-000581J0000000D01*
G01*
G37*
G36*
G01*
X0116801Y0186201D02*
X0115443Y0186201D01*
G75*
G02*
X0114862Y0186782I0000000J0000581D01*
G01*
X0114862Y0187943D01*
G75*
G02*
X0115443Y0188524I0000581J0000000D01*
G01*
X0116801Y0188524D01*
G75*
G02*
X0117382Y0187943I0000000J-000581D01*
G01*
X0117382Y0186782D01*
G75*
G02*
X0116801Y0186201I-000581J0000000D01*
G01*
G37*
G36*
G01*
X0091604Y0187894D02*
X0090246Y0187894D01*
G75*
G02*
X0089665Y0188475I0000000J0000581D01*
G01*
X0089665Y0189636D01*
G75*
G02*
X0090246Y0190217I0000581J0000000D01*
G01*
X0091604Y0190217D01*
G75*
G02*
X0092185Y0189636I0000000J-000581D01*
G01*
X0092185Y0188475D01*
G75*
G02*
X0091604Y0187894I-000581J0000000D01*
G01*
G37*
G36*
G01*
X0091604Y0191713D02*
X0090246Y0191713D01*
G75*
G02*
X0089665Y0192294I0000000J0000581D01*
G01*
X0089665Y0193455D01*
G75*
G02*
X0090246Y0194036I0000581J0000000D01*
G01*
X0091604Y0194036D01*
G75*
G02*
X0092185Y0193455I0000000J-000581D01*
G01*
X0092185Y0192294D01*
G75*
G02*
X0091604Y0191713I-000581J0000000D01*
G01*
G37*
G36*
G01*
X0109783Y0240689D02*
X0109783Y0239331D01*
G75*
G02*
X0109202Y0238750I-000581J0000000D01*
G01*
X0108041Y0238750D01*
G75*
G02*
X0107460Y0239331I0000000J0000581D01*
G01*
X0107460Y0240689D01*
G75*
G02*
X0108041Y0241270I0000581J0000000D01*
G01*
X0109202Y0241270D01*
G75*
G02*
X0109783Y0240689I0000000J-000581D01*
G01*
G37*
G36*
G01*
X0105964Y0240689D02*
X0105964Y0239331D01*
G75*
G02*
X0105383Y0238750I-000581J0000000D01*
G01*
X0104222Y0238750D01*
G75*
G02*
X0103641Y0239331I0000000J0000581D01*
G01*
X0103641Y0240689D01*
G75*
G02*
X0104222Y0241270I0000581J0000000D01*
G01*
X0105383Y0241270D01*
G75*
G02*
X0105964Y0240689I0000000J-000581D01*
G01*
G37*
G36*
G01*
X0083425Y0231408D02*
X0083425Y0230050D01*
G75*
G02*
X0082844Y0229469I-000581J0000000D01*
G01*
X0081683Y0229469D01*
G75*
G02*
X0081102Y0230050I0000000J0000581D01*
G01*
X0081102Y0231408D01*
G75*
G02*
X0081683Y0231989I0000581J0000000D01*
G01*
X0082844Y0231989D01*
G75*
G02*
X0083425Y0231408I0000000J-000581D01*
G01*
G37*
G36*
G01*
X0079606Y0231408D02*
X0079606Y0230050D01*
G75*
G02*
X0079025Y0229469I-000581J0000000D01*
G01*
X0077864Y0229469D01*
G75*
G02*
X0077283Y0230050I0000000J0000581D01*
G01*
X0077283Y0231408D01*
G75*
G02*
X0077864Y0231989I0000581J0000000D01*
G01*
X0079025Y0231989D01*
G75*
G02*
X0079606Y0231408I0000000J-000581D01*
G01*
G37*
G36*
G01*
X0105758Y0255150D02*
X0107116Y0255150D01*
G75*
G02*
X0107697Y0254569I0000000J-000581D01*
G01*
X0107697Y0253408D01*
G75*
G02*
X0107116Y0252827I-000581J0000000D01*
G01*
X0105758Y0252827D01*
G75*
G02*
X0105177Y0253408I0000000J0000581D01*
G01*
X0105177Y0254569D01*
G75*
G02*
X0105758Y0255150I0000581J0000000D01*
G01*
G37*
G36*
G01*
X0105758Y0251331D02*
X0107116Y0251331D01*
G75*
G02*
X0107697Y0250750I0000000J-000581D01*
G01*
X0107697Y0249589D01*
G75*
G02*
X0107116Y0249008I-000581J0000000D01*
G01*
X0105758Y0249008D01*
G75*
G02*
X0105177Y0249589I0000000J0000581D01*
G01*
X0105177Y0250750D01*
G75*
G02*
X0105758Y0251331I0000581J0000000D01*
G01*
G37*
D102*
X0111500Y0253819D03*
X0111500Y0246339D03*
X0119374Y0250079D03*
G36*
G01*
X0087748Y0152376D02*
X0087748Y0153735D01*
G75*
G02*
X0088328Y0154315I0000581J0000000D01*
G01*
X0089490Y0154315D01*
G75*
G02*
X0090071Y0153735I0000000J-000581D01*
G01*
X0090071Y0152376D01*
G75*
G02*
X0089490Y0151796I-000581J0000000D01*
G01*
X0088328Y0151796D01*
G75*
G02*
X0087748Y0152376I0000000J0000581D01*
G01*
G37*
G36*
G01*
X0091567Y0152376D02*
X0091567Y0153735D01*
G75*
G02*
X0092147Y0154315I0000581J0000000D01*
G01*
X0093309Y0154315D01*
G75*
G02*
X0093889Y0153735I0000000J-000581D01*
G01*
X0093889Y0152376D01*
G75*
G02*
X0093309Y0151796I-000581J0000000D01*
G01*
X0092147Y0151796D01*
G75*
G02*
X0091567Y0152376I0000000J0000581D01*
G01*
G37*
G36*
G01*
X0121417Y0240724D02*
X0121417Y0238706D01*
G75*
G02*
X0120556Y0237845I-000861J0000000D01*
G01*
X0118833Y0237845D01*
G75*
G02*
X0117972Y0238706I0000000J0000861D01*
G01*
X0117972Y0240724D01*
G75*
G02*
X0118833Y0241585I0000861J0000000D01*
G01*
X0120556Y0241585D01*
G75*
G02*
X0121417Y0240724I0000000J-000861D01*
G01*
G37*
G36*
G01*
X0115216Y0240724D02*
X0115216Y0238706D01*
G75*
G02*
X0114355Y0237845I-000861J0000000D01*
G01*
X0112632Y0237845D01*
G75*
G02*
X0111771Y0238706I0000000J0000861D01*
G01*
X0111771Y0240724D01*
G75*
G02*
X0112632Y0241585I0000861J0000000D01*
G01*
X0114355Y0241585D01*
G75*
G02*
X0115216Y0240724I0000000J-000861D01*
G01*
G37*
X0124902Y0295374D02*
G01*
G75*
D331*
X0113485Y0282362D02*
D03*
X0117225Y0291614D02*
D03*
D331*
X0120965Y0282362D02*
D03*
D285*
X0105926Y0270748D02*
D03*
X0105926Y0275748D02*
D03*
X0105926Y0280748D02*
D03*
X0105926Y0285748D02*
D03*
X0087028Y0270748D02*
D03*
X0087028Y0275748D02*
D03*
X0087028Y0280748D02*
D03*
X0087028Y0285748D02*
D03*
D332*
X0090217Y0291043D02*
D03*
X0083997Y0291043D02*
D03*
X0098563Y0291043D02*
D03*
X0104784Y0291043D02*
D03*
D333*
X0120375Y0277461D02*
D03*
X0114075Y0277461D02*
D03*
D131*
X0109745Y0293504D02*
D03*
X0244882Y0127264D02*
G01*
G75*
D154*
X0321457Y0132087D02*
D03*
X0321457Y0138780D02*
D03*
X0321457Y0145571D02*
D03*
X0321457Y0152362D02*
D03*
X0246851Y0148721D02*
D03*
X0246827Y0134463D02*
D03*
D236*
X0269488Y0158170D02*
D03*
D254*
X0277854Y0129931D02*
D03*
X0277854Y0132431D02*
D03*
X0277854Y0134931D02*
D03*
X0277854Y0137431D02*
D03*
X0277854Y0139931D02*
D03*
X0277854Y0142431D02*
D03*
X0277854Y0144931D02*
D03*
X0277854Y0147431D02*
D03*
X0257382Y0129931D02*
D03*
X0257382Y0132431D02*
D03*
X0257382Y0134931D02*
D03*
X0257382Y0137431D02*
D03*
X0257382Y0139931D02*
D03*
X0257382Y0142431D02*
D03*
X0257382Y0144931D02*
D03*
X0257382Y0147431D02*
D03*
D197*
X0265453Y0150984D02*
D03*
X0259154Y0150984D02*
D03*
X0265354Y0155610D02*
D03*
X0259055Y0155610D02*
D03*
D227*
X0298524Y0146260D02*
D03*
X0306004Y0146260D02*
D03*
X0311024Y0146260D02*
D03*
X0318504Y0146260D02*
D03*
X0311024Y0153347D02*
D03*
X0318504Y0153347D02*
D03*
X0298622Y0132185D02*
D03*
X0306103Y0132185D02*
D03*
X0311024Y0132185D02*
D03*
X0318504Y0132185D02*
D03*
X0298622Y0139173D02*
D03*
X0306103Y0139173D02*
D03*
X0311024Y0139173D02*
D03*
X0318504Y0139173D02*
D03*
X0298524Y0153347D02*
D03*
X0306004Y0153347D02*
D03*
D116*
X0292717Y0143996D02*
D03*
X0292717Y0151477D02*
D03*
X0286024Y0143996D02*
D03*
X0286024Y0151477D02*
D03*
X0286122Y0131398D02*
D03*
X0286122Y0138878D02*
D03*
X0292815Y0131398D02*
D03*
X0292815Y0138878D02*
D03*
D181*
X0249803Y0140945D02*
D03*
X0249803Y0134252D02*
D03*
X0249311Y0155315D02*
D03*
X0249311Y0148622D02*
D03*
D215*
X0269921Y0151083D02*
D03*
X0276142Y0151083D02*
D03*
X0269823Y0155414D02*
D03*
X0276043Y0155414D02*
D03*
X0281543Y0227035D02*
G01*
G75*
D358*
X0290106Y0224476D02*
D03*
X0287547Y0224476D02*
D03*
X0284988Y0224476D02*
D03*
X0290106Y0216996D02*
D03*
X0287547Y0216996D02*
D03*
X0284988Y0216996D02*
D03*
X0294732Y0216996D02*
D03*
X0297291Y0216996D02*
D03*
X0299850Y0216996D02*
D03*
X0294732Y0224476D02*
D03*
X0297291Y0224476D02*
D03*
X0299850Y0224476D02*
D03*
D359*
X0298866Y0204240D02*
D03*
X0298866Y0210460D02*
D03*
X0298767Y0193708D02*
D03*
X0298767Y0199929D02*
D03*
D355*
X0289575Y0212074D02*
D03*
X0283354Y0212074D02*
D03*
X0285224Y0207744D02*
D03*
X0291445Y0207744D02*
D03*
D356*
X0294830Y0195047D02*
D03*
X0294830Y0202133D02*
D03*
X0284791Y0202133D02*
D03*
X0284791Y0195047D02*
D03*
X0294830Y0183826D02*
D03*
X0294830Y0190913D02*
D03*
X0284791Y0190913D02*
D03*
X0284791Y0183826D02*
D03*
D357*
X0288236Y0202133D02*
D03*
X0291385Y0202133D02*
D03*
X0291385Y0195047D02*
D03*
X0288236Y0195047D02*
D03*
X0288236Y0190913D02*
D03*
X0291385Y0190913D02*
D03*
X0291385Y0183826D02*
D03*
X0288236Y0183826D02*
D03*
M02*
