G75*
G70*
%OFA0B0*%
%FSLAX25Y25*%
%IPPOS*%
%LPD*%
%AMOC8*
5,1,8,0,0,1.08239X$1,22.5*
%
%AMM82*
21,1,0.015350,0.009840,0.000000,0.000000,0.000000*
21,1,0.000000,0.025200,0.000000,0.000000,0.000000*
1,1,0.015350,0.000000,-0.004920*
1,1,0.015350,0.000000,-0.004920*
1,1,0.015350,0.000000,0.004920*
1,1,0.015350,0.000000,0.004920*
%
%AMM83*
21,1,0.015350,0.009840,0.000000,0.000000,90.000000*
21,1,0.000000,0.025200,0.000000,0.000000,90.000000*
1,1,0.015350,0.004920,0.000000*
1,1,0.015350,0.004920,0.000000*
1,1,0.015350,-0.004920,0.000000*
1,1,0.015350,-0.004920,0.000000*
%
%ADD104M82*%
%ADD121O,0.04488X0.06457*%
%ADD130O,0.02913X0.03701*%
%ADD140O,0.04362X0.03575*%
%ADD143C,0.16567*%
%ADD145O,0.02913X0.02126*%
%ADD147C,0.12236*%
%ADD161O,0.45433X0.04882*%
%ADD180O,0.05937X0.07906*%
%ADD181O,0.03701X0.02913*%
%ADD184C,0.07906*%
%ADD219O,0.05150X0.04362*%
%ADD24C,0.10661*%
%ADD243O,0.02126X0.01339*%
%ADD33O,0.46882X0.06331*%
%ADD36O,0.03575X0.02787*%
%ADD48C,0.04362*%
%ADD55O,0.04362X0.05150*%
%ADD65O,0.03575X0.04362*%
%ADD66O,0.02126X0.02913*%
%ADD76M83*%
%ADD77C,0.02913*%
%ADD89C,0.04451*%
X0000000Y0000000D02*
%LPD*%
G01*
D143*
X0572256Y0021673D03*
X0073437Y0021673D03*
D24*
X0562611Y0052382D03*
X0083083Y0052382D03*
X0366744Y0021673D03*
D147*
X0101390Y0041358D03*
X0124225Y0041358D03*
X0112807Y0050531D03*
X0101390Y0073366D03*
X0124225Y0073366D03*
D184*
X0335327Y0073366D03*
X0325327Y0073366D03*
X0315327Y0073366D03*
X0305327Y0073366D03*
X0295327Y0073366D03*
X0285327Y0073366D03*
X0275327Y0073366D03*
X0265327Y0073366D03*
X0255327Y0073366D03*
X0245327Y0073366D03*
X0235327Y0073366D03*
X0225327Y0073366D03*
X0215327Y0073366D03*
X0205327Y0073366D03*
X0195327Y0073366D03*
X0185327Y0073366D03*
X0175327Y0073366D03*
X0165327Y0073366D03*
X0155327Y0073366D03*
X0335327Y0063366D03*
X0325327Y0063366D03*
X0315327Y0063366D03*
X0305327Y0063366D03*
X0295327Y0063366D03*
X0285327Y0063366D03*
X0275327Y0063366D03*
X0265327Y0063366D03*
X0255327Y0063366D03*
X0245327Y0063366D03*
X0235327Y0063366D03*
X0225327Y0063366D03*
X0215327Y0063366D03*
X0205327Y0063366D03*
X0195327Y0063366D03*
X0185327Y0063366D03*
X0175327Y0063366D03*
X0165327Y0063366D03*
X0155327Y0063366D03*
X0335327Y0039547D03*
X0325327Y0039547D03*
X0315327Y0039547D03*
X0305327Y0039547D03*
X0295327Y0039547D03*
X0285327Y0039547D03*
X0275327Y0039547D03*
X0265327Y0039547D03*
X0255327Y0039547D03*
X0245327Y0039547D03*
X0235327Y0039547D03*
X0225327Y0039547D03*
X0215327Y0039547D03*
X0205327Y0039547D03*
X0195327Y0039547D03*
X0185327Y0039547D03*
X0175327Y0039547D03*
X0165327Y0039547D03*
X0155327Y0039547D03*
X0335327Y0029547D03*
X0325327Y0029547D03*
X0315327Y0029547D03*
X0305327Y0029547D03*
X0295327Y0029547D03*
X0285327Y0029547D03*
X0275327Y0029547D03*
X0265327Y0029547D03*
X0255327Y0029547D03*
X0245327Y0029547D03*
X0235327Y0029547D03*
X0225327Y0029547D03*
X0215327Y0029547D03*
X0205327Y0029547D03*
X0195327Y0029547D03*
X0185327Y0029547D03*
X0175327Y0029547D03*
X0165327Y0029547D03*
X0155327Y0029547D03*
X0398201Y0029547D03*
X0408201Y0029547D03*
X0418201Y0029547D03*
X0428201Y0029547D03*
X0438201Y0029547D03*
X0448201Y0029547D03*
X0458201Y0029547D03*
X0468201Y0029547D03*
X0398201Y0039547D03*
X0408201Y0039547D03*
X0418201Y0039547D03*
X0428201Y0039547D03*
X0438201Y0039547D03*
X0448201Y0039547D03*
X0458201Y0039547D03*
X0468201Y0039547D03*
X0398201Y0063366D03*
X0408201Y0063366D03*
X0418201Y0063366D03*
X0428201Y0063366D03*
X0438201Y0063366D03*
X0448201Y0063366D03*
X0458201Y0063366D03*
X0468201Y0063366D03*
X0398201Y0073366D03*
X0408201Y0073366D03*
X0418201Y0073366D03*
X0428201Y0073366D03*
X0438201Y0073366D03*
X0448201Y0073366D03*
X0458201Y0073366D03*
X0468201Y0073366D03*
D147*
X0499028Y0041358D03*
X0521863Y0041358D03*
X0545091Y0041358D03*
X0510445Y0050531D03*
X0533674Y0050531D03*
X0499028Y0073366D03*
X0521863Y0073366D03*
X0545091Y0073366D03*
G36*
G01*
X0334378Y0324346D02*
X0333394Y0324346D01*
G75*
G02*
X0331902Y0325838I0000000J0001492D01*
G01*
X0331902Y0325838D01*
G75*
G02*
X0333394Y0327331I0001492J0000000D01*
G01*
X0334378Y0327331D01*
G75*
G02*
X0335870Y0325838I0000000J-001492D01*
G01*
X0335870Y0325838D01*
G75*
G02*
X0334378Y0324346I-001492J0000000D01*
G01*
G37*
G36*
G01*
X0333394Y0324732D02*
X0334378Y0324732D01*
G75*
G02*
X0335870Y0323240I0000000J-001492D01*
G01*
X0335870Y0323240D01*
G75*
G02*
X0334378Y0321748I-001492J0000000D01*
G01*
X0333394Y0321748D01*
G75*
G02*
X0331902Y0323240I0000000J0001492D01*
G01*
X0331902Y0323240D01*
G75*
G02*
X0333394Y0324732I0001492J0000000D01*
G01*
G37*
G36*
G01*
X0333394Y0322134D02*
X0334378Y0322134D01*
G75*
G02*
X0335870Y0320642I0000000J-001492D01*
G01*
X0335870Y0320642D01*
G75*
G02*
X0334378Y0319149I-001492J0000000D01*
G01*
X0333394Y0319149D01*
G75*
G02*
X0331902Y0320642I0000000J0001492D01*
G01*
X0331902Y0320642D01*
G75*
G02*
X0333394Y0322134I0001492J0000000D01*
G01*
G37*
G36*
G01*
X0333394Y0319535D02*
X0334378Y0319535D01*
G75*
G02*
X0335870Y0318043I0000000J-001492D01*
G01*
X0335870Y0318043D01*
G75*
G02*
X0334378Y0316551I-001492J0000000D01*
G01*
X0333394Y0316551D01*
G75*
G02*
X0331902Y0318043I0000000J0001492D01*
G01*
X0331902Y0318043D01*
G75*
G02*
X0333394Y0319535I0001492J0000000D01*
G01*
G37*
G36*
G01*
X0333394Y0316937D02*
X0334378Y0316937D01*
G75*
G02*
X0335870Y0315445I0000000J-001492D01*
G01*
X0335870Y0315445D01*
G75*
G02*
X0334378Y0313953I-001492J0000000D01*
G01*
X0333394Y0313953D01*
G75*
G02*
X0331902Y0315445I0000000J0001492D01*
G01*
X0331902Y0315445D01*
G75*
G02*
X0333394Y0316937I0001492J0000000D01*
G01*
G37*
G36*
G01*
X0333394Y0303945D02*
X0334378Y0303945D01*
G75*
G02*
X0335870Y0302453I0000000J-001492D01*
G01*
X0335870Y0302453D01*
G75*
G02*
X0334378Y0300960I-001492J0000000D01*
G01*
X0333394Y0300960D01*
G75*
G02*
X0331902Y0302453I0000000J0001492D01*
G01*
X0331902Y0302453D01*
G75*
G02*
X0333394Y0303945I0001492J0000000D01*
G01*
G37*
G36*
G01*
X0333394Y0301346D02*
X0334378Y0301346D01*
G75*
G02*
X0335870Y0299854I0000000J-001492D01*
G01*
X0335870Y0299854D01*
G75*
G02*
X0334378Y0298362I-001492J0000000D01*
G01*
X0333394Y0298362D01*
G75*
G02*
X0331902Y0299854I0000000J0001492D01*
G01*
X0331902Y0299854D01*
G75*
G02*
X0333394Y0301346I0001492J0000000D01*
G01*
G37*
G36*
G01*
X0333394Y0298748D02*
X0334378Y0298748D01*
G75*
G02*
X0335870Y0297256I0000000J-001492D01*
G01*
X0335870Y0297256D01*
G75*
G02*
X0334378Y0295764I-001492J0000000D01*
G01*
X0333394Y0295764D01*
G75*
G02*
X0331902Y0297256I0000000J0001492D01*
G01*
X0331902Y0297256D01*
G75*
G02*
X0333394Y0298748I0001492J0000000D01*
G01*
G37*
G36*
G01*
X0333394Y0296149D02*
X0334378Y0296149D01*
G75*
G02*
X0335870Y0294657I0000000J-001492D01*
G01*
X0335870Y0294657D01*
G75*
G02*
X0334378Y0293165I-001492J0000000D01*
G01*
X0333394Y0293165D01*
G75*
G02*
X0331902Y0294657I0000000J0001492D01*
G01*
X0331902Y0294657D01*
G75*
G02*
X0333394Y0296149I0001492J0000000D01*
G01*
G37*
G36*
G01*
X0333394Y0293551D02*
X0334378Y0293551D01*
G75*
G02*
X0335870Y0292059I0000000J-001492D01*
G01*
X0335870Y0292059D01*
G75*
G02*
X0334378Y0290567I-001492J0000000D01*
G01*
X0333394Y0290567D01*
G75*
G02*
X0331902Y0292059I0000000J0001492D01*
G01*
X0331902Y0292059D01*
G75*
G02*
X0333394Y0293551I0001492J0000000D01*
G01*
G37*
G36*
G01*
X0333394Y0290953D02*
X0334378Y0290953D01*
G75*
G02*
X0335870Y0289460I0000000J-001492D01*
G01*
X0335870Y0289460D01*
G75*
G02*
X0334378Y0287968I-001492J0000000D01*
G01*
X0333394Y0287968D01*
G75*
G02*
X0331902Y0289460I0000000J0001492D01*
G01*
X0331902Y0289460D01*
G75*
G02*
X0333394Y0290953I0001492J0000000D01*
G01*
G37*
G36*
G01*
X0333394Y0288354D02*
X0334378Y0288354D01*
G75*
G02*
X0335870Y0286862I0000000J-001492D01*
G01*
X0335870Y0286862D01*
G75*
G02*
X0334378Y0285370I-001492J0000000D01*
G01*
X0333394Y0285370D01*
G75*
G02*
X0331902Y0286862I0000000J0001492D01*
G01*
X0331902Y0286862D01*
G75*
G02*
X0333394Y0288354I0001492J0000000D01*
G01*
G37*
G36*
G01*
X0333394Y0285756D02*
X0334378Y0285756D01*
G75*
G02*
X0335870Y0284264I0000000J-001492D01*
G01*
X0335870Y0284264D01*
G75*
G02*
X0334378Y0282771I-001492J0000000D01*
G01*
X0333394Y0282771D01*
G75*
G02*
X0331902Y0284264I0000000J0001492D01*
G01*
X0331902Y0284264D01*
G75*
G02*
X0333394Y0285756I0001492J0000000D01*
G01*
G37*
G36*
G01*
X0333394Y0283157D02*
X0334378Y0283157D01*
G75*
G02*
X0335870Y0281665I0000000J-001492D01*
G01*
X0335870Y0281665D01*
G75*
G02*
X0334378Y0280173I-001492J0000000D01*
G01*
X0333394Y0280173D01*
G75*
G02*
X0331902Y0281665I0000000J0001492D01*
G01*
X0331902Y0281665D01*
G75*
G02*
X0333394Y0283157I0001492J0000000D01*
G01*
G37*
G36*
G01*
X0333394Y0280559D02*
X0334378Y0280559D01*
G75*
G02*
X0335870Y0279067I0000000J-001492D01*
G01*
X0335870Y0279067D01*
G75*
G02*
X0334378Y0277575I-001492J0000000D01*
G01*
X0333394Y0277575D01*
G75*
G02*
X0331902Y0279067I0000000J0001492D01*
G01*
X0331902Y0279067D01*
G75*
G02*
X0333394Y0280559I0001492J0000000D01*
G01*
G37*
G36*
G01*
X0333394Y0277960D02*
X0334378Y0277960D01*
G75*
G02*
X0335870Y0276468I0000000J-001492D01*
G01*
X0335870Y0276468D01*
G75*
G02*
X0334378Y0274976I-001492J0000000D01*
G01*
X0333394Y0274976D01*
G75*
G02*
X0331902Y0276468I0000000J0001492D01*
G01*
X0331902Y0276468D01*
G75*
G02*
X0333394Y0277960I0001492J0000000D01*
G01*
G37*
G36*
G01*
X0333394Y0275362D02*
X0334378Y0275362D01*
G75*
G02*
X0335870Y0273870I0000000J-001492D01*
G01*
X0335870Y0273870D01*
G75*
G02*
X0334378Y0272378I-001492J0000000D01*
G01*
X0333394Y0272378D01*
G75*
G02*
X0331902Y0273870I0000000J0001492D01*
G01*
X0331902Y0273870D01*
G75*
G02*
X0333394Y0275362I0001492J0000000D01*
G01*
G37*
G36*
G01*
X0333394Y0272764D02*
X0334378Y0272764D01*
G75*
G02*
X0335870Y0271271I0000000J-001492D01*
G01*
X0335870Y0271271D01*
G75*
G02*
X0334378Y0269779I-001492J0000000D01*
G01*
X0333394Y0269779D01*
G75*
G02*
X0331902Y0271271I0000000J0001492D01*
G01*
X0331902Y0271271D01*
G75*
G02*
X0333394Y0272764I0001492J0000000D01*
G01*
G37*
G36*
G01*
X0333394Y0270165D02*
X0334378Y0270165D01*
G75*
G02*
X0335870Y0268673I0000000J-001492D01*
G01*
X0335870Y0268673D01*
G75*
G02*
X0334378Y0267181I-001492J0000000D01*
G01*
X0333394Y0267181D01*
G75*
G02*
X0331902Y0268673I0000000J0001492D01*
G01*
X0331902Y0268673D01*
G75*
G02*
X0333394Y0270165I0001492J0000000D01*
G01*
G37*
G36*
G01*
X0333394Y0267567D02*
X0334378Y0267567D01*
G75*
G02*
X0335870Y0266075I0000000J-001492D01*
G01*
X0335870Y0266075D01*
G75*
G02*
X0334378Y0264582I-001492J0000000D01*
G01*
X0333394Y0264582D01*
G75*
G02*
X0331902Y0266075I0000000J0001492D01*
G01*
X0331902Y0266075D01*
G75*
G02*
X0333394Y0267567I0001492J0000000D01*
G01*
G37*
G36*
G01*
X0333394Y0264968D02*
X0334378Y0264968D01*
G75*
G02*
X0335870Y0263476I0000000J-001492D01*
G01*
X0335870Y0263476D01*
G75*
G02*
X0334378Y0261984I-001492J0000000D01*
G01*
X0333394Y0261984D01*
G75*
G02*
X0331902Y0263476I0000000J0001492D01*
G01*
X0331902Y0263476D01*
G75*
G02*
X0333394Y0264968I0001492J0000000D01*
G01*
G37*
G36*
G01*
X0333394Y0262370D02*
X0334378Y0262370D01*
G75*
G02*
X0335870Y0260878I0000000J-001492D01*
G01*
X0335870Y0260878D01*
G75*
G02*
X0334378Y0259386I-001492J0000000D01*
G01*
X0333394Y0259386D01*
G75*
G02*
X0331902Y0260878I0000000J0001492D01*
G01*
X0331902Y0260878D01*
G75*
G02*
X0333394Y0262370I0001492J0000000D01*
G01*
G37*
G36*
G01*
X0333394Y0259771D02*
X0334378Y0259771D01*
G75*
G02*
X0335870Y0258279I0000000J-001492D01*
G01*
X0335870Y0258279D01*
G75*
G02*
X0334378Y0256787I-001492J0000000D01*
G01*
X0333394Y0256787D01*
G75*
G02*
X0331902Y0258279I0000000J0001492D01*
G01*
X0331902Y0258279D01*
G75*
G02*
X0333394Y0259771I0001492J0000000D01*
G01*
G37*
G36*
G01*
X0333394Y0257173D02*
X0334378Y0257173D01*
G75*
G02*
X0335870Y0255681I0000000J-001492D01*
G01*
X0335870Y0255681D01*
G75*
G02*
X0334378Y0254189I-001492J0000000D01*
G01*
X0333394Y0254189D01*
G75*
G02*
X0331902Y0255681I0000000J0001492D01*
G01*
X0331902Y0255681D01*
G75*
G02*
X0333394Y0257173I0001492J0000000D01*
G01*
G37*
G36*
G01*
X0333394Y0254575D02*
X0334378Y0254575D01*
G75*
G02*
X0335870Y0253082I0000000J-001492D01*
G01*
X0335870Y0253082D01*
G75*
G02*
X0334378Y0251590I-001492J0000000D01*
G01*
X0333394Y0251590D01*
G75*
G02*
X0331902Y0253082I0000000J0001492D01*
G01*
X0331902Y0253082D01*
G75*
G02*
X0333394Y0254575I0001492J0000000D01*
G01*
G37*
G36*
G01*
X0333394Y0251976D02*
X0334378Y0251976D01*
G75*
G02*
X0335870Y0250484I0000000J-001492D01*
G01*
X0335870Y0250484D01*
G75*
G02*
X0334378Y0248992I-001492J0000000D01*
G01*
X0333394Y0248992D01*
G75*
G02*
X0331902Y0250484I0000000J0001492D01*
G01*
X0331902Y0250484D01*
G75*
G02*
X0333394Y0251976I0001492J0000000D01*
G01*
G37*
G36*
G01*
X0333394Y0249378D02*
X0334378Y0249378D01*
G75*
G02*
X0335870Y0247886I0000000J-001492D01*
G01*
X0335870Y0247886D01*
G75*
G02*
X0334378Y0246394I-001492J0000000D01*
G01*
X0333394Y0246394D01*
G75*
G02*
X0331902Y0247886I0000000J0001492D01*
G01*
X0331902Y0247886D01*
G75*
G02*
X0333394Y0249378I0001492J0000000D01*
G01*
G37*
G36*
G01*
X0333394Y0246779D02*
X0334378Y0246779D01*
G75*
G02*
X0335870Y0245287I0000000J-001492D01*
G01*
X0335870Y0245287D01*
G75*
G02*
X0334378Y0243795I-001492J0000000D01*
G01*
X0333394Y0243795D01*
G75*
G02*
X0331902Y0245287I0000000J0001492D01*
G01*
X0331902Y0245287D01*
G75*
G02*
X0333394Y0246779I0001492J0000000D01*
G01*
G37*
G36*
G01*
X0333394Y0244181D02*
X0334378Y0244181D01*
G75*
G02*
X0335870Y0242689I0000000J-001492D01*
G01*
X0335870Y0242689D01*
G75*
G02*
X0334378Y0241197I-001492J0000000D01*
G01*
X0333394Y0241197D01*
G75*
G02*
X0331902Y0242689I0000000J0001492D01*
G01*
X0331902Y0242689D01*
G75*
G02*
X0333394Y0244181I0001492J0000000D01*
G01*
G37*
G36*
G01*
X0333394Y0241582D02*
X0334378Y0241582D01*
G75*
G02*
X0335870Y0240090I0000000J-001492D01*
G01*
X0335870Y0240090D01*
G75*
G02*
X0334378Y0238598I-001492J0000000D01*
G01*
X0333394Y0238598D01*
G75*
G02*
X0331902Y0240090I0000000J0001492D01*
G01*
X0331902Y0240090D01*
G75*
G02*
X0333394Y0241582I0001492J0000000D01*
G01*
G37*
G36*
G01*
X0333394Y0238984D02*
X0334378Y0238984D01*
G75*
G02*
X0335870Y0237492I0000000J-001492D01*
G01*
X0335870Y0237492D01*
G75*
G02*
X0334378Y0236000I-001492J0000000D01*
G01*
X0333394Y0236000D01*
G75*
G02*
X0331902Y0237492I0000000J0001492D01*
G01*
X0331902Y0237492D01*
G75*
G02*
X0333394Y0238984I0001492J0000000D01*
G01*
G37*
G36*
G01*
X0333394Y0236386D02*
X0334378Y0236386D01*
G75*
G02*
X0335870Y0234894I0000000J-001492D01*
G01*
X0335870Y0234894D01*
G75*
G02*
X0334378Y0233401I-001492J0000000D01*
G01*
X0333394Y0233401D01*
G75*
G02*
X0331902Y0234894I0000000J0001492D01*
G01*
X0331902Y0234894D01*
G75*
G02*
X0333394Y0236386I0001492J0000000D01*
G01*
G37*
G36*
G01*
X0333394Y0233787D02*
X0334378Y0233787D01*
G75*
G02*
X0335870Y0232295I0000000J-001492D01*
G01*
X0335870Y0232295D01*
G75*
G02*
X0334378Y0230803I-001492J0000000D01*
G01*
X0333394Y0230803D01*
G75*
G02*
X0331902Y0232295I0000000J0001492D01*
G01*
X0331902Y0232295D01*
G75*
G02*
X0333394Y0233787I0001492J0000000D01*
G01*
G37*
G36*
G01*
X0333394Y0231189D02*
X0334378Y0231189D01*
G75*
G02*
X0335870Y0229697I0000000J-001492D01*
G01*
X0335870Y0229697D01*
G75*
G02*
X0334378Y0228205I-001492J0000000D01*
G01*
X0333394Y0228205D01*
G75*
G02*
X0331902Y0229697I0000000J0001492D01*
G01*
X0331902Y0229697D01*
G75*
G02*
X0333394Y0231189I0001492J0000000D01*
G01*
G37*
G36*
G01*
X0201729Y0342579D02*
X0201729Y0341594D01*
G75*
G02*
X0200237Y0340102I-001492J0000000D01*
G01*
X0200237Y0340102D01*
G75*
G02*
X0198744Y0341594I0000000J0001492D01*
G01*
X0198744Y0342579D01*
G75*
G02*
X0200237Y0344071I0001492J0000000D01*
G01*
X0200237Y0344071D01*
G75*
G02*
X0201729Y0342579I0000000J-001492D01*
G01*
G37*
G36*
G01*
X0203941Y0341594D02*
X0203941Y0342579D01*
G75*
G02*
X0205433Y0344071I0001492J0000000D01*
G01*
X0205433Y0344071D01*
G75*
G02*
X0206926Y0342579I0000000J-001492D01*
G01*
X0206926Y0341594D01*
G75*
G02*
X0205433Y0340102I-001492J0000000D01*
G01*
X0205433Y0340102D01*
G75*
G02*
X0203941Y0341594I0000000J0001492D01*
G01*
G37*
G36*
G01*
X0209138Y0341594D02*
X0209138Y0342579D01*
G75*
G02*
X0210630Y0344071I0001492J0000000D01*
G01*
X0210630Y0344071D01*
G75*
G02*
X0212122Y0342579I0000000J-001492D01*
G01*
X0212122Y0341594D01*
G75*
G02*
X0210630Y0340102I-001492J0000000D01*
G01*
X0210630Y0340102D01*
G75*
G02*
X0209138Y0341594I0000000J0001492D01*
G01*
G37*
G36*
G01*
X0214374Y0341594D02*
X0214374Y0342579D01*
G75*
G02*
X0215866Y0344071I0001492J0000000D01*
G01*
X0215866Y0344071D01*
G75*
G02*
X0217359Y0342579I0000000J-001492D01*
G01*
X0217359Y0341594D01*
G75*
G02*
X0215866Y0340102I-001492J0000000D01*
G01*
X0215866Y0340102D01*
G75*
G02*
X0214374Y0341594I0000000J0001492D01*
G01*
G37*
G36*
G01*
X0218705Y0341594D02*
X0218705Y0342579D01*
G75*
G02*
X0220197Y0344071I0001492J0000000D01*
G01*
X0220197Y0344071D01*
G75*
G02*
X0221689Y0342579I0000000J-001492D01*
G01*
X0221689Y0341594D01*
G75*
G02*
X0220197Y0340102I-001492J0000000D01*
G01*
X0220197Y0340102D01*
G75*
G02*
X0218705Y0341594I0000000J0001492D01*
G01*
G37*
G36*
G01*
X0223036Y0341594D02*
X0223036Y0342579D01*
G75*
G02*
X0224528Y0344071I0001492J0000000D01*
G01*
X0224528Y0344071D01*
G75*
G02*
X0226020Y0342579I0000000J-001492D01*
G01*
X0226020Y0341594D01*
G75*
G02*
X0224528Y0340102I-001492J0000000D01*
G01*
X0224528Y0340102D01*
G75*
G02*
X0223036Y0341594I0000000J0001492D01*
G01*
G37*
G36*
G01*
X0227366Y0341594D02*
X0227366Y0342579D01*
G75*
G02*
X0228859Y0344071I0001492J0000000D01*
G01*
X0228859Y0344071D01*
G75*
G02*
X0230351Y0342579I0000000J-001492D01*
G01*
X0230351Y0341594D01*
G75*
G02*
X0228859Y0340102I-001492J0000000D01*
G01*
X0228859Y0340102D01*
G75*
G02*
X0227366Y0341594I0000000J0001492D01*
G01*
G37*
G36*
G01*
X0231697Y0341594D02*
X0231697Y0342579D01*
G75*
G02*
X0233189Y0344071I0001492J0000000D01*
G01*
X0233189Y0344071D01*
G75*
G02*
X0234681Y0342579I0000000J-001492D01*
G01*
X0234681Y0341594D01*
G75*
G02*
X0233189Y0340102I-001492J0000000D01*
G01*
X0233189Y0340102D01*
G75*
G02*
X0231697Y0341594I0000000J0001492D01*
G01*
G37*
G36*
G01*
X0236028Y0341594D02*
X0236028Y0342579D01*
G75*
G02*
X0237520Y0344071I0001492J0000000D01*
G01*
X0237520Y0344071D01*
G75*
G02*
X0239012Y0342579I0000000J-001492D01*
G01*
X0239012Y0341594D01*
G75*
G02*
X0237520Y0340102I-001492J0000000D01*
G01*
X0237520Y0340102D01*
G75*
G02*
X0236028Y0341594I0000000J0001492D01*
G01*
G37*
G36*
G01*
X0240359Y0341594D02*
X0240359Y0342579D01*
G75*
G02*
X0241851Y0344071I0001492J0000000D01*
G01*
X0241851Y0344071D01*
G75*
G02*
X0243343Y0342579I0000000J-001492D01*
G01*
X0243343Y0341594D01*
G75*
G02*
X0241851Y0340102I-001492J0000000D01*
G01*
X0241851Y0340102D01*
G75*
G02*
X0240359Y0341594I0000000J0001492D01*
G01*
G37*
G36*
G01*
X0244689Y0341594D02*
X0244689Y0342579D01*
G75*
G02*
X0246181Y0344071I0001492J0000000D01*
G01*
X0246181Y0344071D01*
G75*
G02*
X0247673Y0342579I0000000J-001492D01*
G01*
X0247673Y0341594D01*
G75*
G02*
X0246181Y0340102I-001492J0000000D01*
G01*
X0246181Y0340102D01*
G75*
G02*
X0244689Y0341594I0000000J0001492D01*
G01*
G37*
G36*
G01*
X0249020Y0341594D02*
X0249020Y0342579D01*
G75*
G02*
X0250512Y0344071I0001492J0000000D01*
G01*
X0250512Y0344071D01*
G75*
G02*
X0252004Y0342579I0000000J-001492D01*
G01*
X0252004Y0341594D01*
G75*
G02*
X0250512Y0340102I-001492J0000000D01*
G01*
X0250512Y0340102D01*
G75*
G02*
X0249020Y0341594I0000000J0001492D01*
G01*
G37*
G36*
G01*
X0253351Y0341594D02*
X0253351Y0342579D01*
G75*
G02*
X0254843Y0344071I0001492J0000000D01*
G01*
X0254843Y0344071D01*
G75*
G02*
X0256335Y0342579I0000000J-001492D01*
G01*
X0256335Y0341594D01*
G75*
G02*
X0254843Y0340102I-001492J0000000D01*
G01*
X0254843Y0340102D01*
G75*
G02*
X0253351Y0341594I0000000J0001492D01*
G01*
G37*
G36*
G01*
X0257681Y0341594D02*
X0257681Y0342579D01*
G75*
G02*
X0259173Y0344071I0001492J0000000D01*
G01*
X0259173Y0344071D01*
G75*
G02*
X0260666Y0342579I0000000J-001492D01*
G01*
X0260666Y0341594D01*
G75*
G02*
X0259173Y0340102I-001492J0000000D01*
G01*
X0259173Y0340102D01*
G75*
G02*
X0257681Y0341594I0000000J0001492D01*
G01*
G37*
G36*
G01*
X0262012Y0341594D02*
X0262012Y0342579D01*
G75*
G02*
X0263504Y0344071I0001492J0000000D01*
G01*
X0263504Y0344071D01*
G75*
G02*
X0264996Y0342579I0000000J-001492D01*
G01*
X0264996Y0341594D01*
G75*
G02*
X0263504Y0340102I-001492J0000000D01*
G01*
X0263504Y0340102D01*
G75*
G02*
X0262012Y0341594I0000000J0001492D01*
G01*
G37*
G36*
G01*
X0266343Y0341594D02*
X0266343Y0342579D01*
G75*
G02*
X0267835Y0344071I0001492J0000000D01*
G01*
X0267835Y0344071D01*
G75*
G02*
X0269327Y0342579I0000000J-001492D01*
G01*
X0269327Y0341594D01*
G75*
G02*
X0267835Y0340102I-001492J0000000D01*
G01*
X0267835Y0340102D01*
G75*
G02*
X0266343Y0341594I0000000J0001492D01*
G01*
G37*
G36*
G01*
X0270673Y0341594D02*
X0270673Y0342579D01*
G75*
G02*
X0272166Y0344071I0001492J0000000D01*
G01*
X0272166Y0344071D01*
G75*
G02*
X0273658Y0342579I0000000J-001492D01*
G01*
X0273658Y0341594D01*
G75*
G02*
X0272166Y0340102I-001492J0000000D01*
G01*
X0272166Y0340102D01*
G75*
G02*
X0270673Y0341594I0000000J0001492D01*
G01*
G37*
G36*
G01*
X0275004Y0341594D02*
X0275004Y0342579D01*
G75*
G02*
X0276496Y0344071I0001492J0000000D01*
G01*
X0276496Y0344071D01*
G75*
G02*
X0277988Y0342579I0000000J-001492D01*
G01*
X0277988Y0341594D01*
G75*
G02*
X0276496Y0340102I-001492J0000000D01*
G01*
X0276496Y0340102D01*
G75*
G02*
X0275004Y0341594I0000000J0001492D01*
G01*
G37*
G36*
G01*
X0279335Y0341594D02*
X0279335Y0342579D01*
G75*
G02*
X0280827Y0344071I0001492J0000000D01*
G01*
X0280827Y0344071D01*
G75*
G02*
X0282319Y0342579I0000000J-001492D01*
G01*
X0282319Y0341594D01*
G75*
G02*
X0280827Y0340102I-001492J0000000D01*
G01*
X0280827Y0340102D01*
G75*
G02*
X0279335Y0341594I0000000J0001492D01*
G01*
G37*
G36*
G01*
X0283666Y0341594D02*
X0283666Y0342579D01*
G75*
G02*
X0285158Y0344071I0001492J0000000D01*
G01*
X0285158Y0344071D01*
G75*
G02*
X0286650Y0342579I0000000J-001492D01*
G01*
X0286650Y0341594D01*
G75*
G02*
X0285158Y0340102I-001492J0000000D01*
G01*
X0285158Y0340102D01*
G75*
G02*
X0283666Y0341594I0000000J0001492D01*
G01*
G37*
G36*
G01*
X0287996Y0341594D02*
X0287996Y0342579D01*
G75*
G02*
X0289488Y0344071I0001492J0000000D01*
G01*
X0289488Y0344071D01*
G75*
G02*
X0290980Y0342579I0000000J-001492D01*
G01*
X0290980Y0341594D01*
G75*
G02*
X0289488Y0340102I-001492J0000000D01*
G01*
X0289488Y0340102D01*
G75*
G02*
X0287996Y0341594I0000000J0001492D01*
G01*
G37*
G36*
G01*
X0292327Y0341594D02*
X0292327Y0342579D01*
G75*
G02*
X0293819Y0344071I0001492J0000000D01*
G01*
X0293819Y0344071D01*
G75*
G02*
X0295311Y0342579I0000000J-001492D01*
G01*
X0295311Y0341594D01*
G75*
G02*
X0293819Y0340102I-001492J0000000D01*
G01*
X0293819Y0340102D01*
G75*
G02*
X0292327Y0341594I0000000J0001492D01*
G01*
G37*
G36*
G01*
X0296658Y0341594D02*
X0296658Y0342579D01*
G75*
G02*
X0298150Y0344071I0001492J0000000D01*
G01*
X0298150Y0344071D01*
G75*
G02*
X0299642Y0342579I0000000J-001492D01*
G01*
X0299642Y0341594D01*
G75*
G02*
X0298150Y0340102I-001492J0000000D01*
G01*
X0298150Y0340102D01*
G75*
G02*
X0296658Y0341594I0000000J0001492D01*
G01*
G37*
G36*
G01*
X0300988Y0341594D02*
X0300988Y0342579D01*
G75*
G02*
X0302480Y0344071I0001492J0000000D01*
G01*
X0302480Y0344071D01*
G75*
G02*
X0303973Y0342579I0000000J-001492D01*
G01*
X0303973Y0341594D01*
G75*
G02*
X0302480Y0340102I-001492J0000000D01*
G01*
X0302480Y0340102D01*
G75*
G02*
X0300988Y0341594I0000000J0001492D01*
G01*
G37*
G36*
G01*
X0305319Y0341594D02*
X0305319Y0342579D01*
G75*
G02*
X0306811Y0344071I0001492J0000000D01*
G01*
X0306811Y0344071D01*
G75*
G02*
X0308303Y0342579I0000000J-001492D01*
G01*
X0308303Y0341594D01*
G75*
G02*
X0306811Y0340102I-001492J0000000D01*
G01*
X0306811Y0340102D01*
G75*
G02*
X0305319Y0341594I0000000J0001492D01*
G01*
G37*
G36*
G01*
X0309650Y0341594D02*
X0309650Y0342579D01*
G75*
G02*
X0311142Y0344071I0001492J0000000D01*
G01*
X0311142Y0344071D01*
G75*
G02*
X0312634Y0342579I0000000J-001492D01*
G01*
X0312634Y0341594D01*
G75*
G02*
X0311142Y0340102I-001492J0000000D01*
G01*
X0311142Y0340102D01*
G75*
G02*
X0309650Y0341594I0000000J0001492D01*
G01*
G37*
G36*
G01*
X0313980Y0341594D02*
X0313980Y0342579D01*
G75*
G02*
X0315473Y0344071I0001492J0000000D01*
G01*
X0315473Y0344071D01*
G75*
G02*
X0316965Y0342579I0000000J-001492D01*
G01*
X0316965Y0341594D01*
G75*
G02*
X0315473Y0340102I-001492J0000000D01*
G01*
X0315473Y0340102D01*
G75*
G02*
X0313980Y0341594I0000000J0001492D01*
G01*
G37*
G36*
G01*
X0318311Y0341594D02*
X0318311Y0342579D01*
G75*
G02*
X0319803Y0344071I0001492J0000000D01*
G01*
X0319803Y0344071D01*
G75*
G02*
X0321295Y0342579I0000000J-001492D01*
G01*
X0321295Y0341594D01*
G75*
G02*
X0319803Y0340102I-001492J0000000D01*
G01*
X0319803Y0340102D01*
G75*
G02*
X0318311Y0341594I0000000J0001492D01*
G01*
G37*
G36*
G01*
X0322642Y0341594D02*
X0322642Y0342579D01*
G75*
G02*
X0324134Y0344071I0001492J0000000D01*
G01*
X0324134Y0344071D01*
G75*
G02*
X0325626Y0342579I0000000J-001492D01*
G01*
X0325626Y0341594D01*
G75*
G02*
X0324134Y0340102I-001492J0000000D01*
G01*
X0324134Y0340102D01*
G75*
G02*
X0322642Y0341594I0000000J0001492D01*
G01*
G37*
G36*
G01*
X0326973Y0341594D02*
X0326973Y0342579D01*
G75*
G02*
X0328465Y0344071I0001492J0000000D01*
G01*
X0328465Y0344071D01*
G75*
G02*
X0329957Y0342579I0000000J-001492D01*
G01*
X0329957Y0341594D01*
G75*
G02*
X0328465Y0340102I-001492J0000000D01*
G01*
X0328465Y0340102D01*
G75*
G02*
X0326973Y0341594I0000000J0001492D01*
G01*
G37*
G36*
G01*
X0299414Y0200142D02*
X0299414Y0201126D01*
G75*
G02*
X0300906Y0202618I0001492J0000000D01*
G01*
X0300906Y0202618D01*
G75*
G02*
X0302398Y0201126I0000000J-001492D01*
G01*
X0302398Y0200142D01*
G75*
G02*
X0300906Y0198649I-001492J0000000D01*
G01*
X0300906Y0198649D01*
G75*
G02*
X0299414Y0200142I0000000J0001492D01*
G01*
G37*
G36*
G01*
X0297201Y0201126D02*
X0297201Y0200142D01*
G75*
G02*
X0295709Y0198649I-001492J0000000D01*
G01*
X0295709Y0198649D01*
G75*
G02*
X0294217Y0200142I0000000J0001492D01*
G01*
X0294217Y0201126D01*
G75*
G02*
X0295709Y0202618I0001492J0000000D01*
G01*
X0295709Y0202618D01*
G75*
G02*
X0297201Y0201126I0000000J-001492D01*
G01*
G37*
G36*
G01*
X0292004Y0201126D02*
X0292004Y0200142D01*
G75*
G02*
X0290512Y0198649I-001492J0000000D01*
G01*
X0290512Y0198649D01*
G75*
G02*
X0289020Y0200142I0000000J0001492D01*
G01*
X0289020Y0201126D01*
G75*
G02*
X0290512Y0202618I0001492J0000000D01*
G01*
X0290512Y0202618D01*
G75*
G02*
X0292004Y0201126I0000000J-001492D01*
G01*
G37*
G36*
G01*
X0287674Y0201126D02*
X0287674Y0200142D01*
G75*
G02*
X0286181Y0198649I-001492J0000000D01*
G01*
X0286181Y0198649D01*
G75*
G02*
X0284689Y0200142I0000000J0001492D01*
G01*
X0284689Y0201126D01*
G75*
G02*
X0286181Y0202618I0001492J0000000D01*
G01*
X0286181Y0202618D01*
G75*
G02*
X0287674Y0201126I0000000J-001492D01*
G01*
G37*
G36*
G01*
X0283343Y0201126D02*
X0283343Y0200142D01*
G75*
G02*
X0281851Y0198649I-001492J0000000D01*
G01*
X0281851Y0198649D01*
G75*
G02*
X0280359Y0200142I0000000J0001492D01*
G01*
X0280359Y0201126D01*
G75*
G02*
X0281851Y0202618I0001492J0000000D01*
G01*
X0281851Y0202618D01*
G75*
G02*
X0283343Y0201126I0000000J-001492D01*
G01*
G37*
G36*
G01*
X0279012Y0201126D02*
X0279012Y0200142D01*
G75*
G02*
X0277520Y0198649I-001492J0000000D01*
G01*
X0277520Y0198649D01*
G75*
G02*
X0276028Y0200142I0000000J0001492D01*
G01*
X0276028Y0201126D01*
G75*
G02*
X0277520Y0202618I0001492J0000000D01*
G01*
X0277520Y0202618D01*
G75*
G02*
X0279012Y0201126I0000000J-001492D01*
G01*
G37*
G36*
G01*
X0274681Y0201126D02*
X0274681Y0200142D01*
G75*
G02*
X0273189Y0198649I-001492J0000000D01*
G01*
X0273189Y0198649D01*
G75*
G02*
X0271697Y0200142I0000000J0001492D01*
G01*
X0271697Y0201126D01*
G75*
G02*
X0273189Y0202618I0001492J0000000D01*
G01*
X0273189Y0202618D01*
G75*
G02*
X0274681Y0201126I0000000J-001492D01*
G01*
G37*
G36*
G01*
X0270351Y0201126D02*
X0270351Y0200142D01*
G75*
G02*
X0268859Y0198649I-001492J0000000D01*
G01*
X0268859Y0198649D01*
G75*
G02*
X0267366Y0200142I0000000J0001492D01*
G01*
X0267366Y0201126D01*
G75*
G02*
X0268859Y0202618I0001492J0000000D01*
G01*
X0268859Y0202618D01*
G75*
G02*
X0270351Y0201126I0000000J-001492D01*
G01*
G37*
G36*
G01*
X0266020Y0201126D02*
X0266020Y0200142D01*
G75*
G02*
X0264528Y0198649I-001492J0000000D01*
G01*
X0264528Y0198649D01*
G75*
G02*
X0263036Y0200142I0000000J0001492D01*
G01*
X0263036Y0201126D01*
G75*
G02*
X0264528Y0202618I0001492J0000000D01*
G01*
X0264528Y0202618D01*
G75*
G02*
X0266020Y0201126I0000000J-001492D01*
G01*
G37*
G36*
G01*
X0261689Y0201126D02*
X0261689Y0200142D01*
G75*
G02*
X0260197Y0198649I-001492J0000000D01*
G01*
X0260197Y0198649D01*
G75*
G02*
X0258705Y0200142I0000000J0001492D01*
G01*
X0258705Y0201126D01*
G75*
G02*
X0260197Y0202618I0001492J0000000D01*
G01*
X0260197Y0202618D01*
G75*
G02*
X0261689Y0201126I0000000J-001492D01*
G01*
G37*
G36*
G01*
X0257359Y0201126D02*
X0257359Y0200142D01*
G75*
G02*
X0255867Y0198649I-001492J0000000D01*
G01*
X0255867Y0198649D01*
G75*
G02*
X0254374Y0200142I0000000J0001492D01*
G01*
X0254374Y0201126D01*
G75*
G02*
X0255867Y0202618I0001492J0000000D01*
G01*
X0255867Y0202618D01*
G75*
G02*
X0257359Y0201126I0000000J-001492D01*
G01*
G37*
G36*
G01*
X0253028Y0201126D02*
X0253028Y0200142D01*
G75*
G02*
X0251536Y0198649I-001492J0000000D01*
G01*
X0251536Y0198649D01*
G75*
G02*
X0250044Y0200142I0000000J0001492D01*
G01*
X0250044Y0201126D01*
G75*
G02*
X0251536Y0202618I0001492J0000000D01*
G01*
X0251536Y0202618D01*
G75*
G02*
X0253028Y0201126I0000000J-001492D01*
G01*
G37*
G36*
G01*
X0248697Y0201126D02*
X0248697Y0200142D01*
G75*
G02*
X0247205Y0198649I-001492J0000000D01*
G01*
X0247205Y0198649D01*
G75*
G02*
X0245713Y0200142I0000000J0001492D01*
G01*
X0245713Y0201126D01*
G75*
G02*
X0247205Y0202618I0001492J0000000D01*
G01*
X0247205Y0202618D01*
G75*
G02*
X0248697Y0201126I0000000J-001492D01*
G01*
G37*
G36*
G01*
X0244367Y0201126D02*
X0244367Y0200142D01*
G75*
G02*
X0242874Y0198649I-001492J0000000D01*
G01*
X0242874Y0198649D01*
G75*
G02*
X0241382Y0200142I0000000J0001492D01*
G01*
X0241382Y0201126D01*
G75*
G02*
X0242874Y0202618I0001492J0000000D01*
G01*
X0242874Y0202618D01*
G75*
G02*
X0244367Y0201126I0000000J-001492D01*
G01*
G37*
G36*
G01*
X0240036Y0201126D02*
X0240036Y0200142D01*
G75*
G02*
X0238544Y0198649I-001492J0000000D01*
G01*
X0238544Y0198649D01*
G75*
G02*
X0237052Y0200142I0000000J0001492D01*
G01*
X0237052Y0201126D01*
G75*
G02*
X0238544Y0202618I0001492J0000000D01*
G01*
X0238544Y0202618D01*
G75*
G02*
X0240036Y0201126I0000000J-001492D01*
G01*
G37*
G36*
G01*
X0235705Y0201126D02*
X0235705Y0200142D01*
G75*
G02*
X0234213Y0198649I-001492J0000000D01*
G01*
X0234213Y0198649D01*
G75*
G02*
X0232721Y0200142I0000000J0001492D01*
G01*
X0232721Y0201126D01*
G75*
G02*
X0234213Y0202618I0001492J0000000D01*
G01*
X0234213Y0202618D01*
G75*
G02*
X0235705Y0201126I0000000J-001492D01*
G01*
G37*
G36*
G01*
X0231374Y0201126D02*
X0231374Y0200142D01*
G75*
G02*
X0229882Y0198649I-001492J0000000D01*
G01*
X0229882Y0198649D01*
G75*
G02*
X0228390Y0200142I0000000J0001492D01*
G01*
X0228390Y0201126D01*
G75*
G02*
X0229882Y0202618I0001492J0000000D01*
G01*
X0229882Y0202618D01*
G75*
G02*
X0231374Y0201126I0000000J-001492D01*
G01*
G37*
G36*
G01*
X0227044Y0201126D02*
X0227044Y0200142D01*
G75*
G02*
X0225552Y0198649I-001492J0000000D01*
G01*
X0225552Y0198649D01*
G75*
G02*
X0224059Y0200142I0000000J0001492D01*
G01*
X0224059Y0201126D01*
G75*
G02*
X0225552Y0202618I0001492J0000000D01*
G01*
X0225552Y0202618D01*
G75*
G02*
X0227044Y0201126I0000000J-001492D01*
G01*
G37*
G36*
G01*
X0222713Y0201126D02*
X0222713Y0200142D01*
G75*
G02*
X0221221Y0198649I-001492J0000000D01*
G01*
X0221221Y0198649D01*
G75*
G02*
X0219729Y0200142I0000000J0001492D01*
G01*
X0219729Y0201126D01*
G75*
G02*
X0221221Y0202618I0001492J0000000D01*
G01*
X0221221Y0202618D01*
G75*
G02*
X0222713Y0201126I0000000J-001492D01*
G01*
G37*
G36*
G01*
X0218382Y0201126D02*
X0218382Y0200142D01*
G75*
G02*
X0216890Y0198649I-001492J0000000D01*
G01*
X0216890Y0198649D01*
G75*
G02*
X0215398Y0200142I0000000J0001492D01*
G01*
X0215398Y0201126D01*
G75*
G02*
X0216890Y0202618I0001492J0000000D01*
G01*
X0216890Y0202618D01*
G75*
G02*
X0218382Y0201126I0000000J-001492D01*
G01*
G37*
G36*
G01*
X0214052Y0201126D02*
X0214052Y0200142D01*
G75*
G02*
X0212560Y0198649I-001492J0000000D01*
G01*
X0212560Y0198649D01*
G75*
G02*
X0211067Y0200142I0000000J0001492D01*
G01*
X0211067Y0201126D01*
G75*
G02*
X0212560Y0202618I0001492J0000000D01*
G01*
X0212560Y0202618D01*
G75*
G02*
X0214052Y0201126I0000000J-001492D01*
G01*
G37*
G36*
G01*
X0209721Y0201126D02*
X0209721Y0200142D01*
G75*
G02*
X0208229Y0198649I-001492J0000000D01*
G01*
X0208229Y0198649D01*
G75*
G02*
X0206737Y0200142I0000000J0001492D01*
G01*
X0206737Y0201126D01*
G75*
G02*
X0208229Y0202618I0001492J0000000D01*
G01*
X0208229Y0202618D01*
G75*
G02*
X0209721Y0201126I0000000J-001492D01*
G01*
G37*
G36*
G01*
X0205390Y0201126D02*
X0205390Y0200142D01*
G75*
G02*
X0203898Y0198649I-001492J0000000D01*
G01*
X0203898Y0198649D01*
G75*
G02*
X0202406Y0200142I0000000J0001492D01*
G01*
X0202406Y0201126D01*
G75*
G02*
X0203898Y0202618I0001492J0000000D01*
G01*
X0203898Y0202618D01*
G75*
G02*
X0205390Y0201126I0000000J-001492D01*
G01*
G37*
G36*
G01*
X0201060Y0201126D02*
X0201060Y0200142D01*
G75*
G02*
X0199567Y0198649I-001492J0000000D01*
G01*
X0199567Y0198649D01*
G75*
G02*
X0198075Y0200142I0000000J0001492D01*
G01*
X0198075Y0201126D01*
G75*
G02*
X0199567Y0202618I0001492J0000000D01*
G01*
X0199567Y0202618D01*
G75*
G02*
X0201060Y0201126I0000000J-001492D01*
G01*
G37*
G36*
G01*
X0196729Y0201126D02*
X0196729Y0200142D01*
G75*
G02*
X0195237Y0198649I-001492J0000000D01*
G01*
X0195237Y0198649D01*
G75*
G02*
X0193745Y0200142I0000000J0001492D01*
G01*
X0193745Y0201126D01*
G75*
G02*
X0195237Y0202618I0001492J0000000D01*
G01*
X0195237Y0202618D01*
G75*
G02*
X0196729Y0201126I0000000J-001492D01*
G01*
G37*
G36*
G01*
X0192398Y0201126D02*
X0192398Y0200142D01*
G75*
G02*
X0190906Y0198649I-001492J0000000D01*
G01*
X0190906Y0198649D01*
G75*
G02*
X0189414Y0200142I0000000J0001492D01*
G01*
X0189414Y0201126D01*
G75*
G02*
X0190906Y0202618I0001492J0000000D01*
G01*
X0190906Y0202618D01*
G75*
G02*
X0192398Y0201126I0000000J-001492D01*
G01*
G37*
G36*
G01*
X0188067Y0201126D02*
X0188067Y0200142D01*
G75*
G02*
X0186575Y0198649I-001492J0000000D01*
G01*
X0186575Y0198649D01*
G75*
G02*
X0185083Y0200142I0000000J0001492D01*
G01*
X0185083Y0201126D01*
G75*
G02*
X0186575Y0202618I0001492J0000000D01*
G01*
X0186575Y0202618D01*
G75*
G02*
X0188067Y0201126I0000000J-001492D01*
G01*
G37*
G36*
G01*
X0183737Y0201126D02*
X0183737Y0200142D01*
G75*
G02*
X0182245Y0198649I-001492J0000000D01*
G01*
X0182245Y0198649D01*
G75*
G02*
X0180752Y0200142I0000000J0001492D01*
G01*
X0180752Y0201126D01*
G75*
G02*
X0182245Y0202618I0001492J0000000D01*
G01*
X0182245Y0202618D01*
G75*
G02*
X0183737Y0201126I0000000J-001492D01*
G01*
G37*
G36*
G01*
X0179406Y0201126D02*
X0179406Y0200142D01*
G75*
G02*
X0177914Y0198649I-001492J0000000D01*
G01*
X0177914Y0198649D01*
G75*
G02*
X0176422Y0200142I0000000J0001492D01*
G01*
X0176422Y0201126D01*
G75*
G02*
X0177914Y0202618I0001492J0000000D01*
G01*
X0177914Y0202618D01*
G75*
G02*
X0179406Y0201126I0000000J-001492D01*
G01*
G37*
G36*
G01*
X0175075Y0201126D02*
X0175075Y0200142D01*
G75*
G02*
X0173583Y0198649I-001492J0000000D01*
G01*
X0173583Y0198649D01*
G75*
G02*
X0172091Y0200142I0000000J0001492D01*
G01*
X0172091Y0201126D01*
G75*
G02*
X0173583Y0202618I0001492J0000000D01*
G01*
X0173583Y0202618D01*
G75*
G02*
X0175075Y0201126I0000000J-001492D01*
G01*
G37*
G36*
G01*
X0170745Y0201126D02*
X0170745Y0200142D01*
G75*
G02*
X0169253Y0198649I-001492J0000000D01*
G01*
X0169253Y0198649D01*
G75*
G02*
X0167760Y0200142I0000000J0001492D01*
G01*
X0167760Y0201126D01*
G75*
G02*
X0169253Y0202618I0001492J0000000D01*
G01*
X0169253Y0202618D01*
G75*
G02*
X0170745Y0201126I0000000J-001492D01*
G01*
G37*
G36*
G01*
X0166414Y0201126D02*
X0166414Y0200142D01*
G75*
G02*
X0164922Y0198649I-001492J0000000D01*
G01*
X0164922Y0198649D01*
G75*
G02*
X0163430Y0200142I0000000J0001492D01*
G01*
X0163430Y0201126D01*
G75*
G02*
X0164922Y0202618I0001492J0000000D01*
G01*
X0164922Y0202618D01*
G75*
G02*
X0166414Y0201126I0000000J-001492D01*
G01*
G37*
G36*
G01*
X0162083Y0201126D02*
X0162083Y0200142D01*
G75*
G02*
X0160591Y0198649I-001492J0000000D01*
G01*
X0160591Y0198649D01*
G75*
G02*
X0159099Y0200142I0000000J0001492D01*
G01*
X0159099Y0201126D01*
G75*
G02*
X0160591Y0202618I0001492J0000000D01*
G01*
X0160591Y0202618D01*
G75*
G02*
X0162083Y0201126I0000000J-001492D01*
G01*
G37*
G36*
G01*
X0155138Y0317476D02*
X0154154Y0317476D01*
G75*
G02*
X0152662Y0318968I0000000J0001492D01*
G01*
X0152662Y0318968D01*
G75*
G02*
X0154154Y0320460I0001492J0000000D01*
G01*
X0155138Y0320460D01*
G75*
G02*
X0156630Y0318968I0000000J-001492D01*
G01*
X0156630Y0318968D01*
G75*
G02*
X0155138Y0317476I-001492J0000000D01*
G01*
G37*
G36*
G01*
X0155138Y0320075D02*
X0154154Y0320075D01*
G75*
G02*
X0152662Y0321567I0000000J0001492D01*
G01*
X0152662Y0321567D01*
G75*
G02*
X0154154Y0323059I0001492J0000000D01*
G01*
X0155138Y0323059D01*
G75*
G02*
X0156630Y0321567I0000000J-001492D01*
G01*
X0156630Y0321567D01*
G75*
G02*
X0155138Y0320075I-001492J0000000D01*
G01*
G37*
G36*
G01*
X0155138Y0322673D02*
X0154154Y0322673D01*
G75*
G02*
X0152662Y0324165I0000000J0001492D01*
G01*
X0152662Y0324165D01*
G75*
G02*
X0154154Y0325657I0001492J0000000D01*
G01*
X0155138Y0325657D01*
G75*
G02*
X0156630Y0324165I0000000J-001492D01*
G01*
X0156630Y0324165D01*
G75*
G02*
X0155138Y0322673I-001492J0000000D01*
G01*
G37*
G36*
G01*
X0155138Y0325271D02*
X0154154Y0325271D01*
G75*
G02*
X0152662Y0326764I0000000J0001492D01*
G01*
X0152662Y0326764D01*
G75*
G02*
X0154154Y0328256I0001492J0000000D01*
G01*
X0155138Y0328256D01*
G75*
G02*
X0156630Y0326764I0000000J-001492D01*
G01*
X0156630Y0326764D01*
G75*
G02*
X0155138Y0325271I-001492J0000000D01*
G01*
G37*
G36*
G01*
X0155138Y0327870D02*
X0154154Y0327870D01*
G75*
G02*
X0152662Y0329362I0000000J0001492D01*
G01*
X0152662Y0329362D01*
G75*
G02*
X0154154Y0330854I0001492J0000000D01*
G01*
X0155138Y0330854D01*
G75*
G02*
X0156630Y0329362I0000000J-001492D01*
G01*
X0156630Y0329362D01*
G75*
G02*
X0155138Y0327870I-001492J0000000D01*
G01*
G37*
G36*
G01*
X0155138Y0330468D02*
X0154154Y0330468D01*
G75*
G02*
X0152662Y0331960I0000000J0001492D01*
G01*
X0152662Y0331960D01*
G75*
G02*
X0154154Y0333453I0001492J0000000D01*
G01*
X0155138Y0333453D01*
G75*
G02*
X0156630Y0331960I0000000J-001492D01*
G01*
X0156630Y0331960D01*
G75*
G02*
X0155138Y0330468I-001492J0000000D01*
G01*
G37*
G36*
G01*
X0155138Y0333067D02*
X0154154Y0333067D01*
G75*
G02*
X0152662Y0334559I0000000J0001492D01*
G01*
X0152662Y0334559D01*
G75*
G02*
X0154154Y0336051I0001492J0000000D01*
G01*
X0155138Y0336051D01*
G75*
G02*
X0156630Y0334559I0000000J-001492D01*
G01*
X0156630Y0334559D01*
G75*
G02*
X0155138Y0333067I-001492J0000000D01*
G01*
G37*
G36*
G01*
X0155138Y0335665D02*
X0154154Y0335665D01*
G75*
G02*
X0152662Y0337157I0000000J0001492D01*
G01*
X0152662Y0337157D01*
G75*
G02*
X0154154Y0338649I0001492J0000000D01*
G01*
X0155138Y0338649D01*
G75*
G02*
X0156630Y0337157I0000000J-001492D01*
G01*
X0156630Y0337157D01*
G75*
G02*
X0155138Y0335665I-001492J0000000D01*
G01*
G37*
G36*
G01*
X0155138Y0338264D02*
X0154154Y0338264D01*
G75*
G02*
X0152662Y0339756I0000000J0001492D01*
G01*
X0152662Y0339756D01*
G75*
G02*
X0154154Y0341248I0001492J0000000D01*
G01*
X0155138Y0341248D01*
G75*
G02*
X0156630Y0339756I0000000J-001492D01*
G01*
X0156630Y0339756D01*
G75*
G02*
X0155138Y0338264I-001492J0000000D01*
G01*
G37*
G36*
G01*
X0155138Y0340862D02*
X0154154Y0340862D01*
G75*
G02*
X0152662Y0342354I0000000J0001492D01*
G01*
X0152662Y0342354D01*
G75*
G02*
X0154154Y0343846I0001492J0000000D01*
G01*
X0155138Y0343846D01*
G75*
G02*
X0156630Y0342354I0000000J-001492D01*
G01*
X0156630Y0342354D01*
G75*
G02*
X0155138Y0340862I-001492J0000000D01*
G01*
G37*
D48*
X0186733Y0380563D03*
X0183288Y0382630D03*
X0187914Y0385582D03*
X0187618Y0399559D03*
X0123012Y0331055D03*
X0130237Y0329382D03*
X0122166Y0327216D03*
X0123012Y0323772D03*
X0123307Y0320425D03*
X0130237Y0319145D03*
X0125079Y0314027D03*
X0130237Y0311468D03*
X0106910Y0339716D03*
X0122953Y0338535D03*
G36*
G01*
X0275414Y0158434D02*
X0274429Y0158434D01*
G75*
G02*
X0272937Y0159926I0000000J0001492D01*
G01*
X0272937Y0159926D01*
G75*
G02*
X0274429Y0161418I0001492J0000000D01*
G01*
X0275414Y0161418D01*
G75*
G02*
X0276906Y0159926I0000000J-001492D01*
G01*
X0276906Y0159926D01*
G75*
G02*
X0275414Y0158434I-001492J0000000D01*
G01*
G37*
G36*
G01*
X0275414Y0155835D02*
X0274429Y0155835D01*
G75*
G02*
X0272937Y0157327I0000000J0001492D01*
G01*
X0272937Y0157327D01*
G75*
G02*
X0274429Y0158820I0001492J0000000D01*
G01*
X0275414Y0158820D01*
G75*
G02*
X0276906Y0157327I0000000J-001492D01*
G01*
X0276906Y0157327D01*
G75*
G02*
X0275414Y0155835I-001492J0000000D01*
G01*
G37*
G36*
G01*
X0275414Y0153237D02*
X0274429Y0153237D01*
G75*
G02*
X0272937Y0154729I0000000J0001492D01*
G01*
X0272937Y0154729D01*
G75*
G02*
X0274429Y0156221I0001492J0000000D01*
G01*
X0275414Y0156221D01*
G75*
G02*
X0276906Y0154729I0000000J-001492D01*
G01*
X0276906Y0154729D01*
G75*
G02*
X0275414Y0153237I-001492J0000000D01*
G01*
G37*
G36*
G01*
X0275414Y0150638D02*
X0274429Y0150638D01*
G75*
G02*
X0272937Y0152131I0000000J0001492D01*
G01*
X0272937Y0152131D01*
G75*
G02*
X0274429Y0153623I0001492J0000000D01*
G01*
X0275414Y0153623D01*
G75*
G02*
X0276906Y0152131I0000000J-001492D01*
G01*
X0276906Y0152131D01*
G75*
G02*
X0275414Y0150638I-001492J0000000D01*
G01*
G37*
G36*
G01*
X0275414Y0137646D02*
X0274429Y0137646D01*
G75*
G02*
X0272937Y0139138I0000000J0001492D01*
G01*
X0272937Y0139138D01*
G75*
G02*
X0274429Y0140631I0001492J0000000D01*
G01*
X0275414Y0140631D01*
G75*
G02*
X0276906Y0139138I0000000J-001492D01*
G01*
X0276906Y0139138D01*
G75*
G02*
X0275414Y0137646I-001492J0000000D01*
G01*
G37*
G36*
G01*
X0163146Y0191791D02*
X0163146Y0190807D01*
G75*
G02*
X0161654Y0189315I-001492J0000000D01*
G01*
X0161654Y0189315D01*
G75*
G02*
X0160162Y0190807I0000000J0001492D01*
G01*
X0160162Y0191791D01*
G75*
G02*
X0161654Y0193283I0001492J0000000D01*
G01*
X0161654Y0193283D01*
G75*
G02*
X0163146Y0191791I0000000J-001492D01*
G01*
G37*
G36*
G01*
X0164492Y0190807D02*
X0164492Y0191791D01*
G75*
G02*
X0165985Y0193283I0001492J0000000D01*
G01*
X0165985Y0193283D01*
G75*
G02*
X0167477Y0191791I0000000J-001492D01*
G01*
X0167477Y0190807D01*
G75*
G02*
X0165985Y0189315I-001492J0000000D01*
G01*
X0165985Y0189315D01*
G75*
G02*
X0164492Y0190807I0000000J0001492D01*
G01*
G37*
G36*
G01*
X0168823Y0190807D02*
X0168823Y0191791D01*
G75*
G02*
X0170315Y0193283I0001492J0000000D01*
G01*
X0170315Y0193283D01*
G75*
G02*
X0171807Y0191791I0000000J-001492D01*
G01*
X0171807Y0190807D01*
G75*
G02*
X0170315Y0189315I-001492J0000000D01*
G01*
X0170315Y0189315D01*
G75*
G02*
X0168823Y0190807I0000000J0001492D01*
G01*
G37*
G36*
G01*
X0173154Y0190807D02*
X0173154Y0191791D01*
G75*
G02*
X0174646Y0193283I0001492J0000000D01*
G01*
X0174646Y0193283D01*
G75*
G02*
X0176138Y0191791I0000000J-001492D01*
G01*
X0176138Y0190807D01*
G75*
G02*
X0174646Y0189315I-001492J0000000D01*
G01*
X0174646Y0189315D01*
G75*
G02*
X0173154Y0190807I0000000J0001492D01*
G01*
G37*
G36*
G01*
X0177485Y0190807D02*
X0177485Y0191791D01*
G75*
G02*
X0178977Y0193283I0001492J0000000D01*
G01*
X0178977Y0193283D01*
G75*
G02*
X0180469Y0191791I0000000J-001492D01*
G01*
X0180469Y0190807D01*
G75*
G02*
X0178977Y0189315I-001492J0000000D01*
G01*
X0178977Y0189315D01*
G75*
G02*
X0177485Y0190807I0000000J0001492D01*
G01*
G37*
G36*
G01*
X0181815Y0190807D02*
X0181815Y0191791D01*
G75*
G02*
X0183307Y0193283I0001492J0000000D01*
G01*
X0183307Y0193283D01*
G75*
G02*
X0184800Y0191791I0000000J-001492D01*
G01*
X0184800Y0190807D01*
G75*
G02*
X0183307Y0189315I-001492J0000000D01*
G01*
X0183307Y0189315D01*
G75*
G02*
X0181815Y0190807I0000000J0001492D01*
G01*
G37*
G36*
G01*
X0186146Y0190807D02*
X0186146Y0191791D01*
G75*
G02*
X0187638Y0193283I0001492J0000000D01*
G01*
X0187638Y0193283D01*
G75*
G02*
X0189130Y0191791I0000000J-001492D01*
G01*
X0189130Y0190807D01*
G75*
G02*
X0187638Y0189315I-001492J0000000D01*
G01*
X0187638Y0189315D01*
G75*
G02*
X0186146Y0190807I0000000J0001492D01*
G01*
G37*
G36*
G01*
X0190477Y0190807D02*
X0190477Y0191791D01*
G75*
G02*
X0191969Y0193283I0001492J0000000D01*
G01*
X0191969Y0193283D01*
G75*
G02*
X0193461Y0191791I0000000J-001492D01*
G01*
X0193461Y0190807D01*
G75*
G02*
X0191969Y0189315I-001492J0000000D01*
G01*
X0191969Y0189315D01*
G75*
G02*
X0190477Y0190807I0000000J0001492D01*
G01*
G37*
G36*
G01*
X0194807Y0190807D02*
X0194807Y0191791D01*
G75*
G02*
X0196299Y0193283I0001492J0000000D01*
G01*
X0196299Y0193283D01*
G75*
G02*
X0197792Y0191791I0000000J-001492D01*
G01*
X0197792Y0190807D01*
G75*
G02*
X0196299Y0189315I-001492J0000000D01*
G01*
X0196299Y0189315D01*
G75*
G02*
X0194807Y0190807I0000000J0001492D01*
G01*
G37*
G36*
G01*
X0199138Y0190807D02*
X0199138Y0191791D01*
G75*
G02*
X0200630Y0193283I0001492J0000000D01*
G01*
X0200630Y0193283D01*
G75*
G02*
X0202122Y0191791I0000000J-001492D01*
G01*
X0202122Y0190807D01*
G75*
G02*
X0200630Y0189315I-001492J0000000D01*
G01*
X0200630Y0189315D01*
G75*
G02*
X0199138Y0190807I0000000J0001492D01*
G01*
G37*
G36*
G01*
X0203469Y0190807D02*
X0203469Y0191791D01*
G75*
G02*
X0204961Y0193283I0001492J0000000D01*
G01*
X0204961Y0193283D01*
G75*
G02*
X0206453Y0191791I0000000J-001492D01*
G01*
X0206453Y0190807D01*
G75*
G02*
X0204961Y0189315I-001492J0000000D01*
G01*
X0204961Y0189315D01*
G75*
G02*
X0203469Y0190807I0000000J0001492D01*
G01*
G37*
G36*
G01*
X0207799Y0190807D02*
X0207799Y0191791D01*
G75*
G02*
X0209292Y0193283I0001492J0000000D01*
G01*
X0209292Y0193283D01*
G75*
G02*
X0210784Y0191791I0000000J-001492D01*
G01*
X0210784Y0190807D01*
G75*
G02*
X0209292Y0189315I-001492J0000000D01*
G01*
X0209292Y0189315D01*
G75*
G02*
X0207799Y0190807I0000000J0001492D01*
G01*
G37*
G36*
G01*
X0212130Y0190807D02*
X0212130Y0191791D01*
G75*
G02*
X0213622Y0193283I0001492J0000000D01*
G01*
X0213622Y0193283D01*
G75*
G02*
X0215114Y0191791I0000000J-001492D01*
G01*
X0215114Y0190807D01*
G75*
G02*
X0213622Y0189315I-001492J0000000D01*
G01*
X0213622Y0189315D01*
G75*
G02*
X0212130Y0190807I0000000J0001492D01*
G01*
G37*
G36*
G01*
X0216461Y0190807D02*
X0216461Y0191791D01*
G75*
G02*
X0217953Y0193283I0001492J0000000D01*
G01*
X0217953Y0193283D01*
G75*
G02*
X0219445Y0191791I0000000J-001492D01*
G01*
X0219445Y0190807D01*
G75*
G02*
X0217953Y0189315I-001492J0000000D01*
G01*
X0217953Y0189315D01*
G75*
G02*
X0216461Y0190807I0000000J0001492D01*
G01*
G37*
G36*
G01*
X0220792Y0190807D02*
X0220792Y0191791D01*
G75*
G02*
X0222284Y0193283I0001492J0000000D01*
G01*
X0222284Y0193283D01*
G75*
G02*
X0223776Y0191791I0000000J-001492D01*
G01*
X0223776Y0190807D01*
G75*
G02*
X0222284Y0189315I-001492J0000000D01*
G01*
X0222284Y0189315D01*
G75*
G02*
X0220792Y0190807I0000000J0001492D01*
G01*
G37*
G36*
G01*
X0225122Y0190807D02*
X0225122Y0191791D01*
G75*
G02*
X0226614Y0193283I0001492J0000000D01*
G01*
X0226614Y0193283D01*
G75*
G02*
X0228107Y0191791I0000000J-001492D01*
G01*
X0228107Y0190807D01*
G75*
G02*
X0226614Y0189315I-001492J0000000D01*
G01*
X0226614Y0189315D01*
G75*
G02*
X0225122Y0190807I0000000J0001492D01*
G01*
G37*
G36*
G01*
X0229453Y0190807D02*
X0229453Y0191791D01*
G75*
G02*
X0230945Y0193283I0001492J0000000D01*
G01*
X0230945Y0193283D01*
G75*
G02*
X0232437Y0191791I0000000J-001492D01*
G01*
X0232437Y0190807D01*
G75*
G02*
X0230945Y0189315I-001492J0000000D01*
G01*
X0230945Y0189315D01*
G75*
G02*
X0229453Y0190807I0000000J0001492D01*
G01*
G37*
G36*
G01*
X0233784Y0190807D02*
X0233784Y0191791D01*
G75*
G02*
X0235276Y0193283I0001492J0000000D01*
G01*
X0235276Y0193283D01*
G75*
G02*
X0236768Y0191791I0000000J-001492D01*
G01*
X0236768Y0190807D01*
G75*
G02*
X0235276Y0189315I-001492J0000000D01*
G01*
X0235276Y0189315D01*
G75*
G02*
X0233784Y0190807I0000000J0001492D01*
G01*
G37*
G36*
G01*
X0238114Y0190807D02*
X0238114Y0191791D01*
G75*
G02*
X0239606Y0193283I0001492J0000000D01*
G01*
X0239606Y0193283D01*
G75*
G02*
X0241099Y0191791I0000000J-001492D01*
G01*
X0241099Y0190807D01*
G75*
G02*
X0239606Y0189315I-001492J0000000D01*
G01*
X0239606Y0189315D01*
G75*
G02*
X0238114Y0190807I0000000J0001492D01*
G01*
G37*
G36*
G01*
X0242445Y0190807D02*
X0242445Y0191791D01*
G75*
G02*
X0243937Y0193283I0001492J0000000D01*
G01*
X0243937Y0193283D01*
G75*
G02*
X0245429Y0191791I0000000J-001492D01*
G01*
X0245429Y0190807D01*
G75*
G02*
X0243937Y0189315I-001492J0000000D01*
G01*
X0243937Y0189315D01*
G75*
G02*
X0242445Y0190807I0000000J0001492D01*
G01*
G37*
G36*
G01*
X0246776Y0190807D02*
X0246776Y0191791D01*
G75*
G02*
X0248268Y0193283I0001492J0000000D01*
G01*
X0248268Y0193283D01*
G75*
G02*
X0249760Y0191791I0000000J-001492D01*
G01*
X0249760Y0190807D01*
G75*
G02*
X0248268Y0189315I-001492J0000000D01*
G01*
X0248268Y0189315D01*
G75*
G02*
X0246776Y0190807I0000000J0001492D01*
G01*
G37*
G36*
G01*
X0251106Y0190807D02*
X0251106Y0191791D01*
G75*
G02*
X0252599Y0193283I0001492J0000000D01*
G01*
X0252599Y0193283D01*
G75*
G02*
X0254091Y0191791I0000000J-001492D01*
G01*
X0254091Y0190807D01*
G75*
G02*
X0252599Y0189315I-001492J0000000D01*
G01*
X0252599Y0189315D01*
G75*
G02*
X0251106Y0190807I0000000J0001492D01*
G01*
G37*
G36*
G01*
X0255437Y0190807D02*
X0255437Y0191791D01*
G75*
G02*
X0256929Y0193283I0001492J0000000D01*
G01*
X0256929Y0193283D01*
G75*
G02*
X0258421Y0191791I0000000J-001492D01*
G01*
X0258421Y0190807D01*
G75*
G02*
X0256929Y0189315I-001492J0000000D01*
G01*
X0256929Y0189315D01*
G75*
G02*
X0255437Y0190807I0000000J0001492D01*
G01*
G37*
G36*
G01*
X0259768Y0190807D02*
X0259768Y0191791D01*
G75*
G02*
X0261260Y0193283I0001492J0000000D01*
G01*
X0261260Y0193283D01*
G75*
G02*
X0262752Y0191791I0000000J-001492D01*
G01*
X0262752Y0190807D01*
G75*
G02*
X0261260Y0189315I-001492J0000000D01*
G01*
X0261260Y0189315D01*
G75*
G02*
X0259768Y0190807I0000000J0001492D01*
G01*
G37*
G36*
G01*
X0264099Y0190807D02*
X0264099Y0191791D01*
G75*
G02*
X0265591Y0193283I0001492J0000000D01*
G01*
X0265591Y0193283D01*
G75*
G02*
X0267083Y0191791I0000000J-001492D01*
G01*
X0267083Y0190807D01*
G75*
G02*
X0265591Y0189315I-001492J0000000D01*
G01*
X0265591Y0189315D01*
G75*
G02*
X0264099Y0190807I0000000J0001492D01*
G01*
G37*
G36*
G01*
X0268429Y0190807D02*
X0268429Y0191791D01*
G75*
G02*
X0269921Y0193283I0001492J0000000D01*
G01*
X0269921Y0193283D01*
G75*
G02*
X0271414Y0191791I0000000J-001492D01*
G01*
X0271414Y0190807D01*
G75*
G02*
X0269921Y0189315I-001492J0000000D01*
G01*
X0269921Y0189315D01*
G75*
G02*
X0268429Y0190807I0000000J0001492D01*
G01*
G37*
G36*
G01*
X0267441Y0135838D02*
X0267441Y0136823D01*
G75*
G02*
X0268933Y0138315I0001492J0000000D01*
G01*
X0268933Y0138315D01*
G75*
G02*
X0270426Y0136823I0000000J-001492D01*
G01*
X0270426Y0135838D01*
G75*
G02*
X0268933Y0134346I-001492J0000000D01*
G01*
X0268933Y0134346D01*
G75*
G02*
X0267441Y0135838I0000000J0001492D01*
G01*
G37*
G36*
G01*
X0264843Y0135838D02*
X0264843Y0136823D01*
G75*
G02*
X0266335Y0138315I0001492J0000000D01*
G01*
X0266335Y0138315D01*
G75*
G02*
X0267827Y0136823I0000000J-001492D01*
G01*
X0267827Y0135838D01*
G75*
G02*
X0266335Y0134346I-001492J0000000D01*
G01*
X0266335Y0134346D01*
G75*
G02*
X0264843Y0135838I0000000J0001492D01*
G01*
G37*
G36*
G01*
X0262244Y0135838D02*
X0262244Y0136823D01*
G75*
G02*
X0263737Y0138315I0001492J0000000D01*
G01*
X0263737Y0138315D01*
G75*
G02*
X0265229Y0136823I0000000J-001492D01*
G01*
X0265229Y0135838D01*
G75*
G02*
X0263737Y0134346I-001492J0000000D01*
G01*
X0263737Y0134346D01*
G75*
G02*
X0262244Y0135838I0000000J0001492D01*
G01*
G37*
G36*
G01*
X0259646Y0135838D02*
X0259646Y0136823D01*
G75*
G02*
X0261138Y0138315I0001492J0000000D01*
G01*
X0261138Y0138315D01*
G75*
G02*
X0262630Y0136823I0000000J-001492D01*
G01*
X0262630Y0135838D01*
G75*
G02*
X0261138Y0134346I-001492J0000000D01*
G01*
X0261138Y0134346D01*
G75*
G02*
X0259646Y0135838I0000000J0001492D01*
G01*
G37*
G36*
G01*
X0257048Y0135838D02*
X0257048Y0136823D01*
G75*
G02*
X0258540Y0138315I0001492J0000000D01*
G01*
X0258540Y0138315D01*
G75*
G02*
X0260032Y0136823I0000000J-001492D01*
G01*
X0260032Y0135838D01*
G75*
G02*
X0258540Y0134346I-001492J0000000D01*
G01*
X0258540Y0134346D01*
G75*
G02*
X0257048Y0135838I0000000J0001492D01*
G01*
G37*
G36*
G01*
X0254449Y0135838D02*
X0254449Y0136823D01*
G75*
G02*
X0255941Y0138315I0001492J0000000D01*
G01*
X0255941Y0138315D01*
G75*
G02*
X0257433Y0136823I0000000J-001492D01*
G01*
X0257433Y0135838D01*
G75*
G02*
X0255941Y0134346I-001492J0000000D01*
G01*
X0255941Y0134346D01*
G75*
G02*
X0254449Y0135838I0000000J0001492D01*
G01*
G37*
G36*
G01*
X0248146Y0135838D02*
X0248146Y0136823D01*
G75*
G02*
X0249638Y0138315I0001492J0000000D01*
G01*
X0249638Y0138315D01*
G75*
G02*
X0251130Y0136823I0000000J-001492D01*
G01*
X0251130Y0135838D01*
G75*
G02*
X0249638Y0134346I-001492J0000000D01*
G01*
X0249638Y0134346D01*
G75*
G02*
X0248146Y0135838I0000000J0001492D01*
G01*
G37*
G36*
G01*
X0245548Y0135838D02*
X0245548Y0136823D01*
G75*
G02*
X0247040Y0138315I0001492J0000000D01*
G01*
X0247040Y0138315D01*
G75*
G02*
X0248532Y0136823I0000000J-001492D01*
G01*
X0248532Y0135838D01*
G75*
G02*
X0247040Y0134346I-001492J0000000D01*
G01*
X0247040Y0134346D01*
G75*
G02*
X0245548Y0135838I0000000J0001492D01*
G01*
G37*
G36*
G01*
X0242949Y0135838D02*
X0242949Y0136823D01*
G75*
G02*
X0244441Y0138315I0001492J0000000D01*
G01*
X0244441Y0138315D01*
G75*
G02*
X0245933Y0136823I0000000J-001492D01*
G01*
X0245933Y0135838D01*
G75*
G02*
X0244441Y0134346I-001492J0000000D01*
G01*
X0244441Y0134346D01*
G75*
G02*
X0242949Y0135838I0000000J0001492D01*
G01*
G37*
G36*
G01*
X0238536Y0135838D02*
X0238536Y0136823D01*
G75*
G02*
X0240028Y0138315I0001492J0000000D01*
G01*
X0240028Y0138315D01*
G75*
G02*
X0241520Y0136823I0000000J-001492D01*
G01*
X0241520Y0135838D01*
G75*
G02*
X0240028Y0134346I-001492J0000000D01*
G01*
X0240028Y0134346D01*
G75*
G02*
X0238536Y0135838I0000000J0001492D01*
G01*
G37*
G36*
G01*
X0235938Y0135838D02*
X0235938Y0136823D01*
G75*
G02*
X0237430Y0138315I0001492J0000000D01*
G01*
X0237430Y0138315D01*
G75*
G02*
X0238922Y0136823I0000000J-001492D01*
G01*
X0238922Y0135838D01*
G75*
G02*
X0237430Y0134346I-001492J0000000D01*
G01*
X0237430Y0134346D01*
G75*
G02*
X0235938Y0135838I0000000J0001492D01*
G01*
G37*
G36*
G01*
X0233339Y0135838D02*
X0233339Y0136823D01*
G75*
G02*
X0234831Y0138315I0001492J0000000D01*
G01*
X0234831Y0138315D01*
G75*
G02*
X0236324Y0136823I0000000J-001492D01*
G01*
X0236324Y0135838D01*
G75*
G02*
X0234831Y0134346I-001492J0000000D01*
G01*
X0234831Y0134346D01*
G75*
G02*
X0233339Y0135838I0000000J0001492D01*
G01*
G37*
G36*
G01*
X0230741Y0135838D02*
X0230741Y0136823D01*
G75*
G02*
X0232233Y0138315I0001492J0000000D01*
G01*
X0232233Y0138315D01*
G75*
G02*
X0233725Y0136823I0000000J-001492D01*
G01*
X0233725Y0135838D01*
G75*
G02*
X0232233Y0134346I-001492J0000000D01*
G01*
X0232233Y0134346D01*
G75*
G02*
X0230741Y0135838I0000000J0001492D01*
G01*
G37*
G36*
G01*
X0217646Y0135838D02*
X0217646Y0136823D01*
G75*
G02*
X0219138Y0138315I0001492J0000000D01*
G01*
X0219138Y0138315D01*
G75*
G02*
X0220630Y0136823I0000000J-001492D01*
G01*
X0220630Y0135838D01*
G75*
G02*
X0219138Y0134346I-001492J0000000D01*
G01*
X0219138Y0134346D01*
G75*
G02*
X0217646Y0135838I0000000J0001492D01*
G01*
G37*
G36*
G01*
X0215048Y0135838D02*
X0215048Y0136823D01*
G75*
G02*
X0216540Y0138315I0001492J0000000D01*
G01*
X0216540Y0138315D01*
G75*
G02*
X0218032Y0136823I0000000J-001492D01*
G01*
X0218032Y0135838D01*
G75*
G02*
X0216540Y0134346I-001492J0000000D01*
G01*
X0216540Y0134346D01*
G75*
G02*
X0215048Y0135838I0000000J0001492D01*
G01*
G37*
G36*
G01*
X0212449Y0135838D02*
X0212449Y0136823D01*
G75*
G02*
X0213941Y0138315I0001492J0000000D01*
G01*
X0213941Y0138315D01*
G75*
G02*
X0215433Y0136823I0000000J-001492D01*
G01*
X0215433Y0135838D01*
G75*
G02*
X0213941Y0134346I-001492J0000000D01*
G01*
X0213941Y0134346D01*
G75*
G02*
X0212449Y0135838I0000000J0001492D01*
G01*
G37*
G36*
G01*
X0202032Y0135838D02*
X0202032Y0136823D01*
G75*
G02*
X0203524Y0138315I0001492J0000000D01*
G01*
X0203524Y0138315D01*
G75*
G02*
X0205016Y0136823I0000000J-001492D01*
G01*
X0205016Y0135838D01*
G75*
G02*
X0203524Y0134346I-001492J0000000D01*
G01*
X0203524Y0134346D01*
G75*
G02*
X0202032Y0135838I0000000J0001492D01*
G01*
G37*
G36*
G01*
X0199433Y0135838D02*
X0199433Y0136823D01*
G75*
G02*
X0200926Y0138315I0001492J0000000D01*
G01*
X0200926Y0138315D01*
G75*
G02*
X0202418Y0136823I0000000J-001492D01*
G01*
X0202418Y0135838D01*
G75*
G02*
X0200926Y0134346I-001492J0000000D01*
G01*
X0200926Y0134346D01*
G75*
G02*
X0199433Y0135838I0000000J0001492D01*
G01*
G37*
G36*
G01*
X0196835Y0135838D02*
X0196835Y0136823D01*
G75*
G02*
X0198327Y0138315I0001492J0000000D01*
G01*
X0198327Y0138315D01*
G75*
G02*
X0199819Y0136823I0000000J-001492D01*
G01*
X0199819Y0135838D01*
G75*
G02*
X0198327Y0134346I-001492J0000000D01*
G01*
X0198327Y0134346D01*
G75*
G02*
X0196835Y0135838I0000000J0001492D01*
G01*
G37*
G36*
G01*
X0194237Y0135838D02*
X0194237Y0136823D01*
G75*
G02*
X0195729Y0138315I0001492J0000000D01*
G01*
X0195729Y0138315D01*
G75*
G02*
X0197221Y0136823I0000000J-001492D01*
G01*
X0197221Y0135838D01*
G75*
G02*
X0195729Y0134346I-001492J0000000D01*
G01*
X0195729Y0134346D01*
G75*
G02*
X0194237Y0135838I0000000J0001492D01*
G01*
G37*
G36*
G01*
X0191638Y0135838D02*
X0191638Y0136823D01*
G75*
G02*
X0193130Y0138315I0001492J0000000D01*
G01*
X0193130Y0138315D01*
G75*
G02*
X0194622Y0136823I0000000J-001492D01*
G01*
X0194622Y0135838D01*
G75*
G02*
X0193130Y0134346I-001492J0000000D01*
G01*
X0193130Y0134346D01*
G75*
G02*
X0191638Y0135838I0000000J0001492D01*
G01*
G37*
G36*
G01*
X0189040Y0135838D02*
X0189040Y0136823D01*
G75*
G02*
X0190532Y0138315I0001492J0000000D01*
G01*
X0190532Y0138315D01*
G75*
G02*
X0192024Y0136823I0000000J-001492D01*
G01*
X0192024Y0135838D01*
G75*
G02*
X0190532Y0134346I-001492J0000000D01*
G01*
X0190532Y0134346D01*
G75*
G02*
X0189040Y0135838I0000000J0001492D01*
G01*
G37*
G36*
G01*
X0186441Y0135838D02*
X0186441Y0136823D01*
G75*
G02*
X0187933Y0138315I0001492J0000000D01*
G01*
X0187933Y0138315D01*
G75*
G02*
X0189426Y0136823I0000000J-001492D01*
G01*
X0189426Y0135838D01*
G75*
G02*
X0187933Y0134346I-001492J0000000D01*
G01*
X0187933Y0134346D01*
G75*
G02*
X0186441Y0135838I0000000J0001492D01*
G01*
G37*
G36*
G01*
X0183843Y0135838D02*
X0183843Y0136823D01*
G75*
G02*
X0185335Y0138315I0001492J0000000D01*
G01*
X0185335Y0138315D01*
G75*
G02*
X0186827Y0136823I0000000J-001492D01*
G01*
X0186827Y0135838D01*
G75*
G02*
X0185335Y0134346I-001492J0000000D01*
G01*
X0185335Y0134346D01*
G75*
G02*
X0183843Y0135838I0000000J0001492D01*
G01*
G37*
G36*
G01*
X0181244Y0135838D02*
X0181244Y0136823D01*
G75*
G02*
X0182737Y0138315I0001492J0000000D01*
G01*
X0182737Y0138315D01*
G75*
G02*
X0184229Y0136823I0000000J-001492D01*
G01*
X0184229Y0135838D01*
G75*
G02*
X0182737Y0134346I-001492J0000000D01*
G01*
X0182737Y0134346D01*
G75*
G02*
X0181244Y0135838I0000000J0001492D01*
G01*
G37*
G36*
G01*
X0178646Y0135838D02*
X0178646Y0136823D01*
G75*
G02*
X0180138Y0138315I0001492J0000000D01*
G01*
X0180138Y0138315D01*
G75*
G02*
X0181630Y0136823I0000000J-001492D01*
G01*
X0181630Y0135838D01*
G75*
G02*
X0180138Y0134346I-001492J0000000D01*
G01*
X0180138Y0134346D01*
G75*
G02*
X0178646Y0135838I0000000J0001492D01*
G01*
G37*
D180*
X0513018Y0147644D03*
X0508074Y0147644D03*
D33*
X0482703Y0147152D03*
D65*
X0457310Y0145971D03*
D55*
X0453471Y0146365D03*
D65*
X0450047Y0145971D03*
X0447172Y0145971D03*
X0443649Y0145971D03*
X0435480Y0145971D03*
X0431936Y0145971D03*
X0429140Y0145971D03*
D55*
X0425125Y0146365D03*
X0420499Y0146365D03*
X0415184Y0146365D03*
X0410558Y0146365D03*
D140*
X0407014Y0150027D03*
X0407014Y0152762D03*
X0407014Y0155441D03*
D219*
X0407388Y0158668D03*
D140*
X0407014Y0163807D03*
D219*
X0407388Y0167625D03*
D140*
X0407014Y0172644D03*
X0407014Y0175203D03*
D219*
X0407388Y0179928D03*
X0407388Y0184160D03*
X0407388Y0187605D03*
D140*
X0407014Y0190853D03*
X0407014Y0213885D03*
D36*
X0406601Y0229849D03*
X0406601Y0232447D03*
X0406601Y0236621D03*
X0406601Y0239393D03*
X0406601Y0242542D03*
X0406601Y0245692D03*
X0406601Y0248825D03*
X0406601Y0257467D03*
X0406601Y0259199D03*
X0406601Y0260932D03*
X0406601Y0262664D03*
X0406601Y0264396D03*
X0406601Y0266129D03*
X0406601Y0267861D03*
X0406601Y0269593D03*
X0406601Y0274022D03*
X0406601Y0276621D03*
X0406601Y0279219D03*
X0406601Y0281817D03*
X0406601Y0295223D03*
X0406601Y0296955D03*
X0406601Y0298688D03*
X0406601Y0300420D03*
X0406601Y0302152D03*
X0406601Y0303885D03*
X0406601Y0305617D03*
D48*
X0471870Y0388437D03*
X0415965Y0388437D03*
X0514784Y0388437D03*
X0367684Y0388437D03*
X0373150Y0373476D03*
X0355827Y0180760D03*
X0323445Y0175543D03*
X0323514Y0154943D03*
X0330926Y0153004D03*
X0301989Y0148575D03*
X0405512Y0144390D02*
G01*
G75*
D121*
X0512998Y0147594D02*
D03*
X0508054Y0147594D02*
D03*
D181*
X0407368Y0187554D02*
D03*
X0407368Y0184109D02*
D03*
X0407368Y0179877D02*
D03*
X0407368Y0167574D02*
D03*
X0407368Y0158617D02*
D03*
D243*
X0406581Y0305566D02*
D03*
X0406581Y0303834D02*
D03*
X0406581Y0302102D02*
D03*
X0406581Y0300369D02*
D03*
X0406581Y0298637D02*
D03*
X0406581Y0296905D02*
D03*
X0406581Y0295172D02*
D03*
X0406581Y0281767D02*
D03*
X0406581Y0279168D02*
D03*
X0406581Y0276570D02*
D03*
X0406581Y0273971D02*
D03*
X0406581Y0269542D02*
D03*
X0406581Y0267810D02*
D03*
X0406581Y0266078D02*
D03*
X0406581Y0264346D02*
D03*
X0406581Y0262613D02*
D03*
X0406581Y0260881D02*
D03*
X0406581Y0259149D02*
D03*
X0406581Y0257416D02*
D03*
X0406581Y0248775D02*
D03*
X0406581Y0245641D02*
D03*
X0406581Y0242492D02*
D03*
X0406581Y0239342D02*
D03*
X0406581Y0229798D02*
D03*
X0406581Y0232397D02*
D03*
X0406581Y0236570D02*
D03*
D145*
X0406995Y0213834D02*
D03*
X0406995Y0190802D02*
D03*
X0406995Y0149976D02*
D03*
X0406995Y0152712D02*
D03*
X0406995Y0155390D02*
D03*
X0406995Y0163756D02*
D03*
X0406995Y0172594D02*
D03*
X0406995Y0175153D02*
D03*
D130*
X0410538Y0146314D02*
D03*
X0415164Y0146314D02*
D03*
X0420479Y0146314D02*
D03*
X0425105Y0146314D02*
D03*
X0453451Y0146314D02*
D03*
D161*
X0482683Y0147102D02*
D03*
D66*
X0457290Y0145920D02*
D03*
X0450027Y0145920D02*
D03*
X0443629Y0145920D02*
D03*
X0429120Y0145920D02*
D03*
X0431917Y0145920D02*
D03*
X0435460Y0145920D02*
D03*
X0447152Y0145920D02*
D03*
X0298524Y0120866D02*
G01*
G75*
D77*
X0323495Y0154892D02*
D03*
X0355808Y0180708D02*
D03*
X0330906Y0152953D02*
D03*
X0301969Y0148523D02*
D03*
X0323426Y0175492D02*
D03*
X0100295Y0290157D02*
G01*
G75*
D77*
X0106594Y0339665D02*
D03*
X0122638Y0338484D02*
D03*
X0129921Y0311417D02*
D03*
X0124764Y0313976D02*
D03*
X0122992Y0320374D02*
D03*
X0129921Y0319094D02*
D03*
X0122697Y0323720D02*
D03*
X0121850Y0327165D02*
D03*
X0129921Y0329330D02*
D03*
X0122697Y0331003D02*
D03*
X0067028Y0127461D02*
G01*
G75*
X0154232Y0134843D02*
G01*
G75*
D104*
X0269901Y0191249D02*
D03*
X0265570Y0191249D02*
D03*
X0261240Y0191249D02*
D03*
X0256909Y0191249D02*
D03*
X0252578Y0191249D02*
D03*
X0248248Y0191249D02*
D03*
X0243917Y0191249D02*
D03*
X0239586Y0191249D02*
D03*
X0235256Y0191249D02*
D03*
X0230925Y0191249D02*
D03*
X0226594Y0191249D02*
D03*
X0222263Y0191249D02*
D03*
X0217933Y0191249D02*
D03*
X0213602Y0191249D02*
D03*
X0209271Y0191249D02*
D03*
X0204941Y0191249D02*
D03*
X0200610Y0191249D02*
D03*
X0196279Y0191249D02*
D03*
X0191948Y0191249D02*
D03*
X0187618Y0191249D02*
D03*
X0183287Y0191249D02*
D03*
X0178956Y0191249D02*
D03*
X0180118Y0136280D02*
D03*
X0182716Y0136280D02*
D03*
X0185315Y0136280D02*
D03*
X0187913Y0136280D02*
D03*
X0190512Y0136280D02*
D03*
X0193110Y0136280D02*
D03*
X0195708Y0136280D02*
D03*
X0198307Y0136280D02*
D03*
X0200905Y0136280D02*
D03*
X0203504Y0136280D02*
D03*
X0213921Y0136280D02*
D03*
X0216519Y0136280D02*
D03*
X0219118Y0136280D02*
D03*
X0232213Y0136280D02*
D03*
X0234811Y0136280D02*
D03*
X0237410Y0136280D02*
D03*
X0240008Y0136280D02*
D03*
X0244421Y0136280D02*
D03*
X0247019Y0136280D02*
D03*
X0249618Y0136280D02*
D03*
X0255921Y0136280D02*
D03*
X0258519Y0136280D02*
D03*
X0261118Y0136280D02*
D03*
X0263716Y0136280D02*
D03*
X0266315Y0136280D02*
D03*
X0268913Y0136280D02*
D03*
X0161634Y0191249D02*
D03*
X0165964Y0191249D02*
D03*
X0170295Y0191249D02*
D03*
X0174626Y0191249D02*
D03*
D76*
X0274901Y0152080D02*
D03*
X0274901Y0154678D02*
D03*
X0274901Y0157277D02*
D03*
X0274901Y0159875D02*
D03*
X0274901Y0139088D02*
D03*
X0152756Y0198524D02*
G01*
G75*
D89*
X0322181Y0293445D02*
D03*
X0330181Y0293445D02*
D03*
X0326181Y0313445D02*
D03*
D76*
X0154626Y0339705D02*
D03*
X0154626Y0342304D02*
D03*
X0154626Y0318918D02*
D03*
X0154626Y0321516D02*
D03*
X0154626Y0324115D02*
D03*
X0154626Y0326713D02*
D03*
X0154626Y0329311D02*
D03*
X0154626Y0331910D02*
D03*
X0154626Y0334508D02*
D03*
X0154626Y0337107D02*
D03*
X0333866Y0250433D02*
D03*
X0333866Y0253032D02*
D03*
X0333866Y0255630D02*
D03*
X0333866Y0258229D02*
D03*
X0333866Y0260827D02*
D03*
X0333866Y0263426D02*
D03*
X0333866Y0266024D02*
D03*
X0333866Y0268622D02*
D03*
X0333866Y0271221D02*
D03*
X0333866Y0273819D02*
D03*
X0333866Y0276418D02*
D03*
X0333866Y0279016D02*
D03*
X0333866Y0281615D02*
D03*
X0333866Y0284213D02*
D03*
X0333866Y0286811D02*
D03*
X0333866Y0289410D02*
D03*
X0333866Y0292008D02*
D03*
X0333866Y0294607D02*
D03*
X0333866Y0297205D02*
D03*
X0333866Y0299803D02*
D03*
X0333866Y0302402D02*
D03*
X0333866Y0315394D02*
D03*
X0333866Y0325788D02*
D03*
X0333866Y0323189D02*
D03*
X0333866Y0320591D02*
D03*
X0333866Y0317992D02*
D03*
X0333866Y0229646D02*
D03*
X0333866Y0232244D02*
D03*
X0333866Y0234843D02*
D03*
X0333866Y0237441D02*
D03*
X0333866Y0240040D02*
D03*
X0333866Y0242638D02*
D03*
X0333866Y0245237D02*
D03*
X0333866Y0247835D02*
D03*
D104*
X0328445Y0342036D02*
D03*
X0160571Y0200583D02*
D03*
X0182225Y0200583D02*
D03*
X0186555Y0200583D02*
D03*
X0311122Y0342036D02*
D03*
X0306791Y0342036D02*
D03*
X0302461Y0342036D02*
D03*
X0298130Y0342036D02*
D03*
X0293799Y0342036D02*
D03*
X0289469Y0342036D02*
D03*
X0285138Y0342036D02*
D03*
X0280807Y0342036D02*
D03*
X0276476Y0342036D02*
D03*
X0272146Y0342036D02*
D03*
X0267815Y0342036D02*
D03*
X0263484Y0342036D02*
D03*
X0259154Y0342036D02*
D03*
X0254823Y0342036D02*
D03*
X0250492Y0342036D02*
D03*
X0246161Y0342036D02*
D03*
X0241831Y0342036D02*
D03*
X0237500Y0342036D02*
D03*
X0233169Y0342036D02*
D03*
X0228839Y0342036D02*
D03*
X0224508Y0342036D02*
D03*
X0220177Y0342036D02*
D03*
X0200217Y0342036D02*
D03*
X0205414Y0342036D02*
D03*
X0210610Y0342036D02*
D03*
X0215847Y0342036D02*
D03*
X0190886Y0200583D02*
D03*
X0195217Y0200583D02*
D03*
X0199547Y0200583D02*
D03*
X0203878Y0200583D02*
D03*
X0208209Y0200583D02*
D03*
X0212540Y0200583D02*
D03*
X0216870Y0200583D02*
D03*
X0221201Y0200583D02*
D03*
X0225532Y0200583D02*
D03*
X0229862Y0200583D02*
D03*
X0234193Y0200583D02*
D03*
X0238524Y0200583D02*
D03*
X0242855Y0200583D02*
D03*
X0247185Y0200583D02*
D03*
X0251516Y0200583D02*
D03*
X0255847Y0200583D02*
D03*
X0260177Y0200583D02*
D03*
X0264508Y0200583D02*
D03*
X0268839Y0200583D02*
D03*
X0273169Y0200583D02*
D03*
X0277500Y0200583D02*
D03*
X0281831Y0200583D02*
D03*
X0300886Y0200583D02*
D03*
X0295689Y0200583D02*
D03*
X0290492Y0200583D02*
D03*
X0286161Y0200583D02*
D03*
X0164902Y0200583D02*
D03*
X0169233Y0200583D02*
D03*
X0173563Y0200583D02*
D03*
X0177894Y0200583D02*
D03*
X0324114Y0342036D02*
D03*
X0319783Y0342036D02*
D03*
X0315453Y0342036D02*
D03*
X0156398Y0375098D02*
G01*
G75*
D77*
X0187599Y0399507D02*
D03*
X0187894Y0385531D02*
D03*
X0186713Y0380511D02*
D03*
X0183268Y0382578D02*
D03*
X0365157Y0361220D02*
G01*
G75*
D77*
X0471850Y0388385D02*
D03*
X0514763Y0388385D02*
D03*
X0373129Y0373425D02*
D03*
X0415944Y0388385D02*
D03*
X0367664Y0388385D02*
D03*
M02*
