M48
INCH,TZ
T01C0.011800
T02C0.027600
T03C0.032000
T04C0.039200
T05C0.043300
T06C0.086600
T07C0.145700
%
T01
X7480Y32411
X7707Y21663
X7894Y31555
X8130Y30876
X8337Y32028
X8593Y31270
X8986Y31309
X9291Y31791
X9419Y23632
X9439Y32402
X9528Y30551
X10295Y30443
X10394Y37431
X10423Y32461
X10620Y8504
X11014Y17884
X11093Y20207
X11329Y32028
X11516Y41732
X12057Y8612
X12510Y16388
X12539Y17313
X12972Y23996
X13297Y32087
X13612Y384
X13967Y32726
X13986Y4311
X14045Y9675
X14144Y17333
X14173Y5837
X14183Y16407
X14222Y11398
X14616Y21594
X14833Y38799
X14921Y22490
X14980Y5758
X15059Y22943
X15157Y38100
X15177Y34902
X15472Y10030
X15472Y9144
X15519Y38019
X15630Y17313
X16014Y12205
X16594Y1289
X17106Y15453
X17539Y7982
X17943Y5837
X17992Y15000
X18002Y15817
X18435Y15413
X19547Y38081
X19626Y15236
X20325Y38140
X20384Y38858
X20581Y9734
X20610Y14941
X20728Y4902
X21063Y5906
X21280Y7953
X21535Y38091
X21988Y1811
X21998Y2480
X22077Y16496
X22116Y14626
X22461Y16486
X22628Y7923
X23278Y16752
X23455Y14665
X23484Y41762
X23593Y7933
X23868Y8219
X24055Y3415
X24203Y16014
X24931Y3386
X25150Y16971
X25571Y13287
X25630Y38730
X25689Y1841
X25787Y38081
X26014Y16722
X26053Y3711
X26078Y39592
X26211Y16161
X26486Y5610
X26575Y38209
X27736Y16565
X27854Y20197
X28022Y5049
X28041Y38740
X28110Y19793
X28209Y16939
X28632Y17490
X28917Y38839
X29198Y18735
X29227Y17741
X29257Y18214
X29262Y20236
X29331Y19724
X29341Y11634
X29439Y13278
X29852Y17234
X29862Y18711
X29931Y38878
X30000Y14065
X30728Y17087
X30778Y15167
X30876Y3533
X31043Y38829
X31073Y7884
X31280Y16781
X31604Y15974
X31673Y14843
X31880Y19134
X31939Y15866
X32057Y17096
X32244Y15640
X32421Y7943
X32520Y14843
X32677Y15128
X32904Y38750
X32982Y15404
X33248Y14931
X33307Y38022
X33922Y28148
X33986Y33091
X34075Y23612
X34094Y33898
X34114Y32244
X34114Y29724
X34124Y35404
X34173Y25955
X34272Y28150
X34321Y33130
X34331Y30531
X34331Y30197
X34498Y36112
X34547Y24006
X34892Y24272
X34892Y23967
X34892Y23238
X35010Y1329
X35059Y16142
X35059Y15886
X35305Y43435
X35335Y35837
X35364Y41673
X35709Y16644
X35709Y16407
X35728Y29380
X35787Y32569
X36083Y29990
X36112Y29242
X36398Y24272
X36722Y14252
X36929Y8150
X37028Y3396
X37096Y9075
X37175Y33750
X37185Y25177
X37195Y23740
X37520Y14301
X37699Y14113
X37746Y7362
X37854Y13484
X37933Y15177
X37933Y14941
X37982Y14094
X38376Y14144
X38396Y15482
X38396Y15226
X38455Y10443
X38514Y6161
X38612Y14144
X38937Y16161
X38937Y15915
X39321Y5758
X39675Y12579
X39801Y11321
X39951Y12579
X40148Y4823
X40177Y11348
X40187Y12589
X40463Y7785
X40719Y9154
X40925Y11447
X42293Y17165
X42461Y17018
X42628Y16850
X43947Y4990
X44281Y13287
X44774Y15502
X45630Y15551
X45630Y1329
X45738Y5394
X46132Y14350
X46171Y13386
X46329Y15561
X46348Y13209
X46526Y13031
X46969Y13366
X47037Y14370
X47037Y453
X48105Y14961
X48238Y9203
X48391Y14961
X48573Y41693
X48656Y14961
X49016Y43287
X49301Y34419
X49783Y13327
X49843Y35472
X50305Y37293
X50325Y38543
X50807Y17510
X50866Y25256
X50935Y34390
X51043Y3002
X51634Y8120
X51870Y13337
X52736Y39705
X52963Y18258
X53002Y34390
X53031Y25256
X55108Y13327
X55768Y1496
X56289Y6043
X58031Y3878
X58110Y12874
X11188Y37840
X12714Y36590
X12792Y37722
X12798Y36246
X12798Y36974
X12828Y35911
X13005Y35271
X13521Y36807
X13521Y35783
X13521Y35015
X18253Y39038
X18597Y38831
X18686Y40731
X18716Y39333
X29895Y19582
X32041Y22278
X32048Y20218
X32789Y20024
X34690Y38799
X35236Y37303
X35279Y22800
X39518Y38799
X45108Y38799
X49400Y38799
X18253Y39038
X18597Y38831
X18716Y39333
X18686Y40731
X35236Y37303
X34690Y38800
X39518Y38800
X45108Y38800
X49400Y38800
X16412Y23758
X16786Y23739
X17229Y24319
X17751Y24516
X17721Y24831
X17387Y25461
X16560Y25333
X16225Y24821
X16235Y24270
X18253Y24260
X18942Y24250
X19188Y24044
X19601Y23719
X20035Y23709
X19847Y24231
X19375Y24713
X18981Y24762
X19090Y25254
X19562Y25176
X20261Y24811
X20477Y25628
X21068Y25540
X21176Y26002
X20606Y26514
X20379Y27182
X20901Y27144
X21137Y27361
X21285Y27056
X21767Y26977
X21895Y27321
X22210Y27203
X22347Y27577
X22682Y27351
X22840Y26997
X23145Y27095
X24011Y27636
X23538Y28365
X24179Y28877
X24473Y29044
X24759Y28817
X26029Y28748
X25980Y27833
X25989Y27518
X25989Y27203
X25812Y26071
X25192Y26071
X24208Y25756
X24621Y25225
X24897Y24674
X24927Y24123
X24916Y23808
X24247Y24191
X24021Y23965
X23509Y24871
X23667Y25195
X23351Y25628
X22682Y25127
X22200Y25215
X21875Y25205
X21550Y25186
X21688Y24506
X21078Y24516
X22013Y23916
X22338Y25983
X22279Y28207
X21796Y28266
X22042Y28532
X21216Y28602
X21304Y29221
X21777Y29408
X22417Y29359
X22269Y29871
X22997Y30363
X23342Y30786
X23469Y30028
X24198Y29861
X24601Y30126
X24385Y30737
X24434Y31140
X24257Y31426
X24897Y31642
X25832Y31357
X25744Y31052
X26078Y31042
X26417Y31039
X26107Y31829
X26127Y32184
X26295Y32479
X26097Y32774
X25221Y32646
X24572Y32941
X24257Y32922
X23391Y32843
X23181Y31928
X23696Y31790
X22525Y31682
X22200Y31613
X22584Y31091
X22210Y32636
X20576Y33178
X20349Y33571
X20527Y34063
X20468Y34437
X20507Y34871
X19149Y34910
X18696Y35156
X18492Y35449
X18007Y35766
X18027Y36081
X17219Y36288
X16954Y36465
X17032Y37046
X17288Y36859
X18164Y37085
X18440Y36859
X18735Y36573
X19129Y36209
X19149Y37213
X19894Y37040
X20192Y37420
X20763Y36416
X21009Y36209
X21324Y36189
X21275Y35648
X21885Y35717
X22229Y36426
X23391Y35796
X23214Y35521
X23364Y35240
X23538Y34969
X23844Y34703
X24159Y34704
X24031Y35373
X24267Y35648
X24656Y35637
X24680Y36424
X24365Y36396
X24946Y37331
X25281Y37311
X25999Y37331
X27003Y37331
X28476Y36510
X29269Y36514
X29788Y36140
X30497Y36199
X30842Y36977
X29768Y34487
X29769Y34014
X29031Y33680
X28647Y33483
X28263Y33198
X27978Y33058
X28017Y32568
X27810Y32311
X27309Y32263
X27180Y31790
X26836Y32075
X26816Y32400
X26871Y33389
X27160Y33906
X27614Y34300
X27840Y34575
X27948Y35048
X28174Y35323
X28155Y35639
X28667Y35403
X28725Y32056
X28410Y32026
X28105Y31937
X27771Y31751
X28292Y31150
X28047Y30875
X27958Y30402
X28209Y30194
X28489Y30402
X28666Y30003
X28666Y29684
X28962Y29576
X29317Y29713
X29454Y29998
X29769Y30028
X30910Y30195
X30990Y31495
X29056Y32095
X27013Y30205
X26225Y30072
X25192Y30432
X23972Y30481
X21009Y30569
X20743Y30393
X20655Y30697
X20340Y30727
X20428Y29920
X20743Y29910
X20842Y29605
X20340Y29004
X20684Y28266
X20349Y27932
X20064Y26878
X19710Y27203
X19178Y27331
X18824Y27321
X17810Y27695
X17849Y28217
X17495Y28778
X17013Y28699
X16934Y28384
X16147Y28227
X16235Y27715
X17180Y27567
X17190Y29684
X16658Y29467
X16688Y30067
X16366Y30186
X16265Y30500
X16708Y30845
X15979Y31337
X15674Y31416
X16029Y32449
X16363Y33247
X17377Y33414
X17298Y32577
X17810Y32705
X17899Y32193
X17662Y31977
X16983Y32213
X18701Y32470
X18962Y32981
X18204Y34152
X17584Y34191
X16668Y34191
X16058Y34172
X15743Y34880
X17082Y34782
X16816Y37745
X16471Y37607
X21068Y34024
X24611Y34339
X25242Y34202
X26816Y28168
X26964Y27863
X27190Y27636
X27269Y27331
X27427Y27056
X27475Y26042
X27279Y25776
X26698Y25648
X26668Y25993
X26078Y25579
X26314Y24782
X26629Y24772
X27023Y24703
X27308Y24556
X27653Y23561
X26117Y24132
X29139Y24408
X29110Y24880
X29414Y25018
X29769Y25048
X29927Y25520
X30251Y25523
X30567Y25540
X29562Y25520
X28853Y25097
X28647Y26032
X28450Y27351
X28155Y27469
X29632Y26623
X29956Y26623
X30271Y26632
X30625Y26623
X29857Y23739
X18597Y26160
X18946Y28762
X18903Y29595
X18108Y29408
X18007Y30009
X15792Y29487
X31256Y27942
X31747Y28099
X32142Y27892
X32525Y27892
X33017Y28099
X32938Y28453
X33223Y27843
X33194Y26317
X33105Y25097
X32783Y25097
X32554Y24605
X31934Y24369
X31938Y23926
X31432Y25146
X31481Y26199
X31826Y26199
X31653Y26790
X32071Y30530
X32309Y30530
X32751Y30884
X32977Y30382
X31531Y30963
X31176Y33109
X31107Y34054
X32131Y33896
X32204Y33424
X33253Y33581
X33272Y34162
X33155Y35313
X32968Y35609
X32672Y35491
X32347Y35495
X32387Y34861
X32004Y35826
X31687Y35806
X31201Y36470
X31599Y37272
X31973Y36918
X32485Y36346
X32840Y36593
X33056Y37065
X33430Y36947
X33282Y35825
X15733Y17912
X15989Y18966
X16146Y19241
X15827Y20201
X15818Y21123
X16856Y21118
X17308Y21495
X17689Y21437
X18243Y21465
X18627Y21403
X18981Y21507
X19365Y21403
X20064Y21357
X20418Y21446
X20861Y21475
X21284Y21328
X21501Y21076
X21747Y21357
X22170Y21465
X22583Y21554
X23046Y21515
X23174Y21072
X23479Y21357
X23873Y21495
X24247Y21406
X24749Y21406
X25162Y21357
X24886Y21062
X24552Y20717
X25014Y20343
X25605Y19458
X25930Y19458
X25516Y19142
X25487Y18749
X25172Y18759
X24810Y18744
X24483Y18690
X23939Y18387
X23922Y19477
X23598Y19477
X23331Y20324
X22879Y20649
X21638Y20324
X21176Y20658
X19906Y20324
X19512Y20649
X19799Y21073
X18243Y20719
X17948Y20345
X18117Y20078
X17455Y19674
X17446Y19359
X17455Y19044
X17396Y18464
X17829Y18759
X18164Y18788
X18486Y18781
X18823Y18765
X19316Y18769
X19631Y18780
X20125Y18764
X20447Y18769
X20969Y18847
X21285Y18770
X22386Y18616
X22852Y18769
X22328Y19469
X21934Y19477
X26333Y18808
X26648Y18788
X26963Y18710
X27249Y18158
X27289Y19331
X27208Y19792
X26717Y20275
X26334Y20591
X26579Y21023
X26471Y21436
X26855Y21357
X27347Y21367
X25871Y21357
X25556Y21561
X16363Y21958
X16865Y20265
X17593Y17666
X37697Y21970
X39252Y22122
X39311Y22564
X39340Y21472
X39134Y21232
X40620Y21301
X40403Y20724
X40167Y23131
X40167Y23338
X40167Y23574
X39537Y23519
X39390Y23854
X39065Y23489
X38199Y23235
X37805Y24273
X37864Y25261
X37864Y25517
X37707Y25818
X37707Y26133
X37726Y26497
X37728Y26824
X37738Y27139
X37777Y27454
X37756Y27777
X38100Y27584
X38337Y27594
X38484Y28102
X38484Y28348
X38720Y28353
X38976Y29027
X39281Y28948
X39665Y29499
X39951Y29804
X39941Y31005
X40817Y30966
X41041Y32056
X41447Y32048
X41545Y32354
X41309Y32570
X40986Y32572
X40786Y32291
X40494Y32454
X40482Y32135
X40177Y32275
X40138Y31960
X38346Y32678
X38274Y30867
X38140Y30554
X38140Y30239
X38880Y30288
X39508Y27541
X39754Y27541
X40006Y27541
X40336Y27051
X40817Y27014
X41122Y26905
X41378Y27938
X41378Y28155
X41171Y28198
X41171Y28513
X41101Y28960
X42628Y29686
X42489Y29982
X42549Y30936
X42618Y31409
X43120Y31241
X43627Y31364
X44118Y31399
X44508Y31399
X44961Y31399
X44968Y30919
X45246Y31104
X45620Y31035
X46319Y31094
X46476Y32304
X45935Y32216
X47461Y32747
X48327Y32747
X48327Y32491
X48114Y31688
X47244Y30070
X46781Y30070
X47278Y29150
X46550Y28575
X46545Y28332
X46222Y27591
X45945Y27426
X46250Y26635
X47018Y26974
X47352Y26812
X47490Y27860
X45502Y29726
X44862Y29735
X45098Y30395
X43563Y29165
X43396Y27781
X43396Y27564
X43189Y27476
X42972Y27728
X43081Y25743
X44105Y26748
X43791Y24167
X43799Y22915
X44026Y21974
X44203Y21708
X44212Y21196
X43888Y21157
X44085Y20763
X44094Y19808
X43760Y19789
X43279Y21331
X42766Y23200
X42766Y23436
X42766Y23672
X42451Y23584
X42451Y23820
X42136Y23922
X42136Y23584
X42136Y23348
X42136Y23111
X42451Y23348
X45441Y23106
X46053Y23476
X45974Y24047
X45718Y24470
X46250Y24873
X46053Y25326
X46902Y24225
X47293Y24194
X47293Y23948
X47293Y23702
X47293Y23456
X47293Y23210
X47569Y21836
X47037Y21639
X46589Y21354
X45866Y21383
X45709Y21698
X45679Y20871
X45587Y20378
X45581Y19513
X45620Y18863
X46053Y19287
X46516Y19562
X46508Y20167
X46488Y20386
X47697Y20395
X47687Y20149
X47687Y19883
X47972Y20887
X47972Y21133
X47972Y21379
X46565Y18224
X45138Y18234
X43740Y17629
X43445Y17629
X39596Y24405
X39734Y24691
X39744Y25015
X40236Y25608
X40236Y25938
X40551Y25970
X39931Y26541
X41900Y32728
X42962Y32383
X43100Y33200
X43592Y33200
X44126Y33104
X44618Y33104
X45120Y33104
X45935Y33180
X48327Y32984
X41525Y33230
X38789Y33938
X38297Y33948
X12975Y35272
X13491Y35016
X13491Y35784
X12798Y35912
X12769Y36246
X12684Y36591
X12769Y36975
X12763Y37723
X13491Y36807
X11158Y37841
X29895Y19582
X32048Y20219
X32789Y20025
X32041Y22279
X35279Y22800
T02
X32067Y40276
X32382Y40965
X32697Y40276
X33012Y40965
X33327Y40276
X31260Y40876G85X31260Y40364
X34134Y40876G85X34134Y40364
T03
X16457Y11776
X16457Y10276
X18238Y11801
X18238Y10301
X19035Y11793
X19035Y10293
X20315Y11793
X20315Y10293
X21496Y11852
X21496Y10352
X48848Y12470
X48848Y10541
X49990Y12470
X49990Y10541
T04
X1024Y38031
X1024Y33750
X1024Y28406
X1024Y24094
X1024Y20197
X1024Y16053
X1024Y12106
X1024Y8406
X1083Y5719
X6280Y45266
X10561Y45266
X14026Y12854
X14744Y45266
X15020Y12854
X16014Y12854
X17008Y12854
X17500Y16358
X18081Y12854
X18839Y16348
X19154Y12854
X19242Y45266
X19951Y16348
X20217Y12854
X21063Y16348
X22047Y12835
X22510Y11142
X23888Y45266
X25079Y12746
X25138Y11033
X26122Y12746
X26211Y11033
X27205Y12746
X27313Y11033
X27933Y45266
X28248Y12746
X28593Y11014
X29291Y12746
X29675Y11024
X30335Y12746
X31083Y11014
X31378Y12746
X32146Y11014
X32215Y45276
X32431Y12746
X33189Y11014
X33484Y12736
X34193Y11014
X34528Y12736
X35266Y11014
X35630Y15866
X36348Y11014
X36398Y45276
X37431Y11014
X40512Y15876
X40896Y45276
X41634Y15876
X45039Y45256
X49587Y45276
X53730Y45256
X58278Y45276
X63346Y38612
X63346Y34331
X63346Y28986
X63346Y24675
X63346Y20778
X63346Y16634
X63346Y12687
X63346Y8986
X63346Y5846
X32381Y32709
X33181Y32709
X32781Y34709
T05
X15531Y7331
X15531Y6331
X15531Y3950
X15531Y2950
X16531Y7331
X16531Y6331
X16531Y3950
X16531Y2950
X17531Y7331
X17531Y6331
X17531Y3950
X17531Y2950
X18531Y7331
X18531Y6331
X18531Y3950
X18531Y2950
X19531Y7331
X19531Y6331
X19531Y3950
X19531Y2950
X20531Y7331
X20531Y6331
X20531Y3950
X20531Y2950
X21531Y7331
X21531Y6331
X21531Y3950
X21531Y2950
X22531Y7331
X22531Y6331
X22531Y3950
X22531Y2950
X23531Y7331
X23531Y6331
X23531Y3950
X23531Y2950
X24531Y7331
X24531Y6331
X24531Y3950
X24531Y2950
X25531Y7331
X25531Y6331
X25531Y3950
X25531Y2950
X26531Y7331
X26531Y6331
X26531Y3950
X26531Y2950
X27531Y7331
X27531Y6331
X27531Y3950
X27531Y2950
X28531Y7331
X28531Y6331
X28531Y3950
X28531Y2950
X29531Y7331
X29531Y6331
X29531Y3950
X29531Y2950
X30531Y7331
X30531Y6331
X30531Y3950
X30531Y2950
X31531Y7331
X31531Y6331
X31531Y3950
X31531Y2950
X32531Y7331
X32531Y6331
X32531Y3950
X32531Y2950
X33531Y7331
X33531Y6331
X33531Y3950
X33531Y2950
X39818Y7331
X39818Y6331
X39818Y3950
X39818Y2950
X40818Y7331
X40818Y6331
X40818Y3950
X40818Y2950
X41818Y7331
X41818Y6331
X41818Y3950
X41818Y2950
X42818Y7331
X42818Y6331
X42818Y3950
X42818Y2950
X43818Y7331
X43818Y6331
X43818Y3950
X43818Y2950
X44818Y7331
X44818Y6331
X44818Y3950
X44818Y2950
X45818Y7331
X45818Y6331
X45818Y3950
X45818Y2950
X46818Y7331
X46818Y6331
X46818Y3950
X46818Y2950
T06
X8306Y5233
X10137Y7331
X10137Y4131
X11279Y5048
X12420Y7331
X12420Y4131
X49901Y7331
X49901Y4131
X51043Y5048
X52184Y7331
X52184Y4131
X53365Y5048
X54507Y7331
X54507Y4131
X56259Y5233
T07
X7342Y2162
X36672Y2162
X57224Y2162
M30
