M48
INCH,TZ
T01C0.011800
T02C0.039000
T03C0.043300
T04C0.086600
T05C0.145700
%
T01
X10691Y33972
X12217Y32722
X12295Y33853
X12301Y32377
X12301Y33105
X12331Y32042
X12508Y31403
X13024Y32938
X13024Y31914
X13024Y31147
X18329Y38263
X18673Y38056
X18762Y39956
X18791Y38558
X30199Y14857
X32345Y17554
X32351Y15494
X33093Y15300
X35583Y18076
X36768Y38844
X37315Y37348
X41596Y38844
X47187Y38844
X51478Y38844
X40817Y19081
X42372Y19233
X42431Y19675
X42460Y18583
X42254Y18343
X43740Y18412
X43523Y17835
X43287Y20242
X43287Y20449
X43287Y20685
X42657Y20630
X42510Y20965
X42185Y20600
X41319Y20346
X40925Y21384
X40984Y22372
X40984Y22628
X40827Y22929
X40827Y23244
X40846Y23608
X40848Y23935
X40858Y24250
X40897Y24565
X40876Y24888
X41220Y24695
X41457Y24705
X41604Y25213
X41604Y25459
X41840Y25464
X42096Y26138
X42401Y26059
X42785Y26610
X43071Y26915
X43061Y28116
X43937Y28077
X44161Y29167
X44567Y29159
X44665Y29465
X44429Y29681
X44106Y29683
X43906Y29402
X43614Y29565
X43602Y29246
X43297Y29386
X43258Y29071
X41466Y29789
X41394Y27978
X41260Y27665
X41260Y27350
X42000Y27399
X42628Y24652
X42874Y24652
X43126Y24652
X43456Y24162
X43937Y24125
X44242Y24016
X44498Y25049
X44498Y25266
X44291Y25309
X44291Y25624
X44221Y26071
X45748Y26797
X45609Y27093
X45669Y28047
X45738Y28520
X46240Y28352
X46747Y28475
X47238Y28510
X47628Y28510
X48081Y28510
X48088Y28030
X48366Y28215
X48740Y28146
X49439Y28205
X49596Y29415
X49055Y29327
X50581Y29858
X51447Y29858
X51447Y29602
X51234Y28799
X50364Y27181
X49901Y27181
X50398Y26261
X49670Y25686
X49665Y25443
X49342Y24702
X49065Y24537
X49370Y23746
X50138Y24085
X50472Y23923
X50610Y24971
X48622Y26837
X47982Y26846
X48218Y27506
X46683Y26276
X46516Y24892
X46516Y24675
X46309Y24587
X46092Y24839
X46201Y22854
X47225Y23859
X46911Y21278
X46919Y20026
X47146Y19085
X47323Y18819
X47332Y18307
X47008Y18268
X47205Y17874
X47214Y16919
X46880Y16900
X46399Y18442
X45886Y20311
X45886Y20547
X45886Y20783
X45571Y20695
X45571Y20931
X45256Y21033
X45256Y20695
X45256Y20459
X45256Y20222
X45571Y20459
X48561Y20217
X49173Y20587
X49094Y21158
X48838Y21581
X49370Y21984
X49173Y22437
X50022Y21336
X50413Y21305
X50413Y21059
X50413Y20813
X50413Y20567
X50413Y20321
X50689Y18947
X50157Y18750
X49709Y18465
X48986Y18494
X48829Y18809
X48799Y17982
X48707Y17489
X48701Y16624
X48740Y15974
X49173Y16398
X49636Y16673
X49628Y17278
X49608Y17497
X50817Y17506
X50807Y17260
X50807Y16994
X51092Y17998
X51092Y18244
X51092Y18490
X49685Y15335
X48258Y15345
X46860Y14740
X46565Y14740
X42716Y21516
X42854Y21802
X42864Y22126
X43356Y22719
X43356Y23049
X43671Y23081
X43051Y23652
X45020Y29839
X46082Y29494
X46220Y30311
X46712Y30311
X47246Y30215
X47738Y30215
X48240Y30215
X49055Y30291
X51447Y30095
X44645Y30341
X41909Y31049
X41417Y31059
X30196Y14853
X32349Y15490
X33090Y15296
X32342Y17550
X35580Y18071
X12476Y31398
X12992Y31142
X12992Y31910
X12299Y32038
X12270Y32372
X12185Y32717
X12270Y33101
X12264Y33849
X12992Y32933
X10659Y33967
X15679Y14212
X15935Y15266
X16092Y15541
X15773Y16501
X15764Y17423
X16802Y17418
X17254Y17795
X17635Y17737
X18189Y17765
X18573Y17703
X18927Y17807
X19311Y17703
X20010Y17657
X20364Y17746
X20807Y17775
X21230Y17628
X21447Y17376
X21693Y17657
X22116Y17765
X22529Y17854
X22992Y17815
X23120Y17372
X23425Y17657
X23819Y17795
X24193Y17706
X24695Y17706
X25108Y17657
X24832Y17362
X24498Y17017
X24960Y16643
X25551Y15758
X25876Y15758
X25462Y15442
X25433Y15049
X25118Y15059
X24756Y15044
X24429Y14990
X23885Y14687
X23868Y15777
X23544Y15777
X23277Y16624
X22825Y16949
X21584Y16624
X21122Y16958
X19852Y16624
X19458Y16949
X19745Y17373
X18189Y17019
X17894Y16645
X18063Y16378
X17401Y15974
X17392Y15659
X17401Y15344
X17342Y14764
X17775Y15059
X18110Y15088
X18432Y15081
X18769Y15065
X19262Y15069
X19577Y15080
X20071Y15064
X20393Y15069
X20915Y15147
X21231Y15070
X22332Y14916
X22798Y15069
X22274Y15769
X21880Y15777
X26279Y15108
X26594Y15088
X26909Y15010
X27195Y14458
X27235Y15631
X27154Y16092
X26663Y16575
X26280Y16891
X26525Y17323
X26417Y17736
X26801Y17657
X27293Y17667
X25817Y17657
X25502Y17861
X16309Y18258
X16811Y16565
X17539Y13966
X16250Y20393
X16624Y20374
X17067Y20954
X17589Y21151
X17559Y21466
X17225Y22096
X16398Y21968
X16063Y21456
X16073Y20905
X18091Y20895
X18780Y20885
X19026Y20679
X19439Y20354
X19873Y20344
X19685Y20866
X19213Y21348
X18819Y21397
X18928Y21889
X19400Y21811
X20099Y21446
X20315Y22263
X20906Y22175
X21014Y22637
X20444Y23149
X20217Y23817
X20739Y23779
X20975Y23996
X21123Y23691
X21605Y23612
X21733Y23956
X22048Y23838
X22185Y24212
X22520Y23986
X22678Y23632
X22983Y23730
X23849Y24271
X23376Y25000
X24017Y25512
X24311Y25679
X24597Y25452
X25867Y25383
X25818Y24468
X25827Y24153
X25827Y23838
X25650Y22706
X25030Y22706
X24046Y22391
X24459Y21860
X24735Y21309
X24765Y20758
X24754Y20443
X24085Y20826
X23859Y20600
X23347Y21506
X23505Y21830
X23189Y22263
X22520Y21762
X22038Y21850
X21713Y21840
X21388Y21821
X21526Y21141
X20916Y21151
X21851Y20551
X22176Y22618
X22117Y24842
X21634Y24901
X21880Y25167
X21054Y25237
X21142Y25856
X21615Y26043
X22255Y25994
X22107Y26506
X22835Y26998
X23180Y27421
X23307Y26663
X24036Y26496
X24439Y26761
X24223Y27372
X24272Y27775
X24095Y28061
X24735Y28277
X25670Y27992
X25582Y27687
X25916Y27677
X26255Y27674
X25945Y28464
X25965Y28819
X26133Y29114
X25935Y29409
X25059Y29281
X24410Y29576
X24095Y29557
X23229Y29478
X23019Y28563
X23534Y28425
X22363Y28317
X22038Y28248
X22422Y27726
X22048Y29271
X20414Y29813
X20187Y30206
X20365Y30698
X20306Y31072
X20345Y31506
X18987Y31545
X18534Y31791
X18330Y32084
X17845Y32401
X17865Y32716
X17057Y32923
X16792Y33100
X16870Y33681
X17126Y33494
X18002Y33720
X18278Y33494
X18573Y33208
X18967Y32844
X18987Y33848
X19732Y33675
X20030Y34055
X20601Y33051
X20847Y32844
X21162Y32824
X21113Y32283
X21723Y32352
X22067Y33061
X23229Y32431
X23052Y32156
X23202Y31875
X23376Y31604
X23682Y31338
X23997Y31339
X23869Y32008
X24105Y32283
X24494Y32272
X24518Y33059
X24203Y33031
X24784Y33966
X25119Y33946
X25837Y33966
X26841Y33966
X28314Y33145
X29107Y33149
X29626Y32775
X30335Y32834
X30680Y33612
X29606Y31122
X29607Y30649
X28869Y30315
X28485Y30118
X28101Y29833
X27816Y29693
X27855Y29203
X27648Y28946
X27147Y28898
X27018Y28425
X26674Y28710
X26654Y29035
X26709Y30024
X26998Y30541
X27452Y30935
X27678Y31210
X27786Y31683
X28012Y31958
X27993Y32274
X28505Y32038
X28563Y28691
X28248Y28661
X27943Y28572
X27609Y28386
X28130Y27785
X27885Y27510
X27796Y27037
X28047Y26829
X28327Y27037
X28504Y26638
X28504Y26319
X28800Y26211
X29155Y26348
X29292Y26633
X29607Y26663
X30748Y26830
X30828Y28130
X28894Y28730
X26851Y26840
X26063Y26707
X25030Y27067
X23810Y27116
X20847Y27204
X20581Y27028
X20493Y27332
X20178Y27362
X20266Y26555
X20581Y26545
X20680Y26240
X20178Y25639
X20522Y24901
X20187Y24567
X19902Y23513
X19548Y23838
X19016Y23966
X18662Y23956
X17648Y24330
X17687Y24852
X17333Y25413
X16851Y25334
X16772Y25019
X15985Y24862
X16073Y24350
X17018Y24202
X17028Y26319
X16496Y26102
X16526Y26702
X16204Y26821
X16103Y27135
X16546Y27480
X15817Y27972
X15512Y28051
X15867Y29084
X16201Y29882
X17215Y30049
X17136Y29212
X17648Y29340
X17737Y28828
X17500Y28612
X16821Y28848
X18539Y29105
X18800Y29616
X18042Y30787
X17422Y30826
X16506Y30826
X15896Y30807
X15581Y31515
X16920Y31417
X16654Y34380
X16309Y34242
X20906Y30659
X24449Y30974
X25080Y30837
X26654Y24803
X26802Y24498
X27028Y24271
X27107Y23966
X27265Y23691
X27313Y22677
X27117Y22411
X26536Y22283
X26506Y22628
X25916Y22214
X26152Y21417
X26467Y21407
X26861Y21338
X27146Y21191
X27491Y20196
X25955Y20767
X28977Y21043
X28948Y21515
X29252Y21653
X29607Y21683
X29765Y22155
X30089Y22158
X30405Y22175
X29400Y22155
X28691Y21732
X28485Y22667
X28288Y23986
X27993Y24104
X29470Y23258
X29794Y23258
X30109Y23267
X30463Y23258
X29695Y20374
X18435Y22795
X18784Y25397
X18741Y26230
X17946Y26043
X17845Y26644
X15630Y26122
X31094Y24577
X31585Y24734
X31980Y24527
X32363Y24527
X32855Y24734
X32776Y25088
X33061Y24478
X33032Y22952
X32943Y21732
X32621Y21732
X32392Y21240
X31772Y21004
X31776Y20561
X31270Y21781
X31319Y22834
X31664Y22834
X31491Y23425
X31909Y27165
X32147Y27165
X32589Y27519
X32815Y27017
X31369Y27598
X31014Y29744
X30945Y30689
X31969Y30531
X32042Y30059
X33091Y30216
X33110Y30797
X32993Y31948
X32806Y32244
X32510Y32126
X32185Y32130
X32225Y31496
X31842Y32461
X31525Y32441
X31039Y33105
X31437Y33907
X31811Y33553
X32323Y32981
X32678Y33228
X32894Y33700
X33268Y33582
X33120Y32460
X18327Y38258
X18671Y38051
X18790Y38553
X18760Y39951
X37313Y37342
X36767Y38839
X41595Y38839
X47185Y38839
X51477Y38839
T02
X32219Y29344
X33019Y29344
X32619Y31344
T03
X15533Y7336
X15533Y6336
X15533Y3955
X15533Y2955
X16533Y7336
X16533Y6336
X16533Y3955
X16533Y2955
X17533Y7336
X17533Y6336
X17533Y3955
X17533Y2955
X18533Y7336
X18533Y6336
X18533Y3955
X18533Y2955
X19533Y7336
X19533Y6336
X19533Y3955
X19533Y2955
X20533Y7336
X20533Y6336
X20533Y3955
X20533Y2955
X21533Y7336
X21533Y6336
X21533Y3955
X21533Y2955
X22533Y7336
X22533Y6336
X22533Y3955
X22533Y2955
X23533Y7336
X23533Y6336
X23533Y3955
X23533Y2955
X24533Y7336
X24533Y6336
X24533Y3955
X24533Y2955
X25533Y7336
X25533Y6336
X25533Y3955
X25533Y2955
X26533Y7336
X26533Y6336
X26533Y3955
X26533Y2955
X27533Y7336
X27533Y6336
X27533Y3955
X27533Y2955
X28533Y7336
X28533Y6336
X28533Y3955
X28533Y2955
X29533Y7336
X29533Y6336
X29533Y3955
X29533Y2955
X30533Y7336
X30533Y6336
X30533Y3955
X30533Y2955
X31533Y7336
X31533Y6336
X31533Y3955
X31533Y2955
X32533Y7336
X32533Y6336
X32533Y3955
X32533Y2955
X33533Y7336
X33533Y6336
X33533Y3955
X33533Y2955
X39820Y7336
X39820Y6336
X39820Y3955
X39820Y2955
X40820Y7336
X40820Y6336
X40820Y3955
X40820Y2955
X41820Y7336
X41820Y6336
X41820Y3955
X41820Y2955
X42820Y7336
X42820Y6336
X42820Y3955
X42820Y2955
X43820Y7336
X43820Y6336
X43820Y3955
X43820Y2955
X44820Y7336
X44820Y6336
X44820Y3955
X44820Y2955
X45820Y7336
X45820Y6336
X45820Y3955
X45820Y2955
X46820Y7336
X46820Y6336
X46820Y3955
X46820Y2955
T04
X8308Y5238
X10139Y7336
X10139Y4136
X11281Y5053
X12422Y7336
X12422Y4136
X36674Y2167
X49903Y7336
X49903Y4136
X51045Y5053
X52186Y7336
X52186Y4136
X53367Y5053
X54509Y7336
X54509Y4136
X56261Y5238
T05
X7344Y2167
X57226Y2167
M30
